<svg xmlns="http://www.w3.org/2000/svg" xmlns:xlink="http://www.w3.org/1999/xlink" version="1.1" class="marks" width="1147" height="464" viewBox="0 0 1147 464"><rect width="1147" height="464" fill="white"/><g fill="none" stroke-miterlimit="10" transform="translate(337,66)"><g class="mark-group role-frame root" role="graphics-object" aria-roledescription="group mark container"><g transform="translate(0,0)"><path class="background" aria-hidden="true" d="M0,0h0v0h0Z"/><g><g class="mark-group role-column-title column-title" role="graphics-object" aria-roledescription="group mark container"><g transform="translate(236,-35)"><path class="background" aria-hidden="true" d="M0,0h0v0h0Z"/><g><g class="mark-group role-title"><g transform="translate(0,-26)"><path class="background" aria-hidden="true" d="M0,0h0v0h0Z" pointer-events="none"/><g><g class="mark-text role-title-text" role="graphics-symbol" aria-roledescription="title" aria-label="Title text 'Convolution Benchmarks'" pointer-events="none"><text text-anchor="middle" transform="translate(0,13)" font-family="sans-serif" font-size="16px" font-weight="bold" fill="#000" opacity="1">Convolution Benchmarks</text></g></g><path class="foreground" aria-hidden="true" d="" pointer-events="none" display="none"/></g></g></g><path class="foreground" aria-hidden="true" d="" display="none"/></g></g><g class="mark-group role-column-header column_header" role="graphics-object" aria-roledescription="group mark container"><g transform="translate(0,-1)"><path class="background" aria-hidden="true" d="M0,0h200v0h-200Z"/><g><g class="mark-group role-title"><g transform="translate(100,-24)"><path class="background" aria-hidden="true" d="M0,0h0v0h0Z" pointer-events="none"/><g><g class="mark-text role-title-text" role="graphics-symbol" aria-roledescription="title" aria-label="Title text 'kernel size 16'" pointer-events="none"><text text-anchor="middle" transform="translate(0,11)" font-family="sans-serif" font-size="14px" fill="#000" opacity="1">kernel size 16</text></g></g><path class="foreground" aria-hidden="true" d="" pointer-events="none" display="none"/></g></g></g><path class="foreground" aria-hidden="true" d="" display="none"/></g><g transform="translate(575,-1)"><path class="background" aria-hidden="true" d="M0,0h200v0h-200Z"/><g><g class="mark-group role-title"><g transform="translate(100,-24)"><path class="background" aria-hidden="true" d="M0,0h0v0h0Z" pointer-events="none"/><g><g class="mark-text role-title-text" role="graphics-symbol" aria-roledescription="title" aria-label="Title text 'kernel size 1024'" pointer-events="none"><text text-anchor="middle" transform="translate(0,11)" font-family="sans-serif" font-size="14px" fill="#000" opacity="1">kernel size 1024</text></g></g><path class="foreground" aria-hidden="true" d="" pointer-events="none" display="none"/></g></g></g><path class="foreground" aria-hidden="true" d="" display="none"/></g></g><g class="mark-group role-scope cell" role="graphics-object" aria-roledescription="group mark container"><g transform="translate(0,0)"><path class="background" aria-hidden="true" d="M0.5,0.5h200v360h-200Z" stroke="#ddd"/><g><g class="mark-group role-axis" aria-hidden="true"><g transform="translate(0.5,360.5)"><path class="background" aria-hidden="true" d="M0,0h0v0h0Z" pointer-events="none"/><g><g class="mark-rule role-axis-grid" pointer-events="none"><line transform="translate(0,0)" x2="0" y2="-360" stroke="#ddd" stroke-width="1" opacity="1"/><line transform="translate(42,0)" x2="0" y2="-360" stroke="#ddd" stroke-width="1" opacity="1"/><line transform="translate(83,0)" x2="0" y2="-360" stroke="#ddd" stroke-width="1" opacity="1"/><line transform="translate(125,0)" x2="0" y2="-360" stroke="#ddd" stroke-width="1" opacity="1"/><line transform="translate(167,0)" x2="0" y2="-360" stroke="#ddd" stroke-width="1" opacity="1"/></g></g><path class="foreground" aria-hidden="true" d="" pointer-events="none" display="none"/></g></g><g class="mark-group role-axis" role="graphics-symbol" aria-roledescription="axis" aria-label="X-axis titled 'mean execution time in µs' for a linear scale with values from 0 to 240"><g transform="translate(0.5,360.5)"><path class="background" aria-hidden="true" d="M0,0h0v0h0Z" pointer-events="none"/><g><g class="mark-rule role-axis-tick" pointer-events="none"><line transform="translate(0,0)" x2="0" y2="5" stroke="#888" stroke-width="1" opacity="1"/><line transform="translate(42,0)" x2="0" y2="5" stroke="#888" stroke-width="1" opacity="1"/><line transform="translate(83,0)" x2="0" y2="5" stroke="#888" stroke-width="1" opacity="1"/><line transform="translate(125,0)" x2="0" y2="5" stroke="#888" stroke-width="1" opacity="1"/><line transform="translate(167,0)" x2="0" y2="5" stroke="#888" stroke-width="1" opacity="1"/></g><g class="mark-text role-axis-label" pointer-events="none"><text text-anchor="start" transform="translate(0,15)" font-family="sans-serif" font-size="10px" fill="#000" opacity="1">0</text><text text-anchor="middle" transform="translate(41.66666666666667,15)" font-family="sans-serif" font-size="10px" fill="#000" opacity="1">50</text><text text-anchor="middle" transform="translate(83.33333333333334,15)" font-family="sans-serif" font-size="10px" fill="#000" opacity="1">100</text><text text-anchor="middle" transform="translate(125,15)" font-family="sans-serif" font-size="10px" fill="#000" opacity="1">150</text><text text-anchor="middle" transform="translate(166.66666666666669,15)" font-family="sans-serif" font-size="10px" fill="#000" opacity="1">200</text></g><g class="mark-rule role-axis-domain" pointer-events="none"><line transform="translate(0,0)" x2="200" y2="0" stroke="#888" stroke-width="1" opacity="1"/></g><g class="mark-text role-axis-title" pointer-events="none"><text text-anchor="middle" transform="translate(100,30)" font-family="sans-serif" font-size="11px" font-weight="bold" fill="#000" opacity="1">mean execution time in µs</text></g></g><path class="foreground" aria-hidden="true" d="" pointer-events="none" display="none"/></g></g><g class="mark-group role-axis" role="graphics-symbol" aria-roledescription="axis" aria-label="Y-axis titled 'algorithm' for a discrete scale with 18 values: (wilczek) AVX NoAlign Outer-Loop Vectorization, inputPerKernelValue Transposed, (wilczek) AVX NoAlign Outer- and Inner-Loop Vectorization, (wilczek) AVX NoAlign Inner-Loop Vectorization, (wilczek) Outer-Loop Vectorization, ending with inputPerKernelValue Transposed LoopFissionIndexArithmetic"><g transform="translate(0.5,0.5)"><path class="background" aria-hidden="true" d="M0,0h0v0h0Z" pointer-events="none"/><g><g class="mark-rule role-axis-tick" pointer-events="none"><line transform="translate(0,10)" x2="-5" y2="0" stroke="#888" stroke-width="1" opacity="1"/><line transform="translate(0,30)" x2="-5" y2="0" stroke="#888" stroke-width="1" opacity="1"/><line transform="translate(0,50)" x2="-5" y2="0" stroke="#888" stroke-width="1" opacity="1"/><line transform="translate(0,70)" x2="-5" y2="0" stroke="#888" stroke-width="1" opacity="1"/><line transform="translate(0,90)" x2="-5" y2="0" stroke="#888" stroke-width="1" opacity="1"/><line transform="translate(0,110)" x2="-5" y2="0" stroke="#888" stroke-width="1" opacity="1"/><line transform="translate(0,130)" x2="-5" y2="0" stroke="#888" stroke-width="1" opacity="1"/><line transform="translate(0,150)" x2="-5" y2="0" stroke="#888" stroke-width="1" opacity="1"/><line transform="translate(0,170)" x2="-5" y2="0" stroke="#888" stroke-width="1" opacity="1"/><line transform="translate(0,190)" x2="-5" y2="0" stroke="#888" stroke-width="1" opacity="1"/><line transform="translate(0,210)" x2="-5" y2="0" stroke="#888" stroke-width="1" opacity="1"/><line transform="translate(0,230)" x2="-5" y2="0" stroke="#888" stroke-width="1" opacity="1"/><line transform="translate(0,250)" x2="-5" y2="0" stroke="#888" stroke-width="1" opacity="1"/><line transform="translate(0,270)" x2="-5" y2="0" stroke="#888" stroke-width="1" opacity="1"/><line transform="translate(0,290)" x2="-5" y2="0" stroke="#888" stroke-width="1" opacity="1"/><line transform="translate(0,310)" x2="-5" y2="0" stroke="#888" stroke-width="1" opacity="1"/><line transform="translate(0,330)" x2="-5" y2="0" stroke="#888" stroke-width="1" opacity="1"/><line transform="translate(0,350)" x2="-5" y2="0" stroke="#888" stroke-width="1" opacity="1"/></g><g class="mark-text role-axis-label" pointer-events="none"><text text-anchor="end" transform="translate(-7,12.5)" font-family="sans-serif" font-size="10px" fill="#000" opacity="1">(wilczek) AVX NoAlign Outer-Loop Vectorization</text><text text-anchor="end" transform="translate(-7,32.5)" font-family="sans-serif" font-size="10px" fill="#000" opacity="1">inputPerKernelValue Transposed</text><text text-anchor="end" transform="translate(-7,52.5)" font-family="sans-serif" font-size="10px" fill="#000" opacity="1">(wilczek) AVX NoAlign Outer- and Inner-Loop Vectorization</text><text text-anchor="end" transform="translate(-7,72.5)" font-family="sans-serif" font-size="10px" fill="#000" opacity="1">(wilczek) AVX NoAlign Inner-Loop Vectorization</text><text text-anchor="end" transform="translate(-7,92.5)" font-family="sans-serif" font-size="10px" fill="#000" opacity="1">(wilczek) Outer-Loop Vectorization</text><text text-anchor="end" transform="translate(-7,112.5)" font-family="sans-serif" font-size="10px" fill="#000" opacity="1">(chaowang15) convolve1D</text><text text-anchor="end" transform="translate(-7,132.5)" font-family="sans-serif" font-size="10px" fill="#000" opacity="1">(wilczek) Outer- and Inner-Loop Vectorization</text><text text-anchor="end" transform="translate(-7,152.5)" font-family="sans-serif" font-size="10px" fill="#000" opacity="1">(wilczek) Inner-Loop Vectorization</text><text text-anchor="end" transform="translate(-7,172.5)" font-family="sans-serif" font-size="10px" fill="#000" opacity="1">inputPerKernelValue Transposed OuterLoopUnrolled</text><text text-anchor="end" transform="translate(-7,192.5)" font-family="sans-serif" font-size="10px" fill="#000" opacity="1">(matlab-like) conv 'valid' shape pre padded</text><text text-anchor="end" transform="translate(-7,212.5)" font-family="sans-serif" font-size="10px" fill="#000" opacity="1">(matlab-like) conv 'full' shape</text><text text-anchor="end" transform="translate(-7,232.5)" font-family="sans-serif" font-size="10px" fill="#000" opacity="1">(wilczek) Single</text><text text-anchor="end" transform="translate(-7,252.5)" font-family="sans-serif" font-size="10px" fill="#000" opacity="1">inputPerKernelValue Transposed InnerAndOuterLoopUnrolled</text><text text-anchor="end" transform="translate(-7,272.5)" font-family="sans-serif" font-size="10px" fill="#000" opacity="1">kernelPerInputValue Transposed</text><text text-anchor="end" transform="translate(-7,292.5)" font-family="sans-serif" font-size="10px" fill="#000" opacity="1">inputPerKernelValue Transposed InnerLoopUnrolled</text><text text-anchor="end" transform="translate(-7,312.5)" font-family="sans-serif" font-size="10px" fill="#000" opacity="1">inputPerKernelValue Transposed LoopFission</text><text text-anchor="end" transform="translate(-7,332.5)" font-family="sans-serif" font-size="10px" fill="#000" opacity="1">kernelPerInputValue Transposed LoopFission</text><text text-anchor="end" transform="translate(-7,352.5)" font-family="sans-serif" font-size="10px" fill="#000" opacity="1">inputPerKernelValue Transposed LoopFissionIndexArithmetic</text></g><g class="mark-rule role-axis-domain" pointer-events="none"><line transform="translate(0,0)" x2="0" y2="360" stroke="#888" stroke-width="1" opacity="1"/></g><g class="mark-text role-axis-title" pointer-events="none"><text text-anchor="middle" transform="translate(-320,180) rotate(-90) translate(0,-2)" font-family="sans-serif" font-size="11px" font-weight="bold" fill="#000" opacity="1">algorithm</text></g></g><path class="foreground" aria-hidden="true" d="" pointer-events="none" display="none"/></g></g><g class="mark-rect role-mark child_layer_0_marks" role="graphics-object" aria-roledescription="rect mark container"><path aria-label="mean execution time in µs: 147; algorithm: kernelPerInputValue Transposed" role="graphics-symbol" aria-roledescription="bar" d="M0,261.9L118.50000000000001,261.9C120.70766009797602,261.9,122.50000000000001,263.692339902024,122.50000000000001,265.9L122.50000000000001,274.09999999999997C122.50000000000001,276.30766009797594,120.70766009797602,278.09999999999997,118.50000000000001,278.09999999999997L0,278.09999999999997C0,278.09999999999997,0,278.09999999999997,0,278.09999999999997L0,261.9C0,261.9,0,261.9,0,261.9Z" fill="#4c78a8"/><path aria-label="mean execution time in µs: 29; algorithm: inputPerKernelValue Transposed" role="graphics-symbol" aria-roledescription="bar" d="M0,21.9L20.166666666666668,21.9C22.374326764642667,21.9,24.166666666666668,23.692339902024,24.166666666666668,25.9L24.166666666666668,34.099999999999994C24.166666666666668,36.307660097976,22.374326764642667,38.099999999999994,20.166666666666668,38.099999999999994L0,38.099999999999994C0,38.099999999999994,0,38.099999999999994,0,38.099999999999994L0,21.9C0,21.9,0,21.9,0,21.9Z" fill="#4c78a8"/><path aria-label="mean execution time in µs: 155; algorithm: inputPerKernelValue Transposed InnerLoopUnrolled" role="graphics-symbol" aria-roledescription="bar" d="M0,281.9L125.16666666666669,281.9C127.37432676464269,281.9,129.16666666666669,283.692339902024,129.16666666666669,285.9L129.16666666666669,294.09999999999997C129.16666666666669,296.30766009797594,127.37432676464269,298.09999999999997,125.16666666666669,298.09999999999997L0,298.09999999999997C0,298.09999999999997,0,298.09999999999997,0,298.09999999999997L0,281.9C0,281.9,0,281.9,0,281.9Z" fill="#4c78a8"/><path aria-label="mean execution time in µs: 119; algorithm: inputPerKernelValue Transposed OuterLoopUnrolled" role="graphics-symbol" aria-roledescription="bar" d="M0,161.9L95.16666666666667,161.9C97.37432676464267,161.9,99.16666666666667,163.692339902024,99.16666666666667,165.9L99.16666666666667,174.1C99.16666666666667,176.307660097976,97.37432676464267,178.1,95.16666666666667,178.1L0,178.1C0,178.1,0,178.1,0,178.1L0,161.9C0,161.9,0,161.9,0,161.9Z" fill="#4c78a8"/><path aria-label="mean execution time in µs: 128; algorithm: inputPerKernelValue Transposed InnerAndOuterLoopUnrolled" role="graphics-symbol" aria-roledescription="bar" d="M0,241.9L102.66666666666667,241.9C104.87432676464267,241.9,106.66666666666667,243.692339902024,106.66666666666667,245.9L106.66666666666667,254.10000000000002C106.66666666666667,256.307660097976,104.87432676464267,258.1,102.66666666666667,258.1L0,258.1C0,258.1,0,258.1,0,258.1L0,241.9C0,241.9,0,241.9,0,241.9Z" fill="#4c78a8"/><path aria-label="mean execution time in µs: 158; algorithm: inputPerKernelValue Transposed LoopFission" role="graphics-symbol" aria-roledescription="bar" d="M0,301.9L127.66666666666666,301.9C129.87432676464266,301.9,131.66666666666666,303.692339902024,131.66666666666666,305.9L131.66666666666666,314.09999999999997C131.66666666666666,316.30766009797594,129.87432676464266,318.09999999999997,127.66666666666666,318.09999999999997L0,318.09999999999997C0,318.09999999999997,0,318.09999999999997,0,318.09999999999997L0,301.9C0,301.9,0,301.9,0,301.9Z" fill="#4c78a8"/><path aria-label="mean execution time in µs: 240; algorithm: inputPerKernelValue Transposed LoopFissionIndexArithmetic" role="graphics-symbol" aria-roledescription="bar" d="M0,341.9L196,341.9C198.207660097976,341.9,200,343.692339902024,200,345.9L200,354.09999999999997C200,356.30766009797594,198.207660097976,358.09999999999997,196,358.09999999999997L0,358.09999999999997C0,358.09999999999997,0,358.09999999999997,0,358.09999999999997L0,341.9C0,341.9,0,341.9,0,341.9Z" fill="#4c78a8"/><path aria-label="mean execution time in µs: 233; algorithm: kernelPerInputValue Transposed LoopFission" role="graphics-symbol" aria-roledescription="bar" d="M0,321.9L190.16666666666666,321.9C192.37432676464266,321.9,194.16666666666666,323.692339902024,194.16666666666666,325.9L194.16666666666666,334.09999999999997C194.16666666666666,336.30766009797594,192.37432676464266,338.09999999999997,190.16666666666666,338.09999999999997L0,338.09999999999997C0,338.09999999999997,0,338.09999999999997,0,338.09999999999997L0,321.9C0,321.9,0,321.9,0,321.9Z" fill="#4c78a8"/><path aria-label="mean execution time in µs: 127; algorithm: (matlab-like) conv 'full' shape" role="graphics-symbol" aria-roledescription="bar" d="M0,201.9L101.83333333333333,201.9C104.04099343130933,201.9,105.83333333333333,203.692339902024,105.83333333333333,205.9L105.83333333333333,214.1C105.83333333333333,216.307660097976,104.04099343130933,218.1,101.83333333333333,218.1L0,218.1C0,218.1,0,218.1,0,218.1L0,201.9C0,201.9,0,201.9,0,201.9Z" fill="#4c78a8"/><path aria-label="mean execution time in µs: 124; algorithm: (matlab-like) conv 'valid' shape pre padded" role="graphics-symbol" aria-roledescription="bar" d="M0,181.9L99.33333333333334,181.9C101.54099343130935,181.9,103.33333333333334,183.692339902024,103.33333333333334,185.9L103.33333333333334,194.1C103.33333333333334,196.307660097976,101.54099343130935,198.1,99.33333333333334,198.1L0,198.1C0,198.1,0,198.1,0,198.1L0,181.9C0,181.9,0,181.9,0,181.9Z" fill="#4c78a8"/><path aria-label="mean execution time in µs: 127; algorithm: (wilczek) Single" role="graphics-symbol" aria-roledescription="bar" d="M0,221.9L101.83333333333333,221.9C104.04099343130933,221.9,105.83333333333333,223.692339902024,105.83333333333333,225.9L105.83333333333333,234.1C105.83333333333333,236.307660097976,104.04099343130933,238.1,101.83333333333333,238.1L0,238.1C0,238.1,0,238.1,0,238.1L0,221.9C0,221.9,0,221.9,0,221.9Z" fill="#4c78a8"/><path aria-label="mean execution time in µs: 107; algorithm: (wilczek) Inner-Loop Vectorization" role="graphics-symbol" aria-roledescription="bar" d="M0,141.9L85.16666666666667,141.9C87.37432676464267,141.9,89.16666666666667,143.692339902024,89.16666666666667,145.9L89.16666666666667,154.1C89.16666666666667,156.307660097976,87.37432676464267,158.1,85.16666666666667,158.1L0,158.1C0,158.1,0,158.1,0,158.1L0,141.9C0,141.9,0,141.9,0,141.9Z" fill="#4c78a8"/><path aria-label="mean execution time in µs: 99; algorithm: (wilczek) Outer-Loop Vectorization" role="graphics-symbol" aria-roledescription="bar" d="M0,81.9L78.5,81.9C80.707660097976,81.9,82.5,83.692339902024,82.5,85.9L82.5,94.10000000000001C82.5,96.30766009797601,80.707660097976,98.10000000000001,78.5,98.10000000000001L0,98.10000000000001C0,98.10000000000001,0,98.10000000000001,0,98.10000000000001L0,81.9C0,81.9,0,81.9,0,81.9Z" fill="#4c78a8"/><path aria-label="mean execution time in µs: 106; algorithm: (wilczek) Outer- and Inner-Loop Vectorization" role="graphics-symbol" aria-roledescription="bar" d="M0,121.9L84.33333333333333,121.9C86.54099343130933,121.9,88.33333333333333,123.692339902024,88.33333333333333,125.9L88.33333333333333,134.1C88.33333333333333,136.307660097976,86.54099343130933,138.1,84.33333333333333,138.1L0,138.1C0,138.1,0,138.1,0,138.1L0,121.9C0,121.9,0,121.9,0,121.9Z" fill="#4c78a8"/><path aria-label="mean execution time in µs: 74; algorithm: (wilczek) AVX NoAlign Inner-Loop Vectorization" role="graphics-symbol" aria-roledescription="bar" d="M0,61.9L57.66666666666667,61.9C59.874326764642674,61.9,61.66666666666667,63.692339902023996,61.66666666666667,65.9L61.66666666666667,74.1C61.66666666666667,76.307660097976,59.874326764642674,78.1,57.66666666666667,78.1L0,78.1C0,78.1,0,78.1,0,78.1L0,61.9C0,61.9,0,61.9,0,61.9Z" fill="#4c78a8"/><path aria-label="mean execution time in µs: 17; algorithm: (wilczek) AVX NoAlign Outer-Loop Vectorization" role="graphics-symbol" aria-roledescription="bar" d="M0,1.9L10.166666666666666,1.9C12.374326764642666,1.9,14.166666666666666,3.692339902024,14.166666666666666,5.9L14.166666666666666,14.099999999999998C14.166666666666666,16.307660097975997,12.374326764642666,18.099999999999998,10.166666666666666,18.099999999999998L0,18.099999999999998C0,18.099999999999998,0,18.099999999999998,0,18.099999999999998L0,1.9C0,1.9,0,1.9,0,1.9Z" fill="#4c78a8"/><path aria-label="mean execution time in µs: 63; algorithm: (wilczek) AVX NoAlign Outer- and Inner-Loop Vectorization" role="graphics-symbol" aria-roledescription="bar" d="M0,41.9L48.5,41.9C50.707660097976,41.9,52.5,43.692339902023996,52.5,45.9L52.5,54.099999999999994C52.5,56.307660097976,50.707660097976,58.099999999999994,48.5,58.099999999999994L0,58.099999999999994C0,58.099999999999994,0,58.099999999999994,0,58.099999999999994L0,41.9C0,41.9,0,41.9,0,41.9Z" fill="#4c78a8"/><path aria-label="mean execution time in µs: 104; algorithm: (chaowang15) convolve1D" role="graphics-symbol" aria-roledescription="bar" d="M0,101.9L82.66666666666667,101.9C84.87432676464267,101.9,86.66666666666667,103.692339902024,86.66666666666667,105.9L86.66666666666667,114.10000000000001C86.66666666666667,116.30766009797601,84.87432676464267,118.10000000000001,82.66666666666667,118.10000000000001L0,118.10000000000001C0,118.10000000000001,0,118.10000000000001,0,118.10000000000001L0,101.9C0,101.9,0,101.9,0,101.9Z" fill="#4c78a8"/></g><g class="mark-text role-mark child_layer_1_marks" role="graphics-object" aria-roledescription="text mark container"><text aria-label="mean execution time in µs: 147; algorithm: kernelPerInputValue Transposed; MeanExecutionTime: 147" role="graphics-symbol" aria-roledescription="text mark" text-anchor="start" transform="translate(126.50000000000001,273)" font-family="sans-serif" font-size="9px" fill="black">147</text><text aria-label="mean execution time in µs: 29; algorithm: inputPerKernelValue Transposed; MeanExecutionTime: 29" role="graphics-symbol" aria-roledescription="text mark" text-anchor="start" transform="translate(28.166666666666668,33)" font-family="sans-serif" font-size="9px" fill="black">29</text><text aria-label="mean execution time in µs: 155; algorithm: inputPerKernelValue Transposed InnerLoopUnrolled; MeanExecutionTime: 155" role="graphics-symbol" aria-roledescription="text mark" text-anchor="start" transform="translate(133.16666666666669,293)" font-family="sans-serif" font-size="9px" fill="black">155</text><text aria-label="mean execution time in µs: 119; algorithm: inputPerKernelValue Transposed OuterLoopUnrolled; MeanExecutionTime: 119" role="graphics-symbol" aria-roledescription="text mark" text-anchor="start" transform="translate(103.16666666666667,173)" font-family="sans-serif" font-size="9px" fill="black">119</text><text aria-label="mean execution time in µs: 128; algorithm: inputPerKernelValue Transposed InnerAndOuterLoopUnrolled; MeanExecutionTime: 128" role="graphics-symbol" aria-roledescription="text mark" text-anchor="start" transform="translate(110.66666666666667,253)" font-family="sans-serif" font-size="9px" fill="black">128</text><text aria-label="mean execution time in µs: 158; algorithm: inputPerKernelValue Transposed LoopFission; MeanExecutionTime: 158" role="graphics-symbol" aria-roledescription="text mark" text-anchor="start" transform="translate(135.66666666666666,313)" font-family="sans-serif" font-size="9px" fill="black">158</text><text aria-label="mean execution time in µs: 240; algorithm: inputPerKernelValue Transposed LoopFissionIndexArithmetic; MeanExecutionTime: 240" role="graphics-symbol" aria-roledescription="text mark" text-anchor="start" transform="translate(204,353)" font-family="sans-serif" font-size="9px" fill="black">240</text><text aria-label="mean execution time in µs: 233; algorithm: kernelPerInputValue Transposed LoopFission; MeanExecutionTime: 233" role="graphics-symbol" aria-roledescription="text mark" text-anchor="start" transform="translate(198.16666666666666,333)" font-family="sans-serif" font-size="9px" fill="black">233</text><text aria-label="mean execution time in µs: 127; algorithm: (matlab-like) conv 'full' shape; MeanExecutionTime: 127" role="graphics-symbol" aria-roledescription="text mark" text-anchor="start" transform="translate(109.83333333333333,213)" font-family="sans-serif" font-size="9px" fill="black">127</text><text aria-label="mean execution time in µs: 124; algorithm: (matlab-like) conv 'valid' shape pre padded; MeanExecutionTime: 124" role="graphics-symbol" aria-roledescription="text mark" text-anchor="start" transform="translate(107.33333333333334,193)" font-family="sans-serif" font-size="9px" fill="black">124</text><text aria-label="mean execution time in µs: 127; algorithm: (wilczek) Single; MeanExecutionTime: 127" role="graphics-symbol" aria-roledescription="text mark" text-anchor="start" transform="translate(109.83333333333333,233)" font-family="sans-serif" font-size="9px" fill="black">127</text><text aria-label="mean execution time in µs: 107; algorithm: (wilczek) Inner-Loop Vectorization; MeanExecutionTime: 107" role="graphics-symbol" aria-roledescription="text mark" text-anchor="start" transform="translate(93.16666666666667,153)" font-family="sans-serif" font-size="9px" fill="black">107</text><text aria-label="mean execution time in µs: 99; algorithm: (wilczek) Outer-Loop Vectorization; MeanExecutionTime: 99" role="graphics-symbol" aria-roledescription="text mark" text-anchor="start" transform="translate(86.5,93)" font-family="sans-serif" font-size="9px" fill="black">99</text><text aria-label="mean execution time in µs: 106; algorithm: (wilczek) Outer- and Inner-Loop Vectorization; MeanExecutionTime: 106" role="graphics-symbol" aria-roledescription="text mark" text-anchor="start" transform="translate(92.33333333333333,133)" font-family="sans-serif" font-size="9px" fill="black">106</text><text aria-label="mean execution time in µs: 74; algorithm: (wilczek) AVX NoAlign Inner-Loop Vectorization; MeanExecutionTime: 74" role="graphics-symbol" aria-roledescription="text mark" text-anchor="start" transform="translate(65.66666666666667,73)" font-family="sans-serif" font-size="9px" fill="black">74</text><text aria-label="mean execution time in µs: 17; algorithm: (wilczek) AVX NoAlign Outer-Loop Vectorization; MeanExecutionTime: 17" role="graphics-symbol" aria-roledescription="text mark" text-anchor="start" transform="translate(18.166666666666664,13)" font-family="sans-serif" font-size="9px" fill="black">17</text><text aria-label="mean execution time in µs: 63; algorithm: (wilczek) AVX NoAlign Outer- and Inner-Loop Vectorization; MeanExecutionTime: 63" role="graphics-symbol" aria-roledescription="text mark" text-anchor="start" transform="translate(56.5,53)" font-family="sans-serif" font-size="9px" fill="black">63</text><text aria-label="mean execution time in µs: 104; algorithm: (chaowang15) convolve1D; MeanExecutionTime: 104" role="graphics-symbol" aria-roledescription="text mark" text-anchor="start" transform="translate(90.66666666666667,113)" font-family="sans-serif" font-size="9px" fill="black">104</text></g></g><path class="foreground" aria-hidden="true" d="" display="none"/></g><g transform="translate(575,0)"><path class="background" aria-hidden="true" d="M0.5,0.5h200v360h-200Z" stroke="#ddd"/><g><g class="mark-group role-axis" aria-hidden="true"><g transform="translate(0.5,360.5)"><path class="background" aria-hidden="true" d="M0,0h0v0h0Z" pointer-events="none"/><g><g class="mark-rule role-axis-grid" pointer-events="none"><line transform="translate(0,0)" x2="0" y2="-360" stroke="#ddd" stroke-width="1" opacity="1"/><line transform="translate(63,0)" x2="0" y2="-360" stroke="#ddd" stroke-width="1" opacity="1"/><line transform="translate(125,0)" x2="0" y2="-360" stroke="#ddd" stroke-width="1" opacity="1"/><line transform="translate(188,0)" x2="0" y2="-360" stroke="#ddd" stroke-width="1" opacity="1"/></g></g><path class="foreground" aria-hidden="true" d="" pointer-events="none" display="none"/></g></g><g class="mark-group role-axis" role="graphics-symbol" aria-roledescription="axis" aria-label="X-axis titled 'mean execution time in µs' for a linear scale with values from 0 to 16,000"><g transform="translate(0.5,360.5)"><path class="background" aria-hidden="true" d="M0,0h0v0h0Z" pointer-events="none"/><g><g class="mark-rule role-axis-tick" pointer-events="none"><line transform="translate(0,0)" x2="0" y2="5" stroke="#888" stroke-width="1" opacity="1"/><line transform="translate(63,0)" x2="0" y2="5" stroke="#888" stroke-width="1" opacity="1"/><line transform="translate(125,0)" x2="0" y2="5" stroke="#888" stroke-width="1" opacity="1"/><line transform="translate(188,0)" x2="0" y2="5" stroke="#888" stroke-width="1" opacity="1"/></g><g class="mark-text role-axis-label" pointer-events="none"><text text-anchor="start" transform="translate(0,15)" font-family="sans-serif" font-size="10px" fill="#000" opacity="1">0</text><text text-anchor="middle" transform="translate(62.5,15)" font-family="sans-serif" font-size="10px" fill="#000" opacity="1">5,000</text><text text-anchor="middle" transform="translate(125,15)" font-family="sans-serif" font-size="10px" fill="#000" opacity="1">10,000</text><text text-anchor="middle" transform="translate(187.5,15)" font-family="sans-serif" font-size="10px" fill="#000" opacity="1">15,000</text></g><g class="mark-rule role-axis-domain" pointer-events="none"><line transform="translate(0,0)" x2="200" y2="0" stroke="#888" stroke-width="1" opacity="1"/></g><g class="mark-text role-axis-title" pointer-events="none"><text text-anchor="middle" transform="translate(100,30)" font-family="sans-serif" font-size="11px" font-weight="bold" fill="#000" opacity="1">mean execution time in µs</text></g></g><path class="foreground" aria-hidden="true" d="" pointer-events="none" display="none"/></g></g><g class="mark-group role-axis" role="graphics-symbol" aria-roledescription="axis" aria-label="Y-axis titled 'algorithm' for a discrete scale with 18 values: (wilczek) AVX NoAlign Outer- and Inner-Loop Vectorization, kernelPerInputValue Transposed, inputPerKernelValue Transposed, (wilczek) AVX NoAlign Inner-Loop Vectorization, (wilczek) AVX NoAlign Outer-Loop Vectorization, ending with (wilczek) Single"><g transform="translate(0.5,0.5)"><path class="background" aria-hidden="true" d="M0,0h0v0h0Z" pointer-events="none"/><g><g class="mark-rule role-axis-tick" pointer-events="none"><line transform="translate(0,10)" x2="-5" y2="0" stroke="#888" stroke-width="1" opacity="1"/><line transform="translate(0,30)" x2="-5" y2="0" stroke="#888" stroke-width="1" opacity="1"/><line transform="translate(0,50)" x2="-5" y2="0" stroke="#888" stroke-width="1" opacity="1"/><line transform="translate(0,70)" x2="-5" y2="0" stroke="#888" stroke-width="1" opacity="1"/><line transform="translate(0,90)" x2="-5" y2="0" stroke="#888" stroke-width="1" opacity="1"/><line transform="translate(0,110)" x2="-5" y2="0" stroke="#888" stroke-width="1" opacity="1"/><line transform="translate(0,130)" x2="-5" y2="0" stroke="#888" stroke-width="1" opacity="1"/><line transform="translate(0,150)" x2="-5" y2="0" stroke="#888" stroke-width="1" opacity="1"/><line transform="translate(0,170)" x2="-5" y2="0" stroke="#888" stroke-width="1" opacity="1"/><line transform="translate(0,190)" x2="-5" y2="0" stroke="#888" stroke-width="1" opacity="1"/><line transform="translate(0,210)" x2="-5" y2="0" stroke="#888" stroke-width="1" opacity="1"/><line transform="translate(0,230)" x2="-5" y2="0" stroke="#888" stroke-width="1" opacity="1"/><line transform="translate(0,250)" x2="-5" y2="0" stroke="#888" stroke-width="1" opacity="1"/><line transform="translate(0,270)" x2="-5" y2="0" stroke="#888" stroke-width="1" opacity="1"/><line transform="translate(0,290)" x2="-5" y2="0" stroke="#888" stroke-width="1" opacity="1"/><line transform="translate(0,310)" x2="-5" y2="0" stroke="#888" stroke-width="1" opacity="1"/><line transform="translate(0,330)" x2="-5" y2="0" stroke="#888" stroke-width="1" opacity="1"/><line transform="translate(0,350)" x2="-5" y2="0" stroke="#888" stroke-width="1" opacity="1"/></g><g class="mark-text role-axis-label" pointer-events="none"><text text-anchor="end" transform="translate(-7,12.5)" font-family="sans-serif" font-size="10px" fill="#000" opacity="1">(wilczek) AVX NoAlign Outer- and Inner-Loop Vectorization</text><text text-anchor="end" transform="translate(-7,32.5)" font-family="sans-serif" font-size="10px" fill="#000" opacity="1">kernelPerInputValue Transposed</text><text text-anchor="end" transform="translate(-7,52.5)" font-family="sans-serif" font-size="10px" fill="#000" opacity="1">inputPerKernelValue Transposed</text><text text-anchor="end" transform="translate(-7,72.5)" font-family="sans-serif" font-size="10px" fill="#000" opacity="1">(wilczek) AVX NoAlign Inner-Loop Vectorization</text><text text-anchor="end" transform="translate(-7,92.5)" font-family="sans-serif" font-size="10px" fill="#000" opacity="1">(wilczek) AVX NoAlign Outer-Loop Vectorization</text><text text-anchor="end" transform="translate(-7,112.5)" font-family="sans-serif" font-size="10px" fill="#000" opacity="1">(wilczek) Outer-Loop Vectorization</text><text text-anchor="end" transform="translate(-7,132.5)" font-family="sans-serif" font-size="10px" fill="#000" opacity="1">(wilczek) Inner-Loop Vectorization</text><text text-anchor="end" transform="translate(-7,152.5)" font-family="sans-serif" font-size="10px" fill="#000" opacity="1">(wilczek) Outer- and Inner-Loop Vectorization</text><text text-anchor="end" transform="translate(-7,172.5)" font-family="sans-serif" font-size="10px" fill="#000" opacity="1">inputPerKernelValue Transposed OuterLoopUnrolled</text><text text-anchor="end" transform="translate(-7,192.5)" font-family="sans-serif" font-size="10px" fill="#000" opacity="1">inputPerKernelValue Transposed InnerAndOuterLoopUnrolled</text><text text-anchor="end" transform="translate(-7,212.5)" font-family="sans-serif" font-size="10px" fill="#000" opacity="1">kernelPerInputValue Transposed LoopFission</text><text text-anchor="end" transform="translate(-7,232.5)" font-family="sans-serif" font-size="10px" fill="#000" opacity="1">inputPerKernelValue Transposed InnerLoopUnrolled</text><text text-anchor="end" transform="translate(-7,252.5)" font-family="sans-serif" font-size="10px" fill="#000" opacity="1">inputPerKernelValue Transposed LoopFission</text><text text-anchor="end" transform="translate(-7,272.5)" font-family="sans-serif" font-size="10px" fill="#000" opacity="1">(matlab-like) conv 'full' shape</text><text text-anchor="end" transform="translate(-7,292.5)" font-family="sans-serif" font-size="10px" fill="#000" opacity="1">(chaowang15) convolve1D</text><text text-anchor="end" transform="translate(-7,312.5)" font-family="sans-serif" font-size="10px" fill="#000" opacity="1">(matlab-like) conv 'valid' shape pre padded</text><text text-anchor="end" transform="translate(-7,332.5)" font-family="sans-serif" font-size="10px" fill="#000" opacity="1">inputPerKernelValue Transposed LoopFissionIndexArithmetic</text><text text-anchor="end" transform="translate(-7,352.5)" font-family="sans-serif" font-size="10px" fill="#000" opacity="1">(wilczek) Single</text></g><g class="mark-rule role-axis-domain" pointer-events="none"><line transform="translate(0,0)" x2="0" y2="360" stroke="#888" stroke-width="1" opacity="1"/></g><g class="mark-text role-axis-title" pointer-events="none"><text text-anchor="middle" transform="translate(-320,180) rotate(-90) translate(0,-2)" font-family="sans-serif" font-size="11px" font-weight="bold" fill="#000" opacity="1">algorithm</text></g></g><path class="foreground" aria-hidden="true" d="" pointer-events="none" display="none"/></g></g><g class="mark-rect role-mark child_layer_0_marks" role="graphics-object" aria-roledescription="rect mark container"><path aria-label="mean execution time in µs: 945; algorithm: kernelPerInputValue Transposed" role="graphics-symbol" aria-roledescription="bar" d="M0,21.9L7.8125,21.9C10.020160097976,21.9,11.8125,23.692339902024,11.8125,25.9L11.8125,34.099999999999994C11.8125,36.307660097976,10.020160097976,38.099999999999994,7.8125,38.099999999999994L0,38.099999999999994C0,38.099999999999994,0,38.099999999999994,0,38.099999999999994L0,21.9C0,21.9,0,21.9,0,21.9Z" fill="#4c78a8"/><path aria-label="mean execution time in µs: 1494; algorithm: inputPerKernelValue Transposed" role="graphics-symbol" aria-roledescription="bar" d="M0,41.9L14.675,41.9C16.882660097976,41.9,18.675,43.692339902023996,18.675,45.9L18.675,54.099999999999994C18.675,56.307660097976,16.882660097976,58.099999999999994,14.675,58.099999999999994L0,58.099999999999994C0,58.099999999999994,0,58.099999999999994,0,58.099999999999994L0,41.9C0,41.9,0,41.9,0,41.9Z" fill="#4c78a8"/><path aria-label="mean execution time in µs: 9808; algorithm: inputPerKernelValue Transposed InnerLoopUnrolled" role="graphics-symbol" aria-roledescription="bar" d="M0,221.9L118.6,221.9C120.807660097976,221.9,122.6,223.692339902024,122.6,225.9L122.6,234.1C122.6,236.307660097976,120.807660097976,238.1,118.6,238.1L0,238.1C0,238.1,0,238.1,0,238.1L0,221.9C0,221.9,0,221.9,0,221.9Z" fill="#4c78a8"/><path aria-label="mean execution time in µs: 7274; algorithm: inputPerKernelValue Transposed OuterLoopUnrolled" role="graphics-symbol" aria-roledescription="bar" d="M0,161.9L86.925,161.9C89.132660097976,161.9,90.925,163.692339902024,90.925,165.9L90.925,174.1C90.925,176.307660097976,89.132660097976,178.1,86.925,178.1L0,178.1C0,178.1,0,178.1,0,178.1L0,161.9C0,161.9,0,161.9,0,161.9Z" fill="#4c78a8"/><path aria-label="mean execution time in µs: 7954; algorithm: inputPerKernelValue Transposed InnerAndOuterLoopUnrolled" role="graphics-symbol" aria-roledescription="bar" d="M0,181.9L95.425,181.9C97.632660097976,181.9,99.425,183.692339902024,99.425,185.9L99.425,194.1C99.425,196.307660097976,97.632660097976,198.1,95.425,198.1L0,198.1C0,198.1,0,198.1,0,198.1L0,181.9C0,181.9,0,181.9,0,181.9Z" fill="#4c78a8"/><path aria-label="mean execution time in µs: 9846; algorithm: inputPerKernelValue Transposed LoopFission" role="graphics-symbol" aria-roledescription="bar" d="M0,241.9L119.075,241.9C121.282660097976,241.9,123.075,243.692339902024,123.075,245.9L123.075,254.10000000000002C123.075,256.307660097976,121.282660097976,258.1,119.075,258.1L0,258.1C0,258.1,0,258.1,0,258.1L0,241.9C0,241.9,0,241.9,0,241.9Z" fill="#4c78a8"/><path aria-label="mean execution time in µs: 15519; algorithm: inputPerKernelValue Transposed LoopFissionIndexArithmetic" role="graphics-symbol" aria-roledescription="bar" d="M0,321.9L189.9875,321.9C192.19516009797601,321.9,193.9875,323.692339902024,193.9875,325.9L193.9875,334.09999999999997C193.9875,336.30766009797594,192.19516009797601,338.09999999999997,189.9875,338.09999999999997L0,338.09999999999997C0,338.09999999999997,0,338.09999999999997,0,338.09999999999997L0,321.9C0,321.9,0,321.9,0,321.9Z" fill="#4c78a8"/><path aria-label="mean execution time in µs: 8496; algorithm: kernelPerInputValue Transposed LoopFission" role="graphics-symbol" aria-roledescription="bar" d="M0,201.9L102.2,201.9C104.407660097976,201.9,106.2,203.692339902024,106.2,205.9L106.2,214.1C106.2,216.307660097976,104.407660097976,218.1,102.2,218.1L0,218.1C0,218.1,0,218.1,0,218.1L0,201.9C0,201.9,0,201.9,0,201.9Z" fill="#4c78a8"/><path aria-label="mean execution time in µs: 14635; algorithm: (matlab-like) conv 'full' shape" role="graphics-symbol" aria-roledescription="bar" d="M0,261.9L178.9375,261.9C181.145160097976,261.9,182.9375,263.692339902024,182.9375,265.9L182.9375,274.09999999999997C182.9375,276.30766009797594,181.145160097976,278.09999999999997,178.9375,278.09999999999997L0,278.09999999999997C0,278.09999999999997,0,278.09999999999997,0,278.09999999999997L0,261.9C0,261.9,0,261.9,0,261.9Z" fill="#4c78a8"/><path aria-label="mean execution time in µs: 15375; algorithm: (matlab-like) conv 'valid' shape pre padded" role="graphics-symbol" aria-roledescription="bar" d="M0,301.9L188.1875,301.9C190.395160097976,301.9,192.1875,303.692339902024,192.1875,305.9L192.1875,314.09999999999997C192.1875,316.30766009797594,190.395160097976,318.09999999999997,188.1875,318.09999999999997L0,318.09999999999997C0,318.09999999999997,0,318.09999999999997,0,318.09999999999997L0,301.9C0,301.9,0,301.9,0,301.9Z" fill="#4c78a8"/><path aria-label="mean execution time in µs: 15593; algorithm: (wilczek) Single" role="graphics-symbol" aria-roledescription="bar" d="M0,341.9L190.9125,341.9C193.120160097976,341.9,194.9125,343.692339902024,194.9125,345.9L194.9125,354.09999999999997C194.9125,356.30766009797594,193.120160097976,358.09999999999997,190.9125,358.09999999999997L0,358.09999999999997C0,358.09999999999997,0,358.09999999999997,0,358.09999999999997L0,341.9C0,341.9,0,341.9,0,341.9Z" fill="#4c78a8"/><path aria-label="mean execution time in µs: 6468; algorithm: (wilczek) Inner-Loop Vectorization" role="graphics-symbol" aria-roledescription="bar" d="M0,121.9L76.85,121.9C79.057660097976,121.9,80.85,123.692339902024,80.85,125.9L80.85,134.1C80.85,136.307660097976,79.057660097976,138.1,76.85,138.1L0,138.1C0,138.1,0,138.1,0,138.1L0,121.9C0,121.9,0,121.9,0,121.9Z" fill="#4c78a8"/><path aria-label="mean execution time in µs: 6390; algorithm: (wilczek) Outer-Loop Vectorization" role="graphics-symbol" aria-roledescription="bar" d="M0,101.9L75.875,101.9C78.082660097976,101.9,79.875,103.692339902024,79.875,105.9L79.875,114.10000000000001C79.875,116.30766009797601,78.082660097976,118.10000000000001,75.875,118.10000000000001L0,118.10000000000001C0,118.10000000000001,0,118.10000000000001,0,118.10000000000001L0,101.9C0,101.9,0,101.9,0,101.9Z" fill="#4c78a8"/><path aria-label="mean execution time in µs: 6687; algorithm: (wilczek) Outer- and Inner-Loop Vectorization" role="graphics-symbol" aria-roledescription="bar" d="M0,141.9L79.5875,141.9C81.79516009797601,141.9,83.5875,143.692339902024,83.5875,145.9L83.5875,154.1C83.5875,156.307660097976,81.79516009797601,158.1,79.5875,158.1L0,158.1C0,158.1,0,158.1,0,158.1L0,141.9C0,141.9,0,141.9,0,141.9Z" fill="#4c78a8"/><path aria-label="mean execution time in µs: 1777; algorithm: (wilczek) AVX NoAlign Inner-Loop Vectorization" role="graphics-symbol" aria-roledescription="bar" d="M0,61.9L18.2125,61.9C20.420160097975998,61.9,22.2125,63.692339902023996,22.2125,65.9L22.2125,74.1C22.2125,76.307660097976,20.420160097975998,78.1,18.2125,78.1L0,78.1C0,78.1,0,78.1,0,78.1L0,61.9C0,61.9,0,61.9,0,61.9Z" fill="#4c78a8"/><path aria-label="mean execution time in µs: 1921; algorithm: (wilczek) AVX NoAlign Outer-Loop Vectorization" role="graphics-symbol" aria-roledescription="bar" d="M0,81.9L20.0125,81.9C22.220160097976,81.9,24.0125,83.692339902024,24.0125,85.9L24.0125,94.10000000000001C24.0125,96.30766009797601,22.220160097976,98.10000000000001,20.0125,98.10000000000001L0,98.10000000000001C0,98.10000000000001,0,98.10000000000001,0,98.10000000000001L0,81.9C0,81.9,0,81.9,0,81.9Z" fill="#4c78a8"/><path aria-label="mean execution time in µs: 468; algorithm: (wilczek) AVX NoAlign Outer- and Inner-Loop Vectorization" role="graphics-symbol" aria-roledescription="bar" d="M0,1.9L2.9250000000000003,1.9C4.53935144664495,1.9,5.8500000000000005,3.21064855335505,5.8500000000000005,4.825L5.8500000000000005,15.174999999999997C5.8500000000000005,16.789351446644947,4.53935144664495,18.099999999999998,2.9250000000000003,18.099999999999998L0,18.099999999999998C0,18.099999999999998,0,18.099999999999998,0,18.099999999999998L0,1.9C0,1.9,0,1.9,0,1.9Z" fill="#4c78a8"/><path aria-label="mean execution time in µs: 14921; algorithm: (chaowang15) convolve1D" role="graphics-symbol" aria-roledescription="bar" d="M0,281.9L182.5125,281.9C184.720160097976,281.9,186.5125,283.692339902024,186.5125,285.9L186.5125,294.09999999999997C186.5125,296.30766009797594,184.720160097976,298.09999999999997,182.5125,298.09999999999997L0,298.09999999999997C0,298.09999999999997,0,298.09999999999997,0,298.09999999999997L0,281.9C0,281.9,0,281.9,0,281.9Z" fill="#4c78a8"/></g><g class="mark-text role-mark child_layer_1_marks" role="graphics-object" aria-roledescription="text mark container"><text aria-label="mean execution time in µs: 945; algorithm: kernelPerInputValue Transposed; MeanExecutionTime: 945" role="graphics-symbol" aria-roledescription="text mark" text-anchor="start" transform="translate(15.8125,33)" font-family="sans-serif" font-size="9px" fill="black">945</text><text aria-label="mean execution time in µs: 1494; algorithm: inputPerKernelValue Transposed; MeanExecutionTime: 1494" role="graphics-symbol" aria-roledescription="text mark" text-anchor="start" transform="translate(22.675,53)" font-family="sans-serif" font-size="9px" fill="black">1494</text><text aria-label="mean execution time in µs: 9808; algorithm: inputPerKernelValue Transposed InnerLoopUnrolled; MeanExecutionTime: 9808" role="graphics-symbol" aria-roledescription="text mark" text-anchor="start" transform="translate(126.6,233)" font-family="sans-serif" font-size="9px" fill="black">9808</text><text aria-label="mean execution time in µs: 7274; algorithm: inputPerKernelValue Transposed OuterLoopUnrolled; MeanExecutionTime: 7274" role="graphics-symbol" aria-roledescription="text mark" text-anchor="start" transform="translate(94.925,173)" font-family="sans-serif" font-size="9px" fill="black">7274</text><text aria-label="mean execution time in µs: 7954; algorithm: inputPerKernelValue Transposed InnerAndOuterLoopUnrolled; MeanExecutionTime: 7954" role="graphics-symbol" aria-roledescription="text mark" text-anchor="start" transform="translate(103.425,193)" font-family="sans-serif" font-size="9px" fill="black">7954</text><text aria-label="mean execution time in µs: 9846; algorithm: inputPerKernelValue Transposed LoopFission; MeanExecutionTime: 9846" role="graphics-symbol" aria-roledescription="text mark" text-anchor="start" transform="translate(127.075,253)" font-family="sans-serif" font-size="9px" fill="black">9846</text><text aria-label="mean execution time in µs: 15519; algorithm: inputPerKernelValue Transposed LoopFissionIndexArithmetic; MeanExecutionTime: 15519" role="graphics-symbol" aria-roledescription="text mark" text-anchor="start" transform="translate(197.9875,333)" font-family="sans-serif" font-size="9px" fill="black">15519</text><text aria-label="mean execution time in µs: 8496; algorithm: kernelPerInputValue Transposed LoopFission; MeanExecutionTime: 8496" role="graphics-symbol" aria-roledescription="text mark" text-anchor="start" transform="translate(110.2,213)" font-family="sans-serif" font-size="9px" fill="black">8496</text><text aria-label="mean execution time in µs: 14635; algorithm: (matlab-like) conv 'full' shape; MeanExecutionTime: 14635" role="graphics-symbol" aria-roledescription="text mark" text-anchor="start" transform="translate(186.9375,273)" font-family="sans-serif" font-size="9px" fill="black">14635</text><text aria-label="mean execution time in µs: 15375; algorithm: (matlab-like) conv 'valid' shape pre padded; MeanExecutionTime: 15375" role="graphics-symbol" aria-roledescription="text mark" text-anchor="start" transform="translate(196.1875,313)" font-family="sans-serif" font-size="9px" fill="black">15375</text><text aria-label="mean execution time in µs: 15593; algorithm: (wilczek) Single; MeanExecutionTime: 15593" role="graphics-symbol" aria-roledescription="text mark" text-anchor="start" transform="translate(198.9125,353)" font-family="sans-serif" font-size="9px" fill="black">15593</text><text aria-label="mean execution time in µs: 6468; algorithm: (wilczek) Inner-Loop Vectorization; MeanExecutionTime: 6468" role="graphics-symbol" aria-roledescription="text mark" text-anchor="start" transform="translate(84.85,133)" font-family="sans-serif" font-size="9px" fill="black">6468</text><text aria-label="mean execution time in µs: 6390; algorithm: (wilczek) Outer-Loop Vectorization; MeanExecutionTime: 6390" role="graphics-symbol" aria-roledescription="text mark" text-anchor="start" transform="translate(83.875,113)" font-family="sans-serif" font-size="9px" fill="black">6390</text><text aria-label="mean execution time in µs: 6687; algorithm: (wilczek) Outer- and Inner-Loop Vectorization; MeanExecutionTime: 6687" role="graphics-symbol" aria-roledescription="text mark" text-anchor="start" transform="translate(87.5875,153)" font-family="sans-serif" font-size="9px" fill="black">6687</text><text aria-label="mean execution time in µs: 1777; algorithm: (wilczek) AVX NoAlign Inner-Loop Vectorization; MeanExecutionTime: 1777" role="graphics-symbol" aria-roledescription="text mark" text-anchor="start" transform="translate(26.2125,73)" font-family="sans-serif" font-size="9px" fill="black">1777</text><text aria-label="mean execution time in µs: 1921; algorithm: (wilczek) AVX NoAlign Outer-Loop Vectorization; MeanExecutionTime: 1921" role="graphics-symbol" aria-roledescription="text mark" text-anchor="start" transform="translate(28.0125,93)" font-family="sans-serif" font-size="9px" fill="black">1921</text><text aria-label="mean execution time in µs: 468; algorithm: (wilczek) AVX NoAlign Outer- and Inner-Loop Vectorization; MeanExecutionTime: 468" role="graphics-symbol" aria-roledescription="text mark" text-anchor="start" transform="translate(9.850000000000001,13)" font-family="sans-serif" font-size="9px" fill="black">468</text><text aria-label="mean execution time in µs: 14921; algorithm: (chaowang15) convolve1D; MeanExecutionTime: 14921" role="graphics-symbol" aria-roledescription="text mark" text-anchor="start" transform="translate(190.5125,293)" font-family="sans-serif" font-size="9px" fill="black">14921</text></g></g><path class="foreground" aria-hidden="true" d="" display="none"/></g></g></g><path class="foreground" aria-hidden="true" d="" display="none"/></g></g></g></svg>