<svg xmlns="http://www.w3.org/2000/svg" xmlns:xlink="http://www.w3.org/1999/xlink" version="1.1" class="marks" width="1088" height="404" viewBox="0 0 1088 404"><rect width="1088" height="404" fill="white"/><g fill="none" stroke-miterlimit="10" transform="translate(317,66)"><g class="mark-group role-frame root" role="graphics-object" aria-roledescription="group mark container"><g transform="translate(0,0)"><path class="background" aria-hidden="true" d="M0,0h0v0h0Z"/><g><g class="mark-group role-column-title column-title" role="graphics-object" aria-roledescription="group mark container"><g transform="translate(227,-35)"><path class="background" aria-hidden="true" d="M0,0h0v0h0Z"/><g><g class="mark-group role-title"><g transform="translate(0,-26)"><path class="background" aria-hidden="true" d="M0,0h0v0h0Z" pointer-events="none"/><g><g class="mark-text role-title-text" role="graphics-symbol" aria-roledescription="title" aria-label="Title text 'Convolution Benchmarks'" pointer-events="none"><text text-anchor="middle" transform="translate(0,13)" font-family="sans-serif" font-size="16px" font-weight="bold" fill="#000" opacity="1">Convolution Benchmarks</text></g></g><path class="foreground" aria-hidden="true" d="" pointer-events="none" display="none"/></g></g></g><path class="foreground" aria-hidden="true" d="" display="none"/></g></g><g class="mark-group role-column-header column_header" role="graphics-object" aria-roledescription="group mark container"><g transform="translate(0,-1)"><path class="background" aria-hidden="true" d="M0,0h200v0h-200Z"/><g><g class="mark-group role-title"><g transform="translate(100,-24)"><path class="background" aria-hidden="true" d="M0,0h0v0h0Z" pointer-events="none"/><g><g class="mark-text role-title-text" role="graphics-symbol" aria-roledescription="title" aria-label="Title text 'kernel size 16'" pointer-events="none"><text text-anchor="middle" transform="translate(0,11)" font-family="sans-serif" font-size="14px" fill="#000" opacity="1">kernel size 16</text></g></g><path class="foreground" aria-hidden="true" d="" pointer-events="none" display="none"/></g></g></g><path class="foreground" aria-hidden="true" d="" display="none"/></g><g transform="translate(539,-1)"><path class="background" aria-hidden="true" d="M0,0h200v0h-200Z"/><g><g class="mark-group role-title"><g transform="translate(100,-24)"><path class="background" aria-hidden="true" d="M0,0h0v0h0Z" pointer-events="none"/><g><g class="mark-text role-title-text" role="graphics-symbol" aria-roledescription="title" aria-label="Title text 'kernel size 1024'" pointer-events="none"><text text-anchor="middle" transform="translate(0,11)" font-family="sans-serif" font-size="14px" fill="#000" opacity="1">kernel size 1024</text></g></g><path class="foreground" aria-hidden="true" d="" pointer-events="none" display="none"/></g></g></g><path class="foreground" aria-hidden="true" d="" display="none"/></g></g><g class="mark-group role-scope cell" role="graphics-object" aria-roledescription="group mark container"><g transform="translate(0,0)"><path class="background" aria-hidden="true" d="M0.5,0.5h200v300h-200Z" stroke="#ddd"/><g><g class="mark-group role-axis" aria-hidden="true"><g transform="translate(0.5,300.5)"><path class="background" aria-hidden="true" d="M0,0h0v0h0Z" pointer-events="none"/><g><g class="mark-rule role-axis-grid" pointer-events="none"><line transform="translate(0,0)" x2="0" y2="-300" stroke="#ddd" stroke-width="1" opacity="1"/><line transform="translate(38,0)" x2="0" y2="-300" stroke="#ddd" stroke-width="1" opacity="1"/><line transform="translate(77,0)" x2="0" y2="-300" stroke="#ddd" stroke-width="1" opacity="1"/><line transform="translate(115,0)" x2="0" y2="-300" stroke="#ddd" stroke-width="1" opacity="1"/><line transform="translate(154,0)" x2="0" y2="-300" stroke="#ddd" stroke-width="1" opacity="1"/><line transform="translate(192,0)" x2="0" y2="-300" stroke="#ddd" stroke-width="1" opacity="1"/></g></g><path class="foreground" aria-hidden="true" d="" pointer-events="none" display="none"/></g></g><g class="mark-group role-axis" role="graphics-symbol" aria-roledescription="axis" aria-label="X-axis titled 'mean execution time in µs' for a linear scale with values from 0 to 260"><g transform="translate(0.5,300.5)"><path class="background" aria-hidden="true" d="M0,0h0v0h0Z" pointer-events="none"/><g><g class="mark-rule role-axis-tick" pointer-events="none"><line transform="translate(0,0)" x2="0" y2="5" stroke="#888" stroke-width="1" opacity="1"/><line transform="translate(38,0)" x2="0" y2="5" stroke="#888" stroke-width="1" opacity="1"/><line transform="translate(77,0)" x2="0" y2="5" stroke="#888" stroke-width="1" opacity="1"/><line transform="translate(115,0)" x2="0" y2="5" stroke="#888" stroke-width="1" opacity="1"/><line transform="translate(154,0)" x2="0" y2="5" stroke="#888" stroke-width="1" opacity="1"/><line transform="translate(192,0)" x2="0" y2="5" stroke="#888" stroke-width="1" opacity="1"/></g><g class="mark-text role-axis-label" pointer-events="none"><text text-anchor="start" transform="translate(0,15)" font-family="sans-serif" font-size="10px" fill="#000" opacity="1">0</text><text text-anchor="middle" transform="translate(38.46153846153847,15)" font-family="sans-serif" font-size="10px" fill="#000" opacity="1">50</text><text text-anchor="middle" transform="translate(76.92307692307693,15)" font-family="sans-serif" font-size="10px" fill="#000" opacity="1">100</text><text text-anchor="middle" transform="translate(115.38461538461537,15)" font-family="sans-serif" font-size="10px" fill="#000" opacity="1">150</text><text text-anchor="middle" transform="translate(153.84615384615387,15)" font-family="sans-serif" font-size="10px" fill="#000" opacity="1">200</text><text text-anchor="middle" transform="translate(192.30769230769232,15)" font-family="sans-serif" font-size="10px" fill="#000" opacity="1">250</text></g><g class="mark-rule role-axis-domain" pointer-events="none"><line transform="translate(0,0)" x2="200" y2="0" stroke="#888" stroke-width="1" opacity="1"/></g><g class="mark-text role-axis-title" pointer-events="none"><text text-anchor="middle" transform="translate(100,30)" font-family="sans-serif" font-size="11px" font-weight="bold" fill="#000" opacity="1">mean execution time in µs</text></g></g><path class="foreground" aria-hidden="true" d="" pointer-events="none" display="none"/></g></g><g class="mark-group role-axis" role="graphics-symbol" aria-roledescription="axis" aria-label="Y-axis titled 'algorithm' for a discrete scale with 15 values: inputPerKernelValue Transposed, inputPerKernelValue Transposed OuterLoopUnrolled, inputPerKernelValue Transposed LoopFissionIndexArithmetic, inputPerKernelValue Transposed LoopFission, inputPerKernelValue Transposed InnerAndOuterLoopUnrolled, ending with inputPerKernelValue Transposed InnerLoopUnrolled"><g transform="translate(0.5,0.5)"><path class="background" aria-hidden="true" d="M0,0h0v0h0Z" pointer-events="none"/><g><g class="mark-rule role-axis-tick" pointer-events="none"><line transform="translate(0,10)" x2="-5" y2="0" stroke="#888" stroke-width="1" opacity="1"/><line transform="translate(0,30)" x2="-5" y2="0" stroke="#888" stroke-width="1" opacity="1"/><line transform="translate(0,50)" x2="-5" y2="0" stroke="#888" stroke-width="1" opacity="1"/><line transform="translate(0,70)" x2="-5" y2="0" stroke="#888" stroke-width="1" opacity="1"/><line transform="translate(0,90)" x2="-5" y2="0" stroke="#888" stroke-width="1" opacity="1"/><line transform="translate(0,110)" x2="-5" y2="0" stroke="#888" stroke-width="1" opacity="1"/><line transform="translate(0,130)" x2="-5" y2="0" stroke="#888" stroke-width="1" opacity="1"/><line transform="translate(0,150)" x2="-5" y2="0" stroke="#888" stroke-width="1" opacity="1"/><line transform="translate(0,170)" x2="-5" y2="0" stroke="#888" stroke-width="1" opacity="1"/><line transform="translate(0,190)" x2="-5" y2="0" stroke="#888" stroke-width="1" opacity="1"/><line transform="translate(0,210)" x2="-5" y2="0" stroke="#888" stroke-width="1" opacity="1"/><line transform="translate(0,230)" x2="-5" y2="0" stroke="#888" stroke-width="1" opacity="1"/><line transform="translate(0,250)" x2="-5" y2="0" stroke="#888" stroke-width="1" opacity="1"/><line transform="translate(0,270)" x2="-5" y2="0" stroke="#888" stroke-width="1" opacity="1"/><line transform="translate(0,290)" x2="-5" y2="0" stroke="#888" stroke-width="1" opacity="1"/></g><g class="mark-text role-axis-label" pointer-events="none"><text text-anchor="end" transform="translate(-7,12.5)" font-family="sans-serif" font-size="10px" fill="#000" opacity="1">inputPerKernelValue Transposed</text><text text-anchor="end" transform="translate(-7,32.5)" font-family="sans-serif" font-size="10px" fill="#000" opacity="1">inputPerKernelValue Transposed OuterLoopUnrolled</text><text text-anchor="end" transform="translate(-7,52.5)" font-family="sans-serif" font-size="10px" fill="#000" opacity="1">inputPerKernelValue Transposed LoopFissionIndexArithmetic</text><text text-anchor="end" transform="translate(-7,72.5)" font-family="sans-serif" font-size="10px" fill="#000" opacity="1">inputPerKernelValue Transposed LoopFission</text><text text-anchor="end" transform="translate(-7,92.5)" font-family="sans-serif" font-size="10px" fill="#000" opacity="1">inputPerKernelValue Transposed InnerAndOuterLoopUnrolled</text><text text-anchor="end" transform="translate(-7,112.5)" font-family="sans-serif" font-size="10px" fill="#000" opacity="1">(wilczek) Outer- and Inner-Loop Vectorization</text><text text-anchor="end" transform="translate(-7,132.5)" font-family="sans-serif" font-size="10px" fill="#000" opacity="1">kernelPerInputValue Transposed</text><text text-anchor="end" transform="translate(-7,152.5)" font-family="sans-serif" font-size="10px" fill="#000" opacity="1">kernelPerInputValue Transposed LoopFission</text><text text-anchor="end" transform="translate(-7,172.5)" font-family="sans-serif" font-size="10px" fill="#000" opacity="1">(wilczek) Inner-Loop Vectorization</text><text text-anchor="end" transform="translate(-7,192.5)" font-family="sans-serif" font-size="10px" fill="#000" opacity="1">(chaowang15) convolve1D</text><text text-anchor="end" transform="translate(-7,212.5)" font-family="sans-serif" font-size="10px" fill="#000" opacity="1">(matlab-like) conv 'valid' shape pre padded</text><text text-anchor="end" transform="translate(-7,232.5)" font-family="sans-serif" font-size="10px" fill="#000" opacity="1">(matlab-like) conv 'full' shape</text><text text-anchor="end" transform="translate(-7,252.5)" font-family="sans-serif" font-size="10px" fill="#000" opacity="1">(wilczek) Single</text><text text-anchor="end" transform="translate(-7,272.5)" font-family="sans-serif" font-size="10px" fill="#000" opacity="1">(wilczek) Outer-Loop Vectorization</text><text text-anchor="end" transform="translate(-7,292.5)" font-family="sans-serif" font-size="10px" fill="#000" opacity="1">inputPerKernelValue Transposed InnerLoopUnrolled</text></g><g class="mark-rule role-axis-domain" pointer-events="none"><line transform="translate(0,0)" x2="0" y2="300" stroke="#888" stroke-width="1" opacity="1"/></g><g class="mark-text role-axis-title" pointer-events="none"><text text-anchor="middle" transform="translate(-300,150) rotate(-90) translate(0,-2)" font-family="sans-serif" font-size="11px" font-weight="bold" fill="#000" opacity="1">algorithm</text></g></g><path class="foreground" aria-hidden="true" d="" pointer-events="none" display="none"/></g></g><g class="mark-rect role-mark child_layer_0_marks" role="graphics-object" aria-roledescription="rect mark container"><path aria-label="mean execution time in µs: 68; algorithm: kernelPerInputValue Transposed" role="graphics-symbol" aria-roledescription="bar" d="M0,121.9L48.307692307692314,121.9C50.51535240566832,121.9,52.307692307692314,123.692339902024,52.307692307692314,125.9L52.307692307692314,134.1C52.307692307692314,136.307660097976,50.51535240566832,138.1,48.307692307692314,138.1L0,138.1C0,138.1,0,138.1,0,138.1L0,121.9C0,121.9,0,121.9,0,121.9Z" fill="#4c78a8"/><path aria-label="mean execution time in µs: 22; algorithm: inputPerKernelValue Transposed" role="graphics-symbol" aria-roledescription="bar" d="M0,1.9L12.923076923076923,1.9C15.130737021052923,1.9,16.923076923076923,3.692339902024,16.923076923076923,5.9L16.923076923076923,14.099999999999998C16.923076923076923,16.307660097975997,15.130737021052923,18.099999999999998,12.923076923076923,18.099999999999998L0,18.099999999999998C0,18.099999999999998,0,18.099999999999998,0,18.099999999999998L0,1.9C0,1.9,0,1.9,0,1.9Z" fill="#4c78a8"/><path aria-label="mean execution time in µs: 243; algorithm: inputPerKernelValue Transposed InnerLoopUnrolled" role="graphics-symbol" aria-roledescription="bar" d="M0,281.9L182.92307692307693,281.9C185.13073702105294,281.9,186.92307692307693,283.692339902024,186.92307692307693,285.9L186.92307692307693,294.09999999999997C186.92307692307693,296.30766009797594,185.13073702105294,298.09999999999997,182.92307692307693,298.09999999999997L0,298.09999999999997C0,298.09999999999997,0,298.09999999999997,0,298.09999999999997L0,281.9C0,281.9,0,281.9,0,281.9Z" fill="#4c78a8"/><path aria-label="mean execution time in µs: 39; algorithm: inputPerKernelValue Transposed OuterLoopUnrolled" role="graphics-symbol" aria-roledescription="bar" d="M0,21.9L26,21.9C28.207660097976,21.9,30,23.692339902024,30,25.9L30,34.099999999999994C30,36.307660097976,28.207660097976,38.099999999999994,26,38.099999999999994L0,38.099999999999994C0,38.099999999999994,0,38.099999999999994,0,38.099999999999994L0,21.9C0,21.9,0,21.9,0,21.9Z" fill="#4c78a8"/><path aria-label="mean execution time in µs: 57; algorithm: inputPerKernelValue Transposed InnerAndOuterLoopUnrolled" role="graphics-symbol" aria-roledescription="bar" d="M0,81.9L39.84615384615385,81.9C42.05381394412985,81.9,43.84615384615385,83.692339902024,43.84615384615385,85.9L43.84615384615385,94.10000000000001C43.84615384615385,96.30766009797601,42.05381394412985,98.10000000000001,39.84615384615385,98.10000000000001L0,98.10000000000001C0,98.10000000000001,0,98.10000000000001,0,98.10000000000001L0,81.9C0,81.9,0,81.9,0,81.9Z" fill="#4c78a8"/><path aria-label="mean execution time in µs: 56; algorithm: inputPerKernelValue Transposed LoopFission" role="graphics-symbol" aria-roledescription="bar" d="M0,61.9L39.07692307692308,61.9C41.28458317489908,61.9,43.07692307692308,63.692339902023996,43.07692307692308,65.9L43.07692307692308,74.1C43.07692307692308,76.307660097976,41.28458317489908,78.1,39.07692307692308,78.1L0,78.1C0,78.1,0,78.1,0,78.1L0,61.9C0,61.9,0,61.9,0,61.9Z" fill="#4c78a8"/><path aria-label="mean execution time in µs: 54; algorithm: inputPerKernelValue Transposed LoopFissionIndexArithmetic" role="graphics-symbol" aria-roledescription="bar" d="M0,41.9L37.53846153846154,41.9C39.74612163643754,41.9,41.53846153846154,43.692339902023996,41.53846153846154,45.9L41.53846153846154,54.099999999999994C41.53846153846154,56.307660097976,39.74612163643754,58.099999999999994,37.53846153846154,58.099999999999994L0,58.099999999999994C0,58.099999999999994,0,58.099999999999994,0,58.099999999999994L0,41.9C0,41.9,0,41.9,0,41.9Z" fill="#4c78a8"/><path aria-label="mean execution time in µs: 69; algorithm: kernelPerInputValue Transposed LoopFission" role="graphics-symbol" aria-roledescription="bar" d="M0,141.9L49.07692307692308,141.9C51.28458317489908,141.9,53.07692307692308,143.692339902024,53.07692307692308,145.9L53.07692307692308,154.1C53.07692307692308,156.307660097976,51.28458317489908,158.1,49.07692307692308,158.1L0,158.1C0,158.1,0,158.1,0,158.1L0,141.9C0,141.9,0,141.9,0,141.9Z" fill="#4c78a8"/><path aria-label="mean execution time in µs: 101; algorithm: (matlab-like) conv 'full' shape" role="graphics-symbol" aria-roledescription="bar" d="M0,221.9L73.6923076923077,221.9C75.8999677902837,221.9,77.6923076923077,223.692339902024,77.6923076923077,225.9L77.6923076923077,234.1C77.6923076923077,236.307660097976,75.8999677902837,238.1,73.6923076923077,238.1L0,238.1C0,238.1,0,238.1,0,238.1L0,221.9C0,221.9,0,221.9,0,221.9Z" fill="#4c78a8"/><path aria-label="mean execution time in µs: 96; algorithm: (matlab-like) conv 'valid' shape pre padded" role="graphics-symbol" aria-roledescription="bar" d="M0,201.9L69.84615384615385,201.9C72.05381394412986,201.9,73.84615384615385,203.692339902024,73.84615384615385,205.9L73.84615384615385,214.1C73.84615384615385,216.307660097976,72.05381394412986,218.1,69.84615384615385,218.1L0,218.1C0,218.1,0,218.1,0,218.1L0,201.9C0,201.9,0,201.9,0,201.9Z" fill="#4c78a8"/><path aria-label="mean execution time in µs: 105; algorithm: (wilczek) Single" role="graphics-symbol" aria-roledescription="bar" d="M0,241.9L76.76923076923077,241.9C78.97689086720678,241.9,80.76923076923077,243.692339902024,80.76923076923077,245.9L80.76923076923077,254.10000000000002C80.76923076923077,256.307660097976,78.97689086720678,258.1,76.76923076923077,258.1L0,258.1C0,258.1,0,258.1,0,258.1L0,241.9C0,241.9,0,241.9,0,241.9Z" fill="#4c78a8"/><path aria-label="mean execution time in µs: 73; algorithm: (wilczek) Inner-Loop Vectorization" role="graphics-symbol" aria-roledescription="bar" d="M0,161.9L52.15384615384615,161.9C54.361506251822156,161.9,56.15384615384615,163.692339902024,56.15384615384615,165.9L56.15384615384615,174.1C56.15384615384615,176.307660097976,54.361506251822156,178.1,52.15384615384615,178.1L0,178.1C0,178.1,0,178.1,0,178.1L0,161.9C0,161.9,0,161.9,0,161.9Z" fill="#4c78a8"/><path aria-label="mean execution time in µs: 231; algorithm: (wilczek) Outer-Loop Vectorization" role="graphics-symbol" aria-roledescription="bar" d="M0,261.9L173.69230769230768,261.9C175.89996779028368,261.9,177.69230769230768,263.692339902024,177.69230769230768,265.9L177.69230769230768,274.09999999999997C177.69230769230768,276.30766009797594,175.89996779028368,278.09999999999997,173.69230769230768,278.09999999999997L0,278.09999999999997C0,278.09999999999997,0,278.09999999999997,0,278.09999999999997L0,261.9C0,261.9,0,261.9,0,261.9Z" fill="#4c78a8"/><path aria-label="mean execution time in µs: 67; algorithm: (wilczek) Outer- and Inner-Loop Vectorization" role="graphics-symbol" aria-roledescription="bar" d="M0,101.9L47.53846153846153,101.9C49.746121636437536,101.9,51.53846153846153,103.692339902024,51.53846153846153,105.9L51.53846153846153,114.10000000000001C51.53846153846153,116.30766009797601,49.746121636437536,118.10000000000001,47.53846153846153,118.10000000000001L0,118.10000000000001C0,118.10000000000001,0,118.10000000000001,0,118.10000000000001L0,101.9C0,101.9,0,101.9,0,101.9Z" fill="#4c78a8"/><path aria-label="mean execution time in µs: 95; algorithm: (chaowang15) convolve1D" role="graphics-symbol" aria-roledescription="bar" d="M0,181.9L69.07692307692307,181.9C71.28458317489907,181.9,73.07692307692307,183.692339902024,73.07692307692307,185.9L73.07692307692307,194.1C73.07692307692307,196.307660097976,71.28458317489907,198.1,69.07692307692307,198.1L0,198.1C0,198.1,0,198.1,0,198.1L0,181.9C0,181.9,0,181.9,0,181.9Z" fill="#4c78a8"/></g><g class="mark-text role-mark child_layer_1_marks" role="graphics-object" aria-roledescription="text mark container"><text aria-label="mean execution time in µs: 68; algorithm: kernelPerInputValue Transposed; MeanExecutionTime: 68" role="graphics-symbol" aria-roledescription="text mark" text-anchor="start" transform="translate(56.307692307692314,133)" font-family="sans-serif" font-size="9px" fill="black">68</text><text aria-label="mean execution time in µs: 22; algorithm: inputPerKernelValue Transposed; MeanExecutionTime: 22" role="graphics-symbol" aria-roledescription="text mark" text-anchor="start" transform="translate(20.923076923076923,13)" font-family="sans-serif" font-size="9px" fill="black">22</text><text aria-label="mean execution time in µs: 243; algorithm: inputPerKernelValue Transposed InnerLoopUnrolled; MeanExecutionTime: 243" role="graphics-symbol" aria-roledescription="text mark" text-anchor="start" transform="translate(190.92307692307693,293)" font-family="sans-serif" font-size="9px" fill="black">243</text><text aria-label="mean execution time in µs: 39; algorithm: inputPerKernelValue Transposed OuterLoopUnrolled; MeanExecutionTime: 39" role="graphics-symbol" aria-roledescription="text mark" text-anchor="start" transform="translate(34,33)" font-family="sans-serif" font-size="9px" fill="black">39</text><text aria-label="mean execution time in µs: 57; algorithm: inputPerKernelValue Transposed InnerAndOuterLoopUnrolled; MeanExecutionTime: 57" role="graphics-symbol" aria-roledescription="text mark" text-anchor="start" transform="translate(47.84615384615385,93)" font-family="sans-serif" font-size="9px" fill="black">57</text><text aria-label="mean execution time in µs: 56; algorithm: inputPerKernelValue Transposed LoopFission; MeanExecutionTime: 56" role="graphics-symbol" aria-roledescription="text mark" text-anchor="start" transform="translate(47.07692307692308,73)" font-family="sans-serif" font-size="9px" fill="black">56</text><text aria-label="mean execution time in µs: 54; algorithm: inputPerKernelValue Transposed LoopFissionIndexArithmetic; MeanExecutionTime: 54" role="graphics-symbol" aria-roledescription="text mark" text-anchor="start" transform="translate(45.53846153846154,53)" font-family="sans-serif" font-size="9px" fill="black">54</text><text aria-label="mean execution time in µs: 69; algorithm: kernelPerInputValue Transposed LoopFission; MeanExecutionTime: 69" role="graphics-symbol" aria-roledescription="text mark" text-anchor="start" transform="translate(57.07692307692308,153)" font-family="sans-serif" font-size="9px" fill="black">69</text><text aria-label="mean execution time in µs: 101; algorithm: (matlab-like) conv 'full' shape; MeanExecutionTime: 101" role="graphics-symbol" aria-roledescription="text mark" text-anchor="start" transform="translate(81.6923076923077,233)" font-family="sans-serif" font-size="9px" fill="black">101</text><text aria-label="mean execution time in µs: 96; algorithm: (matlab-like) conv 'valid' shape pre padded; MeanExecutionTime: 96" role="graphics-symbol" aria-roledescription="text mark" text-anchor="start" transform="translate(77.84615384615385,213)" font-family="sans-serif" font-size="9px" fill="black">96</text><text aria-label="mean execution time in µs: 105; algorithm: (wilczek) Single; MeanExecutionTime: 105" role="graphics-symbol" aria-roledescription="text mark" text-anchor="start" transform="translate(84.76923076923077,253)" font-family="sans-serif" font-size="9px" fill="black">105</text><text aria-label="mean execution time in µs: 73; algorithm: (wilczek) Inner-Loop Vectorization; MeanExecutionTime: 73" role="graphics-symbol" aria-roledescription="text mark" text-anchor="start" transform="translate(60.15384615384615,173)" font-family="sans-serif" font-size="9px" fill="black">73</text><text aria-label="mean execution time in µs: 231; algorithm: (wilczek) Outer-Loop Vectorization; MeanExecutionTime: 231" role="graphics-symbol" aria-roledescription="text mark" text-anchor="start" transform="translate(181.69230769230768,273)" font-family="sans-serif" font-size="9px" fill="black">231</text><text aria-label="mean execution time in µs: 67; algorithm: (wilczek) Outer- and Inner-Loop Vectorization; MeanExecutionTime: 67" role="graphics-symbol" aria-roledescription="text mark" text-anchor="start" transform="translate(55.53846153846153,113)" font-family="sans-serif" font-size="9px" fill="black">67</text><text aria-label="mean execution time in µs: 95; algorithm: (chaowang15) convolve1D; MeanExecutionTime: 95" role="graphics-symbol" aria-roledescription="text mark" text-anchor="start" transform="translate(77.07692307692307,193)" font-family="sans-serif" font-size="9px" fill="black">95</text></g></g><path class="foreground" aria-hidden="true" d="" display="none"/></g><g transform="translate(539,0)"><path class="background" aria-hidden="true" d="M0.5,0.5h200v300h-200Z" stroke="#ddd"/><g><g class="mark-group role-axis" aria-hidden="true"><g transform="translate(0.5,300.5)"><path class="background" aria-hidden="true" d="M0,0h0v0h0Z" pointer-events="none"/><g><g class="mark-rule role-axis-grid" pointer-events="none"><line transform="translate(0,0)" x2="0" y2="-300" stroke="#ddd" stroke-width="1" opacity="1"/><line transform="translate(45,0)" x2="0" y2="-300" stroke="#ddd" stroke-width="1" opacity="1"/><line transform="translate(91,0)" x2="0" y2="-300" stroke="#ddd" stroke-width="1" opacity="1"/><line transform="translate(136,0)" x2="0" y2="-300" stroke="#ddd" stroke-width="1" opacity="1"/><line transform="translate(182,0)" x2="0" y2="-300" stroke="#ddd" stroke-width="1" opacity="1"/></g></g><path class="foreground" aria-hidden="true" d="" pointer-events="none" display="none"/></g></g><g class="mark-group role-axis" role="graphics-symbol" aria-roledescription="axis" aria-label="X-axis titled 'mean execution time in µs' for a linear scale with values from 0 to 22,000"><g transform="translate(0.5,300.5)"><path class="background" aria-hidden="true" d="M0,0h0v0h0Z" pointer-events="none"/><g><g class="mark-rule role-axis-tick" pointer-events="none"><line transform="translate(0,0)" x2="0" y2="5" stroke="#888" stroke-width="1" opacity="1"/><line transform="translate(45,0)" x2="0" y2="5" stroke="#888" stroke-width="1" opacity="1"/><line transform="translate(91,0)" x2="0" y2="5" stroke="#888" stroke-width="1" opacity="1"/><line transform="translate(136,0)" x2="0" y2="5" stroke="#888" stroke-width="1" opacity="1"/><line transform="translate(182,0)" x2="0" y2="5" stroke="#888" stroke-width="1" opacity="1"/></g><g class="mark-text role-axis-label" pointer-events="none"><text text-anchor="start" transform="translate(0,15)" font-family="sans-serif" font-size="10px" fill="#000" opacity="1">0</text><text text-anchor="middle" transform="translate(45.45454545454545,15)" font-family="sans-serif" font-size="10px" fill="#000" opacity="1">5,000</text><text text-anchor="middle" transform="translate(90.9090909090909,15)" font-family="sans-serif" font-size="10px" fill="#000" opacity="1">10,000</text><text text-anchor="middle" transform="translate(136.36363636363635,15)" font-family="sans-serif" font-size="10px" fill="#000" opacity="1">15,000</text><text text-anchor="middle" transform="translate(181.8181818181818,15)" font-family="sans-serif" font-size="10px" fill="#000" opacity="1">20,000</text></g><g class="mark-rule role-axis-domain" pointer-events="none"><line transform="translate(0,0)" x2="200" y2="0" stroke="#888" stroke-width="1" opacity="1"/></g><g class="mark-text role-axis-title" pointer-events="none"><text text-anchor="middle" transform="translate(100,30)" font-family="sans-serif" font-size="11px" font-weight="bold" fill="#000" opacity="1">mean execution time in µs</text></g></g><path class="foreground" aria-hidden="true" d="" pointer-events="none" display="none"/></g></g><g class="mark-group role-axis" role="graphics-symbol" aria-roledescription="axis" aria-label="Y-axis titled 'algorithm' for a discrete scale with 15 values: kernelPerInputValue Transposed, inputPerKernelValue Transposed, kernelPerInputValue Transposed LoopFission, inputPerKernelValue Transposed OuterLoopUnrolled, inputPerKernelValue Transposed LoopFission, ending with (matlab-like) conv 'valid' shape pre padded"><g transform="translate(0.5,0.5)"><path class="background" aria-hidden="true" d="M0,0h0v0h0Z" pointer-events="none"/><g><g class="mark-rule role-axis-tick" pointer-events="none"><line transform="translate(0,10)" x2="-5" y2="0" stroke="#888" stroke-width="1" opacity="1"/><line transform="translate(0,30)" x2="-5" y2="0" stroke="#888" stroke-width="1" opacity="1"/><line transform="translate(0,50)" x2="-5" y2="0" stroke="#888" stroke-width="1" opacity="1"/><line transform="translate(0,70)" x2="-5" y2="0" stroke="#888" stroke-width="1" opacity="1"/><line transform="translate(0,90)" x2="-5" y2="0" stroke="#888" stroke-width="1" opacity="1"/><line transform="translate(0,110)" x2="-5" y2="0" stroke="#888" stroke-width="1" opacity="1"/><line transform="translate(0,130)" x2="-5" y2="0" stroke="#888" stroke-width="1" opacity="1"/><line transform="translate(0,150)" x2="-5" y2="0" stroke="#888" stroke-width="1" opacity="1"/><line transform="translate(0,170)" x2="-5" y2="0" stroke="#888" stroke-width="1" opacity="1"/><line transform="translate(0,190)" x2="-5" y2="0" stroke="#888" stroke-width="1" opacity="1"/><line transform="translate(0,210)" x2="-5" y2="0" stroke="#888" stroke-width="1" opacity="1"/><line transform="translate(0,230)" x2="-5" y2="0" stroke="#888" stroke-width="1" opacity="1"/><line transform="translate(0,250)" x2="-5" y2="0" stroke="#888" stroke-width="1" opacity="1"/><line transform="translate(0,270)" x2="-5" y2="0" stroke="#888" stroke-width="1" opacity="1"/><line transform="translate(0,290)" x2="-5" y2="0" stroke="#888" stroke-width="1" opacity="1"/></g><g class="mark-text role-axis-label" pointer-events="none"><text text-anchor="end" transform="translate(-7,12.5)" font-family="sans-serif" font-size="10px" fill="#000" opacity="1">kernelPerInputValue Transposed</text><text text-anchor="end" transform="translate(-7,32.5)" font-family="sans-serif" font-size="10px" fill="#000" opacity="1">inputPerKernelValue Transposed</text><text text-anchor="end" transform="translate(-7,52.5)" font-family="sans-serif" font-size="10px" fill="#000" opacity="1">kernelPerInputValue Transposed LoopFission</text><text text-anchor="end" transform="translate(-7,72.5)" font-family="sans-serif" font-size="10px" fill="#000" opacity="1">inputPerKernelValue Transposed OuterLoopUnrolled</text><text text-anchor="end" transform="translate(-7,92.5)" font-family="sans-serif" font-size="10px" fill="#000" opacity="1">inputPerKernelValue Transposed LoopFission</text><text text-anchor="end" transform="translate(-7,112.5)" font-family="sans-serif" font-size="10px" fill="#000" opacity="1">inputPerKernelValue Transposed LoopFissionIndexArithmetic</text><text text-anchor="end" transform="translate(-7,132.5)" font-family="sans-serif" font-size="10px" fill="#000" opacity="1">inputPerKernelValue Transposed InnerAndOuterLoopUnrolled</text><text text-anchor="end" transform="translate(-7,152.5)" font-family="sans-serif" font-size="10px" fill="#000" opacity="1">(wilczek) Outer- and Inner-Loop Vectorization</text><text text-anchor="end" transform="translate(-7,172.5)" font-family="sans-serif" font-size="10px" fill="#000" opacity="1">(wilczek) Inner-Loop Vectorization</text><text text-anchor="end" transform="translate(-7,192.5)" font-family="sans-serif" font-size="10px" fill="#000" opacity="1">inputPerKernelValue Transposed InnerLoopUnrolled</text><text text-anchor="end" transform="translate(-7,212.5)" font-family="sans-serif" font-size="10px" fill="#000" opacity="1">(wilczek) Outer-Loop Vectorization</text><text text-anchor="end" transform="translate(-7,232.5)" font-family="sans-serif" font-size="10px" fill="#000" opacity="1">(matlab-like) conv 'full' shape</text><text text-anchor="end" transform="translate(-7,252.5)" font-family="sans-serif" font-size="10px" fill="#000" opacity="1">(chaowang15) convolve1D</text><text text-anchor="end" transform="translate(-7,272.5)" font-family="sans-serif" font-size="10px" fill="#000" opacity="1">(wilczek) Single</text><text text-anchor="end" transform="translate(-7,292.5)" font-family="sans-serif" font-size="10px" fill="#000" opacity="1">(matlab-like) conv 'valid' shape pre padded</text></g><g class="mark-rule role-axis-domain" pointer-events="none"><line transform="translate(0,0)" x2="0" y2="300" stroke="#888" stroke-width="1" opacity="1"/></g><g class="mark-text role-axis-title" pointer-events="none"><text text-anchor="middle" transform="translate(-300,150) rotate(-90) translate(0,-2)" font-family="sans-serif" font-size="11px" font-weight="bold" fill="#000" opacity="1">algorithm</text></g></g><path class="foreground" aria-hidden="true" d="" pointer-events="none" display="none"/></g></g><g class="mark-rect role-mark child_layer_0_marks" role="graphics-object" aria-roledescription="rect mark container"><path aria-label="mean execution time in µs: 1318; algorithm: kernelPerInputValue Transposed" role="graphics-symbol" aria-roledescription="bar" d="M0,1.9L7.981818181818182,1.9C10.189478279794182,1.9,11.981818181818182,3.692339902024,11.981818181818182,5.9L11.981818181818182,14.099999999999998C11.981818181818182,16.307660097975997,10.189478279794182,18.099999999999998,7.981818181818182,18.099999999999998L0,18.099999999999998C0,18.099999999999998,0,18.099999999999998,0,18.099999999999998L0,1.9C0,1.9,0,1.9,0,1.9Z" fill="#4c78a8"/><path aria-label="mean execution time in µs: 1344; algorithm: inputPerKernelValue Transposed" role="graphics-symbol" aria-roledescription="bar" d="M0,21.9L8.218181818181819,21.9C10.425841916157818,21.9,12.218181818181819,23.692339902024,12.218181818181819,25.9L12.218181818181819,34.099999999999994C12.218181818181819,36.307660097976,10.425841916157818,38.099999999999994,8.218181818181819,38.099999999999994L0,38.099999999999994C0,38.099999999999994,0,38.099999999999994,0,38.099999999999994L0,21.9C0,21.9,0,21.9,0,21.9Z" fill="#4c78a8"/><path aria-label="mean execution time in µs: 15485; algorithm: inputPerKernelValue Transposed InnerLoopUnrolled" role="graphics-symbol" aria-roledescription="bar" d="M0,181.9L136.77272727272728,181.9C138.98038737070328,181.9,140.77272727272728,183.692339902024,140.77272727272728,185.9L140.77272727272728,194.1C140.77272727272728,196.307660097976,138.98038737070328,198.1,136.77272727272728,198.1L0,198.1C0,198.1,0,198.1,0,198.1L0,181.9C0,181.9,0,181.9,0,181.9Z" fill="#4c78a8"/><path aria-label="mean execution time in µs: 2505; algorithm: inputPerKernelValue Transposed OuterLoopUnrolled" role="graphics-symbol" aria-roledescription="bar" d="M0,61.9L18.772727272727273,61.9C20.980387370703273,61.9,22.772727272727273,63.692339902023996,22.772727272727273,65.9L22.772727272727273,74.1C22.772727272727273,76.307660097976,20.980387370703273,78.1,18.772727272727273,78.1L0,78.1C0,78.1,0,78.1,0,78.1L0,61.9C0,61.9,0,61.9,0,61.9Z" fill="#4c78a8"/><path aria-label="mean execution time in µs: 3656; algorithm: inputPerKernelValue Transposed InnerAndOuterLoopUnrolled" role="graphics-symbol" aria-roledescription="bar" d="M0,121.9L29.236363636363635,121.9C31.444023734339634,121.9,33.236363636363635,123.692339902024,33.236363636363635,125.9L33.236363636363635,134.1C33.236363636363635,136.307660097976,31.444023734339634,138.1,29.236363636363635,138.1L0,138.1C0,138.1,0,138.1,0,138.1L0,121.9C0,121.9,0,121.9,0,121.9Z" fill="#4c78a8"/><path aria-label="mean execution time in µs: 3416; algorithm: inputPerKernelValue Transposed LoopFission" role="graphics-symbol" aria-roledescription="bar" d="M0,81.9L27.05454545454546,81.9C29.262205552521458,81.9,31.05454545454546,83.692339902024,31.05454545454546,85.9L31.05454545454546,94.10000000000001C31.05454545454546,96.30766009797601,29.262205552521458,98.10000000000001,27.05454545454546,98.10000000000001L0,98.10000000000001C0,98.10000000000001,0,98.10000000000001,0,98.10000000000001L0,81.9C0,81.9,0,81.9,0,81.9Z" fill="#4c78a8"/><path aria-label="mean execution time in µs: 3552; algorithm: inputPerKernelValue Transposed LoopFissionIndexArithmetic" role="graphics-symbol" aria-roledescription="bar" d="M0,101.9L28.29090909090909,101.9C30.49856918888509,101.9,32.29090909090909,103.692339902024,32.29090909090909,105.9L32.29090909090909,114.10000000000001C32.29090909090909,116.30766009797601,30.49856918888509,118.10000000000001,28.29090909090909,118.10000000000001L0,118.10000000000001C0,118.10000000000001,0,118.10000000000001,0,118.10000000000001L0,101.9C0,101.9,0,101.9,0,101.9Z" fill="#4c78a8"/><path aria-label="mean execution time in µs: 2235; algorithm: kernelPerInputValue Transposed LoopFission" role="graphics-symbol" aria-roledescription="bar" d="M0,41.9L16.31818181818182,41.9C18.52584191615782,41.9,20.31818181818182,43.692339902023996,20.31818181818182,45.9L20.31818181818182,54.099999999999994C20.31818181818182,56.307660097976,18.52584191615782,58.099999999999994,16.31818181818182,58.099999999999994L0,58.099999999999994C0,58.099999999999994,0,58.099999999999994,0,58.099999999999994L0,41.9C0,41.9,0,41.9,0,41.9Z" fill="#4c78a8"/><path aria-label="mean execution time in µs: 20308; algorithm: (matlab-like) conv 'full' shape" role="graphics-symbol" aria-roledescription="bar" d="M0,221.9L180.61818181818182,221.9C182.82584191615783,221.9,184.61818181818182,223.692339902024,184.61818181818182,225.9L184.61818181818182,234.1C184.61818181818182,236.307660097976,182.82584191615783,238.1,180.61818181818182,238.1L0,238.1C0,238.1,0,238.1,0,238.1L0,221.9C0,221.9,0,221.9,0,221.9Z" fill="#4c78a8"/><path aria-label="mean execution time in µs: 21619; algorithm: (matlab-like) conv 'valid' shape pre padded" role="graphics-symbol" aria-roledescription="bar" d="M0,281.9L192.53636363636363,281.9C194.74402373433963,281.9,196.53636363636363,283.692339902024,196.53636363636363,285.9L196.53636363636363,294.09999999999997C196.53636363636363,296.30766009797594,194.74402373433963,298.09999999999997,192.53636363636363,298.09999999999997L0,298.09999999999997C0,298.09999999999997,0,298.09999999999997,0,298.09999999999997L0,281.9C0,281.9,0,281.9,0,281.9Z" fill="#4c78a8"/><path aria-label="mean execution time in µs: 21618; algorithm: (wilczek) Single" role="graphics-symbol" aria-roledescription="bar" d="M0,261.9L192.52727272727273,261.9C194.73493282524873,261.9,196.52727272727273,263.692339902024,196.52727272727273,265.9L196.52727272727273,274.09999999999997C196.52727272727273,276.30766009797594,194.73493282524873,278.09999999999997,192.52727272727273,278.09999999999997L0,278.09999999999997C0,278.09999999999997,0,278.09999999999997,0,278.09999999999997L0,261.9C0,261.9,0,261.9,0,261.9Z" fill="#4c78a8"/><path aria-label="mean execution time in µs: 4728; algorithm: (wilczek) Inner-Loop Vectorization" role="graphics-symbol" aria-roledescription="bar" d="M0,161.9L38.981818181818184,161.9C41.18947827979419,161.9,42.981818181818184,163.692339902024,42.981818181818184,165.9L42.981818181818184,174.1C42.981818181818184,176.307660097976,41.18947827979419,178.1,38.981818181818184,178.1L0,178.1C0,178.1,0,178.1,0,178.1L0,161.9C0,161.9,0,161.9,0,161.9Z" fill="#4c78a8"/><path aria-label="mean execution time in µs: 15536; algorithm: (wilczek) Outer-Loop Vectorization" role="graphics-symbol" aria-roledescription="bar" d="M0,201.9L137.23636363636362,201.9C139.44402373433962,201.9,141.23636363636362,203.692339902024,141.23636363636362,205.9L141.23636363636362,214.1C141.23636363636362,216.307660097976,139.44402373433962,218.1,137.23636363636362,218.1L0,218.1C0,218.1,0,218.1,0,218.1L0,201.9C0,201.9,0,201.9,0,201.9Z" fill="#4c78a8"/><path aria-label="mean execution time in µs: 4394; algorithm: (wilczek) Outer- and Inner-Loop Vectorization" role="graphics-symbol" aria-roledescription="bar" d="M0,141.9L35.945454545454545,141.9C38.15311464343055,141.9,39.945454545454545,143.692339902024,39.945454545454545,145.9L39.945454545454545,154.1C39.945454545454545,156.307660097976,38.15311464343055,158.1,35.945454545454545,158.1L0,158.1C0,158.1,0,158.1,0,158.1L0,141.9C0,141.9,0,141.9,0,141.9Z" fill="#4c78a8"/><path aria-label="mean execution time in µs: 20954; algorithm: (chaowang15) convolve1D" role="graphics-symbol" aria-roledescription="bar" d="M0,241.9L186.4909090909091,241.9C188.6985691888851,241.9,190.4909090909091,243.692339902024,190.4909090909091,245.9L190.4909090909091,254.10000000000002C190.4909090909091,256.307660097976,188.6985691888851,258.1,186.4909090909091,258.1L0,258.1C0,258.1,0,258.1,0,258.1L0,241.9C0,241.9,0,241.9,0,241.9Z" fill="#4c78a8"/></g><g class="mark-text role-mark child_layer_1_marks" role="graphics-object" aria-roledescription="text mark container"><text aria-label="mean execution time in µs: 1318; algorithm: kernelPerInputValue Transposed; MeanExecutionTime: 1318" role="graphics-symbol" aria-roledescription="text mark" text-anchor="start" transform="translate(15.981818181818182,13)" font-family="sans-serif" font-size="9px" fill="black">1318</text><text aria-label="mean execution time in µs: 1344; algorithm: inputPerKernelValue Transposed; MeanExecutionTime: 1344" role="graphics-symbol" aria-roledescription="text mark" text-anchor="start" transform="translate(16.21818181818182,33)" font-family="sans-serif" font-size="9px" fill="black">1344</text><text aria-label="mean execution time in µs: 15485; algorithm: inputPerKernelValue Transposed InnerLoopUnrolled; MeanExecutionTime: 15485" role="graphics-symbol" aria-roledescription="text mark" text-anchor="start" transform="translate(144.77272727272728,193)" font-family="sans-serif" font-size="9px" fill="black">15485</text><text aria-label="mean execution time in µs: 2505; algorithm: inputPerKernelValue Transposed OuterLoopUnrolled; MeanExecutionTime: 2505" role="graphics-symbol" aria-roledescription="text mark" text-anchor="start" transform="translate(26.772727272727273,73)" font-family="sans-serif" font-size="9px" fill="black">2505</text><text aria-label="mean execution time in µs: 3656; algorithm: inputPerKernelValue Transposed InnerAndOuterLoopUnrolled; MeanExecutionTime: 3656" role="graphics-symbol" aria-roledescription="text mark" text-anchor="start" transform="translate(37.236363636363635,133)" font-family="sans-serif" font-size="9px" fill="black">3656</text><text aria-label="mean execution time in µs: 3416; algorithm: inputPerKernelValue Transposed LoopFission; MeanExecutionTime: 3416" role="graphics-symbol" aria-roledescription="text mark" text-anchor="start" transform="translate(35.05454545454546,93)" font-family="sans-serif" font-size="9px" fill="black">3416</text><text aria-label="mean execution time in µs: 3552; algorithm: inputPerKernelValue Transposed LoopFissionIndexArithmetic; MeanExecutionTime: 3552" role="graphics-symbol" aria-roledescription="text mark" text-anchor="start" transform="translate(36.29090909090909,113)" font-family="sans-serif" font-size="9px" fill="black">3552</text><text aria-label="mean execution time in µs: 2235; algorithm: kernelPerInputValue Transposed LoopFission; MeanExecutionTime: 2235" role="graphics-symbol" aria-roledescription="text mark" text-anchor="start" transform="translate(24.31818181818182,53)" font-family="sans-serif" font-size="9px" fill="black">2235</text><text aria-label="mean execution time in µs: 20308; algorithm: (matlab-like) conv 'full' shape; MeanExecutionTime: 20308" role="graphics-symbol" aria-roledescription="text mark" text-anchor="start" transform="translate(188.61818181818182,233)" font-family="sans-serif" font-size="9px" fill="black">20308</text><text aria-label="mean execution time in µs: 21619; algorithm: (matlab-like) conv 'valid' shape pre padded; MeanExecutionTime: 21619" role="graphics-symbol" aria-roledescription="text mark" text-anchor="start" transform="translate(200.53636363636363,293)" font-family="sans-serif" font-size="9px" fill="black">21619</text><text aria-label="mean execution time in µs: 21618; algorithm: (wilczek) Single; MeanExecutionTime: 21618" role="graphics-symbol" aria-roledescription="text mark" text-anchor="start" transform="translate(200.52727272727273,273)" font-family="sans-serif" font-size="9px" fill="black">21618</text><text aria-label="mean execution time in µs: 4728; algorithm: (wilczek) Inner-Loop Vectorization; MeanExecutionTime: 4728" role="graphics-symbol" aria-roledescription="text mark" text-anchor="start" transform="translate(46.981818181818184,173)" font-family="sans-serif" font-size="9px" fill="black">4728</text><text aria-label="mean execution time in µs: 15536; algorithm: (wilczek) Outer-Loop Vectorization; MeanExecutionTime: 15536" role="graphics-symbol" aria-roledescription="text mark" text-anchor="start" transform="translate(145.23636363636362,213)" font-family="sans-serif" font-size="9px" fill="black">15536</text><text aria-label="mean execution time in µs: 4394; algorithm: (wilczek) Outer- and Inner-Loop Vectorization; MeanExecutionTime: 4394" role="graphics-symbol" aria-roledescription="text mark" text-anchor="start" transform="translate(43.945454545454545,153)" font-family="sans-serif" font-size="9px" fill="black">4394</text><text aria-label="mean execution time in µs: 20954; algorithm: (chaowang15) convolve1D; MeanExecutionTime: 20954" role="graphics-symbol" aria-roledescription="text mark" text-anchor="start" transform="translate(194.4909090909091,253)" font-family="sans-serif" font-size="9px" fill="black">20954</text></g></g><path class="foreground" aria-hidden="true" d="" display="none"/></g></g></g><path class="foreground" aria-hidden="true" d="" display="none"/></g></g></g></svg>