<svg xmlns="http://www.w3.org/2000/svg" xmlns:xlink="http://www.w3.org/1999/xlink" version="1.1" class="marks" width="1148" height="464" viewBox="0 0 1148 464"><rect width="1148" height="464" fill="white"/><g fill="none" stroke-miterlimit="10" transform="translate(337,66)"><g class="mark-group role-frame root" role="graphics-object" aria-roledescription="group mark container"><g transform="translate(0,0)"><path class="background" aria-hidden="true" d="M0,0h0v0h0Z"/><g><g class="mark-group role-column-title column-title" role="graphics-object" aria-roledescription="group mark container"><g transform="translate(237,-35)"><path class="background" aria-hidden="true" d="M0,0h0v0h0Z"/><g><g class="mark-group role-title"><g transform="translate(0,-26)"><path class="background" aria-hidden="true" d="M0,0h0v0h0Z" pointer-events="none"/><g><g class="mark-text role-title-text" role="graphics-symbol" aria-roledescription="title" aria-label="Title text 'Convolution Benchmarks'" pointer-events="none"><text text-anchor="middle" transform="translate(0,13)" font-family="sans-serif" font-size="16px" font-weight="bold" fill="#000" opacity="1">Convolution Benchmarks</text></g></g><path class="foreground" aria-hidden="true" d="" pointer-events="none" display="none"/></g></g></g><path class="foreground" aria-hidden="true" d="" display="none"/></g></g><g class="mark-group role-column-header column_header" role="graphics-object" aria-roledescription="group mark container"><g transform="translate(0,-1)"><path class="background" aria-hidden="true" d="M0,0h200v0h-200Z"/><g><g class="mark-group role-title"><g transform="translate(100,-24)"><path class="background" aria-hidden="true" d="M0,0h0v0h0Z" pointer-events="none"/><g><g class="mark-text role-title-text" role="graphics-symbol" aria-roledescription="title" aria-label="Title text 'kernel size 16'" pointer-events="none"><text text-anchor="middle" transform="translate(0,11)" font-family="sans-serif" font-size="14px" fill="#000" opacity="1">kernel size 16</text></g></g><path class="foreground" aria-hidden="true" d="" pointer-events="none" display="none"/></g></g></g><path class="foreground" aria-hidden="true" d="" display="none"/></g><g transform="translate(575,-1)"><path class="background" aria-hidden="true" d="M0,0h200v0h-200Z"/><g><g class="mark-group role-title"><g transform="translate(100,-24)"><path class="background" aria-hidden="true" d="M0,0h0v0h0Z" pointer-events="none"/><g><g class="mark-text role-title-text" role="graphics-symbol" aria-roledescription="title" aria-label="Title text 'kernel size 1024'" pointer-events="none"><text text-anchor="middle" transform="translate(0,11)" font-family="sans-serif" font-size="14px" fill="#000" opacity="1">kernel size 1024</text></g></g><path class="foreground" aria-hidden="true" d="" pointer-events="none" display="none"/></g></g></g><path class="foreground" aria-hidden="true" d="" display="none"/></g></g><g class="mark-group role-scope cell" role="graphics-object" aria-roledescription="group mark container"><g transform="translate(0,0)"><path class="background" aria-hidden="true" d="M0.5,0.5h200v360h-200Z" stroke="#ddd"/><g><g class="mark-group role-axis" aria-hidden="true"><g transform="translate(0.5,360.5)"><path class="background" aria-hidden="true" d="M0,0h0v0h0Z" pointer-events="none"/><g><g class="mark-rule role-axis-grid" pointer-events="none"><line transform="translate(0,0)" x2="0" y2="-360" stroke="#ddd" stroke-width="1" opacity="1"/><line transform="translate(42,0)" x2="0" y2="-360" stroke="#ddd" stroke-width="1" opacity="1"/><line transform="translate(83,0)" x2="0" y2="-360" stroke="#ddd" stroke-width="1" opacity="1"/><line transform="translate(125,0)" x2="0" y2="-360" stroke="#ddd" stroke-width="1" opacity="1"/><line transform="translate(167,0)" x2="0" y2="-360" stroke="#ddd" stroke-width="1" opacity="1"/></g></g><path class="foreground" aria-hidden="true" d="" pointer-events="none" display="none"/></g></g><g class="mark-group role-axis" role="graphics-symbol" aria-roledescription="axis" aria-label="X-axis titled 'mean execution time in µs' for a linear scale with values from 0 to 240"><g transform="translate(0.5,360.5)"><path class="background" aria-hidden="true" d="M0,0h0v0h0Z" pointer-events="none"/><g><g class="mark-rule role-axis-tick" pointer-events="none"><line transform="translate(0,0)" x2="0" y2="5" stroke="#888" stroke-width="1" opacity="1"/><line transform="translate(42,0)" x2="0" y2="5" stroke="#888" stroke-width="1" opacity="1"/><line transform="translate(83,0)" x2="0" y2="5" stroke="#888" stroke-width="1" opacity="1"/><line transform="translate(125,0)" x2="0" y2="5" stroke="#888" stroke-width="1" opacity="1"/><line transform="translate(167,0)" x2="0" y2="5" stroke="#888" stroke-width="1" opacity="1"/></g><g class="mark-text role-axis-label" pointer-events="none"><text text-anchor="start" transform="translate(0,15)" font-family="sans-serif" font-size="10px" fill="#000" opacity="1">0</text><text text-anchor="middle" transform="translate(41.66666666666667,15)" font-family="sans-serif" font-size="10px" fill="#000" opacity="1">50</text><text text-anchor="middle" transform="translate(83.33333333333334,15)" font-family="sans-serif" font-size="10px" fill="#000" opacity="1">100</text><text text-anchor="middle" transform="translate(125,15)" font-family="sans-serif" font-size="10px" fill="#000" opacity="1">150</text><text text-anchor="middle" transform="translate(166.66666666666669,15)" font-family="sans-serif" font-size="10px" fill="#000" opacity="1">200</text></g><g class="mark-rule role-axis-domain" pointer-events="none"><line transform="translate(0,0)" x2="200" y2="0" stroke="#888" stroke-width="1" opacity="1"/></g><g class="mark-text role-axis-title" pointer-events="none"><text text-anchor="middle" transform="translate(100,30)" font-family="sans-serif" font-size="11px" font-weight="bold" fill="#000" opacity="1">mean execution time in µs</text></g></g><path class="foreground" aria-hidden="true" d="" pointer-events="none" display="none"/></g></g><g class="mark-group role-axis" role="graphics-symbol" aria-roledescription="axis" aria-label="Y-axis titled 'algorithm' for a discrete scale with 18 values: (wilczek) AVX NoAlign Outer-Loop Vectorization, (wilczek) AVX NoAlign Outer- and Inner-Loop Vectorization, (wilczek) AVX NoAlign Inner-Loop Vectorization, inputPerKernelValue Transposed, kernelPerInputValue Transposed, ending with inputPerKernelValue Transposed LoopFissionIndexArithmetic"><g transform="translate(0.5,0.5)"><path class="background" aria-hidden="true" d="M0,0h0v0h0Z" pointer-events="none"/><g><g class="mark-rule role-axis-tick" pointer-events="none"><line transform="translate(0,10)" x2="-5" y2="0" stroke="#888" stroke-width="1" opacity="1"/><line transform="translate(0,30)" x2="-5" y2="0" stroke="#888" stroke-width="1" opacity="1"/><line transform="translate(0,50)" x2="-5" y2="0" stroke="#888" stroke-width="1" opacity="1"/><line transform="translate(0,70)" x2="-5" y2="0" stroke="#888" stroke-width="1" opacity="1"/><line transform="translate(0,90)" x2="-5" y2="0" stroke="#888" stroke-width="1" opacity="1"/><line transform="translate(0,110)" x2="-5" y2="0" stroke="#888" stroke-width="1" opacity="1"/><line transform="translate(0,130)" x2="-5" y2="0" stroke="#888" stroke-width="1" opacity="1"/><line transform="translate(0,150)" x2="-5" y2="0" stroke="#888" stroke-width="1" opacity="1"/><line transform="translate(0,170)" x2="-5" y2="0" stroke="#888" stroke-width="1" opacity="1"/><line transform="translate(0,190)" x2="-5" y2="0" stroke="#888" stroke-width="1" opacity="1"/><line transform="translate(0,210)" x2="-5" y2="0" stroke="#888" stroke-width="1" opacity="1"/><line transform="translate(0,230)" x2="-5" y2="0" stroke="#888" stroke-width="1" opacity="1"/><line transform="translate(0,250)" x2="-5" y2="0" stroke="#888" stroke-width="1" opacity="1"/><line transform="translate(0,270)" x2="-5" y2="0" stroke="#888" stroke-width="1" opacity="1"/><line transform="translate(0,290)" x2="-5" y2="0" stroke="#888" stroke-width="1" opacity="1"/><line transform="translate(0,310)" x2="-5" y2="0" stroke="#888" stroke-width="1" opacity="1"/><line transform="translate(0,330)" x2="-5" y2="0" stroke="#888" stroke-width="1" opacity="1"/><line transform="translate(0,350)" x2="-5" y2="0" stroke="#888" stroke-width="1" opacity="1"/></g><g class="mark-text role-axis-label" pointer-events="none"><text text-anchor="end" transform="translate(-7,12.5)" font-family="sans-serif" font-size="10px" fill="#000" opacity="1">(wilczek) AVX NoAlign Outer-Loop Vectorization</text><text text-anchor="end" transform="translate(-7,32.5)" font-family="sans-serif" font-size="10px" fill="#000" opacity="1">(wilczek) AVX NoAlign Outer- and Inner-Loop Vectorization</text><text text-anchor="end" transform="translate(-7,52.5)" font-family="sans-serif" font-size="10px" fill="#000" opacity="1">(wilczek) AVX NoAlign Inner-Loop Vectorization</text><text text-anchor="end" transform="translate(-7,72.5)" font-family="sans-serif" font-size="10px" fill="#000" opacity="1">inputPerKernelValue Transposed</text><text text-anchor="end" transform="translate(-7,92.5)" font-family="sans-serif" font-size="10px" fill="#000" opacity="1">kernelPerInputValue Transposed</text><text text-anchor="end" transform="translate(-7,112.5)" font-family="sans-serif" font-size="10px" fill="#000" opacity="1">(wilczek) Outer-Loop Vectorization</text><text text-anchor="end" transform="translate(-7,132.5)" font-family="sans-serif" font-size="10px" fill="#000" opacity="1">(chaowang15) convolve1D</text><text text-anchor="end" transform="translate(-7,152.5)" font-family="sans-serif" font-size="10px" fill="#000" opacity="1">(wilczek) Outer- and Inner-Loop Vectorization</text><text text-anchor="end" transform="translate(-7,172.5)" font-family="sans-serif" font-size="10px" fill="#000" opacity="1">(wilczek) Inner-Loop Vectorization</text><text text-anchor="end" transform="translate(-7,192.5)" font-family="sans-serif" font-size="10px" fill="#000" opacity="1">inputPerKernelValue Transposed OuterLoopUnrolled</text><text text-anchor="end" transform="translate(-7,212.5)" font-family="sans-serif" font-size="10px" fill="#000" opacity="1">inputPerKernelValue Transposed InnerAndOuterLoopUnrolled</text><text text-anchor="end" transform="translate(-7,232.5)" font-family="sans-serif" font-size="10px" fill="#000" opacity="1">(matlab-like) conv 'valid' shape pre padded</text><text text-anchor="end" transform="translate(-7,252.5)" font-family="sans-serif" font-size="10px" fill="#000" opacity="1">(matlab-like) conv 'full' shape</text><text text-anchor="end" transform="translate(-7,272.5)" font-family="sans-serif" font-size="10px" fill="#000" opacity="1">(wilczek) Single</text><text text-anchor="end" transform="translate(-7,292.5)" font-family="sans-serif" font-size="10px" fill="#000" opacity="1">inputPerKernelValue Transposed InnerLoopUnrolled</text><text text-anchor="end" transform="translate(-7,312.5)" font-family="sans-serif" font-size="10px" fill="#000" opacity="1">inputPerKernelValue Transposed LoopFission</text><text text-anchor="end" transform="translate(-7,332.5)" font-family="sans-serif" font-size="10px" fill="#000" opacity="1">kernelPerInputValue Transposed LoopFission</text><text text-anchor="end" transform="translate(-7,352.5)" font-family="sans-serif" font-size="10px" fill="#000" opacity="1">inputPerKernelValue Transposed LoopFissionIndexArithmetic</text></g><g class="mark-rule role-axis-domain" pointer-events="none"><line transform="translate(0,0)" x2="0" y2="360" stroke="#888" stroke-width="1" opacity="1"/></g><g class="mark-text role-axis-title" pointer-events="none"><text text-anchor="middle" transform="translate(-320,180) rotate(-90) translate(0,-2)" font-family="sans-serif" font-size="11px" font-weight="bold" fill="#000" opacity="1">algorithm</text></g></g><path class="foreground" aria-hidden="true" d="" pointer-events="none" display="none"/></g></g><g class="mark-rect role-mark child_layer_0_marks" role="graphics-object" aria-roledescription="rect mark container"><path aria-label="mean execution time in µs: 91; algorithm: kernelPerInputValue Transposed" role="graphics-symbol" aria-roledescription="bar" d="M0,81.9L71.83333333333333,81.9C74.04099343130933,81.9,75.83333333333333,83.692339902024,75.83333333333333,85.9L75.83333333333333,94.10000000000001C75.83333333333333,96.30766009797601,74.04099343130933,98.10000000000001,71.83333333333333,98.10000000000001L0,98.10000000000001C0,98.10000000000001,0,98.10000000000001,0,98.10000000000001L0,81.9C0,81.9,0,81.9,0,81.9Z" fill="#4c78a8"/><path aria-label="mean execution time in µs: 51; algorithm: inputPerKernelValue Transposed" role="graphics-symbol" aria-roledescription="bar" d="M0,61.9L38.5,61.9C40.707660097976,61.9,42.5,63.692339902023996,42.5,65.9L42.5,74.1C42.5,76.307660097976,40.707660097976,78.1,38.5,78.1L0,78.1C0,78.1,0,78.1,0,78.1L0,61.9C0,61.9,0,61.9,0,61.9Z" fill="#4c78a8"/><path aria-label="mean execution time in µs: 155; algorithm: inputPerKernelValue Transposed InnerLoopUnrolled" role="graphics-symbol" aria-roledescription="bar" d="M0,281.9L125.16666666666669,281.9C127.37432676464269,281.9,129.16666666666669,283.692339902024,129.16666666666669,285.9L129.16666666666669,294.09999999999997C129.16666666666669,296.30766009797594,127.37432676464269,298.09999999999997,125.16666666666669,298.09999999999997L0,298.09999999999997C0,298.09999999999997,0,298.09999999999997,0,298.09999999999997L0,281.9C0,281.9,0,281.9,0,281.9Z" fill="#4c78a8"/><path aria-label="mean execution time in µs: 123; algorithm: inputPerKernelValue Transposed OuterLoopUnrolled" role="graphics-symbol" aria-roledescription="bar" d="M0,181.9L98.49999999999999,181.9C100.70766009797599,181.9,102.49999999999999,183.692339902024,102.49999999999999,185.9L102.49999999999999,194.1C102.49999999999999,196.307660097976,100.70766009797599,198.1,98.49999999999999,198.1L0,198.1C0,198.1,0,198.1,0,198.1L0,181.9C0,181.9,0,181.9,0,181.9Z" fill="#4c78a8"/><path aria-label="mean execution time in µs: 126; algorithm: inputPerKernelValue Transposed InnerAndOuterLoopUnrolled" role="graphics-symbol" aria-roledescription="bar" d="M0,201.9L101,201.9C103.207660097976,201.9,105,203.692339902024,105,205.9L105,214.1C105,216.307660097976,103.207660097976,218.1,101,218.1L0,218.1C0,218.1,0,218.1,0,218.1L0,201.9C0,201.9,0,201.9,0,201.9Z" fill="#4c78a8"/><path aria-label="mean execution time in µs: 163; algorithm: inputPerKernelValue Transposed LoopFission" role="graphics-symbol" aria-roledescription="bar" d="M0,301.9L131.83333333333334,301.9C134.04099343130935,301.9,135.83333333333334,303.692339902024,135.83333333333334,305.9L135.83333333333334,314.09999999999997C135.83333333333334,316.30766009797594,134.04099343130935,318.09999999999997,131.83333333333334,318.09999999999997L0,318.09999999999997C0,318.09999999999997,0,318.09999999999997,0,318.09999999999997L0,301.9C0,301.9,0,301.9,0,301.9Z" fill="#4c78a8"/><path aria-label="mean execution time in µs: 240; algorithm: inputPerKernelValue Transposed LoopFissionIndexArithmetic" role="graphics-symbol" aria-roledescription="bar" d="M0,341.9L196,341.9C198.207660097976,341.9,200,343.692339902024,200,345.9L200,354.09999999999997C200,356.30766009797594,198.207660097976,358.09999999999997,196,358.09999999999997L0,358.09999999999997C0,358.09999999999997,0,358.09999999999997,0,358.09999999999997L0,341.9C0,341.9,0,341.9,0,341.9Z" fill="#4c78a8"/><path aria-label="mean execution time in µs: 202; algorithm: kernelPerInputValue Transposed LoopFission" role="graphics-symbol" aria-roledescription="bar" d="M0,321.9L164.33333333333334,321.9C166.54099343130935,321.9,168.33333333333334,323.692339902024,168.33333333333334,325.9L168.33333333333334,334.09999999999997C168.33333333333334,336.30766009797594,166.54099343130935,338.09999999999997,164.33333333333334,338.09999999999997L0,338.09999999999997C0,338.09999999999997,0,338.09999999999997,0,338.09999999999997L0,321.9C0,321.9,0,321.9,0,321.9Z" fill="#4c78a8"/><path aria-label="mean execution time in µs: 131; algorithm: (matlab-like) conv 'full' shape" role="graphics-symbol" aria-roledescription="bar" d="M0,241.9L105.16666666666666,241.9C107.37432676464266,241.9,109.16666666666666,243.692339902024,109.16666666666666,245.9L109.16666666666666,254.10000000000002C109.16666666666666,256.307660097976,107.37432676464266,258.1,105.16666666666666,258.1L0,258.1C0,258.1,0,258.1,0,258.1L0,241.9C0,241.9,0,241.9,0,241.9Z" fill="#4c78a8"/><path aria-label="mean execution time in µs: 126; algorithm: (matlab-like) conv 'valid' shape pre padded" role="graphics-symbol" aria-roledescription="bar" d="M0,221.9L101,221.9C103.207660097976,221.9,105,223.692339902024,105,225.9L105,234.1C105,236.307660097976,103.207660097976,238.1,101,238.1L0,238.1C0,238.1,0,238.1,0,238.1L0,221.9C0,221.9,0,221.9,0,221.9Z" fill="#4c78a8"/><path aria-label="mean execution time in µs: 138; algorithm: (wilczek) Single" role="graphics-symbol" aria-roledescription="bar" d="M0,261.9L110.99999999999999,261.9C113.20766009797599,261.9,114.99999999999999,263.692339902024,114.99999999999999,265.9L114.99999999999999,274.09999999999997C114.99999999999999,276.30766009797594,113.20766009797599,278.09999999999997,110.99999999999999,278.09999999999997L0,278.09999999999997C0,278.09999999999997,0,278.09999999999997,0,278.09999999999997L0,261.9C0,261.9,0,261.9,0,261.9Z" fill="#4c78a8"/><path aria-label="mean execution time in µs: 118; algorithm: (wilczek) Inner-Loop Vectorization" role="graphics-symbol" aria-roledescription="bar" d="M0,161.9L94.33333333333333,161.9C96.54099343130933,161.9,98.33333333333333,163.692339902024,98.33333333333333,165.9L98.33333333333333,174.1C98.33333333333333,176.307660097976,96.54099343130933,178.1,94.33333333333333,178.1L0,178.1C0,178.1,0,178.1,0,178.1L0,161.9C0,161.9,0,161.9,0,161.9Z" fill="#4c78a8"/><path aria-label="mean execution time in µs: 102; algorithm: (wilczek) Outer-Loop Vectorization" role="graphics-symbol" aria-roledescription="bar" d="M0,101.9L81,101.9C83.207660097976,101.9,85,103.692339902024,85,105.9L85,114.10000000000001C85,116.30766009797601,83.207660097976,118.10000000000001,81,118.10000000000001L0,118.10000000000001C0,118.10000000000001,0,118.10000000000001,0,118.10000000000001L0,101.9C0,101.9,0,101.9,0,101.9Z" fill="#4c78a8"/><path aria-label="mean execution time in µs: 115; algorithm: (wilczek) Outer- and Inner-Loop Vectorization" role="graphics-symbol" aria-roledescription="bar" d="M0,141.9L91.83333333333334,141.9C94.04099343130935,141.9,95.83333333333334,143.692339902024,95.83333333333334,145.9L95.83333333333334,154.1C95.83333333333334,156.307660097976,94.04099343130935,158.1,91.83333333333334,158.1L0,158.1C0,158.1,0,158.1,0,158.1L0,141.9C0,141.9,0,141.9,0,141.9Z" fill="#4c78a8"/><path aria-label="mean execution time in µs: 40; algorithm: (wilczek) AVX NoAlign Inner-Loop Vectorization" role="graphics-symbol" aria-roledescription="bar" d="M0,41.9L29.33333333333333,41.9C31.540993431309328,41.9,33.33333333333333,43.692339902023996,33.33333333333333,45.9L33.33333333333333,54.099999999999994C33.33333333333333,56.307660097976,31.540993431309328,58.099999999999994,29.33333333333333,58.099999999999994L0,58.099999999999994C0,58.099999999999994,0,58.099999999999994,0,58.099999999999994L0,41.9C0,41.9,0,41.9,0,41.9Z" fill="#4c78a8"/><path aria-label="mean execution time in µs: 19; algorithm: (wilczek) AVX NoAlign Outer-Loop Vectorization" role="graphics-symbol" aria-roledescription="bar" d="M0,1.9L11.833333333333332,1.9C14.040993431309332,1.9,15.833333333333332,3.692339902024,15.833333333333332,5.9L15.833333333333332,14.099999999999998C15.833333333333332,16.307660097975997,14.040993431309332,18.099999999999998,11.833333333333332,18.099999999999998L0,18.099999999999998C0,18.099999999999998,0,18.099999999999998,0,18.099999999999998L0,1.9C0,1.9,0,1.9,0,1.9Z" fill="#4c78a8"/><path aria-label="mean execution time in µs: 31; algorithm: (wilczek) AVX NoAlign Outer- and Inner-Loop Vectorization" role="graphics-symbol" aria-roledescription="bar" d="M0,21.9L21.833333333333336,21.9C24.040993431309335,21.9,25.833333333333336,23.692339902024,25.833333333333336,25.9L25.833333333333336,34.099999999999994C25.833333333333336,36.307660097976,24.040993431309335,38.099999999999994,21.833333333333336,38.099999999999994L0,38.099999999999994C0,38.099999999999994,0,38.099999999999994,0,38.099999999999994L0,21.9C0,21.9,0,21.9,0,21.9Z" fill="#4c78a8"/><path aria-label="mean execution time in µs: 109; algorithm: (chaowang15) convolve1D" role="graphics-symbol" aria-roledescription="bar" d="M0,121.9L86.83333333333333,121.9C89.04099343130933,121.9,90.83333333333333,123.692339902024,90.83333333333333,125.9L90.83333333333333,134.1C90.83333333333333,136.307660097976,89.04099343130933,138.1,86.83333333333333,138.1L0,138.1C0,138.1,0,138.1,0,138.1L0,121.9C0,121.9,0,121.9,0,121.9Z" fill="#4c78a8"/></g><g class="mark-text role-mark child_layer_1_marks" role="graphics-object" aria-roledescription="text mark container"><text aria-label="mean execution time in µs: 91; algorithm: kernelPerInputValue Transposed; MeanExecutionTime: 91" role="graphics-symbol" aria-roledescription="text mark" text-anchor="start" transform="translate(79.83333333333333,93)" font-family="sans-serif" font-size="9px" fill="black">91</text><text aria-label="mean execution time in µs: 51; algorithm: inputPerKernelValue Transposed; MeanExecutionTime: 51" role="graphics-symbol" aria-roledescription="text mark" text-anchor="start" transform="translate(46.5,73)" font-family="sans-serif" font-size="9px" fill="black">51</text><text aria-label="mean execution time in µs: 155; algorithm: inputPerKernelValue Transposed InnerLoopUnrolled; MeanExecutionTime: 155" role="graphics-symbol" aria-roledescription="text mark" text-anchor="start" transform="translate(133.16666666666669,293)" font-family="sans-serif" font-size="9px" fill="black">155</text><text aria-label="mean execution time in µs: 123; algorithm: inputPerKernelValue Transposed OuterLoopUnrolled; MeanExecutionTime: 123" role="graphics-symbol" aria-roledescription="text mark" text-anchor="start" transform="translate(106.49999999999999,193)" font-family="sans-serif" font-size="9px" fill="black">123</text><text aria-label="mean execution time in µs: 126; algorithm: inputPerKernelValue Transposed InnerAndOuterLoopUnrolled; MeanExecutionTime: 126" role="graphics-symbol" aria-roledescription="text mark" text-anchor="start" transform="translate(109,213)" font-family="sans-serif" font-size="9px" fill="black">126</text><text aria-label="mean execution time in µs: 163; algorithm: inputPerKernelValue Transposed LoopFission; MeanExecutionTime: 163" role="graphics-symbol" aria-roledescription="text mark" text-anchor="start" transform="translate(139.83333333333334,313)" font-family="sans-serif" font-size="9px" fill="black">163</text><text aria-label="mean execution time in µs: 240; algorithm: inputPerKernelValue Transposed LoopFissionIndexArithmetic; MeanExecutionTime: 240" role="graphics-symbol" aria-roledescription="text mark" text-anchor="start" transform="translate(204,353)" font-family="sans-serif" font-size="9px" fill="black">240</text><text aria-label="mean execution time in µs: 202; algorithm: kernelPerInputValue Transposed LoopFission; MeanExecutionTime: 202" role="graphics-symbol" aria-roledescription="text mark" text-anchor="start" transform="translate(172.33333333333334,333)" font-family="sans-serif" font-size="9px" fill="black">202</text><text aria-label="mean execution time in µs: 131; algorithm: (matlab-like) conv 'full' shape; MeanExecutionTime: 131" role="graphics-symbol" aria-roledescription="text mark" text-anchor="start" transform="translate(113.16666666666666,253)" font-family="sans-serif" font-size="9px" fill="black">131</text><text aria-label="mean execution time in µs: 126; algorithm: (matlab-like) conv 'valid' shape pre padded; MeanExecutionTime: 126" role="graphics-symbol" aria-roledescription="text mark" text-anchor="start" transform="translate(109,233)" font-family="sans-serif" font-size="9px" fill="black">126</text><text aria-label="mean execution time in µs: 138; algorithm: (wilczek) Single; MeanExecutionTime: 138" role="graphics-symbol" aria-roledescription="text mark" text-anchor="start" transform="translate(118.99999999999999,273)" font-family="sans-serif" font-size="9px" fill="black">138</text><text aria-label="mean execution time in µs: 118; algorithm: (wilczek) Inner-Loop Vectorization; MeanExecutionTime: 118" role="graphics-symbol" aria-roledescription="text mark" text-anchor="start" transform="translate(102.33333333333333,173)" font-family="sans-serif" font-size="9px" fill="black">118</text><text aria-label="mean execution time in µs: 102; algorithm: (wilczek) Outer-Loop Vectorization; MeanExecutionTime: 102" role="graphics-symbol" aria-roledescription="text mark" text-anchor="start" transform="translate(89,113)" font-family="sans-serif" font-size="9px" fill="black">102</text><text aria-label="mean execution time in µs: 115; algorithm: (wilczek) Outer- and Inner-Loop Vectorization; MeanExecutionTime: 115" role="graphics-symbol" aria-roledescription="text mark" text-anchor="start" transform="translate(99.83333333333334,153)" font-family="sans-serif" font-size="9px" fill="black">115</text><text aria-label="mean execution time in µs: 40; algorithm: (wilczek) AVX NoAlign Inner-Loop Vectorization; MeanExecutionTime: 40" role="graphics-symbol" aria-roledescription="text mark" text-anchor="start" transform="translate(37.33333333333333,53)" font-family="sans-serif" font-size="9px" fill="black">40</text><text aria-label="mean execution time in µs: 19; algorithm: (wilczek) AVX NoAlign Outer-Loop Vectorization; MeanExecutionTime: 19" role="graphics-symbol" aria-roledescription="text mark" text-anchor="start" transform="translate(19.833333333333332,13)" font-family="sans-serif" font-size="9px" fill="black">19</text><text aria-label="mean execution time in µs: 31; algorithm: (wilczek) AVX NoAlign Outer- and Inner-Loop Vectorization; MeanExecutionTime: 31" role="graphics-symbol" aria-roledescription="text mark" text-anchor="start" transform="translate(29.833333333333336,33)" font-family="sans-serif" font-size="9px" fill="black">31</text><text aria-label="mean execution time in µs: 109; algorithm: (chaowang15) convolve1D; MeanExecutionTime: 109" role="graphics-symbol" aria-roledescription="text mark" text-anchor="start" transform="translate(94.83333333333333,133)" font-family="sans-serif" font-size="9px" fill="black">109</text></g></g><path class="foreground" aria-hidden="true" d="" display="none"/></g><g transform="translate(575,0)"><path class="background" aria-hidden="true" d="M0.5,0.5h200v360h-200Z" stroke="#ddd"/><g><g class="mark-group role-axis" aria-hidden="true"><g transform="translate(0.5,360.5)"><path class="background" aria-hidden="true" d="M0,0h0v0h0Z" pointer-events="none"/><g><g class="mark-rule role-axis-grid" pointer-events="none"><line transform="translate(0,0)" x2="0" y2="-360" stroke="#ddd" stroke-width="1" opacity="1"/><line transform="translate(63,0)" x2="0" y2="-360" stroke="#ddd" stroke-width="1" opacity="1"/><line transform="translate(125,0)" x2="0" y2="-360" stroke="#ddd" stroke-width="1" opacity="1"/><line transform="translate(188,0)" x2="0" y2="-360" stroke="#ddd" stroke-width="1" opacity="1"/></g></g><path class="foreground" aria-hidden="true" d="" pointer-events="none" display="none"/></g></g><g class="mark-group role-axis" role="graphics-symbol" aria-roledescription="axis" aria-label="X-axis titled 'mean execution time in µs' for a linear scale with values from 0 to 16,000"><g transform="translate(0.5,360.5)"><path class="background" aria-hidden="true" d="M0,0h0v0h0Z" pointer-events="none"/><g><g class="mark-rule role-axis-tick" pointer-events="none"><line transform="translate(0,0)" x2="0" y2="5" stroke="#888" stroke-width="1" opacity="1"/><line transform="translate(63,0)" x2="0" y2="5" stroke="#888" stroke-width="1" opacity="1"/><line transform="translate(125,0)" x2="0" y2="5" stroke="#888" stroke-width="1" opacity="1"/><line transform="translate(188,0)" x2="0" y2="5" stroke="#888" stroke-width="1" opacity="1"/></g><g class="mark-text role-axis-label" pointer-events="none"><text text-anchor="start" transform="translate(0,15)" font-family="sans-serif" font-size="10px" fill="#000" opacity="1">0</text><text text-anchor="middle" transform="translate(62.5,15)" font-family="sans-serif" font-size="10px" fill="#000" opacity="1">5,000</text><text text-anchor="middle" transform="translate(125,15)" font-family="sans-serif" font-size="10px" fill="#000" opacity="1">10,000</text><text text-anchor="middle" transform="translate(187.5,15)" font-family="sans-serif" font-size="10px" fill="#000" opacity="1">15,000</text></g><g class="mark-rule role-axis-domain" pointer-events="none"><line transform="translate(0,0)" x2="200" y2="0" stroke="#888" stroke-width="1" opacity="1"/></g><g class="mark-text role-axis-title" pointer-events="none"><text text-anchor="middle" transform="translate(100,30)" font-family="sans-serif" font-size="11px" font-weight="bold" fill="#000" opacity="1">mean execution time in µs</text></g></g><path class="foreground" aria-hidden="true" d="" pointer-events="none" display="none"/></g></g><g class="mark-group role-axis" role="graphics-symbol" aria-roledescription="axis" aria-label="Y-axis titled 'algorithm' for a discrete scale with 18 values: (wilczek) AVX NoAlign Outer- and Inner-Loop Vectorization, (wilczek) AVX NoAlign Inner-Loop Vectorization, (wilczek) AVX NoAlign Outer-Loop Vectorization, kernelPerInputValue Transposed, inputPerKernelValue Transposed, ending with (wilczek) Single"><g transform="translate(0.5,0.5)"><path class="background" aria-hidden="true" d="M0,0h0v0h0Z" pointer-events="none"/><g><g class="mark-rule role-axis-tick" pointer-events="none"><line transform="translate(0,10)" x2="-5" y2="0" stroke="#888" stroke-width="1" opacity="1"/><line transform="translate(0,30)" x2="-5" y2="0" stroke="#888" stroke-width="1" opacity="1"/><line transform="translate(0,50)" x2="-5" y2="0" stroke="#888" stroke-width="1" opacity="1"/><line transform="translate(0,70)" x2="-5" y2="0" stroke="#888" stroke-width="1" opacity="1"/><line transform="translate(0,90)" x2="-5" y2="0" stroke="#888" stroke-width="1" opacity="1"/><line transform="translate(0,110)" x2="-5" y2="0" stroke="#888" stroke-width="1" opacity="1"/><line transform="translate(0,130)" x2="-5" y2="0" stroke="#888" stroke-width="1" opacity="1"/><line transform="translate(0,150)" x2="-5" y2="0" stroke="#888" stroke-width="1" opacity="1"/><line transform="translate(0,170)" x2="-5" y2="0" stroke="#888" stroke-width="1" opacity="1"/><line transform="translate(0,190)" x2="-5" y2="0" stroke="#888" stroke-width="1" opacity="1"/><line transform="translate(0,210)" x2="-5" y2="0" stroke="#888" stroke-width="1" opacity="1"/><line transform="translate(0,230)" x2="-5" y2="0" stroke="#888" stroke-width="1" opacity="1"/><line transform="translate(0,250)" x2="-5" y2="0" stroke="#888" stroke-width="1" opacity="1"/><line transform="translate(0,270)" x2="-5" y2="0" stroke="#888" stroke-width="1" opacity="1"/><line transform="translate(0,290)" x2="-5" y2="0" stroke="#888" stroke-width="1" opacity="1"/><line transform="translate(0,310)" x2="-5" y2="0" stroke="#888" stroke-width="1" opacity="1"/><line transform="translate(0,330)" x2="-5" y2="0" stroke="#888" stroke-width="1" opacity="1"/><line transform="translate(0,350)" x2="-5" y2="0" stroke="#888" stroke-width="1" opacity="1"/></g><g class="mark-text role-axis-label" pointer-events="none"><text text-anchor="end" transform="translate(-7,12.5)" font-family="sans-serif" font-size="10px" fill="#000" opacity="1">(wilczek) AVX NoAlign Outer- and Inner-Loop Vectorization</text><text text-anchor="end" transform="translate(-7,32.5)" font-family="sans-serif" font-size="10px" fill="#000" opacity="1">(wilczek) AVX NoAlign Inner-Loop Vectorization</text><text text-anchor="end" transform="translate(-7,52.5)" font-family="sans-serif" font-size="10px" fill="#000" opacity="1">(wilczek) AVX NoAlign Outer-Loop Vectorization</text><text text-anchor="end" transform="translate(-7,72.5)" font-family="sans-serif" font-size="10px" fill="#000" opacity="1">kernelPerInputValue Transposed</text><text text-anchor="end" transform="translate(-7,92.5)" font-family="sans-serif" font-size="10px" fill="#000" opacity="1">inputPerKernelValue Transposed</text><text text-anchor="end" transform="translate(-7,112.5)" font-family="sans-serif" font-size="10px" fill="#000" opacity="1">(wilczek) Outer-Loop Vectorization</text><text text-anchor="end" transform="translate(-7,132.5)" font-family="sans-serif" font-size="10px" fill="#000" opacity="1">inputPerKernelValue Transposed OuterLoopUnrolled</text><text text-anchor="end" transform="translate(-7,152.5)" font-family="sans-serif" font-size="10px" fill="#000" opacity="1">(wilczek) Outer- and Inner-Loop Vectorization</text><text text-anchor="end" transform="translate(-7,172.5)" font-family="sans-serif" font-size="10px" fill="#000" opacity="1">(wilczek) Inner-Loop Vectorization</text><text text-anchor="end" transform="translate(-7,192.5)" font-family="sans-serif" font-size="10px" fill="#000" opacity="1">inputPerKernelValue Transposed InnerAndOuterLoopUnrolled</text><text text-anchor="end" transform="translate(-7,212.5)" font-family="sans-serif" font-size="10px" fill="#000" opacity="1">kernelPerInputValue Transposed LoopFission</text><text text-anchor="end" transform="translate(-7,232.5)" font-family="sans-serif" font-size="10px" fill="#000" opacity="1">inputPerKernelValue Transposed InnerLoopUnrolled</text><text text-anchor="end" transform="translate(-7,252.5)" font-family="sans-serif" font-size="10px" fill="#000" opacity="1">inputPerKernelValue Transposed LoopFission</text><text text-anchor="end" transform="translate(-7,272.5)" font-family="sans-serif" font-size="10px" fill="#000" opacity="1">(matlab-like) conv 'full' shape</text><text text-anchor="end" transform="translate(-7,292.5)" font-family="sans-serif" font-size="10px" fill="#000" opacity="1">(chaowang15) convolve1D</text><text text-anchor="end" transform="translate(-7,312.5)" font-family="sans-serif" font-size="10px" fill="#000" opacity="1">(matlab-like) conv 'valid' shape pre padded</text><text text-anchor="end" transform="translate(-7,332.5)" font-family="sans-serif" font-size="10px" fill="#000" opacity="1">inputPerKernelValue Transposed LoopFissionIndexArithmetic</text><text text-anchor="end" transform="translate(-7,352.5)" font-family="sans-serif" font-size="10px" fill="#000" opacity="1">(wilczek) Single</text></g><g class="mark-rule role-axis-domain" pointer-events="none"><line transform="translate(0,0)" x2="0" y2="360" stroke="#888" stroke-width="1" opacity="1"/></g><g class="mark-text role-axis-title" pointer-events="none"><text text-anchor="middle" transform="translate(-320,180) rotate(-90) translate(0,-2)" font-family="sans-serif" font-size="11px" font-weight="bold" fill="#000" opacity="1">algorithm</text></g></g><path class="foreground" aria-hidden="true" d="" pointer-events="none" display="none"/></g></g><g class="mark-rect role-mark child_layer_0_marks" role="graphics-object" aria-roledescription="rect mark container"><path aria-label="mean execution time in µs: 1971; algorithm: kernelPerInputValue Transposed" role="graphics-symbol" aria-roledescription="bar" d="M0,61.9L20.637500000000003,61.9C22.845160097976002,61.9,24.637500000000003,63.692339902023996,24.637500000000003,65.9L24.637500000000003,74.1C24.637500000000003,76.307660097976,22.845160097976002,78.1,20.637500000000003,78.1L0,78.1C0,78.1,0,78.1,0,78.1L0,61.9C0,61.9,0,61.9,0,61.9Z" fill="#4c78a8"/><path aria-label="mean execution time in µs: 2309; algorithm: inputPerKernelValue Transposed" role="graphics-symbol" aria-roledescription="bar" d="M0,81.9L24.8625,81.9C27.070160097976,81.9,28.8625,83.692339902024,28.8625,85.9L28.8625,94.10000000000001C28.8625,96.30766009797601,27.070160097976,98.10000000000001,24.8625,98.10000000000001L0,98.10000000000001C0,98.10000000000001,0,98.10000000000001,0,98.10000000000001L0,81.9C0,81.9,0,81.9,0,81.9Z" fill="#4c78a8"/><path aria-label="mean execution time in µs: 9713; algorithm: inputPerKernelValue Transposed InnerLoopUnrolled" role="graphics-symbol" aria-roledescription="bar" d="M0,221.9L117.4125,221.9C119.620160097976,221.9,121.4125,223.692339902024,121.4125,225.9L121.4125,234.1C121.4125,236.307660097976,119.620160097976,238.1,117.4125,238.1L0,238.1C0,238.1,0,238.1,0,238.1L0,221.9C0,221.9,0,221.9,0,221.9Z" fill="#4c78a8"/><path aria-label="mean execution time in µs: 7304; algorithm: inputPerKernelValue Transposed OuterLoopUnrolled" role="graphics-symbol" aria-roledescription="bar" d="M0,121.9L87.3,121.9C89.507660097976,121.9,91.3,123.692339902024,91.3,125.9L91.3,134.1C91.3,136.307660097976,89.507660097976,138.1,87.3,138.1L0,138.1C0,138.1,0,138.1,0,138.1L0,121.9C0,121.9,0,121.9,0,121.9Z" fill="#4c78a8"/><path aria-label="mean execution time in µs: 7787; algorithm: inputPerKernelValue Transposed InnerAndOuterLoopUnrolled" role="graphics-symbol" aria-roledescription="bar" d="M0,181.9L93.3375,181.9C95.54516009797601,181.9,97.3375,183.692339902024,97.3375,185.9L97.3375,194.1C97.3375,196.307660097976,95.54516009797601,198.1,93.3375,198.1L0,198.1C0,198.1,0,198.1,0,198.1L0,181.9C0,181.9,0,181.9,0,181.9Z" fill="#4c78a8"/><path aria-label="mean execution time in µs: 10572; algorithm: inputPerKernelValue Transposed LoopFission" role="graphics-symbol" aria-roledescription="bar" d="M0,241.9L128.14999999999998,241.9C130.35766009797598,241.9,132.14999999999998,243.692339902024,132.14999999999998,245.9L132.14999999999998,254.10000000000002C132.14999999999998,256.307660097976,130.35766009797598,258.1,128.14999999999998,258.1L0,258.1C0,258.1,0,258.1,0,258.1L0,241.9C0,241.9,0,241.9,0,241.9Z" fill="#4c78a8"/><path aria-label="mean execution time in µs: 15437; algorithm: inputPerKernelValue Transposed LoopFissionIndexArithmetic" role="graphics-symbol" aria-roledescription="bar" d="M0,321.9L188.9625,321.9C191.170160097976,321.9,192.9625,323.692339902024,192.9625,325.9L192.9625,334.09999999999997C192.9625,336.30766009797594,191.170160097976,338.09999999999997,188.9625,338.09999999999997L0,338.09999999999997C0,338.09999999999997,0,338.09999999999997,0,338.09999999999997L0,321.9C0,321.9,0,321.9,0,321.9Z" fill="#4c78a8"/><path aria-label="mean execution time in µs: 8737; algorithm: kernelPerInputValue Transposed LoopFission" role="graphics-symbol" aria-roledescription="bar" d="M0,201.9L105.2125,201.9C107.42016009797601,201.9,109.2125,203.692339902024,109.2125,205.9L109.2125,214.1C109.2125,216.307660097976,107.42016009797601,218.1,105.2125,218.1L0,218.1C0,218.1,0,218.1,0,218.1L0,201.9C0,201.9,0,201.9,0,201.9Z" fill="#4c78a8"/><path aria-label="mean execution time in µs: 14651; algorithm: (matlab-like) conv 'full' shape" role="graphics-symbol" aria-roledescription="bar" d="M0,261.9L179.1375,261.9C181.345160097976,261.9,183.1375,263.692339902024,183.1375,265.9L183.1375,274.09999999999997C183.1375,276.30766009797594,181.345160097976,278.09999999999997,179.1375,278.09999999999997L0,278.09999999999997C0,278.09999999999997,0,278.09999999999997,0,278.09999999999997L0,261.9C0,261.9,0,261.9,0,261.9Z" fill="#4c78a8"/><path aria-label="mean execution time in µs: 15408; algorithm: (matlab-like) conv 'valid' shape pre padded" role="graphics-symbol" aria-roledescription="bar" d="M0,301.9L188.6,301.9C190.807660097976,301.9,192.6,303.692339902024,192.6,305.9L192.6,314.09999999999997C192.6,316.30766009797594,190.807660097976,318.09999999999997,188.6,318.09999999999997L0,318.09999999999997C0,318.09999999999997,0,318.09999999999997,0,318.09999999999997L0,301.9C0,301.9,0,301.9,0,301.9Z" fill="#4c78a8"/><path aria-label="mean execution time in µs: 15616; algorithm: (wilczek) Single" role="graphics-symbol" aria-roledescription="bar" d="M0,341.9L191.2,341.9C193.407660097976,341.9,195.2,343.692339902024,195.2,345.9L195.2,354.09999999999997C195.2,356.30766009797594,193.407660097976,358.09999999999997,191.2,358.09999999999997L0,358.09999999999997C0,358.09999999999997,0,358.09999999999997,0,358.09999999999997L0,341.9C0,341.9,0,341.9,0,341.9Z" fill="#4c78a8"/><path aria-label="mean execution time in µs: 7414; algorithm: (wilczek) Inner-Loop Vectorization" role="graphics-symbol" aria-roledescription="bar" d="M0,161.9L88.675,161.9C90.882660097976,161.9,92.675,163.692339902024,92.675,165.9L92.675,174.1C92.675,176.307660097976,90.882660097976,178.1,88.675,178.1L0,178.1C0,178.1,0,178.1,0,178.1L0,161.9C0,161.9,0,161.9,0,161.9Z" fill="#4c78a8"/><path aria-label="mean execution time in µs: 6425; algorithm: (wilczek) Outer-Loop Vectorization" role="graphics-symbol" aria-roledescription="bar" d="M0,101.9L76.3125,101.9C78.520160097976,101.9,80.3125,103.692339902024,80.3125,105.9L80.3125,114.10000000000001C80.3125,116.30766009797601,78.520160097976,118.10000000000001,76.3125,118.10000000000001L0,118.10000000000001C0,118.10000000000001,0,118.10000000000001,0,118.10000000000001L0,101.9C0,101.9,0,101.9,0,101.9Z" fill="#4c78a8"/><path aria-label="mean execution time in µs: 7314; algorithm: (wilczek) Outer- and Inner-Loop Vectorization" role="graphics-symbol" aria-roledescription="bar" d="M0,141.9L87.425,141.9C89.632660097976,141.9,91.425,143.692339902024,91.425,145.9L91.425,154.1C91.425,156.307660097976,89.632660097976,158.1,87.425,158.1L0,158.1C0,158.1,0,158.1,0,158.1L0,141.9C0,141.9,0,141.9,0,141.9Z" fill="#4c78a8"/><path aria-label="mean execution time in µs: 1777; algorithm: (wilczek) AVX NoAlign Inner-Loop Vectorization" role="graphics-symbol" aria-roledescription="bar" d="M0,21.9L18.2125,21.9C20.420160097975998,21.9,22.2125,23.692339902024,22.2125,25.9L22.2125,34.099999999999994C22.2125,36.307660097976,20.420160097975998,38.099999999999994,18.2125,38.099999999999994L0,38.099999999999994C0,38.099999999999994,0,38.099999999999994,0,38.099999999999994L0,21.9C0,21.9,0,21.9,0,21.9Z" fill="#4c78a8"/><path aria-label="mean execution time in µs: 1930; algorithm: (wilczek) AVX NoAlign Outer-Loop Vectorization" role="graphics-symbol" aria-roledescription="bar" d="M0,41.9L20.125,41.9C22.332660097976,41.9,24.125,43.692339902023996,24.125,45.9L24.125,54.099999999999994C24.125,56.307660097976,22.332660097976,58.099999999999994,20.125,58.099999999999994L0,58.099999999999994C0,58.099999999999994,0,58.099999999999994,0,58.099999999999994L0,41.9C0,41.9,0,41.9,0,41.9Z" fill="#4c78a8"/><path aria-label="mean execution time in µs: 594; algorithm: (wilczek) AVX NoAlign Outer- and Inner-Loop Vectorization" role="graphics-symbol" aria-roledescription="bar" d="M0,1.9L3.7125,1.9C5.761484528433975,1.9,7.425,3.563515471566025,7.425,5.6125L7.425,14.387499999999998C7.425,16.436484528433972,5.761484528433975,18.099999999999998,3.7125,18.099999999999998L0,18.099999999999998C0,18.099999999999998,0,18.099999999999998,0,18.099999999999998L0,1.9C0,1.9,0,1.9,0,1.9Z" fill="#4c78a8"/><path aria-label="mean execution time in µs: 14946; algorithm: (chaowang15) convolve1D" role="graphics-symbol" aria-roledescription="bar" d="M0,281.9L182.825,281.9C185.032660097976,281.9,186.825,283.692339902024,186.825,285.9L186.825,294.09999999999997C186.825,296.30766009797594,185.032660097976,298.09999999999997,182.825,298.09999999999997L0,298.09999999999997C0,298.09999999999997,0,298.09999999999997,0,298.09999999999997L0,281.9C0,281.9,0,281.9,0,281.9Z" fill="#4c78a8"/></g><g class="mark-text role-mark child_layer_1_marks" role="graphics-object" aria-roledescription="text mark container"><text aria-label="mean execution time in µs: 1971; algorithm: kernelPerInputValue Transposed; MeanExecutionTime: 1971" role="graphics-symbol" aria-roledescription="text mark" text-anchor="start" transform="translate(28.637500000000003,73)" font-family="sans-serif" font-size="9px" fill="black">1971</text><text aria-label="mean execution time in µs: 2309; algorithm: inputPerKernelValue Transposed; MeanExecutionTime: 2309" role="graphics-symbol" aria-roledescription="text mark" text-anchor="start" transform="translate(32.8625,93)" font-family="sans-serif" font-size="9px" fill="black">2309</text><text aria-label="mean execution time in µs: 9713; algorithm: inputPerKernelValue Transposed InnerLoopUnrolled; MeanExecutionTime: 9713" role="graphics-symbol" aria-roledescription="text mark" text-anchor="start" transform="translate(125.4125,233)" font-family="sans-serif" font-size="9px" fill="black">9713</text><text aria-label="mean execution time in µs: 7304; algorithm: inputPerKernelValue Transposed OuterLoopUnrolled; MeanExecutionTime: 7304" role="graphics-symbol" aria-roledescription="text mark" text-anchor="start" transform="translate(95.3,133)" font-family="sans-serif" font-size="9px" fill="black">7304</text><text aria-label="mean execution time in µs: 7787; algorithm: inputPerKernelValue Transposed InnerAndOuterLoopUnrolled; MeanExecutionTime: 7787" role="graphics-symbol" aria-roledescription="text mark" text-anchor="start" transform="translate(101.3375,193)" font-family="sans-serif" font-size="9px" fill="black">7787</text><text aria-label="mean execution time in µs: 10572; algorithm: inputPerKernelValue Transposed LoopFission; MeanExecutionTime: 10572" role="graphics-symbol" aria-roledescription="text mark" text-anchor="start" transform="translate(136.14999999999998,253)" font-family="sans-serif" font-size="9px" fill="black">10572</text><text aria-label="mean execution time in µs: 15437; algorithm: inputPerKernelValue Transposed LoopFissionIndexArithmetic; MeanExecutionTime: 15437" role="graphics-symbol" aria-roledescription="text mark" text-anchor="start" transform="translate(196.9625,333)" font-family="sans-serif" font-size="9px" fill="black">15437</text><text aria-label="mean execution time in µs: 8737; algorithm: kernelPerInputValue Transposed LoopFission; MeanExecutionTime: 8737" role="graphics-symbol" aria-roledescription="text mark" text-anchor="start" transform="translate(113.2125,213)" font-family="sans-serif" font-size="9px" fill="black">8737</text><text aria-label="mean execution time in µs: 14651; algorithm: (matlab-like) conv 'full' shape; MeanExecutionTime: 14651" role="graphics-symbol" aria-roledescription="text mark" text-anchor="start" transform="translate(187.1375,273)" font-family="sans-serif" font-size="9px" fill="black">14651</text><text aria-label="mean execution time in µs: 15408; algorithm: (matlab-like) conv 'valid' shape pre padded; MeanExecutionTime: 15408" role="graphics-symbol" aria-roledescription="text mark" text-anchor="start" transform="translate(196.6,313)" font-family="sans-serif" font-size="9px" fill="black">15408</text><text aria-label="mean execution time in µs: 15616; algorithm: (wilczek) Single; MeanExecutionTime: 15616" role="graphics-symbol" aria-roledescription="text mark" text-anchor="start" transform="translate(199.2,353)" font-family="sans-serif" font-size="9px" fill="black">15616</text><text aria-label="mean execution time in µs: 7414; algorithm: (wilczek) Inner-Loop Vectorization; MeanExecutionTime: 7414" role="graphics-symbol" aria-roledescription="text mark" text-anchor="start" transform="translate(96.675,173)" font-family="sans-serif" font-size="9px" fill="black">7414</text><text aria-label="mean execution time in µs: 6425; algorithm: (wilczek) Outer-Loop Vectorization; MeanExecutionTime: 6425" role="graphics-symbol" aria-roledescription="text mark" text-anchor="start" transform="translate(84.3125,113)" font-family="sans-serif" font-size="9px" fill="black">6425</text><text aria-label="mean execution time in µs: 7314; algorithm: (wilczek) Outer- and Inner-Loop Vectorization; MeanExecutionTime: 7314" role="graphics-symbol" aria-roledescription="text mark" text-anchor="start" transform="translate(95.425,153)" font-family="sans-serif" font-size="9px" fill="black">7314</text><text aria-label="mean execution time in µs: 1777; algorithm: (wilczek) AVX NoAlign Inner-Loop Vectorization; MeanExecutionTime: 1777" role="graphics-symbol" aria-roledescription="text mark" text-anchor="start" transform="translate(26.2125,33)" font-family="sans-serif" font-size="9px" fill="black">1777</text><text aria-label="mean execution time in µs: 1930; algorithm: (wilczek) AVX NoAlign Outer-Loop Vectorization; MeanExecutionTime: 1930" role="graphics-symbol" aria-roledescription="text mark" text-anchor="start" transform="translate(28.125,53)" font-family="sans-serif" font-size="9px" fill="black">1930</text><text aria-label="mean execution time in µs: 594; algorithm: (wilczek) AVX NoAlign Outer- and Inner-Loop Vectorization; MeanExecutionTime: 594" role="graphics-symbol" aria-roledescription="text mark" text-anchor="start" transform="translate(11.425,13)" font-family="sans-serif" font-size="9px" fill="black">594</text><text aria-label="mean execution time in µs: 14946; algorithm: (chaowang15) convolve1D; MeanExecutionTime: 14946" role="graphics-symbol" aria-roledescription="text mark" text-anchor="start" transform="translate(190.825,293)" font-family="sans-serif" font-size="9px" fill="black">14946</text></g></g><path class="foreground" aria-hidden="true" d="" display="none"/></g></g></g><path class="foreground" aria-hidden="true" d="" display="none"/></g></g></g></svg>