<svg xmlns="http://www.w3.org/2000/svg" xmlns:xlink="http://www.w3.org/1999/xlink" version="1.1" class="marks" width="1135" height="404" viewBox="0 0 1135 404"><rect width="1135" height="404" fill="white"/><g fill="none" stroke-miterlimit="10" transform="translate(337,66)"><g class="mark-group role-frame root" role="graphics-object" aria-roledescription="group mark container"><g transform="translate(0,0)"><path class="background" aria-hidden="true" d="M0,0h0v0h0Z"/><g><g class="mark-group role-column-title column-title" role="graphics-object" aria-roledescription="group mark container"><g transform="translate(230,-35)"><path class="background" aria-hidden="true" d="M0,0h0v0h0Z"/><g><g class="mark-group role-title"><g transform="translate(0,-26)"><path class="background" aria-hidden="true" d="M0,0h0v0h0Z" pointer-events="none"/><g><g class="mark-text role-title-text" role="graphics-symbol" aria-roledescription="title" aria-label="Title text 'Convolution Benchmarks'" pointer-events="none"><text text-anchor="middle" transform="translate(0,13)" font-family="sans-serif" font-size="16px" font-weight="bold" fill="#000" opacity="1">Convolution Benchmarks</text></g></g><path class="foreground" aria-hidden="true" d="" pointer-events="none" display="none"/></g></g></g><path class="foreground" aria-hidden="true" d="" display="none"/></g></g><g class="mark-group role-column-header column_header" role="graphics-object" aria-roledescription="group mark container"><g transform="translate(0,-1)"><path class="background" aria-hidden="true" d="M0,0h200v0h-200Z"/><g><g class="mark-group role-title"><g transform="translate(100,-24)"><path class="background" aria-hidden="true" d="M0,0h0v0h0Z" pointer-events="none"/><g><g class="mark-text role-title-text" role="graphics-symbol" aria-roledescription="title" aria-label="Title text 'kernel size 16'" pointer-events="none"><text text-anchor="middle" transform="translate(0,11)" font-family="sans-serif" font-size="14px" fill="#000" opacity="1">kernel size 16</text></g></g><path class="foreground" aria-hidden="true" d="" pointer-events="none" display="none"/></g></g></g><path class="foreground" aria-hidden="true" d="" display="none"/></g><g transform="translate(562,-1)"><path class="background" aria-hidden="true" d="M0,0h200v0h-200Z"/><g><g class="mark-group role-title"><g transform="translate(100,-24)"><path class="background" aria-hidden="true" d="M0,0h0v0h0Z" pointer-events="none"/><g><g class="mark-text role-title-text" role="graphics-symbol" aria-roledescription="title" aria-label="Title text 'kernel size 1024'" pointer-events="none"><text text-anchor="middle" transform="translate(0,11)" font-family="sans-serif" font-size="14px" fill="#000" opacity="1">kernel size 1024</text></g></g><path class="foreground" aria-hidden="true" d="" pointer-events="none" display="none"/></g></g></g><path class="foreground" aria-hidden="true" d="" display="none"/></g></g><g class="mark-group role-scope cell" role="graphics-object" aria-roledescription="group mark container"><g transform="translate(0,0)"><path class="background" aria-hidden="true" d="M0.5,0.5h200v300h-200Z" stroke="#ddd"/><g><g class="mark-group role-axis" aria-hidden="true"><g transform="translate(0.5,300.5)"><path class="background" aria-hidden="true" d="M0,0h0v0h0Z" pointer-events="none"/><g><g class="mark-rule role-axis-grid" pointer-events="none"><line transform="translate(0,0)" x2="0" y2="-300" stroke="#ddd" stroke-width="1" opacity="1"/><line transform="translate(38,0)" x2="0" y2="-300" stroke="#ddd" stroke-width="1" opacity="1"/><line transform="translate(77,0)" x2="0" y2="-300" stroke="#ddd" stroke-width="1" opacity="1"/><line transform="translate(115,0)" x2="0" y2="-300" stroke="#ddd" stroke-width="1" opacity="1"/><line transform="translate(154,0)" x2="0" y2="-300" stroke="#ddd" stroke-width="1" opacity="1"/><line transform="translate(192,0)" x2="0" y2="-300" stroke="#ddd" stroke-width="1" opacity="1"/></g></g><path class="foreground" aria-hidden="true" d="" pointer-events="none" display="none"/></g></g><g class="mark-group role-axis" role="graphics-symbol" aria-roledescription="axis" aria-label="X-axis titled 'mean execution time in µs' for a linear scale with values from 0 to 260"><g transform="translate(0.5,300.5)"><path class="background" aria-hidden="true" d="M0,0h0v0h0Z" pointer-events="none"/><g><g class="mark-rule role-axis-tick" pointer-events="none"><line transform="translate(0,0)" x2="0" y2="5" stroke="#888" stroke-width="1" opacity="1"/><line transform="translate(38,0)" x2="0" y2="5" stroke="#888" stroke-width="1" opacity="1"/><line transform="translate(77,0)" x2="0" y2="5" stroke="#888" stroke-width="1" opacity="1"/><line transform="translate(115,0)" x2="0" y2="5" stroke="#888" stroke-width="1" opacity="1"/><line transform="translate(154,0)" x2="0" y2="5" stroke="#888" stroke-width="1" opacity="1"/><line transform="translate(192,0)" x2="0" y2="5" stroke="#888" stroke-width="1" opacity="1"/></g><g class="mark-text role-axis-label" pointer-events="none"><text text-anchor="start" transform="translate(0,15)" font-family="sans-serif" font-size="10px" fill="#000" opacity="1">0</text><text text-anchor="middle" transform="translate(38.46153846153847,15)" font-family="sans-serif" font-size="10px" fill="#000" opacity="1">50</text><text text-anchor="middle" transform="translate(76.92307692307693,15)" font-family="sans-serif" font-size="10px" fill="#000" opacity="1">100</text><text text-anchor="middle" transform="translate(115.38461538461537,15)" font-family="sans-serif" font-size="10px" fill="#000" opacity="1">150</text><text text-anchor="middle" transform="translate(153.84615384615387,15)" font-family="sans-serif" font-size="10px" fill="#000" opacity="1">200</text><text text-anchor="middle" transform="translate(192.30769230769232,15)" font-family="sans-serif" font-size="10px" fill="#000" opacity="1">250</text></g><g class="mark-rule role-axis-domain" pointer-events="none"><line transform="translate(0,0)" x2="200" y2="0" stroke="#888" stroke-width="1" opacity="1"/></g><g class="mark-text role-axis-title" pointer-events="none"><text text-anchor="middle" transform="translate(100,30)" font-family="sans-serif" font-size="11px" font-weight="bold" fill="#000" opacity="1">mean execution time in µs</text></g></g><path class="foreground" aria-hidden="true" d="" pointer-events="none" display="none"/></g></g><g class="mark-group role-axis" role="graphics-symbol" aria-roledescription="axis" aria-label="Y-axis titled 'algorithm' for a discrete scale with 15 values: inputPerKernelValue Transposed, kernelPerInputValue Transposed, (wilczek) Inner-Loop Vectorization, (wilczek) Outer-Loop Vectorization, (wilczek) Outer- and Inner-Loop Vectorization, ending with inputPerKernelValue Transposed LoopFissionIndexArithmetic"><g transform="translate(0.5,0.5)"><path class="background" aria-hidden="true" d="M0,0h0v0h0Z" pointer-events="none"/><g><g class="mark-rule role-axis-tick" pointer-events="none"><line transform="translate(0,10)" x2="-5" y2="0" stroke="#888" stroke-width="1" opacity="1"/><line transform="translate(0,30)" x2="-5" y2="0" stroke="#888" stroke-width="1" opacity="1"/><line transform="translate(0,50)" x2="-5" y2="0" stroke="#888" stroke-width="1" opacity="1"/><line transform="translate(0,70)" x2="-5" y2="0" stroke="#888" stroke-width="1" opacity="1"/><line transform="translate(0,90)" x2="-5" y2="0" stroke="#888" stroke-width="1" opacity="1"/><line transform="translate(0,110)" x2="-5" y2="0" stroke="#888" stroke-width="1" opacity="1"/><line transform="translate(0,130)" x2="-5" y2="0" stroke="#888" stroke-width="1" opacity="1"/><line transform="translate(0,150)" x2="-5" y2="0" stroke="#888" stroke-width="1" opacity="1"/><line transform="translate(0,170)" x2="-5" y2="0" stroke="#888" stroke-width="1" opacity="1"/><line transform="translate(0,190)" x2="-5" y2="0" stroke="#888" stroke-width="1" opacity="1"/><line transform="translate(0,210)" x2="-5" y2="0" stroke="#888" stroke-width="1" opacity="1"/><line transform="translate(0,230)" x2="-5" y2="0" stroke="#888" stroke-width="1" opacity="1"/><line transform="translate(0,250)" x2="-5" y2="0" stroke="#888" stroke-width="1" opacity="1"/><line transform="translate(0,270)" x2="-5" y2="0" stroke="#888" stroke-width="1" opacity="1"/><line transform="translate(0,290)" x2="-5" y2="0" stroke="#888" stroke-width="1" opacity="1"/></g><g class="mark-text role-axis-label" pointer-events="none"><text text-anchor="end" transform="translate(-7,12.5)" font-family="sans-serif" font-size="10px" fill="#000" opacity="1">inputPerKernelValue Transposed</text><text text-anchor="end" transform="translate(-7,32.5)" font-family="sans-serif" font-size="10px" fill="#000" opacity="1">kernelPerInputValue Transposed</text><text text-anchor="end" transform="translate(-7,52.5)" font-family="sans-serif" font-size="10px" fill="#000" opacity="1">(wilczek) Inner-Loop Vectorization</text><text text-anchor="end" transform="translate(-7,72.5)" font-family="sans-serif" font-size="10px" fill="#000" opacity="1">(wilczek) Outer-Loop Vectorization</text><text text-anchor="end" transform="translate(-7,92.5)" font-family="sans-serif" font-size="10px" fill="#000" opacity="1">(wilczek) Outer- and Inner-Loop Vectorization</text><text text-anchor="end" transform="translate(-7,112.5)" font-family="sans-serif" font-size="10px" fill="#000" opacity="1">(chaowang15) convolve1D</text><text text-anchor="end" transform="translate(-7,132.5)" font-family="sans-serif" font-size="10px" fill="#000" opacity="1">inputPerKernelValue Transposed OuterLoopUnrolled</text><text text-anchor="end" transform="translate(-7,152.5)" font-family="sans-serif" font-size="10px" fill="#000" opacity="1">inputPerKernelValue Transposed InnerAndOuterLoopUnrolled</text><text text-anchor="end" transform="translate(-7,172.5)" font-family="sans-serif" font-size="10px" fill="#000" opacity="1">(matlab-like) conv 'valid' shape pre padded</text><text text-anchor="end" transform="translate(-7,192.5)" font-family="sans-serif" font-size="10px" fill="#000" opacity="1">(matlab-like) conv 'full' shape</text><text text-anchor="end" transform="translate(-7,212.5)" font-family="sans-serif" font-size="10px" fill="#000" opacity="1">(wilczek) Single</text><text text-anchor="end" transform="translate(-7,232.5)" font-family="sans-serif" font-size="10px" fill="#000" opacity="1">inputPerKernelValue Transposed LoopFission</text><text text-anchor="end" transform="translate(-7,252.5)" font-family="sans-serif" font-size="10px" fill="#000" opacity="1">inputPerKernelValue Transposed InnerLoopUnrolled</text><text text-anchor="end" transform="translate(-7,272.5)" font-family="sans-serif" font-size="10px" fill="#000" opacity="1">kernelPerInputValue Transposed LoopFission</text><text text-anchor="end" transform="translate(-7,292.5)" font-family="sans-serif" font-size="10px" fill="#000" opacity="1">inputPerKernelValue Transposed LoopFissionIndexArithmetic</text></g><g class="mark-rule role-axis-domain" pointer-events="none"><line transform="translate(0,0)" x2="0" y2="300" stroke="#888" stroke-width="1" opacity="1"/></g><g class="mark-text role-axis-title" pointer-events="none"><text text-anchor="middle" transform="translate(-320,150) rotate(-90) translate(0,-2)" font-family="sans-serif" font-size="11px" font-weight="bold" fill="#000" opacity="1">algorithm</text></g></g><path class="foreground" aria-hidden="true" d="" pointer-events="none" display="none"/></g></g><g class="mark-rect role-mark child_layer_0_marks" role="graphics-object" aria-roledescription="rect mark container"><path aria-label="mean execution time in µs: 86; algorithm: kernelPerInputValue Transposed" role="graphics-symbol" aria-roledescription="bar" d="M0,21.9L62.153846153846146,21.9C64.36150625182215,21.9,66.15384615384615,23.692339902024,66.15384615384615,25.9L66.15384615384615,34.099999999999994C66.15384615384615,36.307660097976,64.36150625182215,38.099999999999994,62.153846153846146,38.099999999999994L0,38.099999999999994C0,38.099999999999994,0,38.099999999999994,0,38.099999999999994L0,21.9C0,21.9,0,21.9,0,21.9Z" fill="#4c78a8"/><path aria-label="mean execution time in µs: 50; algorithm: inputPerKernelValue Transposed" role="graphics-symbol" aria-roledescription="bar" d="M0,1.9L34.46153846153847,1.9C36.66919855951447,1.9,38.46153846153847,3.692339902024,38.46153846153847,5.9L38.46153846153847,14.099999999999998C38.46153846153847,16.307660097975997,36.66919855951447,18.099999999999998,34.46153846153847,18.099999999999998L0,18.099999999999998C0,18.099999999999998,0,18.099999999999998,0,18.099999999999998L0,1.9C0,1.9,0,1.9,0,1.9Z" fill="#4c78a8"/><path aria-label="mean execution time in µs: 155; algorithm: inputPerKernelValue Transposed InnerLoopUnrolled" role="graphics-symbol" aria-roledescription="bar" d="M0,241.9L115.23076923076923,241.9C117.43842932874523,241.9,119.23076923076923,243.692339902024,119.23076923076923,245.9L119.23076923076923,254.10000000000002C119.23076923076923,256.307660097976,117.43842932874523,258.1,115.23076923076923,258.1L0,258.1C0,258.1,0,258.1,0,258.1L0,241.9C0,241.9,0,241.9,0,241.9Z" fill="#4c78a8"/><path aria-label="mean execution time in µs: 122; algorithm: inputPerKernelValue Transposed OuterLoopUnrolled" role="graphics-symbol" aria-roledescription="bar" d="M0,121.9L89.84615384615384,121.9C92.05381394412984,121.9,93.84615384615384,123.692339902024,93.84615384615384,125.9L93.84615384615384,134.1C93.84615384615384,136.307660097976,92.05381394412984,138.1,89.84615384615384,138.1L0,138.1C0,138.1,0,138.1,0,138.1L0,121.9C0,121.9,0,121.9,0,121.9Z" fill="#4c78a8"/><path aria-label="mean execution time in µs: 123; algorithm: inputPerKernelValue Transposed InnerAndOuterLoopUnrolled" role="graphics-symbol" aria-roledescription="bar" d="M0,141.9L90.61538461538461,141.9C92.82304471336062,141.9,94.61538461538461,143.692339902024,94.61538461538461,145.9L94.61538461538461,154.1C94.61538461538461,156.307660097976,92.82304471336062,158.1,90.61538461538461,158.1L0,158.1C0,158.1,0,158.1,0,158.1L0,141.9C0,141.9,0,141.9,0,141.9Z" fill="#4c78a8"/><path aria-label="mean execution time in µs: 151; algorithm: inputPerKernelValue Transposed LoopFission" role="graphics-symbol" aria-roledescription="bar" d="M0,221.9L112.15384615384616,221.9C114.36150625182216,221.9,116.15384615384616,223.692339902024,116.15384615384616,225.9L116.15384615384616,234.1C116.15384615384616,236.307660097976,114.36150625182216,238.1,112.15384615384616,238.1L0,238.1C0,238.1,0,238.1,0,238.1L0,221.9C0,221.9,0,221.9,0,221.9Z" fill="#4c78a8"/><path aria-label="mean execution time in µs: 242; algorithm: inputPerKernelValue Transposed LoopFissionIndexArithmetic" role="graphics-symbol" aria-roledescription="bar" d="M0,281.9L182.15384615384616,281.9C184.36150625182216,281.9,186.15384615384616,283.692339902024,186.15384615384616,285.9L186.15384615384616,294.09999999999997C186.15384615384616,296.30766009797594,184.36150625182216,298.09999999999997,182.15384615384616,298.09999999999997L0,298.09999999999997C0,298.09999999999997,0,298.09999999999997,0,298.09999999999997L0,281.9C0,281.9,0,281.9,0,281.9Z" fill="#4c78a8"/><path aria-label="mean execution time in µs: 183; algorithm: kernelPerInputValue Transposed LoopFission" role="graphics-symbol" aria-roledescription="bar" d="M0,261.9L136.76923076923077,261.9C138.97689086720678,261.9,140.76923076923077,263.692339902024,140.76923076923077,265.9L140.76923076923077,274.09999999999997C140.76923076923077,276.30766009797594,138.97689086720678,278.09999999999997,136.76923076923077,278.09999999999997L0,278.09999999999997C0,278.09999999999997,0,278.09999999999997,0,278.09999999999997L0,261.9C0,261.9,0,261.9,0,261.9Z" fill="#4c78a8"/><path aria-label="mean execution time in µs: 129; algorithm: (matlab-like) conv 'full' shape" role="graphics-symbol" aria-roledescription="bar" d="M0,181.9L95.23076923076923,181.9C97.43842932874523,181.9,99.23076923076923,183.692339902024,99.23076923076923,185.9L99.23076923076923,194.1C99.23076923076923,196.307660097976,97.43842932874523,198.1,95.23076923076923,198.1L0,198.1C0,198.1,0,198.1,0,198.1L0,181.9C0,181.9,0,181.9,0,181.9Z" fill="#4c78a8"/><path aria-label="mean execution time in µs: 126; algorithm: (matlab-like) conv 'valid' shape pre padded" role="graphics-symbol" aria-roledescription="bar" d="M0,161.9L92.92307692307692,161.9C95.13073702105292,161.9,96.92307692307692,163.692339902024,96.92307692307692,165.9L96.92307692307692,174.1C96.92307692307692,176.307660097976,95.13073702105292,178.1,92.92307692307692,178.1L0,178.1C0,178.1,0,178.1,0,178.1L0,161.9C0,161.9,0,161.9,0,161.9Z" fill="#4c78a8"/><path aria-label="mean execution time in µs: 129; algorithm: (wilczek) Single" role="graphics-symbol" aria-roledescription="bar" d="M0,201.9L95.23076923076923,201.9C97.43842932874523,201.9,99.23076923076923,203.692339902024,99.23076923076923,205.9L99.23076923076923,214.1C99.23076923076923,216.307660097976,97.43842932874523,218.1,95.23076923076923,218.1L0,218.1C0,218.1,0,218.1,0,218.1L0,201.9C0,201.9,0,201.9,0,201.9Z" fill="#4c78a8"/><path aria-label="mean execution time in µs: 98; algorithm: (wilczek) Inner-Loop Vectorization" role="graphics-symbol" aria-roledescription="bar" d="M0,41.9L71.38461538461539,41.9C73.59227548259139,41.9,75.38461538461539,43.692339902023996,75.38461538461539,45.9L75.38461538461539,54.099999999999994C75.38461538461539,56.307660097976,73.59227548259139,58.099999999999994,71.38461538461539,58.099999999999994L0,58.099999999999994C0,58.099999999999994,0,58.099999999999994,0,58.099999999999994L0,41.9C0,41.9,0,41.9,0,41.9Z" fill="#4c78a8"/><path aria-label="mean execution time in µs: 98; algorithm: (wilczek) Outer-Loop Vectorization" role="graphics-symbol" aria-roledescription="bar" d="M0,61.9L71.38461538461539,61.9C73.59227548259139,61.9,75.38461538461539,63.692339902023996,75.38461538461539,65.9L75.38461538461539,74.1C75.38461538461539,76.307660097976,73.59227548259139,78.1,71.38461538461539,78.1L0,78.1C0,78.1,0,78.1,0,78.1L0,61.9C0,61.9,0,61.9,0,61.9Z" fill="#4c78a8"/><path aria-label="mean execution time in µs: 102; algorithm: (wilczek) Outer- and Inner-Loop Vectorization" role="graphics-symbol" aria-roledescription="bar" d="M0,81.9L74.46153846153847,81.9C76.66919855951447,81.9,78.46153846153847,83.692339902024,78.46153846153847,85.9L78.46153846153847,94.10000000000001C78.46153846153847,96.30766009797601,76.66919855951447,98.10000000000001,74.46153846153847,98.10000000000001L0,98.10000000000001C0,98.10000000000001,0,98.10000000000001,0,98.10000000000001L0,81.9C0,81.9,0,81.9,0,81.9Z" fill="#4c78a8"/><path aria-label="mean execution time in µs: 109; algorithm: (chaowang15) convolve1D" role="graphics-symbol" aria-roledescription="bar" d="M0,101.9L79.84615384615385,101.9C82.05381394412986,101.9,83.84615384615385,103.692339902024,83.84615384615385,105.9L83.84615384615385,114.10000000000001C83.84615384615385,116.30766009797601,82.05381394412986,118.10000000000001,79.84615384615385,118.10000000000001L0,118.10000000000001C0,118.10000000000001,0,118.10000000000001,0,118.10000000000001L0,101.9C0,101.9,0,101.9,0,101.9Z" fill="#4c78a8"/></g><g class="mark-text role-mark child_layer_1_marks" role="graphics-object" aria-roledescription="text mark container"><text aria-label="mean execution time in µs: 86; algorithm: kernelPerInputValue Transposed; MeanExecutionTime: 86" role="graphics-symbol" aria-roledescription="text mark" text-anchor="start" transform="translate(70.15384615384615,33)" font-family="sans-serif" font-size="9px" fill="black">86</text><text aria-label="mean execution time in µs: 50; algorithm: inputPerKernelValue Transposed; MeanExecutionTime: 50" role="graphics-symbol" aria-roledescription="text mark" text-anchor="start" transform="translate(42.46153846153847,13)" font-family="sans-serif" font-size="9px" fill="black">50</text><text aria-label="mean execution time in µs: 155; algorithm: inputPerKernelValue Transposed InnerLoopUnrolled; MeanExecutionTime: 155" role="graphics-symbol" aria-roledescription="text mark" text-anchor="start" transform="translate(123.23076923076923,253)" font-family="sans-serif" font-size="9px" fill="black">155</text><text aria-label="mean execution time in µs: 122; algorithm: inputPerKernelValue Transposed OuterLoopUnrolled; MeanExecutionTime: 122" role="graphics-symbol" aria-roledescription="text mark" text-anchor="start" transform="translate(97.84615384615384,133)" font-family="sans-serif" font-size="9px" fill="black">122</text><text aria-label="mean execution time in µs: 123; algorithm: inputPerKernelValue Transposed InnerAndOuterLoopUnrolled; MeanExecutionTime: 123" role="graphics-symbol" aria-roledescription="text mark" text-anchor="start" transform="translate(98.61538461538461,153)" font-family="sans-serif" font-size="9px" fill="black">123</text><text aria-label="mean execution time in µs: 151; algorithm: inputPerKernelValue Transposed LoopFission; MeanExecutionTime: 151" role="graphics-symbol" aria-roledescription="text mark" text-anchor="start" transform="translate(120.15384615384616,233)" font-family="sans-serif" font-size="9px" fill="black">151</text><text aria-label="mean execution time in µs: 242; algorithm: inputPerKernelValue Transposed LoopFissionIndexArithmetic; MeanExecutionTime: 242" role="graphics-symbol" aria-roledescription="text mark" text-anchor="start" transform="translate(190.15384615384616,293)" font-family="sans-serif" font-size="9px" fill="black">242</text><text aria-label="mean execution time in µs: 183; algorithm: kernelPerInputValue Transposed LoopFission; MeanExecutionTime: 183" role="graphics-symbol" aria-roledescription="text mark" text-anchor="start" transform="translate(144.76923076923077,273)" font-family="sans-serif" font-size="9px" fill="black">183</text><text aria-label="mean execution time in µs: 129; algorithm: (matlab-like) conv 'full' shape; MeanExecutionTime: 129" role="graphics-symbol" aria-roledescription="text mark" text-anchor="start" transform="translate(103.23076923076923,193)" font-family="sans-serif" font-size="9px" fill="black">129</text><text aria-label="mean execution time in µs: 126; algorithm: (matlab-like) conv 'valid' shape pre padded; MeanExecutionTime: 126" role="graphics-symbol" aria-roledescription="text mark" text-anchor="start" transform="translate(100.92307692307692,173)" font-family="sans-serif" font-size="9px" fill="black">126</text><text aria-label="mean execution time in µs: 129; algorithm: (wilczek) Single; MeanExecutionTime: 129" role="graphics-symbol" aria-roledescription="text mark" text-anchor="start" transform="translate(103.23076923076923,213)" font-family="sans-serif" font-size="9px" fill="black">129</text><text aria-label="mean execution time in µs: 98; algorithm: (wilczek) Inner-Loop Vectorization; MeanExecutionTime: 98" role="graphics-symbol" aria-roledescription="text mark" text-anchor="start" transform="translate(79.38461538461539,53)" font-family="sans-serif" font-size="9px" fill="black">98</text><text aria-label="mean execution time in µs: 98; algorithm: (wilczek) Outer-Loop Vectorization; MeanExecutionTime: 98" role="graphics-symbol" aria-roledescription="text mark" text-anchor="start" transform="translate(79.38461538461539,73)" font-family="sans-serif" font-size="9px" fill="black">98</text><text aria-label="mean execution time in µs: 102; algorithm: (wilczek) Outer- and Inner-Loop Vectorization; MeanExecutionTime: 102" role="graphics-symbol" aria-roledescription="text mark" text-anchor="start" transform="translate(82.46153846153847,93)" font-family="sans-serif" font-size="9px" fill="black">102</text><text aria-label="mean execution time in µs: 109; algorithm: (chaowang15) convolve1D; MeanExecutionTime: 109" role="graphics-symbol" aria-roledescription="text mark" text-anchor="start" transform="translate(87.84615384615385,113)" font-family="sans-serif" font-size="9px" fill="black">109</text></g></g><path class="foreground" aria-hidden="true" d="" display="none"/></g><g transform="translate(562,0)"><path class="background" aria-hidden="true" d="M0.5,0.5h200v300h-200Z" stroke="#ddd"/><g><g class="mark-group role-axis" aria-hidden="true"><g transform="translate(0.5,300.5)"><path class="background" aria-hidden="true" d="M0,0h0v0h0Z" pointer-events="none"/><g><g class="mark-rule role-axis-grid" pointer-events="none"><line transform="translate(0,0)" x2="0" y2="-300" stroke="#ddd" stroke-width="1" opacity="1"/><line transform="translate(63,0)" x2="0" y2="-300" stroke="#ddd" stroke-width="1" opacity="1"/><line transform="translate(125,0)" x2="0" y2="-300" stroke="#ddd" stroke-width="1" opacity="1"/><line transform="translate(188,0)" x2="0" y2="-300" stroke="#ddd" stroke-width="1" opacity="1"/></g></g><path class="foreground" aria-hidden="true" d="" pointer-events="none" display="none"/></g></g><g class="mark-group role-axis" role="graphics-symbol" aria-roledescription="axis" aria-label="X-axis titled 'mean execution time in µs' for a linear scale with values from 0 to 16,000"><g transform="translate(0.5,300.5)"><path class="background" aria-hidden="true" d="M0,0h0v0h0Z" pointer-events="none"/><g><g class="mark-rule role-axis-tick" pointer-events="none"><line transform="translate(0,0)" x2="0" y2="5" stroke="#888" stroke-width="1" opacity="1"/><line transform="translate(63,0)" x2="0" y2="5" stroke="#888" stroke-width="1" opacity="1"/><line transform="translate(125,0)" x2="0" y2="5" stroke="#888" stroke-width="1" opacity="1"/><line transform="translate(188,0)" x2="0" y2="5" stroke="#888" stroke-width="1" opacity="1"/></g><g class="mark-text role-axis-label" pointer-events="none"><text text-anchor="start" transform="translate(0,15)" font-family="sans-serif" font-size="10px" fill="#000" opacity="1">0</text><text text-anchor="middle" transform="translate(62.5,15)" font-family="sans-serif" font-size="10px" fill="#000" opacity="1">5,000</text><text text-anchor="middle" transform="translate(125,15)" font-family="sans-serif" font-size="10px" fill="#000" opacity="1">10,000</text><text text-anchor="middle" transform="translate(187.5,15)" font-family="sans-serif" font-size="10px" fill="#000" opacity="1">15,000</text></g><g class="mark-rule role-axis-domain" pointer-events="none"><line transform="translate(0,0)" x2="200" y2="0" stroke="#888" stroke-width="1" opacity="1"/></g><g class="mark-text role-axis-title" pointer-events="none"><text text-anchor="middle" transform="translate(100,30)" font-family="sans-serif" font-size="11px" font-weight="bold" fill="#000" opacity="1">mean execution time in µs</text></g></g><path class="foreground" aria-hidden="true" d="" pointer-events="none" display="none"/></g></g><g class="mark-group role-axis" role="graphics-symbol" aria-roledescription="axis" aria-label="Y-axis titled 'algorithm' for a discrete scale with 15 values: kernelPerInputValue Transposed, inputPerKernelValue Transposed, (wilczek) Inner-Loop Vectorization, (wilczek) Outer-Loop Vectorization, (wilczek) Outer- and Inner-Loop Vectorization, ending with inputPerKernelValue Transposed LoopFissionIndexArithmetic"><g transform="translate(0.5,0.5)"><path class="background" aria-hidden="true" d="M0,0h0v0h0Z" pointer-events="none"/><g><g class="mark-rule role-axis-tick" pointer-events="none"><line transform="translate(0,10)" x2="-5" y2="0" stroke="#888" stroke-width="1" opacity="1"/><line transform="translate(0,30)" x2="-5" y2="0" stroke="#888" stroke-width="1" opacity="1"/><line transform="translate(0,50)" x2="-5" y2="0" stroke="#888" stroke-width="1" opacity="1"/><line transform="translate(0,70)" x2="-5" y2="0" stroke="#888" stroke-width="1" opacity="1"/><line transform="translate(0,90)" x2="-5" y2="0" stroke="#888" stroke-width="1" opacity="1"/><line transform="translate(0,110)" x2="-5" y2="0" stroke="#888" stroke-width="1" opacity="1"/><line transform="translate(0,130)" x2="-5" y2="0" stroke="#888" stroke-width="1" opacity="1"/><line transform="translate(0,150)" x2="-5" y2="0" stroke="#888" stroke-width="1" opacity="1"/><line transform="translate(0,170)" x2="-5" y2="0" stroke="#888" stroke-width="1" opacity="1"/><line transform="translate(0,190)" x2="-5" y2="0" stroke="#888" stroke-width="1" opacity="1"/><line transform="translate(0,210)" x2="-5" y2="0" stroke="#888" stroke-width="1" opacity="1"/><line transform="translate(0,230)" x2="-5" y2="0" stroke="#888" stroke-width="1" opacity="1"/><line transform="translate(0,250)" x2="-5" y2="0" stroke="#888" stroke-width="1" opacity="1"/><line transform="translate(0,270)" x2="-5" y2="0" stroke="#888" stroke-width="1" opacity="1"/><line transform="translate(0,290)" x2="-5" y2="0" stroke="#888" stroke-width="1" opacity="1"/></g><g class="mark-text role-axis-label" pointer-events="none"><text text-anchor="end" transform="translate(-7,12.5)" font-family="sans-serif" font-size="10px" fill="#000" opacity="1">kernelPerInputValue Transposed</text><text text-anchor="end" transform="translate(-7,32.5)" font-family="sans-serif" font-size="10px" fill="#000" opacity="1">inputPerKernelValue Transposed</text><text text-anchor="end" transform="translate(-7,52.5)" font-family="sans-serif" font-size="10px" fill="#000" opacity="1">(wilczek) Inner-Loop Vectorization</text><text text-anchor="end" transform="translate(-7,72.5)" font-family="sans-serif" font-size="10px" fill="#000" opacity="1">(wilczek) Outer-Loop Vectorization</text><text text-anchor="end" transform="translate(-7,92.5)" font-family="sans-serif" font-size="10px" fill="#000" opacity="1">(wilczek) Outer- and Inner-Loop Vectorization</text><text text-anchor="end" transform="translate(-7,112.5)" font-family="sans-serif" font-size="10px" fill="#000" opacity="1">inputPerKernelValue Transposed OuterLoopUnrolled</text><text text-anchor="end" transform="translate(-7,132.5)" font-family="sans-serif" font-size="10px" fill="#000" opacity="1">inputPerKernelValue Transposed InnerAndOuterLoopUnrolled</text><text text-anchor="end" transform="translate(-7,152.5)" font-family="sans-serif" font-size="10px" fill="#000" opacity="1">kernelPerInputValue Transposed LoopFission</text><text text-anchor="end" transform="translate(-7,172.5)" font-family="sans-serif" font-size="10px" fill="#000" opacity="1">inputPerKernelValue Transposed InnerLoopUnrolled</text><text text-anchor="end" transform="translate(-7,192.5)" font-family="sans-serif" font-size="10px" fill="#000" opacity="1">inputPerKernelValue Transposed LoopFission</text><text text-anchor="end" transform="translate(-7,212.5)" font-family="sans-serif" font-size="10px" fill="#000" opacity="1">(matlab-like) conv 'full' shape</text><text text-anchor="end" transform="translate(-7,232.5)" font-family="sans-serif" font-size="10px" fill="#000" opacity="1">(chaowang15) convolve1D</text><text text-anchor="end" transform="translate(-7,252.5)" font-family="sans-serif" font-size="10px" fill="#000" opacity="1">(matlab-like) conv 'valid' shape pre padded</text><text text-anchor="end" transform="translate(-7,272.5)" font-family="sans-serif" font-size="10px" fill="#000" opacity="1">(wilczek) Single</text><text text-anchor="end" transform="translate(-7,292.5)" font-family="sans-serif" font-size="10px" fill="#000" opacity="1">inputPerKernelValue Transposed LoopFissionIndexArithmetic</text></g><g class="mark-rule role-axis-domain" pointer-events="none"><line transform="translate(0,0)" x2="0" y2="300" stroke="#888" stroke-width="1" opacity="1"/></g><g class="mark-text role-axis-title" pointer-events="none"><text text-anchor="middle" transform="translate(-320,150) rotate(-90) translate(0,-2)" font-family="sans-serif" font-size="11px" font-weight="bold" fill="#000" opacity="1">algorithm</text></g></g><path class="foreground" aria-hidden="true" d="" pointer-events="none" display="none"/></g></g><g class="mark-rect role-mark child_layer_0_marks" role="graphics-object" aria-roledescription="rect mark container"><path aria-label="mean execution time in µs: 1739; algorithm: kernelPerInputValue Transposed" role="graphics-symbol" aria-roledescription="bar" d="M0,1.9L17.7375,1.9C19.945160097976,1.9,21.7375,3.692339902024,21.7375,5.9L21.7375,14.099999999999998C21.7375,16.307660097975997,19.945160097976,18.099999999999998,17.7375,18.099999999999998L0,18.099999999999998C0,18.099999999999998,0,18.099999999999998,0,18.099999999999998L0,1.9C0,1.9,0,1.9,0,1.9Z" fill="#4c78a8"/><path aria-label="mean execution time in µs: 2293; algorithm: inputPerKernelValue Transposed" role="graphics-symbol" aria-roledescription="bar" d="M0,21.9L24.6625,21.9C26.870160097976,21.9,28.6625,23.692339902024,28.6625,25.9L28.6625,34.099999999999994C28.6625,36.307660097976,26.870160097976,38.099999999999994,24.6625,38.099999999999994L0,38.099999999999994C0,38.099999999999994,0,38.099999999999994,0,38.099999999999994L0,21.9C0,21.9,0,21.9,0,21.9Z" fill="#4c78a8"/><path aria-label="mean execution time in µs: 9752; algorithm: inputPerKernelValue Transposed InnerLoopUnrolled" role="graphics-symbol" aria-roledescription="bar" d="M0,161.9L117.9,161.9C120.10766009797601,161.9,121.9,163.692339902024,121.9,165.9L121.9,174.1C121.9,176.307660097976,120.10766009797601,178.1,117.9,178.1L0,178.1C0,178.1,0,178.1,0,178.1L0,161.9C0,161.9,0,161.9,0,161.9Z" fill="#4c78a8"/><path aria-label="mean execution time in µs: 7262; algorithm: inputPerKernelValue Transposed OuterLoopUnrolled" role="graphics-symbol" aria-roledescription="bar" d="M0,101.9L86.77499999999999,101.9C88.982660097976,101.9,90.77499999999999,103.692339902024,90.77499999999999,105.9L90.77499999999999,114.10000000000001C90.77499999999999,116.30766009797601,88.982660097976,118.10000000000001,86.77499999999999,118.10000000000001L0,118.10000000000001C0,118.10000000000001,0,118.10000000000001,0,118.10000000000001L0,101.9C0,101.9,0,101.9,0,101.9Z" fill="#4c78a8"/><path aria-label="mean execution time in µs: 7669; algorithm: inputPerKernelValue Transposed InnerAndOuterLoopUnrolled" role="graphics-symbol" aria-roledescription="bar" d="M0,121.9L91.8625,121.9C94.070160097976,121.9,95.8625,123.692339902024,95.8625,125.9L95.8625,134.1C95.8625,136.307660097976,94.070160097976,138.1,91.8625,138.1L0,138.1C0,138.1,0,138.1,0,138.1L0,121.9C0,121.9,0,121.9,0,121.9Z" fill="#4c78a8"/><path aria-label="mean execution time in µs: 10090; algorithm: inputPerKernelValue Transposed LoopFission" role="graphics-symbol" aria-roledescription="bar" d="M0,181.9L122.125,181.9C124.332660097976,181.9,126.125,183.692339902024,126.125,185.9L126.125,194.1C126.125,196.307660097976,124.332660097976,198.1,122.125,198.1L0,198.1C0,198.1,0,198.1,0,198.1L0,181.9C0,181.9,0,181.9,0,181.9Z" fill="#4c78a8"/><path aria-label="mean execution time in µs: 15647; algorithm: inputPerKernelValue Transposed LoopFissionIndexArithmetic" role="graphics-symbol" aria-roledescription="bar" d="M0,281.9L191.5875,281.9C193.795160097976,281.9,195.5875,283.692339902024,195.5875,285.9L195.5875,294.09999999999997C195.5875,296.30766009797594,193.795160097976,298.09999999999997,191.5875,298.09999999999997L0,298.09999999999997C0,298.09999999999997,0,298.09999999999997,0,298.09999999999997L0,281.9C0,281.9,0,281.9,0,281.9Z" fill="#4c78a8"/><path aria-label="mean execution time in µs: 9385; algorithm: kernelPerInputValue Transposed LoopFission" role="graphics-symbol" aria-roledescription="bar" d="M0,141.9L113.3125,141.9C115.520160097976,141.9,117.3125,143.692339902024,117.3125,145.9L117.3125,154.1C117.3125,156.307660097976,115.520160097976,158.1,113.3125,158.1L0,158.1C0,158.1,0,158.1,0,158.1L0,141.9C0,141.9,0,141.9,0,141.9Z" fill="#4c78a8"/><path aria-label="mean execution time in µs: 14581; algorithm: (matlab-like) conv 'full' shape" role="graphics-symbol" aria-roledescription="bar" d="M0,201.9L178.2625,201.9C180.470160097976,201.9,182.2625,203.692339902024,182.2625,205.9L182.2625,214.1C182.2625,216.307660097976,180.470160097976,218.1,178.2625,218.1L0,218.1C0,218.1,0,218.1,0,218.1L0,201.9C0,201.9,0,201.9,0,201.9Z" fill="#4c78a8"/><path aria-label="mean execution time in µs: 15345; algorithm: (matlab-like) conv 'valid' shape pre padded" role="graphics-symbol" aria-roledescription="bar" d="M0,241.9L187.8125,241.9C190.020160097976,241.9,191.8125,243.692339902024,191.8125,245.9L191.8125,254.10000000000002C191.8125,256.307660097976,190.020160097976,258.1,187.8125,258.1L0,258.1C0,258.1,0,258.1,0,258.1L0,241.9C0,241.9,0,241.9,0,241.9Z" fill="#4c78a8"/><path aria-label="mean execution time in µs: 15543; algorithm: (wilczek) Single" role="graphics-symbol" aria-roledescription="bar" d="M0,261.9L190.2875,261.9C192.495160097976,261.9,194.2875,263.692339902024,194.2875,265.9L194.2875,274.09999999999997C194.2875,276.30766009797594,192.495160097976,278.09999999999997,190.2875,278.09999999999997L0,278.09999999999997C0,278.09999999999997,0,278.09999999999997,0,278.09999999999997L0,261.9C0,261.9,0,261.9,0,261.9Z" fill="#4c78a8"/><path aria-label="mean execution time in µs: 5959; algorithm: (wilczek) Inner-Loop Vectorization" role="graphics-symbol" aria-roledescription="bar" d="M0,41.9L70.4875,41.9C72.695160097976,41.9,74.4875,43.692339902023996,74.4875,45.9L74.4875,54.099999999999994C74.4875,56.307660097976,72.695160097976,58.099999999999994,70.4875,58.099999999999994L0,58.099999999999994C0,58.099999999999994,0,58.099999999999994,0,58.099999999999994L0,41.9C0,41.9,0,41.9,0,41.9Z" fill="#4c78a8"/><path aria-label="mean execution time in µs: 6382; algorithm: (wilczek) Outer-Loop Vectorization" role="graphics-symbol" aria-roledescription="bar" d="M0,61.9L75.77499999999999,61.9C77.982660097976,61.9,79.77499999999999,63.692339902023996,79.77499999999999,65.9L79.77499999999999,74.1C79.77499999999999,76.307660097976,77.982660097976,78.1,75.77499999999999,78.1L0,78.1C0,78.1,0,78.1,0,78.1L0,61.9C0,61.9,0,61.9,0,61.9Z" fill="#4c78a8"/><path aria-label="mean execution time in µs: 6385; algorithm: (wilczek) Outer- and Inner-Loop Vectorization" role="graphics-symbol" aria-roledescription="bar" d="M0,81.9L75.8125,81.9C78.020160097976,81.9,79.8125,83.692339902024,79.8125,85.9L79.8125,94.10000000000001C79.8125,96.30766009797601,78.020160097976,98.10000000000001,75.8125,98.10000000000001L0,98.10000000000001C0,98.10000000000001,0,98.10000000000001,0,98.10000000000001L0,81.9C0,81.9,0,81.9,0,81.9Z" fill="#4c78a8"/><path aria-label="mean execution time in µs: 14867; algorithm: (chaowang15) convolve1D" role="graphics-symbol" aria-roledescription="bar" d="M0,221.9L181.8375,221.9C184.045160097976,221.9,185.8375,223.692339902024,185.8375,225.9L185.8375,234.1C185.8375,236.307660097976,184.045160097976,238.1,181.8375,238.1L0,238.1C0,238.1,0,238.1,0,238.1L0,221.9C0,221.9,0,221.9,0,221.9Z" fill="#4c78a8"/></g><g class="mark-text role-mark child_layer_1_marks" role="graphics-object" aria-roledescription="text mark container"><text aria-label="mean execution time in µs: 1739; algorithm: kernelPerInputValue Transposed; MeanExecutionTime: 1739" role="graphics-symbol" aria-roledescription="text mark" text-anchor="start" transform="translate(25.7375,13)" font-family="sans-serif" font-size="9px" fill="black">1739</text><text aria-label="mean execution time in µs: 2293; algorithm: inputPerKernelValue Transposed; MeanExecutionTime: 2293" role="graphics-symbol" aria-roledescription="text mark" text-anchor="start" transform="translate(32.6625,33)" font-family="sans-serif" font-size="9px" fill="black">2293</text><text aria-label="mean execution time in µs: 9752; algorithm: inputPerKernelValue Transposed InnerLoopUnrolled; MeanExecutionTime: 9752" role="graphics-symbol" aria-roledescription="text mark" text-anchor="start" transform="translate(125.9,173)" font-family="sans-serif" font-size="9px" fill="black">9752</text><text aria-label="mean execution time in µs: 7262; algorithm: inputPerKernelValue Transposed OuterLoopUnrolled; MeanExecutionTime: 7262" role="graphics-symbol" aria-roledescription="text mark" text-anchor="start" transform="translate(94.77499999999999,113)" font-family="sans-serif" font-size="9px" fill="black">7262</text><text aria-label="mean execution time in µs: 7669; algorithm: inputPerKernelValue Transposed InnerAndOuterLoopUnrolled; MeanExecutionTime: 7669" role="graphics-symbol" aria-roledescription="text mark" text-anchor="start" transform="translate(99.8625,133)" font-family="sans-serif" font-size="9px" fill="black">7669</text><text aria-label="mean execution time in µs: 10090; algorithm: inputPerKernelValue Transposed LoopFission; MeanExecutionTime: 10090" role="graphics-symbol" aria-roledescription="text mark" text-anchor="start" transform="translate(130.125,193)" font-family="sans-serif" font-size="9px" fill="black">10090</text><text aria-label="mean execution time in µs: 15647; algorithm: inputPerKernelValue Transposed LoopFissionIndexArithmetic; MeanExecutionTime: 15647" role="graphics-symbol" aria-roledescription="text mark" text-anchor="start" transform="translate(199.5875,293)" font-family="sans-serif" font-size="9px" fill="black">15647</text><text aria-label="mean execution time in µs: 9385; algorithm: kernelPerInputValue Transposed LoopFission; MeanExecutionTime: 9385" role="graphics-symbol" aria-roledescription="text mark" text-anchor="start" transform="translate(121.3125,153)" font-family="sans-serif" font-size="9px" fill="black">9385</text><text aria-label="mean execution time in µs: 14581; algorithm: (matlab-like) conv 'full' shape; MeanExecutionTime: 14581" role="graphics-symbol" aria-roledescription="text mark" text-anchor="start" transform="translate(186.2625,213)" font-family="sans-serif" font-size="9px" fill="black">14581</text><text aria-label="mean execution time in µs: 15345; algorithm: (matlab-like) conv 'valid' shape pre padded; MeanExecutionTime: 15345" role="graphics-symbol" aria-roledescription="text mark" text-anchor="start" transform="translate(195.8125,253)" font-family="sans-serif" font-size="9px" fill="black">15345</text><text aria-label="mean execution time in µs: 15543; algorithm: (wilczek) Single; MeanExecutionTime: 15543" role="graphics-symbol" aria-roledescription="text mark" text-anchor="start" transform="translate(198.2875,273)" font-family="sans-serif" font-size="9px" fill="black">15543</text><text aria-label="mean execution time in µs: 5959; algorithm: (wilczek) Inner-Loop Vectorization; MeanExecutionTime: 5959" role="graphics-symbol" aria-roledescription="text mark" text-anchor="start" transform="translate(78.4875,53)" font-family="sans-serif" font-size="9px" fill="black">5959</text><text aria-label="mean execution time in µs: 6382; algorithm: (wilczek) Outer-Loop Vectorization; MeanExecutionTime: 6382" role="graphics-symbol" aria-roledescription="text mark" text-anchor="start" transform="translate(83.77499999999999,73)" font-family="sans-serif" font-size="9px" fill="black">6382</text><text aria-label="mean execution time in µs: 6385; algorithm: (wilczek) Outer- and Inner-Loop Vectorization; MeanExecutionTime: 6385" role="graphics-symbol" aria-roledescription="text mark" text-anchor="start" transform="translate(83.8125,93)" font-family="sans-serif" font-size="9px" fill="black">6385</text><text aria-label="mean execution time in µs: 14867; algorithm: (chaowang15) convolve1D; MeanExecutionTime: 14867" role="graphics-symbol" aria-roledescription="text mark" text-anchor="start" transform="translate(189.8375,233)" font-family="sans-serif" font-size="9px" fill="black">14867</text></g></g><path class="foreground" aria-hidden="true" d="" display="none"/></g></g></g><path class="foreground" aria-hidden="true" d="" display="none"/></g></g></g></svg>