<svg xmlns="http://www.w3.org/2000/svg" xmlns:xlink="http://www.w3.org/1999/xlink" version="1.1" class="marks" width="1122" height="404" viewBox="0 0 1122 404"><rect width="1122" height="404" fill="white"/><g fill="none" stroke-miterlimit="10" transform="translate(337,66)"><g class="mark-group role-frame root" role="graphics-object" aria-roledescription="group mark container"><g transform="translate(0,0)"><path class="background" aria-hidden="true" d="M0,0h0v0h0Z"/><g><g class="mark-group role-column-title column-title" role="graphics-object" aria-roledescription="group mark container"><g transform="translate(224,-35)"><path class="background" aria-hidden="true" d="M0,0h0v0h0Z"/><g><g class="mark-group role-title"><g transform="translate(0,-26)"><path class="background" aria-hidden="true" d="M0,0h0v0h0Z" pointer-events="none"/><g><g class="mark-text role-title-text" role="graphics-symbol" aria-roledescription="title" aria-label="Title text 'Convolution Benchmarks'" pointer-events="none"><text text-anchor="middle" transform="translate(0,13)" font-family="sans-serif" font-size="16px" font-weight="bold" fill="#000" opacity="1">Convolution Benchmarks</text></g></g><path class="foreground" aria-hidden="true" d="" pointer-events="none" display="none"/></g></g></g><path class="foreground" aria-hidden="true" d="" display="none"/></g></g><g class="mark-group role-column-header column_header" role="graphics-object" aria-roledescription="group mark container"><g transform="translate(0,-1)"><path class="background" aria-hidden="true" d="M0,0h200v0h-200Z"/><g><g class="mark-group role-title"><g transform="translate(100,-24)"><path class="background" aria-hidden="true" d="M0,0h0v0h0Z" pointer-events="none"/><g><g class="mark-text role-title-text" role="graphics-symbol" aria-roledescription="title" aria-label="Title text 'kernel size 16'" pointer-events="none"><text text-anchor="middle" transform="translate(0,11)" font-family="sans-serif" font-size="14px" fill="#000" opacity="1">kernel size 16</text></g></g><path class="foreground" aria-hidden="true" d="" pointer-events="none" display="none"/></g></g></g><path class="foreground" aria-hidden="true" d="" display="none"/></g><g transform="translate(568,-1)"><path class="background" aria-hidden="true" d="M0,0h200v0h-200Z"/><g><g class="mark-group role-title"><g transform="translate(100,-24)"><path class="background" aria-hidden="true" d="M0,0h0v0h0Z" pointer-events="none"/><g><g class="mark-text role-title-text" role="graphics-symbol" aria-roledescription="title" aria-label="Title text 'kernel size 1024'" pointer-events="none"><text text-anchor="middle" transform="translate(0,11)" font-family="sans-serif" font-size="14px" fill="#000" opacity="1">kernel size 1024</text></g></g><path class="foreground" aria-hidden="true" d="" pointer-events="none" display="none"/></g></g></g><path class="foreground" aria-hidden="true" d="" display="none"/></g></g><g class="mark-group role-scope cell" role="graphics-object" aria-roledescription="group mark container"><g transform="translate(0,0)"><path class="background" aria-hidden="true" d="M0.5,0.5h200v300h-200Z" stroke="#ddd"/><g><g class="mark-group role-axis" aria-hidden="true"><g transform="translate(0.5,300.5)"><path class="background" aria-hidden="true" d="M0,0h0v0h0Z" pointer-events="none"/><g><g class="mark-rule role-axis-grid" pointer-events="none"><line transform="translate(0,0)" x2="0" y2="-300" stroke="#ddd" stroke-width="1" opacity="1"/><line transform="translate(33,0)" x2="0" y2="-300" stroke="#ddd" stroke-width="1" opacity="1"/><line transform="translate(67,0)" x2="0" y2="-300" stroke="#ddd" stroke-width="1" opacity="1"/><line transform="translate(100,0)" x2="0" y2="-300" stroke="#ddd" stroke-width="1" opacity="1"/><line transform="translate(133,0)" x2="0" y2="-300" stroke="#ddd" stroke-width="1" opacity="1"/><line transform="translate(167,0)" x2="0" y2="-300" stroke="#ddd" stroke-width="1" opacity="1"/><line transform="translate(200,0)" x2="0" y2="-300" stroke="#ddd" stroke-width="1" opacity="1"/></g></g><path class="foreground" aria-hidden="true" d="" pointer-events="none" display="none"/></g></g><g class="mark-group role-axis" role="graphics-symbol" aria-roledescription="axis" aria-label="X-axis titled 'mean execution time in µs' for a linear scale with values from 0 to 600"><g transform="translate(0.5,300.5)"><path class="background" aria-hidden="true" d="M0,0h0v0h0Z" pointer-events="none"/><g><g class="mark-rule role-axis-tick" pointer-events="none"><line transform="translate(0,0)" x2="0" y2="5" stroke="#888" stroke-width="1" opacity="1"/><line transform="translate(33,0)" x2="0" y2="5" stroke="#888" stroke-width="1" opacity="1"/><line transform="translate(67,0)" x2="0" y2="5" stroke="#888" stroke-width="1" opacity="1"/><line transform="translate(100,0)" x2="0" y2="5" stroke="#888" stroke-width="1" opacity="1"/><line transform="translate(133,0)" x2="0" y2="5" stroke="#888" stroke-width="1" opacity="1"/><line transform="translate(167,0)" x2="0" y2="5" stroke="#888" stroke-width="1" opacity="1"/><line transform="translate(200,0)" x2="0" y2="5" stroke="#888" stroke-width="1" opacity="1"/></g><g class="mark-text role-axis-label" pointer-events="none"><text text-anchor="start" transform="translate(0,15)" font-family="sans-serif" font-size="10px" fill="#000" opacity="1">0</text><text text-anchor="middle" transform="translate(33.33333333333333,15)" font-family="sans-serif" font-size="10px" fill="#000" opacity="1">100</text><text text-anchor="middle" transform="translate(66.66666666666666,15)" font-family="sans-serif" font-size="10px" fill="#000" opacity="1">200</text><text text-anchor="middle" transform="translate(100,15)" font-family="sans-serif" font-size="10px" fill="#000" opacity="1">300</text><text text-anchor="middle" transform="translate(133.33333333333331,15)" font-family="sans-serif" font-size="10px" fill="#000" opacity="1">400</text><text text-anchor="middle" transform="translate(166.66666666666669,15)" font-family="sans-serif" font-size="10px" fill="#000" opacity="1">500</text><text text-anchor="end" transform="translate(200,15)" font-family="sans-serif" font-size="10px" fill="#000" opacity="1">600</text></g><g class="mark-rule role-axis-domain" pointer-events="none"><line transform="translate(0,0)" x2="200" y2="0" stroke="#888" stroke-width="1" opacity="1"/></g><g class="mark-text role-axis-title" pointer-events="none"><text text-anchor="middle" transform="translate(100,30)" font-family="sans-serif" font-size="11px" font-weight="bold" fill="#000" opacity="1">mean execution time in µs</text></g></g><path class="foreground" aria-hidden="true" d="" pointer-events="none" display="none"/></g></g><g class="mark-group role-axis" role="graphics-symbol" aria-roledescription="axis" aria-label="Y-axis titled 'algorithm' for a discrete scale with 15 values: inputPerKernelValue Transposed, kernelPerInputValue Transposed, inputPerKernelValue Transposed InnerAndOuterLoopUnrolled, (wilczek) Outer-Loop Vectorization, (wilczek) Inner-Loop Vectorization, ending with (wilczek) Single"><g transform="translate(0.5,0.5)"><path class="background" aria-hidden="true" d="M0,0h0v0h0Z" pointer-events="none"/><g><g class="mark-rule role-axis-tick" pointer-events="none"><line transform="translate(0,10)" x2="-5" y2="0" stroke="#888" stroke-width="1" opacity="1"/><line transform="translate(0,30)" x2="-5" y2="0" stroke="#888" stroke-width="1" opacity="1"/><line transform="translate(0,50)" x2="-5" y2="0" stroke="#888" stroke-width="1" opacity="1"/><line transform="translate(0,70)" x2="-5" y2="0" stroke="#888" stroke-width="1" opacity="1"/><line transform="translate(0,90)" x2="-5" y2="0" stroke="#888" stroke-width="1" opacity="1"/><line transform="translate(0,110)" x2="-5" y2="0" stroke="#888" stroke-width="1" opacity="1"/><line transform="translate(0,130)" x2="-5" y2="0" stroke="#888" stroke-width="1" opacity="1"/><line transform="translate(0,150)" x2="-5" y2="0" stroke="#888" stroke-width="1" opacity="1"/><line transform="translate(0,170)" x2="-5" y2="0" stroke="#888" stroke-width="1" opacity="1"/><line transform="translate(0,190)" x2="-5" y2="0" stroke="#888" stroke-width="1" opacity="1"/><line transform="translate(0,210)" x2="-5" y2="0" stroke="#888" stroke-width="1" opacity="1"/><line transform="translate(0,230)" x2="-5" y2="0" stroke="#888" stroke-width="1" opacity="1"/><line transform="translate(0,250)" x2="-5" y2="0" stroke="#888" stroke-width="1" opacity="1"/><line transform="translate(0,270)" x2="-5" y2="0" stroke="#888" stroke-width="1" opacity="1"/><line transform="translate(0,290)" x2="-5" y2="0" stroke="#888" stroke-width="1" opacity="1"/></g><g class="mark-text role-axis-label" pointer-events="none"><text text-anchor="end" transform="translate(-7,12.5)" font-family="sans-serif" font-size="10px" fill="#000" opacity="1">inputPerKernelValue Transposed</text><text text-anchor="end" transform="translate(-7,32.5)" font-family="sans-serif" font-size="10px" fill="#000" opacity="1">kernelPerInputValue Transposed</text><text text-anchor="end" transform="translate(-7,52.5)" font-family="sans-serif" font-size="10px" fill="#000" opacity="1">inputPerKernelValue Transposed InnerAndOuterLoopUnrolled</text><text text-anchor="end" transform="translate(-7,72.5)" font-family="sans-serif" font-size="10px" fill="#000" opacity="1">(wilczek) Outer-Loop Vectorization</text><text text-anchor="end" transform="translate(-7,92.5)" font-family="sans-serif" font-size="10px" fill="#000" opacity="1">(wilczek) Inner-Loop Vectorization</text><text text-anchor="end" transform="translate(-7,112.5)" font-family="sans-serif" font-size="10px" fill="#000" opacity="1">inputPerKernelValue Transposed OuterLoopUnrolled</text><text text-anchor="end" transform="translate(-7,132.5)" font-family="sans-serif" font-size="10px" fill="#000" opacity="1">(chaowang15) convolve1D</text><text text-anchor="end" transform="translate(-7,152.5)" font-family="sans-serif" font-size="10px" fill="#000" opacity="1">inputPerKernelValue Transposed InnerLoopUnrolled</text><text text-anchor="end" transform="translate(-7,172.5)" font-family="sans-serif" font-size="10px" fill="#000" opacity="1">(matlab-like) conv 'valid' shape pre padded</text><text text-anchor="end" transform="translate(-7,192.5)" font-family="sans-serif" font-size="10px" fill="#000" opacity="1">inputPerKernelValue Transposed LoopFissionIndexArithmetic</text><text text-anchor="end" transform="translate(-7,212.5)" font-family="sans-serif" font-size="10px" fill="#000" opacity="1">inputPerKernelValue Transposed LoopFission</text><text text-anchor="end" transform="translate(-7,232.5)" font-family="sans-serif" font-size="10px" fill="#000" opacity="1">kernelPerInputValue Transposed LoopFission</text><text text-anchor="end" transform="translate(-7,252.5)" font-family="sans-serif" font-size="10px" fill="#000" opacity="1">(wilczek) Outer- and Inner-Loop Vectorization</text><text text-anchor="end" transform="translate(-7,272.5)" font-family="sans-serif" font-size="10px" fill="#000" opacity="1">(matlab-like) conv 'full' shape</text><text text-anchor="end" transform="translate(-7,292.5)" font-family="sans-serif" font-size="10px" fill="#000" opacity="1">(wilczek) Single</text></g><g class="mark-rule role-axis-domain" pointer-events="none"><line transform="translate(0,0)" x2="0" y2="300" stroke="#888" stroke-width="1" opacity="1"/></g><g class="mark-text role-axis-title" pointer-events="none"><text text-anchor="middle" transform="translate(-320,150) rotate(-90) translate(0,-2)" font-family="sans-serif" font-size="11px" font-weight="bold" fill="#000" opacity="1">algorithm</text></g></g><path class="foreground" aria-hidden="true" d="" pointer-events="none" display="none"/></g></g><g class="mark-rect role-mark child_layer_0_marks" role="graphics-object" aria-roledescription="rect mark container"><path aria-label="mean execution time in µs: 187; algorithm: kernelPerInputValue Transposed" role="graphics-symbol" aria-roledescription="bar" d="M0,21.9L58.33333333333333,21.9C60.54099343130933,21.9,62.33333333333333,23.692339902024,62.33333333333333,25.9L62.33333333333333,34.099999999999994C62.33333333333333,36.307660097976,60.54099343130933,38.099999999999994,58.33333333333333,38.099999999999994L0,38.099999999999994C0,38.099999999999994,0,38.099999999999994,0,38.099999999999994L0,21.9C0,21.9,0,21.9,0,21.9Z" fill="#4c78a8"/><path aria-label="mean execution time in µs: 180; algorithm: inputPerKernelValue Transposed" role="graphics-symbol" aria-roledescription="bar" d="M0,1.9L56,1.9C58.207660097976,1.9,60,3.692339902024,60,5.9L60,14.099999999999998C60,16.307660097975997,58.207660097976,18.099999999999998,56,18.099999999999998L0,18.099999999999998C0,18.099999999999998,0,18.099999999999998,0,18.099999999999998L0,1.9C0,1.9,0,1.9,0,1.9Z" fill="#4c78a8"/><path aria-label="mean execution time in µs: 433; algorithm: inputPerKernelValue Transposed InnerLoopUnrolled" role="graphics-symbol" aria-roledescription="bar" d="M0,141.9L140.33333333333334,141.9C142.54099343130935,141.9,144.33333333333334,143.692339902024,144.33333333333334,145.9L144.33333333333334,154.1C144.33333333333334,156.307660097976,142.54099343130935,158.1,140.33333333333334,158.1L0,158.1C0,158.1,0,158.1,0,158.1L0,141.9C0,141.9,0,141.9,0,141.9Z" fill="#4c78a8"/><path aria-label="mean execution time in µs: 388; algorithm: inputPerKernelValue Transposed OuterLoopUnrolled" role="graphics-symbol" aria-roledescription="bar" d="M0,101.9L125.33333333333331,101.9C127.54099343130932,101.9,129.33333333333331,103.692339902024,129.33333333333331,105.9L129.33333333333331,114.10000000000001C129.33333333333331,116.30766009797601,127.54099343130932,118.10000000000001,125.33333333333331,118.10000000000001L0,118.10000000000001C0,118.10000000000001,0,118.10000000000001,0,118.10000000000001L0,101.9C0,101.9,0,101.9,0,101.9Z" fill="#4c78a8"/><path aria-label="mean execution time in µs: 334; algorithm: inputPerKernelValue Transposed InnerAndOuterLoopUnrolled" role="graphics-symbol" aria-roledescription="bar" d="M0,41.9L107.33333333333333,41.9C109.54099343130933,41.9,111.33333333333333,43.692339902023996,111.33333333333333,45.9L111.33333333333333,54.099999999999994C111.33333333333333,56.307660097976,109.54099343130933,58.099999999999994,107.33333333333333,58.099999999999994L0,58.099999999999994C0,58.099999999999994,0,58.099999999999994,0,58.099999999999994L0,41.9C0,41.9,0,41.9,0,41.9Z" fill="#4c78a8"/><path aria-label="mean execution time in µs: 454; algorithm: inputPerKernelValue Transposed LoopFission" role="graphics-symbol" aria-roledescription="bar" d="M0,201.9L147.33333333333334,201.9C149.54099343130935,201.9,151.33333333333334,203.692339902024,151.33333333333334,205.9L151.33333333333334,214.1C151.33333333333334,216.307660097976,149.54099343130935,218.1,147.33333333333334,218.1L0,218.1C0,218.1,0,218.1,0,218.1L0,201.9C0,201.9,0,201.9,0,201.9Z" fill="#4c78a8"/><path aria-label="mean execution time in µs: 452; algorithm: inputPerKernelValue Transposed LoopFissionIndexArithmetic" role="graphics-symbol" aria-roledescription="bar" d="M0,181.9L146.66666666666666,181.9C148.87432676464266,181.9,150.66666666666666,183.692339902024,150.66666666666666,185.9L150.66666666666666,194.1C150.66666666666666,196.307660097976,148.87432676464266,198.1,146.66666666666666,198.1L0,198.1C0,198.1,0,198.1,0,198.1L0,181.9C0,181.9,0,181.9,0,181.9Z" fill="#4c78a8"/><path aria-label="mean execution time in µs: 465; algorithm: kernelPerInputValue Transposed LoopFission" role="graphics-symbol" aria-roledescription="bar" d="M0,221.9L151,221.9C153.207660097976,221.9,155,223.692339902024,155,225.9L155,234.1C155,236.307660097976,153.207660097976,238.1,151,238.1L0,238.1C0,238.1,0,238.1,0,238.1L0,221.9C0,221.9,0,221.9,0,221.9Z" fill="#4c78a8"/><path aria-label="mean execution time in µs: 490; algorithm: (matlab-like) conv 'full' shape" role="graphics-symbol" aria-roledescription="bar" d="M0,261.9L159.33333333333334,261.9C161.54099343130935,261.9,163.33333333333334,263.692339902024,163.33333333333334,265.9L163.33333333333334,274.09999999999997C163.33333333333334,276.30766009797594,161.54099343130935,278.09999999999997,159.33333333333334,278.09999999999997L0,278.09999999999997C0,278.09999999999997,0,278.09999999999997,0,278.09999999999997L0,261.9C0,261.9,0,261.9,0,261.9Z" fill="#4c78a8"/><path aria-label="mean execution time in µs: 448; algorithm: (matlab-like) conv 'valid' shape pre padded" role="graphics-symbol" aria-roledescription="bar" d="M0,161.9L145.33333333333334,161.9C147.54099343130935,161.9,149.33333333333334,163.692339902024,149.33333333333334,165.9L149.33333333333334,174.1C149.33333333333334,176.307660097976,147.54099343130935,178.1,145.33333333333334,178.1L0,178.1C0,178.1,0,178.1,0,178.1L0,161.9C0,161.9,0,161.9,0,161.9Z" fill="#4c78a8"/><path aria-label="mean execution time in µs: 586; algorithm: (wilczek) Single" role="graphics-symbol" aria-roledescription="bar" d="M0,281.9L191.33333333333334,281.9C193.54099343130935,281.9,195.33333333333334,283.692339902024,195.33333333333334,285.9L195.33333333333334,294.09999999999997C195.33333333333334,296.30766009797594,193.54099343130935,298.09999999999997,191.33333333333334,298.09999999999997L0,298.09999999999997C0,298.09999999999997,0,298.09999999999997,0,298.09999999999997L0,281.9C0,281.9,0,281.9,0,281.9Z" fill="#4c78a8"/><path aria-label="mean execution time in µs: 375; algorithm: (wilczek) Inner-Loop Vectorization" role="graphics-symbol" aria-roledescription="bar" d="M0,81.9L121,81.9C123.207660097976,81.9,125,83.692339902024,125,85.9L125,94.10000000000001C125,96.30766009797601,123.207660097976,98.10000000000001,121,98.10000000000001L0,98.10000000000001C0,98.10000000000001,0,98.10000000000001,0,98.10000000000001L0,81.9C0,81.9,0,81.9,0,81.9Z" fill="#4c78a8"/><path aria-label="mean execution time in µs: 350; algorithm: (wilczek) Outer-Loop Vectorization" role="graphics-symbol" aria-roledescription="bar" d="M0,61.9L112.66666666666667,61.9C114.87432676464267,61.9,116.66666666666667,63.692339902023996,116.66666666666667,65.9L116.66666666666667,74.1C116.66666666666667,76.307660097976,114.87432676464267,78.1,112.66666666666667,78.1L0,78.1C0,78.1,0,78.1,0,78.1L0,61.9C0,61.9,0,61.9,0,61.9Z" fill="#4c78a8"/><path aria-label="mean execution time in µs: 471; algorithm: (wilczek) Outer- and Inner-Loop Vectorization" role="graphics-symbol" aria-roledescription="bar" d="M0,241.9L153,241.9C155.207660097976,241.9,157,243.692339902024,157,245.9L157,254.10000000000002C157,256.307660097976,155.207660097976,258.1,153,258.1L0,258.1C0,258.1,0,258.1,0,258.1L0,241.9C0,241.9,0,241.9,0,241.9Z" fill="#4c78a8"/><path aria-label="mean execution time in µs: 388; algorithm: (chaowang15) convolve1D" role="graphics-symbol" aria-roledescription="bar" d="M0,121.9L125.33333333333331,121.9C127.54099343130932,121.9,129.33333333333331,123.692339902024,129.33333333333331,125.9L129.33333333333331,134.1C129.33333333333331,136.307660097976,127.54099343130932,138.1,125.33333333333331,138.1L0,138.1C0,138.1,0,138.1,0,138.1L0,121.9C0,121.9,0,121.9,0,121.9Z" fill="#4c78a8"/></g><g class="mark-text role-mark child_layer_1_marks" role="graphics-object" aria-roledescription="text mark container"><text aria-label="mean execution time in µs: 187; algorithm: kernelPerInputValue Transposed; MeanExecutionTime: 187" role="graphics-symbol" aria-roledescription="text mark" text-anchor="start" transform="translate(66.33333333333333,33)" font-family="sans-serif" font-size="9px" fill="black">187</text><text aria-label="mean execution time in µs: 180; algorithm: inputPerKernelValue Transposed; MeanExecutionTime: 180" role="graphics-symbol" aria-roledescription="text mark" text-anchor="start" transform="translate(64,13)" font-family="sans-serif" font-size="9px" fill="black">180</text><text aria-label="mean execution time in µs: 433; algorithm: inputPerKernelValue Transposed InnerLoopUnrolled; MeanExecutionTime: 433" role="graphics-symbol" aria-roledescription="text mark" text-anchor="start" transform="translate(148.33333333333334,153)" font-family="sans-serif" font-size="9px" fill="black">433</text><text aria-label="mean execution time in µs: 388; algorithm: inputPerKernelValue Transposed OuterLoopUnrolled; MeanExecutionTime: 388" role="graphics-symbol" aria-roledescription="text mark" text-anchor="start" transform="translate(133.33333333333331,113)" font-family="sans-serif" font-size="9px" fill="black">388</text><text aria-label="mean execution time in µs: 334; algorithm: inputPerKernelValue Transposed InnerAndOuterLoopUnrolled; MeanExecutionTime: 334" role="graphics-symbol" aria-roledescription="text mark" text-anchor="start" transform="translate(115.33333333333333,53)" font-family="sans-serif" font-size="9px" fill="black">334</text><text aria-label="mean execution time in µs: 454; algorithm: inputPerKernelValue Transposed LoopFission; MeanExecutionTime: 454" role="graphics-symbol" aria-roledescription="text mark" text-anchor="start" transform="translate(155.33333333333334,213)" font-family="sans-serif" font-size="9px" fill="black">454</text><text aria-label="mean execution time in µs: 452; algorithm: inputPerKernelValue Transposed LoopFissionIndexArithmetic; MeanExecutionTime: 452" role="graphics-symbol" aria-roledescription="text mark" text-anchor="start" transform="translate(154.66666666666666,193)" font-family="sans-serif" font-size="9px" fill="black">452</text><text aria-label="mean execution time in µs: 465; algorithm: kernelPerInputValue Transposed LoopFission; MeanExecutionTime: 465" role="graphics-symbol" aria-roledescription="text mark" text-anchor="start" transform="translate(159,233)" font-family="sans-serif" font-size="9px" fill="black">465</text><text aria-label="mean execution time in µs: 490; algorithm: (matlab-like) conv 'full' shape; MeanExecutionTime: 490" role="graphics-symbol" aria-roledescription="text mark" text-anchor="start" transform="translate(167.33333333333334,273)" font-family="sans-serif" font-size="9px" fill="black">490</text><text aria-label="mean execution time in µs: 448; algorithm: (matlab-like) conv 'valid' shape pre padded; MeanExecutionTime: 448" role="graphics-symbol" aria-roledescription="text mark" text-anchor="start" transform="translate(153.33333333333334,173)" font-family="sans-serif" font-size="9px" fill="black">448</text><text aria-label="mean execution time in µs: 586; algorithm: (wilczek) Single; MeanExecutionTime: 586" role="graphics-symbol" aria-roledescription="text mark" text-anchor="start" transform="translate(199.33333333333334,293)" font-family="sans-serif" font-size="9px" fill="black">586</text><text aria-label="mean execution time in µs: 375; algorithm: (wilczek) Inner-Loop Vectorization; MeanExecutionTime: 375" role="graphics-symbol" aria-roledescription="text mark" text-anchor="start" transform="translate(129,93)" font-family="sans-serif" font-size="9px" fill="black">375</text><text aria-label="mean execution time in µs: 350; algorithm: (wilczek) Outer-Loop Vectorization; MeanExecutionTime: 350" role="graphics-symbol" aria-roledescription="text mark" text-anchor="start" transform="translate(120.66666666666667,73)" font-family="sans-serif" font-size="9px" fill="black">350</text><text aria-label="mean execution time in µs: 471; algorithm: (wilczek) Outer- and Inner-Loop Vectorization; MeanExecutionTime: 471" role="graphics-symbol" aria-roledescription="text mark" text-anchor="start" transform="translate(161,253)" font-family="sans-serif" font-size="9px" fill="black">471</text><text aria-label="mean execution time in µs: 388; algorithm: (chaowang15) convolve1D; MeanExecutionTime: 388" role="graphics-symbol" aria-roledescription="text mark" text-anchor="start" transform="translate(133.33333333333331,133)" font-family="sans-serif" font-size="9px" fill="black">388</text></g></g><path class="foreground" aria-hidden="true" d="" display="none"/></g><g transform="translate(568,0)"><path class="background" aria-hidden="true" d="M0.5,0.5h200v300h-200Z" stroke="#ddd"/><g><g class="mark-group role-axis" aria-hidden="true"><g transform="translate(0.5,300.5)"><path class="background" aria-hidden="true" d="M0,0h0v0h0Z" pointer-events="none"/><g><g class="mark-rule role-axis-grid" pointer-events="none"><line transform="translate(0,0)" x2="0" y2="-300" stroke="#ddd" stroke-width="1" opacity="1"/><line transform="translate(29,0)" x2="0" y2="-300" stroke="#ddd" stroke-width="1" opacity="1"/><line transform="translate(57,0)" x2="0" y2="-300" stroke="#ddd" stroke-width="1" opacity="1"/><line transform="translate(86,0)" x2="0" y2="-300" stroke="#ddd" stroke-width="1" opacity="1"/><line transform="translate(114,0)" x2="0" y2="-300" stroke="#ddd" stroke-width="1" opacity="1"/><line transform="translate(143,0)" x2="0" y2="-300" stroke="#ddd" stroke-width="1" opacity="1"/><line transform="translate(171,0)" x2="0" y2="-300" stroke="#ddd" stroke-width="1" opacity="1"/><line transform="translate(200,0)" x2="0" y2="-300" stroke="#ddd" stroke-width="1" opacity="1"/></g></g><path class="foreground" aria-hidden="true" d="" pointer-events="none" display="none"/></g></g><g class="mark-group role-axis" role="graphics-symbol" aria-roledescription="axis" aria-label="X-axis titled 'mean execution time in µs' for a linear scale with values from 0 to 35,000"><g transform="translate(0.5,300.5)"><path class="background" aria-hidden="true" d="M0,0h0v0h0Z" pointer-events="none"/><g><g class="mark-rule role-axis-tick" pointer-events="none"><line transform="translate(0,0)" x2="0" y2="5" stroke="#888" stroke-width="1" opacity="1"/><line transform="translate(29,0)" x2="0" y2="5" stroke="#888" stroke-width="1" opacity="1"/><line transform="translate(57,0)" x2="0" y2="5" stroke="#888" stroke-width="1" opacity="1"/><line transform="translate(86,0)" x2="0" y2="5" stroke="#888" stroke-width="1" opacity="1"/><line transform="translate(114,0)" x2="0" y2="5" stroke="#888" stroke-width="1" opacity="1"/><line transform="translate(143,0)" x2="0" y2="5" stroke="#888" stroke-width="1" opacity="1"/><line transform="translate(171,0)" x2="0" y2="5" stroke="#888" stroke-width="1" opacity="1"/><line transform="translate(200,0)" x2="0" y2="5" stroke="#888" stroke-width="1" opacity="1"/></g><g class="mark-text role-axis-label" pointer-events="none"><text text-anchor="start" transform="translate(0,15)" font-family="sans-serif" font-size="10px" fill="#000" opacity="1">0</text><text text-anchor="middle" transform="translate(28.57142857142857,15)" font-family="sans-serif" font-size="10px" fill="#000" opacity="0">5,000</text><text text-anchor="middle" transform="translate(57.14285714285714,15)" font-family="sans-serif" font-size="10px" fill="#000" opacity="1">10,000</text><text text-anchor="middle" transform="translate(85.71428571428571,15)" font-family="sans-serif" font-size="10px" fill="#000" opacity="0">15,000</text><text text-anchor="middle" transform="translate(114.28571428571428,15)" font-family="sans-serif" font-size="10px" fill="#000" opacity="1">20,000</text><text text-anchor="middle" transform="translate(142.85714285714286,15)" font-family="sans-serif" font-size="10px" fill="#000" opacity="0">25,000</text><text text-anchor="middle" transform="translate(171.42857142857142,15)" font-family="sans-serif" font-size="10px" fill="#000" opacity="1">30,000</text><text text-anchor="end" transform="translate(200,15)" font-family="sans-serif" font-size="10px" fill="#000" opacity="0">35,000</text></g><g class="mark-rule role-axis-domain" pointer-events="none"><line transform="translate(0,0)" x2="200" y2="0" stroke="#888" stroke-width="1" opacity="1"/></g><g class="mark-text role-axis-title" pointer-events="none"><text text-anchor="middle" transform="translate(100,30)" font-family="sans-serif" font-size="11px" font-weight="bold" fill="#000" opacity="1">mean execution time in µs</text></g></g><path class="foreground" aria-hidden="true" d="" pointer-events="none" display="none"/></g></g><g class="mark-group role-axis" role="graphics-symbol" aria-roledescription="axis" aria-label="Y-axis titled 'algorithm' for a discrete scale with 15 values: kernelPerInputValue Transposed, inputPerKernelValue Transposed, (wilczek) Outer-Loop Vectorization, (wilczek) Inner-Loop Vectorization, inputPerKernelValue Transposed InnerAndOuterLoopUnrolled, ending with (wilczek) Single"><g transform="translate(0.5,0.5)"><path class="background" aria-hidden="true" d="M0,0h0v0h0Z" pointer-events="none"/><g><g class="mark-rule role-axis-tick" pointer-events="none"><line transform="translate(0,10)" x2="-5" y2="0" stroke="#888" stroke-width="1" opacity="1"/><line transform="translate(0,30)" x2="-5" y2="0" stroke="#888" stroke-width="1" opacity="1"/><line transform="translate(0,50)" x2="-5" y2="0" stroke="#888" stroke-width="1" opacity="1"/><line transform="translate(0,70)" x2="-5" y2="0" stroke="#888" stroke-width="1" opacity="1"/><line transform="translate(0,90)" x2="-5" y2="0" stroke="#888" stroke-width="1" opacity="1"/><line transform="translate(0,110)" x2="-5" y2="0" stroke="#888" stroke-width="1" opacity="1"/><line transform="translate(0,130)" x2="-5" y2="0" stroke="#888" stroke-width="1" opacity="1"/><line transform="translate(0,150)" x2="-5" y2="0" stroke="#888" stroke-width="1" opacity="1"/><line transform="translate(0,170)" x2="-5" y2="0" stroke="#888" stroke-width="1" opacity="1"/><line transform="translate(0,190)" x2="-5" y2="0" stroke="#888" stroke-width="1" opacity="1"/><line transform="translate(0,210)" x2="-5" y2="0" stroke="#888" stroke-width="1" opacity="1"/><line transform="translate(0,230)" x2="-5" y2="0" stroke="#888" stroke-width="1" opacity="1"/><line transform="translate(0,250)" x2="-5" y2="0" stroke="#888" stroke-width="1" opacity="1"/><line transform="translate(0,270)" x2="-5" y2="0" stroke="#888" stroke-width="1" opacity="1"/><line transform="translate(0,290)" x2="-5" y2="0" stroke="#888" stroke-width="1" opacity="1"/></g><g class="mark-text role-axis-label" pointer-events="none"><text text-anchor="end" transform="translate(-7,12.5)" font-family="sans-serif" font-size="10px" fill="#000" opacity="1">kernelPerInputValue Transposed</text><text text-anchor="end" transform="translate(-7,32.5)" font-family="sans-serif" font-size="10px" fill="#000" opacity="1">inputPerKernelValue Transposed</text><text text-anchor="end" transform="translate(-7,52.5)" font-family="sans-serif" font-size="10px" fill="#000" opacity="1">(wilczek) Outer-Loop Vectorization</text><text text-anchor="end" transform="translate(-7,72.5)" font-family="sans-serif" font-size="10px" fill="#000" opacity="1">(wilczek) Inner-Loop Vectorization</text><text text-anchor="end" transform="translate(-7,92.5)" font-family="sans-serif" font-size="10px" fill="#000" opacity="1">inputPerKernelValue Transposed InnerAndOuterLoopUnrolled</text><text text-anchor="end" transform="translate(-7,112.5)" font-family="sans-serif" font-size="10px" fill="#000" opacity="1">kernelPerInputValue Transposed LoopFission</text><text text-anchor="end" transform="translate(-7,132.5)" font-family="sans-serif" font-size="10px" fill="#000" opacity="1">inputPerKernelValue Transposed OuterLoopUnrolled</text><text text-anchor="end" transform="translate(-7,152.5)" font-family="sans-serif" font-size="10px" fill="#000" opacity="1">(matlab-like) conv 'full' shape</text><text text-anchor="end" transform="translate(-7,172.5)" font-family="sans-serif" font-size="10px" fill="#000" opacity="1">(chaowang15) convolve1D</text><text text-anchor="end" transform="translate(-7,192.5)" font-family="sans-serif" font-size="10px" fill="#000" opacity="1">(matlab-like) conv 'valid' shape pre padded</text><text text-anchor="end" transform="translate(-7,212.5)" font-family="sans-serif" font-size="10px" fill="#000" opacity="1">inputPerKernelValue Transposed InnerLoopUnrolled</text><text text-anchor="end" transform="translate(-7,232.5)" font-family="sans-serif" font-size="10px" fill="#000" opacity="1">inputPerKernelValue Transposed LoopFissionIndexArithmetic</text><text text-anchor="end" transform="translate(-7,252.5)" font-family="sans-serif" font-size="10px" fill="#000" opacity="1">inputPerKernelValue Transposed LoopFission</text><text text-anchor="end" transform="translate(-7,272.5)" font-family="sans-serif" font-size="10px" fill="#000" opacity="1">(wilczek) Outer- and Inner-Loop Vectorization</text><text text-anchor="end" transform="translate(-7,292.5)" font-family="sans-serif" font-size="10px" fill="#000" opacity="1">(wilczek) Single</text></g><g class="mark-rule role-axis-domain" pointer-events="none"><line transform="translate(0,0)" x2="0" y2="300" stroke="#888" stroke-width="1" opacity="1"/></g><g class="mark-text role-axis-title" pointer-events="none"><text text-anchor="middle" transform="translate(-320,150) rotate(-90) translate(0,-2)" font-family="sans-serif" font-size="11px" font-weight="bold" fill="#000" opacity="1">algorithm</text></g></g><path class="foreground" aria-hidden="true" d="" pointer-events="none" display="none"/></g></g><g class="mark-rect role-mark child_layer_0_marks" role="graphics-object" aria-roledescription="rect mark container"><path aria-label="mean execution time in µs: 5512; algorithm: kernelPerInputValue Transposed" role="graphics-symbol" aria-roledescription="bar" d="M0,1.9L27.497142857142858,1.9C29.704802955118858,1.9,31.497142857142858,3.692339902024,31.497142857142858,5.9L31.497142857142858,14.099999999999998C31.497142857142858,16.307660097975997,29.704802955118858,18.099999999999998,27.497142857142858,18.099999999999998L0,18.099999999999998C0,18.099999999999998,0,18.099999999999998,0,18.099999999999998L0,1.9C0,1.9,0,1.9,0,1.9Z" fill="#4c78a8"/><path aria-label="mean execution time in µs: 10160; algorithm: inputPerKernelValue Transposed" role="graphics-symbol" aria-roledescription="bar" d="M0,21.9L54.05714285714285,21.9C56.26480295511885,21.9,58.05714285714285,23.692339902024,58.05714285714285,25.9L58.05714285714285,34.099999999999994C58.05714285714285,36.307660097976,56.26480295511885,38.099999999999994,54.05714285714285,38.099999999999994L0,38.099999999999994C0,38.099999999999994,0,38.099999999999994,0,38.099999999999994L0,21.9C0,21.9,0,21.9,0,21.9Z" fill="#4c78a8"/><path aria-label="mean execution time in µs: 27785; algorithm: inputPerKernelValue Transposed InnerLoopUnrolled" role="graphics-symbol" aria-roledescription="bar" d="M0,201.9L154.77142857142857,201.9C156.97908866940458,201.9,158.77142857142857,203.692339902024,158.77142857142857,205.9L158.77142857142857,214.1C158.77142857142857,216.307660097976,156.97908866940458,218.1,154.77142857142857,218.1L0,218.1C0,218.1,0,218.1,0,218.1L0,201.9C0,201.9,0,201.9,0,201.9Z" fill="#4c78a8"/><path aria-label="mean execution time in µs: 24396; algorithm: inputPerKernelValue Transposed OuterLoopUnrolled" role="graphics-symbol" aria-roledescription="bar" d="M0,121.9L135.40571428571428,121.9C137.61337438369029,121.9,139.40571428571428,123.692339902024,139.40571428571428,125.9L139.40571428571428,134.1C139.40571428571428,136.307660097976,137.61337438369029,138.1,135.40571428571428,138.1L0,138.1C0,138.1,0,138.1,0,138.1L0,121.9C0,121.9,0,121.9,0,121.9Z" fill="#4c78a8"/><path aria-label="mean execution time in µs: 21213; algorithm: inputPerKernelValue Transposed InnerAndOuterLoopUnrolled" role="graphics-symbol" aria-roledescription="bar" d="M0,81.9L117.21714285714287,81.9C119.42480295511888,81.9,121.21714285714287,83.692339902024,121.21714285714287,85.9L121.21714285714287,94.10000000000001C121.21714285714287,96.30766009797601,119.42480295511888,98.10000000000001,117.21714285714287,98.10000000000001L0,98.10000000000001C0,98.10000000000001,0,98.10000000000001,0,98.10000000000001L0,81.9C0,81.9,0,81.9,0,81.9Z" fill="#4c78a8"/><path aria-label="mean execution time in µs: 28719; algorithm: inputPerKernelValue Transposed LoopFission" role="graphics-symbol" aria-roledescription="bar" d="M0,241.9L160.10857142857142,241.9C162.31623152654743,241.9,164.10857142857142,243.692339902024,164.10857142857142,245.9L164.10857142857142,254.10000000000002C164.10857142857142,256.307660097976,162.31623152654743,258.1,160.10857142857142,258.1L0,258.1C0,258.1,0,258.1,0,258.1L0,241.9C0,241.9,0,241.9,0,241.9Z" fill="#4c78a8"/><path aria-label="mean execution time in µs: 28529; algorithm: inputPerKernelValue Transposed LoopFissionIndexArithmetic" role="graphics-symbol" aria-roledescription="bar" d="M0,221.9L159.02285714285713,221.9C161.23051724083314,221.9,163.02285714285713,223.692339902024,163.02285714285713,225.9L163.02285714285713,234.1C163.02285714285713,236.307660097976,161.23051724083314,238.1,159.02285714285713,238.1L0,238.1C0,238.1,0,238.1,0,238.1L0,221.9C0,221.9,0,221.9,0,221.9Z" fill="#4c78a8"/><path aria-label="mean execution time in µs: 21632; algorithm: kernelPerInputValue Transposed LoopFission" role="graphics-symbol" aria-roledescription="bar" d="M0,101.9L119.61142857142858,101.9C121.81908866940458,101.9,123.61142857142858,103.692339902024,123.61142857142858,105.9L123.61142857142858,114.10000000000001C123.61142857142858,116.30766009797601,121.81908866940458,118.10000000000001,119.61142857142858,118.10000000000001L0,118.10000000000001C0,118.10000000000001,0,118.10000000000001,0,118.10000000000001L0,101.9C0,101.9,0,101.9,0,101.9Z" fill="#4c78a8"/><path aria-label="mean execution time in µs: 24807; algorithm: (matlab-like) conv 'full' shape" role="graphics-symbol" aria-roledescription="bar" d="M0,141.9L137.75428571428571,141.9C139.96194581226172,141.9,141.75428571428571,143.692339902024,141.75428571428571,145.9L141.75428571428571,154.1C141.75428571428571,156.307660097976,139.96194581226172,158.1,137.75428571428571,158.1L0,158.1C0,158.1,0,158.1,0,158.1L0,141.9C0,141.9,0,141.9,0,141.9Z" fill="#4c78a8"/><path aria-label="mean execution time in µs: 26293; algorithm: (matlab-like) conv 'valid' shape pre padded" role="graphics-symbol" aria-roledescription="bar" d="M0,181.9L146.24571428571429,181.9C148.4533743836903,181.9,150.24571428571429,183.692339902024,150.24571428571429,185.9L150.24571428571429,194.1C150.24571428571429,196.307660097976,148.4533743836903,198.1,146.24571428571429,198.1L0,198.1C0,198.1,0,198.1,0,198.1L0,181.9C0,181.9,0,181.9,0,181.9Z" fill="#4c78a8"/><path aria-label="mean execution time in µs: 31830; algorithm: (wilczek) Single" role="graphics-symbol" aria-roledescription="bar" d="M0,281.9L177.8857142857143,281.9C180.0933743836903,281.9,181.8857142857143,283.692339902024,181.8857142857143,285.9L181.8857142857143,294.09999999999997C181.8857142857143,296.30766009797594,180.0933743836903,298.09999999999997,177.8857142857143,298.09999999999997L0,298.09999999999997C0,298.09999999999997,0,298.09999999999997,0,298.09999999999997L0,281.9C0,281.9,0,281.9,0,281.9Z" fill="#4c78a8"/><path aria-label="mean execution time in µs: 19775; algorithm: (wilczek) Inner-Loop Vectorization" role="graphics-symbol" aria-roledescription="bar" d="M0,61.9L108.99999999999999,61.9C111.20766009797599,61.9,112.99999999999999,63.692339902023996,112.99999999999999,65.9L112.99999999999999,74.1C112.99999999999999,76.307660097976,111.20766009797599,78.1,108.99999999999999,78.1L0,78.1C0,78.1,0,78.1,0,78.1L0,61.9C0,61.9,0,61.9,0,61.9Z" fill="#4c78a8"/><path aria-label="mean execution time in µs: 19554; algorithm: (wilczek) Outer-Loop Vectorization" role="graphics-symbol" aria-roledescription="bar" d="M0,41.9L107.73714285714287,41.9C109.94480295511887,41.9,111.73714285714287,43.692339902023996,111.73714285714287,45.9L111.73714285714287,54.099999999999994C111.73714285714287,56.307660097976,109.94480295511887,58.099999999999994,107.73714285714287,58.099999999999994L0,58.099999999999994C0,58.099999999999994,0,58.099999999999994,0,58.099999999999994L0,41.9C0,41.9,0,41.9,0,41.9Z" fill="#4c78a8"/><path aria-label="mean execution time in µs: 29166; algorithm: (wilczek) Outer- and Inner-Loop Vectorization" role="graphics-symbol" aria-roledescription="bar" d="M0,261.9L162.66285714285715,261.9C164.87051724083315,261.9,166.66285714285715,263.692339902024,166.66285714285715,265.9L166.66285714285715,274.09999999999997C166.66285714285715,276.30766009797594,164.87051724083315,278.09999999999997,162.66285714285715,278.09999999999997L0,278.09999999999997C0,278.09999999999997,0,278.09999999999997,0,278.09999999999997L0,261.9C0,261.9,0,261.9,0,261.9Z" fill="#4c78a8"/><path aria-label="mean execution time in µs: 25419; algorithm: (chaowang15) convolve1D" role="graphics-symbol" aria-roledescription="bar" d="M0,161.9L141.25142857142856,161.9C143.45908866940457,161.9,145.25142857142856,163.692339902024,145.25142857142856,165.9L145.25142857142856,174.1C145.25142857142856,176.307660097976,143.45908866940457,178.1,141.25142857142856,178.1L0,178.1C0,178.1,0,178.1,0,178.1L0,161.9C0,161.9,0,161.9,0,161.9Z" fill="#4c78a8"/></g><g class="mark-text role-mark child_layer_1_marks" role="graphics-object" aria-roledescription="text mark container"><text aria-label="mean execution time in µs: 5512; algorithm: kernelPerInputValue Transposed; MeanExecutionTime: 5512" role="graphics-symbol" aria-roledescription="text mark" text-anchor="start" transform="translate(35.49714285714286,13)" font-family="sans-serif" font-size="9px" fill="black">5512</text><text aria-label="mean execution time in µs: 10160; algorithm: inputPerKernelValue Transposed; MeanExecutionTime: 10160" role="graphics-symbol" aria-roledescription="text mark" text-anchor="start" transform="translate(62.05714285714285,33)" font-family="sans-serif" font-size="9px" fill="black">10160</text><text aria-label="mean execution time in µs: 27785; algorithm: inputPerKernelValue Transposed InnerLoopUnrolled; MeanExecutionTime: 27785" role="graphics-symbol" aria-roledescription="text mark" text-anchor="start" transform="translate(162.77142857142857,213)" font-family="sans-serif" font-size="9px" fill="black">27785</text><text aria-label="mean execution time in µs: 24396; algorithm: inputPerKernelValue Transposed OuterLoopUnrolled; MeanExecutionTime: 24396" role="graphics-symbol" aria-roledescription="text mark" text-anchor="start" transform="translate(143.40571428571428,133)" font-family="sans-serif" font-size="9px" fill="black">24396</text><text aria-label="mean execution time in µs: 21213; algorithm: inputPerKernelValue Transposed InnerAndOuterLoopUnrolled; MeanExecutionTime: 21213" role="graphics-symbol" aria-roledescription="text mark" text-anchor="start" transform="translate(125.21714285714287,93)" font-family="sans-serif" font-size="9px" fill="black">21213</text><text aria-label="mean execution time in µs: 28719; algorithm: inputPerKernelValue Transposed LoopFission; MeanExecutionTime: 28719" role="graphics-symbol" aria-roledescription="text mark" text-anchor="start" transform="translate(168.10857142857142,253)" font-family="sans-serif" font-size="9px" fill="black">28719</text><text aria-label="mean execution time in µs: 28529; algorithm: inputPerKernelValue Transposed LoopFissionIndexArithmetic; MeanExecutionTime: 28529" role="graphics-symbol" aria-roledescription="text mark" text-anchor="start" transform="translate(167.02285714285713,233)" font-family="sans-serif" font-size="9px" fill="black">28529</text><text aria-label="mean execution time in µs: 21632; algorithm: kernelPerInputValue Transposed LoopFission; MeanExecutionTime: 21632" role="graphics-symbol" aria-roledescription="text mark" text-anchor="start" transform="translate(127.61142857142858,113)" font-family="sans-serif" font-size="9px" fill="black">21632</text><text aria-label="mean execution time in µs: 24807; algorithm: (matlab-like) conv 'full' shape; MeanExecutionTime: 24807" role="graphics-symbol" aria-roledescription="text mark" text-anchor="start" transform="translate(145.75428571428571,153)" font-family="sans-serif" font-size="9px" fill="black">24807</text><text aria-label="mean execution time in µs: 26293; algorithm: (matlab-like) conv 'valid' shape pre padded; MeanExecutionTime: 26293" role="graphics-symbol" aria-roledescription="text mark" text-anchor="start" transform="translate(154.24571428571429,193)" font-family="sans-serif" font-size="9px" fill="black">26293</text><text aria-label="mean execution time in µs: 31830; algorithm: (wilczek) Single; MeanExecutionTime: 31830" role="graphics-symbol" aria-roledescription="text mark" text-anchor="start" transform="translate(185.8857142857143,293)" font-family="sans-serif" font-size="9px" fill="black">31830</text><text aria-label="mean execution time in µs: 19775; algorithm: (wilczek) Inner-Loop Vectorization; MeanExecutionTime: 19775" role="graphics-symbol" aria-roledescription="text mark" text-anchor="start" transform="translate(116.99999999999999,73)" font-family="sans-serif" font-size="9px" fill="black">19775</text><text aria-label="mean execution time in µs: 19554; algorithm: (wilczek) Outer-Loop Vectorization; MeanExecutionTime: 19554" role="graphics-symbol" aria-roledescription="text mark" text-anchor="start" transform="translate(115.73714285714287,53)" font-family="sans-serif" font-size="9px" fill="black">19554</text><text aria-label="mean execution time in µs: 29166; algorithm: (wilczek) Outer- and Inner-Loop Vectorization; MeanExecutionTime: 29166" role="graphics-symbol" aria-roledescription="text mark" text-anchor="start" transform="translate(170.66285714285715,273)" font-family="sans-serif" font-size="9px" fill="black">29166</text><text aria-label="mean execution time in µs: 25419; algorithm: (chaowang15) convolve1D; MeanExecutionTime: 25419" role="graphics-symbol" aria-roledescription="text mark" text-anchor="start" transform="translate(149.25142857142856,173)" font-family="sans-serif" font-size="9px" fill="black">25419</text></g></g><path class="foreground" aria-hidden="true" d="" display="none"/></g></g></g><path class="foreground" aria-hidden="true" d="" display="none"/></g></g></g></svg>