<svg xmlns="http://www.w3.org/2000/svg" xmlns:xlink="http://www.w3.org/1999/xlink" version="1.1" class="marks" width="1493" height="464" viewBox="0 0 1493 464"><rect width="1493" height="464" fill="white"/><g fill="none" stroke-miterlimit="10" transform="translate(509,66)"><g class="mark-group role-frame root" role="graphics-object" aria-roledescription="group mark container"><g transform="translate(0,0)"><path class="background" aria-hidden="true" d="M0,0h0v0h0Z"/><g><g class="mark-group role-column-title column-title" role="graphics-object" aria-roledescription="group mark container"><g transform="translate(237,-35)"><path class="background" aria-hidden="true" d="M0,0h0v0h0Z"/><g><g class="mark-group role-title"><g transform="translate(0,-26)"><path class="background" aria-hidden="true" d="M0,0h0v0h0Z" pointer-events="none"/><g><g class="mark-text role-title-text" role="graphics-symbol" aria-roledescription="title" aria-label="Title text 'Convolution Benchmarks'" pointer-events="none"><text text-anchor="middle" transform="translate(0,13)" font-family="sans-serif" font-size="16px" font-weight="bold" fill="#000" opacity="1">Convolution Benchmarks</text></g></g><path class="foreground" aria-hidden="true" d="" pointer-events="none" display="none"/></g></g></g><path class="foreground" aria-hidden="true" d="" display="none"/></g></g><g class="mark-group role-column-header column_header" role="graphics-object" aria-roledescription="group mark container"><g transform="translate(0,-1)"><path class="background" aria-hidden="true" d="M0,0h200v0h-200Z"/><g><g class="mark-group role-title"><g transform="translate(100,-24)"><path class="background" aria-hidden="true" d="M0,0h0v0h0Z" pointer-events="none"/><g><g class="mark-text role-title-text" role="graphics-symbol" aria-roledescription="title" aria-label="Title text 'kernel size 16'" pointer-events="none"><text text-anchor="middle" transform="translate(0,11)" font-family="sans-serif" font-size="14px" fill="#000" opacity="1">kernel size 16</text></g></g><path class="foreground" aria-hidden="true" d="" pointer-events="none" display="none"/></g></g></g><path class="foreground" aria-hidden="true" d="" display="none"/></g><g transform="translate(746,-1)"><path class="background" aria-hidden="true" d="M0,0h200v0h-200Z"/><g><g class="mark-group role-title"><g transform="translate(100,-24)"><path class="background" aria-hidden="true" d="M0,0h0v0h0Z" pointer-events="none"/><g><g class="mark-text role-title-text" role="graphics-symbol" aria-roledescription="title" aria-label="Title text 'kernel size 512'" pointer-events="none"><text text-anchor="middle" transform="translate(0,11)" font-family="sans-serif" font-size="14px" fill="#000" opacity="1">kernel size 512</text></g></g><path class="foreground" aria-hidden="true" d="" pointer-events="none" display="none"/></g></g></g><path class="foreground" aria-hidden="true" d="" display="none"/></g></g><g class="mark-group role-scope cell" role="graphics-object" aria-roledescription="group mark container"><g transform="translate(0,0)"><path class="background" aria-hidden="true" d="M0.5,0.5h200v360h-200Z" stroke="#ddd"/><g><g class="mark-group role-axis" aria-hidden="true"><g transform="translate(0.5,360.5)"><path class="background" aria-hidden="true" d="M0,0h0v0h0Z" pointer-events="none"/><g><g class="mark-rule role-axis-grid" pointer-events="none"><line transform="translate(0,0)" x2="0" y2="-360" stroke="#ddd" stroke-width="1" opacity="1"/><line transform="translate(50,0)" x2="0" y2="-360" stroke="#ddd" stroke-width="1" opacity="1"/><line transform="translate(100,0)" x2="0" y2="-360" stroke="#ddd" stroke-width="1" opacity="1"/><line transform="translate(150,0)" x2="0" y2="-360" stroke="#ddd" stroke-width="1" opacity="1"/><line transform="translate(200,0)" x2="0" y2="-360" stroke="#ddd" stroke-width="1" opacity="1"/></g></g><path class="foreground" aria-hidden="true" d="" pointer-events="none" display="none"/></g></g><g class="mark-group role-axis" role="graphics-symbol" aria-roledescription="axis" aria-label="X-axis titled 'mean execution time in µs' for a linear scale with values from 0 to 200"><g transform="translate(0.5,360.5)"><path class="background" aria-hidden="true" d="M0,0h0v0h0Z" pointer-events="none"/><g><g class="mark-rule role-axis-tick" pointer-events="none"><line transform="translate(0,0)" x2="0" y2="5" stroke="#888" stroke-width="1" opacity="1"/><line transform="translate(50,0)" x2="0" y2="5" stroke="#888" stroke-width="1" opacity="1"/><line transform="translate(100,0)" x2="0" y2="5" stroke="#888" stroke-width="1" opacity="1"/><line transform="translate(150,0)" x2="0" y2="5" stroke="#888" stroke-width="1" opacity="1"/><line transform="translate(200,0)" x2="0" y2="5" stroke="#888" stroke-width="1" opacity="1"/></g><g class="mark-text role-axis-label" pointer-events="none"><text text-anchor="start" transform="translate(0,15)" font-family="sans-serif" font-size="10px" fill="#000" opacity="1">0</text><text text-anchor="middle" transform="translate(50,15)" font-family="sans-serif" font-size="10px" fill="#000" opacity="1">50</text><text text-anchor="middle" transform="translate(100,15)" font-family="sans-serif" font-size="10px" fill="#000" opacity="1">100</text><text text-anchor="middle" transform="translate(150,15)" font-family="sans-serif" font-size="10px" fill="#000" opacity="1">150</text><text text-anchor="end" transform="translate(200,15)" font-family="sans-serif" font-size="10px" fill="#000" opacity="1">200</text></g><g class="mark-rule role-axis-domain" pointer-events="none"><line transform="translate(0,0)" x2="200" y2="0" stroke="#888" stroke-width="1" opacity="1"/></g><g class="mark-text role-axis-title" pointer-events="none"><text text-anchor="middle" transform="translate(100,30)" font-family="sans-serif" font-size="11px" font-weight="bold" fill="#000" opacity="1">mean execution time in µs</text></g></g><path class="foreground" aria-hidden="true" d="" pointer-events="none" display="none"/></g></g><g class="mark-group role-axis" role="graphics-symbol" aria-roledescription="axis" aria-label="Y-axis titled 'algorithm' for a discrete scale with 18 values: (wilczek) AVX NoAlign Outer- and Inner-Loop Vectorization, (wilczek) AVX NoAlign Outer-Loop Vectorization, (wilczek) AVX NoAlign Inner-Loop Vectorization, (JohT) inputPerKernelValue Transposed LoopFission, (JohT) inputPerKernelValue Transposed LoopFissionIndexArithmetic, ending with (wilczek) Outer-Loop Vectorization"><g transform="translate(0.5,0.5)"><path class="background" aria-hidden="true" d="M0,0h0v0h0Z" pointer-events="none"/><g><g class="mark-rule role-axis-tick" pointer-events="none"><line transform="translate(0,10)" x2="-5" y2="0" stroke="#888" stroke-width="1" opacity="1"/><line transform="translate(0,30)" x2="-5" y2="0" stroke="#888" stroke-width="1" opacity="1"/><line transform="translate(0,50)" x2="-5" y2="0" stroke="#888" stroke-width="1" opacity="1"/><line transform="translate(0,70)" x2="-5" y2="0" stroke="#888" stroke-width="1" opacity="1"/><line transform="translate(0,90)" x2="-5" y2="0" stroke="#888" stroke-width="1" opacity="1"/><line transform="translate(0,110)" x2="-5" y2="0" stroke="#888" stroke-width="1" opacity="1"/><line transform="translate(0,130)" x2="-5" y2="0" stroke="#888" stroke-width="1" opacity="1"/><line transform="translate(0,150)" x2="-5" y2="0" stroke="#888" stroke-width="1" opacity="1"/><line transform="translate(0,170)" x2="-5" y2="0" stroke="#888" stroke-width="1" opacity="1"/><line transform="translate(0,190)" x2="-5" y2="0" stroke="#888" stroke-width="1" opacity="1"/><line transform="translate(0,210)" x2="-5" y2="0" stroke="#888" stroke-width="1" opacity="1"/><line transform="translate(0,230)" x2="-5" y2="0" stroke="#888" stroke-width="1" opacity="1"/><line transform="translate(0,250)" x2="-5" y2="0" stroke="#888" stroke-width="1" opacity="1"/><line transform="translate(0,270)" x2="-5" y2="0" stroke="#888" stroke-width="1" opacity="1"/><line transform="translate(0,290)" x2="-5" y2="0" stroke="#888" stroke-width="1" opacity="1"/><line transform="translate(0,310)" x2="-5" y2="0" stroke="#888" stroke-width="1" opacity="1"/><line transform="translate(0,330)" x2="-5" y2="0" stroke="#888" stroke-width="1" opacity="1"/><line transform="translate(0,350)" x2="-5" y2="0" stroke="#888" stroke-width="1" opacity="1"/></g><g class="mark-text role-axis-label" pointer-events="none"><text text-anchor="end" transform="translate(-7,12.5)" font-family="sans-serif" font-size="10px" fill="#000" opacity="1">(wilczek) AVX NoAlign Outer- and Inner-Loop Vectorization</text><text text-anchor="end" transform="translate(-7,32.5)" font-family="sans-serif" font-size="10px" fill="#000" opacity="1">(wilczek) AVX NoAlign Outer-Loop Vectorization</text><text text-anchor="end" transform="translate(-7,52.5)" font-family="sans-serif" font-size="10px" fill="#000" opacity="1">(wilczek) AVX NoAlign Inner-Loop Vectorization</text><text text-anchor="end" transform="translate(-7,72.5)" font-family="sans-serif" font-size="10px" fill="#000" opacity="1">(JohT) inputPerKernelValue Transposed LoopFission</text><text text-anchor="end" transform="translate(-7,92.5)" font-family="sans-serif" font-size="10px" fill="#000" opacity="1">(JohT) inputPerKernelValue Transposed LoopFissionIndexArithme…</text><text text-anchor="end" transform="translate(-7,112.5)" font-family="sans-serif" font-size="10px" fill="#000" opacity="1">(JohT) inputPerKernelValue Transposed</text><text text-anchor="end" transform="translate(-7,132.5)" font-family="sans-serif" font-size="10px" fill="#000" opacity="1">(wilczek) Inner-Loop Vectorization</text><text text-anchor="end" transform="translate(-7,152.5)" font-family="sans-serif" font-size="10px" fill="#000" opacity="1">(JohT) inputPerKernelValue Transposed Inner&amp;OuterLoopUnrolled</text><text text-anchor="end" transform="translate(-7,172.5)" font-family="sans-serif" font-size="10px" fill="#000" opacity="1">(wilczek) Outer- and Inner-Loop Vectorization</text><text text-anchor="end" transform="translate(-7,192.5)" font-family="sans-serif" font-size="10px" fill="#000" opacity="1">(JohT) inputPerKernelValue Transposed InnerLoopUnrolled</text><text text-anchor="end" transform="translate(-7,212.5)" font-family="sans-serif" font-size="10px" fill="#000" opacity="1">(JohT) kernelPerInputValue Transposed</text><text text-anchor="end" transform="translate(-7,232.5)" font-family="sans-serif" font-size="10px" fill="#000" opacity="1">(matlab-like) conv 'valid' shape pre padded</text><text text-anchor="end" transform="translate(-7,252.5)" font-family="sans-serif" font-size="10px" fill="#000" opacity="1">(chaowang15) convolve1D</text><text text-anchor="end" transform="translate(-7,272.5)" font-family="sans-serif" font-size="10px" fill="#000" opacity="1">(matlab-like) conv 'full' shape</text><text text-anchor="end" transform="translate(-7,292.5)" font-family="sans-serif" font-size="10px" fill="#000" opacity="1">(JohT) kernelPerInputValue Transposed LoopFission</text><text text-anchor="end" transform="translate(-7,312.5)" font-family="sans-serif" font-size="10px" fill="#000" opacity="1">(JohT) inputPerKernelValue Transposed OuterLoopUnrolled</text><text text-anchor="end" transform="translate(-7,332.5)" font-family="sans-serif" font-size="10px" fill="#000" opacity="1">(wilczek) Single</text><text text-anchor="end" transform="translate(-7,352.5)" font-family="sans-serif" font-size="10px" fill="#000" opacity="1">(wilczek) Outer-Loop Vectorization</text></g><g class="mark-rule role-axis-domain" pointer-events="none"><line transform="translate(0,0)" x2="0" y2="360" stroke="#888" stroke-width="1" opacity="1"/></g><g class="mark-text role-axis-title" pointer-events="none"><text text-anchor="middle" transform="translate(-320,180) rotate(-90) translate(0,-2)" font-family="sans-serif" font-size="11px" font-weight="bold" fill="#000" opacity="1">algorithm</text></g></g><path class="foreground" aria-hidden="true" d="" pointer-events="none" display="none"/></g></g><g class="mark-rect role-mark child_layer_0_marks" role="graphics-object" aria-roledescription="rect mark container"><path aria-label="mean execution time in µs: 130; algorithm: (JohT) kernelPerInputValue Transposed" role="graphics-symbol" aria-roledescription="bar" d="M0,201.9L126,201.9C128.207660097976,201.9,130,203.692339902024,130,205.9L130,214.1C130,216.307660097976,128.207660097976,218.1,126,218.1L0,218.1C0,218.1,0,218.1,0,218.1L0,201.9C0,201.9,0,201.9,0,201.9Z" fill="#4c78a8"/><path aria-label="mean execution time in µs: 84; algorithm: (JohT) inputPerKernelValue Transposed" role="graphics-symbol" aria-roledescription="bar" d="M0,101.9L80,101.9C82.207660097976,101.9,84,103.692339902024,84,105.9L84,114.10000000000001C84,116.30766009797601,82.207660097976,118.10000000000001,80,118.10000000000001L0,118.10000000000001C0,118.10000000000001,0,118.10000000000001,0,118.10000000000001L0,101.9C0,101.9,0,101.9,0,101.9Z" fill="#4c78a8"/><path aria-label="mean execution time in µs: 114; algorithm: (JohT) inputPerKernelValue Transposed InnerLoopUnrolled" role="graphics-symbol" aria-roledescription="bar" d="M0,181.9L109.99999999999999,181.9C112.20766009797599,181.9,113.99999999999999,183.692339902024,113.99999999999999,185.9L113.99999999999999,194.1C113.99999999999999,196.307660097976,112.20766009797599,198.1,109.99999999999999,198.1L0,198.1C0,198.1,0,198.1,0,198.1L0,181.9C0,181.9,0,181.9,0,181.9Z" fill="#4c78a8"/><path aria-label="mean execution time in µs: 168; algorithm: (JohT) inputPerKernelValue Transposed OuterLoopUnrolled" role="graphics-symbol" aria-roledescription="bar" d="M0,301.9L164,301.9C166.207660097976,301.9,168,303.692339902024,168,305.9L168,314.09999999999997C168,316.30766009797594,166.207660097976,318.09999999999997,164,318.09999999999997L0,318.09999999999997C0,318.09999999999997,0,318.09999999999997,0,318.09999999999997L0,301.9C0,301.9,0,301.9,0,301.9Z" fill="#4c78a8"/><path aria-label="mean execution time in µs: 112; algorithm: (JohT) inputPerKernelValue Transposed Inner&amp;OuterLoopUnrolled" role="graphics-symbol" aria-roledescription="bar" d="M0,141.9L108.00000000000001,141.9C110.20766009797602,141.9,112.00000000000001,143.692339902024,112.00000000000001,145.9L112.00000000000001,154.1C112.00000000000001,156.307660097976,110.20766009797602,158.1,108.00000000000001,158.1L0,158.1C0,158.1,0,158.1,0,158.1L0,141.9C0,141.9,0,141.9,0,141.9Z" fill="#4c78a8"/><path aria-label="mean execution time in µs: 64; algorithm: (JohT) inputPerKernelValue Transposed LoopFission" role="graphics-symbol" aria-roledescription="bar" d="M0,61.9L60,61.9C62.207660097976,61.9,64,63.692339902023996,64,65.9L64,74.1C64,76.307660097976,62.207660097976,78.1,60,78.1L0,78.1C0,78.1,0,78.1,0,78.1L0,61.9C0,61.9,0,61.9,0,61.9Z" fill="#4c78a8"/><path aria-label="mean execution time in µs: 77; algorithm: (JohT) inputPerKernelValue Transposed LoopFissionIndexArithmetic" role="graphics-symbol" aria-roledescription="bar" d="M0,81.9L73,81.9C75.207660097976,81.9,77,83.692339902024,77,85.9L77,94.10000000000001C77,96.30766009797601,75.207660097976,98.10000000000001,73,98.10000000000001L0,98.10000000000001C0,98.10000000000001,0,98.10000000000001,0,98.10000000000001L0,81.9C0,81.9,0,81.9,0,81.9Z" fill="#4c78a8"/><path aria-label="mean execution time in µs: 146; algorithm: (JohT) kernelPerInputValue Transposed LoopFission" role="graphics-symbol" aria-roledescription="bar" d="M0,281.9L142,281.9C144.207660097976,281.9,146,283.692339902024,146,285.9L146,294.09999999999997C146,296.30766009797594,144.207660097976,298.09999999999997,142,298.09999999999997L0,298.09999999999997C0,298.09999999999997,0,298.09999999999997,0,298.09999999999997L0,281.9C0,281.9,0,281.9,0,281.9Z" fill="#4c78a8"/><path aria-label="mean execution time in µs: 143; algorithm: (matlab-like) conv 'full' shape" role="graphics-symbol" aria-roledescription="bar" d="M0,261.9L139,261.9C141.207660097976,261.9,143,263.692339902024,143,265.9L143,274.09999999999997C143,276.30766009797594,141.207660097976,278.09999999999997,139,278.09999999999997L0,278.09999999999997C0,278.09999999999997,0,278.09999999999997,0,278.09999999999997L0,261.9C0,261.9,0,261.9,0,261.9Z" fill="#4c78a8"/><path aria-label="mean execution time in µs: 135; algorithm: (matlab-like) conv 'valid' shape pre padded" role="graphics-symbol" aria-roledescription="bar" d="M0,221.9L131,221.9C133.207660097976,221.9,135,223.692339902024,135,225.9L135,234.1C135,236.307660097976,133.207660097976,238.1,131,238.1L0,238.1C0,238.1,0,238.1,0,238.1L0,221.9C0,221.9,0,221.9,0,221.9Z" fill="#4c78a8"/><path aria-label="mean execution time in µs: 168; algorithm: (wilczek) Single" role="graphics-symbol" aria-roledescription="bar" d="M0,321.9L164,321.9C166.207660097976,321.9,168,323.692339902024,168,325.9L168,334.09999999999997C168,336.30766009797594,166.207660097976,338.09999999999997,164,338.09999999999997L0,338.09999999999997C0,338.09999999999997,0,338.09999999999997,0,338.09999999999997L0,321.9C0,321.9,0,321.9,0,321.9Z" fill="#4c78a8"/><path aria-label="mean execution time in µs: 104; algorithm: (wilczek) Inner-Loop Vectorization" role="graphics-symbol" aria-roledescription="bar" d="M0,121.9L100,121.9C102.207660097976,121.9,104,123.692339902024,104,125.9L104,134.1C104,136.307660097976,102.207660097976,138.1,100,138.1L0,138.1C0,138.1,0,138.1,0,138.1L0,121.9C0,121.9,0,121.9,0,121.9Z" fill="#4c78a8"/><path aria-label="mean execution time in µs: 196; algorithm: (wilczek) Outer-Loop Vectorization" role="graphics-symbol" aria-roledescription="bar" d="M0,341.9L192,341.9C194.207660097976,341.9,196,343.692339902024,196,345.9L196,354.09999999999997C196,356.30766009797594,194.207660097976,358.09999999999997,192,358.09999999999997L0,358.09999999999997C0,358.09999999999997,0,358.09999999999997,0,358.09999999999997L0,341.9C0,341.9,0,341.9,0,341.9Z" fill="#4c78a8"/><path aria-label="mean execution time in µs: 112; algorithm: (wilczek) Outer- and Inner-Loop Vectorization" role="graphics-symbol" aria-roledescription="bar" d="M0,161.9L108.00000000000001,161.9C110.20766009797602,161.9,112.00000000000001,163.692339902024,112.00000000000001,165.9L112.00000000000001,174.1C112.00000000000001,176.307660097976,110.20766009797602,178.1,108.00000000000001,178.1L0,178.1C0,178.1,0,178.1,0,178.1L0,161.9C0,161.9,0,161.9,0,161.9Z" fill="#4c78a8"/><path aria-label="mean execution time in µs: 35; algorithm: (wilczek) AVX NoAlign Inner-Loop Vectorization" role="graphics-symbol" aria-roledescription="bar" d="M0,41.9L31,41.9C33.207660097976,41.9,35,43.692339902023996,35,45.9L35,54.099999999999994C35,56.307660097976,33.207660097976,58.099999999999994,31,58.099999999999994L0,58.099999999999994C0,58.099999999999994,0,58.099999999999994,0,58.099999999999994L0,41.9C0,41.9,0,41.9,0,41.9Z" fill="#4c78a8"/><path aria-label="mean execution time in µs: 25; algorithm: (wilczek) AVX NoAlign Outer-Loop Vectorization" role="graphics-symbol" aria-roledescription="bar" d="M0,21.9L21,21.9C23.207660097976,21.9,25,23.692339902024,25,25.9L25,34.099999999999994C25,36.307660097976,23.207660097976,38.099999999999994,21,38.099999999999994L0,38.099999999999994C0,38.099999999999994,0,38.099999999999994,0,38.099999999999994L0,21.9C0,21.9,0,21.9,0,21.9Z" fill="#4c78a8"/><path aria-label="mean execution time in µs: 23; algorithm: (wilczek) AVX NoAlign Outer- and Inner-Loop Vectorization" role="graphics-symbol" aria-roledescription="bar" d="M0,1.9L19,1.9C21.207660097976,1.9,23,3.692339902024,23,5.9L23,14.099999999999998C23,16.307660097975997,21.207660097976,18.099999999999998,19,18.099999999999998L0,18.099999999999998C0,18.099999999999998,0,18.099999999999998,0,18.099999999999998L0,1.9C0,1.9,0,1.9,0,1.9Z" fill="#4c78a8"/><path aria-label="mean execution time in µs: 138; algorithm: (chaowang15) convolve1D" role="graphics-symbol" aria-roledescription="bar" d="M0,241.9L134,241.9C136.207660097976,241.9,138,243.692339902024,138,245.9L138,254.10000000000002C138,256.307660097976,136.207660097976,258.1,134,258.1L0,258.1C0,258.1,0,258.1,0,258.1L0,241.9C0,241.9,0,241.9,0,241.9Z" fill="#4c78a8"/></g><g class="mark-text role-mark child_layer_1_marks" role="graphics-object" aria-roledescription="text mark container"><text aria-label="mean execution time in µs: 130; algorithm: (JohT) kernelPerInputValue Transposed; MeanExecutionTime: 130" role="graphics-symbol" aria-roledescription="text mark" text-anchor="start" transform="translate(134,213)" font-family="sans-serif" font-size="9px" fill="black">130</text><text aria-label="mean execution time in µs: 84; algorithm: (JohT) inputPerKernelValue Transposed; MeanExecutionTime: 84" role="graphics-symbol" aria-roledescription="text mark" text-anchor="start" transform="translate(88,113)" font-family="sans-serif" font-size="9px" fill="black">84</text><text aria-label="mean execution time in µs: 114; algorithm: (JohT) inputPerKernelValue Transposed InnerLoopUnrolled; MeanExecutionTime: 114" role="graphics-symbol" aria-roledescription="text mark" text-anchor="start" transform="translate(117.99999999999999,193)" font-family="sans-serif" font-size="9px" fill="black">114</text><text aria-label="mean execution time in µs: 168; algorithm: (JohT) inputPerKernelValue Transposed OuterLoopUnrolled; MeanExecutionTime: 168" role="graphics-symbol" aria-roledescription="text mark" text-anchor="start" transform="translate(172,313)" font-family="sans-serif" font-size="9px" fill="black">168</text><text aria-label="mean execution time in µs: 112; algorithm: (JohT) inputPerKernelValue Transposed Inner&amp;OuterLoopUnrolled; MeanExecutionTime: 112" role="graphics-symbol" aria-roledescription="text mark" text-anchor="start" transform="translate(116.00000000000001,153)" font-family="sans-serif" font-size="9px" fill="black">112</text><text aria-label="mean execution time in µs: 64; algorithm: (JohT) inputPerKernelValue Transposed LoopFission; MeanExecutionTime: 64" role="graphics-symbol" aria-roledescription="text mark" text-anchor="start" transform="translate(68,73)" font-family="sans-serif" font-size="9px" fill="black">64</text><text aria-label="mean execution time in µs: 77; algorithm: (JohT) inputPerKernelValue Transposed LoopFissionIndexArithmetic; MeanExecutionTime: 77" role="graphics-symbol" aria-roledescription="text mark" text-anchor="start" transform="translate(81,93)" font-family="sans-serif" font-size="9px" fill="black">77</text><text aria-label="mean execution time in µs: 146; algorithm: (JohT) kernelPerInputValue Transposed LoopFission; MeanExecutionTime: 146" role="graphics-symbol" aria-roledescription="text mark" text-anchor="start" transform="translate(150,293)" font-family="sans-serif" font-size="9px" fill="black">146</text><text aria-label="mean execution time in µs: 143; algorithm: (matlab-like) conv 'full' shape; MeanExecutionTime: 143" role="graphics-symbol" aria-roledescription="text mark" text-anchor="start" transform="translate(147,273)" font-family="sans-serif" font-size="9px" fill="black">143</text><text aria-label="mean execution time in µs: 135; algorithm: (matlab-like) conv 'valid' shape pre padded; MeanExecutionTime: 135" role="graphics-symbol" aria-roledescription="text mark" text-anchor="start" transform="translate(139,233)" font-family="sans-serif" font-size="9px" fill="black">135</text><text aria-label="mean execution time in µs: 168; algorithm: (wilczek) Single; MeanExecutionTime: 168" role="graphics-symbol" aria-roledescription="text mark" text-anchor="start" transform="translate(172,333)" font-family="sans-serif" font-size="9px" fill="black">168</text><text aria-label="mean execution time in µs: 104; algorithm: (wilczek) Inner-Loop Vectorization; MeanExecutionTime: 104" role="graphics-symbol" aria-roledescription="text mark" text-anchor="start" transform="translate(108,133)" font-family="sans-serif" font-size="9px" fill="black">104</text><text aria-label="mean execution time in µs: 196; algorithm: (wilczek) Outer-Loop Vectorization; MeanExecutionTime: 196" role="graphics-symbol" aria-roledescription="text mark" text-anchor="start" transform="translate(200,353)" font-family="sans-serif" font-size="9px" fill="black">196</text><text aria-label="mean execution time in µs: 112; algorithm: (wilczek) Outer- and Inner-Loop Vectorization; MeanExecutionTime: 112" role="graphics-symbol" aria-roledescription="text mark" text-anchor="start" transform="translate(116.00000000000001,173)" font-family="sans-serif" font-size="9px" fill="black">112</text><text aria-label="mean execution time in µs: 35; algorithm: (wilczek) AVX NoAlign Inner-Loop Vectorization; MeanExecutionTime: 35" role="graphics-symbol" aria-roledescription="text mark" text-anchor="start" transform="translate(39,53)" font-family="sans-serif" font-size="9px" fill="black">35</text><text aria-label="mean execution time in µs: 25; algorithm: (wilczek) AVX NoAlign Outer-Loop Vectorization; MeanExecutionTime: 25" role="graphics-symbol" aria-roledescription="text mark" text-anchor="start" transform="translate(29,33)" font-family="sans-serif" font-size="9px" fill="black">25</text><text aria-label="mean execution time in µs: 23; algorithm: (wilczek) AVX NoAlign Outer- and Inner-Loop Vectorization; MeanExecutionTime: 23" role="graphics-symbol" aria-roledescription="text mark" text-anchor="start" transform="translate(27,13)" font-family="sans-serif" font-size="9px" fill="black">23</text><text aria-label="mean execution time in µs: 138; algorithm: (chaowang15) convolve1D; MeanExecutionTime: 138" role="graphics-symbol" aria-roledescription="text mark" text-anchor="start" transform="translate(142,253)" font-family="sans-serif" font-size="9px" fill="black">138</text></g></g><path class="foreground" aria-hidden="true" d="" display="none"/></g><g transform="translate(746,0)"><path class="background" aria-hidden="true" d="M0.5,0.5h200v360h-200Z" stroke="#ddd"/><g><g class="mark-group role-axis" aria-hidden="true"><g transform="translate(0.5,360.5)"><path class="background" aria-hidden="true" d="M0,0h0v0h0Z" pointer-events="none"/><g><g class="mark-rule role-axis-grid" pointer-events="none"><line transform="translate(0,0)" x2="0" y2="-360" stroke="#ddd" stroke-width="1" opacity="1"/><line transform="translate(50,0)" x2="0" y2="-360" stroke="#ddd" stroke-width="1" opacity="1"/><line transform="translate(100,0)" x2="0" y2="-360" stroke="#ddd" stroke-width="1" opacity="1"/><line transform="translate(150,0)" x2="0" y2="-360" stroke="#ddd" stroke-width="1" opacity="1"/><line transform="translate(200,0)" x2="0" y2="-360" stroke="#ddd" stroke-width="1" opacity="1"/></g></g><path class="foreground" aria-hidden="true" d="" pointer-events="none" display="none"/></g></g><g class="mark-group role-axis" role="graphics-symbol" aria-roledescription="axis" aria-label="X-axis titled 'mean execution time in µs' for a linear scale with values from 0 to 8,000"><g transform="translate(0.5,360.5)"><path class="background" aria-hidden="true" d="M0,0h0v0h0Z" pointer-events="none"/><g><g class="mark-rule role-axis-tick" pointer-events="none"><line transform="translate(0,0)" x2="0" y2="5" stroke="#888" stroke-width="1" opacity="1"/><line transform="translate(50,0)" x2="0" y2="5" stroke="#888" stroke-width="1" opacity="1"/><line transform="translate(100,0)" x2="0" y2="5" stroke="#888" stroke-width="1" opacity="1"/><line transform="translate(150,0)" x2="0" y2="5" stroke="#888" stroke-width="1" opacity="1"/><line transform="translate(200,0)" x2="0" y2="5" stroke="#888" stroke-width="1" opacity="1"/></g><g class="mark-text role-axis-label" pointer-events="none"><text text-anchor="start" transform="translate(0,15)" font-family="sans-serif" font-size="10px" fill="#000" opacity="1">0</text><text text-anchor="middle" transform="translate(50,15)" font-family="sans-serif" font-size="10px" fill="#000" opacity="0">2,000</text><text text-anchor="middle" transform="translate(100,15)" font-family="sans-serif" font-size="10px" fill="#000" opacity="1">4,000</text><text text-anchor="middle" transform="translate(150,15)" font-family="sans-serif" font-size="10px" fill="#000" opacity="0">6,000</text><text text-anchor="end" transform="translate(200,15)" font-family="sans-serif" font-size="10px" fill="#000" opacity="1">8,000</text></g><g class="mark-rule role-axis-domain" pointer-events="none"><line transform="translate(0,0)" x2="200" y2="0" stroke="#888" stroke-width="1" opacity="1"/></g><g class="mark-text role-axis-title" pointer-events="none"><text text-anchor="middle" transform="translate(100,30)" font-family="sans-serif" font-size="11px" font-weight="bold" fill="#000" opacity="1">mean execution time in µs</text></g></g><path class="foreground" aria-hidden="true" d="" pointer-events="none" display="none"/></g></g><g class="mark-group role-axis" role="graphics-symbol" aria-roledescription="axis" aria-label="Y-axis titled 'algorithm' for a discrete scale with 18 values: (wilczek) AVX NoAlign Outer- and Inner-Loop Vectorization, (JohT) kernelPerInputValue Transposed, (wilczek) AVX NoAlign Inner-Loop Vectorization, (JohT) kernelPerInputValue Transposed LoopFission, (wilczek) AVX NoAlign Outer-Loop Vectorization, ending with (wilczek) Outer-Loop Vectorization"><g transform="translate(0.5,0.5)"><path class="background" aria-hidden="true" d="M0,0h0v0h0Z" pointer-events="none"/><g><g class="mark-rule role-axis-tick" pointer-events="none"><line transform="translate(0,10)" x2="-5" y2="0" stroke="#888" stroke-width="1" opacity="1"/><line transform="translate(0,30)" x2="-5" y2="0" stroke="#888" stroke-width="1" opacity="1"/><line transform="translate(0,50)" x2="-5" y2="0" stroke="#888" stroke-width="1" opacity="1"/><line transform="translate(0,70)" x2="-5" y2="0" stroke="#888" stroke-width="1" opacity="1"/><line transform="translate(0,90)" x2="-5" y2="0" stroke="#888" stroke-width="1" opacity="1"/><line transform="translate(0,110)" x2="-5" y2="0" stroke="#888" stroke-width="1" opacity="1"/><line transform="translate(0,130)" x2="-5" y2="0" stroke="#888" stroke-width="1" opacity="1"/><line transform="translate(0,150)" x2="-5" y2="0" stroke="#888" stroke-width="1" opacity="1"/><line transform="translate(0,170)" x2="-5" y2="0" stroke="#888" stroke-width="1" opacity="1"/><line transform="translate(0,190)" x2="-5" y2="0" stroke="#888" stroke-width="1" opacity="1"/><line transform="translate(0,210)" x2="-5" y2="0" stroke="#888" stroke-width="1" opacity="1"/><line transform="translate(0,230)" x2="-5" y2="0" stroke="#888" stroke-width="1" opacity="1"/><line transform="translate(0,250)" x2="-5" y2="0" stroke="#888" stroke-width="1" opacity="1"/><line transform="translate(0,270)" x2="-5" y2="0" stroke="#888" stroke-width="1" opacity="1"/><line transform="translate(0,290)" x2="-5" y2="0" stroke="#888" stroke-width="1" opacity="1"/><line transform="translate(0,310)" x2="-5" y2="0" stroke="#888" stroke-width="1" opacity="1"/><line transform="translate(0,330)" x2="-5" y2="0" stroke="#888" stroke-width="1" opacity="1"/><line transform="translate(0,350)" x2="-5" y2="0" stroke="#888" stroke-width="1" opacity="1"/></g><g class="mark-text role-axis-label" pointer-events="none"><text text-anchor="end" transform="translate(-7,12.5)" font-family="sans-serif" font-size="10px" fill="#000" opacity="1">(wilczek) AVX NoAlign Outer- and Inner-Loop Vectorization</text><text text-anchor="end" transform="translate(-7,32.5)" font-family="sans-serif" font-size="10px" fill="#000" opacity="1">(JohT) kernelPerInputValue Transposed</text><text text-anchor="end" transform="translate(-7,52.5)" font-family="sans-serif" font-size="10px" fill="#000" opacity="1">(wilczek) AVX NoAlign Inner-Loop Vectorization</text><text text-anchor="end" transform="translate(-7,72.5)" font-family="sans-serif" font-size="10px" fill="#000" opacity="1">(JohT) kernelPerInputValue Transposed LoopFission</text><text text-anchor="end" transform="translate(-7,92.5)" font-family="sans-serif" font-size="10px" fill="#000" opacity="1">(wilczek) AVX NoAlign Outer-Loop Vectorization</text><text text-anchor="end" transform="translate(-7,112.5)" font-family="sans-serif" font-size="10px" fill="#000" opacity="1">(JohT) inputPerKernelValue Transposed</text><text text-anchor="end" transform="translate(-7,132.5)" font-family="sans-serif" font-size="10px" fill="#000" opacity="1">(JohT) inputPerKernelValue Transposed LoopFission</text><text text-anchor="end" transform="translate(-7,152.5)" font-family="sans-serif" font-size="10px" fill="#000" opacity="1">(JohT) inputPerKernelValue Transposed LoopFissionIndexArithme…</text><text text-anchor="end" transform="translate(-7,172.5)" font-family="sans-serif" font-size="10px" fill="#000" opacity="1">(wilczek) Inner-Loop Vectorization</text><text text-anchor="end" transform="translate(-7,192.5)" font-family="sans-serif" font-size="10px" fill="#000" opacity="1">(JohT) inputPerKernelValue Transposed Inner&amp;OuterLoopUnrolled</text><text text-anchor="end" transform="translate(-7,212.5)" font-family="sans-serif" font-size="10px" fill="#000" opacity="1">(JohT) inputPerKernelValue Transposed InnerLoopUnrolled</text><text text-anchor="end" transform="translate(-7,232.5)" font-family="sans-serif" font-size="10px" fill="#000" opacity="1">(wilczek) Outer- and Inner-Loop Vectorization</text><text text-anchor="end" transform="translate(-7,252.5)" font-family="sans-serif" font-size="10px" fill="#000" opacity="1">(JohT) inputPerKernelValue Transposed OuterLoopUnrolled</text><text text-anchor="end" transform="translate(-7,272.5)" font-family="sans-serif" font-size="10px" fill="#000" opacity="1">(matlab-like) conv 'full' shape</text><text text-anchor="end" transform="translate(-7,292.5)" font-family="sans-serif" font-size="10px" fill="#000" opacity="1">(chaowang15) convolve1D</text><text text-anchor="end" transform="translate(-7,312.5)" font-family="sans-serif" font-size="10px" fill="#000" opacity="1">(matlab-like) conv 'valid' shape pre padded</text><text text-anchor="end" transform="translate(-7,332.5)" font-family="sans-serif" font-size="10px" fill="#000" opacity="1">(wilczek) Single</text><text text-anchor="end" transform="translate(-7,352.5)" font-family="sans-serif" font-size="10px" fill="#000" opacity="1">(wilczek) Outer-Loop Vectorization</text></g><g class="mark-rule role-axis-domain" pointer-events="none"><line transform="translate(0,0)" x2="0" y2="360" stroke="#888" stroke-width="1" opacity="1"/></g><g class="mark-text role-axis-title" pointer-events="none"><text text-anchor="middle" transform="translate(-320,180) rotate(-90) translate(0,-2)" font-family="sans-serif" font-size="11px" font-weight="bold" fill="#000" opacity="1">algorithm</text></g></g><path class="foreground" aria-hidden="true" d="" pointer-events="none" display="none"/></g></g><g class="mark-rect role-mark child_layer_0_marks" role="graphics-object" aria-roledescription="rect mark container"><path aria-label="mean execution time in µs: 581; algorithm: (JohT) kernelPerInputValue Transposed" role="graphics-symbol" aria-roledescription="bar" d="M0,21.9L10.524999999999999,21.9C12.732660097975998,21.9,14.524999999999999,23.692339902024,14.524999999999999,25.9L14.524999999999999,34.099999999999994C14.524999999999999,36.307660097976,12.732660097975998,38.099999999999994,10.524999999999999,38.099999999999994L0,38.099999999999994C0,38.099999999999994,0,38.099999999999994,0,38.099999999999994L0,21.9C0,21.9,0,21.9,0,21.9Z" fill="#4c78a8"/><path aria-label="mean execution time in µs: 993; algorithm: (JohT) inputPerKernelValue Transposed" role="graphics-symbol" aria-roledescription="bar" d="M0,101.9L20.825,101.9C23.032660097976,101.9,24.825,103.692339902024,24.825,105.9L24.825,114.10000000000001C24.825,116.30766009797601,23.032660097976,118.10000000000001,20.825,118.10000000000001L0,118.10000000000001C0,118.10000000000001,0,118.10000000000001,0,118.10000000000001L0,101.9C0,101.9,0,101.9,0,101.9Z" fill="#4c78a8"/><path aria-label="mean execution time in µs: 3001; algorithm: (JohT) inputPerKernelValue Transposed InnerLoopUnrolled" role="graphics-symbol" aria-roledescription="bar" d="M0,201.9L71.02499999999999,201.9C73.232660097976,201.9,75.02499999999999,203.692339902024,75.02499999999999,205.9L75.02499999999999,214.1C75.02499999999999,216.307660097976,73.232660097976,218.1,71.02499999999999,218.1L0,218.1C0,218.1,0,218.1,0,218.1L0,201.9C0,201.9,0,201.9,0,201.9Z" fill="#4c78a8"/><path aria-label="mean execution time in µs: 4199; algorithm: (JohT) inputPerKernelValue Transposed OuterLoopUnrolled" role="graphics-symbol" aria-roledescription="bar" d="M0,241.9L100.975,241.9C103.182660097976,241.9,104.975,243.692339902024,104.975,245.9L104.975,254.10000000000002C104.975,256.307660097976,103.182660097976,258.1,100.975,258.1L0,258.1C0,258.1,0,258.1,0,258.1L0,241.9C0,241.9,0,241.9,0,241.9Z" fill="#4c78a8"/><path aria-label="mean execution time in µs: 2988; algorithm: (JohT) inputPerKernelValue Transposed Inner&amp;OuterLoopUnrolled" role="graphics-symbol" aria-roledescription="bar" d="M0,181.9L70.7,181.9C72.907660097976,181.9,74.7,183.692339902024,74.7,185.9L74.7,194.1C74.7,196.307660097976,72.907660097976,198.1,70.7,198.1L0,198.1C0,198.1,0,198.1,0,198.1L0,181.9C0,181.9,0,181.9,0,181.9Z" fill="#4c78a8"/><path aria-label="mean execution time in µs: 1418; algorithm: (JohT) inputPerKernelValue Transposed LoopFission" role="graphics-symbol" aria-roledescription="bar" d="M0,121.9L31.449999999999996,121.9C33.657660097976,121.9,35.449999999999996,123.692339902024,35.449999999999996,125.9L35.449999999999996,134.1C35.449999999999996,136.307660097976,33.657660097976,138.1,31.449999999999996,138.1L0,138.1C0,138.1,0,138.1,0,138.1L0,121.9C0,121.9,0,121.9,0,121.9Z" fill="#4c78a8"/><path aria-label="mean execution time in µs: 1521; algorithm: (JohT) inputPerKernelValue Transposed LoopFissionIndexArithmetic" role="graphics-symbol" aria-roledescription="bar" d="M0,141.9L34.025,141.9C36.232660097976,141.9,38.025,143.692339902024,38.025,145.9L38.025,154.1C38.025,156.307660097976,36.232660097976,158.1,34.025,158.1L0,158.1C0,158.1,0,158.1,0,158.1L0,141.9C0,141.9,0,141.9,0,141.9Z" fill="#4c78a8"/><path aria-label="mean execution time in µs: 869; algorithm: (JohT) kernelPerInputValue Transposed LoopFission" role="graphics-symbol" aria-roledescription="bar" d="M0,61.9L17.725,61.9C19.932660097976,61.9,21.725,63.692339902023996,21.725,65.9L21.725,74.1C21.725,76.307660097976,19.932660097976,78.1,17.725,78.1L0,78.1C0,78.1,0,78.1,0,78.1L0,61.9C0,61.9,0,61.9,0,61.9Z" fill="#4c78a8"/><path aria-label="mean execution time in µs: 7526; algorithm: (matlab-like) conv 'full' shape" role="graphics-symbol" aria-roledescription="bar" d="M0,261.9L184.15,261.9C186.357660097976,261.9,188.15,263.692339902024,188.15,265.9L188.15,274.09999999999997C188.15,276.30766009797594,186.357660097976,278.09999999999997,184.15,278.09999999999997L0,278.09999999999997C0,278.09999999999997,0,278.09999999999997,0,278.09999999999997L0,261.9C0,261.9,0,261.9,0,261.9Z" fill="#4c78a8"/><path aria-label="mean execution time in µs: 7753; algorithm: (matlab-like) conv 'valid' shape pre padded" role="graphics-symbol" aria-roledescription="bar" d="M0,301.9L189.825,301.9C192.032660097976,301.9,193.825,303.692339902024,193.825,305.9L193.825,314.09999999999997C193.825,316.30766009797594,192.032660097976,318.09999999999997,189.825,318.09999999999997L0,318.09999999999997C0,318.09999999999997,0,318.09999999999997,0,318.09999999999997L0,301.9C0,301.9,0,301.9,0,301.9Z" fill="#4c78a8"/><path aria-label="mean execution time in µs: 7843; algorithm: (wilczek) Single" role="graphics-symbol" aria-roledescription="bar" d="M0,321.9L192.075,321.9C194.282660097976,321.9,196.075,323.692339902024,196.075,325.9L196.075,334.09999999999997C196.075,336.30766009797594,194.282660097976,338.09999999999997,192.075,338.09999999999997L0,338.09999999999997C0,338.09999999999997,0,338.09999999999997,0,338.09999999999997L0,321.9C0,321.9,0,321.9,0,321.9Z" fill="#4c78a8"/><path aria-label="mean execution time in µs: 2954; algorithm: (wilczek) Inner-Loop Vectorization" role="graphics-symbol" aria-roledescription="bar" d="M0,161.9L69.85000000000001,161.9C72.05766009797601,161.9,73.85000000000001,163.692339902024,73.85000000000001,165.9L73.85000000000001,174.1C73.85000000000001,176.307660097976,72.05766009797601,178.1,69.85000000000001,178.1L0,178.1C0,178.1,0,178.1,0,178.1L0,161.9C0,161.9,0,161.9,0,161.9Z" fill="#4c78a8"/><path aria-label="mean execution time in µs: 7989; algorithm: (wilczek) Outer-Loop Vectorization" role="graphics-symbol" aria-roledescription="bar" d="M0,341.9L195.725,341.9C197.932660097976,341.9,199.725,343.692339902024,199.725,345.9L199.725,354.09999999999997C199.725,356.30766009797594,197.932660097976,358.09999999999997,195.725,358.09999999999997L0,358.09999999999997C0,358.09999999999997,0,358.09999999999997,0,358.09999999999997L0,341.9C0,341.9,0,341.9,0,341.9Z" fill="#4c78a8"/><path aria-label="mean execution time in µs: 3349; algorithm: (wilczek) Outer- and Inner-Loop Vectorization" role="graphics-symbol" aria-roledescription="bar" d="M0,221.9L79.72500000000001,221.9C81.93266009797601,221.9,83.72500000000001,223.692339902024,83.72500000000001,225.9L83.72500000000001,234.1C83.72500000000001,236.307660097976,81.93266009797601,238.1,79.72500000000001,238.1L0,238.1C0,238.1,0,238.1,0,238.1L0,221.9C0,221.9,0,221.9,0,221.9Z" fill="#4c78a8"/><path aria-label="mean execution time in µs: 842; algorithm: (wilczek) AVX NoAlign Inner-Loop Vectorization" role="graphics-symbol" aria-roledescription="bar" d="M0,41.9L17.05,41.9C19.257660097976,41.9,21.05,43.692339902023996,21.05,45.9L21.05,54.099999999999994C21.05,56.307660097976,19.257660097976,58.099999999999994,17.05,58.099999999999994L0,58.099999999999994C0,58.099999999999994,0,58.099999999999994,0,58.099999999999994L0,41.9C0,41.9,0,41.9,0,41.9Z" fill="#4c78a8"/><path aria-label="mean execution time in µs: 984; algorithm: (wilczek) AVX NoAlign Outer-Loop Vectorization" role="graphics-symbol" aria-roledescription="bar" d="M0,81.9L20.6,81.9C22.807660097976,81.9,24.6,83.692339902024,24.6,85.9L24.6,94.10000000000001C24.6,96.30766009797601,22.807660097976,98.10000000000001,20.6,98.10000000000001L0,98.10000000000001C0,98.10000000000001,0,98.10000000000001,0,98.10000000000001L0,81.9C0,81.9,0,81.9,0,81.9Z" fill="#4c78a8"/><path aria-label="mean execution time in µs: 295; algorithm: (wilczek) AVX NoAlign Outer- and Inner-Loop Vectorization" role="graphics-symbol" aria-roledescription="bar" d="M0,1.9L3.6875,1.9C5.722686652821625,1.9,7.375,3.5523133471783748,7.375,5.5875L7.375,14.412499999999998C7.375,16.447686652821623,5.722686652821625,18.099999999999998,3.6875,18.099999999999998L0,18.099999999999998C0,18.099999999999998,0,18.099999999999998,0,18.099999999999998L0,1.9C0,1.9,0,1.9,0,1.9Z" fill="#4c78a8"/><path aria-label="mean execution time in µs: 7635; algorithm: (chaowang15) convolve1D" role="graphics-symbol" aria-roledescription="bar" d="M0,281.9L186.875,281.9C189.082660097976,281.9,190.875,283.692339902024,190.875,285.9L190.875,294.09999999999997C190.875,296.30766009797594,189.082660097976,298.09999999999997,186.875,298.09999999999997L0,298.09999999999997C0,298.09999999999997,0,298.09999999999997,0,298.09999999999997L0,281.9C0,281.9,0,281.9,0,281.9Z" fill="#4c78a8"/></g><g class="mark-text role-mark child_layer_1_marks" role="graphics-object" aria-roledescription="text mark container"><text aria-label="mean execution time in µs: 581; algorithm: (JohT) kernelPerInputValue Transposed; MeanExecutionTime: 581" role="graphics-symbol" aria-roledescription="text mark" text-anchor="start" transform="translate(18.525,33)" font-family="sans-serif" font-size="9px" fill="black">581</text><text aria-label="mean execution time in µs: 993; algorithm: (JohT) inputPerKernelValue Transposed; MeanExecutionTime: 993" role="graphics-symbol" aria-roledescription="text mark" text-anchor="start" transform="translate(28.825,113)" font-family="sans-serif" font-size="9px" fill="black">993</text><text aria-label="mean execution time in µs: 3001; algorithm: (JohT) inputPerKernelValue Transposed InnerLoopUnrolled; MeanExecutionTime: 3001" role="graphics-symbol" aria-roledescription="text mark" text-anchor="start" transform="translate(79.02499999999999,213)" font-family="sans-serif" font-size="9px" fill="black">3001</text><text aria-label="mean execution time in µs: 4199; algorithm: (JohT) inputPerKernelValue Transposed OuterLoopUnrolled; MeanExecutionTime: 4199" role="graphics-symbol" aria-roledescription="text mark" text-anchor="start" transform="translate(108.975,253)" font-family="sans-serif" font-size="9px" fill="black">4199</text><text aria-label="mean execution time in µs: 2988; algorithm: (JohT) inputPerKernelValue Transposed Inner&amp;OuterLoopUnrolled; MeanExecutionTime: 2988" role="graphics-symbol" aria-roledescription="text mark" text-anchor="start" transform="translate(78.7,193)" font-family="sans-serif" font-size="9px" fill="black">2988</text><text aria-label="mean execution time in µs: 1418; algorithm: (JohT) inputPerKernelValue Transposed LoopFission; MeanExecutionTime: 1418" role="graphics-symbol" aria-roledescription="text mark" text-anchor="start" transform="translate(39.449999999999996,133)" font-family="sans-serif" font-size="9px" fill="black">1418</text><text aria-label="mean execution time in µs: 1521; algorithm: (JohT) inputPerKernelValue Transposed LoopFissionIndexArithmetic; MeanExecutionTime: 1521" role="graphics-symbol" aria-roledescription="text mark" text-anchor="start" transform="translate(42.025,153)" font-family="sans-serif" font-size="9px" fill="black">1521</text><text aria-label="mean execution time in µs: 869; algorithm: (JohT) kernelPerInputValue Transposed LoopFission; MeanExecutionTime: 869" role="graphics-symbol" aria-roledescription="text mark" text-anchor="start" transform="translate(25.725,73)" font-family="sans-serif" font-size="9px" fill="black">869</text><text aria-label="mean execution time in µs: 7526; algorithm: (matlab-like) conv 'full' shape; MeanExecutionTime: 7526" role="graphics-symbol" aria-roledescription="text mark" text-anchor="start" transform="translate(192.15,273)" font-family="sans-serif" font-size="9px" fill="black">7526</text><text aria-label="mean execution time in µs: 7753; algorithm: (matlab-like) conv 'valid' shape pre padded; MeanExecutionTime: 7753" role="graphics-symbol" aria-roledescription="text mark" text-anchor="start" transform="translate(197.825,313)" font-family="sans-serif" font-size="9px" fill="black">7753</text><text aria-label="mean execution time in µs: 7843; algorithm: (wilczek) Single; MeanExecutionTime: 7843" role="graphics-symbol" aria-roledescription="text mark" text-anchor="start" transform="translate(200.075,333)" font-family="sans-serif" font-size="9px" fill="black">7843</text><text aria-label="mean execution time in µs: 2954; algorithm: (wilczek) Inner-Loop Vectorization; MeanExecutionTime: 2954" role="graphics-symbol" aria-roledescription="text mark" text-anchor="start" transform="translate(77.85000000000001,173)" font-family="sans-serif" font-size="9px" fill="black">2954</text><text aria-label="mean execution time in µs: 7989; algorithm: (wilczek) Outer-Loop Vectorization; MeanExecutionTime: 7989" role="graphics-symbol" aria-roledescription="text mark" text-anchor="start" transform="translate(203.725,353)" font-family="sans-serif" font-size="9px" fill="black">7989</text><text aria-label="mean execution time in µs: 3349; algorithm: (wilczek) Outer- and Inner-Loop Vectorization; MeanExecutionTime: 3349" role="graphics-symbol" aria-roledescription="text mark" text-anchor="start" transform="translate(87.72500000000001,233)" font-family="sans-serif" font-size="9px" fill="black">3349</text><text aria-label="mean execution time in µs: 842; algorithm: (wilczek) AVX NoAlign Inner-Loop Vectorization; MeanExecutionTime: 842" role="graphics-symbol" aria-roledescription="text mark" text-anchor="start" transform="translate(25.05,53)" font-family="sans-serif" font-size="9px" fill="black">842</text><text aria-label="mean execution time in µs: 984; algorithm: (wilczek) AVX NoAlign Outer-Loop Vectorization; MeanExecutionTime: 984" role="graphics-symbol" aria-roledescription="text mark" text-anchor="start" transform="translate(28.6,93)" font-family="sans-serif" font-size="9px" fill="black">984</text><text aria-label="mean execution time in µs: 295; algorithm: (wilczek) AVX NoAlign Outer- and Inner-Loop Vectorization; MeanExecutionTime: 295" role="graphics-symbol" aria-roledescription="text mark" text-anchor="start" transform="translate(11.375,13)" font-family="sans-serif" font-size="9px" fill="black">295</text><text aria-label="mean execution time in µs: 7635; algorithm: (chaowang15) convolve1D; MeanExecutionTime: 7635" role="graphics-symbol" aria-roledescription="text mark" text-anchor="start" transform="translate(194.875,293)" font-family="sans-serif" font-size="9px" fill="black">7635</text></g></g><path class="foreground" aria-hidden="true" d="" display="none"/></g></g></g><path class="foreground" aria-hidden="true" d="" display="none"/></g></g></g></svg>