<svg xmlns="http://www.w3.org/2000/svg" xmlns:xlink="http://www.w3.org/1999/xlink" version="1.1" class="marks" width="1475" height="464" viewBox="0 0 1475 464"><rect width="1475" height="464" fill="white"/><g fill="none" stroke-miterlimit="10" transform="translate(509,66)"><g class="mark-group role-frame root" role="graphics-object" aria-roledescription="group mark container"><g transform="translate(0,0)"><path class="background" aria-hidden="true" d="M0,0h0v0h0Z"/><g><g class="mark-group role-column-title column-title" role="graphics-object" aria-roledescription="group mark container"><g transform="translate(229,-35)"><path class="background" aria-hidden="true" d="M0,0h0v0h0Z"/><g><g class="mark-group role-title"><g transform="translate(0,-26)"><path class="background" aria-hidden="true" d="M0,0h0v0h0Z" pointer-events="none"/><g><g class="mark-text role-title-text" role="graphics-symbol" aria-roledescription="title" aria-label="Title text 'Convolution Benchmarks'" pointer-events="none"><text text-anchor="middle" transform="translate(0,13)" font-family="sans-serif" font-size="16px" font-weight="bold" fill="#000" opacity="1">Convolution Benchmarks</text></g></g><path class="foreground" aria-hidden="true" d="" pointer-events="none" display="none"/></g></g></g><path class="foreground" aria-hidden="true" d="" display="none"/></g></g><g class="mark-group role-column-header column_header" role="graphics-object" aria-roledescription="group mark container"><g transform="translate(0,-1)"><path class="background" aria-hidden="true" d="M0,0h200v0h-200Z"/><g><g class="mark-group role-title"><g transform="translate(100,-24)"><path class="background" aria-hidden="true" d="M0,0h0v0h0Z" pointer-events="none"/><g><g class="mark-text role-title-text" role="graphics-symbol" aria-roledescription="title" aria-label="Title text 'kernel size 16'" pointer-events="none"><text text-anchor="middle" transform="translate(0,11)" font-family="sans-serif" font-size="14px" fill="#000" opacity="1">kernel size 16</text></g></g><path class="foreground" aria-hidden="true" d="" pointer-events="none" display="none"/></g></g></g><path class="foreground" aria-hidden="true" d="" display="none"/></g><g transform="translate(750,-1)"><path class="background" aria-hidden="true" d="M0,0h200v0h-200Z"/><g><g class="mark-group role-title"><g transform="translate(100,-24)"><path class="background" aria-hidden="true" d="M0,0h0v0h0Z" pointer-events="none"/><g><g class="mark-text role-title-text" role="graphics-symbol" aria-roledescription="title" aria-label="Title text 'kernel size 512'" pointer-events="none"><text text-anchor="middle" transform="translate(0,11)" font-family="sans-serif" font-size="14px" fill="#000" opacity="1">kernel size 512</text></g></g><path class="foreground" aria-hidden="true" d="" pointer-events="none" display="none"/></g></g></g><path class="foreground" aria-hidden="true" d="" display="none"/></g></g><g class="mark-group role-scope cell" role="graphics-object" aria-roledescription="group mark container"><g transform="translate(0,0)"><path class="background" aria-hidden="true" d="M0.5,0.5h200v360h-200Z" stroke="#ddd"/><g><g class="mark-group role-axis" aria-hidden="true"><g transform="translate(0.5,360.5)"><path class="background" aria-hidden="true" d="M0,0h0v0h0Z" pointer-events="none"/><g><g class="mark-rule role-axis-grid" pointer-events="none"><line transform="translate(0,0)" x2="0" y2="-360" stroke="#ddd" stroke-width="1" opacity="1"/><line transform="translate(50,0)" x2="0" y2="-360" stroke="#ddd" stroke-width="1" opacity="1"/><line transform="translate(100,0)" x2="0" y2="-360" stroke="#ddd" stroke-width="1" opacity="1"/><line transform="translate(150,0)" x2="0" y2="-360" stroke="#ddd" stroke-width="1" opacity="1"/><line transform="translate(200,0)" x2="0" y2="-360" stroke="#ddd" stroke-width="1" opacity="1"/></g></g><path class="foreground" aria-hidden="true" d="" pointer-events="none" display="none"/></g></g><g class="mark-group role-axis" role="graphics-symbol" aria-roledescription="axis" aria-label="X-axis titled 'mean execution time in µs' for a linear scale with values from 0 to 200"><g transform="translate(0.5,360.5)"><path class="background" aria-hidden="true" d="M0,0h0v0h0Z" pointer-events="none"/><g><g class="mark-rule role-axis-tick" pointer-events="none"><line transform="translate(0,0)" x2="0" y2="5" stroke="#888" stroke-width="1" opacity="1"/><line transform="translate(50,0)" x2="0" y2="5" stroke="#888" stroke-width="1" opacity="1"/><line transform="translate(100,0)" x2="0" y2="5" stroke="#888" stroke-width="1" opacity="1"/><line transform="translate(150,0)" x2="0" y2="5" stroke="#888" stroke-width="1" opacity="1"/><line transform="translate(200,0)" x2="0" y2="5" stroke="#888" stroke-width="1" opacity="1"/></g><g class="mark-text role-axis-label" pointer-events="none"><text text-anchor="start" transform="translate(0,15)" font-family="sans-serif" font-size="10px" fill="#000" opacity="1">0</text><text text-anchor="middle" transform="translate(50,15)" font-family="sans-serif" font-size="10px" fill="#000" opacity="1">50</text><text text-anchor="middle" transform="translate(100,15)" font-family="sans-serif" font-size="10px" fill="#000" opacity="1">100</text><text text-anchor="middle" transform="translate(150,15)" font-family="sans-serif" font-size="10px" fill="#000" opacity="1">150</text><text text-anchor="end" transform="translate(200,15)" font-family="sans-serif" font-size="10px" fill="#000" opacity="1">200</text></g><g class="mark-rule role-axis-domain" pointer-events="none"><line transform="translate(0,0)" x2="200" y2="0" stroke="#888" stroke-width="1" opacity="1"/></g><g class="mark-text role-axis-title" pointer-events="none"><text text-anchor="middle" transform="translate(100,30)" font-family="sans-serif" font-size="11px" font-weight="bold" fill="#000" opacity="1">mean execution time in µs</text></g></g><path class="foreground" aria-hidden="true" d="" pointer-events="none" display="none"/></g></g><g class="mark-group role-axis" role="graphics-symbol" aria-roledescription="axis" aria-label="Y-axis titled 'algorithm' for a discrete scale with 18 values: (wilczek) AVX NoAlign Outer-Loop Vectorization, (wilczek) AVX NoAlign Outer- and Inner-Loop Vectorization, (JohT) inputPerKernelValue Transposed, (wilczek) AVX NoAlign Inner-Loop Vectorization, (JohT) inputPerKernelValue Transposed LoopFissionIndexArithmetic, ending with (wilczek) Outer-Loop Vectorization"><g transform="translate(0.5,0.5)"><path class="background" aria-hidden="true" d="M0,0h0v0h0Z" pointer-events="none"/><g><g class="mark-rule role-axis-tick" pointer-events="none"><line transform="translate(0,10)" x2="-5" y2="0" stroke="#888" stroke-width="1" opacity="1"/><line transform="translate(0,30)" x2="-5" y2="0" stroke="#888" stroke-width="1" opacity="1"/><line transform="translate(0,50)" x2="-5" y2="0" stroke="#888" stroke-width="1" opacity="1"/><line transform="translate(0,70)" x2="-5" y2="0" stroke="#888" stroke-width="1" opacity="1"/><line transform="translate(0,90)" x2="-5" y2="0" stroke="#888" stroke-width="1" opacity="1"/><line transform="translate(0,110)" x2="-5" y2="0" stroke="#888" stroke-width="1" opacity="1"/><line transform="translate(0,130)" x2="-5" y2="0" stroke="#888" stroke-width="1" opacity="1"/><line transform="translate(0,150)" x2="-5" y2="0" stroke="#888" stroke-width="1" opacity="1"/><line transform="translate(0,170)" x2="-5" y2="0" stroke="#888" stroke-width="1" opacity="1"/><line transform="translate(0,190)" x2="-5" y2="0" stroke="#888" stroke-width="1" opacity="1"/><line transform="translate(0,210)" x2="-5" y2="0" stroke="#888" stroke-width="1" opacity="1"/><line transform="translate(0,230)" x2="-5" y2="0" stroke="#888" stroke-width="1" opacity="1"/><line transform="translate(0,250)" x2="-5" y2="0" stroke="#888" stroke-width="1" opacity="1"/><line transform="translate(0,270)" x2="-5" y2="0" stroke="#888" stroke-width="1" opacity="1"/><line transform="translate(0,290)" x2="-5" y2="0" stroke="#888" stroke-width="1" opacity="1"/><line transform="translate(0,310)" x2="-5" y2="0" stroke="#888" stroke-width="1" opacity="1"/><line transform="translate(0,330)" x2="-5" y2="0" stroke="#888" stroke-width="1" opacity="1"/><line transform="translate(0,350)" x2="-5" y2="0" stroke="#888" stroke-width="1" opacity="1"/></g><g class="mark-text role-axis-label" pointer-events="none"><text text-anchor="end" transform="translate(-7,12.5)" font-family="sans-serif" font-size="10px" fill="#000" opacity="1">(wilczek) AVX NoAlign Outer-Loop Vectorization</text><text text-anchor="end" transform="translate(-7,32.5)" font-family="sans-serif" font-size="10px" fill="#000" opacity="1">(wilczek) AVX NoAlign Outer- and Inner-Loop Vectorization</text><text text-anchor="end" transform="translate(-7,52.5)" font-family="sans-serif" font-size="10px" fill="#000" opacity="1">(JohT) inputPerKernelValue Transposed</text><text text-anchor="end" transform="translate(-7,72.5)" font-family="sans-serif" font-size="10px" fill="#000" opacity="1">(wilczek) AVX NoAlign Inner-Loop Vectorization</text><text text-anchor="end" transform="translate(-7,92.5)" font-family="sans-serif" font-size="10px" fill="#000" opacity="1">(JohT) inputPerKernelValue Transposed LoopFissionIndexArithme…</text><text text-anchor="end" transform="translate(-7,112.5)" font-family="sans-serif" font-size="10px" fill="#000" opacity="1">(JohT) inputPerKernelValue Transposed LoopFission</text><text text-anchor="end" transform="translate(-7,132.5)" font-family="sans-serif" font-size="10px" fill="#000" opacity="1">(JohT) inputPerKernelValue Transposed Inner&amp;OuterLoopUnrolled</text><text text-anchor="end" transform="translate(-7,152.5)" font-family="sans-serif" font-size="10px" fill="#000" opacity="1">(JohT) inputPerKernelValue Transposed InnerLoopUnrolled</text><text text-anchor="end" transform="translate(-7,172.5)" font-family="sans-serif" font-size="10px" fill="#000" opacity="1">(wilczek) Outer- and Inner-Loop Vectorization</text><text text-anchor="end" transform="translate(-7,192.5)" font-family="sans-serif" font-size="10px" fill="#000" opacity="1">(JohT) kernelPerInputValue Transposed LoopFission</text><text text-anchor="end" transform="translate(-7,212.5)" font-family="sans-serif" font-size="10px" fill="#000" opacity="1">(JohT) kernelPerInputValue Transposed</text><text text-anchor="end" transform="translate(-7,232.5)" font-family="sans-serif" font-size="10px" fill="#000" opacity="1">(JohT) inputPerKernelValue Transposed OuterLoopUnrolled</text><text text-anchor="end" transform="translate(-7,252.5)" font-family="sans-serif" font-size="10px" fill="#000" opacity="1">(chaowang15) convolve1D</text><text text-anchor="end" transform="translate(-7,272.5)" font-family="sans-serif" font-size="10px" fill="#000" opacity="1">(matlab-like) conv 'valid' shape pre padded</text><text text-anchor="end" transform="translate(-7,292.5)" font-family="sans-serif" font-size="10px" fill="#000" opacity="1">(matlab-like) conv 'full' shape</text><text text-anchor="end" transform="translate(-7,312.5)" font-family="sans-serif" font-size="10px" fill="#000" opacity="1">(wilczek) Single</text><text text-anchor="end" transform="translate(-7,332.5)" font-family="sans-serif" font-size="10px" fill="#000" opacity="1">(wilczek) Inner-Loop Vectorization</text><text text-anchor="end" transform="translate(-7,352.5)" font-family="sans-serif" font-size="10px" fill="#000" opacity="1">(wilczek) Outer-Loop Vectorization</text></g><g class="mark-rule role-axis-domain" pointer-events="none"><line transform="translate(0,0)" x2="0" y2="360" stroke="#888" stroke-width="1" opacity="1"/></g><g class="mark-text role-axis-title" pointer-events="none"><text text-anchor="middle" transform="translate(-320,180) rotate(-90) translate(0,-2)" font-family="sans-serif" font-size="11px" font-weight="bold" fill="#000" opacity="1">algorithm</text></g></g><path class="foreground" aria-hidden="true" d="" pointer-events="none" display="none"/></g></g><g class="mark-rect role-mark child_layer_0_marks" role="graphics-object" aria-roledescription="rect mark container"><path aria-label="mean execution time in µs: 131; algorithm: (JohT) kernelPerInputValue Transposed" role="graphics-symbol" aria-roledescription="bar" d="M0,201.9L127,201.9C129.207660097976,201.9,131,203.692339902024,131,205.9L131,214.1C131,216.307660097976,129.207660097976,218.1,127,218.1L0,218.1C0,218.1,0,218.1,0,218.1L0,201.9C0,201.9,0,201.9,0,201.9Z" fill="#4c78a8"/><path aria-label="mean execution time in µs: 38; algorithm: (JohT) inputPerKernelValue Transposed" role="graphics-symbol" aria-roledescription="bar" d="M0,41.9L34,41.9C36.207660097976,41.9,38,43.692339902023996,38,45.9L38,54.099999999999994C38,56.307660097976,36.207660097976,58.099999999999994,34,58.099999999999994L0,58.099999999999994C0,58.099999999999994,0,58.099999999999994,0,58.099999999999994L0,41.9C0,41.9,0,41.9,0,41.9Z" fill="#4c78a8"/><path aria-label="mean execution time in µs: 112; algorithm: (JohT) inputPerKernelValue Transposed InnerLoopUnrolled" role="graphics-symbol" aria-roledescription="bar" d="M0,141.9L108.00000000000001,141.9C110.20766009797602,141.9,112.00000000000001,143.692339902024,112.00000000000001,145.9L112.00000000000001,154.1C112.00000000000001,156.307660097976,110.20766009797602,158.1,108.00000000000001,158.1L0,158.1C0,158.1,0,158.1,0,158.1L0,141.9C0,141.9,0,141.9,0,141.9Z" fill="#4c78a8"/><path aria-label="mean execution time in µs: 131; algorithm: (JohT) inputPerKernelValue Transposed OuterLoopUnrolled" role="graphics-symbol" aria-roledescription="bar" d="M0,221.9L127,221.9C129.207660097976,221.9,131,223.692339902024,131,225.9L131,234.1C131,236.307660097976,129.207660097976,238.1,127,238.1L0,238.1C0,238.1,0,238.1,0,238.1L0,221.9C0,221.9,0,221.9,0,221.9Z" fill="#4c78a8"/><path aria-label="mean execution time in µs: 102; algorithm: (JohT) inputPerKernelValue Transposed Inner&amp;OuterLoopUnrolled" role="graphics-symbol" aria-roledescription="bar" d="M0,121.9L98,121.9C100.207660097976,121.9,102,123.692339902024,102,125.9L102,134.1C102,136.307660097976,100.207660097976,138.1,98,138.1L0,138.1C0,138.1,0,138.1,0,138.1L0,121.9C0,121.9,0,121.9,0,121.9Z" fill="#4c78a8"/><path aria-label="mean execution time in µs: 73; algorithm: (JohT) inputPerKernelValue Transposed LoopFission" role="graphics-symbol" aria-roledescription="bar" d="M0,101.9L69,101.9C71.207660097976,101.9,73,103.692339902024,73,105.9L73,114.10000000000001C73,116.30766009797601,71.207660097976,118.10000000000001,69,118.10000000000001L0,118.10000000000001C0,118.10000000000001,0,118.10000000000001,0,118.10000000000001L0,101.9C0,101.9,0,101.9,0,101.9Z" fill="#4c78a8"/><path aria-label="mean execution time in µs: 59; algorithm: (JohT) inputPerKernelValue Transposed LoopFissionIndexArithmetic" role="graphics-symbol" aria-roledescription="bar" d="M0,81.9L55,81.9C57.207660097976,81.9,59,83.692339902024,59,85.9L59,94.10000000000001C59,96.30766009797601,57.207660097976,98.10000000000001,55,98.10000000000001L0,98.10000000000001C0,98.10000000000001,0,98.10000000000001,0,98.10000000000001L0,81.9C0,81.9,0,81.9,0,81.9Z" fill="#4c78a8"/><path aria-label="mean execution time in µs: 130; algorithm: (JohT) kernelPerInputValue Transposed LoopFission" role="graphics-symbol" aria-roledescription="bar" d="M0,181.9L126,181.9C128.207660097976,181.9,130,183.692339902024,130,185.9L130,194.1C130,196.307660097976,128.207660097976,198.1,126,198.1L0,198.1C0,198.1,0,198.1,0,198.1L0,181.9C0,181.9,0,181.9,0,181.9Z" fill="#4c78a8"/><path aria-label="mean execution time in µs: 145; algorithm: (matlab-like) conv 'full' shape" role="graphics-symbol" aria-roledescription="bar" d="M0,281.9L141,281.9C143.207660097976,281.9,145,283.692339902024,145,285.9L145,294.09999999999997C145,296.30766009797594,143.207660097976,298.09999999999997,141,298.09999999999997L0,298.09999999999997C0,298.09999999999997,0,298.09999999999997,0,298.09999999999997L0,281.9C0,281.9,0,281.9,0,281.9Z" fill="#4c78a8"/><path aria-label="mean execution time in µs: 136; algorithm: (matlab-like) conv 'valid' shape pre padded" role="graphics-symbol" aria-roledescription="bar" d="M0,261.9L132,261.9C134.207660097976,261.9,136,263.692339902024,136,265.9L136,274.09999999999997C136,276.30766009797594,134.207660097976,278.09999999999997,132,278.09999999999997L0,278.09999999999997C0,278.09999999999997,0,278.09999999999997,0,278.09999999999997L0,261.9C0,261.9,0,261.9,0,261.9Z" fill="#4c78a8"/><path aria-label="mean execution time in µs: 172; algorithm: (wilczek) Single" role="graphics-symbol" aria-roledescription="bar" d="M0,301.9L168,301.9C170.207660097976,301.9,172,303.692339902024,172,305.9L172,314.09999999999997C172,316.30766009797594,170.207660097976,318.09999999999997,168,318.09999999999997L0,318.09999999999997C0,318.09999999999997,0,318.09999999999997,0,318.09999999999997L0,301.9C0,301.9,0,301.9,0,301.9Z" fill="#4c78a8"/><path aria-label="mean execution time in µs: 177; algorithm: (wilczek) Inner-Loop Vectorization" role="graphics-symbol" aria-roledescription="bar" d="M0,321.9L173,321.9C175.207660097976,321.9,177,323.692339902024,177,325.9L177,334.09999999999997C177,336.30766009797594,175.207660097976,338.09999999999997,173,338.09999999999997L0,338.09999999999997C0,338.09999999999997,0,338.09999999999997,0,338.09999999999997L0,321.9C0,321.9,0,321.9,0,321.9Z" fill="#4c78a8"/><path aria-label="mean execution time in µs: 200; algorithm: (wilczek) Outer-Loop Vectorization" role="graphics-symbol" aria-roledescription="bar" d="M0,341.9L196,341.9C198.207660097976,341.9,200,343.692339902024,200,345.9L200,354.09999999999997C200,356.30766009797594,198.207660097976,358.09999999999997,196,358.09999999999997L0,358.09999999999997C0,358.09999999999997,0,358.09999999999997,0,358.09999999999997L0,341.9C0,341.9,0,341.9,0,341.9Z" fill="#4c78a8"/><path aria-label="mean execution time in µs: 114; algorithm: (wilczek) Outer- and Inner-Loop Vectorization" role="graphics-symbol" aria-roledescription="bar" d="M0,161.9L109.99999999999999,161.9C112.20766009797599,161.9,113.99999999999999,163.692339902024,113.99999999999999,165.9L113.99999999999999,174.1C113.99999999999999,176.307660097976,112.20766009797599,178.1,109.99999999999999,178.1L0,178.1C0,178.1,0,178.1,0,178.1L0,161.9C0,161.9,0,161.9,0,161.9Z" fill="#4c78a8"/><path aria-label="mean execution time in µs: 38; algorithm: (wilczek) AVX NoAlign Inner-Loop Vectorization" role="graphics-symbol" aria-roledescription="bar" d="M0,61.9L34,61.9C36.207660097976,61.9,38,63.692339902023996,38,65.9L38,74.1C38,76.307660097976,36.207660097976,78.1,34,78.1L0,78.1C0,78.1,0,78.1,0,78.1L0,61.9C0,61.9,0,61.9,0,61.9Z" fill="#4c78a8"/><path aria-label="mean execution time in µs: 24; algorithm: (wilczek) AVX NoAlign Outer-Loop Vectorization" role="graphics-symbol" aria-roledescription="bar" d="M0,1.9L20,1.9C22.207660097976,1.9,24,3.692339902024,24,5.9L24,14.099999999999998C24,16.307660097975997,22.207660097976,18.099999999999998,20,18.099999999999998L0,18.099999999999998C0,18.099999999999998,0,18.099999999999998,0,18.099999999999998L0,1.9C0,1.9,0,1.9,0,1.9Z" fill="#4c78a8"/><path aria-label="mean execution time in µs: 25; algorithm: (wilczek) AVX NoAlign Outer- and Inner-Loop Vectorization" role="graphics-symbol" aria-roledescription="bar" d="M0,21.9L21,21.9C23.207660097976,21.9,25,23.692339902024,25,25.9L25,34.099999999999994C25,36.307660097976,23.207660097976,38.099999999999994,21,38.099999999999994L0,38.099999999999994C0,38.099999999999994,0,38.099999999999994,0,38.099999999999994L0,21.9C0,21.9,0,21.9,0,21.9Z" fill="#4c78a8"/><path aria-label="mean execution time in µs: 135; algorithm: (chaowang15) convolve1D" role="graphics-symbol" aria-roledescription="bar" d="M0,241.9L131,241.9C133.207660097976,241.9,135,243.692339902024,135,245.9L135,254.10000000000002C135,256.307660097976,133.207660097976,258.1,131,258.1L0,258.1C0,258.1,0,258.1,0,258.1L0,241.9C0,241.9,0,241.9,0,241.9Z" fill="#4c78a8"/></g><g class="mark-text role-mark child_layer_1_marks" role="graphics-object" aria-roledescription="text mark container"><text aria-label="mean execution time in µs: 131; algorithm: (JohT) kernelPerInputValue Transposed; MeanExecutionTime: 131" role="graphics-symbol" aria-roledescription="text mark" text-anchor="start" transform="translate(135,213)" font-family="sans-serif" font-size="9px" fill="black">131</text><text aria-label="mean execution time in µs: 38; algorithm: (JohT) inputPerKernelValue Transposed; MeanExecutionTime: 38" role="graphics-symbol" aria-roledescription="text mark" text-anchor="start" transform="translate(42,53)" font-family="sans-serif" font-size="9px" fill="black">38</text><text aria-label="mean execution time in µs: 112; algorithm: (JohT) inputPerKernelValue Transposed InnerLoopUnrolled; MeanExecutionTime: 112" role="graphics-symbol" aria-roledescription="text mark" text-anchor="start" transform="translate(116.00000000000001,153)" font-family="sans-serif" font-size="9px" fill="black">112</text><text aria-label="mean execution time in µs: 131; algorithm: (JohT) inputPerKernelValue Transposed OuterLoopUnrolled; MeanExecutionTime: 131" role="graphics-symbol" aria-roledescription="text mark" text-anchor="start" transform="translate(135,233)" font-family="sans-serif" font-size="9px" fill="black">131</text><text aria-label="mean execution time in µs: 102; algorithm: (JohT) inputPerKernelValue Transposed Inner&amp;OuterLoopUnrolled; MeanExecutionTime: 102" role="graphics-symbol" aria-roledescription="text mark" text-anchor="start" transform="translate(106,133)" font-family="sans-serif" font-size="9px" fill="black">102</text><text aria-label="mean execution time in µs: 73; algorithm: (JohT) inputPerKernelValue Transposed LoopFission; MeanExecutionTime: 73" role="graphics-symbol" aria-roledescription="text mark" text-anchor="start" transform="translate(77,113)" font-family="sans-serif" font-size="9px" fill="black">73</text><text aria-label="mean execution time in µs: 59; algorithm: (JohT) inputPerKernelValue Transposed LoopFissionIndexArithmetic; MeanExecutionTime: 59" role="graphics-symbol" aria-roledescription="text mark" text-anchor="start" transform="translate(63,93)" font-family="sans-serif" font-size="9px" fill="black">59</text><text aria-label="mean execution time in µs: 130; algorithm: (JohT) kernelPerInputValue Transposed LoopFission; MeanExecutionTime: 130" role="graphics-symbol" aria-roledescription="text mark" text-anchor="start" transform="translate(134,193)" font-family="sans-serif" font-size="9px" fill="black">130</text><text aria-label="mean execution time in µs: 145; algorithm: (matlab-like) conv 'full' shape; MeanExecutionTime: 145" role="graphics-symbol" aria-roledescription="text mark" text-anchor="start" transform="translate(149,293)" font-family="sans-serif" font-size="9px" fill="black">145</text><text aria-label="mean execution time in µs: 136; algorithm: (matlab-like) conv 'valid' shape pre padded; MeanExecutionTime: 136" role="graphics-symbol" aria-roledescription="text mark" text-anchor="start" transform="translate(140,273)" font-family="sans-serif" font-size="9px" fill="black">136</text><text aria-label="mean execution time in µs: 172; algorithm: (wilczek) Single; MeanExecutionTime: 172" role="graphics-symbol" aria-roledescription="text mark" text-anchor="start" transform="translate(176,313)" font-family="sans-serif" font-size="9px" fill="black">172</text><text aria-label="mean execution time in µs: 177; algorithm: (wilczek) Inner-Loop Vectorization; MeanExecutionTime: 177" role="graphics-symbol" aria-roledescription="text mark" text-anchor="start" transform="translate(181,333)" font-family="sans-serif" font-size="9px" fill="black">177</text><text aria-label="mean execution time in µs: 200; algorithm: (wilczek) Outer-Loop Vectorization; MeanExecutionTime: 200" role="graphics-symbol" aria-roledescription="text mark" text-anchor="start" transform="translate(204,353)" font-family="sans-serif" font-size="9px" fill="black">200</text><text aria-label="mean execution time in µs: 114; algorithm: (wilczek) Outer- and Inner-Loop Vectorization; MeanExecutionTime: 114" role="graphics-symbol" aria-roledescription="text mark" text-anchor="start" transform="translate(117.99999999999999,173)" font-family="sans-serif" font-size="9px" fill="black">114</text><text aria-label="mean execution time in µs: 38; algorithm: (wilczek) AVX NoAlign Inner-Loop Vectorization; MeanExecutionTime: 38" role="graphics-symbol" aria-roledescription="text mark" text-anchor="start" transform="translate(42,73)" font-family="sans-serif" font-size="9px" fill="black">38</text><text aria-label="mean execution time in µs: 24; algorithm: (wilczek) AVX NoAlign Outer-Loop Vectorization; MeanExecutionTime: 24" role="graphics-symbol" aria-roledescription="text mark" text-anchor="start" transform="translate(28,13)" font-family="sans-serif" font-size="9px" fill="black">24</text><text aria-label="mean execution time in µs: 25; algorithm: (wilczek) AVX NoAlign Outer- and Inner-Loop Vectorization; MeanExecutionTime: 25" role="graphics-symbol" aria-roledescription="text mark" text-anchor="start" transform="translate(29,33)" font-family="sans-serif" font-size="9px" fill="black">25</text><text aria-label="mean execution time in µs: 135; algorithm: (chaowang15) convolve1D; MeanExecutionTime: 135" role="graphics-symbol" aria-roledescription="text mark" text-anchor="start" transform="translate(139,253)" font-family="sans-serif" font-size="9px" fill="black">135</text></g></g><path class="foreground" aria-hidden="true" d="" display="none"/></g><g transform="translate(750,0)"><path class="background" aria-hidden="true" d="M0.5,0.5h200v360h-200Z" stroke="#ddd"/><g><g class="mark-group role-axis" aria-hidden="true"><g transform="translate(0.5,360.5)"><path class="background" aria-hidden="true" d="M0,0h0v0h0Z" pointer-events="none"/><g><g class="mark-rule role-axis-grid" pointer-events="none"><line transform="translate(0,0)" x2="0" y2="-360" stroke="#ddd" stroke-width="1" opacity="1"/><line transform="translate(44,0)" x2="0" y2="-360" stroke="#ddd" stroke-width="1" opacity="1"/><line transform="translate(89,0)" x2="0" y2="-360" stroke="#ddd" stroke-width="1" opacity="1"/><line transform="translate(133,0)" x2="0" y2="-360" stroke="#ddd" stroke-width="1" opacity="1"/><line transform="translate(178,0)" x2="0" y2="-360" stroke="#ddd" stroke-width="1" opacity="1"/></g></g><path class="foreground" aria-hidden="true" d="" pointer-events="none" display="none"/></g></g><g class="mark-group role-axis" role="graphics-symbol" aria-roledescription="axis" aria-label="X-axis titled 'mean execution time in µs' for a linear scale with values from 0 to 9,000"><g transform="translate(0.5,360.5)"><path class="background" aria-hidden="true" d="M0,0h0v0h0Z" pointer-events="none"/><g><g class="mark-rule role-axis-tick" pointer-events="none"><line transform="translate(0,0)" x2="0" y2="5" stroke="#888" stroke-width="1" opacity="1"/><line transform="translate(44,0)" x2="0" y2="5" stroke="#888" stroke-width="1" opacity="1"/><line transform="translate(89,0)" x2="0" y2="5" stroke="#888" stroke-width="1" opacity="1"/><line transform="translate(133,0)" x2="0" y2="5" stroke="#888" stroke-width="1" opacity="1"/><line transform="translate(178,0)" x2="0" y2="5" stroke="#888" stroke-width="1" opacity="1"/></g><g class="mark-text role-axis-label" pointer-events="none"><text text-anchor="start" transform="translate(0,15)" font-family="sans-serif" font-size="10px" fill="#000" opacity="1">0</text><text text-anchor="middle" transform="translate(44.44444444444444,15)" font-family="sans-serif" font-size="10px" fill="#000" opacity="1">2,000</text><text text-anchor="middle" transform="translate(88.88888888888889,15)" font-family="sans-serif" font-size="10px" fill="#000" opacity="1">4,000</text><text text-anchor="middle" transform="translate(133.33333333333331,15)" font-family="sans-serif" font-size="10px" fill="#000" opacity="1">6,000</text><text text-anchor="middle" transform="translate(177.77777777777777,15)" font-family="sans-serif" font-size="10px" fill="#000" opacity="1">8,000</text></g><g class="mark-rule role-axis-domain" pointer-events="none"><line transform="translate(0,0)" x2="200" y2="0" stroke="#888" stroke-width="1" opacity="1"/></g><g class="mark-text role-axis-title" pointer-events="none"><text text-anchor="middle" transform="translate(100,30)" font-family="sans-serif" font-size="11px" font-weight="bold" fill="#000" opacity="1">mean execution time in µs</text></g></g><path class="foreground" aria-hidden="true" d="" pointer-events="none" display="none"/></g></g><g class="mark-group role-axis" role="graphics-symbol" aria-roledescription="axis" aria-label="Y-axis titled 'algorithm' for a discrete scale with 18 values: (wilczek) AVX NoAlign Outer- and Inner-Loop Vectorization, (JohT) kernelPerInputValue Transposed, (wilczek) AVX NoAlign Inner-Loop Vectorization, (wilczek) AVX NoAlign Outer-Loop Vectorization, (JohT) inputPerKernelValue Transposed, ending with (wilczek) Outer-Loop Vectorization"><g transform="translate(0.5,0.5)"><path class="background" aria-hidden="true" d="M0,0h0v0h0Z" pointer-events="none"/><g><g class="mark-rule role-axis-tick" pointer-events="none"><line transform="translate(0,10)" x2="-5" y2="0" stroke="#888" stroke-width="1" opacity="1"/><line transform="translate(0,30)" x2="-5" y2="0" stroke="#888" stroke-width="1" opacity="1"/><line transform="translate(0,50)" x2="-5" y2="0" stroke="#888" stroke-width="1" opacity="1"/><line transform="translate(0,70)" x2="-5" y2="0" stroke="#888" stroke-width="1" opacity="1"/><line transform="translate(0,90)" x2="-5" y2="0" stroke="#888" stroke-width="1" opacity="1"/><line transform="translate(0,110)" x2="-5" y2="0" stroke="#888" stroke-width="1" opacity="1"/><line transform="translate(0,130)" x2="-5" y2="0" stroke="#888" stroke-width="1" opacity="1"/><line transform="translate(0,150)" x2="-5" y2="0" stroke="#888" stroke-width="1" opacity="1"/><line transform="translate(0,170)" x2="-5" y2="0" stroke="#888" stroke-width="1" opacity="1"/><line transform="translate(0,190)" x2="-5" y2="0" stroke="#888" stroke-width="1" opacity="1"/><line transform="translate(0,210)" x2="-5" y2="0" stroke="#888" stroke-width="1" opacity="1"/><line transform="translate(0,230)" x2="-5" y2="0" stroke="#888" stroke-width="1" opacity="1"/><line transform="translate(0,250)" x2="-5" y2="0" stroke="#888" stroke-width="1" opacity="1"/><line transform="translate(0,270)" x2="-5" y2="0" stroke="#888" stroke-width="1" opacity="1"/><line transform="translate(0,290)" x2="-5" y2="0" stroke="#888" stroke-width="1" opacity="1"/><line transform="translate(0,310)" x2="-5" y2="0" stroke="#888" stroke-width="1" opacity="1"/><line transform="translate(0,330)" x2="-5" y2="0" stroke="#888" stroke-width="1" opacity="1"/><line transform="translate(0,350)" x2="-5" y2="0" stroke="#888" stroke-width="1" opacity="1"/></g><g class="mark-text role-axis-label" pointer-events="none"><text text-anchor="end" transform="translate(-7,12.5)" font-family="sans-serif" font-size="10px" fill="#000" opacity="1">(wilczek) AVX NoAlign Outer- and Inner-Loop Vectorization</text><text text-anchor="end" transform="translate(-7,32.5)" font-family="sans-serif" font-size="10px" fill="#000" opacity="1">(JohT) kernelPerInputValue Transposed</text><text text-anchor="end" transform="translate(-7,52.5)" font-family="sans-serif" font-size="10px" fill="#000" opacity="1">(wilczek) AVX NoAlign Inner-Loop Vectorization</text><text text-anchor="end" transform="translate(-7,72.5)" font-family="sans-serif" font-size="10px" fill="#000" opacity="1">(wilczek) AVX NoAlign Outer-Loop Vectorization</text><text text-anchor="end" transform="translate(-7,92.5)" font-family="sans-serif" font-size="10px" fill="#000" opacity="1">(JohT) inputPerKernelValue Transposed</text><text text-anchor="end" transform="translate(-7,112.5)" font-family="sans-serif" font-size="10px" fill="#000" opacity="1">(JohT) kernelPerInputValue Transposed LoopFission</text><text text-anchor="end" transform="translate(-7,132.5)" font-family="sans-serif" font-size="10px" fill="#000" opacity="1">(JohT) inputPerKernelValue Transposed LoopFission</text><text text-anchor="end" transform="translate(-7,152.5)" font-family="sans-serif" font-size="10px" fill="#000" opacity="1">(JohT) inputPerKernelValue Transposed LoopFissionIndexArithme…</text><text text-anchor="end" transform="translate(-7,172.5)" font-family="sans-serif" font-size="10px" fill="#000" opacity="1">(wilczek) Inner-Loop Vectorization</text><text text-anchor="end" transform="translate(-7,192.5)" font-family="sans-serif" font-size="10px" fill="#000" opacity="1">(JohT) inputPerKernelValue Transposed Inner&amp;OuterLoopUnrolled</text><text text-anchor="end" transform="translate(-7,212.5)" font-family="sans-serif" font-size="10px" fill="#000" opacity="1">(JohT) inputPerKernelValue Transposed InnerLoopUnrolled</text><text text-anchor="end" transform="translate(-7,232.5)" font-family="sans-serif" font-size="10px" fill="#000" opacity="1">(wilczek) Outer- and Inner-Loop Vectorization</text><text text-anchor="end" transform="translate(-7,252.5)" font-family="sans-serif" font-size="10px" fill="#000" opacity="1">(JohT) inputPerKernelValue Transposed OuterLoopUnrolled</text><text text-anchor="end" transform="translate(-7,272.5)" font-family="sans-serif" font-size="10px" fill="#000" opacity="1">(chaowang15) convolve1D</text><text text-anchor="end" transform="translate(-7,292.5)" font-family="sans-serif" font-size="10px" fill="#000" opacity="1">(matlab-like) conv 'full' shape</text><text text-anchor="end" transform="translate(-7,312.5)" font-family="sans-serif" font-size="10px" fill="#000" opacity="1">(matlab-like) conv 'valid' shape pre padded</text><text text-anchor="end" transform="translate(-7,332.5)" font-family="sans-serif" font-size="10px" fill="#000" opacity="1">(wilczek) Single</text><text text-anchor="end" transform="translate(-7,352.5)" font-family="sans-serif" font-size="10px" fill="#000" opacity="1">(wilczek) Outer-Loop Vectorization</text></g><g class="mark-rule role-axis-domain" pointer-events="none"><line transform="translate(0,0)" x2="0" y2="360" stroke="#888" stroke-width="1" opacity="1"/></g><g class="mark-text role-axis-title" pointer-events="none"><text text-anchor="middle" transform="translate(-320,180) rotate(-90) translate(0,-2)" font-family="sans-serif" font-size="11px" font-weight="bold" fill="#000" opacity="1">algorithm</text></g></g><path class="foreground" aria-hidden="true" d="" pointer-events="none" display="none"/></g></g><g class="mark-rect role-mark child_layer_0_marks" role="graphics-object" aria-roledescription="rect mark container"><path aria-label="mean execution time in µs: 570; algorithm: (JohT) kernelPerInputValue Transposed" role="graphics-symbol" aria-roledescription="bar" d="M0,21.9L8.666666666666668,21.9C10.874326764642667,21.9,12.666666666666668,23.692339902024,12.666666666666668,25.9L12.666666666666668,34.099999999999994C12.666666666666668,36.307660097976,10.874326764642667,38.099999999999994,8.666666666666668,38.099999999999994L0,38.099999999999994C0,38.099999999999994,0,38.099999999999994,0,38.099999999999994L0,21.9C0,21.9,0,21.9,0,21.9Z" fill="#4c78a8"/><path aria-label="mean execution time in µs: 1094; algorithm: (JohT) inputPerKernelValue Transposed" role="graphics-symbol" aria-roledescription="bar" d="M0,81.9L20.31111111111111,81.9C22.51877120908711,81.9,24.31111111111111,83.692339902024,24.31111111111111,85.9L24.31111111111111,94.10000000000001C24.31111111111111,96.30766009797601,22.51877120908711,98.10000000000001,20.31111111111111,98.10000000000001L0,98.10000000000001C0,98.10000000000001,0,98.10000000000001,0,98.10000000000001L0,81.9C0,81.9,0,81.9,0,81.9Z" fill="#4c78a8"/><path aria-label="mean execution time in µs: 3036; algorithm: (JohT) inputPerKernelValue Transposed InnerLoopUnrolled" role="graphics-symbol" aria-roledescription="bar" d="M0,201.9L63.46666666666667,201.9C65.67432676464267,201.9,67.46666666666667,203.692339902024,67.46666666666667,205.9L67.46666666666667,214.1C67.46666666666667,216.307660097976,65.67432676464267,218.1,63.46666666666667,218.1L0,218.1C0,218.1,0,218.1,0,218.1L0,201.9C0,201.9,0,201.9,0,201.9Z" fill="#4c78a8"/><path aria-label="mean execution time in µs: 4300; algorithm: (JohT) inputPerKernelValue Transposed OuterLoopUnrolled" role="graphics-symbol" aria-roledescription="bar" d="M0,241.9L91.55555555555556,241.9C93.76321565353156,241.9,95.55555555555556,243.692339902024,95.55555555555556,245.9L95.55555555555556,254.10000000000002C95.55555555555556,256.307660097976,93.76321565353156,258.1,91.55555555555556,258.1L0,258.1C0,258.1,0,258.1,0,258.1L0,241.9C0,241.9,0,241.9,0,241.9Z" fill="#4c78a8"/><path aria-label="mean execution time in µs: 3010; algorithm: (JohT) inputPerKernelValue Transposed Inner&amp;OuterLoopUnrolled" role="graphics-symbol" aria-roledescription="bar" d="M0,181.9L62.888888888888886,181.9C65.09654898686489,181.9,66.88888888888889,183.692339902024,66.88888888888889,185.9L66.88888888888889,194.1C66.88888888888889,196.307660097976,65.09654898686489,198.1,62.888888888888886,198.1L0,198.1C0,198.1,0,198.1,0,198.1L0,181.9C0,181.9,0,181.9,0,181.9Z" fill="#4c78a8"/><path aria-label="mean execution time in µs: 1413; algorithm: (JohT) inputPerKernelValue Transposed LoopFission" role="graphics-symbol" aria-roledescription="bar" d="M0,121.9L27.4,121.9C29.607660097975998,121.9,31.4,123.692339902024,31.4,125.9L31.4,134.1C31.4,136.307660097976,29.607660097975998,138.1,27.4,138.1L0,138.1C0,138.1,0,138.1,0,138.1L0,121.9C0,121.9,0,121.9,0,121.9Z" fill="#4c78a8"/><path aria-label="mean execution time in µs: 1522; algorithm: (JohT) inputPerKernelValue Transposed LoopFissionIndexArithmetic" role="graphics-symbol" aria-roledescription="bar" d="M0,141.9L29.822222222222223,141.9C32.029882320198226,141.9,33.82222222222222,143.692339902024,33.82222222222222,145.9L33.82222222222222,154.1C33.82222222222222,156.307660097976,32.029882320198226,158.1,29.822222222222223,158.1L0,158.1C0,158.1,0,158.1,0,158.1L0,141.9C0,141.9,0,141.9,0,141.9Z" fill="#4c78a8"/><path aria-label="mean execution time in µs: 1126; algorithm: (JohT) kernelPerInputValue Transposed LoopFission" role="graphics-symbol" aria-roledescription="bar" d="M0,101.9L21.022222222222222,101.9C23.22988232019822,101.9,25.022222222222222,103.692339902024,25.022222222222222,105.9L25.022222222222222,114.10000000000001C25.022222222222222,116.30766009797601,23.22988232019822,118.10000000000001,21.022222222222222,118.10000000000001L0,118.10000000000001C0,118.10000000000001,0,118.10000000000001,0,118.10000000000001L0,101.9C0,101.9,0,101.9,0,101.9Z" fill="#4c78a8"/><path aria-label="mean execution time in µs: 7650; algorithm: (matlab-like) conv 'full' shape" role="graphics-symbol" aria-roledescription="bar" d="M0,281.9L166,281.9C168.207660097976,281.9,170,283.692339902024,170,285.9L170,294.09999999999997C170,296.30766009797594,168.207660097976,298.09999999999997,166,298.09999999999997L0,298.09999999999997C0,298.09999999999997,0,298.09999999999997,0,298.09999999999997L0,281.9C0,281.9,0,281.9,0,281.9Z" fill="#4c78a8"/><path aria-label="mean execution time in µs: 7760; algorithm: (matlab-like) conv 'valid' shape pre padded" role="graphics-symbol" aria-roledescription="bar" d="M0,301.9L168.44444444444446,301.9C170.65210454242046,301.9,172.44444444444446,303.692339902024,172.44444444444446,305.9L172.44444444444446,314.09999999999997C172.44444444444446,316.30766009797594,170.65210454242046,318.09999999999997,168.44444444444446,318.09999999999997L0,318.09999999999997C0,318.09999999999997,0,318.09999999999997,0,318.09999999999997L0,301.9C0,301.9,0,301.9,0,301.9Z" fill="#4c78a8"/><path aria-label="mean execution time in µs: 7842; algorithm: (wilczek) Single" role="graphics-symbol" aria-roledescription="bar" d="M0,321.9L170.26666666666665,321.9C172.47432676464265,321.9,174.26666666666665,323.692339902024,174.26666666666665,325.9L174.26666666666665,334.09999999999997C174.26666666666665,336.30766009797594,172.47432676464265,338.09999999999997,170.26666666666665,338.09999999999997L0,338.09999999999997C0,338.09999999999997,0,338.09999999999997,0,338.09999999999997L0,321.9C0,321.9,0,321.9,0,321.9Z" fill="#4c78a8"/><path aria-label="mean execution time in µs: 2953; algorithm: (wilczek) Inner-Loop Vectorization" role="graphics-symbol" aria-roledescription="bar" d="M0,161.9L61.62222222222222,161.9C63.82988232019822,161.9,65.62222222222222,163.692339902024,65.62222222222222,165.9L65.62222222222222,174.1C65.62222222222222,176.307660097976,63.82988232019822,178.1,61.62222222222222,178.1L0,178.1C0,178.1,0,178.1,0,178.1L0,161.9C0,161.9,0,161.9,0,161.9Z" fill="#4c78a8"/><path aria-label="mean execution time in µs: 8006; algorithm: (wilczek) Outer-Loop Vectorization" role="graphics-symbol" aria-roledescription="bar" d="M0,341.9L173.9111111111111,341.9C176.1187712090871,341.9,177.9111111111111,343.692339902024,177.9111111111111,345.9L177.9111111111111,354.09999999999997C177.9111111111111,356.30766009797594,176.1187712090871,358.09999999999997,173.9111111111111,358.09999999999997L0,358.09999999999997C0,358.09999999999997,0,358.09999999999997,0,358.09999999999997L0,341.9C0,341.9,0,341.9,0,341.9Z" fill="#4c78a8"/><path aria-label="mean execution time in µs: 3366; algorithm: (wilczek) Outer- and Inner-Loop Vectorization" role="graphics-symbol" aria-roledescription="bar" d="M0,221.9L70.8,221.9C73.007660097976,221.9,74.8,223.692339902024,74.8,225.9L74.8,234.1C74.8,236.307660097976,73.007660097976,238.1,70.8,238.1L0,238.1C0,238.1,0,238.1,0,238.1L0,221.9C0,221.9,0,221.9,0,221.9Z" fill="#4c78a8"/><path aria-label="mean execution time in µs: 777; algorithm: (wilczek) AVX NoAlign Inner-Loop Vectorization" role="graphics-symbol" aria-roledescription="bar" d="M0,41.9L13.266666666666666,41.9C15.474326764642665,41.9,17.266666666666666,43.692339902023996,17.266666666666666,45.9L17.266666666666666,54.099999999999994C17.266666666666666,56.307660097976,15.474326764642665,58.099999999999994,13.266666666666666,58.099999999999994L0,58.099999999999994C0,58.099999999999994,0,58.099999999999994,0,58.099999999999994L0,41.9C0,41.9,0,41.9,0,41.9Z" fill="#4c78a8"/><path aria-label="mean execution time in µs: 973; algorithm: (wilczek) AVX NoAlign Outer-Loop Vectorization" role="graphics-symbol" aria-roledescription="bar" d="M0,61.9L17.622222222222224,61.9C19.829882320198223,61.9,21.622222222222224,63.692339902023996,21.622222222222224,65.9L21.622222222222224,74.1C21.622222222222224,76.307660097976,19.829882320198223,78.1,17.622222222222224,78.1L0,78.1C0,78.1,0,78.1,0,78.1L0,61.9C0,61.9,0,61.9,0,61.9Z" fill="#4c78a8"/><path aria-label="mean execution time in µs: 313; algorithm: (wilczek) AVX NoAlign Outer- and Inner-Loop Vectorization" role="graphics-symbol" aria-roledescription="bar" d="M0,1.9L3.4777777777777774,1.9C5.397215585184688,1.9,6.955555555555555,3.4583399703708664,6.955555555555555,5.377777777777777L6.955555555555555,14.62222222222222C6.955555555555555,16.54166002962913,5.397215585184688,18.099999999999998,3.4777777777777774,18.099999999999998L0,18.099999999999998C0,18.099999999999998,0,18.099999999999998,0,18.099999999999998L0,1.9C0,1.9,0,1.9,0,1.9Z" fill="#4c78a8"/><path aria-label="mean execution time in µs: 7640; algorithm: (chaowang15) convolve1D" role="graphics-symbol" aria-roledescription="bar" d="M0,261.9L165.77777777777777,261.9C167.98543787575377,261.9,169.77777777777777,263.692339902024,169.77777777777777,265.9L169.77777777777777,274.09999999999997C169.77777777777777,276.30766009797594,167.98543787575377,278.09999999999997,165.77777777777777,278.09999999999997L0,278.09999999999997C0,278.09999999999997,0,278.09999999999997,0,278.09999999999997L0,261.9C0,261.9,0,261.9,0,261.9Z" fill="#4c78a8"/></g><g class="mark-text role-mark child_layer_1_marks" role="graphics-object" aria-roledescription="text mark container"><text aria-label="mean execution time in µs: 570; algorithm: (JohT) kernelPerInputValue Transposed; MeanExecutionTime: 570" role="graphics-symbol" aria-roledescription="text mark" text-anchor="start" transform="translate(16.666666666666668,33)" font-family="sans-serif" font-size="9px" fill="black">570</text><text aria-label="mean execution time in µs: 1094; algorithm: (JohT) inputPerKernelValue Transposed; MeanExecutionTime: 1094" role="graphics-symbol" aria-roledescription="text mark" text-anchor="start" transform="translate(28.31111111111111,93)" font-family="sans-serif" font-size="9px" fill="black">1094</text><text aria-label="mean execution time in µs: 3036; algorithm: (JohT) inputPerKernelValue Transposed InnerLoopUnrolled; MeanExecutionTime: 3036" role="graphics-symbol" aria-roledescription="text mark" text-anchor="start" transform="translate(71.46666666666667,213)" font-family="sans-serif" font-size="9px" fill="black">3036</text><text aria-label="mean execution time in µs: 4300; algorithm: (JohT) inputPerKernelValue Transposed OuterLoopUnrolled; MeanExecutionTime: 4300" role="graphics-symbol" aria-roledescription="text mark" text-anchor="start" transform="translate(99.55555555555556,253)" font-family="sans-serif" font-size="9px" fill="black">4300</text><text aria-label="mean execution time in µs: 3010; algorithm: (JohT) inputPerKernelValue Transposed Inner&amp;OuterLoopUnrolled; MeanExecutionTime: 3010" role="graphics-symbol" aria-roledescription="text mark" text-anchor="start" transform="translate(70.88888888888889,193)" font-family="sans-serif" font-size="9px" fill="black">3010</text><text aria-label="mean execution time in µs: 1413; algorithm: (JohT) inputPerKernelValue Transposed LoopFission; MeanExecutionTime: 1413" role="graphics-symbol" aria-roledescription="text mark" text-anchor="start" transform="translate(35.4,133)" font-family="sans-serif" font-size="9px" fill="black">1413</text><text aria-label="mean execution time in µs: 1522; algorithm: (JohT) inputPerKernelValue Transposed LoopFissionIndexArithmetic; MeanExecutionTime: 1522" role="graphics-symbol" aria-roledescription="text mark" text-anchor="start" transform="translate(37.82222222222222,153)" font-family="sans-serif" font-size="9px" fill="black">1522</text><text aria-label="mean execution time in µs: 1126; algorithm: (JohT) kernelPerInputValue Transposed LoopFission; MeanExecutionTime: 1126" role="graphics-symbol" aria-roledescription="text mark" text-anchor="start" transform="translate(29.022222222222222,113)" font-family="sans-serif" font-size="9px" fill="black">1126</text><text aria-label="mean execution time in µs: 7650; algorithm: (matlab-like) conv 'full' shape; MeanExecutionTime: 7650" role="graphics-symbol" aria-roledescription="text mark" text-anchor="start" transform="translate(174,293)" font-family="sans-serif" font-size="9px" fill="black">7650</text><text aria-label="mean execution time in µs: 7760; algorithm: (matlab-like) conv 'valid' shape pre padded; MeanExecutionTime: 7760" role="graphics-symbol" aria-roledescription="text mark" text-anchor="start" transform="translate(176.44444444444446,313)" font-family="sans-serif" font-size="9px" fill="black">7760</text><text aria-label="mean execution time in µs: 7842; algorithm: (wilczek) Single; MeanExecutionTime: 7842" role="graphics-symbol" aria-roledescription="text mark" text-anchor="start" transform="translate(178.26666666666665,333)" font-family="sans-serif" font-size="9px" fill="black">7842</text><text aria-label="mean execution time in µs: 2953; algorithm: (wilczek) Inner-Loop Vectorization; MeanExecutionTime: 2953" role="graphics-symbol" aria-roledescription="text mark" text-anchor="start" transform="translate(69.62222222222222,173)" font-family="sans-serif" font-size="9px" fill="black">2953</text><text aria-label="mean execution time in µs: 8006; algorithm: (wilczek) Outer-Loop Vectorization; MeanExecutionTime: 8006" role="graphics-symbol" aria-roledescription="text mark" text-anchor="start" transform="translate(181.9111111111111,353)" font-family="sans-serif" font-size="9px" fill="black">8006</text><text aria-label="mean execution time in µs: 3366; algorithm: (wilczek) Outer- and Inner-Loop Vectorization; MeanExecutionTime: 3366" role="graphics-symbol" aria-roledescription="text mark" text-anchor="start" transform="translate(78.8,233)" font-family="sans-serif" font-size="9px" fill="black">3366</text><text aria-label="mean execution time in µs: 777; algorithm: (wilczek) AVX NoAlign Inner-Loop Vectorization; MeanExecutionTime: 777" role="graphics-symbol" aria-roledescription="text mark" text-anchor="start" transform="translate(21.266666666666666,53)" font-family="sans-serif" font-size="9px" fill="black">777</text><text aria-label="mean execution time in µs: 973; algorithm: (wilczek) AVX NoAlign Outer-Loop Vectorization; MeanExecutionTime: 973" role="graphics-symbol" aria-roledescription="text mark" text-anchor="start" transform="translate(25.622222222222224,73)" font-family="sans-serif" font-size="9px" fill="black">973</text><text aria-label="mean execution time in µs: 313; algorithm: (wilczek) AVX NoAlign Outer- and Inner-Loop Vectorization; MeanExecutionTime: 313" role="graphics-symbol" aria-roledescription="text mark" text-anchor="start" transform="translate(10.955555555555556,13)" font-family="sans-serif" font-size="9px" fill="black">313</text><text aria-label="mean execution time in µs: 7640; algorithm: (chaowang15) convolve1D; MeanExecutionTime: 7640" role="graphics-symbol" aria-roledescription="text mark" text-anchor="start" transform="translate(173.77777777777777,273)" font-family="sans-serif" font-size="9px" fill="black">7640</text></g></g><path class="foreground" aria-hidden="true" d="" display="none"/></g></g></g><path class="foreground" aria-hidden="true" d="" display="none"/></g></g></g></svg>