<svg xmlns="http://www.w3.org/2000/svg" xmlns:xlink="http://www.w3.org/1999/xlink" version="1.1" class="marks" width="1496" height="464" viewBox="0 0 1496 464"><rect width="1496" height="464" fill="white"/><g fill="none" stroke-miterlimit="10" transform="translate(509,66)"><g class="mark-group role-frame root" role="graphics-object" aria-roledescription="group mark container"><g transform="translate(0,0)"><path class="background" aria-hidden="true" d="M0,0h0v0h0Z"/><g><g class="mark-group role-column-title column-title" role="graphics-object" aria-roledescription="group mark container"><g transform="translate(239,-35)"><path class="background" aria-hidden="true" d="M0,0h0v0h0Z"/><g><g class="mark-group role-title"><g transform="translate(0,-26)"><path class="background" aria-hidden="true" d="M0,0h0v0h0Z" pointer-events="none"/><g><g class="mark-text role-title-text" role="graphics-symbol" aria-roledescription="title" aria-label="Title text 'Convolution Benchmarks'" pointer-events="none"><text text-anchor="middle" transform="translate(0,13)" font-family="sans-serif" font-size="16px" font-weight="bold" fill="#000" opacity="1">Convolution Benchmarks</text></g></g><path class="foreground" aria-hidden="true" d="" pointer-events="none" display="none"/></g></g></g><path class="foreground" aria-hidden="true" d="" display="none"/></g></g><g class="mark-group role-column-header column_header" role="graphics-object" aria-roledescription="group mark container"><g transform="translate(0,-1)"><path class="background" aria-hidden="true" d="M0,0h200v0h-200Z"/><g><g class="mark-group role-title"><g transform="translate(100,-24)"><path class="background" aria-hidden="true" d="M0,0h0v0h0Z" pointer-events="none"/><g><g class="mark-text role-title-text" role="graphics-symbol" aria-roledescription="title" aria-label="Title text 'kernel size 16'" pointer-events="none"><text text-anchor="middle" transform="translate(0,11)" font-family="sans-serif" font-size="14px" fill="#000" opacity="1">kernel size 16</text></g></g><path class="foreground" aria-hidden="true" d="" pointer-events="none" display="none"/></g></g></g><path class="foreground" aria-hidden="true" d="" display="none"/></g><g transform="translate(749,-1)"><path class="background" aria-hidden="true" d="M0,0h200v0h-200Z"/><g><g class="mark-group role-title"><g transform="translate(100,-24)"><path class="background" aria-hidden="true" d="M0,0h0v0h0Z" pointer-events="none"/><g><g class="mark-text role-title-text" role="graphics-symbol" aria-roledescription="title" aria-label="Title text 'kernel size 512'" pointer-events="none"><text text-anchor="middle" transform="translate(0,11)" font-family="sans-serif" font-size="14px" fill="#000" opacity="1">kernel size 512</text></g></g><path class="foreground" aria-hidden="true" d="" pointer-events="none" display="none"/></g></g></g><path class="foreground" aria-hidden="true" d="" display="none"/></g></g><g class="mark-group role-scope cell" role="graphics-object" aria-roledescription="group mark container"><g transform="translate(0,0)"><path class="background" aria-hidden="true" d="M0.5,0.5h200v360h-200Z" stroke="#ddd"/><g><g class="mark-group role-axis" aria-hidden="true"><g transform="translate(0.5,360.5)"><path class="background" aria-hidden="true" d="M0,0h0v0h0Z" pointer-events="none"/><g><g class="mark-rule role-axis-grid" pointer-events="none"><line transform="translate(0,0)" x2="0" y2="-360" stroke="#ddd" stroke-width="1" opacity="1"/><line transform="translate(50,0)" x2="0" y2="-360" stroke="#ddd" stroke-width="1" opacity="1"/><line transform="translate(100,0)" x2="0" y2="-360" stroke="#ddd" stroke-width="1" opacity="1"/><line transform="translate(150,0)" x2="0" y2="-360" stroke="#ddd" stroke-width="1" opacity="1"/><line transform="translate(200,0)" x2="0" y2="-360" stroke="#ddd" stroke-width="1" opacity="1"/></g></g><path class="foreground" aria-hidden="true" d="" pointer-events="none" display="none"/></g></g><g class="mark-group role-axis" role="graphics-symbol" aria-roledescription="axis" aria-label="X-axis titled 'mean execution time in µs' for a linear scale with values from 0 to 200"><g transform="translate(0.5,360.5)"><path class="background" aria-hidden="true" d="M0,0h0v0h0Z" pointer-events="none"/><g><g class="mark-rule role-axis-tick" pointer-events="none"><line transform="translate(0,0)" x2="0" y2="5" stroke="#888" stroke-width="1" opacity="1"/><line transform="translate(50,0)" x2="0" y2="5" stroke="#888" stroke-width="1" opacity="1"/><line transform="translate(100,0)" x2="0" y2="5" stroke="#888" stroke-width="1" opacity="1"/><line transform="translate(150,0)" x2="0" y2="5" stroke="#888" stroke-width="1" opacity="1"/><line transform="translate(200,0)" x2="0" y2="5" stroke="#888" stroke-width="1" opacity="1"/></g><g class="mark-text role-axis-label" pointer-events="none"><text text-anchor="start" transform="translate(0,15)" font-family="sans-serif" font-size="10px" fill="#000" opacity="1">0</text><text text-anchor="middle" transform="translate(50,15)" font-family="sans-serif" font-size="10px" fill="#000" opacity="1">50</text><text text-anchor="middle" transform="translate(100,15)" font-family="sans-serif" font-size="10px" fill="#000" opacity="1">100</text><text text-anchor="middle" transform="translate(150,15)" font-family="sans-serif" font-size="10px" fill="#000" opacity="1">150</text><text text-anchor="end" transform="translate(200,15)" font-family="sans-serif" font-size="10px" fill="#000" opacity="1">200</text></g><g class="mark-rule role-axis-domain" pointer-events="none"><line transform="translate(0,0)" x2="200" y2="0" stroke="#888" stroke-width="1" opacity="1"/></g><g class="mark-text role-axis-title" pointer-events="none"><text text-anchor="middle" transform="translate(100,30)" font-family="sans-serif" font-size="11px" font-weight="bold" fill="#000" opacity="1">mean execution time in µs</text></g></g><path class="foreground" aria-hidden="true" d="" pointer-events="none" display="none"/></g></g><g class="mark-group role-axis" role="graphics-symbol" aria-roledescription="axis" aria-label="Y-axis titled 'algorithm' for a discrete scale with 18 values: (wilczek) AVX NoAlign Outer- and Inner-Loop Vectorization, (wilczek) AVX NoAlign Outer-Loop Vectorization, (wilczek) AVX NoAlign Inner-Loop Vectorization, (JohT) inputPerKernelValue Transposed, (JohT) inputPerKernelValue Transposed LoopFissionIndexArithmetic, ending with (wilczek) Outer-Loop Vectorization"><g transform="translate(0.5,0.5)"><path class="background" aria-hidden="true" d="M0,0h0v0h0Z" pointer-events="none"/><g><g class="mark-rule role-axis-tick" pointer-events="none"><line transform="translate(0,10)" x2="-5" y2="0" stroke="#888" stroke-width="1" opacity="1"/><line transform="translate(0,30)" x2="-5" y2="0" stroke="#888" stroke-width="1" opacity="1"/><line transform="translate(0,50)" x2="-5" y2="0" stroke="#888" stroke-width="1" opacity="1"/><line transform="translate(0,70)" x2="-5" y2="0" stroke="#888" stroke-width="1" opacity="1"/><line transform="translate(0,90)" x2="-5" y2="0" stroke="#888" stroke-width="1" opacity="1"/><line transform="translate(0,110)" x2="-5" y2="0" stroke="#888" stroke-width="1" opacity="1"/><line transform="translate(0,130)" x2="-5" y2="0" stroke="#888" stroke-width="1" opacity="1"/><line transform="translate(0,150)" x2="-5" y2="0" stroke="#888" stroke-width="1" opacity="1"/><line transform="translate(0,170)" x2="-5" y2="0" stroke="#888" stroke-width="1" opacity="1"/><line transform="translate(0,190)" x2="-5" y2="0" stroke="#888" stroke-width="1" opacity="1"/><line transform="translate(0,210)" x2="-5" y2="0" stroke="#888" stroke-width="1" opacity="1"/><line transform="translate(0,230)" x2="-5" y2="0" stroke="#888" stroke-width="1" opacity="1"/><line transform="translate(0,250)" x2="-5" y2="0" stroke="#888" stroke-width="1" opacity="1"/><line transform="translate(0,270)" x2="-5" y2="0" stroke="#888" stroke-width="1" opacity="1"/><line transform="translate(0,290)" x2="-5" y2="0" stroke="#888" stroke-width="1" opacity="1"/><line transform="translate(0,310)" x2="-5" y2="0" stroke="#888" stroke-width="1" opacity="1"/><line transform="translate(0,330)" x2="-5" y2="0" stroke="#888" stroke-width="1" opacity="1"/><line transform="translate(0,350)" x2="-5" y2="0" stroke="#888" stroke-width="1" opacity="1"/></g><g class="mark-text role-axis-label" pointer-events="none"><text text-anchor="end" transform="translate(-7,12.5)" font-family="sans-serif" font-size="10px" fill="#000" opacity="1">(wilczek) AVX NoAlign Outer- and Inner-Loop Vectorization</text><text text-anchor="end" transform="translate(-7,32.5)" font-family="sans-serif" font-size="10px" fill="#000" opacity="1">(wilczek) AVX NoAlign Outer-Loop Vectorization</text><text text-anchor="end" transform="translate(-7,52.5)" font-family="sans-serif" font-size="10px" fill="#000" opacity="1">(wilczek) AVX NoAlign Inner-Loop Vectorization</text><text text-anchor="end" transform="translate(-7,72.5)" font-family="sans-serif" font-size="10px" fill="#000" opacity="1">(JohT) inputPerKernelValue Transposed</text><text text-anchor="end" transform="translate(-7,92.5)" font-family="sans-serif" font-size="10px" fill="#000" opacity="1">(JohT) inputPerKernelValue Transposed LoopFissionIndexArithme…</text><text text-anchor="end" transform="translate(-7,112.5)" font-family="sans-serif" font-size="10px" fill="#000" opacity="1">(JohT) inputPerKernelValue Transposed LoopFission</text><text text-anchor="end" transform="translate(-7,132.5)" font-family="sans-serif" font-size="10px" fill="#000" opacity="1">(JohT) inputPerKernelValue Transposed InnerLoopUnrolled</text><text text-anchor="end" transform="translate(-7,152.5)" font-family="sans-serif" font-size="10px" fill="#000" opacity="1">(JohT) inputPerKernelValue Transposed Inner&amp;OuterLoopUnrolled</text><text text-anchor="end" transform="translate(-7,172.5)" font-family="sans-serif" font-size="10px" fill="#000" opacity="1">(wilczek) Inner-Loop Vectorization</text><text text-anchor="end" transform="translate(-7,192.5)" font-family="sans-serif" font-size="10px" fill="#000" opacity="1">(wilczek) Outer- and Inner-Loop Vectorization</text><text text-anchor="end" transform="translate(-7,212.5)" font-family="sans-serif" font-size="10px" fill="#000" opacity="1">(JohT) kernelPerInputValue Transposed</text><text text-anchor="end" transform="translate(-7,232.5)" font-family="sans-serif" font-size="10px" fill="#000" opacity="1">(JohT) inputPerKernelValue Transposed OuterLoopUnrolled</text><text text-anchor="end" transform="translate(-7,252.5)" font-family="sans-serif" font-size="10px" fill="#000" opacity="1">(JohT) kernelPerInputValue Transposed LoopFission</text><text text-anchor="end" transform="translate(-7,272.5)" font-family="sans-serif" font-size="10px" fill="#000" opacity="1">(matlab-like) conv 'valid' shape pre padded</text><text text-anchor="end" transform="translate(-7,292.5)" font-family="sans-serif" font-size="10px" fill="#000" opacity="1">(matlab-like) conv 'full' shape</text><text text-anchor="end" transform="translate(-7,312.5)" font-family="sans-serif" font-size="10px" fill="#000" opacity="1">(chaowang15) convolve1D</text><text text-anchor="end" transform="translate(-7,332.5)" font-family="sans-serif" font-size="10px" fill="#000" opacity="1">(wilczek) Single</text><text text-anchor="end" transform="translate(-7,352.5)" font-family="sans-serif" font-size="10px" fill="#000" opacity="1">(wilczek) Outer-Loop Vectorization</text></g><g class="mark-rule role-axis-domain" pointer-events="none"><line transform="translate(0,0)" x2="0" y2="360" stroke="#888" stroke-width="1" opacity="1"/></g><g class="mark-text role-axis-title" pointer-events="none"><text text-anchor="middle" transform="translate(-320,180) rotate(-90) translate(0,-2)" font-family="sans-serif" font-size="11px" font-weight="bold" fill="#000" opacity="1">algorithm</text></g></g><path class="foreground" aria-hidden="true" d="" pointer-events="none" display="none"/></g></g><g class="mark-rect role-mark child_layer_0_marks" role="graphics-object" aria-roledescription="rect mark container"><path aria-label="mean execution time in µs: 129; algorithm: (JohT) kernelPerInputValue Transposed" role="graphics-symbol" aria-roledescription="bar" d="M0,201.9L125,201.9C127.207660097976,201.9,129,203.692339902024,129,205.9L129,214.1C129,216.307660097976,127.207660097976,218.1,125,218.1L0,218.1C0,218.1,0,218.1,0,218.1L0,201.9C0,201.9,0,201.9,0,201.9Z" fill="#4c78a8"/><path aria-label="mean execution time in µs: 48; algorithm: (JohT) inputPerKernelValue Transposed" role="graphics-symbol" aria-roledescription="bar" d="M0,61.9L44,61.9C46.207660097976,61.9,48,63.692339902023996,48,65.9L48,74.1C48,76.307660097976,46.207660097976,78.1,44,78.1L0,78.1C0,78.1,0,78.1,0,78.1L0,61.9C0,61.9,0,61.9,0,61.9Z" fill="#4c78a8"/><path aria-label="mean execution time in µs: 107; algorithm: (JohT) inputPerKernelValue Transposed InnerLoopUnrolled" role="graphics-symbol" aria-roledescription="bar" d="M0,121.9L103,121.9C105.207660097976,121.9,107,123.692339902024,107,125.9L107,134.1C107,136.307660097976,105.207660097976,138.1,103,138.1L0,138.1C0,138.1,0,138.1,0,138.1L0,121.9C0,121.9,0,121.9,0,121.9Z" fill="#4c78a8"/><path aria-label="mean execution time in µs: 133; algorithm: (JohT) inputPerKernelValue Transposed OuterLoopUnrolled" role="graphics-symbol" aria-roledescription="bar" d="M0,221.9L129,221.9C131.207660097976,221.9,133,223.692339902024,133,225.9L133,234.1C133,236.307660097976,131.207660097976,238.1,129,238.1L0,238.1C0,238.1,0,238.1,0,238.1L0,221.9C0,221.9,0,221.9,0,221.9Z" fill="#4c78a8"/><path aria-label="mean execution time in µs: 109; algorithm: (JohT) inputPerKernelValue Transposed Inner&amp;OuterLoopUnrolled" role="graphics-symbol" aria-roledescription="bar" d="M0,141.9L105.00000000000001,141.9C107.20766009797602,141.9,109.00000000000001,143.692339902024,109.00000000000001,145.9L109.00000000000001,154.1C109.00000000000001,156.307660097976,107.20766009797602,158.1,105.00000000000001,158.1L0,158.1C0,158.1,0,158.1,0,158.1L0,141.9C0,141.9,0,141.9,0,141.9Z" fill="#4c78a8"/><path aria-label="mean execution time in µs: 60; algorithm: (JohT) inputPerKernelValue Transposed LoopFission" role="graphics-symbol" aria-roledescription="bar" d="M0,101.9L56,101.9C58.207660097976,101.9,60,103.692339902024,60,105.9L60,114.10000000000001C60,116.30766009797601,58.207660097976,118.10000000000001,56,118.10000000000001L0,118.10000000000001C0,118.10000000000001,0,118.10000000000001,0,118.10000000000001L0,101.9C0,101.9,0,101.9,0,101.9Z" fill="#4c78a8"/><path aria-label="mean execution time in µs: 58; algorithm: (JohT) inputPerKernelValue Transposed LoopFissionIndexArithmetic" role="graphics-symbol" aria-roledescription="bar" d="M0,81.9L53.99999999999999,81.9C56.207660097975996,81.9,57.99999999999999,83.692339902024,57.99999999999999,85.9L57.99999999999999,94.10000000000001C57.99999999999999,96.30766009797601,56.207660097975996,98.10000000000001,53.99999999999999,98.10000000000001L0,98.10000000000001C0,98.10000000000001,0,98.10000000000001,0,98.10000000000001L0,81.9C0,81.9,0,81.9,0,81.9Z" fill="#4c78a8"/><path aria-label="mean execution time in µs: 136; algorithm: (JohT) kernelPerInputValue Transposed LoopFission" role="graphics-symbol" aria-roledescription="bar" d="M0,241.9L132,241.9C134.207660097976,241.9,136,243.692339902024,136,245.9L136,254.10000000000002C136,256.307660097976,134.207660097976,258.1,132,258.1L0,258.1C0,258.1,0,258.1,0,258.1L0,241.9C0,241.9,0,241.9,0,241.9Z" fill="#4c78a8"/><path aria-label="mean execution time in µs: 142; algorithm: (matlab-like) conv 'full' shape" role="graphics-symbol" aria-roledescription="bar" d="M0,281.9L138,281.9C140.207660097976,281.9,142,283.692339902024,142,285.9L142,294.09999999999997C142,296.30766009797594,140.207660097976,298.09999999999997,138,298.09999999999997L0,298.09999999999997C0,298.09999999999997,0,298.09999999999997,0,298.09999999999997L0,281.9C0,281.9,0,281.9,0,281.9Z" fill="#4c78a8"/><path aria-label="mean execution time in µs: 137; algorithm: (matlab-like) conv 'valid' shape pre padded" role="graphics-symbol" aria-roledescription="bar" d="M0,261.9L133,261.9C135.207660097976,261.9,137,263.692339902024,137,265.9L137,274.09999999999997C137,276.30766009797594,135.207660097976,278.09999999999997,133,278.09999999999997L0,278.09999999999997C0,278.09999999999997,0,278.09999999999997,0,278.09999999999997L0,261.9C0,261.9,0,261.9,0,261.9Z" fill="#4c78a8"/><path aria-label="mean execution time in µs: 176; algorithm: (wilczek) Single" role="graphics-symbol" aria-roledescription="bar" d="M0,321.9L172,321.9C174.207660097976,321.9,176,323.692339902024,176,325.9L176,334.09999999999997C176,336.30766009797594,174.207660097976,338.09999999999997,172,338.09999999999997L0,338.09999999999997C0,338.09999999999997,0,338.09999999999997,0,338.09999999999997L0,321.9C0,321.9,0,321.9,0,321.9Z" fill="#4c78a8"/><path aria-label="mean execution time in µs: 109; algorithm: (wilczek) Inner-Loop Vectorization" role="graphics-symbol" aria-roledescription="bar" d="M0,161.9L105.00000000000001,161.9C107.20766009797602,161.9,109.00000000000001,163.692339902024,109.00000000000001,165.9L109.00000000000001,174.1C109.00000000000001,176.307660097976,107.20766009797602,178.1,105.00000000000001,178.1L0,178.1C0,178.1,0,178.1,0,178.1L0,161.9C0,161.9,0,161.9,0,161.9Z" fill="#4c78a8"/><path aria-label="mean execution time in µs: 199; algorithm: (wilczek) Outer-Loop Vectorization" role="graphics-symbol" aria-roledescription="bar" d="M0,341.9L195,341.9C197.207660097976,341.9,199,343.692339902024,199,345.9L199,354.09999999999997C199,356.30766009797594,197.207660097976,358.09999999999997,195,358.09999999999997L0,358.09999999999997C0,358.09999999999997,0,358.09999999999997,0,358.09999999999997L0,341.9C0,341.9,0,341.9,0,341.9Z" fill="#4c78a8"/><path aria-label="mean execution time in µs: 116; algorithm: (wilczek) Outer- and Inner-Loop Vectorization" role="graphics-symbol" aria-roledescription="bar" d="M0,181.9L111.99999999999999,181.9C114.20766009797599,181.9,115.99999999999999,183.692339902024,115.99999999999999,185.9L115.99999999999999,194.1C115.99999999999999,196.307660097976,114.20766009797599,198.1,111.99999999999999,198.1L0,198.1C0,198.1,0,198.1,0,198.1L0,181.9C0,181.9,0,181.9,0,181.9Z" fill="#4c78a8"/><path aria-label="mean execution time in µs: 44; algorithm: (wilczek) AVX NoAlign Inner-Loop Vectorization" role="graphics-symbol" aria-roledescription="bar" d="M0,41.9L40,41.9C42.207660097976,41.9,44,43.692339902023996,44,45.9L44,54.099999999999994C44,56.307660097976,42.207660097976,58.099999999999994,40,58.099999999999994L0,58.099999999999994C0,58.099999999999994,0,58.099999999999994,0,58.099999999999994L0,41.9C0,41.9,0,41.9,0,41.9Z" fill="#4c78a8"/><path aria-label="mean execution time in µs: 28; algorithm: (wilczek) AVX NoAlign Outer-Loop Vectorization" role="graphics-symbol" aria-roledescription="bar" d="M0,21.9L24.000000000000004,21.9C26.207660097976003,21.9,28.000000000000004,23.692339902024,28.000000000000004,25.9L28.000000000000004,34.099999999999994C28.000000000000004,36.307660097976,26.207660097976003,38.099999999999994,24.000000000000004,38.099999999999994L0,38.099999999999994C0,38.099999999999994,0,38.099999999999994,0,38.099999999999994L0,21.9C0,21.9,0,21.9,0,21.9Z" fill="#4c78a8"/><path aria-label="mean execution time in µs: 26; algorithm: (wilczek) AVX NoAlign Outer- and Inner-Loop Vectorization" role="graphics-symbol" aria-roledescription="bar" d="M0,1.9L22,1.9C24.207660097976,1.9,26,3.692339902024,26,5.9L26,14.099999999999998C26,16.307660097975997,24.207660097976,18.099999999999998,22,18.099999999999998L0,18.099999999999998C0,18.099999999999998,0,18.099999999999998,0,18.099999999999998L0,1.9C0,1.9,0,1.9,0,1.9Z" fill="#4c78a8"/><path aria-label="mean execution time in µs: 145; algorithm: (chaowang15) convolve1D" role="graphics-symbol" aria-roledescription="bar" d="M0,301.9L141,301.9C143.207660097976,301.9,145,303.692339902024,145,305.9L145,314.09999999999997C145,316.30766009797594,143.207660097976,318.09999999999997,141,318.09999999999997L0,318.09999999999997C0,318.09999999999997,0,318.09999999999997,0,318.09999999999997L0,301.9C0,301.9,0,301.9,0,301.9Z" fill="#4c78a8"/></g><g class="mark-text role-mark child_layer_1_marks" role="graphics-object" aria-roledescription="text mark container"><text aria-label="mean execution time in µs: 129; algorithm: (JohT) kernelPerInputValue Transposed; MeanExecutionTime: 129" role="graphics-symbol" aria-roledescription="text mark" text-anchor="start" transform="translate(133,213)" font-family="sans-serif" font-size="9px" fill="black">129</text><text aria-label="mean execution time in µs: 48; algorithm: (JohT) inputPerKernelValue Transposed; MeanExecutionTime: 48" role="graphics-symbol" aria-roledescription="text mark" text-anchor="start" transform="translate(52,73)" font-family="sans-serif" font-size="9px" fill="black">48</text><text aria-label="mean execution time in µs: 107; algorithm: (JohT) inputPerKernelValue Transposed InnerLoopUnrolled; MeanExecutionTime: 107" role="graphics-symbol" aria-roledescription="text mark" text-anchor="start" transform="translate(111,133)" font-family="sans-serif" font-size="9px" fill="black">107</text><text aria-label="mean execution time in µs: 133; algorithm: (JohT) inputPerKernelValue Transposed OuterLoopUnrolled; MeanExecutionTime: 133" role="graphics-symbol" aria-roledescription="text mark" text-anchor="start" transform="translate(137,233)" font-family="sans-serif" font-size="9px" fill="black">133</text><text aria-label="mean execution time in µs: 109; algorithm: (JohT) inputPerKernelValue Transposed Inner&amp;OuterLoopUnrolled; MeanExecutionTime: 109" role="graphics-symbol" aria-roledescription="text mark" text-anchor="start" transform="translate(113.00000000000001,153)" font-family="sans-serif" font-size="9px" fill="black">109</text><text aria-label="mean execution time in µs: 60; algorithm: (JohT) inputPerKernelValue Transposed LoopFission; MeanExecutionTime: 60" role="graphics-symbol" aria-roledescription="text mark" text-anchor="start" transform="translate(64,113)" font-family="sans-serif" font-size="9px" fill="black">60</text><text aria-label="mean execution time in µs: 58; algorithm: (JohT) inputPerKernelValue Transposed LoopFissionIndexArithmetic; MeanExecutionTime: 58" role="graphics-symbol" aria-roledescription="text mark" text-anchor="start" transform="translate(61.99999999999999,93)" font-family="sans-serif" font-size="9px" fill="black">58</text><text aria-label="mean execution time in µs: 136; algorithm: (JohT) kernelPerInputValue Transposed LoopFission; MeanExecutionTime: 136" role="graphics-symbol" aria-roledescription="text mark" text-anchor="start" transform="translate(140,253)" font-family="sans-serif" font-size="9px" fill="black">136</text><text aria-label="mean execution time in µs: 142; algorithm: (matlab-like) conv 'full' shape; MeanExecutionTime: 142" role="graphics-symbol" aria-roledescription="text mark" text-anchor="start" transform="translate(146,293)" font-family="sans-serif" font-size="9px" fill="black">142</text><text aria-label="mean execution time in µs: 137; algorithm: (matlab-like) conv 'valid' shape pre padded; MeanExecutionTime: 137" role="graphics-symbol" aria-roledescription="text mark" text-anchor="start" transform="translate(141,273)" font-family="sans-serif" font-size="9px" fill="black">137</text><text aria-label="mean execution time in µs: 176; algorithm: (wilczek) Single; MeanExecutionTime: 176" role="graphics-symbol" aria-roledescription="text mark" text-anchor="start" transform="translate(180,333)" font-family="sans-serif" font-size="9px" fill="black">176</text><text aria-label="mean execution time in µs: 109; algorithm: (wilczek) Inner-Loop Vectorization; MeanExecutionTime: 109" role="graphics-symbol" aria-roledescription="text mark" text-anchor="start" transform="translate(113.00000000000001,173)" font-family="sans-serif" font-size="9px" fill="black">109</text><text aria-label="mean execution time in µs: 199; algorithm: (wilczek) Outer-Loop Vectorization; MeanExecutionTime: 199" role="graphics-symbol" aria-roledescription="text mark" text-anchor="start" transform="translate(203,353)" font-family="sans-serif" font-size="9px" fill="black">199</text><text aria-label="mean execution time in µs: 116; algorithm: (wilczek) Outer- and Inner-Loop Vectorization; MeanExecutionTime: 116" role="graphics-symbol" aria-roledescription="text mark" text-anchor="start" transform="translate(119.99999999999999,193)" font-family="sans-serif" font-size="9px" fill="black">116</text><text aria-label="mean execution time in µs: 44; algorithm: (wilczek) AVX NoAlign Inner-Loop Vectorization; MeanExecutionTime: 44" role="graphics-symbol" aria-roledescription="text mark" text-anchor="start" transform="translate(48,53)" font-family="sans-serif" font-size="9px" fill="black">44</text><text aria-label="mean execution time in µs: 28; algorithm: (wilczek) AVX NoAlign Outer-Loop Vectorization; MeanExecutionTime: 28" role="graphics-symbol" aria-roledescription="text mark" text-anchor="start" transform="translate(32,33)" font-family="sans-serif" font-size="9px" fill="black">28</text><text aria-label="mean execution time in µs: 26; algorithm: (wilczek) AVX NoAlign Outer- and Inner-Loop Vectorization; MeanExecutionTime: 26" role="graphics-symbol" aria-roledescription="text mark" text-anchor="start" transform="translate(30,13)" font-family="sans-serif" font-size="9px" fill="black">26</text><text aria-label="mean execution time in µs: 145; algorithm: (chaowang15) convolve1D; MeanExecutionTime: 145" role="graphics-symbol" aria-roledescription="text mark" text-anchor="start" transform="translate(149,313)" font-family="sans-serif" font-size="9px" fill="black">145</text></g></g><path class="foreground" aria-hidden="true" d="" display="none"/></g><g transform="translate(749,0)"><path class="background" aria-hidden="true" d="M0.5,0.5h200v360h-200Z" stroke="#ddd"/><g><g class="mark-group role-axis" aria-hidden="true"><g transform="translate(0.5,360.5)"><path class="background" aria-hidden="true" d="M0,0h0v0h0Z" pointer-events="none"/><g><g class="mark-rule role-axis-grid" pointer-events="none"><line transform="translate(0,0)" x2="0" y2="-360" stroke="#ddd" stroke-width="1" opacity="1"/><line transform="translate(50,0)" x2="0" y2="-360" stroke="#ddd" stroke-width="1" opacity="1"/><line transform="translate(100,0)" x2="0" y2="-360" stroke="#ddd" stroke-width="1" opacity="1"/><line transform="translate(150,0)" x2="0" y2="-360" stroke="#ddd" stroke-width="1" opacity="1"/><line transform="translate(200,0)" x2="0" y2="-360" stroke="#ddd" stroke-width="1" opacity="1"/></g></g><path class="foreground" aria-hidden="true" d="" pointer-events="none" display="none"/></g></g><g class="mark-group role-axis" role="graphics-symbol" aria-roledescription="axis" aria-label="X-axis titled 'mean execution time in µs' for a linear scale with values from 0 to 8,000"><g transform="translate(0.5,360.5)"><path class="background" aria-hidden="true" d="M0,0h0v0h0Z" pointer-events="none"/><g><g class="mark-rule role-axis-tick" pointer-events="none"><line transform="translate(0,0)" x2="0" y2="5" stroke="#888" stroke-width="1" opacity="1"/><line transform="translate(50,0)" x2="0" y2="5" stroke="#888" stroke-width="1" opacity="1"/><line transform="translate(100,0)" x2="0" y2="5" stroke="#888" stroke-width="1" opacity="1"/><line transform="translate(150,0)" x2="0" y2="5" stroke="#888" stroke-width="1" opacity="1"/><line transform="translate(200,0)" x2="0" y2="5" stroke="#888" stroke-width="1" opacity="1"/></g><g class="mark-text role-axis-label" pointer-events="none"><text text-anchor="start" transform="translate(0,15)" font-family="sans-serif" font-size="10px" fill="#000" opacity="1">0</text><text text-anchor="middle" transform="translate(50,15)" font-family="sans-serif" font-size="10px" fill="#000" opacity="0">2,000</text><text text-anchor="middle" transform="translate(100,15)" font-family="sans-serif" font-size="10px" fill="#000" opacity="1">4,000</text><text text-anchor="middle" transform="translate(150,15)" font-family="sans-serif" font-size="10px" fill="#000" opacity="0">6,000</text><text text-anchor="end" transform="translate(200,15)" font-family="sans-serif" font-size="10px" fill="#000" opacity="1">8,000</text></g><g class="mark-rule role-axis-domain" pointer-events="none"><line transform="translate(0,0)" x2="200" y2="0" stroke="#888" stroke-width="1" opacity="1"/></g><g class="mark-text role-axis-title" pointer-events="none"><text text-anchor="middle" transform="translate(100,30)" font-family="sans-serif" font-size="11px" font-weight="bold" fill="#000" opacity="1">mean execution time in µs</text></g></g><path class="foreground" aria-hidden="true" d="" pointer-events="none" display="none"/></g></g><g class="mark-group role-axis" role="graphics-symbol" aria-roledescription="axis" aria-label="Y-axis titled 'algorithm' for a discrete scale with 18 values: (wilczek) AVX NoAlign Outer- and Inner-Loop Vectorization, (JohT) kernelPerInputValue Transposed, (wilczek) AVX NoAlign Inner-Loop Vectorization, (JohT) kernelPerInputValue Transposed LoopFission, (wilczek) AVX NoAlign Outer-Loop Vectorization, ending with (wilczek) Outer-Loop Vectorization"><g transform="translate(0.5,0.5)"><path class="background" aria-hidden="true" d="M0,0h0v0h0Z" pointer-events="none"/><g><g class="mark-rule role-axis-tick" pointer-events="none"><line transform="translate(0,10)" x2="-5" y2="0" stroke="#888" stroke-width="1" opacity="1"/><line transform="translate(0,30)" x2="-5" y2="0" stroke="#888" stroke-width="1" opacity="1"/><line transform="translate(0,50)" x2="-5" y2="0" stroke="#888" stroke-width="1" opacity="1"/><line transform="translate(0,70)" x2="-5" y2="0" stroke="#888" stroke-width="1" opacity="1"/><line transform="translate(0,90)" x2="-5" y2="0" stroke="#888" stroke-width="1" opacity="1"/><line transform="translate(0,110)" x2="-5" y2="0" stroke="#888" stroke-width="1" opacity="1"/><line transform="translate(0,130)" x2="-5" y2="0" stroke="#888" stroke-width="1" opacity="1"/><line transform="translate(0,150)" x2="-5" y2="0" stroke="#888" stroke-width="1" opacity="1"/><line transform="translate(0,170)" x2="-5" y2="0" stroke="#888" stroke-width="1" opacity="1"/><line transform="translate(0,190)" x2="-5" y2="0" stroke="#888" stroke-width="1" opacity="1"/><line transform="translate(0,210)" x2="-5" y2="0" stroke="#888" stroke-width="1" opacity="1"/><line transform="translate(0,230)" x2="-5" y2="0" stroke="#888" stroke-width="1" opacity="1"/><line transform="translate(0,250)" x2="-5" y2="0" stroke="#888" stroke-width="1" opacity="1"/><line transform="translate(0,270)" x2="-5" y2="0" stroke="#888" stroke-width="1" opacity="1"/><line transform="translate(0,290)" x2="-5" y2="0" stroke="#888" stroke-width="1" opacity="1"/><line transform="translate(0,310)" x2="-5" y2="0" stroke="#888" stroke-width="1" opacity="1"/><line transform="translate(0,330)" x2="-5" y2="0" stroke="#888" stroke-width="1" opacity="1"/><line transform="translate(0,350)" x2="-5" y2="0" stroke="#888" stroke-width="1" opacity="1"/></g><g class="mark-text role-axis-label" pointer-events="none"><text text-anchor="end" transform="translate(-7,12.5)" font-family="sans-serif" font-size="10px" fill="#000" opacity="1">(wilczek) AVX NoAlign Outer- and Inner-Loop Vectorization</text><text text-anchor="end" transform="translate(-7,32.5)" font-family="sans-serif" font-size="10px" fill="#000" opacity="1">(JohT) kernelPerInputValue Transposed</text><text text-anchor="end" transform="translate(-7,52.5)" font-family="sans-serif" font-size="10px" fill="#000" opacity="1">(wilczek) AVX NoAlign Inner-Loop Vectorization</text><text text-anchor="end" transform="translate(-7,72.5)" font-family="sans-serif" font-size="10px" fill="#000" opacity="1">(JohT) kernelPerInputValue Transposed LoopFission</text><text text-anchor="end" transform="translate(-7,92.5)" font-family="sans-serif" font-size="10px" fill="#000" opacity="1">(wilczek) AVX NoAlign Outer-Loop Vectorization</text><text text-anchor="end" transform="translate(-7,112.5)" font-family="sans-serif" font-size="10px" fill="#000" opacity="1">(JohT) inputPerKernelValue Transposed</text><text text-anchor="end" transform="translate(-7,132.5)" font-family="sans-serif" font-size="10px" fill="#000" opacity="1">(JohT) inputPerKernelValue Transposed LoopFission</text><text text-anchor="end" transform="translate(-7,152.5)" font-family="sans-serif" font-size="10px" fill="#000" opacity="1">(JohT) inputPerKernelValue Transposed LoopFissionIndexArithme…</text><text text-anchor="end" transform="translate(-7,172.5)" font-family="sans-serif" font-size="10px" fill="#000" opacity="1">(wilczek) Inner-Loop Vectorization</text><text text-anchor="end" transform="translate(-7,192.5)" font-family="sans-serif" font-size="10px" fill="#000" opacity="1">(JohT) inputPerKernelValue Transposed Inner&amp;OuterLoopUnrolled</text><text text-anchor="end" transform="translate(-7,212.5)" font-family="sans-serif" font-size="10px" fill="#000" opacity="1">(JohT) inputPerKernelValue Transposed InnerLoopUnrolled</text><text text-anchor="end" transform="translate(-7,232.5)" font-family="sans-serif" font-size="10px" fill="#000" opacity="1">(wilczek) Outer- and Inner-Loop Vectorization</text><text text-anchor="end" transform="translate(-7,252.5)" font-family="sans-serif" font-size="10px" fill="#000" opacity="1">(JohT) inputPerKernelValue Transposed OuterLoopUnrolled</text><text text-anchor="end" transform="translate(-7,272.5)" font-family="sans-serif" font-size="10px" fill="#000" opacity="1">(matlab-like) conv 'full' shape</text><text text-anchor="end" transform="translate(-7,292.5)" font-family="sans-serif" font-size="10px" fill="#000" opacity="1">(chaowang15) convolve1D</text><text text-anchor="end" transform="translate(-7,312.5)" font-family="sans-serif" font-size="10px" fill="#000" opacity="1">(matlab-like) conv 'valid' shape pre padded</text><text text-anchor="end" transform="translate(-7,332.5)" font-family="sans-serif" font-size="10px" fill="#000" opacity="1">(wilczek) Single</text><text text-anchor="end" transform="translate(-7,352.5)" font-family="sans-serif" font-size="10px" fill="#000" opacity="1">(wilczek) Outer-Loop Vectorization</text></g><g class="mark-rule role-axis-domain" pointer-events="none"><line transform="translate(0,0)" x2="0" y2="360" stroke="#888" stroke-width="1" opacity="1"/></g><g class="mark-text role-axis-title" pointer-events="none"><text text-anchor="middle" transform="translate(-320,180) rotate(-90) translate(0,-2)" font-family="sans-serif" font-size="11px" font-weight="bold" fill="#000" opacity="1">algorithm</text></g></g><path class="foreground" aria-hidden="true" d="" pointer-events="none" display="none"/></g></g><g class="mark-rect role-mark child_layer_0_marks" role="graphics-object" aria-roledescription="rect mark container"><path aria-label="mean execution time in µs: 591; algorithm: (JohT) kernelPerInputValue Transposed" role="graphics-symbol" aria-roledescription="bar" d="M0,21.9L10.774999999999999,21.9C12.982660097975998,21.9,14.774999999999999,23.692339902024,14.774999999999999,25.9L14.774999999999999,34.099999999999994C14.774999999999999,36.307660097976,12.982660097975998,38.099999999999994,10.774999999999999,38.099999999999994L0,38.099999999999994C0,38.099999999999994,0,38.099999999999994,0,38.099999999999994L0,21.9C0,21.9,0,21.9,0,21.9Z" fill="#4c78a8"/><path aria-label="mean execution time in µs: 991; algorithm: (JohT) inputPerKernelValue Transposed" role="graphics-symbol" aria-roledescription="bar" d="M0,101.9L20.775,101.9C22.982660097975998,101.9,24.775,103.692339902024,24.775,105.9L24.775,114.10000000000001C24.775,116.30766009797601,22.982660097975998,118.10000000000001,20.775,118.10000000000001L0,118.10000000000001C0,118.10000000000001,0,118.10000000000001,0,118.10000000000001L0,101.9C0,101.9,0,101.9,0,101.9Z" fill="#4c78a8"/><path aria-label="mean execution time in µs: 3023; algorithm: (JohT) inputPerKernelValue Transposed InnerLoopUnrolled" role="graphics-symbol" aria-roledescription="bar" d="M0,201.9L71.575,201.9C73.782660097976,201.9,75.575,203.692339902024,75.575,205.9L75.575,214.1C75.575,216.307660097976,73.782660097976,218.1,71.575,218.1L0,218.1C0,218.1,0,218.1,0,218.1L0,201.9C0,201.9,0,201.9,0,201.9Z" fill="#4c78a8"/><path aria-label="mean execution time in µs: 4166; algorithm: (JohT) inputPerKernelValue Transposed OuterLoopUnrolled" role="graphics-symbol" aria-roledescription="bar" d="M0,241.9L100.15,241.9C102.35766009797601,241.9,104.15,243.692339902024,104.15,245.9L104.15,254.10000000000002C104.15,256.307660097976,102.35766009797601,258.1,100.15,258.1L0,258.1C0,258.1,0,258.1,0,258.1L0,241.9C0,241.9,0,241.9,0,241.9Z" fill="#4c78a8"/><path aria-label="mean execution time in µs: 2992; algorithm: (JohT) inputPerKernelValue Transposed Inner&amp;OuterLoopUnrolled" role="graphics-symbol" aria-roledescription="bar" d="M0,181.9L70.8,181.9C73.007660097976,181.9,74.8,183.692339902024,74.8,185.9L74.8,194.1C74.8,196.307660097976,73.007660097976,198.1,70.8,198.1L0,198.1C0,198.1,0,198.1,0,198.1L0,181.9C0,181.9,0,181.9,0,181.9Z" fill="#4c78a8"/><path aria-label="mean execution time in µs: 1666; algorithm: (JohT) inputPerKernelValue Transposed LoopFission" role="graphics-symbol" aria-roledescription="bar" d="M0,121.9L37.65,121.9C39.857660097976,121.9,41.65,123.692339902024,41.65,125.9L41.65,134.1C41.65,136.307660097976,39.857660097976,138.1,37.65,138.1L0,138.1C0,138.1,0,138.1,0,138.1L0,121.9C0,121.9,0,121.9,0,121.9Z" fill="#4c78a8"/><path aria-label="mean execution time in µs: 1689; algorithm: (JohT) inputPerKernelValue Transposed LoopFissionIndexArithmetic" role="graphics-symbol" aria-roledescription="bar" d="M0,141.9L38.225,141.9C40.432660097976004,141.9,42.225,143.692339902024,42.225,145.9L42.225,154.1C42.225,156.307660097976,40.432660097976004,158.1,38.225,158.1L0,158.1C0,158.1,0,158.1,0,158.1L0,141.9C0,141.9,0,141.9,0,141.9Z" fill="#4c78a8"/><path aria-label="mean execution time in µs: 941; algorithm: (JohT) kernelPerInputValue Transposed LoopFission" role="graphics-symbol" aria-roledescription="bar" d="M0,61.9L19.525,61.9C21.732660097975998,61.9,23.525,63.692339902023996,23.525,65.9L23.525,74.1C23.525,76.307660097976,21.732660097975998,78.1,19.525,78.1L0,78.1C0,78.1,0,78.1,0,78.1L0,61.9C0,61.9,0,61.9,0,61.9Z" fill="#4c78a8"/><path aria-label="mean execution time in µs: 7522; algorithm: (matlab-like) conv 'full' shape" role="graphics-symbol" aria-roledescription="bar" d="M0,261.9L184.05,261.9C186.25766009797601,261.9,188.05,263.692339902024,188.05,265.9L188.05,274.09999999999997C188.05,276.30766009797594,186.25766009797601,278.09999999999997,184.05,278.09999999999997L0,278.09999999999997C0,278.09999999999997,0,278.09999999999997,0,278.09999999999997L0,261.9C0,261.9,0,261.9,0,261.9Z" fill="#4c78a8"/><path aria-label="mean execution time in µs: 7765; algorithm: (matlab-like) conv 'valid' shape pre padded" role="graphics-symbol" aria-roledescription="bar" d="M0,301.9L190.125,301.9C192.332660097976,301.9,194.125,303.692339902024,194.125,305.9L194.125,314.09999999999997C194.125,316.30766009797594,192.332660097976,318.09999999999997,190.125,318.09999999999997L0,318.09999999999997C0,318.09999999999997,0,318.09999999999997,0,318.09999999999997L0,301.9C0,301.9,0,301.9,0,301.9Z" fill="#4c78a8"/><path aria-label="mean execution time in µs: 7825; algorithm: (wilczek) Single" role="graphics-symbol" aria-roledescription="bar" d="M0,321.9L191.625,321.9C193.832660097976,321.9,195.625,323.692339902024,195.625,325.9L195.625,334.09999999999997C195.625,336.30766009797594,193.832660097976,338.09999999999997,191.625,338.09999999999997L0,338.09999999999997C0,338.09999999999997,0,338.09999999999997,0,338.09999999999997L0,321.9C0,321.9,0,321.9,0,321.9Z" fill="#4c78a8"/><path aria-label="mean execution time in µs: 2960; algorithm: (wilczek) Inner-Loop Vectorization" role="graphics-symbol" aria-roledescription="bar" d="M0,161.9L70,161.9C72.207660097976,161.9,74,163.692339902024,74,165.9L74,174.1C74,176.307660097976,72.207660097976,178.1,70,178.1L0,178.1C0,178.1,0,178.1,0,178.1L0,161.9C0,161.9,0,161.9,0,161.9Z" fill="#4c78a8"/><path aria-label="mean execution time in µs: 7986; algorithm: (wilczek) Outer-Loop Vectorization" role="graphics-symbol" aria-roledescription="bar" d="M0,341.9L195.65,341.9C197.857660097976,341.9,199.65,343.692339902024,199.65,345.9L199.65,354.09999999999997C199.65,356.30766009797594,197.857660097976,358.09999999999997,195.65,358.09999999999997L0,358.09999999999997C0,358.09999999999997,0,358.09999999999997,0,358.09999999999997L0,341.9C0,341.9,0,341.9,0,341.9Z" fill="#4c78a8"/><path aria-label="mean execution time in µs: 3357; algorithm: (wilczek) Outer- and Inner-Loop Vectorization" role="graphics-symbol" aria-roledescription="bar" d="M0,221.9L79.92500000000001,221.9C82.13266009797601,221.9,83.92500000000001,223.692339902024,83.92500000000001,225.9L83.92500000000001,234.1C83.92500000000001,236.307660097976,82.13266009797601,238.1,79.92500000000001,238.1L0,238.1C0,238.1,0,238.1,0,238.1L0,221.9C0,221.9,0,221.9,0,221.9Z" fill="#4c78a8"/><path aria-label="mean execution time in µs: 853; algorithm: (wilczek) AVX NoAlign Inner-Loop Vectorization" role="graphics-symbol" aria-roledescription="bar" d="M0,41.9L17.325,41.9C19.532660097976,41.9,21.325,43.692339902023996,21.325,45.9L21.325,54.099999999999994C21.325,56.307660097976,19.532660097976,58.099999999999994,17.325,58.099999999999994L0,58.099999999999994C0,58.099999999999994,0,58.099999999999994,0,58.099999999999994L0,41.9C0,41.9,0,41.9,0,41.9Z" fill="#4c78a8"/><path aria-label="mean execution time in µs: 980; algorithm: (wilczek) AVX NoAlign Outer-Loop Vectorization" role="graphics-symbol" aria-roledescription="bar" d="M0,81.9L20.5,81.9C22.707660097976,81.9,24.5,83.692339902024,24.5,85.9L24.5,94.10000000000001C24.5,96.30766009797601,22.707660097976,98.10000000000001,20.5,98.10000000000001L0,98.10000000000001C0,98.10000000000001,0,98.10000000000001,0,98.10000000000001L0,81.9C0,81.9,0,81.9,0,81.9Z" fill="#4c78a8"/><path aria-label="mean execution time in µs: 296; algorithm: (wilczek) AVX NoAlign Outer- and Inner-Loop Vectorization" role="graphics-symbol" aria-roledescription="bar" d="M0,1.9L3.6999999999999997,1.9C5.742085590627799,1.9,7.3999999999999995,3.5579144093722,7.3999999999999995,5.6L7.3999999999999995,14.399999999999999C7.3999999999999995,16.442085590627798,5.742085590627799,18.099999999999998,3.6999999999999997,18.099999999999998L0,18.099999999999998C0,18.099999999999998,0,18.099999999999998,0,18.099999999999998L0,1.9C0,1.9,0,1.9,0,1.9Z" fill="#4c78a8"/><path aria-label="mean execution time in µs: 7635; algorithm: (chaowang15) convolve1D" role="graphics-symbol" aria-roledescription="bar" d="M0,281.9L186.875,281.9C189.082660097976,281.9,190.875,283.692339902024,190.875,285.9L190.875,294.09999999999997C190.875,296.30766009797594,189.082660097976,298.09999999999997,186.875,298.09999999999997L0,298.09999999999997C0,298.09999999999997,0,298.09999999999997,0,298.09999999999997L0,281.9C0,281.9,0,281.9,0,281.9Z" fill="#4c78a8"/></g><g class="mark-text role-mark child_layer_1_marks" role="graphics-object" aria-roledescription="text mark container"><text aria-label="mean execution time in µs: 591; algorithm: (JohT) kernelPerInputValue Transposed; MeanExecutionTime: 591" role="graphics-symbol" aria-roledescription="text mark" text-anchor="start" transform="translate(18.775,33)" font-family="sans-serif" font-size="9px" fill="black">591</text><text aria-label="mean execution time in µs: 991; algorithm: (JohT) inputPerKernelValue Transposed; MeanExecutionTime: 991" role="graphics-symbol" aria-roledescription="text mark" text-anchor="start" transform="translate(28.775,113)" font-family="sans-serif" font-size="9px" fill="black">991</text><text aria-label="mean execution time in µs: 3023; algorithm: (JohT) inputPerKernelValue Transposed InnerLoopUnrolled; MeanExecutionTime: 3023" role="graphics-symbol" aria-roledescription="text mark" text-anchor="start" transform="translate(79.575,213)" font-family="sans-serif" font-size="9px" fill="black">3023</text><text aria-label="mean execution time in µs: 4166; algorithm: (JohT) inputPerKernelValue Transposed OuterLoopUnrolled; MeanExecutionTime: 4166" role="graphics-symbol" aria-roledescription="text mark" text-anchor="start" transform="translate(108.15,253)" font-family="sans-serif" font-size="9px" fill="black">4166</text><text aria-label="mean execution time in µs: 2992; algorithm: (JohT) inputPerKernelValue Transposed Inner&amp;OuterLoopUnrolled; MeanExecutionTime: 2992" role="graphics-symbol" aria-roledescription="text mark" text-anchor="start" transform="translate(78.8,193)" font-family="sans-serif" font-size="9px" fill="black">2992</text><text aria-label="mean execution time in µs: 1666; algorithm: (JohT) inputPerKernelValue Transposed LoopFission; MeanExecutionTime: 1666" role="graphics-symbol" aria-roledescription="text mark" text-anchor="start" transform="translate(45.65,133)" font-family="sans-serif" font-size="9px" fill="black">1666</text><text aria-label="mean execution time in µs: 1689; algorithm: (JohT) inputPerKernelValue Transposed LoopFissionIndexArithmetic; MeanExecutionTime: 1689" role="graphics-symbol" aria-roledescription="text mark" text-anchor="start" transform="translate(46.225,153)" font-family="sans-serif" font-size="9px" fill="black">1689</text><text aria-label="mean execution time in µs: 941; algorithm: (JohT) kernelPerInputValue Transposed LoopFission; MeanExecutionTime: 941" role="graphics-symbol" aria-roledescription="text mark" text-anchor="start" transform="translate(27.525,73)" font-family="sans-serif" font-size="9px" fill="black">941</text><text aria-label="mean execution time in µs: 7522; algorithm: (matlab-like) conv 'full' shape; MeanExecutionTime: 7522" role="graphics-symbol" aria-roledescription="text mark" text-anchor="start" transform="translate(192.05,273)" font-family="sans-serif" font-size="9px" fill="black">7522</text><text aria-label="mean execution time in µs: 7765; algorithm: (matlab-like) conv 'valid' shape pre padded; MeanExecutionTime: 7765" role="graphics-symbol" aria-roledescription="text mark" text-anchor="start" transform="translate(198.125,313)" font-family="sans-serif" font-size="9px" fill="black">7765</text><text aria-label="mean execution time in µs: 7825; algorithm: (wilczek) Single; MeanExecutionTime: 7825" role="graphics-symbol" aria-roledescription="text mark" text-anchor="start" transform="translate(199.625,333)" font-family="sans-serif" font-size="9px" fill="black">7825</text><text aria-label="mean execution time in µs: 2960; algorithm: (wilczek) Inner-Loop Vectorization; MeanExecutionTime: 2960" role="graphics-symbol" aria-roledescription="text mark" text-anchor="start" transform="translate(78,173)" font-family="sans-serif" font-size="9px" fill="black">2960</text><text aria-label="mean execution time in µs: 7986; algorithm: (wilczek) Outer-Loop Vectorization; MeanExecutionTime: 7986" role="graphics-symbol" aria-roledescription="text mark" text-anchor="start" transform="translate(203.65,353)" font-family="sans-serif" font-size="9px" fill="black">7986</text><text aria-label="mean execution time in µs: 3357; algorithm: (wilczek) Outer- and Inner-Loop Vectorization; MeanExecutionTime: 3357" role="graphics-symbol" aria-roledescription="text mark" text-anchor="start" transform="translate(87.92500000000001,233)" font-family="sans-serif" font-size="9px" fill="black">3357</text><text aria-label="mean execution time in µs: 853; algorithm: (wilczek) AVX NoAlign Inner-Loop Vectorization; MeanExecutionTime: 853" role="graphics-symbol" aria-roledescription="text mark" text-anchor="start" transform="translate(25.325,53)" font-family="sans-serif" font-size="9px" fill="black">853</text><text aria-label="mean execution time in µs: 980; algorithm: (wilczek) AVX NoAlign Outer-Loop Vectorization; MeanExecutionTime: 980" role="graphics-symbol" aria-roledescription="text mark" text-anchor="start" transform="translate(28.5,93)" font-family="sans-serif" font-size="9px" fill="black">980</text><text aria-label="mean execution time in µs: 296; algorithm: (wilczek) AVX NoAlign Outer- and Inner-Loop Vectorization; MeanExecutionTime: 296" role="graphics-symbol" aria-roledescription="text mark" text-anchor="start" transform="translate(11.399999999999999,13)" font-family="sans-serif" font-size="9px" fill="black">296</text><text aria-label="mean execution time in µs: 7635; algorithm: (chaowang15) convolve1D; MeanExecutionTime: 7635" role="graphics-symbol" aria-roledescription="text mark" text-anchor="start" transform="translate(194.875,293)" font-family="sans-serif" font-size="9px" fill="black">7635</text></g></g><path class="foreground" aria-hidden="true" d="" display="none"/></g></g></g><path class="foreground" aria-hidden="true" d="" display="none"/></g></g></g></svg>