<svg xmlns="http://www.w3.org/2000/svg" xmlns:xlink="http://www.w3.org/1999/xlink" version="1.1" class="marks" width="1493" height="464" viewBox="0 0 1493 464"><rect width="1493" height="464" fill="white"/><g fill="none" stroke-miterlimit="10" transform="translate(509,66)"><g class="mark-group role-frame root" role="graphics-object" aria-roledescription="group mark container"><g transform="translate(0,0)"><path class="background" aria-hidden="true" d="M0,0h0v0h0Z"/><g><g class="mark-group role-column-title column-title" role="graphics-object" aria-roledescription="group mark container"><g transform="translate(237,-35)"><path class="background" aria-hidden="true" d="M0,0h0v0h0Z"/><g><g class="mark-group role-title"><g transform="translate(0,-26)"><path class="background" aria-hidden="true" d="M0,0h0v0h0Z" pointer-events="none"/><g><g class="mark-text role-title-text" role="graphics-symbol" aria-roledescription="title" aria-label="Title text 'Convolution Benchmarks'" pointer-events="none"><text text-anchor="middle" transform="translate(0,13)" font-family="sans-serif" font-size="16px" font-weight="bold" fill="#000" opacity="1">Convolution Benchmarks</text></g></g><path class="foreground" aria-hidden="true" d="" pointer-events="none" display="none"/></g></g></g><path class="foreground" aria-hidden="true" d="" display="none"/></g></g><g class="mark-group role-column-header column_header" role="graphics-object" aria-roledescription="group mark container"><g transform="translate(0,-1)"><path class="background" aria-hidden="true" d="M0,0h200v0h-200Z"/><g><g class="mark-group role-title"><g transform="translate(100,-24)"><path class="background" aria-hidden="true" d="M0,0h0v0h0Z" pointer-events="none"/><g><g class="mark-text role-title-text" role="graphics-symbol" aria-roledescription="title" aria-label="Title text 'kernel size 16'" pointer-events="none"><text text-anchor="middle" transform="translate(0,11)" font-family="sans-serif" font-size="14px" fill="#000" opacity="1">kernel size 16</text></g></g><path class="foreground" aria-hidden="true" d="" pointer-events="none" display="none"/></g></g></g><path class="foreground" aria-hidden="true" d="" display="none"/></g><g transform="translate(746,-1)"><path class="background" aria-hidden="true" d="M0,0h200v0h-200Z"/><g><g class="mark-group role-title"><g transform="translate(100,-24)"><path class="background" aria-hidden="true" d="M0,0h0v0h0Z" pointer-events="none"/><g><g class="mark-text role-title-text" role="graphics-symbol" aria-roledescription="title" aria-label="Title text 'kernel size 512'" pointer-events="none"><text text-anchor="middle" transform="translate(0,11)" font-family="sans-serif" font-size="14px" fill="#000" opacity="1">kernel size 512</text></g></g><path class="foreground" aria-hidden="true" d="" pointer-events="none" display="none"/></g></g></g><path class="foreground" aria-hidden="true" d="" display="none"/></g></g><g class="mark-group role-scope cell" role="graphics-object" aria-roledescription="group mark container"><g transform="translate(0,0)"><path class="background" aria-hidden="true" d="M0.5,0.5h200v360h-200Z" stroke="#ddd"/><g><g class="mark-group role-axis" aria-hidden="true"><g transform="translate(0.5,360.5)"><path class="background" aria-hidden="true" d="M0,0h0v0h0Z" pointer-events="none"/><g><g class="mark-rule role-axis-grid" pointer-events="none"><line transform="translate(0,0)" x2="0" y2="-360" stroke="#ddd" stroke-width="1" opacity="1"/><line transform="translate(50,0)" x2="0" y2="-360" stroke="#ddd" stroke-width="1" opacity="1"/><line transform="translate(100,0)" x2="0" y2="-360" stroke="#ddd" stroke-width="1" opacity="1"/><line transform="translate(150,0)" x2="0" y2="-360" stroke="#ddd" stroke-width="1" opacity="1"/><line transform="translate(200,0)" x2="0" y2="-360" stroke="#ddd" stroke-width="1" opacity="1"/></g></g><path class="foreground" aria-hidden="true" d="" pointer-events="none" display="none"/></g></g><g class="mark-group role-axis" role="graphics-symbol" aria-roledescription="axis" aria-label="X-axis titled 'mean execution time in µs' for a linear scale with values from 0 to 200"><g transform="translate(0.5,360.5)"><path class="background" aria-hidden="true" d="M0,0h0v0h0Z" pointer-events="none"/><g><g class="mark-rule role-axis-tick" pointer-events="none"><line transform="translate(0,0)" x2="0" y2="5" stroke="#888" stroke-width="1" opacity="1"/><line transform="translate(50,0)" x2="0" y2="5" stroke="#888" stroke-width="1" opacity="1"/><line transform="translate(100,0)" x2="0" y2="5" stroke="#888" stroke-width="1" opacity="1"/><line transform="translate(150,0)" x2="0" y2="5" stroke="#888" stroke-width="1" opacity="1"/><line transform="translate(200,0)" x2="0" y2="5" stroke="#888" stroke-width="1" opacity="1"/></g><g class="mark-text role-axis-label" pointer-events="none"><text text-anchor="start" transform="translate(0,15)" font-family="sans-serif" font-size="10px" fill="#000" opacity="1">0</text><text text-anchor="middle" transform="translate(50,15)" font-family="sans-serif" font-size="10px" fill="#000" opacity="1">50</text><text text-anchor="middle" transform="translate(100,15)" font-family="sans-serif" font-size="10px" fill="#000" opacity="1">100</text><text text-anchor="middle" transform="translate(150,15)" font-family="sans-serif" font-size="10px" fill="#000" opacity="1">150</text><text text-anchor="end" transform="translate(200,15)" font-family="sans-serif" font-size="10px" fill="#000" opacity="1">200</text></g><g class="mark-rule role-axis-domain" pointer-events="none"><line transform="translate(0,0)" x2="200" y2="0" stroke="#888" stroke-width="1" opacity="1"/></g><g class="mark-text role-axis-title" pointer-events="none"><text text-anchor="middle" transform="translate(100,30)" font-family="sans-serif" font-size="11px" font-weight="bold" fill="#000" opacity="1">mean execution time in µs</text></g></g><path class="foreground" aria-hidden="true" d="" pointer-events="none" display="none"/></g></g><g class="mark-group role-axis" role="graphics-symbol" aria-roledescription="axis" aria-label="Y-axis titled 'algorithm' for a discrete scale with 18 values: (wilczek) AVX NoAlign Outer- and Inner-Loop Vectorization, (wilczek) AVX NoAlign Outer-Loop Vectorization, (wilczek) AVX NoAlign Inner-Loop Vectorization, (JohT) inputPerKernelValue Transposed, (JohT) inputPerKernelValue Transposed LoopFission, ending with (wilczek) Outer-Loop Vectorization"><g transform="translate(0.5,0.5)"><path class="background" aria-hidden="true" d="M0,0h0v0h0Z" pointer-events="none"/><g><g class="mark-rule role-axis-tick" pointer-events="none"><line transform="translate(0,10)" x2="-5" y2="0" stroke="#888" stroke-width="1" opacity="1"/><line transform="translate(0,30)" x2="-5" y2="0" stroke="#888" stroke-width="1" opacity="1"/><line transform="translate(0,50)" x2="-5" y2="0" stroke="#888" stroke-width="1" opacity="1"/><line transform="translate(0,70)" x2="-5" y2="0" stroke="#888" stroke-width="1" opacity="1"/><line transform="translate(0,90)" x2="-5" y2="0" stroke="#888" stroke-width="1" opacity="1"/><line transform="translate(0,110)" x2="-5" y2="0" stroke="#888" stroke-width="1" opacity="1"/><line transform="translate(0,130)" x2="-5" y2="0" stroke="#888" stroke-width="1" opacity="1"/><line transform="translate(0,150)" x2="-5" y2="0" stroke="#888" stroke-width="1" opacity="1"/><line transform="translate(0,170)" x2="-5" y2="0" stroke="#888" stroke-width="1" opacity="1"/><line transform="translate(0,190)" x2="-5" y2="0" stroke="#888" stroke-width="1" opacity="1"/><line transform="translate(0,210)" x2="-5" y2="0" stroke="#888" stroke-width="1" opacity="1"/><line transform="translate(0,230)" x2="-5" y2="0" stroke="#888" stroke-width="1" opacity="1"/><line transform="translate(0,250)" x2="-5" y2="0" stroke="#888" stroke-width="1" opacity="1"/><line transform="translate(0,270)" x2="-5" y2="0" stroke="#888" stroke-width="1" opacity="1"/><line transform="translate(0,290)" x2="-5" y2="0" stroke="#888" stroke-width="1" opacity="1"/><line transform="translate(0,310)" x2="-5" y2="0" stroke="#888" stroke-width="1" opacity="1"/><line transform="translate(0,330)" x2="-5" y2="0" stroke="#888" stroke-width="1" opacity="1"/><line transform="translate(0,350)" x2="-5" y2="0" stroke="#888" stroke-width="1" opacity="1"/></g><g class="mark-text role-axis-label" pointer-events="none"><text text-anchor="end" transform="translate(-7,12.5)" font-family="sans-serif" font-size="10px" fill="#000" opacity="1">(wilczek) AVX NoAlign Outer- and Inner-Loop Vectorization</text><text text-anchor="end" transform="translate(-7,32.5)" font-family="sans-serif" font-size="10px" fill="#000" opacity="1">(wilczek) AVX NoAlign Outer-Loop Vectorization</text><text text-anchor="end" transform="translate(-7,52.5)" font-family="sans-serif" font-size="10px" fill="#000" opacity="1">(wilczek) AVX NoAlign Inner-Loop Vectorization</text><text text-anchor="end" transform="translate(-7,72.5)" font-family="sans-serif" font-size="10px" fill="#000" opacity="1">(JohT) inputPerKernelValue Transposed</text><text text-anchor="end" transform="translate(-7,92.5)" font-family="sans-serif" font-size="10px" fill="#000" opacity="1">(JohT) inputPerKernelValue Transposed LoopFission</text><text text-anchor="end" transform="translate(-7,112.5)" font-family="sans-serif" font-size="10px" fill="#000" opacity="1">(JohT) inputPerKernelValue Transposed LoopFissionIndexArithme…</text><text text-anchor="end" transform="translate(-7,132.5)" font-family="sans-serif" font-size="10px" fill="#000" opacity="1">(JohT) inputPerKernelValue Transposed InnerLoopUnrolled</text><text text-anchor="end" transform="translate(-7,152.5)" font-family="sans-serif" font-size="10px" fill="#000" opacity="1">(JohT) inputPerKernelValue Transposed Inner&amp;OuterLoopUnrolled</text><text text-anchor="end" transform="translate(-7,172.5)" font-family="sans-serif" font-size="10px" fill="#000" opacity="1">(wilczek) Outer- and Inner-Loop Vectorization</text><text text-anchor="end" transform="translate(-7,192.5)" font-family="sans-serif" font-size="10px" fill="#000" opacity="1">(wilczek) Inner-Loop Vectorization</text><text text-anchor="end" transform="translate(-7,212.5)" font-family="sans-serif" font-size="10px" fill="#000" opacity="1">(JohT) kernelPerInputValue Transposed</text><text text-anchor="end" transform="translate(-7,232.5)" font-family="sans-serif" font-size="10px" fill="#000" opacity="1">(JohT) kernelPerInputValue Transposed LoopFission</text><text text-anchor="end" transform="translate(-7,252.5)" font-family="sans-serif" font-size="10px" fill="#000" opacity="1">(JohT) inputPerKernelValue Transposed OuterLoopUnrolled</text><text text-anchor="end" transform="translate(-7,272.5)" font-family="sans-serif" font-size="10px" fill="#000" opacity="1">(matlab-like) conv 'valid' shape pre padded</text><text text-anchor="end" transform="translate(-7,292.5)" font-family="sans-serif" font-size="10px" fill="#000" opacity="1">(chaowang15) convolve1D</text><text text-anchor="end" transform="translate(-7,312.5)" font-family="sans-serif" font-size="10px" fill="#000" opacity="1">(matlab-like) conv 'full' shape</text><text text-anchor="end" transform="translate(-7,332.5)" font-family="sans-serif" font-size="10px" fill="#000" opacity="1">(wilczek) Single</text><text text-anchor="end" transform="translate(-7,352.5)" font-family="sans-serif" font-size="10px" fill="#000" opacity="1">(wilczek) Outer-Loop Vectorization</text></g><g class="mark-rule role-axis-domain" pointer-events="none"><line transform="translate(0,0)" x2="0" y2="360" stroke="#888" stroke-width="1" opacity="1"/></g><g class="mark-text role-axis-title" pointer-events="none"><text text-anchor="middle" transform="translate(-320,180) rotate(-90) translate(0,-2)" font-family="sans-serif" font-size="11px" font-weight="bold" fill="#000" opacity="1">algorithm</text></g></g><path class="foreground" aria-hidden="true" d="" pointer-events="none" display="none"/></g></g><g class="mark-rect role-mark child_layer_0_marks" role="graphics-object" aria-roledescription="rect mark container"><path aria-label="mean execution time in µs: 128; algorithm: (JohT) kernelPerInputValue Transposed" role="graphics-symbol" aria-roledescription="bar" d="M0,201.9L124,201.9C126.207660097976,201.9,128,203.692339902024,128,205.9L128,214.1C128,216.307660097976,126.207660097976,218.1,124,218.1L0,218.1C0,218.1,0,218.1,0,218.1L0,201.9C0,201.9,0,201.9,0,201.9Z" fill="#4c78a8"/><path aria-label="mean execution time in µs: 36; algorithm: (JohT) inputPerKernelValue Transposed" role="graphics-symbol" aria-roledescription="bar" d="M0,61.9L32,61.9C34.207660097976,61.9,36,63.692339902023996,36,65.9L36,74.1C36,76.307660097976,34.207660097976,78.1,32,78.1L0,78.1C0,78.1,0,78.1,0,78.1L0,61.9C0,61.9,0,61.9,0,61.9Z" fill="#4c78a8"/><path aria-label="mean execution time in µs: 95; algorithm: (JohT) inputPerKernelValue Transposed InnerLoopUnrolled" role="graphics-symbol" aria-roledescription="bar" d="M0,121.9L91,121.9C93.207660097976,121.9,95,123.692339902024,95,125.9L95,134.1C95,136.307660097976,93.207660097976,138.1,91,138.1L0,138.1C0,138.1,0,138.1,0,138.1L0,121.9C0,121.9,0,121.9,0,121.9Z" fill="#4c78a8"/><path aria-label="mean execution time in µs: 134; algorithm: (JohT) inputPerKernelValue Transposed OuterLoopUnrolled" role="graphics-symbol" aria-roledescription="bar" d="M0,241.9L130,241.9C132.207660097976,241.9,134,243.692339902024,134,245.9L134,254.10000000000002C134,256.307660097976,132.207660097976,258.1,130,258.1L0,258.1C0,258.1,0,258.1,0,258.1L0,241.9C0,241.9,0,241.9,0,241.9Z" fill="#4c78a8"/><path aria-label="mean execution time in µs: 97; algorithm: (JohT) inputPerKernelValue Transposed Inner&amp;OuterLoopUnrolled" role="graphics-symbol" aria-roledescription="bar" d="M0,141.9L93,141.9C95.207660097976,141.9,97,143.692339902024,97,145.9L97,154.1C97,156.307660097976,95.207660097976,158.1,93,158.1L0,158.1C0,158.1,0,158.1,0,158.1L0,141.9C0,141.9,0,141.9,0,141.9Z" fill="#4c78a8"/><path aria-label="mean execution time in µs: 56; algorithm: (JohT) inputPerKernelValue Transposed LoopFission" role="graphics-symbol" aria-roledescription="bar" d="M0,81.9L52.00000000000001,81.9C54.20766009797601,81.9,56.00000000000001,83.692339902024,56.00000000000001,85.9L56.00000000000001,94.10000000000001C56.00000000000001,96.30766009797601,54.20766009797601,98.10000000000001,52.00000000000001,98.10000000000001L0,98.10000000000001C0,98.10000000000001,0,98.10000000000001,0,98.10000000000001L0,81.9C0,81.9,0,81.9,0,81.9Z" fill="#4c78a8"/><path aria-label="mean execution time in µs: 57; algorithm: (JohT) inputPerKernelValue Transposed LoopFissionIndexArithmetic" role="graphics-symbol" aria-roledescription="bar" d="M0,101.9L52.99999999999999,101.9C55.207660097975996,101.9,56.99999999999999,103.692339902024,56.99999999999999,105.9L56.99999999999999,114.10000000000001C56.99999999999999,116.30766009797601,55.207660097975996,118.10000000000001,52.99999999999999,118.10000000000001L0,118.10000000000001C0,118.10000000000001,0,118.10000000000001,0,118.10000000000001L0,101.9C0,101.9,0,101.9,0,101.9Z" fill="#4c78a8"/><path aria-label="mean execution time in µs: 130; algorithm: (JohT) kernelPerInputValue Transposed LoopFission" role="graphics-symbol" aria-roledescription="bar" d="M0,221.9L126,221.9C128.207660097976,221.9,130,223.692339902024,130,225.9L130,234.1C130,236.307660097976,128.207660097976,238.1,126,238.1L0,238.1C0,238.1,0,238.1,0,238.1L0,221.9C0,221.9,0,221.9,0,221.9Z" fill="#4c78a8"/><path aria-label="mean execution time in µs: 174; algorithm: (matlab-like) conv 'full' shape" role="graphics-symbol" aria-roledescription="bar" d="M0,301.9L170,301.9C172.207660097976,301.9,174,303.692339902024,174,305.9L174,314.09999999999997C174,316.30766009797594,172.207660097976,318.09999999999997,170,318.09999999999997L0,318.09999999999997C0,318.09999999999997,0,318.09999999999997,0,318.09999999999997L0,301.9C0,301.9,0,301.9,0,301.9Z" fill="#4c78a8"/><path aria-label="mean execution time in µs: 169; algorithm: (matlab-like) conv 'valid' shape pre padded" role="graphics-symbol" aria-roledescription="bar" d="M0,261.9L165,261.9C167.207660097976,261.9,169,263.692339902024,169,265.9L169,274.09999999999997C169,276.30766009797594,167.207660097976,278.09999999999997,165,278.09999999999997L0,278.09999999999997C0,278.09999999999997,0,278.09999999999997,0,278.09999999999997L0,261.9C0,261.9,0,261.9,0,261.9Z" fill="#4c78a8"/><path aria-label="mean execution time in µs: 174; algorithm: (wilczek) Single" role="graphics-symbol" aria-roledescription="bar" d="M0,321.9L170,321.9C172.207660097976,321.9,174,323.692339902024,174,325.9L174,334.09999999999997C174,336.30766009797594,172.207660097976,338.09999999999997,170,338.09999999999997L0,338.09999999999997C0,338.09999999999997,0,338.09999999999997,0,338.09999999999997L0,321.9C0,321.9,0,321.9,0,321.9Z" fill="#4c78a8"/><path aria-label="mean execution time in µs: 112; algorithm: (wilczek) Inner-Loop Vectorization" role="graphics-symbol" aria-roledescription="bar" d="M0,181.9L108.00000000000001,181.9C110.20766009797602,181.9,112.00000000000001,183.692339902024,112.00000000000001,185.9L112.00000000000001,194.1C112.00000000000001,196.307660097976,110.20766009797602,198.1,108.00000000000001,198.1L0,198.1C0,198.1,0,198.1,0,198.1L0,181.9C0,181.9,0,181.9,0,181.9Z" fill="#4c78a8"/><path aria-label="mean execution time in µs: 196; algorithm: (wilczek) Outer-Loop Vectorization" role="graphics-symbol" aria-roledescription="bar" d="M0,341.9L192,341.9C194.207660097976,341.9,196,343.692339902024,196,345.9L196,354.09999999999997C196,356.30766009797594,194.207660097976,358.09999999999997,192,358.09999999999997L0,358.09999999999997C0,358.09999999999997,0,358.09999999999997,0,358.09999999999997L0,341.9C0,341.9,0,341.9,0,341.9Z" fill="#4c78a8"/><path aria-label="mean execution time in µs: 111; algorithm: (wilczek) Outer- and Inner-Loop Vectorization" role="graphics-symbol" aria-roledescription="bar" d="M0,161.9L107.00000000000001,161.9C109.20766009797602,161.9,111.00000000000001,163.692339902024,111.00000000000001,165.9L111.00000000000001,174.1C111.00000000000001,176.307660097976,109.20766009797602,178.1,107.00000000000001,178.1L0,178.1C0,178.1,0,178.1,0,178.1L0,161.9C0,161.9,0,161.9,0,161.9Z" fill="#4c78a8"/><path aria-label="mean execution time in µs: 35; algorithm: (wilczek) AVX NoAlign Inner-Loop Vectorization" role="graphics-symbol" aria-roledescription="bar" d="M0,41.9L31,41.9C33.207660097976,41.9,35,43.692339902023996,35,45.9L35,54.099999999999994C35,56.307660097976,33.207660097976,58.099999999999994,31,58.099999999999994L0,58.099999999999994C0,58.099999999999994,0,58.099999999999994,0,58.099999999999994L0,41.9C0,41.9,0,41.9,0,41.9Z" fill="#4c78a8"/><path aria-label="mean execution time in µs: 24; algorithm: (wilczek) AVX NoAlign Outer-Loop Vectorization" role="graphics-symbol" aria-roledescription="bar" d="M0,21.9L20,21.9C22.207660097976,21.9,24,23.692339902024,24,25.9L24,34.099999999999994C24,36.307660097976,22.207660097976,38.099999999999994,20,38.099999999999994L0,38.099999999999994C0,38.099999999999994,0,38.099999999999994,0,38.099999999999994L0,21.9C0,21.9,0,21.9,0,21.9Z" fill="#4c78a8"/><path aria-label="mean execution time in µs: 22; algorithm: (wilczek) AVX NoAlign Outer- and Inner-Loop Vectorization" role="graphics-symbol" aria-roledescription="bar" d="M0,1.9L18,1.9C20.207660097976,1.9,22,3.692339902024,22,5.9L22,14.099999999999998C22,16.307660097975997,20.207660097976,18.099999999999998,18,18.099999999999998L0,18.099999999999998C0,18.099999999999998,0,18.099999999999998,0,18.099999999999998L0,1.9C0,1.9,0,1.9,0,1.9Z" fill="#4c78a8"/><path aria-label="mean execution time in µs: 170; algorithm: (chaowang15) convolve1D" role="graphics-symbol" aria-roledescription="bar" d="M0,281.9L166,281.9C168.207660097976,281.9,170,283.692339902024,170,285.9L170,294.09999999999997C170,296.30766009797594,168.207660097976,298.09999999999997,166,298.09999999999997L0,298.09999999999997C0,298.09999999999997,0,298.09999999999997,0,298.09999999999997L0,281.9C0,281.9,0,281.9,0,281.9Z" fill="#4c78a8"/></g><g class="mark-text role-mark child_layer_1_marks" role="graphics-object" aria-roledescription="text mark container"><text aria-label="mean execution time in µs: 128; algorithm: (JohT) kernelPerInputValue Transposed; MeanExecutionTime: 128" role="graphics-symbol" aria-roledescription="text mark" text-anchor="start" transform="translate(132,213)" font-family="sans-serif" font-size="9px" fill="black">128</text><text aria-label="mean execution time in µs: 36; algorithm: (JohT) inputPerKernelValue Transposed; MeanExecutionTime: 36" role="graphics-symbol" aria-roledescription="text mark" text-anchor="start" transform="translate(40,73)" font-family="sans-serif" font-size="9px" fill="black">36</text><text aria-label="mean execution time in µs: 95; algorithm: (JohT) inputPerKernelValue Transposed InnerLoopUnrolled; MeanExecutionTime: 95" role="graphics-symbol" aria-roledescription="text mark" text-anchor="start" transform="translate(99,133)" font-family="sans-serif" font-size="9px" fill="black">95</text><text aria-label="mean execution time in µs: 134; algorithm: (JohT) inputPerKernelValue Transposed OuterLoopUnrolled; MeanExecutionTime: 134" role="graphics-symbol" aria-roledescription="text mark" text-anchor="start" transform="translate(138,253)" font-family="sans-serif" font-size="9px" fill="black">134</text><text aria-label="mean execution time in µs: 97; algorithm: (JohT) inputPerKernelValue Transposed Inner&amp;OuterLoopUnrolled; MeanExecutionTime: 97" role="graphics-symbol" aria-roledescription="text mark" text-anchor="start" transform="translate(101,153)" font-family="sans-serif" font-size="9px" fill="black">97</text><text aria-label="mean execution time in µs: 56; algorithm: (JohT) inputPerKernelValue Transposed LoopFission; MeanExecutionTime: 56" role="graphics-symbol" aria-roledescription="text mark" text-anchor="start" transform="translate(60.00000000000001,93)" font-family="sans-serif" font-size="9px" fill="black">56</text><text aria-label="mean execution time in µs: 57; algorithm: (JohT) inputPerKernelValue Transposed LoopFissionIndexArithmetic; MeanExecutionTime: 57" role="graphics-symbol" aria-roledescription="text mark" text-anchor="start" transform="translate(60.99999999999999,113)" font-family="sans-serif" font-size="9px" fill="black">57</text><text aria-label="mean execution time in µs: 130; algorithm: (JohT) kernelPerInputValue Transposed LoopFission; MeanExecutionTime: 130" role="graphics-symbol" aria-roledescription="text mark" text-anchor="start" transform="translate(134,233)" font-family="sans-serif" font-size="9px" fill="black">130</text><text aria-label="mean execution time in µs: 174; algorithm: (matlab-like) conv 'full' shape; MeanExecutionTime: 174" role="graphics-symbol" aria-roledescription="text mark" text-anchor="start" transform="translate(178,313)" font-family="sans-serif" font-size="9px" fill="black">174</text><text aria-label="mean execution time in µs: 169; algorithm: (matlab-like) conv 'valid' shape pre padded; MeanExecutionTime: 169" role="graphics-symbol" aria-roledescription="text mark" text-anchor="start" transform="translate(173,273)" font-family="sans-serif" font-size="9px" fill="black">169</text><text aria-label="mean execution time in µs: 174; algorithm: (wilczek) Single; MeanExecutionTime: 174" role="graphics-symbol" aria-roledescription="text mark" text-anchor="start" transform="translate(178,333)" font-family="sans-serif" font-size="9px" fill="black">174</text><text aria-label="mean execution time in µs: 112; algorithm: (wilczek) Inner-Loop Vectorization; MeanExecutionTime: 112" role="graphics-symbol" aria-roledescription="text mark" text-anchor="start" transform="translate(116.00000000000001,193)" font-family="sans-serif" font-size="9px" fill="black">112</text><text aria-label="mean execution time in µs: 196; algorithm: (wilczek) Outer-Loop Vectorization; MeanExecutionTime: 196" role="graphics-symbol" aria-roledescription="text mark" text-anchor="start" transform="translate(200,353)" font-family="sans-serif" font-size="9px" fill="black">196</text><text aria-label="mean execution time in µs: 111; algorithm: (wilczek) Outer- and Inner-Loop Vectorization; MeanExecutionTime: 111" role="graphics-symbol" aria-roledescription="text mark" text-anchor="start" transform="translate(115.00000000000001,173)" font-family="sans-serif" font-size="9px" fill="black">111</text><text aria-label="mean execution time in µs: 35; algorithm: (wilczek) AVX NoAlign Inner-Loop Vectorization; MeanExecutionTime: 35" role="graphics-symbol" aria-roledescription="text mark" text-anchor="start" transform="translate(39,53)" font-family="sans-serif" font-size="9px" fill="black">35</text><text aria-label="mean execution time in µs: 24; algorithm: (wilczek) AVX NoAlign Outer-Loop Vectorization; MeanExecutionTime: 24" role="graphics-symbol" aria-roledescription="text mark" text-anchor="start" transform="translate(28,33)" font-family="sans-serif" font-size="9px" fill="black">24</text><text aria-label="mean execution time in µs: 22; algorithm: (wilczek) AVX NoAlign Outer- and Inner-Loop Vectorization; MeanExecutionTime: 22" role="graphics-symbol" aria-roledescription="text mark" text-anchor="start" transform="translate(26,13)" font-family="sans-serif" font-size="9px" fill="black">22</text><text aria-label="mean execution time in µs: 170; algorithm: (chaowang15) convolve1D; MeanExecutionTime: 170" role="graphics-symbol" aria-roledescription="text mark" text-anchor="start" transform="translate(174,293)" font-family="sans-serif" font-size="9px" fill="black">170</text></g></g><path class="foreground" aria-hidden="true" d="" display="none"/></g><g transform="translate(746,0)"><path class="background" aria-hidden="true" d="M0.5,0.5h200v360h-200Z" stroke="#ddd"/><g><g class="mark-group role-axis" aria-hidden="true"><g transform="translate(0.5,360.5)"><path class="background" aria-hidden="true" d="M0,0h0v0h0Z" pointer-events="none"/><g><g class="mark-rule role-axis-grid" pointer-events="none"><line transform="translate(0,0)" x2="0" y2="-360" stroke="#ddd" stroke-width="1" opacity="1"/><line transform="translate(50,0)" x2="0" y2="-360" stroke="#ddd" stroke-width="1" opacity="1"/><line transform="translate(100,0)" x2="0" y2="-360" stroke="#ddd" stroke-width="1" opacity="1"/><line transform="translate(150,0)" x2="0" y2="-360" stroke="#ddd" stroke-width="1" opacity="1"/><line transform="translate(200,0)" x2="0" y2="-360" stroke="#ddd" stroke-width="1" opacity="1"/></g></g><path class="foreground" aria-hidden="true" d="" pointer-events="none" display="none"/></g></g><g class="mark-group role-axis" role="graphics-symbol" aria-roledescription="axis" aria-label="X-axis titled 'mean execution time in µs' for a linear scale with values from 0 to 8,000"><g transform="translate(0.5,360.5)"><path class="background" aria-hidden="true" d="M0,0h0v0h0Z" pointer-events="none"/><g><g class="mark-rule role-axis-tick" pointer-events="none"><line transform="translate(0,0)" x2="0" y2="5" stroke="#888" stroke-width="1" opacity="1"/><line transform="translate(50,0)" x2="0" y2="5" stroke="#888" stroke-width="1" opacity="1"/><line transform="translate(100,0)" x2="0" y2="5" stroke="#888" stroke-width="1" opacity="1"/><line transform="translate(150,0)" x2="0" y2="5" stroke="#888" stroke-width="1" opacity="1"/><line transform="translate(200,0)" x2="0" y2="5" stroke="#888" stroke-width="1" opacity="1"/></g><g class="mark-text role-axis-label" pointer-events="none"><text text-anchor="start" transform="translate(0,15)" font-family="sans-serif" font-size="10px" fill="#000" opacity="1">0</text><text text-anchor="middle" transform="translate(50,15)" font-family="sans-serif" font-size="10px" fill="#000" opacity="0">2,000</text><text text-anchor="middle" transform="translate(100,15)" font-family="sans-serif" font-size="10px" fill="#000" opacity="1">4,000</text><text text-anchor="middle" transform="translate(150,15)" font-family="sans-serif" font-size="10px" fill="#000" opacity="0">6,000</text><text text-anchor="end" transform="translate(200,15)" font-family="sans-serif" font-size="10px" fill="#000" opacity="1">8,000</text></g><g class="mark-rule role-axis-domain" pointer-events="none"><line transform="translate(0,0)" x2="200" y2="0" stroke="#888" stroke-width="1" opacity="1"/></g><g class="mark-text role-axis-title" pointer-events="none"><text text-anchor="middle" transform="translate(100,30)" font-family="sans-serif" font-size="11px" font-weight="bold" fill="#000" opacity="1">mean execution time in µs</text></g></g><path class="foreground" aria-hidden="true" d="" pointer-events="none" display="none"/></g></g><g class="mark-group role-axis" role="graphics-symbol" aria-roledescription="axis" aria-label="Y-axis titled 'algorithm' for a discrete scale with 18 values: (wilczek) AVX NoAlign Outer- and Inner-Loop Vectorization, (JohT) kernelPerInputValue Transposed, (wilczek) AVX NoAlign Inner-Loop Vectorization, (wilczek) AVX NoAlign Outer-Loop Vectorization, (JohT) kernelPerInputValue Transposed LoopFission, ending with (wilczek) Outer-Loop Vectorization"><g transform="translate(0.5,0.5)"><path class="background" aria-hidden="true" d="M0,0h0v0h0Z" pointer-events="none"/><g><g class="mark-rule role-axis-tick" pointer-events="none"><line transform="translate(0,10)" x2="-5" y2="0" stroke="#888" stroke-width="1" opacity="1"/><line transform="translate(0,30)" x2="-5" y2="0" stroke="#888" stroke-width="1" opacity="1"/><line transform="translate(0,50)" x2="-5" y2="0" stroke="#888" stroke-width="1" opacity="1"/><line transform="translate(0,70)" x2="-5" y2="0" stroke="#888" stroke-width="1" opacity="1"/><line transform="translate(0,90)" x2="-5" y2="0" stroke="#888" stroke-width="1" opacity="1"/><line transform="translate(0,110)" x2="-5" y2="0" stroke="#888" stroke-width="1" opacity="1"/><line transform="translate(0,130)" x2="-5" y2="0" stroke="#888" stroke-width="1" opacity="1"/><line transform="translate(0,150)" x2="-5" y2="0" stroke="#888" stroke-width="1" opacity="1"/><line transform="translate(0,170)" x2="-5" y2="0" stroke="#888" stroke-width="1" opacity="1"/><line transform="translate(0,190)" x2="-5" y2="0" stroke="#888" stroke-width="1" opacity="1"/><line transform="translate(0,210)" x2="-5" y2="0" stroke="#888" stroke-width="1" opacity="1"/><line transform="translate(0,230)" x2="-5" y2="0" stroke="#888" stroke-width="1" opacity="1"/><line transform="translate(0,250)" x2="-5" y2="0" stroke="#888" stroke-width="1" opacity="1"/><line transform="translate(0,270)" x2="-5" y2="0" stroke="#888" stroke-width="1" opacity="1"/><line transform="translate(0,290)" x2="-5" y2="0" stroke="#888" stroke-width="1" opacity="1"/><line transform="translate(0,310)" x2="-5" y2="0" stroke="#888" stroke-width="1" opacity="1"/><line transform="translate(0,330)" x2="-5" y2="0" stroke="#888" stroke-width="1" opacity="1"/><line transform="translate(0,350)" x2="-5" y2="0" stroke="#888" stroke-width="1" opacity="1"/></g><g class="mark-text role-axis-label" pointer-events="none"><text text-anchor="end" transform="translate(-7,12.5)" font-family="sans-serif" font-size="10px" fill="#000" opacity="1">(wilczek) AVX NoAlign Outer- and Inner-Loop Vectorization</text><text text-anchor="end" transform="translate(-7,32.5)" font-family="sans-serif" font-size="10px" fill="#000" opacity="1">(JohT) kernelPerInputValue Transposed</text><text text-anchor="end" transform="translate(-7,52.5)" font-family="sans-serif" font-size="10px" fill="#000" opacity="1">(wilczek) AVX NoAlign Inner-Loop Vectorization</text><text text-anchor="end" transform="translate(-7,72.5)" font-family="sans-serif" font-size="10px" fill="#000" opacity="1">(wilczek) AVX NoAlign Outer-Loop Vectorization</text><text text-anchor="end" transform="translate(-7,92.5)" font-family="sans-serif" font-size="10px" fill="#000" opacity="1">(JohT) kernelPerInputValue Transposed LoopFission</text><text text-anchor="end" transform="translate(-7,112.5)" font-family="sans-serif" font-size="10px" fill="#000" opacity="1">(JohT) inputPerKernelValue Transposed</text><text text-anchor="end" transform="translate(-7,132.5)" font-family="sans-serif" font-size="10px" fill="#000" opacity="1">(JohT) inputPerKernelValue Transposed LoopFissionIndexArithme…</text><text text-anchor="end" transform="translate(-7,152.5)" font-family="sans-serif" font-size="10px" fill="#000" opacity="1">(JohT) inputPerKernelValue Transposed LoopFission</text><text text-anchor="end" transform="translate(-7,172.5)" font-family="sans-serif" font-size="10px" fill="#000" opacity="1">(JohT) inputPerKernelValue Transposed Inner&amp;OuterLoopUnrolled</text><text text-anchor="end" transform="translate(-7,192.5)" font-family="sans-serif" font-size="10px" fill="#000" opacity="1">(JohT) inputPerKernelValue Transposed InnerLoopUnrolled</text><text text-anchor="end" transform="translate(-7,212.5)" font-family="sans-serif" font-size="10px" fill="#000" opacity="1">(wilczek) Inner-Loop Vectorization</text><text text-anchor="end" transform="translate(-7,232.5)" font-family="sans-serif" font-size="10px" fill="#000" opacity="1">(wilczek) Outer- and Inner-Loop Vectorization</text><text text-anchor="end" transform="translate(-7,252.5)" font-family="sans-serif" font-size="10px" fill="#000" opacity="1">(JohT) inputPerKernelValue Transposed OuterLoopUnrolled</text><text text-anchor="end" transform="translate(-7,272.5)" font-family="sans-serif" font-size="10px" fill="#000" opacity="1">(matlab-like) conv 'full' shape</text><text text-anchor="end" transform="translate(-7,292.5)" font-family="sans-serif" font-size="10px" fill="#000" opacity="1">(chaowang15) convolve1D</text><text text-anchor="end" transform="translate(-7,312.5)" font-family="sans-serif" font-size="10px" fill="#000" opacity="1">(matlab-like) conv 'valid' shape pre padded</text><text text-anchor="end" transform="translate(-7,332.5)" font-family="sans-serif" font-size="10px" fill="#000" opacity="1">(wilczek) Single</text><text text-anchor="end" transform="translate(-7,352.5)" font-family="sans-serif" font-size="10px" fill="#000" opacity="1">(wilczek) Outer-Loop Vectorization</text></g><g class="mark-rule role-axis-domain" pointer-events="none"><line transform="translate(0,0)" x2="0" y2="360" stroke="#888" stroke-width="1" opacity="1"/></g><g class="mark-text role-axis-title" pointer-events="none"><text text-anchor="middle" transform="translate(-320,180) rotate(-90) translate(0,-2)" font-family="sans-serif" font-size="11px" font-weight="bold" fill="#000" opacity="1">algorithm</text></g></g><path class="foreground" aria-hidden="true" d="" pointer-events="none" display="none"/></g></g><g class="mark-rect role-mark child_layer_0_marks" role="graphics-object" aria-roledescription="rect mark container"><path aria-label="mean execution time in µs: 781; algorithm: (JohT) kernelPerInputValue Transposed" role="graphics-symbol" aria-roledescription="bar" d="M0,21.9L15.525000000000002,21.9C17.732660097976,21.9,19.525000000000002,23.692339902024,19.525000000000002,25.9L19.525000000000002,34.099999999999994C19.525000000000002,36.307660097976,17.732660097976,38.099999999999994,15.525000000000002,38.099999999999994L0,38.099999999999994C0,38.099999999999994,0,38.099999999999994,0,38.099999999999994L0,21.9C0,21.9,0,21.9,0,21.9Z" fill="#4c78a8"/><path aria-label="mean execution time in µs: 1118; algorithm: (JohT) inputPerKernelValue Transposed" role="graphics-symbol" aria-roledescription="bar" d="M0,101.9L23.950000000000003,101.9C26.157660097976002,101.9,27.950000000000003,103.692339902024,27.950000000000003,105.9L27.950000000000003,114.10000000000001C27.950000000000003,116.30766009797601,26.157660097976002,118.10000000000001,23.950000000000003,118.10000000000001L0,118.10000000000001C0,118.10000000000001,0,118.10000000000001,0,118.10000000000001L0,101.9C0,101.9,0,101.9,0,101.9Z" fill="#4c78a8"/><path aria-label="mean execution time in µs: 3037; algorithm: (JohT) inputPerKernelValue Transposed InnerLoopUnrolled" role="graphics-symbol" aria-roledescription="bar" d="M0,181.9L71.925,181.9C74.132660097976,181.9,75.925,183.692339902024,75.925,185.9L75.925,194.1C75.925,196.307660097976,74.132660097976,198.1,71.925,198.1L0,198.1C0,198.1,0,198.1,0,198.1L0,181.9C0,181.9,0,181.9,0,181.9Z" fill="#4c78a8"/><path aria-label="mean execution time in µs: 4308; algorithm: (JohT) inputPerKernelValue Transposed OuterLoopUnrolled" role="graphics-symbol" aria-roledescription="bar" d="M0,241.9L103.69999999999999,241.9C105.90766009797599,241.9,107.69999999999999,243.692339902024,107.69999999999999,245.9L107.69999999999999,254.10000000000002C107.69999999999999,256.307660097976,105.90766009797599,258.1,103.69999999999999,258.1L0,258.1C0,258.1,0,258.1,0,258.1L0,241.9C0,241.9,0,241.9,0,241.9Z" fill="#4c78a8"/><path aria-label="mean execution time in µs: 3007; algorithm: (JohT) inputPerKernelValue Transposed Inner&amp;OuterLoopUnrolled" role="graphics-symbol" aria-roledescription="bar" d="M0,161.9L71.175,161.9C73.382660097976,161.9,75.175,163.692339902024,75.175,165.9L75.175,174.1C75.175,176.307660097976,73.382660097976,178.1,71.175,178.1L0,178.1C0,178.1,0,178.1,0,178.1L0,161.9C0,161.9,0,161.9,0,161.9Z" fill="#4c78a8"/><path aria-label="mean execution time in µs: 1640; algorithm: (JohT) inputPerKernelValue Transposed LoopFission" role="graphics-symbol" aria-roledescription="bar" d="M0,141.9L37,141.9C39.207660097976,141.9,41,143.692339902024,41,145.9L41,154.1C41,156.307660097976,39.207660097976,158.1,37,158.1L0,158.1C0,158.1,0,158.1,0,158.1L0,141.9C0,141.9,0,141.9,0,141.9Z" fill="#4c78a8"/><path aria-label="mean execution time in µs: 1566; algorithm: (JohT) inputPerKernelValue Transposed LoopFissionIndexArithmetic" role="graphics-symbol" aria-roledescription="bar" d="M0,121.9L35.15,121.9C37.357660097976,121.9,39.15,123.692339902024,39.15,125.9L39.15,134.1C39.15,136.307660097976,37.357660097976,138.1,35.15,138.1L0,138.1C0,138.1,0,138.1,0,138.1L0,121.9C0,121.9,0,121.9,0,121.9Z" fill="#4c78a8"/><path aria-label="mean execution time in µs: 1051; algorithm: (JohT) kernelPerInputValue Transposed LoopFission" role="graphics-symbol" aria-roledescription="bar" d="M0,81.9L22.275,81.9C24.482660097975998,81.9,26.275,83.692339902024,26.275,85.9L26.275,94.10000000000001C26.275,96.30766009797601,24.482660097975998,98.10000000000001,22.275,98.10000000000001L0,98.10000000000001C0,98.10000000000001,0,98.10000000000001,0,98.10000000000001L0,81.9C0,81.9,0,81.9,0,81.9Z" fill="#4c78a8"/><path aria-label="mean execution time in µs: 7677; algorithm: (matlab-like) conv 'full' shape" role="graphics-symbol" aria-roledescription="bar" d="M0,261.9L187.92499999999998,261.9C190.132660097976,261.9,191.92499999999998,263.692339902024,191.92499999999998,265.9L191.92499999999998,274.09999999999997C191.92499999999998,276.30766009797594,190.132660097976,278.09999999999997,187.92499999999998,278.09999999999997L0,278.09999999999997C0,278.09999999999997,0,278.09999999999997,0,278.09999999999997L0,261.9C0,261.9,0,261.9,0,261.9Z" fill="#4c78a8"/><path aria-label="mean execution time in µs: 7821; algorithm: (matlab-like) conv 'valid' shape pre padded" role="graphics-symbol" aria-roledescription="bar" d="M0,301.9L191.525,301.9C193.732660097976,301.9,195.525,303.692339902024,195.525,305.9L195.525,314.09999999999997C195.525,316.30766009797594,193.732660097976,318.09999999999997,191.525,318.09999999999997L0,318.09999999999997C0,318.09999999999997,0,318.09999999999997,0,318.09999999999997L0,301.9C0,301.9,0,301.9,0,301.9Z" fill="#4c78a8"/><path aria-label="mean execution time in µs: 7924; algorithm: (wilczek) Single" role="graphics-symbol" aria-roledescription="bar" d="M0,321.9L194.10000000000002,321.9C196.30766009797603,321.9,198.10000000000002,323.692339902024,198.10000000000002,325.9L198.10000000000002,334.09999999999997C198.10000000000002,336.30766009797594,196.30766009797603,338.09999999999997,194.10000000000002,338.09999999999997L0,338.09999999999997C0,338.09999999999997,0,338.09999999999997,0,338.09999999999997L0,321.9C0,321.9,0,321.9,0,321.9Z" fill="#4c78a8"/><path aria-label="mean execution time in µs: 3084; algorithm: (wilczek) Inner-Loop Vectorization" role="graphics-symbol" aria-roledescription="bar" d="M0,201.9L73.10000000000001,201.9C75.30766009797601,201.9,77.10000000000001,203.692339902024,77.10000000000001,205.9L77.10000000000001,214.1C77.10000000000001,216.307660097976,75.30766009797601,218.1,73.10000000000001,218.1L0,218.1C0,218.1,0,218.1,0,218.1L0,201.9C0,201.9,0,201.9,0,201.9Z" fill="#4c78a8"/><path aria-label="mean execution time in µs: 7993; algorithm: (wilczek) Outer-Loop Vectorization" role="graphics-symbol" aria-roledescription="bar" d="M0,341.9L195.82500000000002,341.9C198.03266009797602,341.9,199.82500000000002,343.692339902024,199.82500000000002,345.9L199.82500000000002,354.09999999999997C199.82500000000002,356.30766009797594,198.03266009797602,358.09999999999997,195.82500000000002,358.09999999999997L0,358.09999999999997C0,358.09999999999997,0,358.09999999999997,0,358.09999999999997L0,341.9C0,341.9,0,341.9,0,341.9Z" fill="#4c78a8"/><path aria-label="mean execution time in µs: 3347; algorithm: (wilczek) Outer- and Inner-Loop Vectorization" role="graphics-symbol" aria-roledescription="bar" d="M0,221.9L79.675,221.9C81.882660097976,221.9,83.675,223.692339902024,83.675,225.9L83.675,234.1C83.675,236.307660097976,81.882660097976,238.1,79.675,238.1L0,238.1C0,238.1,0,238.1,0,238.1L0,221.9C0,221.9,0,221.9,0,221.9Z" fill="#4c78a8"/><path aria-label="mean execution time in µs: 844; algorithm: (wilczek) AVX NoAlign Inner-Loop Vectorization" role="graphics-symbol" aria-roledescription="bar" d="M0,41.9L17.099999999999998,41.9C19.307660097975997,41.9,21.099999999999998,43.692339902023996,21.099999999999998,45.9L21.099999999999998,54.099999999999994C21.099999999999998,56.307660097976,19.307660097975997,58.099999999999994,17.099999999999998,58.099999999999994L0,58.099999999999994C0,58.099999999999994,0,58.099999999999994,0,58.099999999999994L0,41.9C0,41.9,0,41.9,0,41.9Z" fill="#4c78a8"/><path aria-label="mean execution time in µs: 982; algorithm: (wilczek) AVX NoAlign Outer-Loop Vectorization" role="graphics-symbol" aria-roledescription="bar" d="M0,61.9L20.55,61.9C22.757660097976,61.9,24.55,63.692339902023996,24.55,65.9L24.55,74.1C24.55,76.307660097976,22.757660097976,78.1,20.55,78.1L0,78.1C0,78.1,0,78.1,0,78.1L0,61.9C0,61.9,0,61.9,0,61.9Z" fill="#4c78a8"/><path aria-label="mean execution time in µs: 280; algorithm: (wilczek) AVX NoAlign Outer- and Inner-Loop Vectorization" role="graphics-symbol" aria-roledescription="bar" d="M0,1.9L3.5000000000000004,1.9C5.431702585729001,1.9,7.000000000000001,3.4682974142710004,7.000000000000001,5.4L7.000000000000001,14.599999999999998C7.000000000000001,16.531702585728997,5.431702585729001,18.099999999999998,3.5000000000000004,18.099999999999998L0,18.099999999999998C0,18.099999999999998,0,18.099999999999998,0,18.099999999999998L0,1.9C0,1.9,0,1.9,0,1.9Z" fill="#4c78a8"/><path aria-label="mean execution time in µs: 7693; algorithm: (chaowang15) convolve1D" role="graphics-symbol" aria-roledescription="bar" d="M0,281.9L188.325,281.9C190.532660097976,281.9,192.325,283.692339902024,192.325,285.9L192.325,294.09999999999997C192.325,296.30766009797594,190.532660097976,298.09999999999997,188.325,298.09999999999997L0,298.09999999999997C0,298.09999999999997,0,298.09999999999997,0,298.09999999999997L0,281.9C0,281.9,0,281.9,0,281.9Z" fill="#4c78a8"/></g><g class="mark-text role-mark child_layer_1_marks" role="graphics-object" aria-roledescription="text mark container"><text aria-label="mean execution time in µs: 781; algorithm: (JohT) kernelPerInputValue Transposed; MeanExecutionTime: 781" role="graphics-symbol" aria-roledescription="text mark" text-anchor="start" transform="translate(23.525000000000002,33)" font-family="sans-serif" font-size="9px" fill="black">781</text><text aria-label="mean execution time in µs: 1118; algorithm: (JohT) inputPerKernelValue Transposed; MeanExecutionTime: 1118" role="graphics-symbol" aria-roledescription="text mark" text-anchor="start" transform="translate(31.950000000000003,113)" font-family="sans-serif" font-size="9px" fill="black">1118</text><text aria-label="mean execution time in µs: 3037; algorithm: (JohT) inputPerKernelValue Transposed InnerLoopUnrolled; MeanExecutionTime: 3037" role="graphics-symbol" aria-roledescription="text mark" text-anchor="start" transform="translate(79.925,193)" font-family="sans-serif" font-size="9px" fill="black">3037</text><text aria-label="mean execution time in µs: 4308; algorithm: (JohT) inputPerKernelValue Transposed OuterLoopUnrolled; MeanExecutionTime: 4308" role="graphics-symbol" aria-roledescription="text mark" text-anchor="start" transform="translate(111.69999999999999,253)" font-family="sans-serif" font-size="9px" fill="black">4308</text><text aria-label="mean execution time in µs: 3007; algorithm: (JohT) inputPerKernelValue Transposed Inner&amp;OuterLoopUnrolled; MeanExecutionTime: 3007" role="graphics-symbol" aria-roledescription="text mark" text-anchor="start" transform="translate(79.175,173)" font-family="sans-serif" font-size="9px" fill="black">3007</text><text aria-label="mean execution time in µs: 1640; algorithm: (JohT) inputPerKernelValue Transposed LoopFission; MeanExecutionTime: 1640" role="graphics-symbol" aria-roledescription="text mark" text-anchor="start" transform="translate(45,153)" font-family="sans-serif" font-size="9px" fill="black">1640</text><text aria-label="mean execution time in µs: 1566; algorithm: (JohT) inputPerKernelValue Transposed LoopFissionIndexArithmetic; MeanExecutionTime: 1566" role="graphics-symbol" aria-roledescription="text mark" text-anchor="start" transform="translate(43.15,133)" font-family="sans-serif" font-size="9px" fill="black">1566</text><text aria-label="mean execution time in µs: 1051; algorithm: (JohT) kernelPerInputValue Transposed LoopFission; MeanExecutionTime: 1051" role="graphics-symbol" aria-roledescription="text mark" text-anchor="start" transform="translate(30.275,93)" font-family="sans-serif" font-size="9px" fill="black">1051</text><text aria-label="mean execution time in µs: 7677; algorithm: (matlab-like) conv 'full' shape; MeanExecutionTime: 7677" role="graphics-symbol" aria-roledescription="text mark" text-anchor="start" transform="translate(195.92499999999998,273)" font-family="sans-serif" font-size="9px" fill="black">7677</text><text aria-label="mean execution time in µs: 7821; algorithm: (matlab-like) conv 'valid' shape pre padded; MeanExecutionTime: 7821" role="graphics-symbol" aria-roledescription="text mark" text-anchor="start" transform="translate(199.525,313)" font-family="sans-serif" font-size="9px" fill="black">7821</text><text aria-label="mean execution time in µs: 7924; algorithm: (wilczek) Single; MeanExecutionTime: 7924" role="graphics-symbol" aria-roledescription="text mark" text-anchor="start" transform="translate(202.10000000000002,333)" font-family="sans-serif" font-size="9px" fill="black">7924</text><text aria-label="mean execution time in µs: 3084; algorithm: (wilczek) Inner-Loop Vectorization; MeanExecutionTime: 3084" role="graphics-symbol" aria-roledescription="text mark" text-anchor="start" transform="translate(81.10000000000001,213)" font-family="sans-serif" font-size="9px" fill="black">3084</text><text aria-label="mean execution time in µs: 7993; algorithm: (wilczek) Outer-Loop Vectorization; MeanExecutionTime: 7993" role="graphics-symbol" aria-roledescription="text mark" text-anchor="start" transform="translate(203.82500000000002,353)" font-family="sans-serif" font-size="9px" fill="black">7993</text><text aria-label="mean execution time in µs: 3347; algorithm: (wilczek) Outer- and Inner-Loop Vectorization; MeanExecutionTime: 3347" role="graphics-symbol" aria-roledescription="text mark" text-anchor="start" transform="translate(87.675,233)" font-family="sans-serif" font-size="9px" fill="black">3347</text><text aria-label="mean execution time in µs: 844; algorithm: (wilczek) AVX NoAlign Inner-Loop Vectorization; MeanExecutionTime: 844" role="graphics-symbol" aria-roledescription="text mark" text-anchor="start" transform="translate(25.099999999999998,53)" font-family="sans-serif" font-size="9px" fill="black">844</text><text aria-label="mean execution time in µs: 982; algorithm: (wilczek) AVX NoAlign Outer-Loop Vectorization; MeanExecutionTime: 982" role="graphics-symbol" aria-roledescription="text mark" text-anchor="start" transform="translate(28.55,73)" font-family="sans-serif" font-size="9px" fill="black">982</text><text aria-label="mean execution time in µs: 280; algorithm: (wilczek) AVX NoAlign Outer- and Inner-Loop Vectorization; MeanExecutionTime: 280" role="graphics-symbol" aria-roledescription="text mark" text-anchor="start" transform="translate(11,13)" font-family="sans-serif" font-size="9px" fill="black">280</text><text aria-label="mean execution time in µs: 7693; algorithm: (chaowang15) convolve1D; MeanExecutionTime: 7693" role="graphics-symbol" aria-roledescription="text mark" text-anchor="start" transform="translate(196.325,293)" font-family="sans-serif" font-size="9px" fill="black">7693</text></g></g><path class="foreground" aria-hidden="true" d="" display="none"/></g></g></g><path class="foreground" aria-hidden="true" d="" display="none"/></g></g></g></svg>