<svg xmlns="http://www.w3.org/2000/svg" xmlns:xlink="http://www.w3.org/1999/xlink" version="1.1" class="marks" width="1471" height="464" viewBox="0 0 1471 464"><rect width="1471" height="464" fill="white"/><g fill="none" stroke-miterlimit="10" transform="translate(509,66)"><g class="mark-group role-frame root" role="graphics-object" aria-roledescription="group mark container"><g transform="translate(0,0)"><path class="background" aria-hidden="true" d="M0,0h0v0h0Z"/><g><g class="mark-group role-column-title column-title" role="graphics-object" aria-roledescription="group mark container"><g transform="translate(227,-35)"><path class="background" aria-hidden="true" d="M0,0h0v0h0Z"/><g><g class="mark-group role-title"><g transform="translate(0,-26)"><path class="background" aria-hidden="true" d="M0,0h0v0h0Z" pointer-events="none"/><g><g class="mark-text role-title-text" role="graphics-symbol" aria-roledescription="title" aria-label="Title text 'Convolution Benchmarks'" pointer-events="none"><text text-anchor="middle" transform="translate(0,13)" font-family="sans-serif" font-size="16px" font-weight="bold" fill="#000" opacity="1">Convolution Benchmarks</text></g></g><path class="foreground" aria-hidden="true" d="" pointer-events="none" display="none"/></g></g></g><path class="foreground" aria-hidden="true" d="" display="none"/></g></g><g class="mark-group role-column-header column_header" role="graphics-object" aria-roledescription="group mark container"><g transform="translate(0,-1)"><path class="background" aria-hidden="true" d="M0,0h200v0h-200Z"/><g><g class="mark-group role-title"><g transform="translate(100,-24)"><path class="background" aria-hidden="true" d="M0,0h0v0h0Z" pointer-events="none"/><g><g class="mark-text role-title-text" role="graphics-symbol" aria-roledescription="title" aria-label="Title text 'kernel size 16'" pointer-events="none"><text text-anchor="middle" transform="translate(0,11)" font-family="sans-serif" font-size="14px" fill="#000" opacity="1">kernel size 16</text></g></g><path class="foreground" aria-hidden="true" d="" pointer-events="none" display="none"/></g></g></g><path class="foreground" aria-hidden="true" d="" display="none"/></g><g transform="translate(746,-1)"><path class="background" aria-hidden="true" d="M0,0h200v0h-200Z"/><g><g class="mark-group role-title"><g transform="translate(100,-24)"><path class="background" aria-hidden="true" d="M0,0h0v0h0Z" pointer-events="none"/><g><g class="mark-text role-title-text" role="graphics-symbol" aria-roledescription="title" aria-label="Title text 'kernel size 512'" pointer-events="none"><text text-anchor="middle" transform="translate(0,11)" font-family="sans-serif" font-size="14px" fill="#000" opacity="1">kernel size 512</text></g></g><path class="foreground" aria-hidden="true" d="" pointer-events="none" display="none"/></g></g></g><path class="foreground" aria-hidden="true" d="" display="none"/></g></g><g class="mark-group role-scope cell" role="graphics-object" aria-roledescription="group mark container"><g transform="translate(0,0)"><path class="background" aria-hidden="true" d="M0.5,0.5h200v360h-200Z" stroke="#ddd"/><g><g class="mark-group role-axis" aria-hidden="true"><g transform="translate(0.5,360.5)"><path class="background" aria-hidden="true" d="M0,0h0v0h0Z" pointer-events="none"/><g><g class="mark-rule role-axis-grid" pointer-events="none"><line transform="translate(0,0)" x2="0" y2="-360" stroke="#ddd" stroke-width="1" opacity="1"/><line transform="translate(50,0)" x2="0" y2="-360" stroke="#ddd" stroke-width="1" opacity="1"/><line transform="translate(100,0)" x2="0" y2="-360" stroke="#ddd" stroke-width="1" opacity="1"/><line transform="translate(150,0)" x2="0" y2="-360" stroke="#ddd" stroke-width="1" opacity="1"/><line transform="translate(200,0)" x2="0" y2="-360" stroke="#ddd" stroke-width="1" opacity="1"/></g></g><path class="foreground" aria-hidden="true" d="" pointer-events="none" display="none"/></g></g><g class="mark-group role-axis" role="graphics-symbol" aria-roledescription="axis" aria-label="X-axis titled 'mean execution time in µs' for a linear scale with values from 0 to 200"><g transform="translate(0.5,360.5)"><path class="background" aria-hidden="true" d="M0,0h0v0h0Z" pointer-events="none"/><g><g class="mark-rule role-axis-tick" pointer-events="none"><line transform="translate(0,0)" x2="0" y2="5" stroke="#888" stroke-width="1" opacity="1"/><line transform="translate(50,0)" x2="0" y2="5" stroke="#888" stroke-width="1" opacity="1"/><line transform="translate(100,0)" x2="0" y2="5" stroke="#888" stroke-width="1" opacity="1"/><line transform="translate(150,0)" x2="0" y2="5" stroke="#888" stroke-width="1" opacity="1"/><line transform="translate(200,0)" x2="0" y2="5" stroke="#888" stroke-width="1" opacity="1"/></g><g class="mark-text role-axis-label" pointer-events="none"><text text-anchor="start" transform="translate(0,15)" font-family="sans-serif" font-size="10px" fill="#000" opacity="1">0</text><text text-anchor="middle" transform="translate(50,15)" font-family="sans-serif" font-size="10px" fill="#000" opacity="1">50</text><text text-anchor="middle" transform="translate(100,15)" font-family="sans-serif" font-size="10px" fill="#000" opacity="1">100</text><text text-anchor="middle" transform="translate(150,15)" font-family="sans-serif" font-size="10px" fill="#000" opacity="1">150</text><text text-anchor="end" transform="translate(200,15)" font-family="sans-serif" font-size="10px" fill="#000" opacity="1">200</text></g><g class="mark-rule role-axis-domain" pointer-events="none"><line transform="translate(0,0)" x2="200" y2="0" stroke="#888" stroke-width="1" opacity="1"/></g><g class="mark-text role-axis-title" pointer-events="none"><text text-anchor="middle" transform="translate(100,30)" font-family="sans-serif" font-size="11px" font-weight="bold" fill="#000" opacity="1">mean execution time in µs</text></g></g><path class="foreground" aria-hidden="true" d="" pointer-events="none" display="none"/></g></g><g class="mark-group role-axis" role="graphics-symbol" aria-roledescription="axis" aria-label="Y-axis titled 'algorithm' for a discrete scale with 18 values: (wilczek) AVX NoAlign Outer- and Inner-Loop Vectorization, (wilczek) AVX NoAlign Outer-Loop Vectorization, (JohT) inputPerKernelValue Transposed, (wilczek) AVX NoAlign Inner-Loop Vectorization, (JohT) inputPerKernelValue Transposed LoopFissionIndexArithmetic, ending with (wilczek) Outer-Loop Vectorization"><g transform="translate(0.5,0.5)"><path class="background" aria-hidden="true" d="M0,0h0v0h0Z" pointer-events="none"/><g><g class="mark-rule role-axis-tick" pointer-events="none"><line transform="translate(0,10)" x2="-5" y2="0" stroke="#888" stroke-width="1" opacity="1"/><line transform="translate(0,30)" x2="-5" y2="0" stroke="#888" stroke-width="1" opacity="1"/><line transform="translate(0,50)" x2="-5" y2="0" stroke="#888" stroke-width="1" opacity="1"/><line transform="translate(0,70)" x2="-5" y2="0" stroke="#888" stroke-width="1" opacity="1"/><line transform="translate(0,90)" x2="-5" y2="0" stroke="#888" stroke-width="1" opacity="1"/><line transform="translate(0,110)" x2="-5" y2="0" stroke="#888" stroke-width="1" opacity="1"/><line transform="translate(0,130)" x2="-5" y2="0" stroke="#888" stroke-width="1" opacity="1"/><line transform="translate(0,150)" x2="-5" y2="0" stroke="#888" stroke-width="1" opacity="1"/><line transform="translate(0,170)" x2="-5" y2="0" stroke="#888" stroke-width="1" opacity="1"/><line transform="translate(0,190)" x2="-5" y2="0" stroke="#888" stroke-width="1" opacity="1"/><line transform="translate(0,210)" x2="-5" y2="0" stroke="#888" stroke-width="1" opacity="1"/><line transform="translate(0,230)" x2="-5" y2="0" stroke="#888" stroke-width="1" opacity="1"/><line transform="translate(0,250)" x2="-5" y2="0" stroke="#888" stroke-width="1" opacity="1"/><line transform="translate(0,270)" x2="-5" y2="0" stroke="#888" stroke-width="1" opacity="1"/><line transform="translate(0,290)" x2="-5" y2="0" stroke="#888" stroke-width="1" opacity="1"/><line transform="translate(0,310)" x2="-5" y2="0" stroke="#888" stroke-width="1" opacity="1"/><line transform="translate(0,330)" x2="-5" y2="0" stroke="#888" stroke-width="1" opacity="1"/><line transform="translate(0,350)" x2="-5" y2="0" stroke="#888" stroke-width="1" opacity="1"/></g><g class="mark-text role-axis-label" pointer-events="none"><text text-anchor="end" transform="translate(-7,12.5)" font-family="sans-serif" font-size="10px" fill="#000" opacity="1">(wilczek) AVX NoAlign Outer- and Inner-Loop Vectorization</text><text text-anchor="end" transform="translate(-7,32.5)" font-family="sans-serif" font-size="10px" fill="#000" opacity="1">(wilczek) AVX NoAlign Outer-Loop Vectorization</text><text text-anchor="end" transform="translate(-7,52.5)" font-family="sans-serif" font-size="10px" fill="#000" opacity="1">(JohT) inputPerKernelValue Transposed</text><text text-anchor="end" transform="translate(-7,72.5)" font-family="sans-serif" font-size="10px" fill="#000" opacity="1">(wilczek) AVX NoAlign Inner-Loop Vectorization</text><text text-anchor="end" transform="translate(-7,92.5)" font-family="sans-serif" font-size="10px" fill="#000" opacity="1">(JohT) inputPerKernelValue Transposed LoopFissionIndexArithme…</text><text text-anchor="end" transform="translate(-7,112.5)" font-family="sans-serif" font-size="10px" fill="#000" opacity="1">(JohT) inputPerKernelValue Transposed LoopFission</text><text text-anchor="end" transform="translate(-7,132.5)" font-family="sans-serif" font-size="10px" fill="#000" opacity="1">(JohT) inputPerKernelValue Transposed Inner&amp;OuterLoopUnrolled</text><text text-anchor="end" transform="translate(-7,152.5)" font-family="sans-serif" font-size="10px" fill="#000" opacity="1">(JohT) inputPerKernelValue Transposed InnerLoopUnrolled</text><text text-anchor="end" transform="translate(-7,172.5)" font-family="sans-serif" font-size="10px" fill="#000" opacity="1">(wilczek) Inner-Loop Vectorization</text><text text-anchor="end" transform="translate(-7,192.5)" font-family="sans-serif" font-size="10px" fill="#000" opacity="1">(wilczek) Outer- and Inner-Loop Vectorization</text><text text-anchor="end" transform="translate(-7,212.5)" font-family="sans-serif" font-size="10px" fill="#000" opacity="1">(JohT) kernelPerInputValue Transposed</text><text text-anchor="end" transform="translate(-7,232.5)" font-family="sans-serif" font-size="10px" fill="#000" opacity="1">(JohT) kernelPerInputValue Transposed LoopFission</text><text text-anchor="end" transform="translate(-7,252.5)" font-family="sans-serif" font-size="10px" fill="#000" opacity="1">(JohT) inputPerKernelValue Transposed OuterLoopUnrolled</text><text text-anchor="end" transform="translate(-7,272.5)" font-family="sans-serif" font-size="10px" fill="#000" opacity="1">(chaowang15) convolve1D</text><text text-anchor="end" transform="translate(-7,292.5)" font-family="sans-serif" font-size="10px" fill="#000" opacity="1">(matlab-like) conv 'full' shape</text><text text-anchor="end" transform="translate(-7,312.5)" font-family="sans-serif" font-size="10px" fill="#000" opacity="1">(wilczek) Single</text><text text-anchor="end" transform="translate(-7,332.5)" font-family="sans-serif" font-size="10px" fill="#000" opacity="1">(matlab-like) conv 'valid' shape pre padded</text><text text-anchor="end" transform="translate(-7,352.5)" font-family="sans-serif" font-size="10px" fill="#000" opacity="1">(wilczek) Outer-Loop Vectorization</text></g><g class="mark-rule role-axis-domain" pointer-events="none"><line transform="translate(0,0)" x2="0" y2="360" stroke="#888" stroke-width="1" opacity="1"/></g><g class="mark-text role-axis-title" pointer-events="none"><text text-anchor="middle" transform="translate(-320,180) rotate(-90) translate(0,-2)" font-family="sans-serif" font-size="11px" font-weight="bold" fill="#000" opacity="1">algorithm</text></g></g><path class="foreground" aria-hidden="true" d="" pointer-events="none" display="none"/></g></g><g class="mark-rect role-mark child_layer_0_marks" role="graphics-object" aria-roledescription="rect mark container"><path aria-label="mean execution time in µs: 128; algorithm: (JohT) kernelPerInputValue Transposed" role="graphics-symbol" aria-roledescription="bar" d="M0,201.9L124,201.9C126.207660097976,201.9,128,203.692339902024,128,205.9L128,214.1C128,216.307660097976,126.207660097976,218.1,124,218.1L0,218.1C0,218.1,0,218.1,0,218.1L0,201.9C0,201.9,0,201.9,0,201.9Z" fill="#4c78a8"/><path aria-label="mean execution time in µs: 35; algorithm: (JohT) inputPerKernelValue Transposed" role="graphics-symbol" aria-roledescription="bar" d="M0,41.9L31,41.9C33.207660097976,41.9,35,43.692339902023996,35,45.9L35,54.099999999999994C35,56.307660097976,33.207660097976,58.099999999999994,31,58.099999999999994L0,58.099999999999994C0,58.099999999999994,0,58.099999999999994,0,58.099999999999994L0,41.9C0,41.9,0,41.9,0,41.9Z" fill="#4c78a8"/><path aria-label="mean execution time in µs: 94; algorithm: (JohT) inputPerKernelValue Transposed InnerLoopUnrolled" role="graphics-symbol" aria-roledescription="bar" d="M0,141.9L90,141.9C92.207660097976,141.9,94,143.692339902024,94,145.9L94,154.1C94,156.307660097976,92.207660097976,158.1,90,158.1L0,158.1C0,158.1,0,158.1,0,158.1L0,141.9C0,141.9,0,141.9,0,141.9Z" fill="#4c78a8"/><path aria-label="mean execution time in µs: 133; algorithm: (JohT) inputPerKernelValue Transposed OuterLoopUnrolled" role="graphics-symbol" aria-roledescription="bar" d="M0,241.9L129,241.9C131.207660097976,241.9,133,243.692339902024,133,245.9L133,254.10000000000002C133,256.307660097976,131.207660097976,258.1,129,258.1L0,258.1C0,258.1,0,258.1,0,258.1L0,241.9C0,241.9,0,241.9,0,241.9Z" fill="#4c78a8"/><path aria-label="mean execution time in µs: 93; algorithm: (JohT) inputPerKernelValue Transposed Inner&amp;OuterLoopUnrolled" role="graphics-symbol" aria-roledescription="bar" d="M0,121.9L89,121.9C91.207660097976,121.9,93,123.692339902024,93,125.9L93,134.1C93,136.307660097976,91.207660097976,138.1,89,138.1L0,138.1C0,138.1,0,138.1,0,138.1L0,121.9C0,121.9,0,121.9,0,121.9Z" fill="#4c78a8"/><path aria-label="mean execution time in µs: 59; algorithm: (JohT) inputPerKernelValue Transposed LoopFission" role="graphics-symbol" aria-roledescription="bar" d="M0,101.9L55,101.9C57.207660097976,101.9,59,103.692339902024,59,105.9L59,114.10000000000001C59,116.30766009797601,57.207660097976,118.10000000000001,55,118.10000000000001L0,118.10000000000001C0,118.10000000000001,0,118.10000000000001,0,118.10000000000001L0,101.9C0,101.9,0,101.9,0,101.9Z" fill="#4c78a8"/><path aria-label="mean execution time in µs: 52; algorithm: (JohT) inputPerKernelValue Transposed LoopFissionIndexArithmetic" role="graphics-symbol" aria-roledescription="bar" d="M0,81.9L48,81.9C50.207660097976,81.9,52,83.692339902024,52,85.9L52,94.10000000000001C52,96.30766009797601,50.207660097976,98.10000000000001,48,98.10000000000001L0,98.10000000000001C0,98.10000000000001,0,98.10000000000001,0,98.10000000000001L0,81.9C0,81.9,0,81.9,0,81.9Z" fill="#4c78a8"/><path aria-label="mean execution time in µs: 131; algorithm: (JohT) kernelPerInputValue Transposed LoopFission" role="graphics-symbol" aria-roledescription="bar" d="M0,221.9L127,221.9C129.207660097976,221.9,131,223.692339902024,131,225.9L131,234.1C131,236.307660097976,129.207660097976,238.1,127,238.1L0,238.1C0,238.1,0,238.1,0,238.1L0,221.9C0,221.9,0,221.9,0,221.9Z" fill="#4c78a8"/><path aria-label="mean execution time in µs: 168; algorithm: (matlab-like) conv 'full' shape" role="graphics-symbol" aria-roledescription="bar" d="M0,281.9L164,281.9C166.207660097976,281.9,168,283.692339902024,168,285.9L168,294.09999999999997C168,296.30766009797594,166.207660097976,298.09999999999997,164,298.09999999999997L0,298.09999999999997C0,298.09999999999997,0,298.09999999999997,0,298.09999999999997L0,281.9C0,281.9,0,281.9,0,281.9Z" fill="#4c78a8"/><path aria-label="mean execution time in µs: 174; algorithm: (matlab-like) conv 'valid' shape pre padded" role="graphics-symbol" aria-roledescription="bar" d="M0,321.9L170,321.9C172.207660097976,321.9,174,323.692339902024,174,325.9L174,334.09999999999997C174,336.30766009797594,172.207660097976,338.09999999999997,170,338.09999999999997L0,338.09999999999997C0,338.09999999999997,0,338.09999999999997,0,338.09999999999997L0,321.9C0,321.9,0,321.9,0,321.9Z" fill="#4c78a8"/><path aria-label="mean execution time in µs: 168; algorithm: (wilczek) Single" role="graphics-symbol" aria-roledescription="bar" d="M0,301.9L164,301.9C166.207660097976,301.9,168,303.692339902024,168,305.9L168,314.09999999999997C168,316.30766009797594,166.207660097976,318.09999999999997,164,318.09999999999997L0,318.09999999999997C0,318.09999999999997,0,318.09999999999997,0,318.09999999999997L0,301.9C0,301.9,0,301.9,0,301.9Z" fill="#4c78a8"/><path aria-label="mean execution time in µs: 100; algorithm: (wilczek) Inner-Loop Vectorization" role="graphics-symbol" aria-roledescription="bar" d="M0,161.9L96,161.9C98.207660097976,161.9,100,163.692339902024,100,165.9L100,174.1C100,176.307660097976,98.207660097976,178.1,96,178.1L0,178.1C0,178.1,0,178.1,0,178.1L0,161.9C0,161.9,0,161.9,0,161.9Z" fill="#4c78a8"/><path aria-label="mean execution time in µs: 196; algorithm: (wilczek) Outer-Loop Vectorization" role="graphics-symbol" aria-roledescription="bar" d="M0,341.9L192,341.9C194.207660097976,341.9,196,343.692339902024,196,345.9L196,354.09999999999997C196,356.30766009797594,194.207660097976,358.09999999999997,192,358.09999999999997L0,358.09999999999997C0,358.09999999999997,0,358.09999999999997,0,358.09999999999997L0,341.9C0,341.9,0,341.9,0,341.9Z" fill="#4c78a8"/><path aria-label="mean execution time in µs: 115; algorithm: (wilczek) Outer- and Inner-Loop Vectorization" role="graphics-symbol" aria-roledescription="bar" d="M0,181.9L110.99999999999999,181.9C113.20766009797599,181.9,114.99999999999999,183.692339902024,114.99999999999999,185.9L114.99999999999999,194.1C114.99999999999999,196.307660097976,113.20766009797599,198.1,110.99999999999999,198.1L0,198.1C0,198.1,0,198.1,0,198.1L0,181.9C0,181.9,0,181.9,0,181.9Z" fill="#4c78a8"/><path aria-label="mean execution time in µs: 35; algorithm: (wilczek) AVX NoAlign Inner-Loop Vectorization" role="graphics-symbol" aria-roledescription="bar" d="M0,61.9L31,61.9C33.207660097976,61.9,35,63.692339902023996,35,65.9L35,74.1C35,76.307660097976,33.207660097976,78.1,31,78.1L0,78.1C0,78.1,0,78.1,0,78.1L0,61.9C0,61.9,0,61.9,0,61.9Z" fill="#4c78a8"/><path aria-label="mean execution time in µs: 26; algorithm: (wilczek) AVX NoAlign Outer-Loop Vectorization" role="graphics-symbol" aria-roledescription="bar" d="M0,21.9L22,21.9C24.207660097976,21.9,26,23.692339902024,26,25.9L26,34.099999999999994C26,36.307660097976,24.207660097976,38.099999999999994,22,38.099999999999994L0,38.099999999999994C0,38.099999999999994,0,38.099999999999994,0,38.099999999999994L0,21.9C0,21.9,0,21.9,0,21.9Z" fill="#4c78a8"/><path aria-label="mean execution time in µs: 22; algorithm: (wilczek) AVX NoAlign Outer- and Inner-Loop Vectorization" role="graphics-symbol" aria-roledescription="bar" d="M0,1.9L18,1.9C20.207660097976,1.9,22,3.692339902024,22,5.9L22,14.099999999999998C22,16.307660097975997,20.207660097976,18.099999999999998,18,18.099999999999998L0,18.099999999999998C0,18.099999999999998,0,18.099999999999998,0,18.099999999999998L0,1.9C0,1.9,0,1.9,0,1.9Z" fill="#4c78a8"/><path aria-label="mean execution time in µs: 166; algorithm: (chaowang15) convolve1D" role="graphics-symbol" aria-roledescription="bar" d="M0,261.9L162,261.9C164.207660097976,261.9,166,263.692339902024,166,265.9L166,274.09999999999997C166,276.30766009797594,164.207660097976,278.09999999999997,162,278.09999999999997L0,278.09999999999997C0,278.09999999999997,0,278.09999999999997,0,278.09999999999997L0,261.9C0,261.9,0,261.9,0,261.9Z" fill="#4c78a8"/></g><g class="mark-text role-mark child_layer_1_marks" role="graphics-object" aria-roledescription="text mark container"><text aria-label="mean execution time in µs: 128; algorithm: (JohT) kernelPerInputValue Transposed; MeanExecutionTime: 128" role="graphics-symbol" aria-roledescription="text mark" text-anchor="start" transform="translate(132,213)" font-family="sans-serif" font-size="9px" fill="black">128</text><text aria-label="mean execution time in µs: 35; algorithm: (JohT) inputPerKernelValue Transposed; MeanExecutionTime: 35" role="graphics-symbol" aria-roledescription="text mark" text-anchor="start" transform="translate(39,53)" font-family="sans-serif" font-size="9px" fill="black">35</text><text aria-label="mean execution time in µs: 94; algorithm: (JohT) inputPerKernelValue Transposed InnerLoopUnrolled; MeanExecutionTime: 94" role="graphics-symbol" aria-roledescription="text mark" text-anchor="start" transform="translate(98,153)" font-family="sans-serif" font-size="9px" fill="black">94</text><text aria-label="mean execution time in µs: 133; algorithm: (JohT) inputPerKernelValue Transposed OuterLoopUnrolled; MeanExecutionTime: 133" role="graphics-symbol" aria-roledescription="text mark" text-anchor="start" transform="translate(137,253)" font-family="sans-serif" font-size="9px" fill="black">133</text><text aria-label="mean execution time in µs: 93; algorithm: (JohT) inputPerKernelValue Transposed Inner&amp;OuterLoopUnrolled; MeanExecutionTime: 93" role="graphics-symbol" aria-roledescription="text mark" text-anchor="start" transform="translate(97,133)" font-family="sans-serif" font-size="9px" fill="black">93</text><text aria-label="mean execution time in µs: 59; algorithm: (JohT) inputPerKernelValue Transposed LoopFission; MeanExecutionTime: 59" role="graphics-symbol" aria-roledescription="text mark" text-anchor="start" transform="translate(63,113)" font-family="sans-serif" font-size="9px" fill="black">59</text><text aria-label="mean execution time in µs: 52; algorithm: (JohT) inputPerKernelValue Transposed LoopFissionIndexArithmetic; MeanExecutionTime: 52" role="graphics-symbol" aria-roledescription="text mark" text-anchor="start" transform="translate(56,93)" font-family="sans-serif" font-size="9px" fill="black">52</text><text aria-label="mean execution time in µs: 131; algorithm: (JohT) kernelPerInputValue Transposed LoopFission; MeanExecutionTime: 131" role="graphics-symbol" aria-roledescription="text mark" text-anchor="start" transform="translate(135,233)" font-family="sans-serif" font-size="9px" fill="black">131</text><text aria-label="mean execution time in µs: 168; algorithm: (matlab-like) conv 'full' shape; MeanExecutionTime: 168" role="graphics-symbol" aria-roledescription="text mark" text-anchor="start" transform="translate(172,293)" font-family="sans-serif" font-size="9px" fill="black">168</text><text aria-label="mean execution time in µs: 174; algorithm: (matlab-like) conv 'valid' shape pre padded; MeanExecutionTime: 174" role="graphics-symbol" aria-roledescription="text mark" text-anchor="start" transform="translate(178,333)" font-family="sans-serif" font-size="9px" fill="black">174</text><text aria-label="mean execution time in µs: 168; algorithm: (wilczek) Single; MeanExecutionTime: 168" role="graphics-symbol" aria-roledescription="text mark" text-anchor="start" transform="translate(172,313)" font-family="sans-serif" font-size="9px" fill="black">168</text><text aria-label="mean execution time in µs: 100; algorithm: (wilczek) Inner-Loop Vectorization; MeanExecutionTime: 100" role="graphics-symbol" aria-roledescription="text mark" text-anchor="start" transform="translate(104,173)" font-family="sans-serif" font-size="9px" fill="black">100</text><text aria-label="mean execution time in µs: 196; algorithm: (wilczek) Outer-Loop Vectorization; MeanExecutionTime: 196" role="graphics-symbol" aria-roledescription="text mark" text-anchor="start" transform="translate(200,353)" font-family="sans-serif" font-size="9px" fill="black">196</text><text aria-label="mean execution time in µs: 115; algorithm: (wilczek) Outer- and Inner-Loop Vectorization; MeanExecutionTime: 115" role="graphics-symbol" aria-roledescription="text mark" text-anchor="start" transform="translate(118.99999999999999,193)" font-family="sans-serif" font-size="9px" fill="black">115</text><text aria-label="mean execution time in µs: 35; algorithm: (wilczek) AVX NoAlign Inner-Loop Vectorization; MeanExecutionTime: 35" role="graphics-symbol" aria-roledescription="text mark" text-anchor="start" transform="translate(39,73)" font-family="sans-serif" font-size="9px" fill="black">35</text><text aria-label="mean execution time in µs: 26; algorithm: (wilczek) AVX NoAlign Outer-Loop Vectorization; MeanExecutionTime: 26" role="graphics-symbol" aria-roledescription="text mark" text-anchor="start" transform="translate(30,33)" font-family="sans-serif" font-size="9px" fill="black">26</text><text aria-label="mean execution time in µs: 22; algorithm: (wilczek) AVX NoAlign Outer- and Inner-Loop Vectorization; MeanExecutionTime: 22" role="graphics-symbol" aria-roledescription="text mark" text-anchor="start" transform="translate(26,13)" font-family="sans-serif" font-size="9px" fill="black">22</text><text aria-label="mean execution time in µs: 166; algorithm: (chaowang15) convolve1D; MeanExecutionTime: 166" role="graphics-symbol" aria-roledescription="text mark" text-anchor="start" transform="translate(170,273)" font-family="sans-serif" font-size="9px" fill="black">166</text></g></g><path class="foreground" aria-hidden="true" d="" display="none"/></g><g transform="translate(746,0)"><path class="background" aria-hidden="true" d="M0.5,0.5h200v360h-200Z" stroke="#ddd"/><g><g class="mark-group role-axis" aria-hidden="true"><g transform="translate(0.5,360.5)"><path class="background" aria-hidden="true" d="M0,0h0v0h0Z" pointer-events="none"/><g><g class="mark-rule role-axis-grid" pointer-events="none"><line transform="translate(0,0)" x2="0" y2="-360" stroke="#ddd" stroke-width="1" opacity="1"/><line transform="translate(44,0)" x2="0" y2="-360" stroke="#ddd" stroke-width="1" opacity="1"/><line transform="translate(89,0)" x2="0" y2="-360" stroke="#ddd" stroke-width="1" opacity="1"/><line transform="translate(133,0)" x2="0" y2="-360" stroke="#ddd" stroke-width="1" opacity="1"/><line transform="translate(178,0)" x2="0" y2="-360" stroke="#ddd" stroke-width="1" opacity="1"/></g></g><path class="foreground" aria-hidden="true" d="" pointer-events="none" display="none"/></g></g><g class="mark-group role-axis" role="graphics-symbol" aria-roledescription="axis" aria-label="X-axis titled 'mean execution time in µs' for a linear scale with values from 0 to 9,000"><g transform="translate(0.5,360.5)"><path class="background" aria-hidden="true" d="M0,0h0v0h0Z" pointer-events="none"/><g><g class="mark-rule role-axis-tick" pointer-events="none"><line transform="translate(0,0)" x2="0" y2="5" stroke="#888" stroke-width="1" opacity="1"/><line transform="translate(44,0)" x2="0" y2="5" stroke="#888" stroke-width="1" opacity="1"/><line transform="translate(89,0)" x2="0" y2="5" stroke="#888" stroke-width="1" opacity="1"/><line transform="translate(133,0)" x2="0" y2="5" stroke="#888" stroke-width="1" opacity="1"/><line transform="translate(178,0)" x2="0" y2="5" stroke="#888" stroke-width="1" opacity="1"/></g><g class="mark-text role-axis-label" pointer-events="none"><text text-anchor="start" transform="translate(0,15)" font-family="sans-serif" font-size="10px" fill="#000" opacity="1">0</text><text text-anchor="middle" transform="translate(44.44444444444444,15)" font-family="sans-serif" font-size="10px" fill="#000" opacity="1">2,000</text><text text-anchor="middle" transform="translate(88.88888888888889,15)" font-family="sans-serif" font-size="10px" fill="#000" opacity="1">4,000</text><text text-anchor="middle" transform="translate(133.33333333333331,15)" font-family="sans-serif" font-size="10px" fill="#000" opacity="1">6,000</text><text text-anchor="middle" transform="translate(177.77777777777777,15)" font-family="sans-serif" font-size="10px" fill="#000" opacity="1">8,000</text></g><g class="mark-rule role-axis-domain" pointer-events="none"><line transform="translate(0,0)" x2="200" y2="0" stroke="#888" stroke-width="1" opacity="1"/></g><g class="mark-text role-axis-title" pointer-events="none"><text text-anchor="middle" transform="translate(100,30)" font-family="sans-serif" font-size="11px" font-weight="bold" fill="#000" opacity="1">mean execution time in µs</text></g></g><path class="foreground" aria-hidden="true" d="" pointer-events="none" display="none"/></g></g><g class="mark-group role-axis" role="graphics-symbol" aria-roledescription="axis" aria-label="Y-axis titled 'algorithm' for a discrete scale with 18 values: (wilczek) AVX NoAlign Outer- and Inner-Loop Vectorization, (JohT) kernelPerInputValue Transposed, (wilczek) AVX NoAlign Inner-Loop Vectorization, (JohT) inputPerKernelValue Transposed, (wilczek) AVX NoAlign Outer-Loop Vectorization, ending with (wilczek) Outer-Loop Vectorization"><g transform="translate(0.5,0.5)"><path class="background" aria-hidden="true" d="M0,0h0v0h0Z" pointer-events="none"/><g><g class="mark-rule role-axis-tick" pointer-events="none"><line transform="translate(0,10)" x2="-5" y2="0" stroke="#888" stroke-width="1" opacity="1"/><line transform="translate(0,30)" x2="-5" y2="0" stroke="#888" stroke-width="1" opacity="1"/><line transform="translate(0,50)" x2="-5" y2="0" stroke="#888" stroke-width="1" opacity="1"/><line transform="translate(0,70)" x2="-5" y2="0" stroke="#888" stroke-width="1" opacity="1"/><line transform="translate(0,90)" x2="-5" y2="0" stroke="#888" stroke-width="1" opacity="1"/><line transform="translate(0,110)" x2="-5" y2="0" stroke="#888" stroke-width="1" opacity="1"/><line transform="translate(0,130)" x2="-5" y2="0" stroke="#888" stroke-width="1" opacity="1"/><line transform="translate(0,150)" x2="-5" y2="0" stroke="#888" stroke-width="1" opacity="1"/><line transform="translate(0,170)" x2="-5" y2="0" stroke="#888" stroke-width="1" opacity="1"/><line transform="translate(0,190)" x2="-5" y2="0" stroke="#888" stroke-width="1" opacity="1"/><line transform="translate(0,210)" x2="-5" y2="0" stroke="#888" stroke-width="1" opacity="1"/><line transform="translate(0,230)" x2="-5" y2="0" stroke="#888" stroke-width="1" opacity="1"/><line transform="translate(0,250)" x2="-5" y2="0" stroke="#888" stroke-width="1" opacity="1"/><line transform="translate(0,270)" x2="-5" y2="0" stroke="#888" stroke-width="1" opacity="1"/><line transform="translate(0,290)" x2="-5" y2="0" stroke="#888" stroke-width="1" opacity="1"/><line transform="translate(0,310)" x2="-5" y2="0" stroke="#888" stroke-width="1" opacity="1"/><line transform="translate(0,330)" x2="-5" y2="0" stroke="#888" stroke-width="1" opacity="1"/><line transform="translate(0,350)" x2="-5" y2="0" stroke="#888" stroke-width="1" opacity="1"/></g><g class="mark-text role-axis-label" pointer-events="none"><text text-anchor="end" transform="translate(-7,12.5)" font-family="sans-serif" font-size="10px" fill="#000" opacity="1">(wilczek) AVX NoAlign Outer- and Inner-Loop Vectorization</text><text text-anchor="end" transform="translate(-7,32.5)" font-family="sans-serif" font-size="10px" fill="#000" opacity="1">(JohT) kernelPerInputValue Transposed</text><text text-anchor="end" transform="translate(-7,52.5)" font-family="sans-serif" font-size="10px" fill="#000" opacity="1">(wilczek) AVX NoAlign Inner-Loop Vectorization</text><text text-anchor="end" transform="translate(-7,72.5)" font-family="sans-serif" font-size="10px" fill="#000" opacity="1">(JohT) inputPerKernelValue Transposed</text><text text-anchor="end" transform="translate(-7,92.5)" font-family="sans-serif" font-size="10px" fill="#000" opacity="1">(wilczek) AVX NoAlign Outer-Loop Vectorization</text><text text-anchor="end" transform="translate(-7,112.5)" font-family="sans-serif" font-size="10px" fill="#000" opacity="1">(JohT) kernelPerInputValue Transposed LoopFission</text><text text-anchor="end" transform="translate(-7,132.5)" font-family="sans-serif" font-size="10px" fill="#000" opacity="1">(JohT) inputPerKernelValue Transposed LoopFissionIndexArithme…</text><text text-anchor="end" transform="translate(-7,152.5)" font-family="sans-serif" font-size="10px" fill="#000" opacity="1">(JohT) inputPerKernelValue Transposed LoopFission</text><text text-anchor="end" transform="translate(-7,172.5)" font-family="sans-serif" font-size="10px" fill="#000" opacity="1">(JohT) inputPerKernelValue Transposed Inner&amp;OuterLoopUnrolled</text><text text-anchor="end" transform="translate(-7,192.5)" font-family="sans-serif" font-size="10px" fill="#000" opacity="1">(JohT) inputPerKernelValue Transposed InnerLoopUnrolled</text><text text-anchor="end" transform="translate(-7,212.5)" font-family="sans-serif" font-size="10px" fill="#000" opacity="1">(wilczek) Inner-Loop Vectorization</text><text text-anchor="end" transform="translate(-7,232.5)" font-family="sans-serif" font-size="10px" fill="#000" opacity="1">(wilczek) Outer- and Inner-Loop Vectorization</text><text text-anchor="end" transform="translate(-7,252.5)" font-family="sans-serif" font-size="10px" fill="#000" opacity="1">(JohT) inputPerKernelValue Transposed OuterLoopUnrolled</text><text text-anchor="end" transform="translate(-7,272.5)" font-family="sans-serif" font-size="10px" fill="#000" opacity="1">(matlab-like) conv 'full' shape</text><text text-anchor="end" transform="translate(-7,292.5)" font-family="sans-serif" font-size="10px" fill="#000" opacity="1">(chaowang15) convolve1D</text><text text-anchor="end" transform="translate(-7,312.5)" font-family="sans-serif" font-size="10px" fill="#000" opacity="1">(matlab-like) conv 'valid' shape pre padded</text><text text-anchor="end" transform="translate(-7,332.5)" font-family="sans-serif" font-size="10px" fill="#000" opacity="1">(wilczek) Single</text><text text-anchor="end" transform="translate(-7,352.5)" font-family="sans-serif" font-size="10px" fill="#000" opacity="1">(wilczek) Outer-Loop Vectorization</text></g><g class="mark-rule role-axis-domain" pointer-events="none"><line transform="translate(0,0)" x2="0" y2="360" stroke="#888" stroke-width="1" opacity="1"/></g><g class="mark-text role-axis-title" pointer-events="none"><text text-anchor="middle" transform="translate(-320,180) rotate(-90) translate(0,-2)" font-family="sans-serif" font-size="11px" font-weight="bold" fill="#000" opacity="1">algorithm</text></g></g><path class="foreground" aria-hidden="true" d="" pointer-events="none" display="none"/></g></g><g class="mark-rect role-mark child_layer_0_marks" role="graphics-object" aria-roledescription="rect mark container"><path aria-label="mean execution time in µs: 793; algorithm: (JohT) kernelPerInputValue Transposed" role="graphics-symbol" aria-roledescription="bar" d="M0,21.9L13.622222222222224,21.9C15.829882320198223,21.9,17.622222222222224,23.692339902024,17.622222222222224,25.9L17.622222222222224,34.099999999999994C17.622222222222224,36.307660097976,15.829882320198223,38.099999999999994,13.622222222222224,38.099999999999994L0,38.099999999999994C0,38.099999999999994,0,38.099999999999994,0,38.099999999999994L0,21.9C0,21.9,0,21.9,0,21.9Z" fill="#4c78a8"/><path aria-label="mean execution time in µs: 973; algorithm: (JohT) inputPerKernelValue Transposed" role="graphics-symbol" aria-roledescription="bar" d="M0,61.9L17.622222222222224,61.9C19.829882320198223,61.9,21.622222222222224,63.692339902023996,21.622222222222224,65.9L21.622222222222224,74.1C21.622222222222224,76.307660097976,19.829882320198223,78.1,17.622222222222224,78.1L0,78.1C0,78.1,0,78.1,0,78.1L0,61.9C0,61.9,0,61.9,0,61.9Z" fill="#4c78a8"/><path aria-label="mean execution time in µs: 2989; algorithm: (JohT) inputPerKernelValue Transposed InnerLoopUnrolled" role="graphics-symbol" aria-roledescription="bar" d="M0,181.9L62.42222222222223,181.9C64.62988232019823,181.9,66.42222222222223,183.692339902024,66.42222222222223,185.9L66.42222222222223,194.1C66.42222222222223,196.307660097976,64.62988232019823,198.1,62.42222222222223,198.1L0,198.1C0,198.1,0,198.1,0,198.1L0,181.9C0,181.9,0,181.9,0,181.9Z" fill="#4c78a8"/><path aria-label="mean execution time in µs: 4175; algorithm: (JohT) inputPerKernelValue Transposed OuterLoopUnrolled" role="graphics-symbol" aria-roledescription="bar" d="M0,241.9L88.77777777777779,241.9C90.98543787575379,241.9,92.77777777777779,243.692339902024,92.77777777777779,245.9L92.77777777777779,254.10000000000002C92.77777777777779,256.307660097976,90.98543787575379,258.1,88.77777777777779,258.1L0,258.1C0,258.1,0,258.1,0,258.1L0,241.9C0,241.9,0,241.9,0,241.9Z" fill="#4c78a8"/><path aria-label="mean execution time in µs: 2985; algorithm: (JohT) inputPerKernelValue Transposed Inner&amp;OuterLoopUnrolled" role="graphics-symbol" aria-roledescription="bar" d="M0,161.9L62.33333333333333,161.9C64.54099343130933,161.9,66.33333333333333,163.692339902024,66.33333333333333,165.9L66.33333333333333,174.1C66.33333333333333,176.307660097976,64.54099343130933,178.1,62.33333333333333,178.1L0,178.1C0,178.1,0,178.1,0,178.1L0,161.9C0,161.9,0,161.9,0,161.9Z" fill="#4c78a8"/><path aria-label="mean execution time in µs: 1555; algorithm: (JohT) inputPerKernelValue Transposed LoopFission" role="graphics-symbol" aria-roledescription="bar" d="M0,141.9L30.555555555555557,141.9C32.76321565353156,141.9,34.55555555555556,143.692339902024,34.55555555555556,145.9L34.55555555555556,154.1C34.55555555555556,156.307660097976,32.76321565353156,158.1,30.555555555555557,158.1L0,158.1C0,158.1,0,158.1,0,158.1L0,141.9C0,141.9,0,141.9,0,141.9Z" fill="#4c78a8"/><path aria-label="mean execution time in µs: 1398; algorithm: (JohT) inputPerKernelValue Transposed LoopFissionIndexArithmetic" role="graphics-symbol" aria-roledescription="bar" d="M0,121.9L27.066666666666663,121.9C29.274326764642662,121.9,31.066666666666663,123.692339902024,31.066666666666663,125.9L31.066666666666663,134.1C31.066666666666663,136.307660097976,29.274326764642662,138.1,27.066666666666663,138.1L0,138.1C0,138.1,0,138.1,0,138.1L0,121.9C0,121.9,0,121.9,0,121.9Z" fill="#4c78a8"/><path aria-label="mean execution time in µs: 1053; algorithm: (JohT) kernelPerInputValue Transposed LoopFission" role="graphics-symbol" aria-roledescription="bar" d="M0,101.9L19.400000000000002,101.9C21.607660097976,101.9,23.400000000000002,103.692339902024,23.400000000000002,105.9L23.400000000000002,114.10000000000001C23.400000000000002,116.30766009797601,21.607660097976,118.10000000000001,19.400000000000002,118.10000000000001L0,118.10000000000001C0,118.10000000000001,0,118.10000000000001,0,118.10000000000001L0,101.9C0,101.9,0,101.9,0,101.9Z" fill="#4c78a8"/><path aria-label="mean execution time in µs: 7582; algorithm: (matlab-like) conv 'full' shape" role="graphics-symbol" aria-roledescription="bar" d="M0,261.9L164.48888888888888,261.9C166.69654898686488,261.9,168.48888888888888,263.692339902024,168.48888888888888,265.9L168.48888888888888,274.09999999999997C168.48888888888888,276.30766009797594,166.69654898686488,278.09999999999997,164.48888888888888,278.09999999999997L0,278.09999999999997C0,278.09999999999997,0,278.09999999999997,0,278.09999999999997L0,261.9C0,261.9,0,261.9,0,261.9Z" fill="#4c78a8"/><path aria-label="mean execution time in µs: 7831; algorithm: (matlab-like) conv 'valid' shape pre padded" role="graphics-symbol" aria-roledescription="bar" d="M0,301.9L170.0222222222222,301.9C172.22988232019821,301.9,174.0222222222222,303.692339902024,174.0222222222222,305.9L174.0222222222222,314.09999999999997C174.0222222222222,316.30766009797594,172.22988232019821,318.09999999999997,170.0222222222222,318.09999999999997L0,318.09999999999997C0,318.09999999999997,0,318.09999999999997,0,318.09999999999997L0,301.9C0,301.9,0,301.9,0,301.9Z" fill="#4c78a8"/><path aria-label="mean execution time in µs: 7946; algorithm: (wilczek) Single" role="graphics-symbol" aria-roledescription="bar" d="M0,321.9L172.57777777777775,321.9C174.78543787575376,321.9,176.57777777777775,323.692339902024,176.57777777777775,325.9L176.57777777777775,334.09999999999997C176.57777777777775,336.30766009797594,174.78543787575376,338.09999999999997,172.57777777777775,338.09999999999997L0,338.09999999999997C0,338.09999999999997,0,338.09999999999997,0,338.09999999999997L0,321.9C0,321.9,0,321.9,0,321.9Z" fill="#4c78a8"/><path aria-label="mean execution time in µs: 3044; algorithm: (wilczek) Inner-Loop Vectorization" role="graphics-symbol" aria-roledescription="bar" d="M0,201.9L63.644444444444446,201.9C65.85210454242045,201.9,67.64444444444445,203.692339902024,67.64444444444445,205.9L67.64444444444445,214.1C67.64444444444445,216.307660097976,65.85210454242045,218.1,63.644444444444446,218.1L0,218.1C0,218.1,0,218.1,0,218.1L0,201.9C0,201.9,0,201.9,0,201.9Z" fill="#4c78a8"/><path aria-label="mean execution time in µs: 8003; algorithm: (wilczek) Outer-Loop Vectorization" role="graphics-symbol" aria-roledescription="bar" d="M0,341.9L173.84444444444446,341.9C176.05210454242047,341.9,177.84444444444446,343.692339902024,177.84444444444446,345.9L177.84444444444446,354.09999999999997C177.84444444444446,356.30766009797594,176.05210454242047,358.09999999999997,173.84444444444446,358.09999999999997L0,358.09999999999997C0,358.09999999999997,0,358.09999999999997,0,358.09999999999997L0,341.9C0,341.9,0,341.9,0,341.9Z" fill="#4c78a8"/><path aria-label="mean execution time in µs: 3344; algorithm: (wilczek) Outer- and Inner-Loop Vectorization" role="graphics-symbol" aria-roledescription="bar" d="M0,221.9L70.3111111111111,221.9C72.5187712090871,221.9,74.3111111111111,223.692339902024,74.3111111111111,225.9L74.3111111111111,234.1C74.3111111111111,236.307660097976,72.5187712090871,238.1,70.3111111111111,238.1L0,238.1C0,238.1,0,238.1,0,238.1L0,221.9C0,221.9,0,221.9,0,221.9Z" fill="#4c78a8"/><path aria-label="mean execution time in µs: 842; algorithm: (wilczek) AVX NoAlign Inner-Loop Vectorization" role="graphics-symbol" aria-roledescription="bar" d="M0,41.9L14.711111111111112,41.9C16.91877120908711,41.9,18.711111111111112,43.692339902023996,18.711111111111112,45.9L18.711111111111112,54.099999999999994C18.711111111111112,56.307660097976,16.91877120908711,58.099999999999994,14.711111111111112,58.099999999999994L0,58.099999999999994C0,58.099999999999994,0,58.099999999999994,0,58.099999999999994L0,41.9C0,41.9,0,41.9,0,41.9Z" fill="#4c78a8"/><path aria-label="mean execution time in µs: 978; algorithm: (wilczek) AVX NoAlign Outer-Loop Vectorization" role="graphics-symbol" aria-roledescription="bar" d="M0,81.9L17.73333333333333,81.9C19.94099343130933,81.9,21.73333333333333,83.692339902024,21.73333333333333,85.9L21.73333333333333,94.10000000000001C21.73333333333333,96.30766009797601,19.94099343130933,98.10000000000001,17.73333333333333,98.10000000000001L0,98.10000000000001C0,98.10000000000001,0,98.10000000000001,0,98.10000000000001L0,81.9C0,81.9,0,81.9,0,81.9Z" fill="#4c78a8"/><path aria-label="mean execution time in µs: 293; algorithm: (wilczek) AVX NoAlign Outer- and Inner-Loop Vectorization" role="graphics-symbol" aria-roledescription="bar" d="M0,1.9L3.255555555555555,1.9C5.052345579741577,1.9,6.51111111111111,3.3587655313695333,6.51111111111111,5.155555555555555L6.51111111111111,14.844444444444443C6.51111111111111,16.641234468630465,5.052345579741577,18.099999999999998,3.255555555555555,18.099999999999998L0,18.099999999999998C0,18.099999999999998,0,18.099999999999998,0,18.099999999999998L0,1.9C0,1.9,0,1.9,0,1.9Z" fill="#4c78a8"/><path aria-label="mean execution time in µs: 7716; algorithm: (chaowang15) convolve1D" role="graphics-symbol" aria-roledescription="bar" d="M0,281.9L167.46666666666667,281.9C169.67432676464267,281.9,171.46666666666667,283.692339902024,171.46666666666667,285.9L171.46666666666667,294.09999999999997C171.46666666666667,296.30766009797594,169.67432676464267,298.09999999999997,167.46666666666667,298.09999999999997L0,298.09999999999997C0,298.09999999999997,0,298.09999999999997,0,298.09999999999997L0,281.9C0,281.9,0,281.9,0,281.9Z" fill="#4c78a8"/></g><g class="mark-text role-mark child_layer_1_marks" role="graphics-object" aria-roledescription="text mark container"><text aria-label="mean execution time in µs: 793; algorithm: (JohT) kernelPerInputValue Transposed; MeanExecutionTime: 793" role="graphics-symbol" aria-roledescription="text mark" text-anchor="start" transform="translate(21.622222222222224,33)" font-family="sans-serif" font-size="9px" fill="black">793</text><text aria-label="mean execution time in µs: 973; algorithm: (JohT) inputPerKernelValue Transposed; MeanExecutionTime: 973" role="graphics-symbol" aria-roledescription="text mark" text-anchor="start" transform="translate(25.622222222222224,73)" font-family="sans-serif" font-size="9px" fill="black">973</text><text aria-label="mean execution time in µs: 2989; algorithm: (JohT) inputPerKernelValue Transposed InnerLoopUnrolled; MeanExecutionTime: 2989" role="graphics-symbol" aria-roledescription="text mark" text-anchor="start" transform="translate(70.42222222222223,193)" font-family="sans-serif" font-size="9px" fill="black">2989</text><text aria-label="mean execution time in µs: 4175; algorithm: (JohT) inputPerKernelValue Transposed OuterLoopUnrolled; MeanExecutionTime: 4175" role="graphics-symbol" aria-roledescription="text mark" text-anchor="start" transform="translate(96.77777777777779,253)" font-family="sans-serif" font-size="9px" fill="black">4175</text><text aria-label="mean execution time in µs: 2985; algorithm: (JohT) inputPerKernelValue Transposed Inner&amp;OuterLoopUnrolled; MeanExecutionTime: 2985" role="graphics-symbol" aria-roledescription="text mark" text-anchor="start" transform="translate(70.33333333333333,173)" font-family="sans-serif" font-size="9px" fill="black">2985</text><text aria-label="mean execution time in µs: 1555; algorithm: (JohT) inputPerKernelValue Transposed LoopFission; MeanExecutionTime: 1555" role="graphics-symbol" aria-roledescription="text mark" text-anchor="start" transform="translate(38.55555555555556,153)" font-family="sans-serif" font-size="9px" fill="black">1555</text><text aria-label="mean execution time in µs: 1398; algorithm: (JohT) inputPerKernelValue Transposed LoopFissionIndexArithmetic; MeanExecutionTime: 1398" role="graphics-symbol" aria-roledescription="text mark" text-anchor="start" transform="translate(35.06666666666666,133)" font-family="sans-serif" font-size="9px" fill="black">1398</text><text aria-label="mean execution time in µs: 1053; algorithm: (JohT) kernelPerInputValue Transposed LoopFission; MeanExecutionTime: 1053" role="graphics-symbol" aria-roledescription="text mark" text-anchor="start" transform="translate(27.400000000000002,113)" font-family="sans-serif" font-size="9px" fill="black">1053</text><text aria-label="mean execution time in µs: 7582; algorithm: (matlab-like) conv 'full' shape; MeanExecutionTime: 7582" role="graphics-symbol" aria-roledescription="text mark" text-anchor="start" transform="translate(172.48888888888888,273)" font-family="sans-serif" font-size="9px" fill="black">7582</text><text aria-label="mean execution time in µs: 7831; algorithm: (matlab-like) conv 'valid' shape pre padded; MeanExecutionTime: 7831" role="graphics-symbol" aria-roledescription="text mark" text-anchor="start" transform="translate(178.0222222222222,313)" font-family="sans-serif" font-size="9px" fill="black">7831</text><text aria-label="mean execution time in µs: 7946; algorithm: (wilczek) Single; MeanExecutionTime: 7946" role="graphics-symbol" aria-roledescription="text mark" text-anchor="start" transform="translate(180.57777777777775,333)" font-family="sans-serif" font-size="9px" fill="black">7946</text><text aria-label="mean execution time in µs: 3044; algorithm: (wilczek) Inner-Loop Vectorization; MeanExecutionTime: 3044" role="graphics-symbol" aria-roledescription="text mark" text-anchor="start" transform="translate(71.64444444444445,213)" font-family="sans-serif" font-size="9px" fill="black">3044</text><text aria-label="mean execution time in µs: 8003; algorithm: (wilczek) Outer-Loop Vectorization; MeanExecutionTime: 8003" role="graphics-symbol" aria-roledescription="text mark" text-anchor="start" transform="translate(181.84444444444446,353)" font-family="sans-serif" font-size="9px" fill="black">8003</text><text aria-label="mean execution time in µs: 3344; algorithm: (wilczek) Outer- and Inner-Loop Vectorization; MeanExecutionTime: 3344" role="graphics-symbol" aria-roledescription="text mark" text-anchor="start" transform="translate(78.3111111111111,233)" font-family="sans-serif" font-size="9px" fill="black">3344</text><text aria-label="mean execution time in µs: 842; algorithm: (wilczek) AVX NoAlign Inner-Loop Vectorization; MeanExecutionTime: 842" role="graphics-symbol" aria-roledescription="text mark" text-anchor="start" transform="translate(22.711111111111112,53)" font-family="sans-serif" font-size="9px" fill="black">842</text><text aria-label="mean execution time in µs: 978; algorithm: (wilczek) AVX NoAlign Outer-Loop Vectorization; MeanExecutionTime: 978" role="graphics-symbol" aria-roledescription="text mark" text-anchor="start" transform="translate(25.73333333333333,93)" font-family="sans-serif" font-size="9px" fill="black">978</text><text aria-label="mean execution time in µs: 293; algorithm: (wilczek) AVX NoAlign Outer- and Inner-Loop Vectorization; MeanExecutionTime: 293" role="graphics-symbol" aria-roledescription="text mark" text-anchor="start" transform="translate(10.51111111111111,13)" font-family="sans-serif" font-size="9px" fill="black">293</text><text aria-label="mean execution time in µs: 7716; algorithm: (chaowang15) convolve1D; MeanExecutionTime: 7716" role="graphics-symbol" aria-roledescription="text mark" text-anchor="start" transform="translate(175.46666666666667,293)" font-family="sans-serif" font-size="9px" fill="black">7716</text></g></g><path class="foreground" aria-hidden="true" d="" display="none"/></g></g></g><path class="foreground" aria-hidden="true" d="" display="none"/></g></g></g></svg>