<svg xmlns="http://www.w3.org/2000/svg" xmlns:xlink="http://www.w3.org/1999/xlink" version="1.1" class="marks" width="1477" height="464" viewBox="0 0 1477 464"><rect width="1477" height="464" fill="white"/><g fill="none" stroke-miterlimit="10" transform="translate(509,66)"><g class="mark-group role-frame root" role="graphics-object" aria-roledescription="group mark container"><g transform="translate(0,0)"><path class="background" aria-hidden="true" d="M0,0h0v0h0Z"/><g><g class="mark-group role-column-title column-title" role="graphics-object" aria-roledescription="group mark container"><g transform="translate(229,-35)"><path class="background" aria-hidden="true" d="M0,0h0v0h0Z"/><g><g class="mark-group role-title"><g transform="translate(0,-26)"><path class="background" aria-hidden="true" d="M0,0h0v0h0Z" pointer-events="none"/><g><g class="mark-text role-title-text" role="graphics-symbol" aria-roledescription="title" aria-label="Title text 'Convolution Benchmarks'" pointer-events="none"><text text-anchor="middle" transform="translate(0,13)" font-family="sans-serif" font-size="16px" font-weight="bold" fill="#000" opacity="1">Convolution Benchmarks</text></g></g><path class="foreground" aria-hidden="true" d="" pointer-events="none" display="none"/></g></g></g><path class="foreground" aria-hidden="true" d="" display="none"/></g></g><g class="mark-group role-column-header column_header" role="graphics-object" aria-roledescription="group mark container"><g transform="translate(0,-1)"><path class="background" aria-hidden="true" d="M0,0h200v0h-200Z"/><g><g class="mark-group role-title"><g transform="translate(100,-24)"><path class="background" aria-hidden="true" d="M0,0h0v0h0Z" pointer-events="none"/><g><g class="mark-text role-title-text" role="graphics-symbol" aria-roledescription="title" aria-label="Title text 'kernel size 16'" pointer-events="none"><text text-anchor="middle" transform="translate(0,11)" font-family="sans-serif" font-size="14px" fill="#000" opacity="1">kernel size 16</text></g></g><path class="foreground" aria-hidden="true" d="" pointer-events="none" display="none"/></g></g></g><path class="foreground" aria-hidden="true" d="" display="none"/></g><g transform="translate(742,-1)"><path class="background" aria-hidden="true" d="M0,0h200v0h-200Z"/><g><g class="mark-group role-title"><g transform="translate(100,-24)"><path class="background" aria-hidden="true" d="M0,0h0v0h0Z" pointer-events="none"/><g><g class="mark-text role-title-text" role="graphics-symbol" aria-roledescription="title" aria-label="Title text 'kernel size 512'" pointer-events="none"><text text-anchor="middle" transform="translate(0,11)" font-family="sans-serif" font-size="14px" fill="#000" opacity="1">kernel size 512</text></g></g><path class="foreground" aria-hidden="true" d="" pointer-events="none" display="none"/></g></g></g><path class="foreground" aria-hidden="true" d="" display="none"/></g></g><g class="mark-group role-scope cell" role="graphics-object" aria-roledescription="group mark container"><g transform="translate(0,0)"><path class="background" aria-hidden="true" d="M0.5,0.5h200v360h-200Z" stroke="#ddd"/><g><g class="mark-group role-axis" aria-hidden="true"><g transform="translate(0.5,360.5)"><path class="background" aria-hidden="true" d="M0,0h0v0h0Z" pointer-events="none"/><g><g class="mark-rule role-axis-grid" pointer-events="none"><line transform="translate(0,0)" x2="0" y2="-360" stroke="#ddd" stroke-width="1" opacity="1"/><line transform="translate(50,0)" x2="0" y2="-360" stroke="#ddd" stroke-width="1" opacity="1"/><line transform="translate(100,0)" x2="0" y2="-360" stroke="#ddd" stroke-width="1" opacity="1"/><line transform="translate(150,0)" x2="0" y2="-360" stroke="#ddd" stroke-width="1" opacity="1"/><line transform="translate(200,0)" x2="0" y2="-360" stroke="#ddd" stroke-width="1" opacity="1"/></g></g><path class="foreground" aria-hidden="true" d="" pointer-events="none" display="none"/></g></g><g class="mark-group role-axis" role="graphics-symbol" aria-roledescription="axis" aria-label="X-axis titled 'mean execution time in µs' for a linear scale with values from 0 to 400"><g transform="translate(0.5,360.5)"><path class="background" aria-hidden="true" d="M0,0h0v0h0Z" pointer-events="none"/><g><g class="mark-rule role-axis-tick" pointer-events="none"><line transform="translate(0,0)" x2="0" y2="5" stroke="#888" stroke-width="1" opacity="1"/><line transform="translate(50,0)" x2="0" y2="5" stroke="#888" stroke-width="1" opacity="1"/><line transform="translate(100,0)" x2="0" y2="5" stroke="#888" stroke-width="1" opacity="1"/><line transform="translate(150,0)" x2="0" y2="5" stroke="#888" stroke-width="1" opacity="1"/><line transform="translate(200,0)" x2="0" y2="5" stroke="#888" stroke-width="1" opacity="1"/></g><g class="mark-text role-axis-label" pointer-events="none"><text text-anchor="start" transform="translate(0,15)" font-family="sans-serif" font-size="10px" fill="#000" opacity="1">0</text><text text-anchor="middle" transform="translate(50,15)" font-family="sans-serif" font-size="10px" fill="#000" opacity="1">100</text><text text-anchor="middle" transform="translate(100,15)" font-family="sans-serif" font-size="10px" fill="#000" opacity="1">200</text><text text-anchor="middle" transform="translate(150,15)" font-family="sans-serif" font-size="10px" fill="#000" opacity="1">300</text><text text-anchor="end" transform="translate(200,15)" font-family="sans-serif" font-size="10px" fill="#000" opacity="1">400</text></g><g class="mark-rule role-axis-domain" pointer-events="none"><line transform="translate(0,0)" x2="200" y2="0" stroke="#888" stroke-width="1" opacity="1"/></g><g class="mark-text role-axis-title" pointer-events="none"><text text-anchor="middle" transform="translate(100,30)" font-family="sans-serif" font-size="11px" font-weight="bold" fill="#000" opacity="1">mean execution time in µs</text></g></g><path class="foreground" aria-hidden="true" d="" pointer-events="none" display="none"/></g></g><g class="mark-group role-axis" role="graphics-symbol" aria-roledescription="axis" aria-label="Y-axis titled 'algorithm' for a discrete scale with 18 values: (wilczek) AVX NoAlign Outer-Loop Vectorization, (JohT) inputPerKernelValue Transposed, (wilczek) AVX NoAlign Inner-Loop Vectorization, (wilczek) AVX NoAlign Outer- and Inner-Loop Vectorization, (JohT) inputPerKernelValue Transposed LoopFission, ending with (JohT) inputPerKernelValue Transposed OuterLoopUnrolled"><g transform="translate(0.5,0.5)"><path class="background" aria-hidden="true" d="M0,0h0v0h0Z" pointer-events="none"/><g><g class="mark-rule role-axis-tick" pointer-events="none"><line transform="translate(0,10)" x2="-5" y2="0" stroke="#888" stroke-width="1" opacity="1"/><line transform="translate(0,30)" x2="-5" y2="0" stroke="#888" stroke-width="1" opacity="1"/><line transform="translate(0,50)" x2="-5" y2="0" stroke="#888" stroke-width="1" opacity="1"/><line transform="translate(0,70)" x2="-5" y2="0" stroke="#888" stroke-width="1" opacity="1"/><line transform="translate(0,90)" x2="-5" y2="0" stroke="#888" stroke-width="1" opacity="1"/><line transform="translate(0,110)" x2="-5" y2="0" stroke="#888" stroke-width="1" opacity="1"/><line transform="translate(0,130)" x2="-5" y2="0" stroke="#888" stroke-width="1" opacity="1"/><line transform="translate(0,150)" x2="-5" y2="0" stroke="#888" stroke-width="1" opacity="1"/><line transform="translate(0,170)" x2="-5" y2="0" stroke="#888" stroke-width="1" opacity="1"/><line transform="translate(0,190)" x2="-5" y2="0" stroke="#888" stroke-width="1" opacity="1"/><line transform="translate(0,210)" x2="-5" y2="0" stroke="#888" stroke-width="1" opacity="1"/><line transform="translate(0,230)" x2="-5" y2="0" stroke="#888" stroke-width="1" opacity="1"/><line transform="translate(0,250)" x2="-5" y2="0" stroke="#888" stroke-width="1" opacity="1"/><line transform="translate(0,270)" x2="-5" y2="0" stroke="#888" stroke-width="1" opacity="1"/><line transform="translate(0,290)" x2="-5" y2="0" stroke="#888" stroke-width="1" opacity="1"/><line transform="translate(0,310)" x2="-5" y2="0" stroke="#888" stroke-width="1" opacity="1"/><line transform="translate(0,330)" x2="-5" y2="0" stroke="#888" stroke-width="1" opacity="1"/><line transform="translate(0,350)" x2="-5" y2="0" stroke="#888" stroke-width="1" opacity="1"/></g><g class="mark-text role-axis-label" pointer-events="none"><text text-anchor="end" transform="translate(-7,12.5)" font-family="sans-serif" font-size="10px" fill="#000" opacity="1">(wilczek) AVX NoAlign Outer-Loop Vectorization</text><text text-anchor="end" transform="translate(-7,32.5)" font-family="sans-serif" font-size="10px" fill="#000" opacity="1">(JohT) inputPerKernelValue Transposed</text><text text-anchor="end" transform="translate(-7,52.5)" font-family="sans-serif" font-size="10px" fill="#000" opacity="1">(wilczek) AVX NoAlign Inner-Loop Vectorization</text><text text-anchor="end" transform="translate(-7,72.5)" font-family="sans-serif" font-size="10px" fill="#000" opacity="1">(wilczek) AVX NoAlign Outer- and Inner-Loop Vectorization</text><text text-anchor="end" transform="translate(-7,92.5)" font-family="sans-serif" font-size="10px" fill="#000" opacity="1">(JohT) inputPerKernelValue Transposed LoopFission</text><text text-anchor="end" transform="translate(-7,112.5)" font-family="sans-serif" font-size="10px" fill="#000" opacity="1">(JohT) inputPerKernelValue Transposed LoopFissionIndexArithme…</text><text text-anchor="end" transform="translate(-7,132.5)" font-family="sans-serif" font-size="10px" fill="#000" opacity="1">(JohT) inputPerKernelValue Transposed Inner&amp;OuterLoopUnrolled</text><text text-anchor="end" transform="translate(-7,152.5)" font-family="sans-serif" font-size="10px" fill="#000" opacity="1">(wilczek) Outer- and Inner-Loop Vectorization</text><text text-anchor="end" transform="translate(-7,172.5)" font-family="sans-serif" font-size="10px" fill="#000" opacity="1">(JohT) inputPerKernelValue Transposed InnerLoopUnrolled</text><text text-anchor="end" transform="translate(-7,192.5)" font-family="sans-serif" font-size="10px" fill="#000" opacity="1">(JohT) kernelPerInputValue Transposed LoopFission</text><text text-anchor="end" transform="translate(-7,212.5)" font-family="sans-serif" font-size="10px" fill="#000" opacity="1">(wilczek) Inner-Loop Vectorization</text><text text-anchor="end" transform="translate(-7,232.5)" font-family="sans-serif" font-size="10px" fill="#000" opacity="1">(JohT) kernelPerInputValue Transposed</text><text text-anchor="end" transform="translate(-7,252.5)" font-family="sans-serif" font-size="10px" fill="#000" opacity="1">(chaowang15) convolve1D</text><text text-anchor="end" transform="translate(-7,272.5)" font-family="sans-serif" font-size="10px" fill="#000" opacity="1">(matlab-like) conv 'valid' shape pre padded</text><text text-anchor="end" transform="translate(-7,292.5)" font-family="sans-serif" font-size="10px" fill="#000" opacity="1">(wilczek) Outer-Loop Vectorization</text><text text-anchor="end" transform="translate(-7,312.5)" font-family="sans-serif" font-size="10px" fill="#000" opacity="1">(matlab-like) conv 'full' shape</text><text text-anchor="end" transform="translate(-7,332.5)" font-family="sans-serif" font-size="10px" fill="#000" opacity="1">(wilczek) Single</text><text text-anchor="end" transform="translate(-7,352.5)" font-family="sans-serif" font-size="10px" fill="#000" opacity="1">(JohT) inputPerKernelValue Transposed OuterLoopUnrolled</text></g><g class="mark-rule role-axis-domain" pointer-events="none"><line transform="translate(0,0)" x2="0" y2="360" stroke="#888" stroke-width="1" opacity="1"/></g><g class="mark-text role-axis-title" pointer-events="none"><text text-anchor="middle" transform="translate(-320,180) rotate(-90) translate(0,-2)" font-family="sans-serif" font-size="11px" font-weight="bold" fill="#000" opacity="1">algorithm</text></g></g><path class="foreground" aria-hidden="true" d="" pointer-events="none" display="none"/></g></g><g class="mark-rect role-mark child_layer_0_marks" role="graphics-object" aria-roledescription="rect mark container"><path aria-label="mean execution time in µs: 181; algorithm: (JohT) kernelPerInputValue Transposed" role="graphics-symbol" aria-roledescription="bar" d="M0,221.9L86.5,221.9C88.707660097976,221.9,90.5,223.692339902024,90.5,225.9L90.5,234.1C90.5,236.307660097976,88.707660097976,238.1,86.5,238.1L0,238.1C0,238.1,0,238.1,0,238.1L0,221.9C0,221.9,0,221.9,0,221.9Z" fill="#4c78a8"/><path aria-label="mean execution time in µs: 79; algorithm: (JohT) inputPerKernelValue Transposed" role="graphics-symbol" aria-roledescription="bar" d="M0,21.9L35.5,21.9C37.707660097976,21.9,39.5,23.692339902024,39.5,25.9L39.5,34.099999999999994C39.5,36.307660097976,37.707660097976,38.099999999999994,35.5,38.099999999999994L0,38.099999999999994C0,38.099999999999994,0,38.099999999999994,0,38.099999999999994L0,21.9C0,21.9,0,21.9,0,21.9Z" fill="#4c78a8"/><path aria-label="mean execution time in µs: 155; algorithm: (JohT) inputPerKernelValue Transposed InnerLoopUnrolled" role="graphics-symbol" aria-roledescription="bar" d="M0,161.9L73.5,161.9C75.707660097976,161.9,77.5,163.692339902024,77.5,165.9L77.5,174.1C77.5,176.307660097976,75.707660097976,178.1,73.5,178.1L0,178.1C0,178.1,0,178.1,0,178.1L0,161.9C0,161.9,0,161.9,0,161.9Z" fill="#4c78a8"/><path aria-label="mean execution time in µs: 383; algorithm: (JohT) inputPerKernelValue Transposed OuterLoopUnrolled" role="graphics-symbol" aria-roledescription="bar" d="M0,341.9L187.5,341.9C189.707660097976,341.9,191.5,343.692339902024,191.5,345.9L191.5,354.09999999999997C191.5,356.30766009797594,189.707660097976,358.09999999999997,187.5,358.09999999999997L0,358.09999999999997C0,358.09999999999997,0,358.09999999999997,0,358.09999999999997L0,341.9C0,341.9,0,341.9,0,341.9Z" fill="#4c78a8"/><path aria-label="mean execution time in µs: 127; algorithm: (JohT) inputPerKernelValue Transposed Inner&amp;OuterLoopUnrolled" role="graphics-symbol" aria-roledescription="bar" d="M0,121.9L59.5,121.9C61.707660097976,121.9,63.5,123.692339902024,63.5,125.9L63.5,134.1C63.5,136.307660097976,61.707660097976,138.1,59.5,138.1L0,138.1C0,138.1,0,138.1,0,138.1L0,121.9C0,121.9,0,121.9,0,121.9Z" fill="#4c78a8"/><path aria-label="mean execution time in µs: 116; algorithm: (JohT) inputPerKernelValue Transposed LoopFission" role="graphics-symbol" aria-roledescription="bar" d="M0,81.9L53.99999999999999,81.9C56.207660097975996,81.9,57.99999999999999,83.692339902024,57.99999999999999,85.9L57.99999999999999,94.10000000000001C57.99999999999999,96.30766009797601,56.207660097975996,98.10000000000001,53.99999999999999,98.10000000000001L0,98.10000000000001C0,98.10000000000001,0,98.10000000000001,0,98.10000000000001L0,81.9C0,81.9,0,81.9,0,81.9Z" fill="#4c78a8"/><path aria-label="mean execution time in µs: 116; algorithm: (JohT) inputPerKernelValue Transposed LoopFissionIndexArithmetic" role="graphics-symbol" aria-roledescription="bar" d="M0,101.9L53.99999999999999,101.9C56.207660097975996,101.9,57.99999999999999,103.692339902024,57.99999999999999,105.9L57.99999999999999,114.10000000000001C57.99999999999999,116.30766009797601,56.207660097975996,118.10000000000001,53.99999999999999,118.10000000000001L0,118.10000000000001C0,118.10000000000001,0,118.10000000000001,0,118.10000000000001L0,101.9C0,101.9,0,101.9,0,101.9Z" fill="#4c78a8"/><path aria-label="mean execution time in µs: 166; algorithm: (JohT) kernelPerInputValue Transposed LoopFission" role="graphics-symbol" aria-roledescription="bar" d="M0,181.9L79,181.9C81.207660097976,181.9,83,183.692339902024,83,185.9L83,194.1C83,196.307660097976,81.207660097976,198.1,79,198.1L0,198.1C0,198.1,0,198.1,0,198.1L0,181.9C0,181.9,0,181.9,0,181.9Z" fill="#4c78a8"/><path aria-label="mean execution time in µs: 270; algorithm: (matlab-like) conv 'full' shape" role="graphics-symbol" aria-roledescription="bar" d="M0,301.9L131,301.9C133.207660097976,301.9,135,303.692339902024,135,305.9L135,314.09999999999997C135,316.30766009797594,133.207660097976,318.09999999999997,131,318.09999999999997L0,318.09999999999997C0,318.09999999999997,0,318.09999999999997,0,318.09999999999997L0,301.9C0,301.9,0,301.9,0,301.9Z" fill="#4c78a8"/><path aria-label="mean execution time in µs: 237; algorithm: (matlab-like) conv 'valid' shape pre padded" role="graphics-symbol" aria-roledescription="bar" d="M0,261.9L114.5,261.9C116.707660097976,261.9,118.5,263.692339902024,118.5,265.9L118.5,274.09999999999997C118.5,276.30766009797594,116.707660097976,278.09999999999997,114.5,278.09999999999997L0,278.09999999999997C0,278.09999999999997,0,278.09999999999997,0,278.09999999999997L0,261.9C0,261.9,0,261.9,0,261.9Z" fill="#4c78a8"/><path aria-label="mean execution time in µs: 299; algorithm: (wilczek) Single" role="graphics-symbol" aria-roledescription="bar" d="M0,321.9L145.5,321.9C147.707660097976,321.9,149.5,323.692339902024,149.5,325.9L149.5,334.09999999999997C149.5,336.30766009797594,147.707660097976,338.09999999999997,145.5,338.09999999999997L0,338.09999999999997C0,338.09999999999997,0,338.09999999999997,0,338.09999999999997L0,321.9C0,321.9,0,321.9,0,321.9Z" fill="#4c78a8"/><path aria-label="mean execution time in µs: 176; algorithm: (wilczek) Inner-Loop Vectorization" role="graphics-symbol" aria-roledescription="bar" d="M0,201.9L84,201.9C86.207660097976,201.9,88,203.692339902024,88,205.9L88,214.1C88,216.307660097976,86.207660097976,218.1,84,218.1L0,218.1C0,218.1,0,218.1,0,218.1L0,201.9C0,201.9,0,201.9,0,201.9Z" fill="#4c78a8"/><path aria-label="mean execution time in µs: 238; algorithm: (wilczek) Outer-Loop Vectorization" role="graphics-symbol" aria-roledescription="bar" d="M0,281.9L115,281.9C117.207660097976,281.9,119,283.692339902024,119,285.9L119,294.09999999999997C119,296.30766009797594,117.207660097976,298.09999999999997,115,298.09999999999997L0,298.09999999999997C0,298.09999999999997,0,298.09999999999997,0,298.09999999999997L0,281.9C0,281.9,0,281.9,0,281.9Z" fill="#4c78a8"/><path aria-label="mean execution time in µs: 151; algorithm: (wilczek) Outer- and Inner-Loop Vectorization" role="graphics-symbol" aria-roledescription="bar" d="M0,141.9L71.5,141.9C73.707660097976,141.9,75.5,143.692339902024,75.5,145.9L75.5,154.1C75.5,156.307660097976,73.707660097976,158.1,71.5,158.1L0,158.1C0,158.1,0,158.1,0,158.1L0,141.9C0,141.9,0,141.9,0,141.9Z" fill="#4c78a8"/><path aria-label="mean execution time in µs: 96; algorithm: (wilczek) AVX NoAlign Inner-Loop Vectorization" role="graphics-symbol" aria-roledescription="bar" d="M0,41.9L44,41.9C46.207660097976,41.9,48,43.692339902023996,48,45.9L48,54.099999999999994C48,56.307660097976,46.207660097976,58.099999999999994,44,58.099999999999994L0,58.099999999999994C0,58.099999999999994,0,58.099999999999994,0,58.099999999999994L0,41.9C0,41.9,0,41.9,0,41.9Z" fill="#4c78a8"/><path aria-label="mean execution time in µs: 47; algorithm: (wilczek) AVX NoAlign Outer-Loop Vectorization" role="graphics-symbol" aria-roledescription="bar" d="M0,1.9L19.5,1.9C21.707660097976,1.9,23.5,3.692339902024,23.5,5.9L23.5,14.099999999999998C23.5,16.307660097975997,21.707660097976,18.099999999999998,19.5,18.099999999999998L0,18.099999999999998C0,18.099999999999998,0,18.099999999999998,0,18.099999999999998L0,1.9C0,1.9,0,1.9,0,1.9Z" fill="#4c78a8"/><path aria-label="mean execution time in µs: 108; algorithm: (wilczek) AVX NoAlign Outer- and Inner-Loop Vectorization" role="graphics-symbol" aria-roledescription="bar" d="M0,61.9L50,61.9C52.207660097976,61.9,54,63.692339902023996,54,65.9L54,74.1C54,76.307660097976,52.207660097976,78.1,50,78.1L0,78.1C0,78.1,0,78.1,0,78.1L0,61.9C0,61.9,0,61.9,0,61.9Z" fill="#4c78a8"/><path aria-label="mean execution time in µs: 236; algorithm: (chaowang15) convolve1D" role="graphics-symbol" aria-roledescription="bar" d="M0,241.9L114,241.9C116.207660097976,241.9,118,243.692339902024,118,245.9L118,254.10000000000002C118,256.307660097976,116.207660097976,258.1,114,258.1L0,258.1C0,258.1,0,258.1,0,258.1L0,241.9C0,241.9,0,241.9,0,241.9Z" fill="#4c78a8"/></g><g class="mark-text role-mark child_layer_1_marks" role="graphics-object" aria-roledescription="text mark container"><text aria-label="mean execution time in µs: 181; algorithm: (JohT) kernelPerInputValue Transposed; MeanExecutionTime: 181" role="graphics-symbol" aria-roledescription="text mark" text-anchor="start" transform="translate(94.5,233)" font-family="sans-serif" font-size="9px" fill="black">181</text><text aria-label="mean execution time in µs: 79; algorithm: (JohT) inputPerKernelValue Transposed; MeanExecutionTime: 79" role="graphics-symbol" aria-roledescription="text mark" text-anchor="start" transform="translate(43.5,33)" font-family="sans-serif" font-size="9px" fill="black">79</text><text aria-label="mean execution time in µs: 155; algorithm: (JohT) inputPerKernelValue Transposed InnerLoopUnrolled; MeanExecutionTime: 155" role="graphics-symbol" aria-roledescription="text mark" text-anchor="start" transform="translate(81.5,173)" font-family="sans-serif" font-size="9px" fill="black">155</text><text aria-label="mean execution time in µs: 383; algorithm: (JohT) inputPerKernelValue Transposed OuterLoopUnrolled; MeanExecutionTime: 383" role="graphics-symbol" aria-roledescription="text mark" text-anchor="start" transform="translate(195.5,353)" font-family="sans-serif" font-size="9px" fill="black">383</text><text aria-label="mean execution time in µs: 127; algorithm: (JohT) inputPerKernelValue Transposed Inner&amp;OuterLoopUnrolled; MeanExecutionTime: 127" role="graphics-symbol" aria-roledescription="text mark" text-anchor="start" transform="translate(67.5,133)" font-family="sans-serif" font-size="9px" fill="black">127</text><text aria-label="mean execution time in µs: 116; algorithm: (JohT) inputPerKernelValue Transposed LoopFission; MeanExecutionTime: 116" role="graphics-symbol" aria-roledescription="text mark" text-anchor="start" transform="translate(61.99999999999999,93)" font-family="sans-serif" font-size="9px" fill="black">116</text><text aria-label="mean execution time in µs: 116; algorithm: (JohT) inputPerKernelValue Transposed LoopFissionIndexArithmetic; MeanExecutionTime: 116" role="graphics-symbol" aria-roledescription="text mark" text-anchor="start" transform="translate(61.99999999999999,113)" font-family="sans-serif" font-size="9px" fill="black">116</text><text aria-label="mean execution time in µs: 166; algorithm: (JohT) kernelPerInputValue Transposed LoopFission; MeanExecutionTime: 166" role="graphics-symbol" aria-roledescription="text mark" text-anchor="start" transform="translate(87,193)" font-family="sans-serif" font-size="9px" fill="black">166</text><text aria-label="mean execution time in µs: 270; algorithm: (matlab-like) conv 'full' shape; MeanExecutionTime: 270" role="graphics-symbol" aria-roledescription="text mark" text-anchor="start" transform="translate(139,313)" font-family="sans-serif" font-size="9px" fill="black">270</text><text aria-label="mean execution time in µs: 237; algorithm: (matlab-like) conv 'valid' shape pre padded; MeanExecutionTime: 237" role="graphics-symbol" aria-roledescription="text mark" text-anchor="start" transform="translate(122.5,273)" font-family="sans-serif" font-size="9px" fill="black">237</text><text aria-label="mean execution time in µs: 299; algorithm: (wilczek) Single; MeanExecutionTime: 299" role="graphics-symbol" aria-roledescription="text mark" text-anchor="start" transform="translate(153.5,333)" font-family="sans-serif" font-size="9px" fill="black">299</text><text aria-label="mean execution time in µs: 176; algorithm: (wilczek) Inner-Loop Vectorization; MeanExecutionTime: 176" role="graphics-symbol" aria-roledescription="text mark" text-anchor="start" transform="translate(92,213)" font-family="sans-serif" font-size="9px" fill="black">176</text><text aria-label="mean execution time in µs: 238; algorithm: (wilczek) Outer-Loop Vectorization; MeanExecutionTime: 238" role="graphics-symbol" aria-roledescription="text mark" text-anchor="start" transform="translate(123,293)" font-family="sans-serif" font-size="9px" fill="black">238</text><text aria-label="mean execution time in µs: 151; algorithm: (wilczek) Outer- and Inner-Loop Vectorization; MeanExecutionTime: 151" role="graphics-symbol" aria-roledescription="text mark" text-anchor="start" transform="translate(79.5,153)" font-family="sans-serif" font-size="9px" fill="black">151</text><text aria-label="mean execution time in µs: 96; algorithm: (wilczek) AVX NoAlign Inner-Loop Vectorization; MeanExecutionTime: 96" role="graphics-symbol" aria-roledescription="text mark" text-anchor="start" transform="translate(52,53)" font-family="sans-serif" font-size="9px" fill="black">96</text><text aria-label="mean execution time in µs: 47; algorithm: (wilczek) AVX NoAlign Outer-Loop Vectorization; MeanExecutionTime: 47" role="graphics-symbol" aria-roledescription="text mark" text-anchor="start" transform="translate(27.5,13)" font-family="sans-serif" font-size="9px" fill="black">47</text><text aria-label="mean execution time in µs: 108; algorithm: (wilczek) AVX NoAlign Outer- and Inner-Loop Vectorization; MeanExecutionTime: 108" role="graphics-symbol" aria-roledescription="text mark" text-anchor="start" transform="translate(58,73)" font-family="sans-serif" font-size="9px" fill="black">108</text><text aria-label="mean execution time in µs: 236; algorithm: (chaowang15) convolve1D; MeanExecutionTime: 236" role="graphics-symbol" aria-roledescription="text mark" text-anchor="start" transform="translate(122,253)" font-family="sans-serif" font-size="9px" fill="black">236</text></g></g><path class="foreground" aria-hidden="true" d="" display="none"/></g><g transform="translate(742,0)"><path class="background" aria-hidden="true" d="M0.5,0.5h200v360h-200Z" stroke="#ddd"/><g><g class="mark-group role-axis" aria-hidden="true"><g transform="translate(0.5,360.5)"><path class="background" aria-hidden="true" d="M0,0h0v0h0Z" pointer-events="none"/><g><g class="mark-rule role-axis-grid" pointer-events="none"><line transform="translate(0,0)" x2="0" y2="-360" stroke="#ddd" stroke-width="1" opacity="1"/><line transform="translate(56,0)" x2="0" y2="-360" stroke="#ddd" stroke-width="1" opacity="1"/><line transform="translate(111,0)" x2="0" y2="-360" stroke="#ddd" stroke-width="1" opacity="1"/><line transform="translate(167,0)" x2="0" y2="-360" stroke="#ddd" stroke-width="1" opacity="1"/></g></g><path class="foreground" aria-hidden="true" d="" pointer-events="none" display="none"/></g></g><g class="mark-group role-axis" role="graphics-symbol" aria-roledescription="axis" aria-label="X-axis titled 'mean execution time in µs' for a linear scale with values from 0 to 18,000"><g transform="translate(0.5,360.5)"><path class="background" aria-hidden="true" d="M0,0h0v0h0Z" pointer-events="none"/><g><g class="mark-rule role-axis-tick" pointer-events="none"><line transform="translate(0,0)" x2="0" y2="5" stroke="#888" stroke-width="1" opacity="1"/><line transform="translate(56,0)" x2="0" y2="5" stroke="#888" stroke-width="1" opacity="1"/><line transform="translate(111,0)" x2="0" y2="5" stroke="#888" stroke-width="1" opacity="1"/><line transform="translate(167,0)" x2="0" y2="5" stroke="#888" stroke-width="1" opacity="1"/></g><g class="mark-text role-axis-label" pointer-events="none"><text text-anchor="start" transform="translate(0,15)" font-family="sans-serif" font-size="10px" fill="#000" opacity="1">0</text><text text-anchor="middle" transform="translate(55.55555555555556,15)" font-family="sans-serif" font-size="10px" fill="#000" opacity="1">5,000</text><text text-anchor="middle" transform="translate(111.11111111111111,15)" font-family="sans-serif" font-size="10px" fill="#000" opacity="1">10,000</text><text text-anchor="middle" transform="translate(166.66666666666669,15)" font-family="sans-serif" font-size="10px" fill="#000" opacity="1">15,000</text></g><g class="mark-rule role-axis-domain" pointer-events="none"><line transform="translate(0,0)" x2="200" y2="0" stroke="#888" stroke-width="1" opacity="1"/></g><g class="mark-text role-axis-title" pointer-events="none"><text text-anchor="middle" transform="translate(100,30)" font-family="sans-serif" font-size="11px" font-weight="bold" fill="#000" opacity="1">mean execution time in µs</text></g></g><path class="foreground" aria-hidden="true" d="" pointer-events="none" display="none"/></g></g><g class="mark-group role-axis" role="graphics-symbol" aria-roledescription="axis" aria-label="Y-axis titled 'algorithm' for a discrete scale with 18 values: (wilczek) AVX NoAlign Outer- and Inner-Loop Vectorization, (JohT) kernelPerInputValue Transposed, (wilczek) AVX NoAlign Inner-Loop Vectorization, (JohT) inputPerKernelValue Transposed, (wilczek) AVX NoAlign Outer-Loop Vectorization, ending with (matlab-like) conv 'valid' shape pre padded"><g transform="translate(0.5,0.5)"><path class="background" aria-hidden="true" d="M0,0h0v0h0Z" pointer-events="none"/><g><g class="mark-rule role-axis-tick" pointer-events="none"><line transform="translate(0,10)" x2="-5" y2="0" stroke="#888" stroke-width="1" opacity="1"/><line transform="translate(0,30)" x2="-5" y2="0" stroke="#888" stroke-width="1" opacity="1"/><line transform="translate(0,50)" x2="-5" y2="0" stroke="#888" stroke-width="1" opacity="1"/><line transform="translate(0,70)" x2="-5" y2="0" stroke="#888" stroke-width="1" opacity="1"/><line transform="translate(0,90)" x2="-5" y2="0" stroke="#888" stroke-width="1" opacity="1"/><line transform="translate(0,110)" x2="-5" y2="0" stroke="#888" stroke-width="1" opacity="1"/><line transform="translate(0,130)" x2="-5" y2="0" stroke="#888" stroke-width="1" opacity="1"/><line transform="translate(0,150)" x2="-5" y2="0" stroke="#888" stroke-width="1" opacity="1"/><line transform="translate(0,170)" x2="-5" y2="0" stroke="#888" stroke-width="1" opacity="1"/><line transform="translate(0,190)" x2="-5" y2="0" stroke="#888" stroke-width="1" opacity="1"/><line transform="translate(0,210)" x2="-5" y2="0" stroke="#888" stroke-width="1" opacity="1"/><line transform="translate(0,230)" x2="-5" y2="0" stroke="#888" stroke-width="1" opacity="1"/><line transform="translate(0,250)" x2="-5" y2="0" stroke="#888" stroke-width="1" opacity="1"/><line transform="translate(0,270)" x2="-5" y2="0" stroke="#888" stroke-width="1" opacity="1"/><line transform="translate(0,290)" x2="-5" y2="0" stroke="#888" stroke-width="1" opacity="1"/><line transform="translate(0,310)" x2="-5" y2="0" stroke="#888" stroke-width="1" opacity="1"/><line transform="translate(0,330)" x2="-5" y2="0" stroke="#888" stroke-width="1" opacity="1"/><line transform="translate(0,350)" x2="-5" y2="0" stroke="#888" stroke-width="1" opacity="1"/></g><g class="mark-text role-axis-label" pointer-events="none"><text text-anchor="end" transform="translate(-7,12.5)" font-family="sans-serif" font-size="10px" fill="#000" opacity="1">(wilczek) AVX NoAlign Outer- and Inner-Loop Vectorization</text><text text-anchor="end" transform="translate(-7,32.5)" font-family="sans-serif" font-size="10px" fill="#000" opacity="1">(JohT) kernelPerInputValue Transposed</text><text text-anchor="end" transform="translate(-7,52.5)" font-family="sans-serif" font-size="10px" fill="#000" opacity="1">(wilczek) AVX NoAlign Inner-Loop Vectorization</text><text text-anchor="end" transform="translate(-7,72.5)" font-family="sans-serif" font-size="10px" fill="#000" opacity="1">(JohT) inputPerKernelValue Transposed</text><text text-anchor="end" transform="translate(-7,92.5)" font-family="sans-serif" font-size="10px" fill="#000" opacity="1">(wilczek) AVX NoAlign Outer-Loop Vectorization</text><text text-anchor="end" transform="translate(-7,112.5)" font-family="sans-serif" font-size="10px" fill="#000" opacity="1">(JohT) kernelPerInputValue Transposed LoopFission</text><text text-anchor="end" transform="translate(-7,132.5)" font-family="sans-serif" font-size="10px" fill="#000" opacity="1">(JohT) inputPerKernelValue Transposed Inner&amp;OuterLoopUnrolled</text><text text-anchor="end" transform="translate(-7,152.5)" font-family="sans-serif" font-size="10px" fill="#000" opacity="1">(JohT) inputPerKernelValue Transposed LoopFission</text><text text-anchor="end" transform="translate(-7,172.5)" font-family="sans-serif" font-size="10px" fill="#000" opacity="1">(JohT) inputPerKernelValue Transposed LoopFissionIndexArithme…</text><text text-anchor="end" transform="translate(-7,192.5)" font-family="sans-serif" font-size="10px" fill="#000" opacity="1">(JohT) inputPerKernelValue Transposed InnerLoopUnrolled</text><text text-anchor="end" transform="translate(-7,212.5)" font-family="sans-serif" font-size="10px" fill="#000" opacity="1">(wilczek) Outer- and Inner-Loop Vectorization</text><text text-anchor="end" transform="translate(-7,232.5)" font-family="sans-serif" font-size="10px" fill="#000" opacity="1">(wilczek) Inner-Loop Vectorization</text><text text-anchor="end" transform="translate(-7,252.5)" font-family="sans-serif" font-size="10px" fill="#000" opacity="1">(wilczek) Outer-Loop Vectorization</text><text text-anchor="end" transform="translate(-7,272.5)" font-family="sans-serif" font-size="10px" fill="#000" opacity="1">(JohT) inputPerKernelValue Transposed OuterLoopUnrolled</text><text text-anchor="end" transform="translate(-7,292.5)" font-family="sans-serif" font-size="10px" fill="#000" opacity="1">(matlab-like) conv 'full' shape</text><text text-anchor="end" transform="translate(-7,312.5)" font-family="sans-serif" font-size="10px" fill="#000" opacity="1">(chaowang15) convolve1D</text><text text-anchor="end" transform="translate(-7,332.5)" font-family="sans-serif" font-size="10px" fill="#000" opacity="1">(wilczek) Single</text><text text-anchor="end" transform="translate(-7,352.5)" font-family="sans-serif" font-size="10px" fill="#000" opacity="1">(matlab-like) conv 'valid' shape pre padded</text></g><g class="mark-rule role-axis-domain" pointer-events="none"><line transform="translate(0,0)" x2="0" y2="360" stroke="#888" stroke-width="1" opacity="1"/></g><g class="mark-text role-axis-title" pointer-events="none"><text text-anchor="middle" transform="translate(-320,180) rotate(-90) translate(0,-2)" font-family="sans-serif" font-size="11px" font-weight="bold" fill="#000" opacity="1">algorithm</text></g></g><path class="foreground" aria-hidden="true" d="" pointer-events="none" display="none"/></g></g><g class="mark-rect role-mark child_layer_0_marks" role="graphics-object" aria-roledescription="rect mark container"><path aria-label="mean execution time in µs: 1508; algorithm: (JohT) kernelPerInputValue Transposed" role="graphics-symbol" aria-roledescription="bar" d="M0,21.9L12.755555555555556,21.9C14.963215653531556,21.9,16.755555555555556,23.692339902024,16.755555555555556,25.9L16.755555555555556,34.099999999999994C16.755555555555556,36.307660097976,14.963215653531556,38.099999999999994,12.755555555555556,38.099999999999994L0,38.099999999999994C0,38.099999999999994,0,38.099999999999994,0,38.099999999999994L0,21.9C0,21.9,0,21.9,0,21.9Z" fill="#4c78a8"/><path aria-label="mean execution time in µs: 2024; algorithm: (JohT) inputPerKernelValue Transposed" role="graphics-symbol" aria-roledescription="bar" d="M0,61.9L18.488888888888887,61.9C20.696548986864887,61.9,22.488888888888887,63.692339902023996,22.488888888888887,65.9L22.488888888888887,74.1C22.488888888888887,76.307660097976,20.696548986864887,78.1,18.488888888888887,78.1L0,78.1C0,78.1,0,78.1,0,78.1L0,61.9C0,61.9,0,61.9,0,61.9Z" fill="#4c78a8"/><path aria-label="mean execution time in µs: 3730; algorithm: (JohT) inputPerKernelValue Transposed InnerLoopUnrolled" role="graphics-symbol" aria-roledescription="bar" d="M0,181.9L37.44444444444444,181.9C39.652104542420446,181.9,41.44444444444444,183.692339902024,41.44444444444444,185.9L41.44444444444444,194.1C41.44444444444444,196.307660097976,39.652104542420446,198.1,37.44444444444444,198.1L0,198.1C0,198.1,0,198.1,0,198.1L0,181.9C0,181.9,0,181.9,0,181.9Z" fill="#4c78a8"/><path aria-label="mean execution time in µs: 12197; algorithm: (JohT) inputPerKernelValue Transposed OuterLoopUnrolled" role="graphics-symbol" aria-roledescription="bar" d="M0,261.9L131.52222222222224,261.9C133.72988232019824,261.9,135.52222222222224,263.692339902024,135.52222222222224,265.9L135.52222222222224,274.09999999999997C135.52222222222224,276.30766009797594,133.72988232019824,278.09999999999997,131.52222222222224,278.09999999999997L0,278.09999999999997C0,278.09999999999997,0,278.09999999999997,0,278.09999999999997L0,261.9C0,261.9,0,261.9,0,261.9Z" fill="#4c78a8"/><path aria-label="mean execution time in µs: 3519; algorithm: (JohT) inputPerKernelValue Transposed Inner&amp;OuterLoopUnrolled" role="graphics-symbol" aria-roledescription="bar" d="M0,121.9L35.1,121.9C37.307660097976004,121.9,39.1,123.692339902024,39.1,125.9L39.1,134.1C39.1,136.307660097976,37.307660097976004,138.1,35.1,138.1L0,138.1C0,138.1,0,138.1,0,138.1L0,121.9C0,121.9,0,121.9,0,121.9Z" fill="#4c78a8"/><path aria-label="mean execution time in µs: 3577; algorithm: (JohT) inputPerKernelValue Transposed LoopFission" role="graphics-symbol" aria-roledescription="bar" d="M0,141.9L35.74444444444444,141.9C37.95210454242044,141.9,39.74444444444444,143.692339902024,39.74444444444444,145.9L39.74444444444444,154.1C39.74444444444444,156.307660097976,37.95210454242044,158.1,35.74444444444444,158.1L0,158.1C0,158.1,0,158.1,0,158.1L0,141.9C0,141.9,0,141.9,0,141.9Z" fill="#4c78a8"/><path aria-label="mean execution time in µs: 3614; algorithm: (JohT) inputPerKernelValue Transposed LoopFissionIndexArithmetic" role="graphics-symbol" aria-roledescription="bar" d="M0,161.9L36.15555555555556,161.9C38.36321565353156,161.9,40.15555555555556,163.692339902024,40.15555555555556,165.9L40.15555555555556,174.1C40.15555555555556,176.307660097976,38.36321565353156,178.1,36.15555555555556,178.1L0,178.1C0,178.1,0,178.1,0,178.1L0,161.9C0,161.9,0,161.9,0,161.9Z" fill="#4c78a8"/><path aria-label="mean execution time in µs: 2684; algorithm: (JohT) kernelPerInputValue Transposed LoopFission" role="graphics-symbol" aria-roledescription="bar" d="M0,101.9L25.822222222222223,101.9C28.029882320198222,101.9,29.822222222222223,103.692339902024,29.822222222222223,105.9L29.822222222222223,114.10000000000001C29.822222222222223,116.30766009797601,28.029882320198222,118.10000000000001,25.822222222222223,118.10000000000001L0,118.10000000000001C0,118.10000000000001,0,118.10000000000001,0,118.10000000000001L0,101.9C0,101.9,0,101.9,0,101.9Z" fill="#4c78a8"/><path aria-label="mean execution time in µs: 14986; algorithm: (matlab-like) conv 'full' shape" role="graphics-symbol" aria-roledescription="bar" d="M0,281.9L162.51111111111112,281.9C164.71877120908712,281.9,166.51111111111112,283.692339902024,166.51111111111112,285.9L166.51111111111112,294.09999999999997C166.51111111111112,296.30766009797594,164.71877120908712,298.09999999999997,162.51111111111112,298.09999999999997L0,298.09999999999997C0,298.09999999999997,0,298.09999999999997,0,298.09999999999997L0,281.9C0,281.9,0,281.9,0,281.9Z" fill="#4c78a8"/><path aria-label="mean execution time in µs: 16113; algorithm: (matlab-like) conv 'valid' shape pre padded" role="graphics-symbol" aria-roledescription="bar" d="M0,341.9L175.03333333333333,341.9C177.24099343130933,341.9,179.03333333333333,343.692339902024,179.03333333333333,345.9L179.03333333333333,354.09999999999997C179.03333333333333,356.30766009797594,177.24099343130933,358.09999999999997,175.03333333333333,358.09999999999997L0,358.09999999999997C0,358.09999999999997,0,358.09999999999997,0,358.09999999999997L0,341.9C0,341.9,0,341.9,0,341.9Z" fill="#4c78a8"/><path aria-label="mean execution time in µs: 15828; algorithm: (wilczek) Single" role="graphics-symbol" aria-roledescription="bar" d="M0,321.9L171.86666666666667,321.9C174.07432676464268,321.9,175.86666666666667,323.692339902024,175.86666666666667,325.9L175.86666666666667,334.09999999999997C175.86666666666667,336.30766009797594,174.07432676464268,338.09999999999997,171.86666666666667,338.09999999999997L0,338.09999999999997C0,338.09999999999997,0,338.09999999999997,0,338.09999999999997L0,321.9C0,321.9,0,321.9,0,321.9Z" fill="#4c78a8"/><path aria-label="mean execution time in µs: 5802; algorithm: (wilczek) Inner-Loop Vectorization" role="graphics-symbol" aria-roledescription="bar" d="M0,221.9L60.46666666666667,221.9C62.67432676464267,221.9,64.46666666666667,223.692339902024,64.46666666666667,225.9L64.46666666666667,234.1C64.46666666666667,236.307660097976,62.67432676464267,238.1,60.46666666666667,238.1L0,238.1C0,238.1,0,238.1,0,238.1L0,221.9C0,221.9,0,221.9,0,221.9Z" fill="#4c78a8"/><path aria-label="mean execution time in µs: 8883; algorithm: (wilczek) Outer-Loop Vectorization" role="graphics-symbol" aria-roledescription="bar" d="M0,241.9L94.7,241.9C96.907660097976,241.9,98.7,243.692339902024,98.7,245.9L98.7,254.10000000000002C98.7,256.307660097976,96.907660097976,258.1,94.7,258.1L0,258.1C0,258.1,0,258.1,0,258.1L0,241.9C0,241.9,0,241.9,0,241.9Z" fill="#4c78a8"/><path aria-label="mean execution time in µs: 4497; algorithm: (wilczek) Outer- and Inner-Loop Vectorization" role="graphics-symbol" aria-roledescription="bar" d="M0,201.9L45.96666666666666,201.9C48.174326764642665,201.9,49.96666666666666,203.692339902024,49.96666666666666,205.9L49.96666666666666,214.1C49.96666666666666,216.307660097976,48.174326764642665,218.1,45.96666666666666,218.1L0,218.1C0,218.1,0,218.1,0,218.1L0,201.9C0,201.9,0,201.9,0,201.9Z" fill="#4c78a8"/><path aria-label="mean execution time in µs: 2005; algorithm: (wilczek) AVX NoAlign Inner-Loop Vectorization" role="graphics-symbol" aria-roledescription="bar" d="M0,41.9L18.27777777777778,41.9C20.485437875753778,41.9,22.27777777777778,43.692339902023996,22.27777777777778,45.9L22.27777777777778,54.099999999999994C22.27777777777778,56.307660097976,20.485437875753778,58.099999999999994,18.27777777777778,58.099999999999994L0,58.099999999999994C0,58.099999999999994,0,58.099999999999994,0,58.099999999999994L0,41.9C0,41.9,0,41.9,0,41.9Z" fill="#4c78a8"/><path aria-label="mean execution time in µs: 2080; algorithm: (wilczek) AVX NoAlign Outer-Loop Vectorization" role="graphics-symbol" aria-roledescription="bar" d="M0,81.9L19.11111111111111,81.9C21.31877120908711,81.9,23.11111111111111,83.692339902024,23.11111111111111,85.9L23.11111111111111,94.10000000000001C23.11111111111111,96.30766009797601,21.31877120908711,98.10000000000001,19.11111111111111,98.10000000000001L0,98.10000000000001C0,98.10000000000001,0,98.10000000000001,0,98.10000000000001L0,81.9C0,81.9,0,81.9,0,81.9Z" fill="#4c78a8"/><path aria-label="mean execution time in µs: 753; algorithm: (wilczek) AVX NoAlign Outer- and Inner-Loop Vectorization" role="graphics-symbol" aria-roledescription="bar" d="M0,1.9L4.366666666666667,1.9C6.574326764642667,1.9,8.366666666666667,3.692339902024,8.366666666666667,5.9L8.366666666666667,14.099999999999998C8.366666666666667,16.307660097975997,6.574326764642667,18.099999999999998,4.366666666666667,18.099999999999998L0,18.099999999999998C0,18.099999999999998,0,18.099999999999998,0,18.099999999999998L0,1.9C0,1.9,0,1.9,0,1.9Z" fill="#4c78a8"/><path aria-label="mean execution time in µs: 15537; algorithm: (chaowang15) convolve1D" role="graphics-symbol" aria-roledescription="bar" d="M0,301.9L168.63333333333333,301.9C170.84099343130933,301.9,172.63333333333333,303.692339902024,172.63333333333333,305.9L172.63333333333333,314.09999999999997C172.63333333333333,316.30766009797594,170.84099343130933,318.09999999999997,168.63333333333333,318.09999999999997L0,318.09999999999997C0,318.09999999999997,0,318.09999999999997,0,318.09999999999997L0,301.9C0,301.9,0,301.9,0,301.9Z" fill="#4c78a8"/></g><g class="mark-text role-mark child_layer_1_marks" role="graphics-object" aria-roledescription="text mark container"><text aria-label="mean execution time in µs: 1508; algorithm: (JohT) kernelPerInputValue Transposed; MeanExecutionTime: 1508" role="graphics-symbol" aria-roledescription="text mark" text-anchor="start" transform="translate(20.755555555555556,33)" font-family="sans-serif" font-size="9px" fill="black">1508</text><text aria-label="mean execution time in µs: 2024; algorithm: (JohT) inputPerKernelValue Transposed; MeanExecutionTime: 2024" role="graphics-symbol" aria-roledescription="text mark" text-anchor="start" transform="translate(26.488888888888887,73)" font-family="sans-serif" font-size="9px" fill="black">2024</text><text aria-label="mean execution time in µs: 3730; algorithm: (JohT) inputPerKernelValue Transposed InnerLoopUnrolled; MeanExecutionTime: 3730" role="graphics-symbol" aria-roledescription="text mark" text-anchor="start" transform="translate(45.44444444444444,193)" font-family="sans-serif" font-size="9px" fill="black">3730</text><text aria-label="mean execution time in µs: 12197; algorithm: (JohT) inputPerKernelValue Transposed OuterLoopUnrolled; MeanExecutionTime: 12197" role="graphics-symbol" aria-roledescription="text mark" text-anchor="start" transform="translate(139.52222222222224,273)" font-family="sans-serif" font-size="9px" fill="black">12197</text><text aria-label="mean execution time in µs: 3519; algorithm: (JohT) inputPerKernelValue Transposed Inner&amp;OuterLoopUnrolled; MeanExecutionTime: 3519" role="graphics-symbol" aria-roledescription="text mark" text-anchor="start" transform="translate(43.1,133)" font-family="sans-serif" font-size="9px" fill="black">3519</text><text aria-label="mean execution time in µs: 3577; algorithm: (JohT) inputPerKernelValue Transposed LoopFission; MeanExecutionTime: 3577" role="graphics-symbol" aria-roledescription="text mark" text-anchor="start" transform="translate(43.74444444444444,153)" font-family="sans-serif" font-size="9px" fill="black">3577</text><text aria-label="mean execution time in µs: 3614; algorithm: (JohT) inputPerKernelValue Transposed LoopFissionIndexArithmetic; MeanExecutionTime: 3614" role="graphics-symbol" aria-roledescription="text mark" text-anchor="start" transform="translate(44.15555555555556,173)" font-family="sans-serif" font-size="9px" fill="black">3614</text><text aria-label="mean execution time in µs: 2684; algorithm: (JohT) kernelPerInputValue Transposed LoopFission; MeanExecutionTime: 2684" role="graphics-symbol" aria-roledescription="text mark" text-anchor="start" transform="translate(33.82222222222222,113)" font-family="sans-serif" font-size="9px" fill="black">2684</text><text aria-label="mean execution time in µs: 14986; algorithm: (matlab-like) conv 'full' shape; MeanExecutionTime: 14986" role="graphics-symbol" aria-roledescription="text mark" text-anchor="start" transform="translate(170.51111111111112,293)" font-family="sans-serif" font-size="9px" fill="black">14986</text><text aria-label="mean execution time in µs: 16113; algorithm: (matlab-like) conv 'valid' shape pre padded; MeanExecutionTime: 16113" role="graphics-symbol" aria-roledescription="text mark" text-anchor="start" transform="translate(183.03333333333333,353)" font-family="sans-serif" font-size="9px" fill="black">16113</text><text aria-label="mean execution time in µs: 15828; algorithm: (wilczek) Single; MeanExecutionTime: 15828" role="graphics-symbol" aria-roledescription="text mark" text-anchor="start" transform="translate(179.86666666666667,333)" font-family="sans-serif" font-size="9px" fill="black">15828</text><text aria-label="mean execution time in µs: 5802; algorithm: (wilczek) Inner-Loop Vectorization; MeanExecutionTime: 5802" role="graphics-symbol" aria-roledescription="text mark" text-anchor="start" transform="translate(68.46666666666667,233)" font-family="sans-serif" font-size="9px" fill="black">5802</text><text aria-label="mean execution time in µs: 8883; algorithm: (wilczek) Outer-Loop Vectorization; MeanExecutionTime: 8883" role="graphics-symbol" aria-roledescription="text mark" text-anchor="start" transform="translate(102.7,253)" font-family="sans-serif" font-size="9px" fill="black">8883</text><text aria-label="mean execution time in µs: 4497; algorithm: (wilczek) Outer- and Inner-Loop Vectorization; MeanExecutionTime: 4497" role="graphics-symbol" aria-roledescription="text mark" text-anchor="start" transform="translate(53.96666666666666,213)" font-family="sans-serif" font-size="9px" fill="black">4497</text><text aria-label="mean execution time in µs: 2005; algorithm: (wilczek) AVX NoAlign Inner-Loop Vectorization; MeanExecutionTime: 2005" role="graphics-symbol" aria-roledescription="text mark" text-anchor="start" transform="translate(26.27777777777778,53)" font-family="sans-serif" font-size="9px" fill="black">2005</text><text aria-label="mean execution time in µs: 2080; algorithm: (wilczek) AVX NoAlign Outer-Loop Vectorization; MeanExecutionTime: 2080" role="graphics-symbol" aria-roledescription="text mark" text-anchor="start" transform="translate(27.11111111111111,93)" font-family="sans-serif" font-size="9px" fill="black">2080</text><text aria-label="mean execution time in µs: 753; algorithm: (wilczek) AVX NoAlign Outer- and Inner-Loop Vectorization; MeanExecutionTime: 753" role="graphics-symbol" aria-roledescription="text mark" text-anchor="start" transform="translate(12.366666666666667,13)" font-family="sans-serif" font-size="9px" fill="black">753</text><text aria-label="mean execution time in µs: 15537; algorithm: (chaowang15) convolve1D; MeanExecutionTime: 15537" role="graphics-symbol" aria-roledescription="text mark" text-anchor="start" transform="translate(176.63333333333333,313)" font-family="sans-serif" font-size="9px" fill="black">15537</text></g></g><path class="foreground" aria-hidden="true" d="" display="none"/></g></g></g><path class="foreground" aria-hidden="true" d="" display="none"/></g></g></g></svg>