<svg xmlns="http://www.w3.org/2000/svg" xmlns:xlink="http://www.w3.org/1999/xlink" version="1.1" class="marks" width="1472" height="464" viewBox="0 0 1472 464"><rect width="1472" height="464" fill="white"/><g fill="none" stroke-miterlimit="10" transform="translate(509,66)"><g class="mark-group role-frame root" role="graphics-object" aria-roledescription="group mark container"><g transform="translate(0,0)"><path class="background" aria-hidden="true" d="M0,0h0v0h0Z"/><g><g class="mark-group role-column-title column-title" role="graphics-object" aria-roledescription="group mark container"><g transform="translate(227,-35)"><path class="background" aria-hidden="true" d="M0,0h0v0h0Z"/><g><g class="mark-group role-title"><g transform="translate(0,-26)"><path class="background" aria-hidden="true" d="M0,0h0v0h0Z" pointer-events="none"/><g><g class="mark-text role-title-text" role="graphics-symbol" aria-roledescription="title" aria-label="Title text 'Convolution Benchmarks'" pointer-events="none"><text text-anchor="middle" transform="translate(0,13)" font-family="sans-serif" font-size="16px" font-weight="bold" fill="#000" opacity="1">Convolution Benchmarks</text></g></g><path class="foreground" aria-hidden="true" d="" pointer-events="none" display="none"/></g></g></g><path class="foreground" aria-hidden="true" d="" display="none"/></g></g><g class="mark-group role-column-header column_header" role="graphics-object" aria-roledescription="group mark container"><g transform="translate(0,-1)"><path class="background" aria-hidden="true" d="M0,0h200v0h-200Z"/><g><g class="mark-group role-title"><g transform="translate(100,-24)"><path class="background" aria-hidden="true" d="M0,0h0v0h0Z" pointer-events="none"/><g><g class="mark-text role-title-text" role="graphics-symbol" aria-roledescription="title" aria-label="Title text 'kernel size 16'" pointer-events="none"><text text-anchor="middle" transform="translate(0,11)" font-family="sans-serif" font-size="14px" fill="#000" opacity="1">kernel size 16</text></g></g><path class="foreground" aria-hidden="true" d="" pointer-events="none" display="none"/></g></g></g><path class="foreground" aria-hidden="true" d="" display="none"/></g><g transform="translate(735,-1)"><path class="background" aria-hidden="true" d="M0,0h200v0h-200Z"/><g><g class="mark-group role-title"><g transform="translate(100,-24)"><path class="background" aria-hidden="true" d="M0,0h0v0h0Z" pointer-events="none"/><g><g class="mark-text role-title-text" role="graphics-symbol" aria-roledescription="title" aria-label="Title text 'kernel size 512'" pointer-events="none"><text text-anchor="middle" transform="translate(0,11)" font-family="sans-serif" font-size="14px" fill="#000" opacity="1">kernel size 512</text></g></g><path class="foreground" aria-hidden="true" d="" pointer-events="none" display="none"/></g></g></g><path class="foreground" aria-hidden="true" d="" display="none"/></g></g><g class="mark-group role-scope cell" role="graphics-object" aria-roledescription="group mark container"><g transform="translate(0,0)"><path class="background" aria-hidden="true" d="M0.5,0.5h200v360h-200Z" stroke="#ddd"/><g><g class="mark-group role-axis" aria-hidden="true"><g transform="translate(0.5,360.5)"><path class="background" aria-hidden="true" d="M0,0h0v0h0Z" pointer-events="none"/><g><g class="mark-rule role-axis-grid" pointer-events="none"><line transform="translate(0,0)" x2="0" y2="-360" stroke="#ddd" stroke-width="1" opacity="1"/><line transform="translate(50,0)" x2="0" y2="-360" stroke="#ddd" stroke-width="1" opacity="1"/><line transform="translate(100,0)" x2="0" y2="-360" stroke="#ddd" stroke-width="1" opacity="1"/><line transform="translate(150,0)" x2="0" y2="-360" stroke="#ddd" stroke-width="1" opacity="1"/><line transform="translate(200,0)" x2="0" y2="-360" stroke="#ddd" stroke-width="1" opacity="1"/></g></g><path class="foreground" aria-hidden="true" d="" pointer-events="none" display="none"/></g></g><g class="mark-group role-axis" role="graphics-symbol" aria-roledescription="axis" aria-label="X-axis titled 'mean execution time in µs' for a linear scale with values from 0 to 400"><g transform="translate(0.5,360.5)"><path class="background" aria-hidden="true" d="M0,0h0v0h0Z" pointer-events="none"/><g><g class="mark-rule role-axis-tick" pointer-events="none"><line transform="translate(0,0)" x2="0" y2="5" stroke="#888" stroke-width="1" opacity="1"/><line transform="translate(50,0)" x2="0" y2="5" stroke="#888" stroke-width="1" opacity="1"/><line transform="translate(100,0)" x2="0" y2="5" stroke="#888" stroke-width="1" opacity="1"/><line transform="translate(150,0)" x2="0" y2="5" stroke="#888" stroke-width="1" opacity="1"/><line transform="translate(200,0)" x2="0" y2="5" stroke="#888" stroke-width="1" opacity="1"/></g><g class="mark-text role-axis-label" pointer-events="none"><text text-anchor="start" transform="translate(0,15)" font-family="sans-serif" font-size="10px" fill="#000" opacity="1">0</text><text text-anchor="middle" transform="translate(50,15)" font-family="sans-serif" font-size="10px" fill="#000" opacity="1">100</text><text text-anchor="middle" transform="translate(100,15)" font-family="sans-serif" font-size="10px" fill="#000" opacity="1">200</text><text text-anchor="middle" transform="translate(150,15)" font-family="sans-serif" font-size="10px" fill="#000" opacity="1">300</text><text text-anchor="end" transform="translate(200,15)" font-family="sans-serif" font-size="10px" fill="#000" opacity="1">400</text></g><g class="mark-rule role-axis-domain" pointer-events="none"><line transform="translate(0,0)" x2="200" y2="0" stroke="#888" stroke-width="1" opacity="1"/></g><g class="mark-text role-axis-title" pointer-events="none"><text text-anchor="middle" transform="translate(100,30)" font-family="sans-serif" font-size="11px" font-weight="bold" fill="#000" opacity="1">mean execution time in µs</text></g></g><path class="foreground" aria-hidden="true" d="" pointer-events="none" display="none"/></g></g><g class="mark-group role-axis" role="graphics-symbol" aria-roledescription="axis" aria-label="Y-axis titled 'algorithm' for a discrete scale with 18 values: (wilczek) AVX NoAlign Outer-Loop Vectorization, (JohT) inputPerKernelValue Transposed, (wilczek) AVX NoAlign Outer- and Inner-Loop Vectorization, (wilczek) AVX NoAlign Inner-Loop Vectorization, (JohT) kernelPerInputValue Transposed, ending with (matlab-like) conv 'full' shape"><g transform="translate(0.5,0.5)"><path class="background" aria-hidden="true" d="M0,0h0v0h0Z" pointer-events="none"/><g><g class="mark-rule role-axis-tick" pointer-events="none"><line transform="translate(0,10)" x2="-5" y2="0" stroke="#888" stroke-width="1" opacity="1"/><line transform="translate(0,30)" x2="-5" y2="0" stroke="#888" stroke-width="1" opacity="1"/><line transform="translate(0,50)" x2="-5" y2="0" stroke="#888" stroke-width="1" opacity="1"/><line transform="translate(0,70)" x2="-5" y2="0" stroke="#888" stroke-width="1" opacity="1"/><line transform="translate(0,90)" x2="-5" y2="0" stroke="#888" stroke-width="1" opacity="1"/><line transform="translate(0,110)" x2="-5" y2="0" stroke="#888" stroke-width="1" opacity="1"/><line transform="translate(0,130)" x2="-5" y2="0" stroke="#888" stroke-width="1" opacity="1"/><line transform="translate(0,150)" x2="-5" y2="0" stroke="#888" stroke-width="1" opacity="1"/><line transform="translate(0,170)" x2="-5" y2="0" stroke="#888" stroke-width="1" opacity="1"/><line transform="translate(0,190)" x2="-5" y2="0" stroke="#888" stroke-width="1" opacity="1"/><line transform="translate(0,210)" x2="-5" y2="0" stroke="#888" stroke-width="1" opacity="1"/><line transform="translate(0,230)" x2="-5" y2="0" stroke="#888" stroke-width="1" opacity="1"/><line transform="translate(0,250)" x2="-5" y2="0" stroke="#888" stroke-width="1" opacity="1"/><line transform="translate(0,270)" x2="-5" y2="0" stroke="#888" stroke-width="1" opacity="1"/><line transform="translate(0,290)" x2="-5" y2="0" stroke="#888" stroke-width="1" opacity="1"/><line transform="translate(0,310)" x2="-5" y2="0" stroke="#888" stroke-width="1" opacity="1"/><line transform="translate(0,330)" x2="-5" y2="0" stroke="#888" stroke-width="1" opacity="1"/><line transform="translate(0,350)" x2="-5" y2="0" stroke="#888" stroke-width="1" opacity="1"/></g><g class="mark-text role-axis-label" pointer-events="none"><text text-anchor="end" transform="translate(-7,12.5)" font-family="sans-serif" font-size="10px" fill="#000" opacity="1">(wilczek) AVX NoAlign Outer-Loop Vectorization</text><text text-anchor="end" transform="translate(-7,32.5)" font-family="sans-serif" font-size="10px" fill="#000" opacity="1">(JohT) inputPerKernelValue Transposed</text><text text-anchor="end" transform="translate(-7,52.5)" font-family="sans-serif" font-size="10px" fill="#000" opacity="1">(wilczek) AVX NoAlign Outer- and Inner-Loop Vectorization</text><text text-anchor="end" transform="translate(-7,72.5)" font-family="sans-serif" font-size="10px" fill="#000" opacity="1">(wilczek) AVX NoAlign Inner-Loop Vectorization</text><text text-anchor="end" transform="translate(-7,92.5)" font-family="sans-serif" font-size="10px" fill="#000" opacity="1">(JohT) kernelPerInputValue Transposed</text><text text-anchor="end" transform="translate(-7,112.5)" font-family="sans-serif" font-size="10px" fill="#000" opacity="1">(JohT) inputPerKernelValue Transposed Inner&amp;OuterLoopUnrolled</text><text text-anchor="end" transform="translate(-7,132.5)" font-family="sans-serif" font-size="10px" fill="#000" opacity="1">(JohT) inputPerKernelValue Transposed OuterLoopUnrolled</text><text text-anchor="end" transform="translate(-7,152.5)" font-family="sans-serif" font-size="10px" fill="#000" opacity="1">(wilczek) Outer- and Inner-Loop Vectorization</text><text text-anchor="end" transform="translate(-7,172.5)" font-family="sans-serif" font-size="10px" fill="#000" opacity="1">(wilczek) Outer-Loop Vectorization</text><text text-anchor="end" transform="translate(-7,192.5)" font-family="sans-serif" font-size="10px" fill="#000" opacity="1">(wilczek) Inner-Loop Vectorization</text><text text-anchor="end" transform="translate(-7,212.5)" font-family="sans-serif" font-size="10px" fill="#000" opacity="1">(JohT) inputPerKernelValue Transposed LoopFission</text><text text-anchor="end" transform="translate(-7,232.5)" font-family="sans-serif" font-size="10px" fill="#000" opacity="1">(JohT) inputPerKernelValue Transposed InnerLoopUnrolled</text><text text-anchor="end" transform="translate(-7,252.5)" font-family="sans-serif" font-size="10px" fill="#000" opacity="1">(JohT) inputPerKernelValue Transposed LoopFissionIndexArithme…</text><text text-anchor="end" transform="translate(-7,272.5)" font-family="sans-serif" font-size="10px" fill="#000" opacity="1">(chaowang15) convolve1D</text><text text-anchor="end" transform="translate(-7,292.5)" font-family="sans-serif" font-size="10px" fill="#000" opacity="1">(JohT) kernelPerInputValue Transposed LoopFission</text><text text-anchor="end" transform="translate(-7,312.5)" font-family="sans-serif" font-size="10px" fill="#000" opacity="1">(wilczek) Single</text><text text-anchor="end" transform="translate(-7,332.5)" font-family="sans-serif" font-size="10px" fill="#000" opacity="1">(matlab-like) conv 'valid' shape pre padded</text><text text-anchor="end" transform="translate(-7,352.5)" font-family="sans-serif" font-size="10px" fill="#000" opacity="1">(matlab-like) conv 'full' shape</text></g><g class="mark-rule role-axis-domain" pointer-events="none"><line transform="translate(0,0)" x2="0" y2="360" stroke="#888" stroke-width="1" opacity="1"/></g><g class="mark-text role-axis-title" pointer-events="none"><text text-anchor="middle" transform="translate(-320,180) rotate(-90) translate(0,-2)" font-family="sans-serif" font-size="11px" font-weight="bold" fill="#000" opacity="1">algorithm</text></g></g><path class="foreground" aria-hidden="true" d="" pointer-events="none" display="none"/></g></g><g class="mark-rect role-mark child_layer_0_marks" role="graphics-object" aria-roledescription="rect mark container"><path aria-label="mean execution time in µs: 159; algorithm: (JohT) kernelPerInputValue Transposed" role="graphics-symbol" aria-roledescription="bar" d="M0,81.9L75.5,81.9C77.707660097976,81.9,79.5,83.692339902024,79.5,85.9L79.5,94.10000000000001C79.5,96.30766009797601,77.707660097976,98.10000000000001,75.5,98.10000000000001L0,98.10000000000001C0,98.10000000000001,0,98.10000000000001,0,98.10000000000001L0,81.9C0,81.9,0,81.9,0,81.9Z" fill="#4c78a8"/><path aria-label="mean execution time in µs: 52; algorithm: (JohT) inputPerKernelValue Transposed" role="graphics-symbol" aria-roledescription="bar" d="M0,21.9L22,21.9C24.207660097976,21.9,26,23.692339902024,26,25.9L26,34.099999999999994C26,36.307660097976,24.207660097976,38.099999999999994,22,38.099999999999994L0,38.099999999999994C0,38.099999999999994,0,38.099999999999994,0,38.099999999999994L0,21.9C0,21.9,0,21.9,0,21.9Z" fill="#4c78a8"/><path aria-label="mean execution time in µs: 229; algorithm: (JohT) inputPerKernelValue Transposed InnerLoopUnrolled" role="graphics-symbol" aria-roledescription="bar" d="M0,221.9L110.5,221.9C112.707660097976,221.9,114.5,223.692339902024,114.5,225.9L114.5,234.1C114.5,236.307660097976,112.707660097976,238.1,110.5,238.1L0,238.1C0,238.1,0,238.1,0,238.1L0,221.9C0,221.9,0,221.9,0,221.9Z" fill="#4c78a8"/><path aria-label="mean execution time in µs: 177; algorithm: (JohT) inputPerKernelValue Transposed OuterLoopUnrolled" role="graphics-symbol" aria-roledescription="bar" d="M0,121.9L84.5,121.9C86.707660097976,121.9,88.5,123.692339902024,88.5,125.9L88.5,134.1C88.5,136.307660097976,86.707660097976,138.1,84.5,138.1L0,138.1C0,138.1,0,138.1,0,138.1L0,121.9C0,121.9,0,121.9,0,121.9Z" fill="#4c78a8"/><path aria-label="mean execution time in µs: 166; algorithm: (JohT) inputPerKernelValue Transposed Inner&amp;OuterLoopUnrolled" role="graphics-symbol" aria-roledescription="bar" d="M0,101.9L79,101.9C81.207660097976,101.9,83,103.692339902024,83,105.9L83,114.10000000000001C83,116.30766009797601,81.207660097976,118.10000000000001,79,118.10000000000001L0,118.10000000000001C0,118.10000000000001,0,118.10000000000001,0,118.10000000000001L0,101.9C0,101.9,0,101.9,0,101.9Z" fill="#4c78a8"/><path aria-label="mean execution time in µs: 208; algorithm: (JohT) inputPerKernelValue Transposed LoopFission" role="graphics-symbol" aria-roledescription="bar" d="M0,201.9L100,201.9C102.207660097976,201.9,104,203.692339902024,104,205.9L104,214.1C104,216.307660097976,102.207660097976,218.1,100,218.1L0,218.1C0,218.1,0,218.1,0,218.1L0,201.9C0,201.9,0,201.9,0,201.9Z" fill="#4c78a8"/><path aria-label="mean execution time in µs: 241; algorithm: (JohT) inputPerKernelValue Transposed LoopFissionIndexArithmetic" role="graphics-symbol" aria-roledescription="bar" d="M0,241.9L116.5,241.9C118.707660097976,241.9,120.5,243.692339902024,120.5,245.9L120.5,254.10000000000002C120.5,256.307660097976,118.707660097976,258.1,116.5,258.1L0,258.1C0,258.1,0,258.1,0,258.1L0,241.9C0,241.9,0,241.9,0,241.9Z" fill="#4c78a8"/><path aria-label="mean execution time in µs: 279; algorithm: (JohT) kernelPerInputValue Transposed LoopFission" role="graphics-symbol" aria-roledescription="bar" d="M0,281.9L135.5,281.9C137.707660097976,281.9,139.5,283.692339902024,139.5,285.9L139.5,294.09999999999997C139.5,296.30766009797594,137.707660097976,298.09999999999997,135.5,298.09999999999997L0,298.09999999999997C0,298.09999999999997,0,298.09999999999997,0,298.09999999999997L0,281.9C0,281.9,0,281.9,0,281.9Z" fill="#4c78a8"/><path aria-label="mean execution time in µs: 356; algorithm: (matlab-like) conv 'full' shape" role="graphics-symbol" aria-roledescription="bar" d="M0,341.9L174,341.9C176.207660097976,341.9,178,343.692339902024,178,345.9L178,354.09999999999997C178,356.30766009797594,176.207660097976,358.09999999999997,174,358.09999999999997L0,358.09999999999997C0,358.09999999999997,0,358.09999999999997,0,358.09999999999997L0,341.9C0,341.9,0,341.9,0,341.9Z" fill="#4c78a8"/><path aria-label="mean execution time in µs: 297; algorithm: (matlab-like) conv 'valid' shape pre padded" role="graphics-symbol" aria-roledescription="bar" d="M0,321.9L144.5,321.9C146.707660097976,321.9,148.5,323.692339902024,148.5,325.9L148.5,334.09999999999997C148.5,336.30766009797594,146.707660097976,338.09999999999997,144.5,338.09999999999997L0,338.09999999999997C0,338.09999999999997,0,338.09999999999997,0,338.09999999999997L0,321.9C0,321.9,0,321.9,0,321.9Z" fill="#4c78a8"/><path aria-label="mean execution time in µs: 279; algorithm: (wilczek) Single" role="graphics-symbol" aria-roledescription="bar" d="M0,301.9L135.5,301.9C137.707660097976,301.9,139.5,303.692339902024,139.5,305.9L139.5,314.09999999999997C139.5,316.30766009797594,137.707660097976,318.09999999999997,135.5,318.09999999999997L0,318.09999999999997C0,318.09999999999997,0,318.09999999999997,0,318.09999999999997L0,301.9C0,301.9,0,301.9,0,301.9Z" fill="#4c78a8"/><path aria-label="mean execution time in µs: 204; algorithm: (wilczek) Inner-Loop Vectorization" role="graphics-symbol" aria-roledescription="bar" d="M0,181.9L98,181.9C100.207660097976,181.9,102,183.692339902024,102,185.9L102,194.1C102,196.307660097976,100.207660097976,198.1,98,198.1L0,198.1C0,198.1,0,198.1,0,198.1L0,181.9C0,181.9,0,181.9,0,181.9Z" fill="#4c78a8"/><path aria-label="mean execution time in µs: 203; algorithm: (wilczek) Outer-Loop Vectorization" role="graphics-symbol" aria-roledescription="bar" d="M0,161.9L97.49999999999999,161.9C99.70766009797599,161.9,101.49999999999999,163.692339902024,101.49999999999999,165.9L101.49999999999999,174.1C101.49999999999999,176.307660097976,99.70766009797599,178.1,97.49999999999999,178.1L0,178.1C0,178.1,0,178.1,0,178.1L0,161.9C0,161.9,0,161.9,0,161.9Z" fill="#4c78a8"/><path aria-label="mean execution time in µs: 201; algorithm: (wilczek) Outer- and Inner-Loop Vectorization" role="graphics-symbol" aria-roledescription="bar" d="M0,141.9L96.49999999999999,141.9C98.70766009797599,141.9,100.49999999999999,143.692339902024,100.49999999999999,145.9L100.49999999999999,154.1C100.49999999999999,156.307660097976,98.70766009797599,158.1,96.49999999999999,158.1L0,158.1C0,158.1,0,158.1,0,158.1L0,141.9C0,141.9,0,141.9,0,141.9Z" fill="#4c78a8"/><path aria-label="mean execution time in µs: 154; algorithm: (wilczek) AVX NoAlign Inner-Loop Vectorization" role="graphics-symbol" aria-roledescription="bar" d="M0,61.9L73,61.9C75.207660097976,61.9,77,63.692339902023996,77,65.9L77,74.1C77,76.307660097976,75.207660097976,78.1,73,78.1L0,78.1C0,78.1,0,78.1,0,78.1L0,61.9C0,61.9,0,61.9,0,61.9Z" fill="#4c78a8"/><path aria-label="mean execution time in µs: 42; algorithm: (wilczek) AVX NoAlign Outer-Loop Vectorization" role="graphics-symbol" aria-roledescription="bar" d="M0,1.9L17,1.9C19.207660097976,1.9,21,3.692339902024,21,5.9L21,14.099999999999998C21,16.307660097975997,19.207660097976,18.099999999999998,17,18.099999999999998L0,18.099999999999998C0,18.099999999999998,0,18.099999999999998,0,18.099999999999998L0,1.9C0,1.9,0,1.9,0,1.9Z" fill="#4c78a8"/><path aria-label="mean execution time in µs: 132; algorithm: (wilczek) AVX NoAlign Outer- and Inner-Loop Vectorization" role="graphics-symbol" aria-roledescription="bar" d="M0,41.9L62,41.9C64.207660097976,41.9,66,43.692339902023996,66,45.9L66,54.099999999999994C66,56.307660097976,64.207660097976,58.099999999999994,62,58.099999999999994L0,58.099999999999994C0,58.099999999999994,0,58.099999999999994,0,58.099999999999994L0,41.9C0,41.9,0,41.9,0,41.9Z" fill="#4c78a8"/><path aria-label="mean execution time in µs: 243; algorithm: (chaowang15) convolve1D" role="graphics-symbol" aria-roledescription="bar" d="M0,261.9L117.50000000000001,261.9C119.70766009797602,261.9,121.50000000000001,263.692339902024,121.50000000000001,265.9L121.50000000000001,274.09999999999997C121.50000000000001,276.30766009797594,119.70766009797602,278.09999999999997,117.50000000000001,278.09999999999997L0,278.09999999999997C0,278.09999999999997,0,278.09999999999997,0,278.09999999999997L0,261.9C0,261.9,0,261.9,0,261.9Z" fill="#4c78a8"/></g><g class="mark-text role-mark child_layer_1_marks" role="graphics-object" aria-roledescription="text mark container"><text aria-label="mean execution time in µs: 159; algorithm: (JohT) kernelPerInputValue Transposed; MeanExecutionTime: 159" role="graphics-symbol" aria-roledescription="text mark" text-anchor="start" transform="translate(83.5,93)" font-family="sans-serif" font-size="9px" fill="black">159</text><text aria-label="mean execution time in µs: 52; algorithm: (JohT) inputPerKernelValue Transposed; MeanExecutionTime: 52" role="graphics-symbol" aria-roledescription="text mark" text-anchor="start" transform="translate(30,33)" font-family="sans-serif" font-size="9px" fill="black">52</text><text aria-label="mean execution time in µs: 229; algorithm: (JohT) inputPerKernelValue Transposed InnerLoopUnrolled; MeanExecutionTime: 229" role="graphics-symbol" aria-roledescription="text mark" text-anchor="start" transform="translate(118.5,233)" font-family="sans-serif" font-size="9px" fill="black">229</text><text aria-label="mean execution time in µs: 177; algorithm: (JohT) inputPerKernelValue Transposed OuterLoopUnrolled; MeanExecutionTime: 177" role="graphics-symbol" aria-roledescription="text mark" text-anchor="start" transform="translate(92.5,133)" font-family="sans-serif" font-size="9px" fill="black">177</text><text aria-label="mean execution time in µs: 166; algorithm: (JohT) inputPerKernelValue Transposed Inner&amp;OuterLoopUnrolled; MeanExecutionTime: 166" role="graphics-symbol" aria-roledescription="text mark" text-anchor="start" transform="translate(87,113)" font-family="sans-serif" font-size="9px" fill="black">166</text><text aria-label="mean execution time in µs: 208; algorithm: (JohT) inputPerKernelValue Transposed LoopFission; MeanExecutionTime: 208" role="graphics-symbol" aria-roledescription="text mark" text-anchor="start" transform="translate(108,213)" font-family="sans-serif" font-size="9px" fill="black">208</text><text aria-label="mean execution time in µs: 241; algorithm: (JohT) inputPerKernelValue Transposed LoopFissionIndexArithmetic; MeanExecutionTime: 241" role="graphics-symbol" aria-roledescription="text mark" text-anchor="start" transform="translate(124.5,253)" font-family="sans-serif" font-size="9px" fill="black">241</text><text aria-label="mean execution time in µs: 279; algorithm: (JohT) kernelPerInputValue Transposed LoopFission; MeanExecutionTime: 279" role="graphics-symbol" aria-roledescription="text mark" text-anchor="start" transform="translate(143.5,293)" font-family="sans-serif" font-size="9px" fill="black">279</text><text aria-label="mean execution time in µs: 356; algorithm: (matlab-like) conv 'full' shape; MeanExecutionTime: 356" role="graphics-symbol" aria-roledescription="text mark" text-anchor="start" transform="translate(182,353)" font-family="sans-serif" font-size="9px" fill="black">356</text><text aria-label="mean execution time in µs: 297; algorithm: (matlab-like) conv 'valid' shape pre padded; MeanExecutionTime: 297" role="graphics-symbol" aria-roledescription="text mark" text-anchor="start" transform="translate(152.5,333)" font-family="sans-serif" font-size="9px" fill="black">297</text><text aria-label="mean execution time in µs: 279; algorithm: (wilczek) Single; MeanExecutionTime: 279" role="graphics-symbol" aria-roledescription="text mark" text-anchor="start" transform="translate(143.5,313)" font-family="sans-serif" font-size="9px" fill="black">279</text><text aria-label="mean execution time in µs: 204; algorithm: (wilczek) Inner-Loop Vectorization; MeanExecutionTime: 204" role="graphics-symbol" aria-roledescription="text mark" text-anchor="start" transform="translate(106,193)" font-family="sans-serif" font-size="9px" fill="black">204</text><text aria-label="mean execution time in µs: 203; algorithm: (wilczek) Outer-Loop Vectorization; MeanExecutionTime: 203" role="graphics-symbol" aria-roledescription="text mark" text-anchor="start" transform="translate(105.49999999999999,173)" font-family="sans-serif" font-size="9px" fill="black">203</text><text aria-label="mean execution time in µs: 201; algorithm: (wilczek) Outer- and Inner-Loop Vectorization; MeanExecutionTime: 201" role="graphics-symbol" aria-roledescription="text mark" text-anchor="start" transform="translate(104.49999999999999,153)" font-family="sans-serif" font-size="9px" fill="black">201</text><text aria-label="mean execution time in µs: 154; algorithm: (wilczek) AVX NoAlign Inner-Loop Vectorization; MeanExecutionTime: 154" role="graphics-symbol" aria-roledescription="text mark" text-anchor="start" transform="translate(81,73)" font-family="sans-serif" font-size="9px" fill="black">154</text><text aria-label="mean execution time in µs: 42; algorithm: (wilczek) AVX NoAlign Outer-Loop Vectorization; MeanExecutionTime: 42" role="graphics-symbol" aria-roledescription="text mark" text-anchor="start" transform="translate(25,13)" font-family="sans-serif" font-size="9px" fill="black">42</text><text aria-label="mean execution time in µs: 132; algorithm: (wilczek) AVX NoAlign Outer- and Inner-Loop Vectorization; MeanExecutionTime: 132" role="graphics-symbol" aria-roledescription="text mark" text-anchor="start" transform="translate(70,53)" font-family="sans-serif" font-size="9px" fill="black">132</text><text aria-label="mean execution time in µs: 243; algorithm: (chaowang15) convolve1D; MeanExecutionTime: 243" role="graphics-symbol" aria-roledescription="text mark" text-anchor="start" transform="translate(125.50000000000001,273)" font-family="sans-serif" font-size="9px" fill="black">243</text></g></g><path class="foreground" aria-hidden="true" d="" display="none"/></g><g transform="translate(735,0)"><path class="background" aria-hidden="true" d="M0.5,0.5h200v360h-200Z" stroke="#ddd"/><g><g class="mark-group role-axis" aria-hidden="true"><g transform="translate(0.5,360.5)"><path class="background" aria-hidden="true" d="M0,0h0v0h0Z" pointer-events="none"/><g><g class="mark-rule role-axis-grid" pointer-events="none"><line transform="translate(0,0)" x2="0" y2="-360" stroke="#ddd" stroke-width="1" opacity="1"/><line transform="translate(56,0)" x2="0" y2="-360" stroke="#ddd" stroke-width="1" opacity="1"/><line transform="translate(111,0)" x2="0" y2="-360" stroke="#ddd" stroke-width="1" opacity="1"/><line transform="translate(167,0)" x2="0" y2="-360" stroke="#ddd" stroke-width="1" opacity="1"/></g></g><path class="foreground" aria-hidden="true" d="" pointer-events="none" display="none"/></g></g><g class="mark-group role-axis" role="graphics-symbol" aria-roledescription="axis" aria-label="X-axis titled 'mean execution time in µs' for a linear scale with values from 0 to 18,000"><g transform="translate(0.5,360.5)"><path class="background" aria-hidden="true" d="M0,0h0v0h0Z" pointer-events="none"/><g><g class="mark-rule role-axis-tick" pointer-events="none"><line transform="translate(0,0)" x2="0" y2="5" stroke="#888" stroke-width="1" opacity="1"/><line transform="translate(56,0)" x2="0" y2="5" stroke="#888" stroke-width="1" opacity="1"/><line transform="translate(111,0)" x2="0" y2="5" stroke="#888" stroke-width="1" opacity="1"/><line transform="translate(167,0)" x2="0" y2="5" stroke="#888" stroke-width="1" opacity="1"/></g><g class="mark-text role-axis-label" pointer-events="none"><text text-anchor="start" transform="translate(0,15)" font-family="sans-serif" font-size="10px" fill="#000" opacity="1">0</text><text text-anchor="middle" transform="translate(55.55555555555556,15)" font-family="sans-serif" font-size="10px" fill="#000" opacity="1">5,000</text><text text-anchor="middle" transform="translate(111.11111111111111,15)" font-family="sans-serif" font-size="10px" fill="#000" opacity="1">10,000</text><text text-anchor="middle" transform="translate(166.66666666666669,15)" font-family="sans-serif" font-size="10px" fill="#000" opacity="1">15,000</text></g><g class="mark-rule role-axis-domain" pointer-events="none"><line transform="translate(0,0)" x2="200" y2="0" stroke="#888" stroke-width="1" opacity="1"/></g><g class="mark-text role-axis-title" pointer-events="none"><text text-anchor="middle" transform="translate(100,30)" font-family="sans-serif" font-size="11px" font-weight="bold" fill="#000" opacity="1">mean execution time in µs</text></g></g><path class="foreground" aria-hidden="true" d="" pointer-events="none" display="none"/></g></g><g class="mark-group role-axis" role="graphics-symbol" aria-roledescription="axis" aria-label="Y-axis titled 'algorithm' for a discrete scale with 18 values: (wilczek) AVX NoAlign Outer- and Inner-Loop Vectorization, (JohT) kernelPerInputValue Transposed, (JohT) inputPerKernelValue Transposed, (wilczek) AVX NoAlign Inner-Loop Vectorization, (wilczek) AVX NoAlign Outer-Loop Vectorization, ending with (wilczek) Single"><g transform="translate(0.5,0.5)"><path class="background" aria-hidden="true" d="M0,0h0v0h0Z" pointer-events="none"/><g><g class="mark-rule role-axis-tick" pointer-events="none"><line transform="translate(0,10)" x2="-5" y2="0" stroke="#888" stroke-width="1" opacity="1"/><line transform="translate(0,30)" x2="-5" y2="0" stroke="#888" stroke-width="1" opacity="1"/><line transform="translate(0,50)" x2="-5" y2="0" stroke="#888" stroke-width="1" opacity="1"/><line transform="translate(0,70)" x2="-5" y2="0" stroke="#888" stroke-width="1" opacity="1"/><line transform="translate(0,90)" x2="-5" y2="0" stroke="#888" stroke-width="1" opacity="1"/><line transform="translate(0,110)" x2="-5" y2="0" stroke="#888" stroke-width="1" opacity="1"/><line transform="translate(0,130)" x2="-5" y2="0" stroke="#888" stroke-width="1" opacity="1"/><line transform="translate(0,150)" x2="-5" y2="0" stroke="#888" stroke-width="1" opacity="1"/><line transform="translate(0,170)" x2="-5" y2="0" stroke="#888" stroke-width="1" opacity="1"/><line transform="translate(0,190)" x2="-5" y2="0" stroke="#888" stroke-width="1" opacity="1"/><line transform="translate(0,210)" x2="-5" y2="0" stroke="#888" stroke-width="1" opacity="1"/><line transform="translate(0,230)" x2="-5" y2="0" stroke="#888" stroke-width="1" opacity="1"/><line transform="translate(0,250)" x2="-5" y2="0" stroke="#888" stroke-width="1" opacity="1"/><line transform="translate(0,270)" x2="-5" y2="0" stroke="#888" stroke-width="1" opacity="1"/><line transform="translate(0,290)" x2="-5" y2="0" stroke="#888" stroke-width="1" opacity="1"/><line transform="translate(0,310)" x2="-5" y2="0" stroke="#888" stroke-width="1" opacity="1"/><line transform="translate(0,330)" x2="-5" y2="0" stroke="#888" stroke-width="1" opacity="1"/><line transform="translate(0,350)" x2="-5" y2="0" stroke="#888" stroke-width="1" opacity="1"/></g><g class="mark-text role-axis-label" pointer-events="none"><text text-anchor="end" transform="translate(-7,12.5)" font-family="sans-serif" font-size="10px" fill="#000" opacity="1">(wilczek) AVX NoAlign Outer- and Inner-Loop Vectorization</text><text text-anchor="end" transform="translate(-7,32.5)" font-family="sans-serif" font-size="10px" fill="#000" opacity="1">(JohT) kernelPerInputValue Transposed</text><text text-anchor="end" transform="translate(-7,52.5)" font-family="sans-serif" font-size="10px" fill="#000" opacity="1">(JohT) inputPerKernelValue Transposed</text><text text-anchor="end" transform="translate(-7,72.5)" font-family="sans-serif" font-size="10px" fill="#000" opacity="1">(wilczek) AVX NoAlign Inner-Loop Vectorization</text><text text-anchor="end" transform="translate(-7,92.5)" font-family="sans-serif" font-size="10px" fill="#000" opacity="1">(wilczek) AVX NoAlign Outer-Loop Vectorization</text><text text-anchor="end" transform="translate(-7,112.5)" font-family="sans-serif" font-size="10px" fill="#000" opacity="1">(JohT) inputPerKernelValue Transposed Inner&amp;OuterLoopUnrolled</text><text text-anchor="end" transform="translate(-7,132.5)" font-family="sans-serif" font-size="10px" fill="#000" opacity="1">(JohT) kernelPerInputValue Transposed LoopFission</text><text text-anchor="end" transform="translate(-7,152.5)" font-family="sans-serif" font-size="10px" fill="#000" opacity="1">(JohT) inputPerKernelValue Transposed OuterLoopUnrolled</text><text text-anchor="end" transform="translate(-7,172.5)" font-family="sans-serif" font-size="10px" fill="#000" opacity="1">(wilczek) Outer-Loop Vectorization</text><text text-anchor="end" transform="translate(-7,192.5)" font-family="sans-serif" font-size="10px" fill="#000" opacity="1">(wilczek) Inner-Loop Vectorization</text><text text-anchor="end" transform="translate(-7,212.5)" font-family="sans-serif" font-size="10px" fill="#000" opacity="1">(wilczek) Outer- and Inner-Loop Vectorization</text><text text-anchor="end" transform="translate(-7,232.5)" font-family="sans-serif" font-size="10px" fill="#000" opacity="1">(JohT) inputPerKernelValue Transposed LoopFission</text><text text-anchor="end" transform="translate(-7,252.5)" font-family="sans-serif" font-size="10px" fill="#000" opacity="1">(JohT) inputPerKernelValue Transposed LoopFissionIndexArithme…</text><text text-anchor="end" transform="translate(-7,272.5)" font-family="sans-serif" font-size="10px" fill="#000" opacity="1">(JohT) inputPerKernelValue Transposed InnerLoopUnrolled</text><text text-anchor="end" transform="translate(-7,292.5)" font-family="sans-serif" font-size="10px" fill="#000" opacity="1">(matlab-like) conv 'full' shape</text><text text-anchor="end" transform="translate(-7,312.5)" font-family="sans-serif" font-size="10px" fill="#000" opacity="1">(matlab-like) conv 'valid' shape pre padded</text><text text-anchor="end" transform="translate(-7,332.5)" font-family="sans-serif" font-size="10px" fill="#000" opacity="1">(chaowang15) convolve1D</text><text text-anchor="end" transform="translate(-7,352.5)" font-family="sans-serif" font-size="10px" fill="#000" opacity="1">(wilczek) Single</text></g><g class="mark-rule role-axis-domain" pointer-events="none"><line transform="translate(0,0)" x2="0" y2="360" stroke="#888" stroke-width="1" opacity="1"/></g><g class="mark-text role-axis-title" pointer-events="none"><text text-anchor="middle" transform="translate(-320,180) rotate(-90) translate(0,-2)" font-family="sans-serif" font-size="11px" font-weight="bold" fill="#000" opacity="1">algorithm</text></g></g><path class="foreground" aria-hidden="true" d="" pointer-events="none" display="none"/></g></g><g class="mark-rect role-mark child_layer_0_marks" role="graphics-object" aria-roledescription="rect mark container"><path aria-label="mean execution time in µs: 935; algorithm: (JohT) kernelPerInputValue Transposed" role="graphics-symbol" aria-roledescription="bar" d="M0,21.9L6.388888888888889,21.9C8.596548986864889,21.9,10.38888888888889,23.692339902024,10.38888888888889,25.9L10.38888888888889,34.099999999999994C10.38888888888889,36.307660097976,8.596548986864889,38.099999999999994,6.388888888888889,38.099999999999994L0,38.099999999999994C0,38.099999999999994,0,38.099999999999994,0,38.099999999999994L0,21.9C0,21.9,0,21.9,0,21.9Z" fill="#4c78a8"/><path aria-label="mean execution time in µs: 1694; algorithm: (JohT) inputPerKernelValue Transposed" role="graphics-symbol" aria-roledescription="bar" d="M0,41.9L14.822222222222223,41.9C17.029882320198222,41.9,18.822222222222223,43.692339902023996,18.822222222222223,45.9L18.822222222222223,54.099999999999994C18.822222222222223,56.307660097976,17.029882320198222,58.099999999999994,14.822222222222223,58.099999999999994L0,58.099999999999994C0,58.099999999999994,0,58.099999999999994,0,58.099999999999994L0,41.9C0,41.9,0,41.9,0,41.9Z" fill="#4c78a8"/><path aria-label="mean execution time in µs: 6297; algorithm: (JohT) inputPerKernelValue Transposed InnerLoopUnrolled" role="graphics-symbol" aria-roledescription="bar" d="M0,261.9L65.96666666666667,261.9C68.17432676464267,261.9,69.96666666666667,263.692339902024,69.96666666666667,265.9L69.96666666666667,274.09999999999997C69.96666666666667,276.30766009797594,68.17432676464267,278.09999999999997,65.96666666666667,278.09999999999997L0,278.09999999999997C0,278.09999999999997,0,278.09999999999997,0,278.09999999999997L0,261.9C0,261.9,0,261.9,0,261.9Z" fill="#4c78a8"/><path aria-label="mean execution time in µs: 4653; algorithm: (JohT) inputPerKernelValue Transposed OuterLoopUnrolled" role="graphics-symbol" aria-roledescription="bar" d="M0,141.9L47.7,141.9C49.907660097976006,141.9,51.7,143.692339902024,51.7,145.9L51.7,154.1C51.7,156.307660097976,49.907660097976006,158.1,47.7,158.1L0,158.1C0,158.1,0,158.1,0,158.1L0,141.9C0,141.9,0,141.9,0,141.9Z" fill="#4c78a8"/><path aria-label="mean execution time in µs: 4257; algorithm: (JohT) inputPerKernelValue Transposed Inner&amp;OuterLoopUnrolled" role="graphics-symbol" aria-roledescription="bar" d="M0,101.9L43.3,101.9C45.507660097976,101.9,47.3,103.692339902024,47.3,105.9L47.3,114.10000000000001C47.3,116.30766009797601,45.507660097976,118.10000000000001,43.3,118.10000000000001L0,118.10000000000001C0,118.10000000000001,0,118.10000000000001,0,118.10000000000001L0,101.9C0,101.9,0,101.9,0,101.9Z" fill="#4c78a8"/><path aria-label="mean execution time in µs: 6059; algorithm: (JohT) inputPerKernelValue Transposed LoopFission" role="graphics-symbol" aria-roledescription="bar" d="M0,221.9L63.32222222222222,221.9C65.52988232019823,221.9,67.32222222222222,223.692339902024,67.32222222222222,225.9L67.32222222222222,234.1C67.32222222222222,236.307660097976,65.52988232019823,238.1,63.32222222222222,238.1L0,238.1C0,238.1,0,238.1,0,238.1L0,221.9C0,221.9,0,221.9,0,221.9Z" fill="#4c78a8"/><path aria-label="mean execution time in µs: 6203; algorithm: (JohT) inputPerKernelValue Transposed LoopFissionIndexArithmetic" role="graphics-symbol" aria-roledescription="bar" d="M0,241.9L64.92222222222222,241.9C67.12988232019822,241.9,68.92222222222222,243.692339902024,68.92222222222222,245.9L68.92222222222222,254.10000000000002C68.92222222222222,256.307660097976,67.12988232019822,258.1,64.92222222222222,258.1L0,258.1C0,258.1,0,258.1,0,258.1L0,241.9C0,241.9,0,241.9,0,241.9Z" fill="#4c78a8"/><path aria-label="mean execution time in µs: 4504; algorithm: (JohT) kernelPerInputValue Transposed LoopFission" role="graphics-symbol" aria-roledescription="bar" d="M0,121.9L46.044444444444444,121.9C48.25210454242045,121.9,50.044444444444444,123.692339902024,50.044444444444444,125.9L50.044444444444444,134.1C50.044444444444444,136.307660097976,48.25210454242045,138.1,46.044444444444444,138.1L0,138.1C0,138.1,0,138.1,0,138.1L0,121.9C0,121.9,0,121.9,0,121.9Z" fill="#4c78a8"/><path aria-label="mean execution time in µs: 15972; algorithm: (matlab-like) conv 'full' shape" role="graphics-symbol" aria-roledescription="bar" d="M0,281.9L173.46666666666667,281.9C175.67432676464267,281.9,177.46666666666667,283.692339902024,177.46666666666667,285.9L177.46666666666667,294.09999999999997C177.46666666666667,296.30766009797594,175.67432676464267,298.09999999999997,173.46666666666667,298.09999999999997L0,298.09999999999997C0,298.09999999999997,0,298.09999999999997,0,298.09999999999997L0,281.9C0,281.9,0,281.9,0,281.9Z" fill="#4c78a8"/><path aria-label="mean execution time in µs: 16045; algorithm: (matlab-like) conv 'valid' shape pre padded" role="graphics-symbol" aria-roledescription="bar" d="M0,301.9L174.27777777777777,301.9C176.48543787575377,301.9,178.27777777777777,303.692339902024,178.27777777777777,305.9L178.27777777777777,314.09999999999997C178.27777777777777,316.30766009797594,176.48543787575377,318.09999999999997,174.27777777777777,318.09999999999997L0,318.09999999999997C0,318.09999999999997,0,318.09999999999997,0,318.09999999999997L0,301.9C0,301.9,0,301.9,0,301.9Z" fill="#4c78a8"/><path aria-label="mean execution time in µs: 16373; algorithm: (wilczek) Single" role="graphics-symbol" aria-roledescription="bar" d="M0,341.9L177.92222222222222,341.9C180.12988232019822,341.9,181.92222222222222,343.692339902024,181.92222222222222,345.9L181.92222222222222,354.09999999999997C181.92222222222222,356.30766009797594,180.12988232019822,358.09999999999997,177.92222222222222,358.09999999999997L0,358.09999999999997C0,358.09999999999997,0,358.09999999999997,0,358.09999999999997L0,341.9C0,341.9,0,341.9,0,341.9Z" fill="#4c78a8"/><path aria-label="mean execution time in µs: 5658; algorithm: (wilczek) Inner-Loop Vectorization" role="graphics-symbol" aria-roledescription="bar" d="M0,181.9L58.866666666666674,181.9C61.07432676464268,181.9,62.866666666666674,183.692339902024,62.866666666666674,185.9L62.866666666666674,194.1C62.866666666666674,196.307660097976,61.07432676464268,198.1,58.866666666666674,198.1L0,198.1C0,198.1,0,198.1,0,198.1L0,181.9C0,181.9,0,181.9,0,181.9Z" fill="#4c78a8"/><path aria-label="mean execution time in µs: 5569; algorithm: (wilczek) Outer-Loop Vectorization" role="graphics-symbol" aria-roledescription="bar" d="M0,161.9L57.87777777777777,161.9C60.085437875753776,161.9,61.87777777777777,163.692339902024,61.87777777777777,165.9L61.87777777777777,174.1C61.87777777777777,176.307660097976,60.085437875753776,178.1,57.87777777777777,178.1L0,178.1C0,178.1,0,178.1,0,178.1L0,161.9C0,161.9,0,161.9,0,161.9Z" fill="#4c78a8"/><path aria-label="mean execution time in µs: 6027; algorithm: (wilczek) Outer- and Inner-Loop Vectorization" role="graphics-symbol" aria-roledescription="bar" d="M0,201.9L62.96666666666667,201.9C65.17432676464267,201.9,66.96666666666667,203.692339902024,66.96666666666667,205.9L66.96666666666667,214.1C66.96666666666667,216.307660097976,65.17432676464267,218.1,62.96666666666667,218.1L0,218.1C0,218.1,0,218.1,0,218.1L0,201.9C0,201.9,0,201.9,0,201.9Z" fill="#4c78a8"/><path aria-label="mean execution time in µs: 1879; algorithm: (wilczek) AVX NoAlign Inner-Loop Vectorization" role="graphics-symbol" aria-roledescription="bar" d="M0,61.9L16.87777777777778,61.9C19.08543787575378,61.9,20.87777777777778,63.692339902023996,20.87777777777778,65.9L20.87777777777778,74.1C20.87777777777778,76.307660097976,19.08543787575378,78.1,16.87777777777778,78.1L0,78.1C0,78.1,0,78.1,0,78.1L0,61.9C0,61.9,0,61.9,0,61.9Z" fill="#4c78a8"/><path aria-label="mean execution time in µs: 2225; algorithm: (wilczek) AVX NoAlign Outer-Loop Vectorization" role="graphics-symbol" aria-roledescription="bar" d="M0,81.9L20.72222222222222,81.9C22.92988232019822,81.9,24.72222222222222,83.692339902024,24.72222222222222,85.9L24.72222222222222,94.10000000000001C24.72222222222222,96.30766009797601,22.92988232019822,98.10000000000001,20.72222222222222,98.10000000000001L0,98.10000000000001C0,98.10000000000001,0,98.10000000000001,0,98.10000000000001L0,81.9C0,81.9,0,81.9,0,81.9Z" fill="#4c78a8"/><path aria-label="mean execution time in µs: 580; algorithm: (wilczek) AVX NoAlign Outer- and Inner-Loop Vectorization" role="graphics-symbol" aria-roledescription="bar" d="M0,1.9L3.2222222222222223,1.9C5.000615078925112,1.9,6.444444444444445,3.3438293655193334,6.444444444444445,5.122222222222222L6.444444444444445,14.877777777777776C6.444444444444445,16.656170634480663,5.000615078925112,18.099999999999998,3.2222222222222223,18.099999999999998L0,18.099999999999998C0,18.099999999999998,0,18.099999999999998,0,18.099999999999998L0,1.9C0,1.9,0,1.9,0,1.9Z" fill="#4c78a8"/><path aria-label="mean execution time in µs: 16101; algorithm: (chaowang15) convolve1D" role="graphics-symbol" aria-roledescription="bar" d="M0,321.9L174.9,321.9C177.107660097976,321.9,178.9,323.692339902024,178.9,325.9L178.9,334.09999999999997C178.9,336.30766009797594,177.107660097976,338.09999999999997,174.9,338.09999999999997L0,338.09999999999997C0,338.09999999999997,0,338.09999999999997,0,338.09999999999997L0,321.9C0,321.9,0,321.9,0,321.9Z" fill="#4c78a8"/></g><g class="mark-text role-mark child_layer_1_marks" role="graphics-object" aria-roledescription="text mark container"><text aria-label="mean execution time in µs: 935; algorithm: (JohT) kernelPerInputValue Transposed; MeanExecutionTime: 935" role="graphics-symbol" aria-roledescription="text mark" text-anchor="start" transform="translate(14.38888888888889,33)" font-family="sans-serif" font-size="9px" fill="black">935</text><text aria-label="mean execution time in µs: 1694; algorithm: (JohT) inputPerKernelValue Transposed; MeanExecutionTime: 1694" role="graphics-symbol" aria-roledescription="text mark" text-anchor="start" transform="translate(22.822222222222223,53)" font-family="sans-serif" font-size="9px" fill="black">1694</text><text aria-label="mean execution time in µs: 6297; algorithm: (JohT) inputPerKernelValue Transposed InnerLoopUnrolled; MeanExecutionTime: 6297" role="graphics-symbol" aria-roledescription="text mark" text-anchor="start" transform="translate(73.96666666666667,273)" font-family="sans-serif" font-size="9px" fill="black">6297</text><text aria-label="mean execution time in µs: 4653; algorithm: (JohT) inputPerKernelValue Transposed OuterLoopUnrolled; MeanExecutionTime: 4653" role="graphics-symbol" aria-roledescription="text mark" text-anchor="start" transform="translate(55.7,153)" font-family="sans-serif" font-size="9px" fill="black">4653</text><text aria-label="mean execution time in µs: 4257; algorithm: (JohT) inputPerKernelValue Transposed Inner&amp;OuterLoopUnrolled; MeanExecutionTime: 4257" role="graphics-symbol" aria-roledescription="text mark" text-anchor="start" transform="translate(51.3,113)" font-family="sans-serif" font-size="9px" fill="black">4257</text><text aria-label="mean execution time in µs: 6059; algorithm: (JohT) inputPerKernelValue Transposed LoopFission; MeanExecutionTime: 6059" role="graphics-symbol" aria-roledescription="text mark" text-anchor="start" transform="translate(71.32222222222222,233)" font-family="sans-serif" font-size="9px" fill="black">6059</text><text aria-label="mean execution time in µs: 6203; algorithm: (JohT) inputPerKernelValue Transposed LoopFissionIndexArithmetic; MeanExecutionTime: 6203" role="graphics-symbol" aria-roledescription="text mark" text-anchor="start" transform="translate(72.92222222222222,253)" font-family="sans-serif" font-size="9px" fill="black">6203</text><text aria-label="mean execution time in µs: 4504; algorithm: (JohT) kernelPerInputValue Transposed LoopFission; MeanExecutionTime: 4504" role="graphics-symbol" aria-roledescription="text mark" text-anchor="start" transform="translate(54.044444444444444,133)" font-family="sans-serif" font-size="9px" fill="black">4504</text><text aria-label="mean execution time in µs: 15972; algorithm: (matlab-like) conv 'full' shape; MeanExecutionTime: 15972" role="graphics-symbol" aria-roledescription="text mark" text-anchor="start" transform="translate(181.46666666666667,293)" font-family="sans-serif" font-size="9px" fill="black">15972</text><text aria-label="mean execution time in µs: 16045; algorithm: (matlab-like) conv 'valid' shape pre padded; MeanExecutionTime: 16045" role="graphics-symbol" aria-roledescription="text mark" text-anchor="start" transform="translate(182.27777777777777,313)" font-family="sans-serif" font-size="9px" fill="black">16045</text><text aria-label="mean execution time in µs: 16373; algorithm: (wilczek) Single; MeanExecutionTime: 16373" role="graphics-symbol" aria-roledescription="text mark" text-anchor="start" transform="translate(185.92222222222222,353)" font-family="sans-serif" font-size="9px" fill="black">16373</text><text aria-label="mean execution time in µs: 5658; algorithm: (wilczek) Inner-Loop Vectorization; MeanExecutionTime: 5658" role="graphics-symbol" aria-roledescription="text mark" text-anchor="start" transform="translate(66.86666666666667,193)" font-family="sans-serif" font-size="9px" fill="black">5658</text><text aria-label="mean execution time in µs: 5569; algorithm: (wilczek) Outer-Loop Vectorization; MeanExecutionTime: 5569" role="graphics-symbol" aria-roledescription="text mark" text-anchor="start" transform="translate(65.87777777777777,173)" font-family="sans-serif" font-size="9px" fill="black">5569</text><text aria-label="mean execution time in µs: 6027; algorithm: (wilczek) Outer- and Inner-Loop Vectorization; MeanExecutionTime: 6027" role="graphics-symbol" aria-roledescription="text mark" text-anchor="start" transform="translate(70.96666666666667,213)" font-family="sans-serif" font-size="9px" fill="black">6027</text><text aria-label="mean execution time in µs: 1879; algorithm: (wilczek) AVX NoAlign Inner-Loop Vectorization; MeanExecutionTime: 1879" role="graphics-symbol" aria-roledescription="text mark" text-anchor="start" transform="translate(24.87777777777778,73)" font-family="sans-serif" font-size="9px" fill="black">1879</text><text aria-label="mean execution time in µs: 2225; algorithm: (wilczek) AVX NoAlign Outer-Loop Vectorization; MeanExecutionTime: 2225" role="graphics-symbol" aria-roledescription="text mark" text-anchor="start" transform="translate(28.72222222222222,93)" font-family="sans-serif" font-size="9px" fill="black">2225</text><text aria-label="mean execution time in µs: 580; algorithm: (wilczek) AVX NoAlign Outer- and Inner-Loop Vectorization; MeanExecutionTime: 580" role="graphics-symbol" aria-roledescription="text mark" text-anchor="start" transform="translate(10.444444444444445,13)" font-family="sans-serif" font-size="9px" fill="black">580</text><text aria-label="mean execution time in µs: 16101; algorithm: (chaowang15) convolve1D; MeanExecutionTime: 16101" role="graphics-symbol" aria-roledescription="text mark" text-anchor="start" transform="translate(182.9,333)" font-family="sans-serif" font-size="9px" fill="black">16101</text></g></g><path class="foreground" aria-hidden="true" d="" display="none"/></g></g></g><path class="foreground" aria-hidden="true" d="" display="none"/></g></g></g></svg>