<svg xmlns="http://www.w3.org/2000/svg" xmlns:xlink="http://www.w3.org/1999/xlink" version="1.1" class="marks" width="1480" height="464" viewBox="0 0 1480 464"><rect width="1480" height="464" fill="white"/><g fill="none" stroke-miterlimit="10" transform="translate(509,66)"><g class="mark-group role-frame root" role="graphics-object" aria-roledescription="group mark container"><g transform="translate(0,0)"><path class="background" aria-hidden="true" d="M0,0h0v0h0Z"/><g><g class="mark-group role-column-title column-title" role="graphics-object" aria-roledescription="group mark container"><g transform="translate(231,-35)"><path class="background" aria-hidden="true" d="M0,0h0v0h0Z"/><g><g class="mark-group role-title"><g transform="translate(0,-26)"><path class="background" aria-hidden="true" d="M0,0h0v0h0Z" pointer-events="none"/><g><g class="mark-text role-title-text" role="graphics-symbol" aria-roledescription="title" aria-label="Title text 'Convolution Benchmarks'" pointer-events="none"><text text-anchor="middle" transform="translate(0,13)" font-family="sans-serif" font-size="16px" font-weight="bold" fill="#000" opacity="1">Convolution Benchmarks</text></g></g><path class="foreground" aria-hidden="true" d="" pointer-events="none" display="none"/></g></g></g><path class="foreground" aria-hidden="true" d="" display="none"/></g></g><g class="mark-group role-column-header column_header" role="graphics-object" aria-roledescription="group mark container"><g transform="translate(0,-1)"><path class="background" aria-hidden="true" d="M0,0h200v0h-200Z"/><g><g class="mark-group role-title"><g transform="translate(100,-24)"><path class="background" aria-hidden="true" d="M0,0h0v0h0Z" pointer-events="none"/><g><g class="mark-text role-title-text" role="graphics-symbol" aria-roledescription="title" aria-label="Title text 'kernel size 16'" pointer-events="none"><text text-anchor="middle" transform="translate(0,11)" font-family="sans-serif" font-size="14px" fill="#000" opacity="1">kernel size 16</text></g></g><path class="foreground" aria-hidden="true" d="" pointer-events="none" display="none"/></g></g></g><path class="foreground" aria-hidden="true" d="" display="none"/></g><g transform="translate(747,-1)"><path class="background" aria-hidden="true" d="M0,0h200v0h-200Z"/><g><g class="mark-group role-title"><g transform="translate(100,-24)"><path class="background" aria-hidden="true" d="M0,0h0v0h0Z" pointer-events="none"/><g><g class="mark-text role-title-text" role="graphics-symbol" aria-roledescription="title" aria-label="Title text 'kernel size 512'" pointer-events="none"><text text-anchor="middle" transform="translate(0,11)" font-family="sans-serif" font-size="14px" fill="#000" opacity="1">kernel size 512</text></g></g><path class="foreground" aria-hidden="true" d="" pointer-events="none" display="none"/></g></g></g><path class="foreground" aria-hidden="true" d="" display="none"/></g></g><g class="mark-group role-scope cell" role="graphics-object" aria-roledescription="group mark container"><g transform="translate(0,0)"><path class="background" aria-hidden="true" d="M0.5,0.5h200v360h-200Z" stroke="#ddd"/><g><g class="mark-group role-axis" aria-hidden="true"><g transform="translate(0.5,360.5)"><path class="background" aria-hidden="true" d="M0,0h0v0h0Z" pointer-events="none"/><g><g class="mark-rule role-axis-grid" pointer-events="none"><line transform="translate(0,0)" x2="0" y2="-360" stroke="#ddd" stroke-width="1" opacity="1"/><line transform="translate(42,0)" x2="0" y2="-360" stroke="#ddd" stroke-width="1" opacity="1"/><line transform="translate(83,0)" x2="0" y2="-360" stroke="#ddd" stroke-width="1" opacity="1"/><line transform="translate(125,0)" x2="0" y2="-360" stroke="#ddd" stroke-width="1" opacity="1"/><line transform="translate(167,0)" x2="0" y2="-360" stroke="#ddd" stroke-width="1" opacity="1"/></g></g><path class="foreground" aria-hidden="true" d="" pointer-events="none" display="none"/></g></g><g class="mark-group role-axis" role="graphics-symbol" aria-roledescription="axis" aria-label="X-axis titled 'mean execution time in µs' for a linear scale with values from 0 to 240"><g transform="translate(0.5,360.5)"><path class="background" aria-hidden="true" d="M0,0h0v0h0Z" pointer-events="none"/><g><g class="mark-rule role-axis-tick" pointer-events="none"><line transform="translate(0,0)" x2="0" y2="5" stroke="#888" stroke-width="1" opacity="1"/><line transform="translate(42,0)" x2="0" y2="5" stroke="#888" stroke-width="1" opacity="1"/><line transform="translate(83,0)" x2="0" y2="5" stroke="#888" stroke-width="1" opacity="1"/><line transform="translate(125,0)" x2="0" y2="5" stroke="#888" stroke-width="1" opacity="1"/><line transform="translate(167,0)" x2="0" y2="5" stroke="#888" stroke-width="1" opacity="1"/></g><g class="mark-text role-axis-label" pointer-events="none"><text text-anchor="start" transform="translate(0,15)" font-family="sans-serif" font-size="10px" fill="#000" opacity="1">0</text><text text-anchor="middle" transform="translate(41.66666666666667,15)" font-family="sans-serif" font-size="10px" fill="#000" opacity="1">50</text><text text-anchor="middle" transform="translate(83.33333333333334,15)" font-family="sans-serif" font-size="10px" fill="#000" opacity="1">100</text><text text-anchor="middle" transform="translate(125,15)" font-family="sans-serif" font-size="10px" fill="#000" opacity="1">150</text><text text-anchor="middle" transform="translate(166.66666666666669,15)" font-family="sans-serif" font-size="10px" fill="#000" opacity="1">200</text></g><g class="mark-rule role-axis-domain" pointer-events="none"><line transform="translate(0,0)" x2="200" y2="0" stroke="#888" stroke-width="1" opacity="1"/></g><g class="mark-text role-axis-title" pointer-events="none"><text text-anchor="middle" transform="translate(100,30)" font-family="sans-serif" font-size="11px" font-weight="bold" fill="#000" opacity="1">mean execution time in µs</text></g></g><path class="foreground" aria-hidden="true" d="" pointer-events="none" display="none"/></g></g><g class="mark-group role-axis" role="graphics-symbol" aria-roledescription="axis" aria-label="Y-axis titled 'algorithm' for a discrete scale with 18 values: (wilczek) AVX NoAlign Outer-Loop Vectorization, (JohT) inputPerKernelValue Transposed, (wilczek) AVX NoAlign Inner-Loop Vectorization, (wilczek) AVX NoAlign Outer- and Inner-Loop Vectorization, (JohT) kernelPerInputValue Transposed, ending with (JohT) kernelPerInputValue Transposed LoopFission"><g transform="translate(0.5,0.5)"><path class="background" aria-hidden="true" d="M0,0h0v0h0Z" pointer-events="none"/><g><g class="mark-rule role-axis-tick" pointer-events="none"><line transform="translate(0,10)" x2="-5" y2="0" stroke="#888" stroke-width="1" opacity="1"/><line transform="translate(0,30)" x2="-5" y2="0" stroke="#888" stroke-width="1" opacity="1"/><line transform="translate(0,50)" x2="-5" y2="0" stroke="#888" stroke-width="1" opacity="1"/><line transform="translate(0,70)" x2="-5" y2="0" stroke="#888" stroke-width="1" opacity="1"/><line transform="translate(0,90)" x2="-5" y2="0" stroke="#888" stroke-width="1" opacity="1"/><line transform="translate(0,110)" x2="-5" y2="0" stroke="#888" stroke-width="1" opacity="1"/><line transform="translate(0,130)" x2="-5" y2="0" stroke="#888" stroke-width="1" opacity="1"/><line transform="translate(0,150)" x2="-5" y2="0" stroke="#888" stroke-width="1" opacity="1"/><line transform="translate(0,170)" x2="-5" y2="0" stroke="#888" stroke-width="1" opacity="1"/><line transform="translate(0,190)" x2="-5" y2="0" stroke="#888" stroke-width="1" opacity="1"/><line transform="translate(0,210)" x2="-5" y2="0" stroke="#888" stroke-width="1" opacity="1"/><line transform="translate(0,230)" x2="-5" y2="0" stroke="#888" stroke-width="1" opacity="1"/><line transform="translate(0,250)" x2="-5" y2="0" stroke="#888" stroke-width="1" opacity="1"/><line transform="translate(0,270)" x2="-5" y2="0" stroke="#888" stroke-width="1" opacity="1"/><line transform="translate(0,290)" x2="-5" y2="0" stroke="#888" stroke-width="1" opacity="1"/><line transform="translate(0,310)" x2="-5" y2="0" stroke="#888" stroke-width="1" opacity="1"/><line transform="translate(0,330)" x2="-5" y2="0" stroke="#888" stroke-width="1" opacity="1"/><line transform="translate(0,350)" x2="-5" y2="0" stroke="#888" stroke-width="1" opacity="1"/></g><g class="mark-text role-axis-label" pointer-events="none"><text text-anchor="end" transform="translate(-7,12.5)" font-family="sans-serif" font-size="10px" fill="#000" opacity="1">(wilczek) AVX NoAlign Outer-Loop Vectorization</text><text text-anchor="end" transform="translate(-7,32.5)" font-family="sans-serif" font-size="10px" fill="#000" opacity="1">(JohT) inputPerKernelValue Transposed</text><text text-anchor="end" transform="translate(-7,52.5)" font-family="sans-serif" font-size="10px" fill="#000" opacity="1">(wilczek) AVX NoAlign Inner-Loop Vectorization</text><text text-anchor="end" transform="translate(-7,72.5)" font-family="sans-serif" font-size="10px" fill="#000" opacity="1">(wilczek) AVX NoAlign Outer- and Inner-Loop Vectorization</text><text text-anchor="end" transform="translate(-7,92.5)" font-family="sans-serif" font-size="10px" fill="#000" opacity="1">(JohT) kernelPerInputValue Transposed</text><text text-anchor="end" transform="translate(-7,112.5)" font-family="sans-serif" font-size="10px" fill="#000" opacity="1">(JohT) inputPerKernelValue Transposed OuterLoopUnrolled</text><text text-anchor="end" transform="translate(-7,132.5)" font-family="sans-serif" font-size="10px" fill="#000" opacity="1">(wilczek) Outer-Loop Vectorization</text><text text-anchor="end" transform="translate(-7,152.5)" font-family="sans-serif" font-size="10px" fill="#000" opacity="1">(JohT) inputPerKernelValue Transposed Inner&amp;OuterLoopUnrolled</text><text text-anchor="end" transform="translate(-7,172.5)" font-family="sans-serif" font-size="10px" fill="#000" opacity="1">(chaowang15) convolve1D</text><text text-anchor="end" transform="translate(-7,192.5)" font-family="sans-serif" font-size="10px" fill="#000" opacity="1">(wilczek) Inner-Loop Vectorization</text><text text-anchor="end" transform="translate(-7,212.5)" font-family="sans-serif" font-size="10px" fill="#000" opacity="1">(wilczek) Outer- and Inner-Loop Vectorization</text><text text-anchor="end" transform="translate(-7,232.5)" font-family="sans-serif" font-size="10px" fill="#000" opacity="1">(JohT) inputPerKernelValue Transposed LoopFission</text><text text-anchor="end" transform="translate(-7,252.5)" font-family="sans-serif" font-size="10px" fill="#000" opacity="1">(JohT) inputPerKernelValue Transposed LoopFissionIndexArithme…</text><text text-anchor="end" transform="translate(-7,272.5)" font-family="sans-serif" font-size="10px" fill="#000" opacity="1">(JohT) inputPerKernelValue Transposed InnerLoopUnrolled</text><text text-anchor="end" transform="translate(-7,292.5)" font-family="sans-serif" font-size="10px" fill="#000" opacity="1">(matlab-like) conv 'valid' shape pre padded</text><text text-anchor="end" transform="translate(-7,312.5)" font-family="sans-serif" font-size="10px" fill="#000" opacity="1">(matlab-like) conv 'full' shape</text><text text-anchor="end" transform="translate(-7,332.5)" font-family="sans-serif" font-size="10px" fill="#000" opacity="1">(wilczek) Single</text><text text-anchor="end" transform="translate(-7,352.5)" font-family="sans-serif" font-size="10px" fill="#000" opacity="1">(JohT) kernelPerInputValue Transposed LoopFission</text></g><g class="mark-rule role-axis-domain" pointer-events="none"><line transform="translate(0,0)" x2="0" y2="360" stroke="#888" stroke-width="1" opacity="1"/></g><g class="mark-text role-axis-title" pointer-events="none"><text text-anchor="middle" transform="translate(-320,180) rotate(-90) translate(0,-2)" font-family="sans-serif" font-size="11px" font-weight="bold" fill="#000" opacity="1">algorithm</text></g></g><path class="foreground" aria-hidden="true" d="" pointer-events="none" display="none"/></g></g><g class="mark-rect role-mark child_layer_0_marks" role="graphics-object" aria-roledescription="rect mark container"><path aria-label="mean execution time in µs: 126; algorithm: (JohT) kernelPerInputValue Transposed" role="graphics-symbol" aria-roledescription="bar" d="M0,81.9L101,81.9C103.207660097976,81.9,105,83.692339902024,105,85.9L105,94.10000000000001C105,96.30766009797601,103.207660097976,98.10000000000001,101,98.10000000000001L0,98.10000000000001C0,98.10000000000001,0,98.10000000000001,0,98.10000000000001L0,81.9C0,81.9,0,81.9,0,81.9Z" fill="#4c78a8"/><path aria-label="mean execution time in µs: 47; algorithm: (JohT) inputPerKernelValue Transposed" role="graphics-symbol" aria-roledescription="bar" d="M0,21.9L35.166666666666664,21.9C37.37432676464267,21.9,39.166666666666664,23.692339902024,39.166666666666664,25.9L39.166666666666664,34.099999999999994C39.166666666666664,36.307660097976,37.37432676464267,38.099999999999994,35.166666666666664,38.099999999999994L0,38.099999999999994C0,38.099999999999994,0,38.099999999999994,0,38.099999999999994L0,21.9C0,21.9,0,21.9,0,21.9Z" fill="#4c78a8"/><path aria-label="mean execution time in µs: 186; algorithm: (JohT) inputPerKernelValue Transposed InnerLoopUnrolled" role="graphics-symbol" aria-roledescription="bar" d="M0,261.9L151,261.9C153.207660097976,261.9,155,263.692339902024,155,265.9L155,274.09999999999997C155,276.30766009797594,153.207660097976,278.09999999999997,151,278.09999999999997L0,278.09999999999997C0,278.09999999999997,0,278.09999999999997,0,278.09999999999997L0,261.9C0,261.9,0,261.9,0,261.9Z" fill="#4c78a8"/><path aria-label="mean execution time in µs: 132; algorithm: (JohT) inputPerKernelValue Transposed OuterLoopUnrolled" role="graphics-symbol" aria-roledescription="bar" d="M0,101.9L106.00000000000001,101.9C108.20766009797602,101.9,110.00000000000001,103.692339902024,110.00000000000001,105.9L110.00000000000001,114.10000000000001C110.00000000000001,116.30766009797601,108.20766009797602,118.10000000000001,106.00000000000001,118.10000000000001L0,118.10000000000001C0,118.10000000000001,0,118.10000000000001,0,118.10000000000001L0,101.9C0,101.9,0,101.9,0,101.9Z" fill="#4c78a8"/><path aria-label="mean execution time in µs: 134; algorithm: (JohT) inputPerKernelValue Transposed Inner&amp;OuterLoopUnrolled" role="graphics-symbol" aria-roledescription="bar" d="M0,141.9L107.66666666666667,141.9C109.87432676464267,141.9,111.66666666666667,143.692339902024,111.66666666666667,145.9L111.66666666666667,154.1C111.66666666666667,156.307660097976,109.87432676464267,158.1,107.66666666666667,158.1L0,158.1C0,158.1,0,158.1,0,158.1L0,141.9C0,141.9,0,141.9,0,141.9Z" fill="#4c78a8"/><path aria-label="mean execution time in µs: 166; algorithm: (JohT) inputPerKernelValue Transposed LoopFission" role="graphics-symbol" aria-roledescription="bar" d="M0,221.9L134.33333333333334,221.9C136.54099343130935,221.9,138.33333333333334,223.692339902024,138.33333333333334,225.9L138.33333333333334,234.1C138.33333333333334,236.307660097976,136.54099343130935,238.1,134.33333333333334,238.1L0,238.1C0,238.1,0,238.1,0,238.1L0,221.9C0,221.9,0,221.9,0,221.9Z" fill="#4c78a8"/><path aria-label="mean execution time in µs: 175; algorithm: (JohT) inputPerKernelValue Transposed LoopFissionIndexArithmetic" role="graphics-symbol" aria-roledescription="bar" d="M0,241.9L141.83333333333331,241.9C144.04099343130932,241.9,145.83333333333331,243.692339902024,145.83333333333331,245.9L145.83333333333331,254.10000000000002C145.83333333333331,256.307660097976,144.04099343130932,258.1,141.83333333333331,258.1L0,258.1C0,258.1,0,258.1,0,258.1L0,241.9C0,241.9,0,241.9,0,241.9Z" fill="#4c78a8"/><path aria-label="mean execution time in µs: 236; algorithm: (JohT) kernelPerInputValue Transposed LoopFission" role="graphics-symbol" aria-roledescription="bar" d="M0,341.9L192.66666666666666,341.9C194.87432676464266,341.9,196.66666666666666,343.692339902024,196.66666666666666,345.9L196.66666666666666,354.09999999999997C196.66666666666666,356.30766009797594,194.87432676464266,358.09999999999997,192.66666666666666,358.09999999999997L0,358.09999999999997C0,358.09999999999997,0,358.09999999999997,0,358.09999999999997L0,341.9C0,341.9,0,341.9,0,341.9Z" fill="#4c78a8"/><path aria-label="mean execution time in µs: 191; algorithm: (matlab-like) conv 'full' shape" role="graphics-symbol" aria-roledescription="bar" d="M0,301.9L155.16666666666666,301.9C157.37432676464266,301.9,159.16666666666666,303.692339902024,159.16666666666666,305.9L159.16666666666666,314.09999999999997C159.16666666666666,316.30766009797594,157.37432676464266,318.09999999999997,155.16666666666666,318.09999999999997L0,318.09999999999997C0,318.09999999999997,0,318.09999999999997,0,318.09999999999997L0,301.9C0,301.9,0,301.9,0,301.9Z" fill="#4c78a8"/><path aria-label="mean execution time in µs: 189; algorithm: (matlab-like) conv 'valid' shape pre padded" role="graphics-symbol" aria-roledescription="bar" d="M0,281.9L153.5,281.9C155.707660097976,281.9,157.5,283.692339902024,157.5,285.9L157.5,294.09999999999997C157.5,296.30766009797594,155.707660097976,298.09999999999997,153.5,298.09999999999997L0,298.09999999999997C0,298.09999999999997,0,298.09999999999997,0,298.09999999999997L0,281.9C0,281.9,0,281.9,0,281.9Z" fill="#4c78a8"/><path aria-label="mean execution time in µs: 219; algorithm: (wilczek) Single" role="graphics-symbol" aria-roledescription="bar" d="M0,321.9L178.5,321.9C180.707660097976,321.9,182.5,323.692339902024,182.5,325.9L182.5,334.09999999999997C182.5,336.30766009797594,180.707660097976,338.09999999999997,178.5,338.09999999999997L0,338.09999999999997C0,338.09999999999997,0,338.09999999999997,0,338.09999999999997L0,321.9C0,321.9,0,321.9,0,321.9Z" fill="#4c78a8"/><path aria-label="mean execution time in µs: 157; algorithm: (wilczek) Inner-Loop Vectorization" role="graphics-symbol" aria-roledescription="bar" d="M0,181.9L126.83333333333334,181.9C129.04099343130935,181.9,130.83333333333334,183.692339902024,130.83333333333334,185.9L130.83333333333334,194.1C130.83333333333334,196.307660097976,129.04099343130935,198.1,126.83333333333334,198.1L0,198.1C0,198.1,0,198.1,0,198.1L0,181.9C0,181.9,0,181.9,0,181.9Z" fill="#4c78a8"/><path aria-label="mean execution time in µs: 132; algorithm: (wilczek) Outer-Loop Vectorization" role="graphics-symbol" aria-roledescription="bar" d="M0,121.9L106.00000000000001,121.9C108.20766009797602,121.9,110.00000000000001,123.692339902024,110.00000000000001,125.9L110.00000000000001,134.1C110.00000000000001,136.307660097976,108.20766009797602,138.1,106.00000000000001,138.1L0,138.1C0,138.1,0,138.1,0,138.1L0,121.9C0,121.9,0,121.9,0,121.9Z" fill="#4c78a8"/><path aria-label="mean execution time in µs: 162; algorithm: (wilczek) Outer- and Inner-Loop Vectorization" role="graphics-symbol" aria-roledescription="bar" d="M0,201.9L131,201.9C133.207660097976,201.9,135,203.692339902024,135,205.9L135,214.1C135,216.307660097976,133.207660097976,218.1,131,218.1L0,218.1C0,218.1,0,218.1,0,218.1L0,201.9C0,201.9,0,201.9,0,201.9Z" fill="#4c78a8"/><path aria-label="mean execution time in µs: 109; algorithm: (wilczek) AVX NoAlign Inner-Loop Vectorization" role="graphics-symbol" aria-roledescription="bar" d="M0,41.9L86.83333333333333,41.9C89.04099343130933,41.9,90.83333333333333,43.692339902023996,90.83333333333333,45.9L90.83333333333333,54.099999999999994C90.83333333333333,56.307660097976,89.04099343130933,58.099999999999994,86.83333333333333,58.099999999999994L0,58.099999999999994C0,58.099999999999994,0,58.099999999999994,0,58.099999999999994L0,41.9C0,41.9,0,41.9,0,41.9Z" fill="#4c78a8"/><path aria-label="mean execution time in µs: 26; algorithm: (wilczek) AVX NoAlign Outer-Loop Vectorization" role="graphics-symbol" aria-roledescription="bar" d="M0,1.9L17.666666666666668,1.9C19.874326764642667,1.9,21.666666666666668,3.692339902024,21.666666666666668,5.9L21.666666666666668,14.099999999999998C21.666666666666668,16.307660097975997,19.874326764642667,18.099999999999998,17.666666666666668,18.099999999999998L0,18.099999999999998C0,18.099999999999998,0,18.099999999999998,0,18.099999999999998L0,1.9C0,1.9,0,1.9,0,1.9Z" fill="#4c78a8"/><path aria-label="mean execution time in µs: 111; algorithm: (wilczek) AVX NoAlign Outer- and Inner-Loop Vectorization" role="graphics-symbol" aria-roledescription="bar" d="M0,61.9L88.5,61.9C90.707660097976,61.9,92.5,63.692339902023996,92.5,65.9L92.5,74.1C92.5,76.307660097976,90.707660097976,78.1,88.5,78.1L0,78.1C0,78.1,0,78.1,0,78.1L0,61.9C0,61.9,0,61.9,0,61.9Z" fill="#4c78a8"/><path aria-label="mean execution time in µs: 154; algorithm: (chaowang15) convolve1D" role="graphics-symbol" aria-roledescription="bar" d="M0,161.9L124.33333333333334,161.9C126.54099343130935,161.9,128.33333333333334,163.692339902024,128.33333333333334,165.9L128.33333333333334,174.1C128.33333333333334,176.307660097976,126.54099343130935,178.1,124.33333333333334,178.1L0,178.1C0,178.1,0,178.1,0,178.1L0,161.9C0,161.9,0,161.9,0,161.9Z" fill="#4c78a8"/></g><g class="mark-text role-mark child_layer_1_marks" role="graphics-object" aria-roledescription="text mark container"><text aria-label="mean execution time in µs: 126; algorithm: (JohT) kernelPerInputValue Transposed; MeanExecutionTime: 126" role="graphics-symbol" aria-roledescription="text mark" text-anchor="start" transform="translate(109,93)" font-family="sans-serif" font-size="9px" fill="black">126</text><text aria-label="mean execution time in µs: 47; algorithm: (JohT) inputPerKernelValue Transposed; MeanExecutionTime: 47" role="graphics-symbol" aria-roledescription="text mark" text-anchor="start" transform="translate(43.166666666666664,33)" font-family="sans-serif" font-size="9px" fill="black">47</text><text aria-label="mean execution time in µs: 186; algorithm: (JohT) inputPerKernelValue Transposed InnerLoopUnrolled; MeanExecutionTime: 186" role="graphics-symbol" aria-roledescription="text mark" text-anchor="start" transform="translate(159,273)" font-family="sans-serif" font-size="9px" fill="black">186</text><text aria-label="mean execution time in µs: 132; algorithm: (JohT) inputPerKernelValue Transposed OuterLoopUnrolled; MeanExecutionTime: 132" role="graphics-symbol" aria-roledescription="text mark" text-anchor="start" transform="translate(114.00000000000001,113)" font-family="sans-serif" font-size="9px" fill="black">132</text><text aria-label="mean execution time in µs: 134; algorithm: (JohT) inputPerKernelValue Transposed Inner&amp;OuterLoopUnrolled; MeanExecutionTime: 134" role="graphics-symbol" aria-roledescription="text mark" text-anchor="start" transform="translate(115.66666666666667,153)" font-family="sans-serif" font-size="9px" fill="black">134</text><text aria-label="mean execution time in µs: 166; algorithm: (JohT) inputPerKernelValue Transposed LoopFission; MeanExecutionTime: 166" role="graphics-symbol" aria-roledescription="text mark" text-anchor="start" transform="translate(142.33333333333334,233)" font-family="sans-serif" font-size="9px" fill="black">166</text><text aria-label="mean execution time in µs: 175; algorithm: (JohT) inputPerKernelValue Transposed LoopFissionIndexArithmetic; MeanExecutionTime: 175" role="graphics-symbol" aria-roledescription="text mark" text-anchor="start" transform="translate(149.83333333333331,253)" font-family="sans-serif" font-size="9px" fill="black">175</text><text aria-label="mean execution time in µs: 236; algorithm: (JohT) kernelPerInputValue Transposed LoopFission; MeanExecutionTime: 236" role="graphics-symbol" aria-roledescription="text mark" text-anchor="start" transform="translate(200.66666666666666,353)" font-family="sans-serif" font-size="9px" fill="black">236</text><text aria-label="mean execution time in µs: 191; algorithm: (matlab-like) conv 'full' shape; MeanExecutionTime: 191" role="graphics-symbol" aria-roledescription="text mark" text-anchor="start" transform="translate(163.16666666666666,313)" font-family="sans-serif" font-size="9px" fill="black">191</text><text aria-label="mean execution time in µs: 189; algorithm: (matlab-like) conv 'valid' shape pre padded; MeanExecutionTime: 189" role="graphics-symbol" aria-roledescription="text mark" text-anchor="start" transform="translate(161.5,293)" font-family="sans-serif" font-size="9px" fill="black">189</text><text aria-label="mean execution time in µs: 219; algorithm: (wilczek) Single; MeanExecutionTime: 219" role="graphics-symbol" aria-roledescription="text mark" text-anchor="start" transform="translate(186.5,333)" font-family="sans-serif" font-size="9px" fill="black">219</text><text aria-label="mean execution time in µs: 157; algorithm: (wilczek) Inner-Loop Vectorization; MeanExecutionTime: 157" role="graphics-symbol" aria-roledescription="text mark" text-anchor="start" transform="translate(134.83333333333334,193)" font-family="sans-serif" font-size="9px" fill="black">157</text><text aria-label="mean execution time in µs: 132; algorithm: (wilczek) Outer-Loop Vectorization; MeanExecutionTime: 132" role="graphics-symbol" aria-roledescription="text mark" text-anchor="start" transform="translate(114.00000000000001,133)" font-family="sans-serif" font-size="9px" fill="black">132</text><text aria-label="mean execution time in µs: 162; algorithm: (wilczek) Outer- and Inner-Loop Vectorization; MeanExecutionTime: 162" role="graphics-symbol" aria-roledescription="text mark" text-anchor="start" transform="translate(139,213)" font-family="sans-serif" font-size="9px" fill="black">162</text><text aria-label="mean execution time in µs: 109; algorithm: (wilczek) AVX NoAlign Inner-Loop Vectorization; MeanExecutionTime: 109" role="graphics-symbol" aria-roledescription="text mark" text-anchor="start" transform="translate(94.83333333333333,53)" font-family="sans-serif" font-size="9px" fill="black">109</text><text aria-label="mean execution time in µs: 26; algorithm: (wilczek) AVX NoAlign Outer-Loop Vectorization; MeanExecutionTime: 26" role="graphics-symbol" aria-roledescription="text mark" text-anchor="start" transform="translate(25.666666666666668,13)" font-family="sans-serif" font-size="9px" fill="black">26</text><text aria-label="mean execution time in µs: 111; algorithm: (wilczek) AVX NoAlign Outer- and Inner-Loop Vectorization; MeanExecutionTime: 111" role="graphics-symbol" aria-roledescription="text mark" text-anchor="start" transform="translate(96.5,73)" font-family="sans-serif" font-size="9px" fill="black">111</text><text aria-label="mean execution time in µs: 154; algorithm: (chaowang15) convolve1D; MeanExecutionTime: 154" role="graphics-symbol" aria-roledescription="text mark" text-anchor="start" transform="translate(132.33333333333334,173)" font-family="sans-serif" font-size="9px" fill="black">154</text></g></g><path class="foreground" aria-hidden="true" d="" display="none"/></g><g transform="translate(747,0)"><path class="background" aria-hidden="true" d="M0.5,0.5h200v360h-200Z" stroke="#ddd"/><g><g class="mark-group role-axis" aria-hidden="true"><g transform="translate(0.5,360.5)"><path class="background" aria-hidden="true" d="M0,0h0v0h0Z" pointer-events="none"/><g><g class="mark-rule role-axis-grid" pointer-events="none"><line transform="translate(0,0)" x2="0" y2="-360" stroke="#ddd" stroke-width="1" opacity="1"/><line transform="translate(63,0)" x2="0" y2="-360" stroke="#ddd" stroke-width="1" opacity="1"/><line transform="translate(125,0)" x2="0" y2="-360" stroke="#ddd" stroke-width="1" opacity="1"/><line transform="translate(188,0)" x2="0" y2="-360" stroke="#ddd" stroke-width="1" opacity="1"/></g></g><path class="foreground" aria-hidden="true" d="" pointer-events="none" display="none"/></g></g><g class="mark-group role-axis" role="graphics-symbol" aria-roledescription="axis" aria-label="X-axis titled 'mean execution time in µs' for a linear scale with values from 0 to 16,000"><g transform="translate(0.5,360.5)"><path class="background" aria-hidden="true" d="M0,0h0v0h0Z" pointer-events="none"/><g><g class="mark-rule role-axis-tick" pointer-events="none"><line transform="translate(0,0)" x2="0" y2="5" stroke="#888" stroke-width="1" opacity="1"/><line transform="translate(63,0)" x2="0" y2="5" stroke="#888" stroke-width="1" opacity="1"/><line transform="translate(125,0)" x2="0" y2="5" stroke="#888" stroke-width="1" opacity="1"/><line transform="translate(188,0)" x2="0" y2="5" stroke="#888" stroke-width="1" opacity="1"/></g><g class="mark-text role-axis-label" pointer-events="none"><text text-anchor="start" transform="translate(0,15)" font-family="sans-serif" font-size="10px" fill="#000" opacity="1">0</text><text text-anchor="middle" transform="translate(62.5,15)" font-family="sans-serif" font-size="10px" fill="#000" opacity="1">5,000</text><text text-anchor="middle" transform="translate(125,15)" font-family="sans-serif" font-size="10px" fill="#000" opacity="1">10,000</text><text text-anchor="middle" transform="translate(187.5,15)" font-family="sans-serif" font-size="10px" fill="#000" opacity="1">15,000</text></g><g class="mark-rule role-axis-domain" pointer-events="none"><line transform="translate(0,0)" x2="200" y2="0" stroke="#888" stroke-width="1" opacity="1"/></g><g class="mark-text role-axis-title" pointer-events="none"><text text-anchor="middle" transform="translate(100,30)" font-family="sans-serif" font-size="11px" font-weight="bold" fill="#000" opacity="1">mean execution time in µs</text></g></g><path class="foreground" aria-hidden="true" d="" pointer-events="none" display="none"/></g></g><g class="mark-group role-axis" role="graphics-symbol" aria-roledescription="axis" aria-label="Y-axis titled 'algorithm' for a discrete scale with 18 values: (wilczek) AVX NoAlign Outer- and Inner-Loop Vectorization, (JohT) kernelPerInputValue Transposed, (wilczek) AVX NoAlign Inner-Loop Vectorization, (JohT) inputPerKernelValue Transposed, (wilczek) AVX NoAlign Outer-Loop Vectorization, ending with (chaowang15) convolve1D"><g transform="translate(0.5,0.5)"><path class="background" aria-hidden="true" d="M0,0h0v0h0Z" pointer-events="none"/><g><g class="mark-rule role-axis-tick" pointer-events="none"><line transform="translate(0,10)" x2="-5" y2="0" stroke="#888" stroke-width="1" opacity="1"/><line transform="translate(0,30)" x2="-5" y2="0" stroke="#888" stroke-width="1" opacity="1"/><line transform="translate(0,50)" x2="-5" y2="0" stroke="#888" stroke-width="1" opacity="1"/><line transform="translate(0,70)" x2="-5" y2="0" stroke="#888" stroke-width="1" opacity="1"/><line transform="translate(0,90)" x2="-5" y2="0" stroke="#888" stroke-width="1" opacity="1"/><line transform="translate(0,110)" x2="-5" y2="0" stroke="#888" stroke-width="1" opacity="1"/><line transform="translate(0,130)" x2="-5" y2="0" stroke="#888" stroke-width="1" opacity="1"/><line transform="translate(0,150)" x2="-5" y2="0" stroke="#888" stroke-width="1" opacity="1"/><line transform="translate(0,170)" x2="-5" y2="0" stroke="#888" stroke-width="1" opacity="1"/><line transform="translate(0,190)" x2="-5" y2="0" stroke="#888" stroke-width="1" opacity="1"/><line transform="translate(0,210)" x2="-5" y2="0" stroke="#888" stroke-width="1" opacity="1"/><line transform="translate(0,230)" x2="-5" y2="0" stroke="#888" stroke-width="1" opacity="1"/><line transform="translate(0,250)" x2="-5" y2="0" stroke="#888" stroke-width="1" opacity="1"/><line transform="translate(0,270)" x2="-5" y2="0" stroke="#888" stroke-width="1" opacity="1"/><line transform="translate(0,290)" x2="-5" y2="0" stroke="#888" stroke-width="1" opacity="1"/><line transform="translate(0,310)" x2="-5" y2="0" stroke="#888" stroke-width="1" opacity="1"/><line transform="translate(0,330)" x2="-5" y2="0" stroke="#888" stroke-width="1" opacity="1"/><line transform="translate(0,350)" x2="-5" y2="0" stroke="#888" stroke-width="1" opacity="1"/></g><g class="mark-text role-axis-label" pointer-events="none"><text text-anchor="end" transform="translate(-7,12.5)" font-family="sans-serif" font-size="10px" fill="#000" opacity="1">(wilczek) AVX NoAlign Outer- and Inner-Loop Vectorization</text><text text-anchor="end" transform="translate(-7,32.5)" font-family="sans-serif" font-size="10px" fill="#000" opacity="1">(JohT) kernelPerInputValue Transposed</text><text text-anchor="end" transform="translate(-7,52.5)" font-family="sans-serif" font-size="10px" fill="#000" opacity="1">(wilczek) AVX NoAlign Inner-Loop Vectorization</text><text text-anchor="end" transform="translate(-7,72.5)" font-family="sans-serif" font-size="10px" fill="#000" opacity="1">(JohT) inputPerKernelValue Transposed</text><text text-anchor="end" transform="translate(-7,92.5)" font-family="sans-serif" font-size="10px" fill="#000" opacity="1">(wilczek) AVX NoAlign Outer-Loop Vectorization</text><text text-anchor="end" transform="translate(-7,112.5)" font-family="sans-serif" font-size="10px" fill="#000" opacity="1">(wilczek) Outer-Loop Vectorization</text><text text-anchor="end" transform="translate(-7,132.5)" font-family="sans-serif" font-size="10px" fill="#000" opacity="1">(JohT) kernelPerInputValue Transposed LoopFission</text><text text-anchor="end" transform="translate(-7,152.5)" font-family="sans-serif" font-size="10px" fill="#000" opacity="1">(JohT) inputPerKernelValue Transposed OuterLoopUnrolled</text><text text-anchor="end" transform="translate(-7,172.5)" font-family="sans-serif" font-size="10px" fill="#000" opacity="1">(JohT) inputPerKernelValue Transposed Inner&amp;OuterLoopUnrolled</text><text text-anchor="end" transform="translate(-7,192.5)" font-family="sans-serif" font-size="10px" fill="#000" opacity="1">(wilczek) Inner-Loop Vectorization</text><text text-anchor="end" transform="translate(-7,212.5)" font-family="sans-serif" font-size="10px" fill="#000" opacity="1">(wilczek) Outer- and Inner-Loop Vectorization</text><text text-anchor="end" transform="translate(-7,232.5)" font-family="sans-serif" font-size="10px" fill="#000" opacity="1">(JohT) inputPerKernelValue Transposed LoopFissionIndexArithme…</text><text text-anchor="end" transform="translate(-7,252.5)" font-family="sans-serif" font-size="10px" fill="#000" opacity="1">(JohT) inputPerKernelValue Transposed LoopFission</text><text text-anchor="end" transform="translate(-7,272.5)" font-family="sans-serif" font-size="10px" fill="#000" opacity="1">(JohT) inputPerKernelValue Transposed InnerLoopUnrolled</text><text text-anchor="end" transform="translate(-7,292.5)" font-family="sans-serif" font-size="10px" fill="#000" opacity="1">(matlab-like) conv 'valid' shape pre padded</text><text text-anchor="end" transform="translate(-7,312.5)" font-family="sans-serif" font-size="10px" fill="#000" opacity="1">(wilczek) Single</text><text text-anchor="end" transform="translate(-7,332.5)" font-family="sans-serif" font-size="10px" fill="#000" opacity="1">(matlab-like) conv 'full' shape</text><text text-anchor="end" transform="translate(-7,352.5)" font-family="sans-serif" font-size="10px" fill="#000" opacity="1">(chaowang15) convolve1D</text></g><g class="mark-rule role-axis-domain" pointer-events="none"><line transform="translate(0,0)" x2="0" y2="360" stroke="#888" stroke-width="1" opacity="1"/></g><g class="mark-text role-axis-title" pointer-events="none"><text text-anchor="middle" transform="translate(-320,180) rotate(-90) translate(0,-2)" font-family="sans-serif" font-size="11px" font-weight="bold" fill="#000" opacity="1">algorithm</text></g></g><path class="foreground" aria-hidden="true" d="" pointer-events="none" display="none"/></g></g><g class="mark-rect role-mark child_layer_0_marks" role="graphics-object" aria-roledescription="rect mark container"><path aria-label="mean execution time in µs: 698; algorithm: (JohT) kernelPerInputValue Transposed" role="graphics-symbol" aria-roledescription="bar" d="M0,21.9L4.725,21.9C6.932660097975999,21.9,8.725,23.692339902024,8.725,25.9L8.725,34.099999999999994C8.725,36.307660097976,6.932660097975999,38.099999999999994,4.725,38.099999999999994L0,38.099999999999994C0,38.099999999999994,0,38.099999999999994,0,38.099999999999994L0,21.9C0,21.9,0,21.9,0,21.9Z" fill="#4c78a8"/><path aria-label="mean execution time in µs: 1434; algorithm: (JohT) inputPerKernelValue Transposed" role="graphics-symbol" aria-roledescription="bar" d="M0,61.9L13.925,61.9C16.132660097976,61.9,17.925,63.692339902023996,17.925,65.9L17.925,74.1C17.925,76.307660097976,16.132660097976,78.1,13.925,78.1L0,78.1C0,78.1,0,78.1,0,78.1L0,61.9C0,61.9,0,61.9,0,61.9Z" fill="#4c78a8"/><path aria-label="mean execution time in µs: 5949; algorithm: (JohT) inputPerKernelValue Transposed InnerLoopUnrolled" role="graphics-symbol" aria-roledescription="bar" d="M0,261.9L70.3625,261.9C72.570160097976,261.9,74.3625,263.692339902024,74.3625,265.9L74.3625,274.09999999999997C74.3625,276.30766009797594,72.570160097976,278.09999999999997,70.3625,278.09999999999997L0,278.09999999999997C0,278.09999999999997,0,278.09999999999997,0,278.09999999999997L0,261.9C0,261.9,0,261.9,0,261.9Z" fill="#4c78a8"/><path aria-label="mean execution time in µs: 4262; algorithm: (JohT) inputPerKernelValue Transposed OuterLoopUnrolled" role="graphics-symbol" aria-roledescription="bar" d="M0,141.9L49.27499999999999,141.9C51.482660097975995,141.9,53.27499999999999,143.692339902024,53.27499999999999,145.9L53.27499999999999,154.1C53.27499999999999,156.307660097976,51.482660097975995,158.1,49.27499999999999,158.1L0,158.1C0,158.1,0,158.1,0,158.1L0,141.9C0,141.9,0,141.9,0,141.9Z" fill="#4c78a8"/><path aria-label="mean execution time in µs: 4295; algorithm: (JohT) inputPerKernelValue Transposed Inner&amp;OuterLoopUnrolled" role="graphics-symbol" aria-roledescription="bar" d="M0,161.9L49.6875,161.9C51.895160097976,161.9,53.6875,163.692339902024,53.6875,165.9L53.6875,174.1C53.6875,176.307660097976,51.895160097976,178.1,49.6875,178.1L0,178.1C0,178.1,0,178.1,0,178.1L0,161.9C0,161.9,0,161.9,0,161.9Z" fill="#4c78a8"/><path aria-label="mean execution time in µs: 5237; algorithm: (JohT) inputPerKernelValue Transposed LoopFission" role="graphics-symbol" aria-roledescription="bar" d="M0,241.9L61.462500000000006,241.9C63.67016009797601,241.9,65.4625,243.692339902024,65.4625,245.9L65.4625,254.10000000000002C65.4625,256.307660097976,63.67016009797601,258.1,61.462500000000006,258.1L0,258.1C0,258.1,0,258.1,0,258.1L0,241.9C0,241.9,0,241.9,0,241.9Z" fill="#4c78a8"/><path aria-label="mean execution time in µs: 5221; algorithm: (JohT) inputPerKernelValue Transposed LoopFissionIndexArithmetic" role="graphics-symbol" aria-roledescription="bar" d="M0,221.9L61.2625,221.9C63.470160097976006,221.9,65.2625,223.692339902024,65.2625,225.9L65.2625,234.1C65.2625,236.307660097976,63.470160097976006,238.1,61.2625,238.1L0,238.1C0,238.1,0,238.1,0,238.1L0,221.9C0,221.9,0,221.9,0,221.9Z" fill="#4c78a8"/><path aria-label="mean execution time in µs: 4219; algorithm: (JohT) kernelPerInputValue Transposed LoopFission" role="graphics-symbol" aria-roledescription="bar" d="M0,121.9L48.737500000000004,121.9C50.94516009797601,121.9,52.737500000000004,123.692339902024,52.737500000000004,125.9L52.737500000000004,134.1C52.737500000000004,136.307660097976,50.94516009797601,138.1,48.737500000000004,138.1L0,138.1C0,138.1,0,138.1,0,138.1L0,121.9C0,121.9,0,121.9,0,121.9Z" fill="#4c78a8"/><path aria-label="mean execution time in µs: 14003; algorithm: (matlab-like) conv 'full' shape" role="graphics-symbol" aria-roledescription="bar" d="M0,321.9L171.0375,321.9C173.245160097976,321.9,175.0375,323.692339902024,175.0375,325.9L175.0375,334.09999999999997C175.0375,336.30766009797594,173.245160097976,338.09999999999997,171.0375,338.09999999999997L0,338.09999999999997C0,338.09999999999997,0,338.09999999999997,0,338.09999999999997L0,321.9C0,321.9,0,321.9,0,321.9Z" fill="#4c78a8"/><path aria-label="mean execution time in µs: 13137; algorithm: (matlab-like) conv 'valid' shape pre padded" role="graphics-symbol" aria-roledescription="bar" d="M0,281.9L160.2125,281.9C162.420160097976,281.9,164.2125,283.692339902024,164.2125,285.9L164.2125,294.09999999999997C164.2125,296.30766009797594,162.420160097976,298.09999999999997,160.2125,298.09999999999997L0,298.09999999999997C0,298.09999999999997,0,298.09999999999997,0,298.09999999999997L0,281.9C0,281.9,0,281.9,0,281.9Z" fill="#4c78a8"/><path aria-label="mean execution time in µs: 13625; algorithm: (wilczek) Single" role="graphics-symbol" aria-roledescription="bar" d="M0,301.9L166.3125,301.9C168.520160097976,301.9,170.3125,303.692339902024,170.3125,305.9L170.3125,314.09999999999997C170.3125,316.30766009797594,168.520160097976,318.09999999999997,166.3125,318.09999999999997L0,318.09999999999997C0,318.09999999999997,0,318.09999999999997,0,318.09999999999997L0,301.9C0,301.9,0,301.9,0,301.9Z" fill="#4c78a8"/><path aria-label="mean execution time in µs: 4558; algorithm: (wilczek) Inner-Loop Vectorization" role="graphics-symbol" aria-roledescription="bar" d="M0,181.9L52.974999999999994,181.9C55.182660097976,181.9,56.974999999999994,183.692339902024,56.974999999999994,185.9L56.974999999999994,194.1C56.974999999999994,196.307660097976,55.182660097976,198.1,52.974999999999994,198.1L0,198.1C0,198.1,0,198.1,0,198.1L0,181.9C0,181.9,0,181.9,0,181.9Z" fill="#4c78a8"/><path aria-label="mean execution time in µs: 4071; algorithm: (wilczek) Outer-Loop Vectorization" role="graphics-symbol" aria-roledescription="bar" d="M0,101.9L46.887499999999996,101.9C49.095160097976,101.9,50.887499999999996,103.692339902024,50.887499999999996,105.9L50.887499999999996,114.10000000000001C50.887499999999996,116.30766009797601,49.095160097976,118.10000000000001,46.887499999999996,118.10000000000001L0,118.10000000000001C0,118.10000000000001,0,118.10000000000001,0,118.10000000000001L0,101.9C0,101.9,0,101.9,0,101.9Z" fill="#4c78a8"/><path aria-label="mean execution time in µs: 5080; algorithm: (wilczek) Outer- and Inner-Loop Vectorization" role="graphics-symbol" aria-roledescription="bar" d="M0,201.9L59.5,201.9C61.707660097976,201.9,63.5,203.692339902024,63.5,205.9L63.5,214.1C63.5,216.307660097976,61.707660097976,218.1,59.5,218.1L0,218.1C0,218.1,0,218.1,0,218.1L0,201.9C0,201.9,0,201.9,0,201.9Z" fill="#4c78a8"/><path aria-label="mean execution time in µs: 1280; algorithm: (wilczek) AVX NoAlign Inner-Loop Vectorization" role="graphics-symbol" aria-roledescription="bar" d="M0,41.9L12,41.9C14.207660097976,41.9,16,43.692339902023996,16,45.9L16,54.099999999999994C16,56.307660097976,14.207660097976,58.099999999999994,12,58.099999999999994L0,58.099999999999994C0,58.099999999999994,0,58.099999999999994,0,58.099999999999994L0,41.9C0,41.9,0,41.9,0,41.9Z" fill="#4c78a8"/><path aria-label="mean execution time in µs: 1635; algorithm: (wilczek) AVX NoAlign Outer-Loop Vectorization" role="graphics-symbol" aria-roledescription="bar" d="M0,81.9L16.4375,81.9C18.645160097976,81.9,20.4375,83.692339902024,20.4375,85.9L20.4375,94.10000000000001C20.4375,96.30766009797601,18.645160097976,98.10000000000001,16.4375,98.10000000000001L0,98.10000000000001C0,98.10000000000001,0,98.10000000000001,0,98.10000000000001L0,81.9C0,81.9,0,81.9,0,81.9Z" fill="#4c78a8"/><path aria-label="mean execution time in µs: 455; algorithm: (wilczek) AVX NoAlign Outer- and Inner-Loop Vectorization" role="graphics-symbol" aria-roledescription="bar" d="M0,1.9L2.84375,1.9C4.413258350904813,1.9,5.6875,3.1742416490951877,5.6875,4.74375L5.6875,15.256249999999998C5.6875,16.82575835090481,4.413258350904813,18.099999999999998,2.84375,18.099999999999998L0,18.099999999999998C0,18.099999999999998,0,18.099999999999998,0,18.099999999999998L0,1.9C0,1.9,0,1.9,0,1.9Z" fill="#4c78a8"/><path aria-label="mean execution time in µs: 14178; algorithm: (chaowang15) convolve1D" role="graphics-symbol" aria-roledescription="bar" d="M0,341.9L173.22500000000002,341.9C175.43266009797603,341.9,177.22500000000002,343.692339902024,177.22500000000002,345.9L177.22500000000002,354.09999999999997C177.22500000000002,356.30766009797594,175.43266009797603,358.09999999999997,173.22500000000002,358.09999999999997L0,358.09999999999997C0,358.09999999999997,0,358.09999999999997,0,358.09999999999997L0,341.9C0,341.9,0,341.9,0,341.9Z" fill="#4c78a8"/></g><g class="mark-text role-mark child_layer_1_marks" role="graphics-object" aria-roledescription="text mark container"><text aria-label="mean execution time in µs: 698; algorithm: (JohT) kernelPerInputValue Transposed; MeanExecutionTime: 698" role="graphics-symbol" aria-roledescription="text mark" text-anchor="start" transform="translate(12.725,33)" font-family="sans-serif" font-size="9px" fill="black">698</text><text aria-label="mean execution time in µs: 1434; algorithm: (JohT) inputPerKernelValue Transposed; MeanExecutionTime: 1434" role="graphics-symbol" aria-roledescription="text mark" text-anchor="start" transform="translate(21.925,73)" font-family="sans-serif" font-size="9px" fill="black">1434</text><text aria-label="mean execution time in µs: 5949; algorithm: (JohT) inputPerKernelValue Transposed InnerLoopUnrolled; MeanExecutionTime: 5949" role="graphics-symbol" aria-roledescription="text mark" text-anchor="start" transform="translate(78.3625,273)" font-family="sans-serif" font-size="9px" fill="black">5949</text><text aria-label="mean execution time in µs: 4262; algorithm: (JohT) inputPerKernelValue Transposed OuterLoopUnrolled; MeanExecutionTime: 4262" role="graphics-symbol" aria-roledescription="text mark" text-anchor="start" transform="translate(57.27499999999999,153)" font-family="sans-serif" font-size="9px" fill="black">4262</text><text aria-label="mean execution time in µs: 4295; algorithm: (JohT) inputPerKernelValue Transposed Inner&amp;OuterLoopUnrolled; MeanExecutionTime: 4295" role="graphics-symbol" aria-roledescription="text mark" text-anchor="start" transform="translate(57.6875,173)" font-family="sans-serif" font-size="9px" fill="black">4295</text><text aria-label="mean execution time in µs: 5237; algorithm: (JohT) inputPerKernelValue Transposed LoopFission; MeanExecutionTime: 5237" role="graphics-symbol" aria-roledescription="text mark" text-anchor="start" transform="translate(69.4625,253)" font-family="sans-serif" font-size="9px" fill="black">5237</text><text aria-label="mean execution time in µs: 5221; algorithm: (JohT) inputPerKernelValue Transposed LoopFissionIndexArithmetic; MeanExecutionTime: 5221" role="graphics-symbol" aria-roledescription="text mark" text-anchor="start" transform="translate(69.2625,233)" font-family="sans-serif" font-size="9px" fill="black">5221</text><text aria-label="mean execution time in µs: 4219; algorithm: (JohT) kernelPerInputValue Transposed LoopFission; MeanExecutionTime: 4219" role="graphics-symbol" aria-roledescription="text mark" text-anchor="start" transform="translate(56.737500000000004,133)" font-family="sans-serif" font-size="9px" fill="black">4219</text><text aria-label="mean execution time in µs: 14003; algorithm: (matlab-like) conv 'full' shape; MeanExecutionTime: 14003" role="graphics-symbol" aria-roledescription="text mark" text-anchor="start" transform="translate(179.0375,333)" font-family="sans-serif" font-size="9px" fill="black">14003</text><text aria-label="mean execution time in µs: 13137; algorithm: (matlab-like) conv 'valid' shape pre padded; MeanExecutionTime: 13137" role="graphics-symbol" aria-roledescription="text mark" text-anchor="start" transform="translate(168.2125,293)" font-family="sans-serif" font-size="9px" fill="black">13137</text><text aria-label="mean execution time in µs: 13625; algorithm: (wilczek) Single; MeanExecutionTime: 13625" role="graphics-symbol" aria-roledescription="text mark" text-anchor="start" transform="translate(174.3125,313)" font-family="sans-serif" font-size="9px" fill="black">13625</text><text aria-label="mean execution time in µs: 4558; algorithm: (wilczek) Inner-Loop Vectorization; MeanExecutionTime: 4558" role="graphics-symbol" aria-roledescription="text mark" text-anchor="start" transform="translate(60.974999999999994,193)" font-family="sans-serif" font-size="9px" fill="black">4558</text><text aria-label="mean execution time in µs: 4071; algorithm: (wilczek) Outer-Loop Vectorization; MeanExecutionTime: 4071" role="graphics-symbol" aria-roledescription="text mark" text-anchor="start" transform="translate(54.887499999999996,113)" font-family="sans-serif" font-size="9px" fill="black">4071</text><text aria-label="mean execution time in µs: 5080; algorithm: (wilczek) Outer- and Inner-Loop Vectorization; MeanExecutionTime: 5080" role="graphics-symbol" aria-roledescription="text mark" text-anchor="start" transform="translate(67.5,213)" font-family="sans-serif" font-size="9px" fill="black">5080</text><text aria-label="mean execution time in µs: 1280; algorithm: (wilczek) AVX NoAlign Inner-Loop Vectorization; MeanExecutionTime: 1280" role="graphics-symbol" aria-roledescription="text mark" text-anchor="start" transform="translate(20,53)" font-family="sans-serif" font-size="9px" fill="black">1280</text><text aria-label="mean execution time in µs: 1635; algorithm: (wilczek) AVX NoAlign Outer-Loop Vectorization; MeanExecutionTime: 1635" role="graphics-symbol" aria-roledescription="text mark" text-anchor="start" transform="translate(24.4375,93)" font-family="sans-serif" font-size="9px" fill="black">1635</text><text aria-label="mean execution time in µs: 455; algorithm: (wilczek) AVX NoAlign Outer- and Inner-Loop Vectorization; MeanExecutionTime: 455" role="graphics-symbol" aria-roledescription="text mark" text-anchor="start" transform="translate(9.6875,13)" font-family="sans-serif" font-size="9px" fill="black">455</text><text aria-label="mean execution time in µs: 14178; algorithm: (chaowang15) convolve1D; MeanExecutionTime: 14178" role="graphics-symbol" aria-roledescription="text mark" text-anchor="start" transform="translate(181.22500000000002,353)" font-family="sans-serif" font-size="9px" fill="black">14178</text></g></g><path class="foreground" aria-hidden="true" d="" display="none"/></g></g></g><path class="foreground" aria-hidden="true" d="" display="none"/></g></g></g></svg>