<svg xmlns="http://www.w3.org/2000/svg" xmlns:xlink="http://www.w3.org/1999/xlink" version="1.1" class="marks" width="1486" height="404" viewBox="0 0 1486 404"><rect width="1486" height="404" fill="white"/><g fill="none" stroke-miterlimit="10" transform="translate(509,66)"><g class="mark-group role-frame root" role="graphics-object" aria-roledescription="group mark container"><g transform="translate(0,0)"><path class="background" aria-hidden="true" d="M0,0h0v0h0Z"/><g><g class="mark-group role-column-title column-title" role="graphics-object" aria-roledescription="group mark container"><g transform="translate(234,-35)"><path class="background" aria-hidden="true" d="M0,0h0v0h0Z"/><g><g class="mark-group role-title"><g transform="translate(0,-26)"><path class="background" aria-hidden="true" d="M0,0h0v0h0Z" pointer-events="none"/><g><g class="mark-text role-title-text" role="graphics-symbol" aria-roledescription="title" aria-label="Title text 'Convolution Benchmarks'" pointer-events="none"><text text-anchor="middle" transform="translate(0,13)" font-family="sans-serif" font-size="16px" font-weight="bold" fill="#000" opacity="1">Convolution Benchmarks</text></g></g><path class="foreground" aria-hidden="true" d="" pointer-events="none" display="none"/></g></g></g><path class="foreground" aria-hidden="true" d="" display="none"/></g></g><g class="mark-group role-column-header column_header" role="graphics-object" aria-roledescription="group mark container"><g transform="translate(0,-1)"><path class="background" aria-hidden="true" d="M0,0h200v0h-200Z"/><g><g class="mark-group role-title"><g transform="translate(100,-24)"><path class="background" aria-hidden="true" d="M0,0h0v0h0Z" pointer-events="none"/><g><g class="mark-text role-title-text" role="graphics-symbol" aria-roledescription="title" aria-label="Title text 'kernel size 16'" pointer-events="none"><text text-anchor="middle" transform="translate(0,11)" font-family="sans-serif" font-size="14px" fill="#000" opacity="1">kernel size 16</text></g></g><path class="foreground" aria-hidden="true" d="" pointer-events="none" display="none"/></g></g></g><path class="foreground" aria-hidden="true" d="" display="none"/></g><g transform="translate(743,-1)"><path class="background" aria-hidden="true" d="M0,0h200v0h-200Z"/><g><g class="mark-group role-title"><g transform="translate(100,-24)"><path class="background" aria-hidden="true" d="M0,0h0v0h0Z" pointer-events="none"/><g><g class="mark-text role-title-text" role="graphics-symbol" aria-roledescription="title" aria-label="Title text 'kernel size 512'" pointer-events="none"><text text-anchor="middle" transform="translate(0,11)" font-family="sans-serif" font-size="14px" fill="#000" opacity="1">kernel size 512</text></g></g><path class="foreground" aria-hidden="true" d="" pointer-events="none" display="none"/></g></g></g><path class="foreground" aria-hidden="true" d="" display="none"/></g></g><g class="mark-group role-scope cell" role="graphics-object" aria-roledescription="group mark container"><g transform="translate(0,0)"><path class="background" aria-hidden="true" d="M0.5,0.5h200v300h-200Z" stroke="#ddd"/><g><g class="mark-group role-axis" aria-hidden="true"><g transform="translate(0.5,300.5)"><path class="background" aria-hidden="true" d="M0,0h0v0h0Z" pointer-events="none"/><g><g class="mark-rule role-axis-grid" pointer-events="none"><line transform="translate(0,0)" x2="0" y2="-300" stroke="#ddd" stroke-width="1" opacity="1"/><line transform="translate(45,0)" x2="0" y2="-300" stroke="#ddd" stroke-width="1" opacity="1"/><line transform="translate(91,0)" x2="0" y2="-300" stroke="#ddd" stroke-width="1" opacity="1"/><line transform="translate(136,0)" x2="0" y2="-300" stroke="#ddd" stroke-width="1" opacity="1"/><line transform="translate(182,0)" x2="0" y2="-300" stroke="#ddd" stroke-width="1" opacity="1"/></g></g><path class="foreground" aria-hidden="true" d="" pointer-events="none" display="none"/></g></g><g class="mark-group role-axis" role="graphics-symbol" aria-roledescription="axis" aria-label="X-axis titled 'mean execution time in µs' for a linear scale with values from 0 to 220"><g transform="translate(0.5,300.5)"><path class="background" aria-hidden="true" d="M0,0h0v0h0Z" pointer-events="none"/><g><g class="mark-rule role-axis-tick" pointer-events="none"><line transform="translate(0,0)" x2="0" y2="5" stroke="#888" stroke-width="1" opacity="1"/><line transform="translate(45,0)" x2="0" y2="5" stroke="#888" stroke-width="1" opacity="1"/><line transform="translate(91,0)" x2="0" y2="5" stroke="#888" stroke-width="1" opacity="1"/><line transform="translate(136,0)" x2="0" y2="5" stroke="#888" stroke-width="1" opacity="1"/><line transform="translate(182,0)" x2="0" y2="5" stroke="#888" stroke-width="1" opacity="1"/></g><g class="mark-text role-axis-label" pointer-events="none"><text text-anchor="start" transform="translate(0,15)" font-family="sans-serif" font-size="10px" fill="#000" opacity="1">0</text><text text-anchor="middle" transform="translate(45.45454545454545,15)" font-family="sans-serif" font-size="10px" fill="#000" opacity="1">50</text><text text-anchor="middle" transform="translate(90.9090909090909,15)" font-family="sans-serif" font-size="10px" fill="#000" opacity="1">100</text><text text-anchor="middle" transform="translate(136.36363636363635,15)" font-family="sans-serif" font-size="10px" fill="#000" opacity="1">150</text><text text-anchor="middle" transform="translate(181.8181818181818,15)" font-family="sans-serif" font-size="10px" fill="#000" opacity="1">200</text></g><g class="mark-rule role-axis-domain" pointer-events="none"><line transform="translate(0,0)" x2="200" y2="0" stroke="#888" stroke-width="1" opacity="1"/></g><g class="mark-text role-axis-title" pointer-events="none"><text text-anchor="middle" transform="translate(100,30)" font-family="sans-serif" font-size="11px" font-weight="bold" fill="#000" opacity="1">mean execution time in µs</text></g></g><path class="foreground" aria-hidden="true" d="" pointer-events="none" display="none"/></g></g><g class="mark-group role-axis" role="graphics-symbol" aria-roledescription="axis" aria-label="Y-axis titled 'algorithm' for a discrete scale with 15 values: (JohT) inputPerKernelValue Transposed, (JohT) inputPerKernelValue Transposed LoopFissionIndexArithmetic, (JohT) inputPerKernelValue Transposed LoopFission, (JohT) kernelPerInputValue Transposed, (JohT) inputPerKernelValue Transposed Inner&amp;OuterLoopUnrolled, ending with (matlab-like) conv 'full' shape"><g transform="translate(0.5,0.5)"><path class="background" aria-hidden="true" d="M0,0h0v0h0Z" pointer-events="none"/><g><g class="mark-rule role-axis-tick" pointer-events="none"><line transform="translate(0,10)" x2="-5" y2="0" stroke="#888" stroke-width="1" opacity="1"/><line transform="translate(0,30)" x2="-5" y2="0" stroke="#888" stroke-width="1" opacity="1"/><line transform="translate(0,50)" x2="-5" y2="0" stroke="#888" stroke-width="1" opacity="1"/><line transform="translate(0,70)" x2="-5" y2="0" stroke="#888" stroke-width="1" opacity="1"/><line transform="translate(0,90)" x2="-5" y2="0" stroke="#888" stroke-width="1" opacity="1"/><line transform="translate(0,110)" x2="-5" y2="0" stroke="#888" stroke-width="1" opacity="1"/><line transform="translate(0,130)" x2="-5" y2="0" stroke="#888" stroke-width="1" opacity="1"/><line transform="translate(0,150)" x2="-5" y2="0" stroke="#888" stroke-width="1" opacity="1"/><line transform="translate(0,170)" x2="-5" y2="0" stroke="#888" stroke-width="1" opacity="1"/><line transform="translate(0,190)" x2="-5" y2="0" stroke="#888" stroke-width="1" opacity="1"/><line transform="translate(0,210)" x2="-5" y2="0" stroke="#888" stroke-width="1" opacity="1"/><line transform="translate(0,230)" x2="-5" y2="0" stroke="#888" stroke-width="1" opacity="1"/><line transform="translate(0,250)" x2="-5" y2="0" stroke="#888" stroke-width="1" opacity="1"/><line transform="translate(0,270)" x2="-5" y2="0" stroke="#888" stroke-width="1" opacity="1"/><line transform="translate(0,290)" x2="-5" y2="0" stroke="#888" stroke-width="1" opacity="1"/></g><g class="mark-text role-axis-label" pointer-events="none"><text text-anchor="end" transform="translate(-7,12.5)" font-family="sans-serif" font-size="10px" fill="#000" opacity="1">(JohT) inputPerKernelValue Transposed</text><text text-anchor="end" transform="translate(-7,32.5)" font-family="sans-serif" font-size="10px" fill="#000" opacity="1">(JohT) inputPerKernelValue Transposed LoopFissionIndexArithme…</text><text text-anchor="end" transform="translate(-7,52.5)" font-family="sans-serif" font-size="10px" fill="#000" opacity="1">(JohT) inputPerKernelValue Transposed LoopFission</text><text text-anchor="end" transform="translate(-7,72.5)" font-family="sans-serif" font-size="10px" fill="#000" opacity="1">(JohT) kernelPerInputValue Transposed</text><text text-anchor="end" transform="translate(-7,92.5)" font-family="sans-serif" font-size="10px" fill="#000" opacity="1">(JohT) inputPerKernelValue Transposed Inner&amp;OuterLoopUnrolled</text><text text-anchor="end" transform="translate(-7,112.5)" font-family="sans-serif" font-size="10px" fill="#000" opacity="1">(JohT) inputPerKernelValue Transposed OuterLoopUnrolled</text><text text-anchor="end" transform="translate(-7,132.5)" font-family="sans-serif" font-size="10px" fill="#000" opacity="1">(JohT) inputPerKernelValue Transposed InnerLoopUnrolled</text><text text-anchor="end" transform="translate(-7,152.5)" font-family="sans-serif" font-size="10px" fill="#000" opacity="1">(JohT) kernelPerInputValue Transposed LoopFission</text><text text-anchor="end" transform="translate(-7,172.5)" font-family="sans-serif" font-size="10px" fill="#000" opacity="1">(wilczek) Outer- and Inner-Loop Vectorization</text><text text-anchor="end" transform="translate(-7,192.5)" font-family="sans-serif" font-size="10px" fill="#000" opacity="1">(wilczek) Inner-Loop Vectorization</text><text text-anchor="end" transform="translate(-7,212.5)" font-family="sans-serif" font-size="10px" fill="#000" opacity="1">(wilczek) Single</text><text text-anchor="end" transform="translate(-7,232.5)" font-family="sans-serif" font-size="10px" fill="#000" opacity="1">(chaowang15) convolve1D</text><text text-anchor="end" transform="translate(-7,252.5)" font-family="sans-serif" font-size="10px" fill="#000" opacity="1">(matlab-like) conv 'valid' shape pre padded</text><text text-anchor="end" transform="translate(-7,272.5)" font-family="sans-serif" font-size="10px" fill="#000" opacity="1">(wilczek) Outer-Loop Vectorization</text><text text-anchor="end" transform="translate(-7,292.5)" font-family="sans-serif" font-size="10px" fill="#000" opacity="1">(matlab-like) conv 'full' shape</text></g><g class="mark-rule role-axis-domain" pointer-events="none"><line transform="translate(0,0)" x2="0" y2="300" stroke="#888" stroke-width="1" opacity="1"/></g><g class="mark-text role-axis-title" pointer-events="none"><text text-anchor="middle" transform="translate(-320,150) rotate(-90) translate(0,-2)" font-family="sans-serif" font-size="11px" font-weight="bold" fill="#000" opacity="1">algorithm</text></g></g><path class="foreground" aria-hidden="true" d="" pointer-events="none" display="none"/></g></g><g class="mark-rect role-mark child_layer_0_marks" role="graphics-object" aria-roledescription="rect mark container"><path aria-label="mean execution time in µs: 120; algorithm: (JohT) kernelPerInputValue Transposed" role="graphics-symbol" aria-roledescription="bar" d="M0,61.9L105.09090909090908,61.9C107.29856918888508,61.9,109.09090909090908,63.692339902023996,109.09090909090908,65.9L109.09090909090908,74.1C109.09090909090908,76.307660097976,107.29856918888508,78.1,105.09090909090908,78.1L0,78.1C0,78.1,0,78.1,0,78.1L0,61.9C0,61.9,0,61.9,0,61.9Z" fill="#4c78a8"/><path aria-label="mean execution time in µs: 73; algorithm: (JohT) inputPerKernelValue Transposed" role="graphics-symbol" aria-roledescription="bar" d="M0,1.9L62.363636363636374,1.9C64.57129646161238,1.9,66.36363636363637,3.692339902024,66.36363636363637,5.9L66.36363636363637,14.099999999999998C66.36363636363637,16.307660097975997,64.57129646161238,18.099999999999998,62.363636363636374,18.099999999999998L0,18.099999999999998C0,18.099999999999998,0,18.099999999999998,0,18.099999999999998L0,1.9C0,1.9,0,1.9,0,1.9Z" fill="#4c78a8"/><path aria-label="mean execution time in µs: 136; algorithm: (JohT) inputPerKernelValue Transposed InnerLoopUnrolled" role="graphics-symbol" aria-roledescription="bar" d="M0,121.9L119.63636363636363,121.9C121.84402373433963,121.9,123.63636363636363,123.692339902024,123.63636363636363,125.9L123.63636363636363,134.1C123.63636363636363,136.307660097976,121.84402373433963,138.1,119.63636363636363,138.1L0,138.1C0,138.1,0,138.1,0,138.1L0,121.9C0,121.9,0,121.9,0,121.9Z" fill="#4c78a8"/><path aria-label="mean execution time in µs: 134; algorithm: (JohT) inputPerKernelValue Transposed OuterLoopUnrolled" role="graphics-symbol" aria-roledescription="bar" d="M0,101.9L117.81818181818183,101.9C120.02584191615783,101.9,121.81818181818183,103.692339902024,121.81818181818183,105.9L121.81818181818183,114.10000000000001C121.81818181818183,116.30766009797601,120.02584191615783,118.10000000000001,117.81818181818183,118.10000000000001L0,118.10000000000001C0,118.10000000000001,0,118.10000000000001,0,118.10000000000001L0,101.9C0,101.9,0,101.9,0,101.9Z" fill="#4c78a8"/><path aria-label="mean execution time in µs: 121; algorithm: (JohT) inputPerKernelValue Transposed Inner&amp;OuterLoopUnrolled" role="graphics-symbol" aria-roledescription="bar" d="M0,81.9L106.00000000000001,81.9C108.20766009797602,81.9,110.00000000000001,83.692339902024,110.00000000000001,85.9L110.00000000000001,94.10000000000001C110.00000000000001,96.30766009797601,108.20766009797602,98.10000000000001,106.00000000000001,98.10000000000001L0,98.10000000000001C0,98.10000000000001,0,98.10000000000001,0,98.10000000000001L0,81.9C0,81.9,0,81.9,0,81.9Z" fill="#4c78a8"/><path aria-label="mean execution time in µs: 112; algorithm: (JohT) inputPerKernelValue Transposed LoopFission" role="graphics-symbol" aria-roledescription="bar" d="M0,41.9L97.81818181818181,41.9C100.02584191615782,41.9,101.81818181818181,43.692339902023996,101.81818181818181,45.9L101.81818181818181,54.099999999999994C101.81818181818181,56.307660097976,100.02584191615782,58.099999999999994,97.81818181818181,58.099999999999994L0,58.099999999999994C0,58.099999999999994,0,58.099999999999994,0,58.099999999999994L0,41.9C0,41.9,0,41.9,0,41.9Z" fill="#4c78a8"/><path aria-label="mean execution time in µs: 95; algorithm: (JohT) inputPerKernelValue Transposed LoopFissionIndexArithmetic" role="graphics-symbol" aria-roledescription="bar" d="M0,21.9L82.36363636363636,21.9C84.57129646161236,21.9,86.36363636363636,23.692339902024,86.36363636363636,25.9L86.36363636363636,34.099999999999994C86.36363636363636,36.307660097976,84.57129646161236,38.099999999999994,82.36363636363636,38.099999999999994L0,38.099999999999994C0,38.099999999999994,0,38.099999999999994,0,38.099999999999994L0,21.9C0,21.9,0,21.9,0,21.9Z" fill="#4c78a8"/><path aria-label="mean execution time in µs: 139; algorithm: (JohT) kernelPerInputValue Transposed LoopFission" role="graphics-symbol" aria-roledescription="bar" d="M0,141.9L122.36363636363637,141.9C124.57129646161238,141.9,126.36363636363637,143.692339902024,126.36363636363637,145.9L126.36363636363637,154.1C126.36363636363637,156.307660097976,124.57129646161238,158.1,122.36363636363637,158.1L0,158.1C0,158.1,0,158.1,0,158.1L0,141.9C0,141.9,0,141.9,0,141.9Z" fill="#4c78a8"/><path aria-label="mean execution time in µs: 212; algorithm: (matlab-like) conv 'full' shape" role="graphics-symbol" aria-roledescription="bar" d="M0,281.9L188.72727272727272,281.9C190.93493282524872,281.9,192.72727272727272,283.692339902024,192.72727272727272,285.9L192.72727272727272,294.09999999999997C192.72727272727272,296.30766009797594,190.93493282524872,298.09999999999997,188.72727272727272,298.09999999999997L0,298.09999999999997C0,298.09999999999997,0,298.09999999999997,0,298.09999999999997L0,281.9C0,281.9,0,281.9,0,281.9Z" fill="#4c78a8"/><path aria-label="mean execution time in µs: 193; algorithm: (matlab-like) conv 'valid' shape pre padded" role="graphics-symbol" aria-roledescription="bar" d="M0,241.9L171.45454545454547,241.9C173.66220555252147,241.9,175.45454545454547,243.692339902024,175.45454545454547,245.9L175.45454545454547,254.10000000000002C175.45454545454547,256.307660097976,173.66220555252147,258.1,171.45454545454547,258.1L0,258.1C0,258.1,0,258.1,0,258.1L0,241.9C0,241.9,0,241.9,0,241.9Z" fill="#4c78a8"/><path aria-label="mean execution time in µs: 185; algorithm: (wilczek) Single" role="graphics-symbol" aria-roledescription="bar" d="M0,201.9L164.1818181818182,201.9C166.3894782797942,201.9,168.1818181818182,203.692339902024,168.1818181818182,205.9L168.1818181818182,214.1C168.1818181818182,216.307660097976,166.3894782797942,218.1,164.1818181818182,218.1L0,218.1C0,218.1,0,218.1,0,218.1L0,201.9C0,201.9,0,201.9,0,201.9Z" fill="#4c78a8"/><path aria-label="mean execution time in µs: 155; algorithm: (wilczek) Inner-Loop Vectorization" role="graphics-symbol" aria-roledescription="bar" d="M0,181.9L136.9090909090909,181.9C139.1167510070669,181.9,140.9090909090909,183.692339902024,140.9090909090909,185.9L140.9090909090909,194.1C140.9090909090909,196.307660097976,139.1167510070669,198.1,136.9090909090909,198.1L0,198.1C0,198.1,0,198.1,0,198.1L0,181.9C0,181.9,0,181.9,0,181.9Z" fill="#4c78a8"/><path aria-label="mean execution time in µs: 194; algorithm: (wilczek) Outer-Loop Vectorization" role="graphics-symbol" aria-roledescription="bar" d="M0,261.9L172.36363636363637,261.9C174.57129646161238,261.9,176.36363636363637,263.692339902024,176.36363636363637,265.9L176.36363636363637,274.09999999999997C176.36363636363637,276.30766009797594,174.57129646161238,278.09999999999997,172.36363636363637,278.09999999999997L0,278.09999999999997C0,278.09999999999997,0,278.09999999999997,0,278.09999999999997L0,261.9C0,261.9,0,261.9,0,261.9Z" fill="#4c78a8"/><path aria-label="mean execution time in µs: 148; algorithm: (wilczek) Outer- and Inner-Loop Vectorization" role="graphics-symbol" aria-roledescription="bar" d="M0,161.9L130.54545454545453,161.9C132.75311464343054,161.9,134.54545454545453,163.692339902024,134.54545454545453,165.9L134.54545454545453,174.1C134.54545454545453,176.307660097976,132.75311464343054,178.1,130.54545454545453,178.1L0,178.1C0,178.1,0,178.1,0,178.1L0,161.9C0,161.9,0,161.9,0,161.9Z" fill="#4c78a8"/><path aria-label="mean execution time in µs: 185; algorithm: (chaowang15) convolve1D" role="graphics-symbol" aria-roledescription="bar" d="M0,221.9L164.1818181818182,221.9C166.3894782797942,221.9,168.1818181818182,223.692339902024,168.1818181818182,225.9L168.1818181818182,234.1C168.1818181818182,236.307660097976,166.3894782797942,238.1,164.1818181818182,238.1L0,238.1C0,238.1,0,238.1,0,238.1L0,221.9C0,221.9,0,221.9,0,221.9Z" fill="#4c78a8"/></g><g class="mark-text role-mark child_layer_1_marks" role="graphics-object" aria-roledescription="text mark container"><text aria-label="mean execution time in µs: 120; algorithm: (JohT) kernelPerInputValue Transposed; MeanExecutionTime: 120" role="graphics-symbol" aria-roledescription="text mark" text-anchor="start" transform="translate(113.09090909090908,73)" font-family="sans-serif" font-size="9px" fill="black">120</text><text aria-label="mean execution time in µs: 73; algorithm: (JohT) inputPerKernelValue Transposed; MeanExecutionTime: 73" role="graphics-symbol" aria-roledescription="text mark" text-anchor="start" transform="translate(70.36363636363637,13)" font-family="sans-serif" font-size="9px" fill="black">73</text><text aria-label="mean execution time in µs: 136; algorithm: (JohT) inputPerKernelValue Transposed InnerLoopUnrolled; MeanExecutionTime: 136" role="graphics-symbol" aria-roledescription="text mark" text-anchor="start" transform="translate(127.63636363636363,133)" font-family="sans-serif" font-size="9px" fill="black">136</text><text aria-label="mean execution time in µs: 134; algorithm: (JohT) inputPerKernelValue Transposed OuterLoopUnrolled; MeanExecutionTime: 134" role="graphics-symbol" aria-roledescription="text mark" text-anchor="start" transform="translate(125.81818181818183,113)" font-family="sans-serif" font-size="9px" fill="black">134</text><text aria-label="mean execution time in µs: 121; algorithm: (JohT) inputPerKernelValue Transposed Inner&amp;OuterLoopUnrolled; MeanExecutionTime: 121" role="graphics-symbol" aria-roledescription="text mark" text-anchor="start" transform="translate(114.00000000000001,93)" font-family="sans-serif" font-size="9px" fill="black">121</text><text aria-label="mean execution time in µs: 112; algorithm: (JohT) inputPerKernelValue Transposed LoopFission; MeanExecutionTime: 112" role="graphics-symbol" aria-roledescription="text mark" text-anchor="start" transform="translate(105.81818181818181,53)" font-family="sans-serif" font-size="9px" fill="black">112</text><text aria-label="mean execution time in µs: 95; algorithm: (JohT) inputPerKernelValue Transposed LoopFissionIndexArithmetic; MeanExecutionTime: 95" role="graphics-symbol" aria-roledescription="text mark" text-anchor="start" transform="translate(90.36363636363636,33)" font-family="sans-serif" font-size="9px" fill="black">95</text><text aria-label="mean execution time in µs: 139; algorithm: (JohT) kernelPerInputValue Transposed LoopFission; MeanExecutionTime: 139" role="graphics-symbol" aria-roledescription="text mark" text-anchor="start" transform="translate(130.36363636363637,153)" font-family="sans-serif" font-size="9px" fill="black">139</text><text aria-label="mean execution time in µs: 212; algorithm: (matlab-like) conv 'full' shape; MeanExecutionTime: 212" role="graphics-symbol" aria-roledescription="text mark" text-anchor="start" transform="translate(196.72727272727272,293)" font-family="sans-serif" font-size="9px" fill="black">212</text><text aria-label="mean execution time in µs: 193; algorithm: (matlab-like) conv 'valid' shape pre padded; MeanExecutionTime: 193" role="graphics-symbol" aria-roledescription="text mark" text-anchor="start" transform="translate(179.45454545454547,253)" font-family="sans-serif" font-size="9px" fill="black">193</text><text aria-label="mean execution time in µs: 185; algorithm: (wilczek) Single; MeanExecutionTime: 185" role="graphics-symbol" aria-roledescription="text mark" text-anchor="start" transform="translate(172.1818181818182,213)" font-family="sans-serif" font-size="9px" fill="black">185</text><text aria-label="mean execution time in µs: 155; algorithm: (wilczek) Inner-Loop Vectorization; MeanExecutionTime: 155" role="graphics-symbol" aria-roledescription="text mark" text-anchor="start" transform="translate(144.9090909090909,193)" font-family="sans-serif" font-size="9px" fill="black">155</text><text aria-label="mean execution time in µs: 194; algorithm: (wilczek) Outer-Loop Vectorization; MeanExecutionTime: 194" role="graphics-symbol" aria-roledescription="text mark" text-anchor="start" transform="translate(180.36363636363637,273)" font-family="sans-serif" font-size="9px" fill="black">194</text><text aria-label="mean execution time in µs: 148; algorithm: (wilczek) Outer- and Inner-Loop Vectorization; MeanExecutionTime: 148" role="graphics-symbol" aria-roledescription="text mark" text-anchor="start" transform="translate(138.54545454545453,173)" font-family="sans-serif" font-size="9px" fill="black">148</text><text aria-label="mean execution time in µs: 185; algorithm: (chaowang15) convolve1D; MeanExecutionTime: 185" role="graphics-symbol" aria-roledescription="text mark" text-anchor="start" transform="translate(172.1818181818182,233)" font-family="sans-serif" font-size="9px" fill="black">185</text></g></g><path class="foreground" aria-hidden="true" d="" display="none"/></g><g transform="translate(743,0)"><path class="background" aria-hidden="true" d="M0.5,0.5h200v300h-200Z" stroke="#ddd"/><g><g class="mark-group role-axis" aria-hidden="true"><g transform="translate(0.5,300.5)"><path class="background" aria-hidden="true" d="M0,0h0v0h0Z" pointer-events="none"/><g><g class="mark-rule role-axis-grid" pointer-events="none"><line transform="translate(0,0)" x2="0" y2="-300" stroke="#ddd" stroke-width="1" opacity="1"/><line transform="translate(33,0)" x2="0" y2="-300" stroke="#ddd" stroke-width="1" opacity="1"/><line transform="translate(67,0)" x2="0" y2="-300" stroke="#ddd" stroke-width="1" opacity="1"/><line transform="translate(100,0)" x2="0" y2="-300" stroke="#ddd" stroke-width="1" opacity="1"/><line transform="translate(133,0)" x2="0" y2="-300" stroke="#ddd" stroke-width="1" opacity="1"/><line transform="translate(167,0)" x2="0" y2="-300" stroke="#ddd" stroke-width="1" opacity="1"/><line transform="translate(200,0)" x2="0" y2="-300" stroke="#ddd" stroke-width="1" opacity="1"/></g></g><path class="foreground" aria-hidden="true" d="" pointer-events="none" display="none"/></g></g><g class="mark-group role-axis" role="graphics-symbol" aria-roledescription="axis" aria-label="X-axis titled 'mean execution time in µs' for a linear scale with values from 0 to 12,000"><g transform="translate(0.5,300.5)"><path class="background" aria-hidden="true" d="M0,0h0v0h0Z" pointer-events="none"/><g><g class="mark-rule role-axis-tick" pointer-events="none"><line transform="translate(0,0)" x2="0" y2="5" stroke="#888" stroke-width="1" opacity="1"/><line transform="translate(33,0)" x2="0" y2="5" stroke="#888" stroke-width="1" opacity="1"/><line transform="translate(67,0)" x2="0" y2="5" stroke="#888" stroke-width="1" opacity="1"/><line transform="translate(100,0)" x2="0" y2="5" stroke="#888" stroke-width="1" opacity="1"/><line transform="translate(133,0)" x2="0" y2="5" stroke="#888" stroke-width="1" opacity="1"/><line transform="translate(167,0)" x2="0" y2="5" stroke="#888" stroke-width="1" opacity="1"/><line transform="translate(200,0)" x2="0" y2="5" stroke="#888" stroke-width="1" opacity="1"/></g><g class="mark-text role-axis-label" pointer-events="none"><text text-anchor="start" transform="translate(0,15)" font-family="sans-serif" font-size="10px" fill="#000" opacity="1">0</text><text text-anchor="middle" transform="translate(33.33333333333333,15)" font-family="sans-serif" font-size="10px" fill="#000" opacity="0">2,000</text><text text-anchor="middle" transform="translate(66.66666666666666,15)" font-family="sans-serif" font-size="10px" fill="#000" opacity="0">4,000</text><text text-anchor="middle" transform="translate(100,15)" font-family="sans-serif" font-size="10px" fill="#000" opacity="0">6,000</text><text text-anchor="middle" transform="translate(133.33333333333331,15)" font-family="sans-serif" font-size="10px" fill="#000" opacity="0">8,000</text><text text-anchor="middle" transform="translate(166.66666666666669,15)" font-family="sans-serif" font-size="10px" fill="#000" opacity="0">10,000</text><text text-anchor="end" transform="translate(200,15)" font-family="sans-serif" font-size="10px" fill="#000" opacity="1">12,000</text></g><g class="mark-rule role-axis-domain" pointer-events="none"><line transform="translate(0,0)" x2="200" y2="0" stroke="#888" stroke-width="1" opacity="1"/></g><g class="mark-text role-axis-title" pointer-events="none"><text text-anchor="middle" transform="translate(100,30)" font-family="sans-serif" font-size="11px" font-weight="bold" fill="#000" opacity="1">mean execution time in µs</text></g></g><path class="foreground" aria-hidden="true" d="" pointer-events="none" display="none"/></g></g><g class="mark-group role-axis" role="graphics-symbol" aria-roledescription="axis" aria-label="Y-axis titled 'algorithm' for a discrete scale with 15 values: (JohT) kernelPerInputValue Transposed, (JohT) inputPerKernelValue Transposed, (JohT) inputPerKernelValue Transposed LoopFissionIndexArithmetic, (JohT) inputPerKernelValue Transposed LoopFission, (JohT) kernelPerInputValue Transposed LoopFission, ending with (matlab-like) conv 'valid' shape pre padded"><g transform="translate(0.5,0.5)"><path class="background" aria-hidden="true" d="M0,0h0v0h0Z" pointer-events="none"/><g><g class="mark-rule role-axis-tick" pointer-events="none"><line transform="translate(0,10)" x2="-5" y2="0" stroke="#888" stroke-width="1" opacity="1"/><line transform="translate(0,30)" x2="-5" y2="0" stroke="#888" stroke-width="1" opacity="1"/><line transform="translate(0,50)" x2="-5" y2="0" stroke="#888" stroke-width="1" opacity="1"/><line transform="translate(0,70)" x2="-5" y2="0" stroke="#888" stroke-width="1" opacity="1"/><line transform="translate(0,90)" x2="-5" y2="0" stroke="#888" stroke-width="1" opacity="1"/><line transform="translate(0,110)" x2="-5" y2="0" stroke="#888" stroke-width="1" opacity="1"/><line transform="translate(0,130)" x2="-5" y2="0" stroke="#888" stroke-width="1" opacity="1"/><line transform="translate(0,150)" x2="-5" y2="0" stroke="#888" stroke-width="1" opacity="1"/><line transform="translate(0,170)" x2="-5" y2="0" stroke="#888" stroke-width="1" opacity="1"/><line transform="translate(0,190)" x2="-5" y2="0" stroke="#888" stroke-width="1" opacity="1"/><line transform="translate(0,210)" x2="-5" y2="0" stroke="#888" stroke-width="1" opacity="1"/><line transform="translate(0,230)" x2="-5" y2="0" stroke="#888" stroke-width="1" opacity="1"/><line transform="translate(0,250)" x2="-5" y2="0" stroke="#888" stroke-width="1" opacity="1"/><line transform="translate(0,270)" x2="-5" y2="0" stroke="#888" stroke-width="1" opacity="1"/><line transform="translate(0,290)" x2="-5" y2="0" stroke="#888" stroke-width="1" opacity="1"/></g><g class="mark-text role-axis-label" pointer-events="none"><text text-anchor="end" transform="translate(-7,12.5)" font-family="sans-serif" font-size="10px" fill="#000" opacity="1">(JohT) kernelPerInputValue Transposed</text><text text-anchor="end" transform="translate(-7,32.5)" font-family="sans-serif" font-size="10px" fill="#000" opacity="1">(JohT) inputPerKernelValue Transposed</text><text text-anchor="end" transform="translate(-7,52.5)" font-family="sans-serif" font-size="10px" fill="#000" opacity="1">(JohT) inputPerKernelValue Transposed LoopFissionIndexArithme…</text><text text-anchor="end" transform="translate(-7,72.5)" font-family="sans-serif" font-size="10px" fill="#000" opacity="1">(JohT) inputPerKernelValue Transposed LoopFission</text><text text-anchor="end" transform="translate(-7,92.5)" font-family="sans-serif" font-size="10px" fill="#000" opacity="1">(JohT) kernelPerInputValue Transposed LoopFission</text><text text-anchor="end" transform="translate(-7,112.5)" font-family="sans-serif" font-size="10px" fill="#000" opacity="1">(JohT) inputPerKernelValue Transposed Inner&amp;OuterLoopUnrolled</text><text text-anchor="end" transform="translate(-7,132.5)" font-family="sans-serif" font-size="10px" fill="#000" opacity="1">(JohT) inputPerKernelValue Transposed InnerLoopUnrolled</text><text text-anchor="end" transform="translate(-7,152.5)" font-family="sans-serif" font-size="10px" fill="#000" opacity="1">(JohT) inputPerKernelValue Transposed OuterLoopUnrolled</text><text text-anchor="end" transform="translate(-7,172.5)" font-family="sans-serif" font-size="10px" fill="#000" opacity="1">(wilczek) Outer- and Inner-Loop Vectorization</text><text text-anchor="end" transform="translate(-7,192.5)" font-family="sans-serif" font-size="10px" fill="#000" opacity="1">(wilczek) Inner-Loop Vectorization</text><text text-anchor="end" transform="translate(-7,212.5)" font-family="sans-serif" font-size="10px" fill="#000" opacity="1">(wilczek) Outer-Loop Vectorization</text><text text-anchor="end" transform="translate(-7,232.5)" font-family="sans-serif" font-size="10px" fill="#000" opacity="1">(matlab-like) conv 'full' shape</text><text text-anchor="end" transform="translate(-7,252.5)" font-family="sans-serif" font-size="10px" fill="#000" opacity="1">(chaowang15) convolve1D</text><text text-anchor="end" transform="translate(-7,272.5)" font-family="sans-serif" font-size="10px" fill="#000" opacity="1">(wilczek) Single</text><text text-anchor="end" transform="translate(-7,292.5)" font-family="sans-serif" font-size="10px" fill="#000" opacity="1">(matlab-like) conv 'valid' shape pre padded</text></g><g class="mark-rule role-axis-domain" pointer-events="none"><line transform="translate(0,0)" x2="0" y2="300" stroke="#888" stroke-width="1" opacity="1"/></g><g class="mark-text role-axis-title" pointer-events="none"><text text-anchor="middle" transform="translate(-320,150) rotate(-90) translate(0,-2)" font-family="sans-serif" font-size="11px" font-weight="bold" fill="#000" opacity="1">algorithm</text></g></g><path class="foreground" aria-hidden="true" d="" pointer-events="none" display="none"/></g></g><g class="mark-rect role-mark child_layer_0_marks" role="graphics-object" aria-roledescription="rect mark container"><path aria-label="mean execution time in µs: 1626; algorithm: (JohT) kernelPerInputValue Transposed" role="graphics-symbol" aria-roledescription="bar" d="M0,1.9L23.1,1.9C25.307660097976,1.9,27.1,3.692339902024,27.1,5.9L27.1,14.099999999999998C27.1,16.307660097975997,25.307660097976,18.099999999999998,23.1,18.099999999999998L0,18.099999999999998C0,18.099999999999998,0,18.099999999999998,0,18.099999999999998L0,1.9C0,1.9,0,1.9,0,1.9Z" fill="#4c78a8"/><path aria-label="mean execution time in µs: 1963; algorithm: (JohT) inputPerKernelValue Transposed" role="graphics-symbol" aria-roledescription="bar" d="M0,21.9L28.71666666666667,21.9C30.924326764642668,21.9,32.71666666666667,23.692339902024,32.71666666666667,25.9L32.71666666666667,34.099999999999994C32.71666666666667,36.307660097976,30.924326764642668,38.099999999999994,28.71666666666667,38.099999999999994L0,38.099999999999994C0,38.099999999999994,0,38.099999999999994,0,38.099999999999994L0,21.9C0,21.9,0,21.9,0,21.9Z" fill="#4c78a8"/><path aria-label="mean execution time in µs: 4093; algorithm: (JohT) inputPerKernelValue Transposed InnerLoopUnrolled" role="graphics-symbol" aria-roledescription="bar" d="M0,121.9L64.21666666666667,121.9C66.42432676464267,121.9,68.21666666666667,123.692339902024,68.21666666666667,125.9L68.21666666666667,134.1C68.21666666666667,136.307660097976,66.42432676464267,138.1,64.21666666666667,138.1L0,138.1C0,138.1,0,138.1,0,138.1L0,121.9C0,121.9,0,121.9,0,121.9Z" fill="#4c78a8"/><path aria-label="mean execution time in µs: 4221; algorithm: (JohT) inputPerKernelValue Transposed OuterLoopUnrolled" role="graphics-symbol" aria-roledescription="bar" d="M0,141.9L66.35,141.9C68.557660097976,141.9,70.35,143.692339902024,70.35,145.9L70.35,154.1C70.35,156.307660097976,68.557660097976,158.1,66.35,158.1L0,158.1C0,158.1,0,158.1,0,158.1L0,141.9C0,141.9,0,141.9,0,141.9Z" fill="#4c78a8"/><path aria-label="mean execution time in µs: 3605; algorithm: (JohT) inputPerKernelValue Transposed Inner&amp;OuterLoopUnrolled" role="graphics-symbol" aria-roledescription="bar" d="M0,101.9L56.083333333333336,101.9C58.29099343130934,101.9,60.083333333333336,103.692339902024,60.083333333333336,105.9L60.083333333333336,114.10000000000001C60.083333333333336,116.30766009797601,58.29099343130934,118.10000000000001,56.083333333333336,118.10000000000001L0,118.10000000000001C0,118.10000000000001,0,118.10000000000001,0,118.10000000000001L0,101.9C0,101.9,0,101.9,0,101.9Z" fill="#4c78a8"/><path aria-label="mean execution time in µs: 3132; algorithm: (JohT) inputPerKernelValue Transposed LoopFission" role="graphics-symbol" aria-roledescription="bar" d="M0,61.9L48.2,61.9C50.407660097976006,61.9,52.2,63.692339902023996,52.2,65.9L52.2,74.1C52.2,76.307660097976,50.407660097976006,78.1,48.2,78.1L0,78.1C0,78.1,0,78.1,0,78.1L0,61.9C0,61.9,0,61.9,0,61.9Z" fill="#4c78a8"/><path aria-label="mean execution time in µs: 3113; algorithm: (JohT) inputPerKernelValue Transposed LoopFissionIndexArithmetic" role="graphics-symbol" aria-roledescription="bar" d="M0,41.9L47.88333333333334,41.9C50.09099343130934,41.9,51.88333333333334,43.692339902023996,51.88333333333334,45.9L51.88333333333334,54.099999999999994C51.88333333333334,56.307660097976,50.09099343130934,58.099999999999994,47.88333333333334,58.099999999999994L0,58.099999999999994C0,58.099999999999994,0,58.099999999999994,0,58.099999999999994L0,41.9C0,41.9,0,41.9,0,41.9Z" fill="#4c78a8"/><path aria-label="mean execution time in µs: 3177; algorithm: (JohT) kernelPerInputValue Transposed LoopFission" role="graphics-symbol" aria-roledescription="bar" d="M0,81.9L48.949999999999996,81.9C51.157660097976,81.9,52.949999999999996,83.692339902024,52.949999999999996,85.9L52.949999999999996,94.10000000000001C52.949999999999996,96.30766009797601,51.157660097976,98.10000000000001,48.949999999999996,98.10000000000001L0,98.10000000000001C0,98.10000000000001,0,98.10000000000001,0,98.10000000000001L0,81.9C0,81.9,0,81.9,0,81.9Z" fill="#4c78a8"/><path aria-label="mean execution time in µs: 10940; algorithm: (matlab-like) conv 'full' shape" role="graphics-symbol" aria-roledescription="bar" d="M0,221.9L178.33333333333331,221.9C180.54099343130932,221.9,182.33333333333331,223.692339902024,182.33333333333331,225.9L182.33333333333331,234.1C182.33333333333331,236.307660097976,180.54099343130932,238.1,178.33333333333331,238.1L0,238.1C0,238.1,0,238.1,0,238.1L0,221.9C0,221.9,0,221.9,0,221.9Z" fill="#4c78a8"/><path aria-label="mean execution time in µs: 11266; algorithm: (matlab-like) conv 'valid' shape pre padded" role="graphics-symbol" aria-roledescription="bar" d="M0,281.9L183.76666666666665,281.9C185.97432676464265,281.9,187.76666666666665,283.692339902024,187.76666666666665,285.9L187.76666666666665,294.09999999999997C187.76666666666665,296.30766009797594,185.97432676464265,298.09999999999997,183.76666666666665,298.09999999999997L0,298.09999999999997C0,298.09999999999997,0,298.09999999999997,0,298.09999999999997L0,281.9C0,281.9,0,281.9,0,281.9Z" fill="#4c78a8"/><path aria-label="mean execution time in µs: 11242; algorithm: (wilczek) Single" role="graphics-symbol" aria-roledescription="bar" d="M0,261.9L183.36666666666665,261.9C185.57432676464265,261.9,187.36666666666665,263.692339902024,187.36666666666665,265.9L187.36666666666665,274.09999999999997C187.36666666666665,276.30766009797594,185.57432676464265,278.09999999999997,183.36666666666665,278.09999999999997L0,278.09999999999997C0,278.09999999999997,0,278.09999999999997,0,278.09999999999997L0,261.9C0,261.9,0,261.9,0,261.9Z" fill="#4c78a8"/><path aria-label="mean execution time in µs: 4659; algorithm: (wilczek) Inner-Loop Vectorization" role="graphics-symbol" aria-roledescription="bar" d="M0,181.9L73.64999999999999,181.9C75.857660097976,181.9,77.64999999999999,183.692339902024,77.64999999999999,185.9L77.64999999999999,194.1C77.64999999999999,196.307660097976,75.857660097976,198.1,73.64999999999999,198.1L0,198.1C0,198.1,0,198.1,0,198.1L0,181.9C0,181.9,0,181.9,0,181.9Z" fill="#4c78a8"/><path aria-label="mean execution time in µs: 6854; algorithm: (wilczek) Outer-Loop Vectorization" role="graphics-symbol" aria-roledescription="bar" d="M0,201.9L110.23333333333335,201.9C112.44099343130935,201.9,114.23333333333335,203.692339902024,114.23333333333335,205.9L114.23333333333335,214.1C114.23333333333335,216.307660097976,112.44099343130935,218.1,110.23333333333335,218.1L0,218.1C0,218.1,0,218.1,0,218.1L0,201.9C0,201.9,0,201.9,0,201.9Z" fill="#4c78a8"/><path aria-label="mean execution time in µs: 4399; algorithm: (wilczek) Outer- and Inner-Loop Vectorization" role="graphics-symbol" aria-roledescription="bar" d="M0,161.9L69.31666666666666,161.9C71.52432676464267,161.9,73.31666666666666,163.692339902024,73.31666666666666,165.9L73.31666666666666,174.1C73.31666666666666,176.307660097976,71.52432676464267,178.1,69.31666666666666,178.1L0,178.1C0,178.1,0,178.1,0,178.1L0,161.9C0,161.9,0,161.9,0,161.9Z" fill="#4c78a8"/><path aria-label="mean execution time in µs: 11102; algorithm: (chaowang15) convolve1D" role="graphics-symbol" aria-roledescription="bar" d="M0,241.9L181.03333333333333,241.9C183.24099343130933,241.9,185.03333333333333,243.692339902024,185.03333333333333,245.9L185.03333333333333,254.10000000000002C185.03333333333333,256.307660097976,183.24099343130933,258.1,181.03333333333333,258.1L0,258.1C0,258.1,0,258.1,0,258.1L0,241.9C0,241.9,0,241.9,0,241.9Z" fill="#4c78a8"/></g><g class="mark-text role-mark child_layer_1_marks" role="graphics-object" aria-roledescription="text mark container"><text aria-label="mean execution time in µs: 1626; algorithm: (JohT) kernelPerInputValue Transposed; MeanExecutionTime: 1626" role="graphics-symbol" aria-roledescription="text mark" text-anchor="start" transform="translate(31.1,13)" font-family="sans-serif" font-size="9px" fill="black">1626</text><text aria-label="mean execution time in µs: 1963; algorithm: (JohT) inputPerKernelValue Transposed; MeanExecutionTime: 1963" role="graphics-symbol" aria-roledescription="text mark" text-anchor="start" transform="translate(36.71666666666667,33)" font-family="sans-serif" font-size="9px" fill="black">1963</text><text aria-label="mean execution time in µs: 4093; algorithm: (JohT) inputPerKernelValue Transposed InnerLoopUnrolled; MeanExecutionTime: 4093" role="graphics-symbol" aria-roledescription="text mark" text-anchor="start" transform="translate(72.21666666666667,133)" font-family="sans-serif" font-size="9px" fill="black">4093</text><text aria-label="mean execution time in µs: 4221; algorithm: (JohT) inputPerKernelValue Transposed OuterLoopUnrolled; MeanExecutionTime: 4221" role="graphics-symbol" aria-roledescription="text mark" text-anchor="start" transform="translate(74.35,153)" font-family="sans-serif" font-size="9px" fill="black">4221</text><text aria-label="mean execution time in µs: 3605; algorithm: (JohT) inputPerKernelValue Transposed Inner&amp;OuterLoopUnrolled; MeanExecutionTime: 3605" role="graphics-symbol" aria-roledescription="text mark" text-anchor="start" transform="translate(64.08333333333334,113)" font-family="sans-serif" font-size="9px" fill="black">3605</text><text aria-label="mean execution time in µs: 3132; algorithm: (JohT) inputPerKernelValue Transposed LoopFission; MeanExecutionTime: 3132" role="graphics-symbol" aria-roledescription="text mark" text-anchor="start" transform="translate(56.2,73)" font-family="sans-serif" font-size="9px" fill="black">3132</text><text aria-label="mean execution time in µs: 3113; algorithm: (JohT) inputPerKernelValue Transposed LoopFissionIndexArithmetic; MeanExecutionTime: 3113" role="graphics-symbol" aria-roledescription="text mark" text-anchor="start" transform="translate(55.88333333333334,53)" font-family="sans-serif" font-size="9px" fill="black">3113</text><text aria-label="mean execution time in µs: 3177; algorithm: (JohT) kernelPerInputValue Transposed LoopFission; MeanExecutionTime: 3177" role="graphics-symbol" aria-roledescription="text mark" text-anchor="start" transform="translate(56.949999999999996,93)" font-family="sans-serif" font-size="9px" fill="black">3177</text><text aria-label="mean execution time in µs: 10940; algorithm: (matlab-like) conv 'full' shape; MeanExecutionTime: 10940" role="graphics-symbol" aria-roledescription="text mark" text-anchor="start" transform="translate(186.33333333333331,233)" font-family="sans-serif" font-size="9px" fill="black">10940</text><text aria-label="mean execution time in µs: 11266; algorithm: (matlab-like) conv 'valid' shape pre padded; MeanExecutionTime: 11266" role="graphics-symbol" aria-roledescription="text mark" text-anchor="start" transform="translate(191.76666666666665,293)" font-family="sans-serif" font-size="9px" fill="black">11266</text><text aria-label="mean execution time in µs: 11242; algorithm: (wilczek) Single; MeanExecutionTime: 11242" role="graphics-symbol" aria-roledescription="text mark" text-anchor="start" transform="translate(191.36666666666665,273)" font-family="sans-serif" font-size="9px" fill="black">11242</text><text aria-label="mean execution time in µs: 4659; algorithm: (wilczek) Inner-Loop Vectorization; MeanExecutionTime: 4659" role="graphics-symbol" aria-roledescription="text mark" text-anchor="start" transform="translate(81.64999999999999,193)" font-family="sans-serif" font-size="9px" fill="black">4659</text><text aria-label="mean execution time in µs: 6854; algorithm: (wilczek) Outer-Loop Vectorization; MeanExecutionTime: 6854" role="graphics-symbol" aria-roledescription="text mark" text-anchor="start" transform="translate(118.23333333333335,213)" font-family="sans-serif" font-size="9px" fill="black">6854</text><text aria-label="mean execution time in µs: 4399; algorithm: (wilczek) Outer- and Inner-Loop Vectorization; MeanExecutionTime: 4399" role="graphics-symbol" aria-roledescription="text mark" text-anchor="start" transform="translate(77.31666666666666,173)" font-family="sans-serif" font-size="9px" fill="black">4399</text><text aria-label="mean execution time in µs: 11102; algorithm: (chaowang15) convolve1D; MeanExecutionTime: 11102" role="graphics-symbol" aria-roledescription="text mark" text-anchor="start" transform="translate(189.03333333333333,253)" font-family="sans-serif" font-size="9px" fill="black">11102</text></g></g><path class="foreground" aria-hidden="true" d="" display="none"/></g></g></g><path class="foreground" aria-hidden="true" d="" display="none"/></g></g></g></svg>