<svg xmlns="http://www.w3.org/2000/svg" xmlns:xlink="http://www.w3.org/1999/xlink" version="1.1" class="marks" width="1485" height="404" viewBox="0 0 1485 404"><rect width="1485" height="404" fill="white"/><g fill="none" stroke-miterlimit="10" transform="translate(509,66)"><g class="mark-group role-frame root" role="graphics-object" aria-roledescription="group mark container"><g transform="translate(0,0)"><path class="background" aria-hidden="true" d="M0,0h0v0h0Z"/><g><g class="mark-group role-column-title column-title" role="graphics-object" aria-roledescription="group mark container"><g transform="translate(233,-35)"><path class="background" aria-hidden="true" d="M0,0h0v0h0Z"/><g><g class="mark-group role-title"><g transform="translate(0,-26)"><path class="background" aria-hidden="true" d="M0,0h0v0h0Z" pointer-events="none"/><g><g class="mark-text role-title-text" role="graphics-symbol" aria-roledescription="title" aria-label="Title text 'Convolution Benchmarks'" pointer-events="none"><text text-anchor="middle" transform="translate(0,13)" font-family="sans-serif" font-size="16px" font-weight="bold" fill="#000" opacity="1">Convolution Benchmarks</text></g></g><path class="foreground" aria-hidden="true" d="" pointer-events="none" display="none"/></g></g></g><path class="foreground" aria-hidden="true" d="" display="none"/></g></g><g class="mark-group role-column-header column_header" role="graphics-object" aria-roledescription="group mark container"><g transform="translate(0,-1)"><path class="background" aria-hidden="true" d="M0,0h200v0h-200Z"/><g><g class="mark-group role-title"><g transform="translate(100,-24)"><path class="background" aria-hidden="true" d="M0,0h0v0h0Z" pointer-events="none"/><g><g class="mark-text role-title-text" role="graphics-symbol" aria-roledescription="title" aria-label="Title text 'kernel size 16'" pointer-events="none"><text text-anchor="middle" transform="translate(0,11)" font-family="sans-serif" font-size="14px" fill="#000" opacity="1">kernel size 16</text></g></g><path class="foreground" aria-hidden="true" d="" pointer-events="none" display="none"/></g></g></g><path class="foreground" aria-hidden="true" d="" display="none"/></g><g transform="translate(742,-1)"><path class="background" aria-hidden="true" d="M0,0h200v0h-200Z"/><g><g class="mark-group role-title"><g transform="translate(100,-24)"><path class="background" aria-hidden="true" d="M0,0h0v0h0Z" pointer-events="none"/><g><g class="mark-text role-title-text" role="graphics-symbol" aria-roledescription="title" aria-label="Title text 'kernel size 512'" pointer-events="none"><text text-anchor="middle" transform="translate(0,11)" font-family="sans-serif" font-size="14px" fill="#000" opacity="1">kernel size 512</text></g></g><path class="foreground" aria-hidden="true" d="" pointer-events="none" display="none"/></g></g></g><path class="foreground" aria-hidden="true" d="" display="none"/></g></g><g class="mark-group role-scope cell" role="graphics-object" aria-roledescription="group mark container"><g transform="translate(0,0)"><path class="background" aria-hidden="true" d="M0.5,0.5h200v300h-200Z" stroke="#ddd"/><g><g class="mark-group role-axis" aria-hidden="true"><g transform="translate(0.5,300.5)"><path class="background" aria-hidden="true" d="M0,0h0v0h0Z" pointer-events="none"/><g><g class="mark-rule role-axis-grid" pointer-events="none"><line transform="translate(0,0)" x2="0" y2="-300" stroke="#ddd" stroke-width="1" opacity="1"/><line transform="translate(33,0)" x2="0" y2="-300" stroke="#ddd" stroke-width="1" opacity="1"/><line transform="translate(67,0)" x2="0" y2="-300" stroke="#ddd" stroke-width="1" opacity="1"/><line transform="translate(100,0)" x2="0" y2="-300" stroke="#ddd" stroke-width="1" opacity="1"/><line transform="translate(133,0)" x2="0" y2="-300" stroke="#ddd" stroke-width="1" opacity="1"/><line transform="translate(167,0)" x2="0" y2="-300" stroke="#ddd" stroke-width="1" opacity="1"/><line transform="translate(200,0)" x2="0" y2="-300" stroke="#ddd" stroke-width="1" opacity="1"/></g></g><path class="foreground" aria-hidden="true" d="" pointer-events="none" display="none"/></g></g><g class="mark-group role-axis" role="graphics-symbol" aria-roledescription="axis" aria-label="X-axis titled 'mean execution time in µs' for a linear scale with values from 0 to 300"><g transform="translate(0.5,300.5)"><path class="background" aria-hidden="true" d="M0,0h0v0h0Z" pointer-events="none"/><g><g class="mark-rule role-axis-tick" pointer-events="none"><line transform="translate(0,0)" x2="0" y2="5" stroke="#888" stroke-width="1" opacity="1"/><line transform="translate(33,0)" x2="0" y2="5" stroke="#888" stroke-width="1" opacity="1"/><line transform="translate(67,0)" x2="0" y2="5" stroke="#888" stroke-width="1" opacity="1"/><line transform="translate(100,0)" x2="0" y2="5" stroke="#888" stroke-width="1" opacity="1"/><line transform="translate(133,0)" x2="0" y2="5" stroke="#888" stroke-width="1" opacity="1"/><line transform="translate(167,0)" x2="0" y2="5" stroke="#888" stroke-width="1" opacity="1"/><line transform="translate(200,0)" x2="0" y2="5" stroke="#888" stroke-width="1" opacity="1"/></g><g class="mark-text role-axis-label" pointer-events="none"><text text-anchor="start" transform="translate(0,15)" font-family="sans-serif" font-size="10px" fill="#000" opacity="1">0</text><text text-anchor="middle" transform="translate(33.33333333333333,15)" font-family="sans-serif" font-size="10px" fill="#000" opacity="0">50</text><text text-anchor="middle" transform="translate(66.66666666666666,15)" font-family="sans-serif" font-size="10px" fill="#000" opacity="1">100</text><text text-anchor="middle" transform="translate(100,15)" font-family="sans-serif" font-size="10px" fill="#000" opacity="0">150</text><text text-anchor="middle" transform="translate(133.33333333333331,15)" font-family="sans-serif" font-size="10px" fill="#000" opacity="1">200</text><text text-anchor="middle" transform="translate(166.66666666666669,15)" font-family="sans-serif" font-size="10px" fill="#000" opacity="0">250</text><text text-anchor="end" transform="translate(200,15)" font-family="sans-serif" font-size="10px" fill="#000" opacity="1">300</text></g><g class="mark-rule role-axis-domain" pointer-events="none"><line transform="translate(0,0)" x2="200" y2="0" stroke="#888" stroke-width="1" opacity="1"/></g><g class="mark-text role-axis-title" pointer-events="none"><text text-anchor="middle" transform="translate(100,30)" font-family="sans-serif" font-size="11px" font-weight="bold" fill="#000" opacity="1">mean execution time in µs</text></g></g><path class="foreground" aria-hidden="true" d="" pointer-events="none" display="none"/></g></g><g class="mark-group role-axis" role="graphics-symbol" aria-roledescription="axis" aria-label="Y-axis titled 'algorithm' for a discrete scale with 15 values: (JohT) inputPerKernelValue Transposed, (JohT) inputPerKernelValue Transposed LoopFissionIndexArithmetic, (JohT) inputPerKernelValue Transposed LoopFission, (JohT) kernelPerInputValue Transposed, (JohT) inputPerKernelValue Transposed Inner&amp;OuterLoopUnrolled, ending with (matlab-like) conv 'full' shape"><g transform="translate(0.5,0.5)"><path class="background" aria-hidden="true" d="M0,0h0v0h0Z" pointer-events="none"/><g><g class="mark-rule role-axis-tick" pointer-events="none"><line transform="translate(0,10)" x2="-5" y2="0" stroke="#888" stroke-width="1" opacity="1"/><line transform="translate(0,30)" x2="-5" y2="0" stroke="#888" stroke-width="1" opacity="1"/><line transform="translate(0,50)" x2="-5" y2="0" stroke="#888" stroke-width="1" opacity="1"/><line transform="translate(0,70)" x2="-5" y2="0" stroke="#888" stroke-width="1" opacity="1"/><line transform="translate(0,90)" x2="-5" y2="0" stroke="#888" stroke-width="1" opacity="1"/><line transform="translate(0,110)" x2="-5" y2="0" stroke="#888" stroke-width="1" opacity="1"/><line transform="translate(0,130)" x2="-5" y2="0" stroke="#888" stroke-width="1" opacity="1"/><line transform="translate(0,150)" x2="-5" y2="0" stroke="#888" stroke-width="1" opacity="1"/><line transform="translate(0,170)" x2="-5" y2="0" stroke="#888" stroke-width="1" opacity="1"/><line transform="translate(0,190)" x2="-5" y2="0" stroke="#888" stroke-width="1" opacity="1"/><line transform="translate(0,210)" x2="-5" y2="0" stroke="#888" stroke-width="1" opacity="1"/><line transform="translate(0,230)" x2="-5" y2="0" stroke="#888" stroke-width="1" opacity="1"/><line transform="translate(0,250)" x2="-5" y2="0" stroke="#888" stroke-width="1" opacity="1"/><line transform="translate(0,270)" x2="-5" y2="0" stroke="#888" stroke-width="1" opacity="1"/><line transform="translate(0,290)" x2="-5" y2="0" stroke="#888" stroke-width="1" opacity="1"/></g><g class="mark-text role-axis-label" pointer-events="none"><text text-anchor="end" transform="translate(-7,12.5)" font-family="sans-serif" font-size="10px" fill="#000" opacity="1">(JohT) inputPerKernelValue Transposed</text><text text-anchor="end" transform="translate(-7,32.5)" font-family="sans-serif" font-size="10px" fill="#000" opacity="1">(JohT) inputPerKernelValue Transposed LoopFissionIndexArithme…</text><text text-anchor="end" transform="translate(-7,52.5)" font-family="sans-serif" font-size="10px" fill="#000" opacity="1">(JohT) inputPerKernelValue Transposed LoopFission</text><text text-anchor="end" transform="translate(-7,72.5)" font-family="sans-serif" font-size="10px" fill="#000" opacity="1">(JohT) kernelPerInputValue Transposed</text><text text-anchor="end" transform="translate(-7,92.5)" font-family="sans-serif" font-size="10px" fill="#000" opacity="1">(JohT) inputPerKernelValue Transposed Inner&amp;OuterLoopUnrolled</text><text text-anchor="end" transform="translate(-7,112.5)" font-family="sans-serif" font-size="10px" fill="#000" opacity="1">(JohT) kernelPerInputValue Transposed LoopFission</text><text text-anchor="end" transform="translate(-7,132.5)" font-family="sans-serif" font-size="10px" fill="#000" opacity="1">(JohT) inputPerKernelValue Transposed OuterLoopUnrolled</text><text text-anchor="end" transform="translate(-7,152.5)" font-family="sans-serif" font-size="10px" fill="#000" opacity="1">(JohT) inputPerKernelValue Transposed InnerLoopUnrolled</text><text text-anchor="end" transform="translate(-7,172.5)" font-family="sans-serif" font-size="10px" fill="#000" opacity="1">(wilczek) Outer- and Inner-Loop Vectorization</text><text text-anchor="end" transform="translate(-7,192.5)" font-family="sans-serif" font-size="10px" fill="#000" opacity="1">(wilczek) Inner-Loop Vectorization</text><text text-anchor="end" transform="translate(-7,212.5)" font-family="sans-serif" font-size="10px" fill="#000" opacity="1">(wilczek) Single</text><text text-anchor="end" transform="translate(-7,232.5)" font-family="sans-serif" font-size="10px" fill="#000" opacity="1">(matlab-like) conv 'valid' shape pre padded</text><text text-anchor="end" transform="translate(-7,252.5)" font-family="sans-serif" font-size="10px" fill="#000" opacity="1">(wilczek) Outer-Loop Vectorization</text><text text-anchor="end" transform="translate(-7,272.5)" font-family="sans-serif" font-size="10px" fill="#000" opacity="1">(chaowang15) convolve1D</text><text text-anchor="end" transform="translate(-7,292.5)" font-family="sans-serif" font-size="10px" fill="#000" opacity="1">(matlab-like) conv 'full' shape</text></g><g class="mark-rule role-axis-domain" pointer-events="none"><line transform="translate(0,0)" x2="0" y2="300" stroke="#888" stroke-width="1" opacity="1"/></g><g class="mark-text role-axis-title" pointer-events="none"><text text-anchor="middle" transform="translate(-320,150) rotate(-90) translate(0,-2)" font-family="sans-serif" font-size="11px" font-weight="bold" fill="#000" opacity="1">algorithm</text></g></g><path class="foreground" aria-hidden="true" d="" pointer-events="none" display="none"/></g></g><g class="mark-rect role-mark child_layer_0_marks" role="graphics-object" aria-roledescription="rect mark container"><path aria-label="mean execution time in µs: 120; algorithm: (JohT) kernelPerInputValue Transposed" role="graphics-symbol" aria-roledescription="bar" d="M0,61.9L76,61.9C78.207660097976,61.9,80,63.692339902023996,80,65.9L80,74.1C80,76.307660097976,78.207660097976,78.1,76,78.1L0,78.1C0,78.1,0,78.1,0,78.1L0,61.9C0,61.9,0,61.9,0,61.9Z" fill="#4c78a8"/><path aria-label="mean execution time in µs: 73; algorithm: (JohT) inputPerKernelValue Transposed" role="graphics-symbol" aria-roledescription="bar" d="M0,1.9L44.66666666666667,1.9C46.874326764642674,1.9,48.66666666666667,3.692339902024,48.66666666666667,5.9L48.66666666666667,14.099999999999998C48.66666666666667,16.307660097975997,46.874326764642674,18.099999999999998,44.66666666666667,18.099999999999998L0,18.099999999999998C0,18.099999999999998,0,18.099999999999998,0,18.099999999999998L0,1.9C0,1.9,0,1.9,0,1.9Z" fill="#4c78a8"/><path aria-label="mean execution time in µs: 137; algorithm: (JohT) inputPerKernelValue Transposed InnerLoopUnrolled" role="graphics-symbol" aria-roledescription="bar" d="M0,141.9L87.33333333333333,141.9C89.54099343130933,141.9,91.33333333333333,143.692339902024,91.33333333333333,145.9L91.33333333333333,154.1C91.33333333333333,156.307660097976,89.54099343130933,158.1,87.33333333333333,158.1L0,158.1C0,158.1,0,158.1,0,158.1L0,141.9C0,141.9,0,141.9,0,141.9Z" fill="#4c78a8"/><path aria-label="mean execution time in µs: 134; algorithm: (JohT) inputPerKernelValue Transposed OuterLoopUnrolled" role="graphics-symbol" aria-roledescription="bar" d="M0,121.9L85.33333333333333,121.9C87.54099343130933,121.9,89.33333333333333,123.692339902024,89.33333333333333,125.9L89.33333333333333,134.1C89.33333333333333,136.307660097976,87.54099343130933,138.1,85.33333333333333,138.1L0,138.1C0,138.1,0,138.1,0,138.1L0,121.9C0,121.9,0,121.9,0,121.9Z" fill="#4c78a8"/><path aria-label="mean execution time in µs: 121; algorithm: (JohT) inputPerKernelValue Transposed Inner&amp;OuterLoopUnrolled" role="graphics-symbol" aria-roledescription="bar" d="M0,81.9L76.66666666666666,81.9C78.87432676464266,81.9,80.66666666666666,83.692339902024,80.66666666666666,85.9L80.66666666666666,94.10000000000001C80.66666666666666,96.30766009797601,78.87432676464266,98.10000000000001,76.66666666666666,98.10000000000001L0,98.10000000000001C0,98.10000000000001,0,98.10000000000001,0,98.10000000000001L0,81.9C0,81.9,0,81.9,0,81.9Z" fill="#4c78a8"/><path aria-label="mean execution time in µs: 112; algorithm: (JohT) inputPerKernelValue Transposed LoopFission" role="graphics-symbol" aria-roledescription="bar" d="M0,41.9L70.66666666666667,41.9C72.87432676464267,41.9,74.66666666666667,43.692339902023996,74.66666666666667,45.9L74.66666666666667,54.099999999999994C74.66666666666667,56.307660097976,72.87432676464267,58.099999999999994,70.66666666666667,58.099999999999994L0,58.099999999999994C0,58.099999999999994,0,58.099999999999994,0,58.099999999999994L0,41.9C0,41.9,0,41.9,0,41.9Z" fill="#4c78a8"/><path aria-label="mean execution time in µs: 87; algorithm: (JohT) inputPerKernelValue Transposed LoopFissionIndexArithmetic" role="graphics-symbol" aria-roledescription="bar" d="M0,21.9L53.99999999999999,21.9C56.207660097975996,21.9,57.99999999999999,23.692339902024,57.99999999999999,25.9L57.99999999999999,34.099999999999994C57.99999999999999,36.307660097976,56.207660097975996,38.099999999999994,53.99999999999999,38.099999999999994L0,38.099999999999994C0,38.099999999999994,0,38.099999999999994,0,38.099999999999994L0,21.9C0,21.9,0,21.9,0,21.9Z" fill="#4c78a8"/><path aria-label="mean execution time in µs: 133; algorithm: (JohT) kernelPerInputValue Transposed LoopFission" role="graphics-symbol" aria-roledescription="bar" d="M0,101.9L84.66666666666667,101.9C86.87432676464267,101.9,88.66666666666667,103.692339902024,88.66666666666667,105.9L88.66666666666667,114.10000000000001C88.66666666666667,116.30766009797601,86.87432676464267,118.10000000000001,84.66666666666667,118.10000000000001L0,118.10000000000001C0,118.10000000000001,0,118.10000000000001,0,118.10000000000001L0,101.9C0,101.9,0,101.9,0,101.9Z" fill="#4c78a8"/><path aria-label="mean execution time in µs: 288; algorithm: (matlab-like) conv 'full' shape" role="graphics-symbol" aria-roledescription="bar" d="M0,281.9L188,281.9C190.207660097976,281.9,192,283.692339902024,192,285.9L192,294.09999999999997C192,296.30766009797594,190.207660097976,298.09999999999997,188,298.09999999999997L0,298.09999999999997C0,298.09999999999997,0,298.09999999999997,0,298.09999999999997L0,281.9C0,281.9,0,281.9,0,281.9Z" fill="#4c78a8"/><path aria-label="mean execution time in µs: 189; algorithm: (matlab-like) conv 'valid' shape pre padded" role="graphics-symbol" aria-roledescription="bar" d="M0,221.9L122,221.9C124.207660097976,221.9,126,223.692339902024,126,225.9L126,234.1C126,236.307660097976,124.207660097976,238.1,122,238.1L0,238.1C0,238.1,0,238.1,0,238.1L0,221.9C0,221.9,0,221.9,0,221.9Z" fill="#4c78a8"/><path aria-label="mean execution time in µs: 186; algorithm: (wilczek) Single" role="graphics-symbol" aria-roledescription="bar" d="M0,201.9L120,201.9C122.207660097976,201.9,124,203.692339902024,124,205.9L124,214.1C124,216.307660097976,122.207660097976,218.1,120,218.1L0,218.1C0,218.1,0,218.1,0,218.1L0,201.9C0,201.9,0,201.9,0,201.9Z" fill="#4c78a8"/><path aria-label="mean execution time in µs: 155; algorithm: (wilczek) Inner-Loop Vectorization" role="graphics-symbol" aria-roledescription="bar" d="M0,181.9L99.33333333333334,181.9C101.54099343130935,181.9,103.33333333333334,183.692339902024,103.33333333333334,185.9L103.33333333333334,194.1C103.33333333333334,196.307660097976,101.54099343130935,198.1,99.33333333333334,198.1L0,198.1C0,198.1,0,198.1,0,198.1L0,181.9C0,181.9,0,181.9,0,181.9Z" fill="#4c78a8"/><path aria-label="mean execution time in µs: 194; algorithm: (wilczek) Outer-Loop Vectorization" role="graphics-symbol" aria-roledescription="bar" d="M0,241.9L125.33333333333331,241.9C127.54099343130932,241.9,129.33333333333331,243.692339902024,129.33333333333331,245.9L129.33333333333331,254.10000000000002C129.33333333333331,256.307660097976,127.54099343130932,258.1,125.33333333333331,258.1L0,258.1C0,258.1,0,258.1,0,258.1L0,241.9C0,241.9,0,241.9,0,241.9Z" fill="#4c78a8"/><path aria-label="mean execution time in µs: 148; algorithm: (wilczek) Outer- and Inner-Loop Vectorization" role="graphics-symbol" aria-roledescription="bar" d="M0,161.9L94.66666666666667,161.9C96.87432676464267,161.9,98.66666666666667,163.692339902024,98.66666666666667,165.9L98.66666666666667,174.1C98.66666666666667,176.307660097976,96.87432676464267,178.1,94.66666666666667,178.1L0,178.1C0,178.1,0,178.1,0,178.1L0,161.9C0,161.9,0,161.9,0,161.9Z" fill="#4c78a8"/><path aria-label="mean execution time in µs: 212; algorithm: (chaowang15) convolve1D" role="graphics-symbol" aria-roledescription="bar" d="M0,261.9L137.33333333333334,261.9C139.54099343130935,261.9,141.33333333333334,263.692339902024,141.33333333333334,265.9L141.33333333333334,274.09999999999997C141.33333333333334,276.30766009797594,139.54099343130935,278.09999999999997,137.33333333333334,278.09999999999997L0,278.09999999999997C0,278.09999999999997,0,278.09999999999997,0,278.09999999999997L0,261.9C0,261.9,0,261.9,0,261.9Z" fill="#4c78a8"/></g><g class="mark-text role-mark child_layer_1_marks" role="graphics-object" aria-roledescription="text mark container"><text aria-label="mean execution time in µs: 120; algorithm: (JohT) kernelPerInputValue Transposed; MeanExecutionTime: 120" role="graphics-symbol" aria-roledescription="text mark" text-anchor="start" transform="translate(84,73)" font-family="sans-serif" font-size="9px" fill="black">120</text><text aria-label="mean execution time in µs: 73; algorithm: (JohT) inputPerKernelValue Transposed; MeanExecutionTime: 73" role="graphics-symbol" aria-roledescription="text mark" text-anchor="start" transform="translate(52.66666666666667,13)" font-family="sans-serif" font-size="9px" fill="black">73</text><text aria-label="mean execution time in µs: 137; algorithm: (JohT) inputPerKernelValue Transposed InnerLoopUnrolled; MeanExecutionTime: 137" role="graphics-symbol" aria-roledescription="text mark" text-anchor="start" transform="translate(95.33333333333333,153)" font-family="sans-serif" font-size="9px" fill="black">137</text><text aria-label="mean execution time in µs: 134; algorithm: (JohT) inputPerKernelValue Transposed OuterLoopUnrolled; MeanExecutionTime: 134" role="graphics-symbol" aria-roledescription="text mark" text-anchor="start" transform="translate(93.33333333333333,133)" font-family="sans-serif" font-size="9px" fill="black">134</text><text aria-label="mean execution time in µs: 121; algorithm: (JohT) inputPerKernelValue Transposed Inner&amp;OuterLoopUnrolled; MeanExecutionTime: 121" role="graphics-symbol" aria-roledescription="text mark" text-anchor="start" transform="translate(84.66666666666666,93)" font-family="sans-serif" font-size="9px" fill="black">121</text><text aria-label="mean execution time in µs: 112; algorithm: (JohT) inputPerKernelValue Transposed LoopFission; MeanExecutionTime: 112" role="graphics-symbol" aria-roledescription="text mark" text-anchor="start" transform="translate(78.66666666666667,53)" font-family="sans-serif" font-size="9px" fill="black">112</text><text aria-label="mean execution time in µs: 87; algorithm: (JohT) inputPerKernelValue Transposed LoopFissionIndexArithmetic; MeanExecutionTime: 87" role="graphics-symbol" aria-roledescription="text mark" text-anchor="start" transform="translate(61.99999999999999,33)" font-family="sans-serif" font-size="9px" fill="black">87</text><text aria-label="mean execution time in µs: 133; algorithm: (JohT) kernelPerInputValue Transposed LoopFission; MeanExecutionTime: 133" role="graphics-symbol" aria-roledescription="text mark" text-anchor="start" transform="translate(92.66666666666667,113)" font-family="sans-serif" font-size="9px" fill="black">133</text><text aria-label="mean execution time in µs: 288; algorithm: (matlab-like) conv 'full' shape; MeanExecutionTime: 288" role="graphics-symbol" aria-roledescription="text mark" text-anchor="start" transform="translate(196,293)" font-family="sans-serif" font-size="9px" fill="black">288</text><text aria-label="mean execution time in µs: 189; algorithm: (matlab-like) conv 'valid' shape pre padded; MeanExecutionTime: 189" role="graphics-symbol" aria-roledescription="text mark" text-anchor="start" transform="translate(130,233)" font-family="sans-serif" font-size="9px" fill="black">189</text><text aria-label="mean execution time in µs: 186; algorithm: (wilczek) Single; MeanExecutionTime: 186" role="graphics-symbol" aria-roledescription="text mark" text-anchor="start" transform="translate(128,213)" font-family="sans-serif" font-size="9px" fill="black">186</text><text aria-label="mean execution time in µs: 155; algorithm: (wilczek) Inner-Loop Vectorization; MeanExecutionTime: 155" role="graphics-symbol" aria-roledescription="text mark" text-anchor="start" transform="translate(107.33333333333334,193)" font-family="sans-serif" font-size="9px" fill="black">155</text><text aria-label="mean execution time in µs: 194; algorithm: (wilczek) Outer-Loop Vectorization; MeanExecutionTime: 194" role="graphics-symbol" aria-roledescription="text mark" text-anchor="start" transform="translate(133.33333333333331,253)" font-family="sans-serif" font-size="9px" fill="black">194</text><text aria-label="mean execution time in µs: 148; algorithm: (wilczek) Outer- and Inner-Loop Vectorization; MeanExecutionTime: 148" role="graphics-symbol" aria-roledescription="text mark" text-anchor="start" transform="translate(102.66666666666667,173)" font-family="sans-serif" font-size="9px" fill="black">148</text><text aria-label="mean execution time in µs: 212; algorithm: (chaowang15) convolve1D; MeanExecutionTime: 212" role="graphics-symbol" aria-roledescription="text mark" text-anchor="start" transform="translate(145.33333333333334,273)" font-family="sans-serif" font-size="9px" fill="black">212</text></g></g><path class="foreground" aria-hidden="true" d="" display="none"/></g><g transform="translate(742,0)"><path class="background" aria-hidden="true" d="M0.5,0.5h200v300h-200Z" stroke="#ddd"/><g><g class="mark-group role-axis" aria-hidden="true"><g transform="translate(0.5,300.5)"><path class="background" aria-hidden="true" d="M0,0h0v0h0Z" pointer-events="none"/><g><g class="mark-rule role-axis-grid" pointer-events="none"><line transform="translate(0,0)" x2="0" y2="-300" stroke="#ddd" stroke-width="1" opacity="1"/><line transform="translate(33,0)" x2="0" y2="-300" stroke="#ddd" stroke-width="1" opacity="1"/><line transform="translate(67,0)" x2="0" y2="-300" stroke="#ddd" stroke-width="1" opacity="1"/><line transform="translate(100,0)" x2="0" y2="-300" stroke="#ddd" stroke-width="1" opacity="1"/><line transform="translate(133,0)" x2="0" y2="-300" stroke="#ddd" stroke-width="1" opacity="1"/><line transform="translate(167,0)" x2="0" y2="-300" stroke="#ddd" stroke-width="1" opacity="1"/><line transform="translate(200,0)" x2="0" y2="-300" stroke="#ddd" stroke-width="1" opacity="1"/></g></g><path class="foreground" aria-hidden="true" d="" pointer-events="none" display="none"/></g></g><g class="mark-group role-axis" role="graphics-symbol" aria-roledescription="axis" aria-label="X-axis titled 'mean execution time in µs' for a linear scale with values from 0 to 12,000"><g transform="translate(0.5,300.5)"><path class="background" aria-hidden="true" d="M0,0h0v0h0Z" pointer-events="none"/><g><g class="mark-rule role-axis-tick" pointer-events="none"><line transform="translate(0,0)" x2="0" y2="5" stroke="#888" stroke-width="1" opacity="1"/><line transform="translate(33,0)" x2="0" y2="5" stroke="#888" stroke-width="1" opacity="1"/><line transform="translate(67,0)" x2="0" y2="5" stroke="#888" stroke-width="1" opacity="1"/><line transform="translate(100,0)" x2="0" y2="5" stroke="#888" stroke-width="1" opacity="1"/><line transform="translate(133,0)" x2="0" y2="5" stroke="#888" stroke-width="1" opacity="1"/><line transform="translate(167,0)" x2="0" y2="5" stroke="#888" stroke-width="1" opacity="1"/><line transform="translate(200,0)" x2="0" y2="5" stroke="#888" stroke-width="1" opacity="1"/></g><g class="mark-text role-axis-label" pointer-events="none"><text text-anchor="start" transform="translate(0,15)" font-family="sans-serif" font-size="10px" fill="#000" opacity="1">0</text><text text-anchor="middle" transform="translate(33.33333333333333,15)" font-family="sans-serif" font-size="10px" fill="#000" opacity="0">2,000</text><text text-anchor="middle" transform="translate(66.66666666666666,15)" font-family="sans-serif" font-size="10px" fill="#000" opacity="0">4,000</text><text text-anchor="middle" transform="translate(100,15)" font-family="sans-serif" font-size="10px" fill="#000" opacity="0">6,000</text><text text-anchor="middle" transform="translate(133.33333333333331,15)" font-family="sans-serif" font-size="10px" fill="#000" opacity="0">8,000</text><text text-anchor="middle" transform="translate(166.66666666666669,15)" font-family="sans-serif" font-size="10px" fill="#000" opacity="0">10,000</text><text text-anchor="end" transform="translate(200,15)" font-family="sans-serif" font-size="10px" fill="#000" opacity="1">12,000</text></g><g class="mark-rule role-axis-domain" pointer-events="none"><line transform="translate(0,0)" x2="200" y2="0" stroke="#888" stroke-width="1" opacity="1"/></g><g class="mark-text role-axis-title" pointer-events="none"><text text-anchor="middle" transform="translate(100,30)" font-family="sans-serif" font-size="11px" font-weight="bold" fill="#000" opacity="1">mean execution time in µs</text></g></g><path class="foreground" aria-hidden="true" d="" pointer-events="none" display="none"/></g></g><g class="mark-group role-axis" role="graphics-symbol" aria-roledescription="axis" aria-label="Y-axis titled 'algorithm' for a discrete scale with 15 values: (JohT) kernelPerInputValue Transposed, (JohT) inputPerKernelValue Transposed, (JohT) inputPerKernelValue Transposed LoopFissionIndexArithmetic, (JohT) kernelPerInputValue Transposed LoopFission, (JohT) inputPerKernelValue Transposed LoopFission, ending with (matlab-like) conv 'valid' shape pre padded"><g transform="translate(0.5,0.5)"><path class="background" aria-hidden="true" d="M0,0h0v0h0Z" pointer-events="none"/><g><g class="mark-rule role-axis-tick" pointer-events="none"><line transform="translate(0,10)" x2="-5" y2="0" stroke="#888" stroke-width="1" opacity="1"/><line transform="translate(0,30)" x2="-5" y2="0" stroke="#888" stroke-width="1" opacity="1"/><line transform="translate(0,50)" x2="-5" y2="0" stroke="#888" stroke-width="1" opacity="1"/><line transform="translate(0,70)" x2="-5" y2="0" stroke="#888" stroke-width="1" opacity="1"/><line transform="translate(0,90)" x2="-5" y2="0" stroke="#888" stroke-width="1" opacity="1"/><line transform="translate(0,110)" x2="-5" y2="0" stroke="#888" stroke-width="1" opacity="1"/><line transform="translate(0,130)" x2="-5" y2="0" stroke="#888" stroke-width="1" opacity="1"/><line transform="translate(0,150)" x2="-5" y2="0" stroke="#888" stroke-width="1" opacity="1"/><line transform="translate(0,170)" x2="-5" y2="0" stroke="#888" stroke-width="1" opacity="1"/><line transform="translate(0,190)" x2="-5" y2="0" stroke="#888" stroke-width="1" opacity="1"/><line transform="translate(0,210)" x2="-5" y2="0" stroke="#888" stroke-width="1" opacity="1"/><line transform="translate(0,230)" x2="-5" y2="0" stroke="#888" stroke-width="1" opacity="1"/><line transform="translate(0,250)" x2="-5" y2="0" stroke="#888" stroke-width="1" opacity="1"/><line transform="translate(0,270)" x2="-5" y2="0" stroke="#888" stroke-width="1" opacity="1"/><line transform="translate(0,290)" x2="-5" y2="0" stroke="#888" stroke-width="1" opacity="1"/></g><g class="mark-text role-axis-label" pointer-events="none"><text text-anchor="end" transform="translate(-7,12.5)" font-family="sans-serif" font-size="10px" fill="#000" opacity="1">(JohT) kernelPerInputValue Transposed</text><text text-anchor="end" transform="translate(-7,32.5)" font-family="sans-serif" font-size="10px" fill="#000" opacity="1">(JohT) inputPerKernelValue Transposed</text><text text-anchor="end" transform="translate(-7,52.5)" font-family="sans-serif" font-size="10px" fill="#000" opacity="1">(JohT) inputPerKernelValue Transposed LoopFissionIndexArithme…</text><text text-anchor="end" transform="translate(-7,72.5)" font-family="sans-serif" font-size="10px" fill="#000" opacity="1">(JohT) kernelPerInputValue Transposed LoopFission</text><text text-anchor="end" transform="translate(-7,92.5)" font-family="sans-serif" font-size="10px" fill="#000" opacity="1">(JohT) inputPerKernelValue Transposed LoopFission</text><text text-anchor="end" transform="translate(-7,112.5)" font-family="sans-serif" font-size="10px" fill="#000" opacity="1">(JohT) inputPerKernelValue Transposed Inner&amp;OuterLoopUnrolled</text><text text-anchor="end" transform="translate(-7,132.5)" font-family="sans-serif" font-size="10px" fill="#000" opacity="1">(JohT) inputPerKernelValue Transposed InnerLoopUnrolled</text><text text-anchor="end" transform="translate(-7,152.5)" font-family="sans-serif" font-size="10px" fill="#000" opacity="1">(JohT) inputPerKernelValue Transposed OuterLoopUnrolled</text><text text-anchor="end" transform="translate(-7,172.5)" font-family="sans-serif" font-size="10px" fill="#000" opacity="1">(wilczek) Outer- and Inner-Loop Vectorization</text><text text-anchor="end" transform="translate(-7,192.5)" font-family="sans-serif" font-size="10px" fill="#000" opacity="1">(wilczek) Inner-Loop Vectorization</text><text text-anchor="end" transform="translate(-7,212.5)" font-family="sans-serif" font-size="10px" fill="#000" opacity="1">(wilczek) Outer-Loop Vectorization</text><text text-anchor="end" transform="translate(-7,232.5)" font-family="sans-serif" font-size="10px" fill="#000" opacity="1">(matlab-like) conv 'full' shape</text><text text-anchor="end" transform="translate(-7,252.5)" font-family="sans-serif" font-size="10px" fill="#000" opacity="1">(chaowang15) convolve1D</text><text text-anchor="end" transform="translate(-7,272.5)" font-family="sans-serif" font-size="10px" fill="#000" opacity="1">(wilczek) Single</text><text text-anchor="end" transform="translate(-7,292.5)" font-family="sans-serif" font-size="10px" fill="#000" opacity="1">(matlab-like) conv 'valid' shape pre padded</text></g><g class="mark-rule role-axis-domain" pointer-events="none"><line transform="translate(0,0)" x2="0" y2="300" stroke="#888" stroke-width="1" opacity="1"/></g><g class="mark-text role-axis-title" pointer-events="none"><text text-anchor="middle" transform="translate(-320,150) rotate(-90) translate(0,-2)" font-family="sans-serif" font-size="11px" font-weight="bold" fill="#000" opacity="1">algorithm</text></g></g><path class="foreground" aria-hidden="true" d="" pointer-events="none" display="none"/></g></g><g class="mark-rect role-mark child_layer_0_marks" role="graphics-object" aria-roledescription="rect mark container"><path aria-label="mean execution time in µs: 1622; algorithm: (JohT) kernelPerInputValue Transposed" role="graphics-symbol" aria-roledescription="bar" d="M0,1.9L23.03333333333333,1.9C25.24099343130933,1.9,27.03333333333333,3.692339902024,27.03333333333333,5.9L27.03333333333333,14.099999999999998C27.03333333333333,16.307660097975997,25.24099343130933,18.099999999999998,23.03333333333333,18.099999999999998L0,18.099999999999998C0,18.099999999999998,0,18.099999999999998,0,18.099999999999998L0,1.9C0,1.9,0,1.9,0,1.9Z" fill="#4c78a8"/><path aria-label="mean execution time in µs: 1962; algorithm: (JohT) inputPerKernelValue Transposed" role="graphics-symbol" aria-roledescription="bar" d="M0,21.9L28.700000000000003,21.9C30.907660097976002,21.9,32.7,23.692339902024,32.7,25.9L32.7,34.099999999999994C32.7,36.307660097976,30.907660097976002,38.099999999999994,28.700000000000003,38.099999999999994L0,38.099999999999994C0,38.099999999999994,0,38.099999999999994,0,38.099999999999994L0,21.9C0,21.9,0,21.9,0,21.9Z" fill="#4c78a8"/><path aria-label="mean execution time in µs: 4091; algorithm: (JohT) inputPerKernelValue Transposed InnerLoopUnrolled" role="graphics-symbol" aria-roledescription="bar" d="M0,121.9L64.18333333333332,121.9C66.39099343130933,121.9,68.18333333333332,123.692339902024,68.18333333333332,125.9L68.18333333333332,134.1C68.18333333333332,136.307660097976,66.39099343130933,138.1,64.18333333333332,138.1L0,138.1C0,138.1,0,138.1,0,138.1L0,121.9C0,121.9,0,121.9,0,121.9Z" fill="#4c78a8"/><path aria-label="mean execution time in µs: 4225; algorithm: (JohT) inputPerKernelValue Transposed OuterLoopUnrolled" role="graphics-symbol" aria-roledescription="bar" d="M0,141.9L66.41666666666667,141.9C68.62432676464267,141.9,70.41666666666667,143.692339902024,70.41666666666667,145.9L70.41666666666667,154.1C70.41666666666667,156.307660097976,68.62432676464267,158.1,66.41666666666667,158.1L0,158.1C0,158.1,0,158.1,0,158.1L0,141.9C0,141.9,0,141.9,0,141.9Z" fill="#4c78a8"/><path aria-label="mean execution time in µs: 3603; algorithm: (JohT) inputPerKernelValue Transposed Inner&amp;OuterLoopUnrolled" role="graphics-symbol" aria-roledescription="bar" d="M0,101.9L56.050000000000004,101.9C58.25766009797601,101.9,60.050000000000004,103.692339902024,60.050000000000004,105.9L60.050000000000004,114.10000000000001C60.050000000000004,116.30766009797601,58.25766009797601,118.10000000000001,56.050000000000004,118.10000000000001L0,118.10000000000001C0,118.10000000000001,0,118.10000000000001,0,118.10000000000001L0,101.9C0,101.9,0,101.9,0,101.9Z" fill="#4c78a8"/><path aria-label="mean execution time in µs: 3118; algorithm: (JohT) inputPerKernelValue Transposed LoopFission" role="graphics-symbol" aria-roledescription="bar" d="M0,81.9L47.96666666666667,81.9C50.17432676464267,81.9,51.96666666666667,83.692339902024,51.96666666666667,85.9L51.96666666666667,94.10000000000001C51.96666666666667,96.30766009797601,50.17432676464267,98.10000000000001,47.96666666666667,98.10000000000001L0,98.10000000000001C0,98.10000000000001,0,98.10000000000001,0,98.10000000000001L0,81.9C0,81.9,0,81.9,0,81.9Z" fill="#4c78a8"/><path aria-label="mean execution time in µs: 2794; algorithm: (JohT) inputPerKernelValue Transposed LoopFissionIndexArithmetic" role="graphics-symbol" aria-roledescription="bar" d="M0,41.9L42.56666666666667,41.9C44.77432676464267,41.9,46.56666666666667,43.692339902023996,46.56666666666667,45.9L46.56666666666667,54.099999999999994C46.56666666666667,56.307660097976,44.77432676464267,58.099999999999994,42.56666666666667,58.099999999999994L0,58.099999999999994C0,58.099999999999994,0,58.099999999999994,0,58.099999999999994L0,41.9C0,41.9,0,41.9,0,41.9Z" fill="#4c78a8"/><path aria-label="mean execution time in µs: 2865; algorithm: (JohT) kernelPerInputValue Transposed LoopFission" role="graphics-symbol" aria-roledescription="bar" d="M0,61.9L43.75,61.9C45.957660097976,61.9,47.75,63.692339902023996,47.75,65.9L47.75,74.1C47.75,76.307660097976,45.957660097976,78.1,43.75,78.1L0,78.1C0,78.1,0,78.1,0,78.1L0,61.9C0,61.9,0,61.9,0,61.9Z" fill="#4c78a8"/><path aria-label="mean execution time in µs: 10940; algorithm: (matlab-like) conv 'full' shape" role="graphics-symbol" aria-roledescription="bar" d="M0,221.9L178.33333333333331,221.9C180.54099343130932,221.9,182.33333333333331,223.692339902024,182.33333333333331,225.9L182.33333333333331,234.1C182.33333333333331,236.307660097976,180.54099343130932,238.1,178.33333333333331,238.1L0,238.1C0,238.1,0,238.1,0,238.1L0,221.9C0,221.9,0,221.9,0,221.9Z" fill="#4c78a8"/><path aria-label="mean execution time in µs: 11276; algorithm: (matlab-like) conv 'valid' shape pre padded" role="graphics-symbol" aria-roledescription="bar" d="M0,281.9L183.93333333333334,281.9C186.14099343130934,281.9,187.93333333333334,283.692339902024,187.93333333333334,285.9L187.93333333333334,294.09999999999997C187.93333333333334,296.30766009797594,186.14099343130934,298.09999999999997,183.93333333333334,298.09999999999997L0,298.09999999999997C0,298.09999999999997,0,298.09999999999997,0,298.09999999999997L0,281.9C0,281.9,0,281.9,0,281.9Z" fill="#4c78a8"/><path aria-label="mean execution time in µs: 11251; algorithm: (wilczek) Single" role="graphics-symbol" aria-roledescription="bar" d="M0,261.9L183.51666666666665,261.9C185.72432676464265,261.9,187.51666666666665,263.692339902024,187.51666666666665,265.9L187.51666666666665,274.09999999999997C187.51666666666665,276.30766009797594,185.72432676464265,278.09999999999997,183.51666666666665,278.09999999999997L0,278.09999999999997C0,278.09999999999997,0,278.09999999999997,0,278.09999999999997L0,261.9C0,261.9,0,261.9,0,261.9Z" fill="#4c78a8"/><path aria-label="mean execution time in µs: 4657; algorithm: (wilczek) Inner-Loop Vectorization" role="graphics-symbol" aria-roledescription="bar" d="M0,181.9L73.61666666666667,181.9C75.82432676464268,181.9,77.61666666666667,183.692339902024,77.61666666666667,185.9L77.61666666666667,194.1C77.61666666666667,196.307660097976,75.82432676464268,198.1,73.61666666666667,198.1L0,198.1C0,198.1,0,198.1,0,198.1L0,181.9C0,181.9,0,181.9,0,181.9Z" fill="#4c78a8"/><path aria-label="mean execution time in µs: 6858; algorithm: (wilczek) Outer-Loop Vectorization" role="graphics-symbol" aria-roledescription="bar" d="M0,201.9L110.3,201.9C112.507660097976,201.9,114.3,203.692339902024,114.3,205.9L114.3,214.1C114.3,216.307660097976,112.507660097976,218.1,110.3,218.1L0,218.1C0,218.1,0,218.1,0,218.1L0,201.9C0,201.9,0,201.9,0,201.9Z" fill="#4c78a8"/><path aria-label="mean execution time in µs: 4402; algorithm: (wilczek) Outer- and Inner-Loop Vectorization" role="graphics-symbol" aria-roledescription="bar" d="M0,161.9L69.36666666666667,161.9C71.57432676464268,161.9,73.36666666666667,163.692339902024,73.36666666666667,165.9L73.36666666666667,174.1C73.36666666666667,176.307660097976,71.57432676464268,178.1,69.36666666666667,178.1L0,178.1C0,178.1,0,178.1,0,178.1L0,161.9C0,161.9,0,161.9,0,161.9Z" fill="#4c78a8"/><path aria-label="mean execution time in µs: 11107; algorithm: (chaowang15) convolve1D" role="graphics-symbol" aria-roledescription="bar" d="M0,241.9L181.11666666666667,241.9C183.32432676464268,241.9,185.11666666666667,243.692339902024,185.11666666666667,245.9L185.11666666666667,254.10000000000002C185.11666666666667,256.307660097976,183.32432676464268,258.1,181.11666666666667,258.1L0,258.1C0,258.1,0,258.1,0,258.1L0,241.9C0,241.9,0,241.9,0,241.9Z" fill="#4c78a8"/></g><g class="mark-text role-mark child_layer_1_marks" role="graphics-object" aria-roledescription="text mark container"><text aria-label="mean execution time in µs: 1622; algorithm: (JohT) kernelPerInputValue Transposed; MeanExecutionTime: 1622" role="graphics-symbol" aria-roledescription="text mark" text-anchor="start" transform="translate(31.03333333333333,13)" font-family="sans-serif" font-size="9px" fill="black">1622</text><text aria-label="mean execution time in µs: 1962; algorithm: (JohT) inputPerKernelValue Transposed; MeanExecutionTime: 1962" role="graphics-symbol" aria-roledescription="text mark" text-anchor="start" transform="translate(36.7,33)" font-family="sans-serif" font-size="9px" fill="black">1962</text><text aria-label="mean execution time in µs: 4091; algorithm: (JohT) inputPerKernelValue Transposed InnerLoopUnrolled; MeanExecutionTime: 4091" role="graphics-symbol" aria-roledescription="text mark" text-anchor="start" transform="translate(72.18333333333332,133)" font-family="sans-serif" font-size="9px" fill="black">4091</text><text aria-label="mean execution time in µs: 4225; algorithm: (JohT) inputPerKernelValue Transposed OuterLoopUnrolled; MeanExecutionTime: 4225" role="graphics-symbol" aria-roledescription="text mark" text-anchor="start" transform="translate(74.41666666666667,153)" font-family="sans-serif" font-size="9px" fill="black">4225</text><text aria-label="mean execution time in µs: 3603; algorithm: (JohT) inputPerKernelValue Transposed Inner&amp;OuterLoopUnrolled; MeanExecutionTime: 3603" role="graphics-symbol" aria-roledescription="text mark" text-anchor="start" transform="translate(64.05000000000001,113)" font-family="sans-serif" font-size="9px" fill="black">3603</text><text aria-label="mean execution time in µs: 3118; algorithm: (JohT) inputPerKernelValue Transposed LoopFission; MeanExecutionTime: 3118" role="graphics-symbol" aria-roledescription="text mark" text-anchor="start" transform="translate(55.96666666666667,93)" font-family="sans-serif" font-size="9px" fill="black">3118</text><text aria-label="mean execution time in µs: 2794; algorithm: (JohT) inputPerKernelValue Transposed LoopFissionIndexArithmetic; MeanExecutionTime: 2794" role="graphics-symbol" aria-roledescription="text mark" text-anchor="start" transform="translate(50.56666666666667,53)" font-family="sans-serif" font-size="9px" fill="black">2794</text><text aria-label="mean execution time in µs: 2865; algorithm: (JohT) kernelPerInputValue Transposed LoopFission; MeanExecutionTime: 2865" role="graphics-symbol" aria-roledescription="text mark" text-anchor="start" transform="translate(51.75,73)" font-family="sans-serif" font-size="9px" fill="black">2865</text><text aria-label="mean execution time in µs: 10940; algorithm: (matlab-like) conv 'full' shape; MeanExecutionTime: 10940" role="graphics-symbol" aria-roledescription="text mark" text-anchor="start" transform="translate(186.33333333333331,233)" font-family="sans-serif" font-size="9px" fill="black">10940</text><text aria-label="mean execution time in µs: 11276; algorithm: (matlab-like) conv 'valid' shape pre padded; MeanExecutionTime: 11276" role="graphics-symbol" aria-roledescription="text mark" text-anchor="start" transform="translate(191.93333333333334,293)" font-family="sans-serif" font-size="9px" fill="black">11276</text><text aria-label="mean execution time in µs: 11251; algorithm: (wilczek) Single; MeanExecutionTime: 11251" role="graphics-symbol" aria-roledescription="text mark" text-anchor="start" transform="translate(191.51666666666665,273)" font-family="sans-serif" font-size="9px" fill="black">11251</text><text aria-label="mean execution time in µs: 4657; algorithm: (wilczek) Inner-Loop Vectorization; MeanExecutionTime: 4657" role="graphics-symbol" aria-roledescription="text mark" text-anchor="start" transform="translate(81.61666666666667,193)" font-family="sans-serif" font-size="9px" fill="black">4657</text><text aria-label="mean execution time in µs: 6858; algorithm: (wilczek) Outer-Loop Vectorization; MeanExecutionTime: 6858" role="graphics-symbol" aria-roledescription="text mark" text-anchor="start" transform="translate(118.3,213)" font-family="sans-serif" font-size="9px" fill="black">6858</text><text aria-label="mean execution time in µs: 4402; algorithm: (wilczek) Outer- and Inner-Loop Vectorization; MeanExecutionTime: 4402" role="graphics-symbol" aria-roledescription="text mark" text-anchor="start" transform="translate(77.36666666666667,173)" font-family="sans-serif" font-size="9px" fill="black">4402</text><text aria-label="mean execution time in µs: 11107; algorithm: (chaowang15) convolve1D; MeanExecutionTime: 11107" role="graphics-symbol" aria-roledescription="text mark" text-anchor="start" transform="translate(189.11666666666667,253)" font-family="sans-serif" font-size="9px" fill="black">11107</text></g></g><path class="foreground" aria-hidden="true" d="" display="none"/></g></g></g><path class="foreground" aria-hidden="true" d="" display="none"/></g></g></g></svg>