<svg xmlns="http://www.w3.org/2000/svg" xmlns:xlink="http://www.w3.org/1999/xlink" version="1.1" class="marks" width="1476" height="404" viewBox="0 0 1476 404"><rect width="1476" height="404" fill="white"/><g fill="none" stroke-miterlimit="10" transform="translate(509,66)"><g class="mark-group role-frame root" role="graphics-object" aria-roledescription="group mark container"><g transform="translate(0,0)"><path class="background" aria-hidden="true" d="M0,0h0v0h0Z"/><g><g class="mark-group role-column-title column-title" role="graphics-object" aria-roledescription="group mark container"><g transform="translate(229,-35)"><path class="background" aria-hidden="true" d="M0,0h0v0h0Z"/><g><g class="mark-group role-title"><g transform="translate(0,-26)"><path class="background" aria-hidden="true" d="M0,0h0v0h0Z" pointer-events="none"/><g><g class="mark-text role-title-text" role="graphics-symbol" aria-roledescription="title" aria-label="Title text 'Convolution Benchmarks'" pointer-events="none"><text text-anchor="middle" transform="translate(0,13)" font-family="sans-serif" font-size="16px" font-weight="bold" fill="#000" opacity="1">Convolution Benchmarks</text></g></g><path class="foreground" aria-hidden="true" d="" pointer-events="none" display="none"/></g></g></g><path class="foreground" aria-hidden="true" d="" display="none"/></g></g><g class="mark-group role-column-header column_header" role="graphics-object" aria-roledescription="group mark container"><g transform="translate(0,-1)"><path class="background" aria-hidden="true" d="M0,0h200v0h-200Z"/><g><g class="mark-group role-title"><g transform="translate(100,-24)"><path class="background" aria-hidden="true" d="M0,0h0v0h0Z" pointer-events="none"/><g><g class="mark-text role-title-text" role="graphics-symbol" aria-roledescription="title" aria-label="Title text 'kernel size 16'" pointer-events="none"><text text-anchor="middle" transform="translate(0,11)" font-family="sans-serif" font-size="14px" fill="#000" opacity="1">kernel size 16</text></g></g><path class="foreground" aria-hidden="true" d="" pointer-events="none" display="none"/></g></g></g><path class="foreground" aria-hidden="true" d="" display="none"/></g><g transform="translate(750,-1)"><path class="background" aria-hidden="true" d="M0,0h200v0h-200Z"/><g><g class="mark-group role-title"><g transform="translate(100,-24)"><path class="background" aria-hidden="true" d="M0,0h0v0h0Z" pointer-events="none"/><g><g class="mark-text role-title-text" role="graphics-symbol" aria-roledescription="title" aria-label="Title text 'kernel size 512'" pointer-events="none"><text text-anchor="middle" transform="translate(0,11)" font-family="sans-serif" font-size="14px" fill="#000" opacity="1">kernel size 512</text></g></g><path class="foreground" aria-hidden="true" d="" pointer-events="none" display="none"/></g></g></g><path class="foreground" aria-hidden="true" d="" display="none"/></g></g><g class="mark-group role-scope cell" role="graphics-object" aria-roledescription="group mark container"><g transform="translate(0,0)"><path class="background" aria-hidden="true" d="M0.5,0.5h200v300h-200Z" stroke="#ddd"/><g><g class="mark-group role-axis" aria-hidden="true"><g transform="translate(0.5,300.5)"><path class="background" aria-hidden="true" d="M0,0h0v0h0Z" pointer-events="none"/><g><g class="mark-rule role-axis-grid" pointer-events="none"><line transform="translate(0,0)" x2="0" y2="-300" stroke="#ddd" stroke-width="1" opacity="1"/><line transform="translate(50,0)" x2="0" y2="-300" stroke="#ddd" stroke-width="1" opacity="1"/><line transform="translate(100,0)" x2="0" y2="-300" stroke="#ddd" stroke-width="1" opacity="1"/><line transform="translate(150,0)" x2="0" y2="-300" stroke="#ddd" stroke-width="1" opacity="1"/><line transform="translate(200,0)" x2="0" y2="-300" stroke="#ddd" stroke-width="1" opacity="1"/></g></g><path class="foreground" aria-hidden="true" d="" pointer-events="none" display="none"/></g></g><g class="mark-group role-axis" role="graphics-symbol" aria-roledescription="axis" aria-label="X-axis titled 'mean execution time in µs' for a linear scale with values from 0 to 200"><g transform="translate(0.5,300.5)"><path class="background" aria-hidden="true" d="M0,0h0v0h0Z" pointer-events="none"/><g><g class="mark-rule role-axis-tick" pointer-events="none"><line transform="translate(0,0)" x2="0" y2="5" stroke="#888" stroke-width="1" opacity="1"/><line transform="translate(50,0)" x2="0" y2="5" stroke="#888" stroke-width="1" opacity="1"/><line transform="translate(100,0)" x2="0" y2="5" stroke="#888" stroke-width="1" opacity="1"/><line transform="translate(150,0)" x2="0" y2="5" stroke="#888" stroke-width="1" opacity="1"/><line transform="translate(200,0)" x2="0" y2="5" stroke="#888" stroke-width="1" opacity="1"/></g><g class="mark-text role-axis-label" pointer-events="none"><text text-anchor="start" transform="translate(0,15)" font-family="sans-serif" font-size="10px" fill="#000" opacity="1">0</text><text text-anchor="middle" transform="translate(50,15)" font-family="sans-serif" font-size="10px" fill="#000" opacity="1">50</text><text text-anchor="middle" transform="translate(100,15)" font-family="sans-serif" font-size="10px" fill="#000" opacity="1">100</text><text text-anchor="middle" transform="translate(150,15)" font-family="sans-serif" font-size="10px" fill="#000" opacity="1">150</text><text text-anchor="end" transform="translate(200,15)" font-family="sans-serif" font-size="10px" fill="#000" opacity="1">200</text></g><g class="mark-rule role-axis-domain" pointer-events="none"><line transform="translate(0,0)" x2="200" y2="0" stroke="#888" stroke-width="1" opacity="1"/></g><g class="mark-text role-axis-title" pointer-events="none"><text text-anchor="middle" transform="translate(100,30)" font-family="sans-serif" font-size="11px" font-weight="bold" fill="#000" opacity="1">mean execution time in µs</text></g></g><path class="foreground" aria-hidden="true" d="" pointer-events="none" display="none"/></g></g><g class="mark-group role-axis" role="graphics-symbol" aria-roledescription="axis" aria-label="Y-axis titled 'algorithm' for a discrete scale with 15 values: (JohT) inputPerKernelValue Transposed, (JohT) inputPerKernelValue Transposed LoopFissionIndexArithmetic, (JohT) inputPerKernelValue Transposed LoopFission, (JohT) inputPerKernelValue Transposed OuterLoopUnrolled, (JohT) inputPerKernelValue Transposed InnerLoopUnrolled, ending with (wilczek) Outer-Loop Vectorization"><g transform="translate(0.5,0.5)"><path class="background" aria-hidden="true" d="M0,0h0v0h0Z" pointer-events="none"/><g><g class="mark-rule role-axis-tick" pointer-events="none"><line transform="translate(0,10)" x2="-5" y2="0" stroke="#888" stroke-width="1" opacity="1"/><line transform="translate(0,30)" x2="-5" y2="0" stroke="#888" stroke-width="1" opacity="1"/><line transform="translate(0,50)" x2="-5" y2="0" stroke="#888" stroke-width="1" opacity="1"/><line transform="translate(0,70)" x2="-5" y2="0" stroke="#888" stroke-width="1" opacity="1"/><line transform="translate(0,90)" x2="-5" y2="0" stroke="#888" stroke-width="1" opacity="1"/><line transform="translate(0,110)" x2="-5" y2="0" stroke="#888" stroke-width="1" opacity="1"/><line transform="translate(0,130)" x2="-5" y2="0" stroke="#888" stroke-width="1" opacity="1"/><line transform="translate(0,150)" x2="-5" y2="0" stroke="#888" stroke-width="1" opacity="1"/><line transform="translate(0,170)" x2="-5" y2="0" stroke="#888" stroke-width="1" opacity="1"/><line transform="translate(0,190)" x2="-5" y2="0" stroke="#888" stroke-width="1" opacity="1"/><line transform="translate(0,210)" x2="-5" y2="0" stroke="#888" stroke-width="1" opacity="1"/><line transform="translate(0,230)" x2="-5" y2="0" stroke="#888" stroke-width="1" opacity="1"/><line transform="translate(0,250)" x2="-5" y2="0" stroke="#888" stroke-width="1" opacity="1"/><line transform="translate(0,270)" x2="-5" y2="0" stroke="#888" stroke-width="1" opacity="1"/><line transform="translate(0,290)" x2="-5" y2="0" stroke="#888" stroke-width="1" opacity="1"/></g><g class="mark-text role-axis-label" pointer-events="none"><text text-anchor="end" transform="translate(-7,12.5)" font-family="sans-serif" font-size="10px" fill="#000" opacity="1">(JohT) inputPerKernelValue Transposed</text><text text-anchor="end" transform="translate(-7,32.5)" font-family="sans-serif" font-size="10px" fill="#000" opacity="1">(JohT) inputPerKernelValue Transposed LoopFissionIndexArithme…</text><text text-anchor="end" transform="translate(-7,52.5)" font-family="sans-serif" font-size="10px" fill="#000" opacity="1">(JohT) inputPerKernelValue Transposed LoopFission</text><text text-anchor="end" transform="translate(-7,72.5)" font-family="sans-serif" font-size="10px" fill="#000" opacity="1">(JohT) inputPerKernelValue Transposed OuterLoopUnrolled</text><text text-anchor="end" transform="translate(-7,92.5)" font-family="sans-serif" font-size="10px" fill="#000" opacity="1">(JohT) inputPerKernelValue Transposed InnerLoopUnrolled</text><text text-anchor="end" transform="translate(-7,112.5)" font-family="sans-serif" font-size="10px" fill="#000" opacity="1">(JohT) inputPerKernelValue Transposed Inner&amp;OuterLoopUnrolled</text><text text-anchor="end" transform="translate(-7,132.5)" font-family="sans-serif" font-size="10px" fill="#000" opacity="1">(wilczek) Inner-Loop Vectorization</text><text text-anchor="end" transform="translate(-7,152.5)" font-family="sans-serif" font-size="10px" fill="#000" opacity="1">(wilczek) Outer- and Inner-Loop Vectorization</text><text text-anchor="end" transform="translate(-7,172.5)" font-family="sans-serif" font-size="10px" fill="#000" opacity="1">(chaowang15) convolve1D</text><text text-anchor="end" transform="translate(-7,192.5)" font-family="sans-serif" font-size="10px" fill="#000" opacity="1">(matlab-like) conv 'valid' shape pre padded</text><text text-anchor="end" transform="translate(-7,212.5)" font-family="sans-serif" font-size="10px" fill="#000" opacity="1">(JohT) kernelPerInputValue Transposed</text><text text-anchor="end" transform="translate(-7,232.5)" font-family="sans-serif" font-size="10px" fill="#000" opacity="1">(JohT) kernelPerInputValue Transposed LoopFission</text><text text-anchor="end" transform="translate(-7,252.5)" font-family="sans-serif" font-size="10px" fill="#000" opacity="1">(wilczek) Single</text><text text-anchor="end" transform="translate(-7,272.5)" font-family="sans-serif" font-size="10px" fill="#000" opacity="1">(matlab-like) conv 'full' shape</text><text text-anchor="end" transform="translate(-7,292.5)" font-family="sans-serif" font-size="10px" fill="#000" opacity="1">(wilczek) Outer-Loop Vectorization</text></g><g class="mark-rule role-axis-domain" pointer-events="none"><line transform="translate(0,0)" x2="0" y2="300" stroke="#888" stroke-width="1" opacity="1"/></g><g class="mark-text role-axis-title" pointer-events="none"><text text-anchor="middle" transform="translate(-320,150) rotate(-90) translate(0,-2)" font-family="sans-serif" font-size="11px" font-weight="bold" fill="#000" opacity="1">algorithm</text></g></g><path class="foreground" aria-hidden="true" d="" pointer-events="none" display="none"/></g></g><g class="mark-rect role-mark child_layer_0_marks" role="graphics-object" aria-roledescription="rect mark container"><path aria-label="mean execution time in µs: 127; algorithm: (JohT) kernelPerInputValue Transposed" role="graphics-symbol" aria-roledescription="bar" d="M0,201.9L123,201.9C125.207660097976,201.9,127,203.692339902024,127,205.9L127,214.1C127,216.307660097976,125.207660097976,218.1,123,218.1L0,218.1C0,218.1,0,218.1,0,218.1L0,201.9C0,201.9,0,201.9,0,201.9Z" fill="#4c78a8"/><path aria-label="mean execution time in µs: 47; algorithm: (JohT) inputPerKernelValue Transposed" role="graphics-symbol" aria-roledescription="bar" d="M0,1.9L43,1.9C45.207660097976,1.9,47,3.692339902024,47,5.9L47,14.099999999999998C47,16.307660097975997,45.207660097976,18.099999999999998,43,18.099999999999998L0,18.099999999999998C0,18.099999999999998,0,18.099999999999998,0,18.099999999999998L0,1.9C0,1.9,0,1.9,0,1.9Z" fill="#4c78a8"/><path aria-label="mean execution time in µs: 94; algorithm: (JohT) inputPerKernelValue Transposed InnerLoopUnrolled" role="graphics-symbol" aria-roledescription="bar" d="M0,81.9L90,81.9C92.207660097976,81.9,94,83.692339902024,94,85.9L94,94.10000000000001C94,96.30766009797601,92.207660097976,98.10000000000001,90,98.10000000000001L0,98.10000000000001C0,98.10000000000001,0,98.10000000000001,0,98.10000000000001L0,81.9C0,81.9,0,81.9,0,81.9Z" fill="#4c78a8"/><path aria-label="mean execution time in µs: 69; algorithm: (JohT) inputPerKernelValue Transposed OuterLoopUnrolled" role="graphics-symbol" aria-roledescription="bar" d="M0,61.9L65,61.9C67.207660097976,61.9,69,63.692339902023996,69,65.9L69,74.1C69,76.307660097976,67.207660097976,78.1,65,78.1L0,78.1C0,78.1,0,78.1,0,78.1L0,61.9C0,61.9,0,61.9,0,61.9Z" fill="#4c78a8"/><path aria-label="mean execution time in µs: 94; algorithm: (JohT) inputPerKernelValue Transposed Inner&amp;OuterLoopUnrolled" role="graphics-symbol" aria-roledescription="bar" d="M0,101.9L90,101.9C92.207660097976,101.9,94,103.692339902024,94,105.9L94,114.10000000000001C94,116.30766009797601,92.207660097976,118.10000000000001,90,118.10000000000001L0,118.10000000000001C0,118.10000000000001,0,118.10000000000001,0,118.10000000000001L0,101.9C0,101.9,0,101.9,0,101.9Z" fill="#4c78a8"/><path aria-label="mean execution time in µs: 68; algorithm: (JohT) inputPerKernelValue Transposed LoopFission" role="graphics-symbol" aria-roledescription="bar" d="M0,41.9L64,41.9C66.207660097976,41.9,68,43.692339902023996,68,45.9L68,54.099999999999994C68,56.307660097976,66.207660097976,58.099999999999994,64,58.099999999999994L0,58.099999999999994C0,58.099999999999994,0,58.099999999999994,0,58.099999999999994L0,41.9C0,41.9,0,41.9,0,41.9Z" fill="#4c78a8"/><path aria-label="mean execution time in µs: 58; algorithm: (JohT) inputPerKernelValue Transposed LoopFissionIndexArithmetic" role="graphics-symbol" aria-roledescription="bar" d="M0,21.9L53.99999999999999,21.9C56.207660097975996,21.9,57.99999999999999,23.692339902024,57.99999999999999,25.9L57.99999999999999,34.099999999999994C57.99999999999999,36.307660097976,56.207660097975996,38.099999999999994,53.99999999999999,38.099999999999994L0,38.099999999999994C0,38.099999999999994,0,38.099999999999994,0,38.099999999999994L0,21.9C0,21.9,0,21.9,0,21.9Z" fill="#4c78a8"/><path aria-label="mean execution time in µs: 128; algorithm: (JohT) kernelPerInputValue Transposed LoopFission" role="graphics-symbol" aria-roledescription="bar" d="M0,221.9L124,221.9C126.207660097976,221.9,128,223.692339902024,128,225.9L128,234.1C128,236.307660097976,126.207660097976,238.1,124,238.1L0,238.1C0,238.1,0,238.1,0,238.1L0,221.9C0,221.9,0,221.9,0,221.9Z" fill="#4c78a8"/><path aria-label="mean execution time in µs: 167; algorithm: (matlab-like) conv 'full' shape" role="graphics-symbol" aria-roledescription="bar" d="M0,261.9L163,261.9C165.207660097976,261.9,167,263.692339902024,167,265.9L167,274.09999999999997C167,276.30766009797594,165.207660097976,278.09999999999997,163,278.09999999999997L0,278.09999999999997C0,278.09999999999997,0,278.09999999999997,0,278.09999999999997L0,261.9C0,261.9,0,261.9,0,261.9Z" fill="#4c78a8"/><path aria-label="mean execution time in µs: 123; algorithm: (matlab-like) conv 'valid' shape pre padded" role="graphics-symbol" aria-roledescription="bar" d="M0,181.9L119,181.9C121.207660097976,181.9,123,183.692339902024,123,185.9L123,194.1C123,196.307660097976,121.207660097976,198.1,119,198.1L0,198.1C0,198.1,0,198.1,0,198.1L0,181.9C0,181.9,0,181.9,0,181.9Z" fill="#4c78a8"/><path aria-label="mean execution time in µs: 156; algorithm: (wilczek) Single" role="graphics-symbol" aria-roledescription="bar" d="M0,241.9L152,241.9C154.207660097976,241.9,156,243.692339902024,156,245.9L156,254.10000000000002C156,256.307660097976,154.207660097976,258.1,152,258.1L0,258.1C0,258.1,0,258.1,0,258.1L0,241.9C0,241.9,0,241.9,0,241.9Z" fill="#4c78a8"/><path aria-label="mean execution time in µs: 94; algorithm: (wilczek) Inner-Loop Vectorization" role="graphics-symbol" aria-roledescription="bar" d="M0,121.9L90,121.9C92.207660097976,121.9,94,123.692339902024,94,125.9L94,134.1C94,136.307660097976,92.207660097976,138.1,90,138.1L0,138.1C0,138.1,0,138.1,0,138.1L0,121.9C0,121.9,0,121.9,0,121.9Z" fill="#4c78a8"/><path aria-label="mean execution time in µs: 200; algorithm: (wilczek) Outer-Loop Vectorization" role="graphics-symbol" aria-roledescription="bar" d="M0,281.9L196,281.9C198.207660097976,281.9,200,283.692339902024,200,285.9L200,294.09999999999997C200,296.30766009797594,198.207660097976,298.09999999999997,196,298.09999999999997L0,298.09999999999997C0,298.09999999999997,0,298.09999999999997,0,298.09999999999997L0,281.9C0,281.9,0,281.9,0,281.9Z" fill="#4c78a8"/><path aria-label="mean execution time in µs: 112; algorithm: (wilczek) Outer- and Inner-Loop Vectorization" role="graphics-symbol" aria-roledescription="bar" d="M0,141.9L108.00000000000001,141.9C110.20766009797602,141.9,112.00000000000001,143.692339902024,112.00000000000001,145.9L112.00000000000001,154.1C112.00000000000001,156.307660097976,110.20766009797602,158.1,108.00000000000001,158.1L0,158.1C0,158.1,0,158.1,0,158.1L0,141.9C0,141.9,0,141.9,0,141.9Z" fill="#4c78a8"/><path aria-label="mean execution time in µs: 121; algorithm: (chaowang15) convolve1D" role="graphics-symbol" aria-roledescription="bar" d="M0,161.9L117,161.9C119.207660097976,161.9,121,163.692339902024,121,165.9L121,174.1C121,176.307660097976,119.207660097976,178.1,117,178.1L0,178.1C0,178.1,0,178.1,0,178.1L0,161.9C0,161.9,0,161.9,0,161.9Z" fill="#4c78a8"/></g><g class="mark-text role-mark child_layer_1_marks" role="graphics-object" aria-roledescription="text mark container"><text aria-label="mean execution time in µs: 127; algorithm: (JohT) kernelPerInputValue Transposed; MeanExecutionTime: 127" role="graphics-symbol" aria-roledescription="text mark" text-anchor="start" transform="translate(131,213)" font-family="sans-serif" font-size="9px" fill="black">127</text><text aria-label="mean execution time in µs: 47; algorithm: (JohT) inputPerKernelValue Transposed; MeanExecutionTime: 47" role="graphics-symbol" aria-roledescription="text mark" text-anchor="start" transform="translate(51,13)" font-family="sans-serif" font-size="9px" fill="black">47</text><text aria-label="mean execution time in µs: 94; algorithm: (JohT) inputPerKernelValue Transposed InnerLoopUnrolled; MeanExecutionTime: 94" role="graphics-symbol" aria-roledescription="text mark" text-anchor="start" transform="translate(98,93)" font-family="sans-serif" font-size="9px" fill="black">94</text><text aria-label="mean execution time in µs: 69; algorithm: (JohT) inputPerKernelValue Transposed OuterLoopUnrolled; MeanExecutionTime: 69" role="graphics-symbol" aria-roledescription="text mark" text-anchor="start" transform="translate(73,73)" font-family="sans-serif" font-size="9px" fill="black">69</text><text aria-label="mean execution time in µs: 94; algorithm: (JohT) inputPerKernelValue Transposed Inner&amp;OuterLoopUnrolled; MeanExecutionTime: 94" role="graphics-symbol" aria-roledescription="text mark" text-anchor="start" transform="translate(98,113)" font-family="sans-serif" font-size="9px" fill="black">94</text><text aria-label="mean execution time in µs: 68; algorithm: (JohT) inputPerKernelValue Transposed LoopFission; MeanExecutionTime: 68" role="graphics-symbol" aria-roledescription="text mark" text-anchor="start" transform="translate(72,53)" font-family="sans-serif" font-size="9px" fill="black">68</text><text aria-label="mean execution time in µs: 58; algorithm: (JohT) inputPerKernelValue Transposed LoopFissionIndexArithmetic; MeanExecutionTime: 58" role="graphics-symbol" aria-roledescription="text mark" text-anchor="start" transform="translate(61.99999999999999,33)" font-family="sans-serif" font-size="9px" fill="black">58</text><text aria-label="mean execution time in µs: 128; algorithm: (JohT) kernelPerInputValue Transposed LoopFission; MeanExecutionTime: 128" role="graphics-symbol" aria-roledescription="text mark" text-anchor="start" transform="translate(132,233)" font-family="sans-serif" font-size="9px" fill="black">128</text><text aria-label="mean execution time in µs: 167; algorithm: (matlab-like) conv 'full' shape; MeanExecutionTime: 167" role="graphics-symbol" aria-roledescription="text mark" text-anchor="start" transform="translate(171,273)" font-family="sans-serif" font-size="9px" fill="black">167</text><text aria-label="mean execution time in µs: 123; algorithm: (matlab-like) conv 'valid' shape pre padded; MeanExecutionTime: 123" role="graphics-symbol" aria-roledescription="text mark" text-anchor="start" transform="translate(127,193)" font-family="sans-serif" font-size="9px" fill="black">123</text><text aria-label="mean execution time in µs: 156; algorithm: (wilczek) Single; MeanExecutionTime: 156" role="graphics-symbol" aria-roledescription="text mark" text-anchor="start" transform="translate(160,253)" font-family="sans-serif" font-size="9px" fill="black">156</text><text aria-label="mean execution time in µs: 94; algorithm: (wilczek) Inner-Loop Vectorization; MeanExecutionTime: 94" role="graphics-symbol" aria-roledescription="text mark" text-anchor="start" transform="translate(98,133)" font-family="sans-serif" font-size="9px" fill="black">94</text><text aria-label="mean execution time in µs: 200; algorithm: (wilczek) Outer-Loop Vectorization; MeanExecutionTime: 200" role="graphics-symbol" aria-roledescription="text mark" text-anchor="start" transform="translate(204,293)" font-family="sans-serif" font-size="9px" fill="black">200</text><text aria-label="mean execution time in µs: 112; algorithm: (wilczek) Outer- and Inner-Loop Vectorization; MeanExecutionTime: 112" role="graphics-symbol" aria-roledescription="text mark" text-anchor="start" transform="translate(116.00000000000001,153)" font-family="sans-serif" font-size="9px" fill="black">112</text><text aria-label="mean execution time in µs: 121; algorithm: (chaowang15) convolve1D; MeanExecutionTime: 121" role="graphics-symbol" aria-roledescription="text mark" text-anchor="start" transform="translate(125,173)" font-family="sans-serif" font-size="9px" fill="black">121</text></g></g><path class="foreground" aria-hidden="true" d="" display="none"/></g><g transform="translate(750,0)"><path class="background" aria-hidden="true" d="M0.5,0.5h200v300h-200Z" stroke="#ddd"/><g><g class="mark-group role-axis" aria-hidden="true"><g transform="translate(0.5,300.5)"><path class="background" aria-hidden="true" d="M0,0h0v0h0Z" pointer-events="none"/><g><g class="mark-rule role-axis-grid" pointer-events="none"><line transform="translate(0,0)" x2="0" y2="-300" stroke="#ddd" stroke-width="1" opacity="1"/><line transform="translate(44,0)" x2="0" y2="-300" stroke="#ddd" stroke-width="1" opacity="1"/><line transform="translate(89,0)" x2="0" y2="-300" stroke="#ddd" stroke-width="1" opacity="1"/><line transform="translate(133,0)" x2="0" y2="-300" stroke="#ddd" stroke-width="1" opacity="1"/><line transform="translate(178,0)" x2="0" y2="-300" stroke="#ddd" stroke-width="1" opacity="1"/></g></g><path class="foreground" aria-hidden="true" d="" pointer-events="none" display="none"/></g></g><g class="mark-group role-axis" role="graphics-symbol" aria-roledescription="axis" aria-label="X-axis titled 'mean execution time in µs' for a linear scale with values from 0 to 9,000"><g transform="translate(0.5,300.5)"><path class="background" aria-hidden="true" d="M0,0h0v0h0Z" pointer-events="none"/><g><g class="mark-rule role-axis-tick" pointer-events="none"><line transform="translate(0,0)" x2="0" y2="5" stroke="#888" stroke-width="1" opacity="1"/><line transform="translate(44,0)" x2="0" y2="5" stroke="#888" stroke-width="1" opacity="1"/><line transform="translate(89,0)" x2="0" y2="5" stroke="#888" stroke-width="1" opacity="1"/><line transform="translate(133,0)" x2="0" y2="5" stroke="#888" stroke-width="1" opacity="1"/><line transform="translate(178,0)" x2="0" y2="5" stroke="#888" stroke-width="1" opacity="1"/></g><g class="mark-text role-axis-label" pointer-events="none"><text text-anchor="start" transform="translate(0,15)" font-family="sans-serif" font-size="10px" fill="#000" opacity="1">0</text><text text-anchor="middle" transform="translate(44.44444444444444,15)" font-family="sans-serif" font-size="10px" fill="#000" opacity="1">2,000</text><text text-anchor="middle" transform="translate(88.88888888888889,15)" font-family="sans-serif" font-size="10px" fill="#000" opacity="1">4,000</text><text text-anchor="middle" transform="translate(133.33333333333331,15)" font-family="sans-serif" font-size="10px" fill="#000" opacity="1">6,000</text><text text-anchor="middle" transform="translate(177.77777777777777,15)" font-family="sans-serif" font-size="10px" fill="#000" opacity="1">8,000</text></g><g class="mark-rule role-axis-domain" pointer-events="none"><line transform="translate(0,0)" x2="200" y2="0" stroke="#888" stroke-width="1" opacity="1"/></g><g class="mark-text role-axis-title" pointer-events="none"><text text-anchor="middle" transform="translate(100,30)" font-family="sans-serif" font-size="11px" font-weight="bold" fill="#000" opacity="1">mean execution time in µs</text></g></g><path class="foreground" aria-hidden="true" d="" pointer-events="none" display="none"/></g></g><g class="mark-group role-axis" role="graphics-symbol" aria-roledescription="axis" aria-label="Y-axis titled 'algorithm' for a discrete scale with 15 values: (JohT) inputPerKernelValue Transposed, (JohT) kernelPerInputValue Transposed, (JohT) kernelPerInputValue Transposed LoopFission, (JohT) inputPerKernelValue Transposed LoopFissionIndexArithmetic, (JohT) inputPerKernelValue Transposed LoopFission, ending with (wilczek) Outer-Loop Vectorization"><g transform="translate(0.5,0.5)"><path class="background" aria-hidden="true" d="M0,0h0v0h0Z" pointer-events="none"/><g><g class="mark-rule role-axis-tick" pointer-events="none"><line transform="translate(0,10)" x2="-5" y2="0" stroke="#888" stroke-width="1" opacity="1"/><line transform="translate(0,30)" x2="-5" y2="0" stroke="#888" stroke-width="1" opacity="1"/><line transform="translate(0,50)" x2="-5" y2="0" stroke="#888" stroke-width="1" opacity="1"/><line transform="translate(0,70)" x2="-5" y2="0" stroke="#888" stroke-width="1" opacity="1"/><line transform="translate(0,90)" x2="-5" y2="0" stroke="#888" stroke-width="1" opacity="1"/><line transform="translate(0,110)" x2="-5" y2="0" stroke="#888" stroke-width="1" opacity="1"/><line transform="translate(0,130)" x2="-5" y2="0" stroke="#888" stroke-width="1" opacity="1"/><line transform="translate(0,150)" x2="-5" y2="0" stroke="#888" stroke-width="1" opacity="1"/><line transform="translate(0,170)" x2="-5" y2="0" stroke="#888" stroke-width="1" opacity="1"/><line transform="translate(0,190)" x2="-5" y2="0" stroke="#888" stroke-width="1" opacity="1"/><line transform="translate(0,210)" x2="-5" y2="0" stroke="#888" stroke-width="1" opacity="1"/><line transform="translate(0,230)" x2="-5" y2="0" stroke="#888" stroke-width="1" opacity="1"/><line transform="translate(0,250)" x2="-5" y2="0" stroke="#888" stroke-width="1" opacity="1"/><line transform="translate(0,270)" x2="-5" y2="0" stroke="#888" stroke-width="1" opacity="1"/><line transform="translate(0,290)" x2="-5" y2="0" stroke="#888" stroke-width="1" opacity="1"/></g><g class="mark-text role-axis-label" pointer-events="none"><text text-anchor="end" transform="translate(-7,12.5)" font-family="sans-serif" font-size="10px" fill="#000" opacity="1">(JohT) inputPerKernelValue Transposed</text><text text-anchor="end" transform="translate(-7,32.5)" font-family="sans-serif" font-size="10px" fill="#000" opacity="1">(JohT) kernelPerInputValue Transposed</text><text text-anchor="end" transform="translate(-7,52.5)" font-family="sans-serif" font-size="10px" fill="#000" opacity="1">(JohT) kernelPerInputValue Transposed LoopFission</text><text text-anchor="end" transform="translate(-7,72.5)" font-family="sans-serif" font-size="10px" fill="#000" opacity="1">(JohT) inputPerKernelValue Transposed LoopFissionIndexArithme…</text><text text-anchor="end" transform="translate(-7,92.5)" font-family="sans-serif" font-size="10px" fill="#000" opacity="1">(JohT) inputPerKernelValue Transposed LoopFission</text><text text-anchor="end" transform="translate(-7,112.5)" font-family="sans-serif" font-size="10px" fill="#000" opacity="1">(JohT) inputPerKernelValue Transposed OuterLoopUnrolled</text><text text-anchor="end" transform="translate(-7,132.5)" font-family="sans-serif" font-size="10px" fill="#000" opacity="1">(wilczek) Inner-Loop Vectorization</text><text text-anchor="end" transform="translate(-7,152.5)" font-family="sans-serif" font-size="10px" fill="#000" opacity="1">(JohT) inputPerKernelValue Transposed Inner&amp;OuterLoopUnrolled</text><text text-anchor="end" transform="translate(-7,172.5)" font-family="sans-serif" font-size="10px" fill="#000" opacity="1">(JohT) inputPerKernelValue Transposed InnerLoopUnrolled</text><text text-anchor="end" transform="translate(-7,192.5)" font-family="sans-serif" font-size="10px" fill="#000" opacity="1">(wilczek) Outer- and Inner-Loop Vectorization</text><text text-anchor="end" transform="translate(-7,212.5)" font-family="sans-serif" font-size="10px" fill="#000" opacity="1">(matlab-like) conv 'full' shape</text><text text-anchor="end" transform="translate(-7,232.5)" font-family="sans-serif" font-size="10px" fill="#000" opacity="1">(chaowang15) convolve1D</text><text text-anchor="end" transform="translate(-7,252.5)" font-family="sans-serif" font-size="10px" fill="#000" opacity="1">(matlab-like) conv 'valid' shape pre padded</text><text text-anchor="end" transform="translate(-7,272.5)" font-family="sans-serif" font-size="10px" fill="#000" opacity="1">(wilczek) Single</text><text text-anchor="end" transform="translate(-7,292.5)" font-family="sans-serif" font-size="10px" fill="#000" opacity="1">(wilczek) Outer-Loop Vectorization</text></g><g class="mark-rule role-axis-domain" pointer-events="none"><line transform="translate(0,0)" x2="0" y2="300" stroke="#888" stroke-width="1" opacity="1"/></g><g class="mark-text role-axis-title" pointer-events="none"><text text-anchor="middle" transform="translate(-320,150) rotate(-90) translate(0,-2)" font-family="sans-serif" font-size="11px" font-weight="bold" fill="#000" opacity="1">algorithm</text></g></g><path class="foreground" aria-hidden="true" d="" pointer-events="none" display="none"/></g></g><g class="mark-rect role-mark child_layer_0_marks" role="graphics-object" aria-roledescription="rect mark container"><path aria-label="mean execution time in µs: 1435; algorithm: (JohT) kernelPerInputValue Transposed" role="graphics-symbol" aria-roledescription="bar" d="M0,21.9L27.88888888888889,21.9C30.09654898686489,21.9,31.88888888888889,23.692339902024,31.88888888888889,25.9L31.88888888888889,34.099999999999994C31.88888888888889,36.307660097976,30.09654898686489,38.099999999999994,27.88888888888889,38.099999999999994L0,38.099999999999994C0,38.099999999999994,0,38.099999999999994,0,38.099999999999994L0,21.9C0,21.9,0,21.9,0,21.9Z" fill="#4c78a8"/><path aria-label="mean execution time in µs: 1359; algorithm: (JohT) inputPerKernelValue Transposed" role="graphics-symbol" aria-roledescription="bar" d="M0,1.9L26.2,1.9C28.407660097976,1.9,30.2,3.692339902024,30.2,5.9L30.2,14.099999999999998C30.2,16.307660097975997,28.407660097976,18.099999999999998,26.2,18.099999999999998L0,18.099999999999998C0,18.099999999999998,0,18.099999999999998,0,18.099999999999998L0,1.9C0,1.9,0,1.9,0,1.9Z" fill="#4c78a8"/><path aria-label="mean execution time in µs: 3003; algorithm: (JohT) inputPerKernelValue Transposed InnerLoopUnrolled" role="graphics-symbol" aria-roledescription="bar" d="M0,161.9L62.733333333333334,161.9C64.94099343130934,161.9,66.73333333333333,163.692339902024,66.73333333333333,165.9L66.73333333333333,174.1C66.73333333333333,176.307660097976,64.94099343130934,178.1,62.733333333333334,178.1L0,178.1C0,178.1,0,178.1,0,178.1L0,161.9C0,161.9,0,161.9,0,161.9Z" fill="#4c78a8"/><path aria-label="mean execution time in µs: 2174; algorithm: (JohT) inputPerKernelValue Transposed OuterLoopUnrolled" role="graphics-symbol" aria-roledescription="bar" d="M0,101.9L44.31111111111111,101.9C46.51877120908711,101.9,48.31111111111111,103.692339902024,48.31111111111111,105.9L48.31111111111111,114.10000000000001C48.31111111111111,116.30766009797601,46.51877120908711,118.10000000000001,44.31111111111111,118.10000000000001L0,118.10000000000001C0,118.10000000000001,0,118.10000000000001,0,118.10000000000001L0,101.9C0,101.9,0,101.9,0,101.9Z" fill="#4c78a8"/><path aria-label="mean execution time in µs: 2994; algorithm: (JohT) inputPerKernelValue Transposed Inner&amp;OuterLoopUnrolled" role="graphics-symbol" aria-roledescription="bar" d="M0,141.9L62.53333333333333,141.9C64.74099343130933,141.9,66.53333333333333,143.692339902024,66.53333333333333,145.9L66.53333333333333,154.1C66.53333333333333,156.307660097976,64.74099343130933,158.1,62.53333333333333,158.1L0,158.1C0,158.1,0,158.1,0,158.1L0,141.9C0,141.9,0,141.9,0,141.9Z" fill="#4c78a8"/><path aria-label="mean execution time in µs: 1996; algorithm: (JohT) inputPerKernelValue Transposed LoopFission" role="graphics-symbol" aria-roledescription="bar" d="M0,81.9L40.355555555555554,81.9C42.56321565353156,81.9,44.355555555555554,83.692339902024,44.355555555555554,85.9L44.355555555555554,94.10000000000001C44.355555555555554,96.30766009797601,42.56321565353156,98.10000000000001,40.355555555555554,98.10000000000001L0,98.10000000000001C0,98.10000000000001,0,98.10000000000001,0,98.10000000000001L0,81.9C0,81.9,0,81.9,0,81.9Z" fill="#4c78a8"/><path aria-label="mean execution time in µs: 1652; algorithm: (JohT) inputPerKernelValue Transposed LoopFissionIndexArithmetic" role="graphics-symbol" aria-roledescription="bar" d="M0,61.9L32.71111111111111,61.9C34.91877120908711,61.9,36.71111111111111,63.692339902023996,36.71111111111111,65.9L36.71111111111111,74.1C36.71111111111111,76.307660097976,34.91877120908711,78.1,32.71111111111111,78.1L0,78.1C0,78.1,0,78.1,0,78.1L0,61.9C0,61.9,0,61.9,0,61.9Z" fill="#4c78a8"/><path aria-label="mean execution time in µs: 1626; algorithm: (JohT) kernelPerInputValue Transposed LoopFission" role="graphics-symbol" aria-roledescription="bar" d="M0,41.9L32.13333333333333,41.9C34.340993431309336,41.9,36.13333333333333,43.692339902023996,36.13333333333333,45.9L36.13333333333333,54.099999999999994C36.13333333333333,56.307660097976,34.340993431309336,58.099999999999994,32.13333333333333,58.099999999999994L0,58.099999999999994C0,58.099999999999994,0,58.099999999999994,0,58.099999999999994L0,41.9C0,41.9,0,41.9,0,41.9Z" fill="#4c78a8"/><path aria-label="mean execution time in µs: 7603; algorithm: (matlab-like) conv 'full' shape" role="graphics-symbol" aria-roledescription="bar" d="M0,201.9L164.95555555555555,201.9C167.16321565353155,201.9,168.95555555555555,203.692339902024,168.95555555555555,205.9L168.95555555555555,214.1C168.95555555555555,216.307660097976,167.16321565353155,218.1,164.95555555555555,218.1L0,218.1C0,218.1,0,218.1,0,218.1L0,201.9C0,201.9,0,201.9,0,201.9Z" fill="#4c78a8"/><path aria-label="mean execution time in µs: 7712; algorithm: (matlab-like) conv 'valid' shape pre padded" role="graphics-symbol" aria-roledescription="bar" d="M0,241.9L167.3777777777778,241.9C169.5854378757538,241.9,171.3777777777778,243.692339902024,171.3777777777778,245.9L171.3777777777778,254.10000000000002C171.3777777777778,256.307660097976,169.5854378757538,258.1,167.3777777777778,258.1L0,258.1C0,258.1,0,258.1,0,258.1L0,241.9C0,241.9,0,241.9,0,241.9Z" fill="#4c78a8"/><path aria-label="mean execution time in µs: 7844; algorithm: (wilczek) Single" role="graphics-symbol" aria-roledescription="bar" d="M0,261.9L170.3111111111111,261.9C172.5187712090871,261.9,174.3111111111111,263.692339902024,174.3111111111111,265.9L174.3111111111111,274.09999999999997C174.3111111111111,276.30766009797594,172.5187712090871,278.09999999999997,170.3111111111111,278.09999999999997L0,278.09999999999997C0,278.09999999999997,0,278.09999999999997,0,278.09999999999997L0,261.9C0,261.9,0,261.9,0,261.9Z" fill="#4c78a8"/><path aria-label="mean execution time in µs: 2810; algorithm: (wilczek) Inner-Loop Vectorization" role="graphics-symbol" aria-roledescription="bar" d="M0,121.9L58.44444444444445,121.9C60.65210454242045,121.9,62.44444444444445,123.692339902024,62.44444444444445,125.9L62.44444444444445,134.1C62.44444444444445,136.307660097976,60.65210454242045,138.1,58.44444444444445,138.1L0,138.1C0,138.1,0,138.1,0,138.1L0,121.9C0,121.9,0,121.9,0,121.9Z" fill="#4c78a8"/><path aria-label="mean execution time in µs: 8024; algorithm: (wilczek) Outer-Loop Vectorization" role="graphics-symbol" aria-roledescription="bar" d="M0,281.9L174.3111111111111,281.9C176.5187712090871,281.9,178.3111111111111,283.692339902024,178.3111111111111,285.9L178.3111111111111,294.09999999999997C178.3111111111111,296.30766009797594,176.5187712090871,298.09999999999997,174.3111111111111,298.09999999999997L0,298.09999999999997C0,298.09999999999997,0,298.09999999999997,0,298.09999999999997L0,281.9C0,281.9,0,281.9,0,281.9Z" fill="#4c78a8"/><path aria-label="mean execution time in µs: 3341; algorithm: (wilczek) Outer- and Inner-Loop Vectorization" role="graphics-symbol" aria-roledescription="bar" d="M0,181.9L70.24444444444444,181.9C72.45210454242044,181.9,74.24444444444444,183.692339902024,74.24444444444444,185.9L74.24444444444444,194.1C74.24444444444444,196.307660097976,72.45210454242044,198.1,70.24444444444444,198.1L0,198.1C0,198.1,0,198.1,0,198.1L0,181.9C0,181.9,0,181.9,0,181.9Z" fill="#4c78a8"/><path aria-label="mean execution time in µs: 7605; algorithm: (chaowang15) convolve1D" role="graphics-symbol" aria-roledescription="bar" d="M0,221.9L165,221.9C167.207660097976,221.9,169,223.692339902024,169,225.9L169,234.1C169,236.307660097976,167.207660097976,238.1,165,238.1L0,238.1C0,238.1,0,238.1,0,238.1L0,221.9C0,221.9,0,221.9,0,221.9Z" fill="#4c78a8"/></g><g class="mark-text role-mark child_layer_1_marks" role="graphics-object" aria-roledescription="text mark container"><text aria-label="mean execution time in µs: 1435; algorithm: (JohT) kernelPerInputValue Transposed; MeanExecutionTime: 1435" role="graphics-symbol" aria-roledescription="text mark" text-anchor="start" transform="translate(35.888888888888886,33)" font-family="sans-serif" font-size="9px" fill="black">1435</text><text aria-label="mean execution time in µs: 1359; algorithm: (JohT) inputPerKernelValue Transposed; MeanExecutionTime: 1359" role="graphics-symbol" aria-roledescription="text mark" text-anchor="start" transform="translate(34.2,13)" font-family="sans-serif" font-size="9px" fill="black">1359</text><text aria-label="mean execution time in µs: 3003; algorithm: (JohT) inputPerKernelValue Transposed InnerLoopUnrolled; MeanExecutionTime: 3003" role="graphics-symbol" aria-roledescription="text mark" text-anchor="start" transform="translate(70.73333333333333,173)" font-family="sans-serif" font-size="9px" fill="black">3003</text><text aria-label="mean execution time in µs: 2174; algorithm: (JohT) inputPerKernelValue Transposed OuterLoopUnrolled; MeanExecutionTime: 2174" role="graphics-symbol" aria-roledescription="text mark" text-anchor="start" transform="translate(52.31111111111111,113)" font-family="sans-serif" font-size="9px" fill="black">2174</text><text aria-label="mean execution time in µs: 2994; algorithm: (JohT) inputPerKernelValue Transposed Inner&amp;OuterLoopUnrolled; MeanExecutionTime: 2994" role="graphics-symbol" aria-roledescription="text mark" text-anchor="start" transform="translate(70.53333333333333,153)" font-family="sans-serif" font-size="9px" fill="black">2994</text><text aria-label="mean execution time in µs: 1996; algorithm: (JohT) inputPerKernelValue Transposed LoopFission; MeanExecutionTime: 1996" role="graphics-symbol" aria-roledescription="text mark" text-anchor="start" transform="translate(48.355555555555554,93)" font-family="sans-serif" font-size="9px" fill="black">1996</text><text aria-label="mean execution time in µs: 1652; algorithm: (JohT) inputPerKernelValue Transposed LoopFissionIndexArithmetic; MeanExecutionTime: 1652" role="graphics-symbol" aria-roledescription="text mark" text-anchor="start" transform="translate(40.71111111111111,73)" font-family="sans-serif" font-size="9px" fill="black">1652</text><text aria-label="mean execution time in µs: 1626; algorithm: (JohT) kernelPerInputValue Transposed LoopFission; MeanExecutionTime: 1626" role="graphics-symbol" aria-roledescription="text mark" text-anchor="start" transform="translate(40.13333333333333,53)" font-family="sans-serif" font-size="9px" fill="black">1626</text><text aria-label="mean execution time in µs: 7603; algorithm: (matlab-like) conv 'full' shape; MeanExecutionTime: 7603" role="graphics-symbol" aria-roledescription="text mark" text-anchor="start" transform="translate(172.95555555555555,213)" font-family="sans-serif" font-size="9px" fill="black">7603</text><text aria-label="mean execution time in µs: 7712; algorithm: (matlab-like) conv 'valid' shape pre padded; MeanExecutionTime: 7712" role="graphics-symbol" aria-roledescription="text mark" text-anchor="start" transform="translate(175.3777777777778,253)" font-family="sans-serif" font-size="9px" fill="black">7712</text><text aria-label="mean execution time in µs: 7844; algorithm: (wilczek) Single; MeanExecutionTime: 7844" role="graphics-symbol" aria-roledescription="text mark" text-anchor="start" transform="translate(178.3111111111111,273)" font-family="sans-serif" font-size="9px" fill="black">7844</text><text aria-label="mean execution time in µs: 2810; algorithm: (wilczek) Inner-Loop Vectorization; MeanExecutionTime: 2810" role="graphics-symbol" aria-roledescription="text mark" text-anchor="start" transform="translate(66.44444444444446,133)" font-family="sans-serif" font-size="9px" fill="black">2810</text><text aria-label="mean execution time in µs: 8024; algorithm: (wilczek) Outer-Loop Vectorization; MeanExecutionTime: 8024" role="graphics-symbol" aria-roledescription="text mark" text-anchor="start" transform="translate(182.3111111111111,293)" font-family="sans-serif" font-size="9px" fill="black">8024</text><text aria-label="mean execution time in µs: 3341; algorithm: (wilczek) Outer- and Inner-Loop Vectorization; MeanExecutionTime: 3341" role="graphics-symbol" aria-roledescription="text mark" text-anchor="start" transform="translate(78.24444444444444,193)" font-family="sans-serif" font-size="9px" fill="black">3341</text><text aria-label="mean execution time in µs: 7605; algorithm: (chaowang15) convolve1D; MeanExecutionTime: 7605" role="graphics-symbol" aria-roledescription="text mark" text-anchor="start" transform="translate(173,233)" font-family="sans-serif" font-size="9px" fill="black">7605</text></g></g><path class="foreground" aria-hidden="true" d="" display="none"/></g></g></g><path class="foreground" aria-hidden="true" d="" display="none"/></g></g></g></svg>