<svg xmlns="http://www.w3.org/2000/svg" xmlns:xlink="http://www.w3.org/1999/xlink" version="1.1" class="marks" width="1480" height="404" viewBox="0 0 1480 404"><rect width="1480" height="404" fill="white"/><g fill="none" stroke-miterlimit="10" transform="translate(509,66)"><g class="mark-group role-frame root" role="graphics-object" aria-roledescription="group mark container"><g transform="translate(0,0)"><path class="background" aria-hidden="true" d="M0,0h0v0h0Z"/><g><g class="mark-group role-column-title column-title" role="graphics-object" aria-roledescription="group mark container"><g transform="translate(231,-35)"><path class="background" aria-hidden="true" d="M0,0h0v0h0Z"/><g><g class="mark-group role-title"><g transform="translate(0,-26)"><path class="background" aria-hidden="true" d="M0,0h0v0h0Z" pointer-events="none"/><g><g class="mark-text role-title-text" role="graphics-symbol" aria-roledescription="title" aria-label="Title text 'Convolution Benchmarks'" pointer-events="none"><text text-anchor="middle" transform="translate(0,13)" font-family="sans-serif" font-size="16px" font-weight="bold" fill="#000" opacity="1">Convolution Benchmarks</text></g></g><path class="foreground" aria-hidden="true" d="" pointer-events="none" display="none"/></g></g></g><path class="foreground" aria-hidden="true" d="" display="none"/></g></g><g class="mark-group role-column-header column_header" role="graphics-object" aria-roledescription="group mark container"><g transform="translate(0,-1)"><path class="background" aria-hidden="true" d="M0,0h200v0h-200Z"/><g><g class="mark-group role-title"><g transform="translate(100,-24)"><path class="background" aria-hidden="true" d="M0,0h0v0h0Z" pointer-events="none"/><g><g class="mark-text role-title-text" role="graphics-symbol" aria-roledescription="title" aria-label="Title text 'kernel size 16'" pointer-events="none"><text text-anchor="middle" transform="translate(0,11)" font-family="sans-serif" font-size="14px" fill="#000" opacity="1">kernel size 16</text></g></g><path class="foreground" aria-hidden="true" d="" pointer-events="none" display="none"/></g></g></g><path class="foreground" aria-hidden="true" d="" display="none"/></g><g transform="translate(737,-1)"><path class="background" aria-hidden="true" d="M0,0h200v0h-200Z"/><g><g class="mark-group role-title"><g transform="translate(100,-24)"><path class="background" aria-hidden="true" d="M0,0h0v0h0Z" pointer-events="none"/><g><g class="mark-text role-title-text" role="graphics-symbol" aria-roledescription="title" aria-label="Title text 'kernel size 512'" pointer-events="none"><text text-anchor="middle" transform="translate(0,11)" font-family="sans-serif" font-size="14px" fill="#000" opacity="1">kernel size 512</text></g></g><path class="foreground" aria-hidden="true" d="" pointer-events="none" display="none"/></g></g></g><path class="foreground" aria-hidden="true" d="" display="none"/></g></g><g class="mark-group role-scope cell" role="graphics-object" aria-roledescription="group mark container"><g transform="translate(0,0)"><path class="background" aria-hidden="true" d="M0.5,0.5h200v300h-200Z" stroke="#ddd"/><g><g class="mark-group role-axis" aria-hidden="true"><g transform="translate(0.5,300.5)"><path class="background" aria-hidden="true" d="M0,0h0v0h0Z" pointer-events="none"/><g><g class="mark-rule role-axis-grid" pointer-events="none"><line transform="translate(0,0)" x2="0" y2="-300" stroke="#ddd" stroke-width="1" opacity="1"/><line transform="translate(50,0)" x2="0" y2="-300" stroke="#ddd" stroke-width="1" opacity="1"/><line transform="translate(100,0)" x2="0" y2="-300" stroke="#ddd" stroke-width="1" opacity="1"/><line transform="translate(150,0)" x2="0" y2="-300" stroke="#ddd" stroke-width="1" opacity="1"/><line transform="translate(200,0)" x2="0" y2="-300" stroke="#ddd" stroke-width="1" opacity="1"/></g></g><path class="foreground" aria-hidden="true" d="" pointer-events="none" display="none"/></g></g><g class="mark-group role-axis" role="graphics-symbol" aria-roledescription="axis" aria-label="X-axis titled 'mean execution time in µs' for a linear scale with values from 0 to 200"><g transform="translate(0.5,300.5)"><path class="background" aria-hidden="true" d="M0,0h0v0h0Z" pointer-events="none"/><g><g class="mark-rule role-axis-tick" pointer-events="none"><line transform="translate(0,0)" x2="0" y2="5" stroke="#888" stroke-width="1" opacity="1"/><line transform="translate(50,0)" x2="0" y2="5" stroke="#888" stroke-width="1" opacity="1"/><line transform="translate(100,0)" x2="0" y2="5" stroke="#888" stroke-width="1" opacity="1"/><line transform="translate(150,0)" x2="0" y2="5" stroke="#888" stroke-width="1" opacity="1"/><line transform="translate(200,0)" x2="0" y2="5" stroke="#888" stroke-width="1" opacity="1"/></g><g class="mark-text role-axis-label" pointer-events="none"><text text-anchor="start" transform="translate(0,15)" font-family="sans-serif" font-size="10px" fill="#000" opacity="1">0</text><text text-anchor="middle" transform="translate(50,15)" font-family="sans-serif" font-size="10px" fill="#000" opacity="1">50</text><text text-anchor="middle" transform="translate(100,15)" font-family="sans-serif" font-size="10px" fill="#000" opacity="1">100</text><text text-anchor="middle" transform="translate(150,15)" font-family="sans-serif" font-size="10px" fill="#000" opacity="1">150</text><text text-anchor="end" transform="translate(200,15)" font-family="sans-serif" font-size="10px" fill="#000" opacity="1">200</text></g><g class="mark-rule role-axis-domain" pointer-events="none"><line transform="translate(0,0)" x2="200" y2="0" stroke="#888" stroke-width="1" opacity="1"/></g><g class="mark-text role-axis-title" pointer-events="none"><text text-anchor="middle" transform="translate(100,30)" font-family="sans-serif" font-size="11px" font-weight="bold" fill="#000" opacity="1">mean execution time in µs</text></g></g><path class="foreground" aria-hidden="true" d="" pointer-events="none" display="none"/></g></g><g class="mark-group role-axis" role="graphics-symbol" aria-roledescription="axis" aria-label="Y-axis titled 'algorithm' for a discrete scale with 15 values: (JohT) inputPerKernelValue Transposed, (JohT) inputPerKernelValue Transposed LoopFissionIndexArithmetic, (JohT) inputPerKernelValue Transposed LoopFission, (JohT) inputPerKernelValue Transposed Inner&amp;OuterLoopUnrolled, (JohT) inputPerKernelValue Transposed OuterLoopUnrolled, ending with (matlab-like) conv 'full' shape"><g transform="translate(0.5,0.5)"><path class="background" aria-hidden="true" d="M0,0h0v0h0Z" pointer-events="none"/><g><g class="mark-rule role-axis-tick" pointer-events="none"><line transform="translate(0,10)" x2="-5" y2="0" stroke="#888" stroke-width="1" opacity="1"/><line transform="translate(0,30)" x2="-5" y2="0" stroke="#888" stroke-width="1" opacity="1"/><line transform="translate(0,50)" x2="-5" y2="0" stroke="#888" stroke-width="1" opacity="1"/><line transform="translate(0,70)" x2="-5" y2="0" stroke="#888" stroke-width="1" opacity="1"/><line transform="translate(0,90)" x2="-5" y2="0" stroke="#888" stroke-width="1" opacity="1"/><line transform="translate(0,110)" x2="-5" y2="0" stroke="#888" stroke-width="1" opacity="1"/><line transform="translate(0,130)" x2="-5" y2="0" stroke="#888" stroke-width="1" opacity="1"/><line transform="translate(0,150)" x2="-5" y2="0" stroke="#888" stroke-width="1" opacity="1"/><line transform="translate(0,170)" x2="-5" y2="0" stroke="#888" stroke-width="1" opacity="1"/><line transform="translate(0,190)" x2="-5" y2="0" stroke="#888" stroke-width="1" opacity="1"/><line transform="translate(0,210)" x2="-5" y2="0" stroke="#888" stroke-width="1" opacity="1"/><line transform="translate(0,230)" x2="-5" y2="0" stroke="#888" stroke-width="1" opacity="1"/><line transform="translate(0,250)" x2="-5" y2="0" stroke="#888" stroke-width="1" opacity="1"/><line transform="translate(0,270)" x2="-5" y2="0" stroke="#888" stroke-width="1" opacity="1"/><line transform="translate(0,290)" x2="-5" y2="0" stroke="#888" stroke-width="1" opacity="1"/></g><g class="mark-text role-axis-label" pointer-events="none"><text text-anchor="end" transform="translate(-7,12.5)" font-family="sans-serif" font-size="10px" fill="#000" opacity="1">(JohT) inputPerKernelValue Transposed</text><text text-anchor="end" transform="translate(-7,32.5)" font-family="sans-serif" font-size="10px" fill="#000" opacity="1">(JohT) inputPerKernelValue Transposed LoopFissionIndexArithme…</text><text text-anchor="end" transform="translate(-7,52.5)" font-family="sans-serif" font-size="10px" fill="#000" opacity="1">(JohT) inputPerKernelValue Transposed LoopFission</text><text text-anchor="end" transform="translate(-7,72.5)" font-family="sans-serif" font-size="10px" fill="#000" opacity="1">(JohT) inputPerKernelValue Transposed Inner&amp;OuterLoopUnrolled</text><text text-anchor="end" transform="translate(-7,92.5)" font-family="sans-serif" font-size="10px" fill="#000" opacity="1">(JohT) inputPerKernelValue Transposed OuterLoopUnrolled</text><text text-anchor="end" transform="translate(-7,112.5)" font-family="sans-serif" font-size="10px" fill="#000" opacity="1">(JohT) kernelPerInputValue Transposed</text><text text-anchor="end" transform="translate(-7,132.5)" font-family="sans-serif" font-size="10px" fill="#000" opacity="1">(JohT) inputPerKernelValue Transposed InnerLoopUnrolled</text><text text-anchor="end" transform="translate(-7,152.5)" font-family="sans-serif" font-size="10px" fill="#000" opacity="1">(JohT) kernelPerInputValue Transposed LoopFission</text><text text-anchor="end" transform="translate(-7,172.5)" font-family="sans-serif" font-size="10px" fill="#000" opacity="1">(wilczek) Outer- and Inner-Loop Vectorization</text><text text-anchor="end" transform="translate(-7,192.5)" font-family="sans-serif" font-size="10px" fill="#000" opacity="1">(chaowang15) convolve1D</text><text text-anchor="end" transform="translate(-7,212.5)" font-family="sans-serif" font-size="10px" fill="#000" opacity="1">(wilczek) Inner-Loop Vectorization</text><text text-anchor="end" transform="translate(-7,232.5)" font-family="sans-serif" font-size="10px" fill="#000" opacity="1">(matlab-like) conv 'valid' shape pre padded</text><text text-anchor="end" transform="translate(-7,252.5)" font-family="sans-serif" font-size="10px" fill="#000" opacity="1">(wilczek) Outer-Loop Vectorization</text><text text-anchor="end" transform="translate(-7,272.5)" font-family="sans-serif" font-size="10px" fill="#000" opacity="1">(wilczek) Single</text><text text-anchor="end" transform="translate(-7,292.5)" font-family="sans-serif" font-size="10px" fill="#000" opacity="1">(matlab-like) conv 'full' shape</text></g><g class="mark-rule role-axis-domain" pointer-events="none"><line transform="translate(0,0)" x2="0" y2="300" stroke="#888" stroke-width="1" opacity="1"/></g><g class="mark-text role-axis-title" pointer-events="none"><text text-anchor="middle" transform="translate(-320,150) rotate(-90) translate(0,-2)" font-family="sans-serif" font-size="11px" font-weight="bold" fill="#000" opacity="1">algorithm</text></g></g><path class="foreground" aria-hidden="true" d="" pointer-events="none" display="none"/></g></g><g class="mark-rect role-mark child_layer_0_marks" role="graphics-object" aria-roledescription="rect mark container"><path aria-label="mean execution time in µs: 120; algorithm: (JohT) kernelPerInputValue Transposed" role="graphics-symbol" aria-roledescription="bar" d="M0,101.9L116,101.9C118.207660097976,101.9,120,103.692339902024,120,105.9L120,114.10000000000001C120,116.30766009797601,118.207660097976,118.10000000000001,116,118.10000000000001L0,118.10000000000001C0,118.10000000000001,0,118.10000000000001,0,118.10000000000001L0,101.9C0,101.9,0,101.9,0,101.9Z" fill="#4c78a8"/><path aria-label="mean execution time in µs: 64; algorithm: (JohT) inputPerKernelValue Transposed" role="graphics-symbol" aria-roledescription="bar" d="M0,1.9L60,1.9C62.207660097976,1.9,64,3.692339902024,64,5.9L64,14.099999999999998C64,16.307660097975997,62.207660097976,18.099999999999998,60,18.099999999999998L0,18.099999999999998C0,18.099999999999998,0,18.099999999999998,0,18.099999999999998L0,1.9C0,1.9,0,1.9,0,1.9Z" fill="#4c78a8"/><path aria-label="mean execution time in µs: 120; algorithm: (JohT) inputPerKernelValue Transposed InnerLoopUnrolled" role="graphics-symbol" aria-roledescription="bar" d="M0,121.9L116,121.9C118.207660097976,121.9,120,123.692339902024,120,125.9L120,134.1C120,136.307660097976,118.207660097976,138.1,116,138.1L0,138.1C0,138.1,0,138.1,0,138.1L0,121.9C0,121.9,0,121.9,0,121.9Z" fill="#4c78a8"/><path aria-label="mean execution time in µs: 118; algorithm: (JohT) inputPerKernelValue Transposed OuterLoopUnrolled" role="graphics-symbol" aria-roledescription="bar" d="M0,81.9L114,81.9C116.207660097976,81.9,118,83.692339902024,118,85.9L118,94.10000000000001C118,96.30766009797601,116.207660097976,98.10000000000001,114,98.10000000000001L0,98.10000000000001C0,98.10000000000001,0,98.10000000000001,0,98.10000000000001L0,81.9C0,81.9,0,81.9,0,81.9Z" fill="#4c78a8"/><path aria-label="mean execution time in µs: 107; algorithm: (JohT) inputPerKernelValue Transposed Inner&amp;OuterLoopUnrolled" role="graphics-symbol" aria-roledescription="bar" d="M0,61.9L103,61.9C105.207660097976,61.9,107,63.692339902023996,107,65.9L107,74.1C107,76.307660097976,105.207660097976,78.1,103,78.1L0,78.1C0,78.1,0,78.1,0,78.1L0,61.9C0,61.9,0,61.9,0,61.9Z" fill="#4c78a8"/><path aria-label="mean execution time in µs: 98; algorithm: (JohT) inputPerKernelValue Transposed LoopFission" role="graphics-symbol" aria-roledescription="bar" d="M0,41.9L94,41.9C96.207660097976,41.9,98,43.692339902023996,98,45.9L98,54.099999999999994C98,56.307660097976,96.207660097976,58.099999999999994,94,58.099999999999994L0,58.099999999999994C0,58.099999999999994,0,58.099999999999994,0,58.099999999999994L0,41.9C0,41.9,0,41.9,0,41.9Z" fill="#4c78a8"/><path aria-label="mean execution time in µs: 84; algorithm: (JohT) inputPerKernelValue Transposed LoopFissionIndexArithmetic" role="graphics-symbol" aria-roledescription="bar" d="M0,21.9L80,21.9C82.207660097976,21.9,84,23.692339902024,84,25.9L84,34.099999999999994C84,36.307660097976,82.207660097976,38.099999999999994,80,38.099999999999994L0,38.099999999999994C0,38.099999999999994,0,38.099999999999994,0,38.099999999999994L0,21.9C0,21.9,0,21.9,0,21.9Z" fill="#4c78a8"/><path aria-label="mean execution time in µs: 123; algorithm: (JohT) kernelPerInputValue Transposed LoopFission" role="graphics-symbol" aria-roledescription="bar" d="M0,141.9L119,141.9C121.207660097976,141.9,123,143.692339902024,123,145.9L123,154.1C123,156.307660097976,121.207660097976,158.1,119,158.1L0,158.1C0,158.1,0,158.1,0,158.1L0,141.9C0,141.9,0,141.9,0,141.9Z" fill="#4c78a8"/><path aria-label="mean execution time in µs: 187; algorithm: (matlab-like) conv 'full' shape" role="graphics-symbol" aria-roledescription="bar" d="M0,281.9L183,281.9C185.207660097976,281.9,187,283.692339902024,187,285.9L187,294.09999999999997C187,296.30766009797594,185.207660097976,298.09999999999997,183,298.09999999999997L0,298.09999999999997C0,298.09999999999997,0,298.09999999999997,0,298.09999999999997L0,281.9C0,281.9,0,281.9,0,281.9Z" fill="#4c78a8"/><path aria-label="mean execution time in µs: 169; algorithm: (matlab-like) conv 'valid' shape pre padded" role="graphics-symbol" aria-roledescription="bar" d="M0,221.9L165,221.9C167.207660097976,221.9,169,223.692339902024,169,225.9L169,234.1C169,236.307660097976,167.207660097976,238.1,165,238.1L0,238.1C0,238.1,0,238.1,0,238.1L0,221.9C0,221.9,0,221.9,0,221.9Z" fill="#4c78a8"/><path aria-label="mean execution time in µs: 186; algorithm: (wilczek) Single" role="graphics-symbol" aria-roledescription="bar" d="M0,261.9L182,261.9C184.207660097976,261.9,186,263.692339902024,186,265.9L186,274.09999999999997C186,276.30766009797594,184.207660097976,278.09999999999997,182,278.09999999999997L0,278.09999999999997C0,278.09999999999997,0,278.09999999999997,0,278.09999999999997L0,261.9C0,261.9,0,261.9,0,261.9Z" fill="#4c78a8"/><path aria-label="mean execution time in µs: 167; algorithm: (wilczek) Inner-Loop Vectorization" role="graphics-symbol" aria-roledescription="bar" d="M0,201.9L163,201.9C165.207660097976,201.9,167,203.692339902024,167,205.9L167,214.1C167,216.307660097976,165.207660097976,218.1,163,218.1L0,218.1C0,218.1,0,218.1,0,218.1L0,201.9C0,201.9,0,201.9,0,201.9Z" fill="#4c78a8"/><path aria-label="mean execution time in µs: 171; algorithm: (wilczek) Outer-Loop Vectorization" role="graphics-symbol" aria-roledescription="bar" d="M0,241.9L167,241.9C169.207660097976,241.9,171,243.692339902024,171,245.9L171,254.10000000000002C171,256.307660097976,169.207660097976,258.1,167,258.1L0,258.1C0,258.1,0,258.1,0,258.1L0,241.9C0,241.9,0,241.9,0,241.9Z" fill="#4c78a8"/><path aria-label="mean execution time in µs: 131; algorithm: (wilczek) Outer- and Inner-Loop Vectorization" role="graphics-symbol" aria-roledescription="bar" d="M0,161.9L127,161.9C129.207660097976,161.9,131,163.692339902024,131,165.9L131,174.1C131,176.307660097976,129.207660097976,178.1,127,178.1L0,178.1C0,178.1,0,178.1,0,178.1L0,161.9C0,161.9,0,161.9,0,161.9Z" fill="#4c78a8"/><path aria-label="mean execution time in µs: 163; algorithm: (chaowang15) convolve1D" role="graphics-symbol" aria-roledescription="bar" d="M0,181.9L159,181.9C161.207660097976,181.9,163,183.692339902024,163,185.9L163,194.1C163,196.307660097976,161.207660097976,198.1,159,198.1L0,198.1C0,198.1,0,198.1,0,198.1L0,181.9C0,181.9,0,181.9,0,181.9Z" fill="#4c78a8"/></g><g class="mark-text role-mark child_layer_1_marks" role="graphics-object" aria-roledescription="text mark container"><text aria-label="mean execution time in µs: 120; algorithm: (JohT) kernelPerInputValue Transposed; MeanExecutionTime: 120" role="graphics-symbol" aria-roledescription="text mark" text-anchor="start" transform="translate(124,113)" font-family="sans-serif" font-size="9px" fill="black">120</text><text aria-label="mean execution time in µs: 64; algorithm: (JohT) inputPerKernelValue Transposed; MeanExecutionTime: 64" role="graphics-symbol" aria-roledescription="text mark" text-anchor="start" transform="translate(68,13)" font-family="sans-serif" font-size="9px" fill="black">64</text><text aria-label="mean execution time in µs: 120; algorithm: (JohT) inputPerKernelValue Transposed InnerLoopUnrolled; MeanExecutionTime: 120" role="graphics-symbol" aria-roledescription="text mark" text-anchor="start" transform="translate(124,133)" font-family="sans-serif" font-size="9px" fill="black">120</text><text aria-label="mean execution time in µs: 118; algorithm: (JohT) inputPerKernelValue Transposed OuterLoopUnrolled; MeanExecutionTime: 118" role="graphics-symbol" aria-roledescription="text mark" text-anchor="start" transform="translate(122,93)" font-family="sans-serif" font-size="9px" fill="black">118</text><text aria-label="mean execution time in µs: 107; algorithm: (JohT) inputPerKernelValue Transposed Inner&amp;OuterLoopUnrolled; MeanExecutionTime: 107" role="graphics-symbol" aria-roledescription="text mark" text-anchor="start" transform="translate(111,73)" font-family="sans-serif" font-size="9px" fill="black">107</text><text aria-label="mean execution time in µs: 98; algorithm: (JohT) inputPerKernelValue Transposed LoopFission; MeanExecutionTime: 98" role="graphics-symbol" aria-roledescription="text mark" text-anchor="start" transform="translate(102,53)" font-family="sans-serif" font-size="9px" fill="black">98</text><text aria-label="mean execution time in µs: 84; algorithm: (JohT) inputPerKernelValue Transposed LoopFissionIndexArithmetic; MeanExecutionTime: 84" role="graphics-symbol" aria-roledescription="text mark" text-anchor="start" transform="translate(88,33)" font-family="sans-serif" font-size="9px" fill="black">84</text><text aria-label="mean execution time in µs: 123; algorithm: (JohT) kernelPerInputValue Transposed LoopFission; MeanExecutionTime: 123" role="graphics-symbol" aria-roledescription="text mark" text-anchor="start" transform="translate(127,153)" font-family="sans-serif" font-size="9px" fill="black">123</text><text aria-label="mean execution time in µs: 187; algorithm: (matlab-like) conv 'full' shape; MeanExecutionTime: 187" role="graphics-symbol" aria-roledescription="text mark" text-anchor="start" transform="translate(191,293)" font-family="sans-serif" font-size="9px" fill="black">187</text><text aria-label="mean execution time in µs: 169; algorithm: (matlab-like) conv 'valid' shape pre padded; MeanExecutionTime: 169" role="graphics-symbol" aria-roledescription="text mark" text-anchor="start" transform="translate(173,233)" font-family="sans-serif" font-size="9px" fill="black">169</text><text aria-label="mean execution time in µs: 186; algorithm: (wilczek) Single; MeanExecutionTime: 186" role="graphics-symbol" aria-roledescription="text mark" text-anchor="start" transform="translate(190,273)" font-family="sans-serif" font-size="9px" fill="black">186</text><text aria-label="mean execution time in µs: 167; algorithm: (wilczek) Inner-Loop Vectorization; MeanExecutionTime: 167" role="graphics-symbol" aria-roledescription="text mark" text-anchor="start" transform="translate(171,213)" font-family="sans-serif" font-size="9px" fill="black">167</text><text aria-label="mean execution time in µs: 171; algorithm: (wilczek) Outer-Loop Vectorization; MeanExecutionTime: 171" role="graphics-symbol" aria-roledescription="text mark" text-anchor="start" transform="translate(175,253)" font-family="sans-serif" font-size="9px" fill="black">171</text><text aria-label="mean execution time in µs: 131; algorithm: (wilczek) Outer- and Inner-Loop Vectorization; MeanExecutionTime: 131" role="graphics-symbol" aria-roledescription="text mark" text-anchor="start" transform="translate(135,173)" font-family="sans-serif" font-size="9px" fill="black">131</text><text aria-label="mean execution time in µs: 163; algorithm: (chaowang15) convolve1D; MeanExecutionTime: 163" role="graphics-symbol" aria-roledescription="text mark" text-anchor="start" transform="translate(167,193)" font-family="sans-serif" font-size="9px" fill="black">163</text></g></g><path class="foreground" aria-hidden="true" d="" display="none"/></g><g transform="translate(737,0)"><path class="background" aria-hidden="true" d="M0.5,0.5h200v300h-200Z" stroke="#ddd"/><g><g class="mark-group role-axis" aria-hidden="true"><g transform="translate(0.5,300.5)"><path class="background" aria-hidden="true" d="M0,0h0v0h0Z" pointer-events="none"/><g><g class="mark-rule role-axis-grid" pointer-events="none"><line transform="translate(0,0)" x2="0" y2="-300" stroke="#ddd" stroke-width="1" opacity="1"/><line transform="translate(33,0)" x2="0" y2="-300" stroke="#ddd" stroke-width="1" opacity="1"/><line transform="translate(67,0)" x2="0" y2="-300" stroke="#ddd" stroke-width="1" opacity="1"/><line transform="translate(100,0)" x2="0" y2="-300" stroke="#ddd" stroke-width="1" opacity="1"/><line transform="translate(133,0)" x2="0" y2="-300" stroke="#ddd" stroke-width="1" opacity="1"/><line transform="translate(167,0)" x2="0" y2="-300" stroke="#ddd" stroke-width="1" opacity="1"/><line transform="translate(200,0)" x2="0" y2="-300" stroke="#ddd" stroke-width="1" opacity="1"/></g></g><path class="foreground" aria-hidden="true" d="" pointer-events="none" display="none"/></g></g><g class="mark-group role-axis" role="graphics-symbol" aria-roledescription="axis" aria-label="X-axis titled 'mean execution time in µs' for a linear scale with values from 0 to 12,000"><g transform="translate(0.5,300.5)"><path class="background" aria-hidden="true" d="M0,0h0v0h0Z" pointer-events="none"/><g><g class="mark-rule role-axis-tick" pointer-events="none"><line transform="translate(0,0)" x2="0" y2="5" stroke="#888" stroke-width="1" opacity="1"/><line transform="translate(33,0)" x2="0" y2="5" stroke="#888" stroke-width="1" opacity="1"/><line transform="translate(67,0)" x2="0" y2="5" stroke="#888" stroke-width="1" opacity="1"/><line transform="translate(100,0)" x2="0" y2="5" stroke="#888" stroke-width="1" opacity="1"/><line transform="translate(133,0)" x2="0" y2="5" stroke="#888" stroke-width="1" opacity="1"/><line transform="translate(167,0)" x2="0" y2="5" stroke="#888" stroke-width="1" opacity="1"/><line transform="translate(200,0)" x2="0" y2="5" stroke="#888" stroke-width="1" opacity="1"/></g><g class="mark-text role-axis-label" pointer-events="none"><text text-anchor="start" transform="translate(0,15)" font-family="sans-serif" font-size="10px" fill="#000" opacity="1">0</text><text text-anchor="middle" transform="translate(33.33333333333333,15)" font-family="sans-serif" font-size="10px" fill="#000" opacity="0">2,000</text><text text-anchor="middle" transform="translate(66.66666666666666,15)" font-family="sans-serif" font-size="10px" fill="#000" opacity="0">4,000</text><text text-anchor="middle" transform="translate(100,15)" font-family="sans-serif" font-size="10px" fill="#000" opacity="0">6,000</text><text text-anchor="middle" transform="translate(133.33333333333331,15)" font-family="sans-serif" font-size="10px" fill="#000" opacity="0">8,000</text><text text-anchor="middle" transform="translate(166.66666666666669,15)" font-family="sans-serif" font-size="10px" fill="#000" opacity="0">10,000</text><text text-anchor="end" transform="translate(200,15)" font-family="sans-serif" font-size="10px" fill="#000" opacity="1">12,000</text></g><g class="mark-rule role-axis-domain" pointer-events="none"><line transform="translate(0,0)" x2="200" y2="0" stroke="#888" stroke-width="1" opacity="1"/></g><g class="mark-text role-axis-title" pointer-events="none"><text text-anchor="middle" transform="translate(100,30)" font-family="sans-serif" font-size="11px" font-weight="bold" fill="#000" opacity="1">mean execution time in µs</text></g></g><path class="foreground" aria-hidden="true" d="" pointer-events="none" display="none"/></g></g><g class="mark-group role-axis" role="graphics-symbol" aria-roledescription="axis" aria-label="Y-axis titled 'algorithm' for a discrete scale with 15 values: (JohT) kernelPerInputValue Transposed, (JohT) inputPerKernelValue Transposed, (JohT) inputPerKernelValue Transposed LoopFissionIndexArithmetic, (JohT) inputPerKernelValue Transposed LoopFission, (JohT) kernelPerInputValue Transposed LoopFission, ending with (matlab-like) conv 'valid' shape pre padded"><g transform="translate(0.5,0.5)"><path class="background" aria-hidden="true" d="M0,0h0v0h0Z" pointer-events="none"/><g><g class="mark-rule role-axis-tick" pointer-events="none"><line transform="translate(0,10)" x2="-5" y2="0" stroke="#888" stroke-width="1" opacity="1"/><line transform="translate(0,30)" x2="-5" y2="0" stroke="#888" stroke-width="1" opacity="1"/><line transform="translate(0,50)" x2="-5" y2="0" stroke="#888" stroke-width="1" opacity="1"/><line transform="translate(0,70)" x2="-5" y2="0" stroke="#888" stroke-width="1" opacity="1"/><line transform="translate(0,90)" x2="-5" y2="0" stroke="#888" stroke-width="1" opacity="1"/><line transform="translate(0,110)" x2="-5" y2="0" stroke="#888" stroke-width="1" opacity="1"/><line transform="translate(0,130)" x2="-5" y2="0" stroke="#888" stroke-width="1" opacity="1"/><line transform="translate(0,150)" x2="-5" y2="0" stroke="#888" stroke-width="1" opacity="1"/><line transform="translate(0,170)" x2="-5" y2="0" stroke="#888" stroke-width="1" opacity="1"/><line transform="translate(0,190)" x2="-5" y2="0" stroke="#888" stroke-width="1" opacity="1"/><line transform="translate(0,210)" x2="-5" y2="0" stroke="#888" stroke-width="1" opacity="1"/><line transform="translate(0,230)" x2="-5" y2="0" stroke="#888" stroke-width="1" opacity="1"/><line transform="translate(0,250)" x2="-5" y2="0" stroke="#888" stroke-width="1" opacity="1"/><line transform="translate(0,270)" x2="-5" y2="0" stroke="#888" stroke-width="1" opacity="1"/><line transform="translate(0,290)" x2="-5" y2="0" stroke="#888" stroke-width="1" opacity="1"/></g><g class="mark-text role-axis-label" pointer-events="none"><text text-anchor="end" transform="translate(-7,12.5)" font-family="sans-serif" font-size="10px" fill="#000" opacity="1">(JohT) kernelPerInputValue Transposed</text><text text-anchor="end" transform="translate(-7,32.5)" font-family="sans-serif" font-size="10px" fill="#000" opacity="1">(JohT) inputPerKernelValue Transposed</text><text text-anchor="end" transform="translate(-7,52.5)" font-family="sans-serif" font-size="10px" fill="#000" opacity="1">(JohT) inputPerKernelValue Transposed LoopFissionIndexArithme…</text><text text-anchor="end" transform="translate(-7,72.5)" font-family="sans-serif" font-size="10px" fill="#000" opacity="1">(JohT) inputPerKernelValue Transposed LoopFission</text><text text-anchor="end" transform="translate(-7,92.5)" font-family="sans-serif" font-size="10px" fill="#000" opacity="1">(JohT) kernelPerInputValue Transposed LoopFission</text><text text-anchor="end" transform="translate(-7,112.5)" font-family="sans-serif" font-size="10px" fill="#000" opacity="1">(JohT) inputPerKernelValue Transposed Inner&amp;OuterLoopUnrolled</text><text text-anchor="end" transform="translate(-7,132.5)" font-family="sans-serif" font-size="10px" fill="#000" opacity="1">(JohT) inputPerKernelValue Transposed InnerLoopUnrolled</text><text text-anchor="end" transform="translate(-7,152.5)" font-family="sans-serif" font-size="10px" fill="#000" opacity="1">(JohT) inputPerKernelValue Transposed OuterLoopUnrolled</text><text text-anchor="end" transform="translate(-7,172.5)" font-family="sans-serif" font-size="10px" fill="#000" opacity="1">(wilczek) Outer- and Inner-Loop Vectorization</text><text text-anchor="end" transform="translate(-7,192.5)" font-family="sans-serif" font-size="10px" fill="#000" opacity="1">(wilczek) Inner-Loop Vectorization</text><text text-anchor="end" transform="translate(-7,212.5)" font-family="sans-serif" font-size="10px" fill="#000" opacity="1">(wilczek) Outer-Loop Vectorization</text><text text-anchor="end" transform="translate(-7,232.5)" font-family="sans-serif" font-size="10px" fill="#000" opacity="1">(matlab-like) conv 'full' shape</text><text text-anchor="end" transform="translate(-7,252.5)" font-family="sans-serif" font-size="10px" fill="#000" opacity="1">(chaowang15) convolve1D</text><text text-anchor="end" transform="translate(-7,272.5)" font-family="sans-serif" font-size="10px" fill="#000" opacity="1">(wilczek) Single</text><text text-anchor="end" transform="translate(-7,292.5)" font-family="sans-serif" font-size="10px" fill="#000" opacity="1">(matlab-like) conv 'valid' shape pre padded</text></g><g class="mark-rule role-axis-domain" pointer-events="none"><line transform="translate(0,0)" x2="0" y2="300" stroke="#888" stroke-width="1" opacity="1"/></g><g class="mark-text role-axis-title" pointer-events="none"><text text-anchor="middle" transform="translate(-320,150) rotate(-90) translate(0,-2)" font-family="sans-serif" font-size="11px" font-weight="bold" fill="#000" opacity="1">algorithm</text></g></g><path class="foreground" aria-hidden="true" d="" pointer-events="none" display="none"/></g></g><g class="mark-rect role-mark child_layer_0_marks" role="graphics-object" aria-roledescription="rect mark container"><path aria-label="mean execution time in µs: 1625; algorithm: (JohT) kernelPerInputValue Transposed" role="graphics-symbol" aria-roledescription="bar" d="M0,1.9L23.083333333333332,1.9C25.29099343130933,1.9,27.083333333333332,3.692339902024,27.083333333333332,5.9L27.083333333333332,14.099999999999998C27.083333333333332,16.307660097975997,25.29099343130933,18.099999999999998,23.083333333333332,18.099999999999998L0,18.099999999999998C0,18.099999999999998,0,18.099999999999998,0,18.099999999999998L0,1.9C0,1.9,0,1.9,0,1.9Z" fill="#4c78a8"/><path aria-label="mean execution time in µs: 1964; algorithm: (JohT) inputPerKernelValue Transposed" role="graphics-symbol" aria-roledescription="bar" d="M0,21.9L28.733333333333334,21.9C30.940993431309334,21.9,32.733333333333334,23.692339902024,32.733333333333334,25.9L32.733333333333334,34.099999999999994C32.733333333333334,36.307660097976,30.940993431309334,38.099999999999994,28.733333333333334,38.099999999999994L0,38.099999999999994C0,38.099999999999994,0,38.099999999999994,0,38.099999999999994L0,21.9C0,21.9,0,21.9,0,21.9Z" fill="#4c78a8"/><path aria-label="mean execution time in µs: 4089; algorithm: (JohT) inputPerKernelValue Transposed InnerLoopUnrolled" role="graphics-symbol" aria-roledescription="bar" d="M0,121.9L64.15,121.9C66.35766009797601,121.9,68.15,123.692339902024,68.15,125.9L68.15,134.1C68.15,136.307660097976,66.35766009797601,138.1,64.15,138.1L0,138.1C0,138.1,0,138.1,0,138.1L0,121.9C0,121.9,0,121.9,0,121.9Z" fill="#4c78a8"/><path aria-label="mean execution time in µs: 4222; algorithm: (JohT) inputPerKernelValue Transposed OuterLoopUnrolled" role="graphics-symbol" aria-roledescription="bar" d="M0,141.9L66.36666666666666,141.9C68.57432676464266,141.9,70.36666666666666,143.692339902024,70.36666666666666,145.9L70.36666666666666,154.1C70.36666666666666,156.307660097976,68.57432676464266,158.1,66.36666666666666,158.1L0,158.1C0,158.1,0,158.1,0,158.1L0,141.9C0,141.9,0,141.9,0,141.9Z" fill="#4c78a8"/><path aria-label="mean execution time in µs: 3604; algorithm: (JohT) inputPerKernelValue Transposed Inner&amp;OuterLoopUnrolled" role="graphics-symbol" aria-roledescription="bar" d="M0,101.9L56.06666666666667,101.9C58.27432676464267,101.9,60.06666666666667,103.692339902024,60.06666666666667,105.9L60.06666666666667,114.10000000000001C60.06666666666667,116.30766009797601,58.27432676464267,118.10000000000001,56.06666666666667,118.10000000000001L0,118.10000000000001C0,118.10000000000001,0,118.10000000000001,0,118.10000000000001L0,101.9C0,101.9,0,101.9,0,101.9Z" fill="#4c78a8"/><path aria-label="mean execution time in µs: 3063; algorithm: (JohT) inputPerKernelValue Transposed LoopFission" role="graphics-symbol" aria-roledescription="bar" d="M0,61.9L47.05,61.9C49.257660097976,61.9,51.05,63.692339902023996,51.05,65.9L51.05,74.1C51.05,76.307660097976,49.257660097976,78.1,47.05,78.1L0,78.1C0,78.1,0,78.1,0,78.1L0,61.9C0,61.9,0,61.9,0,61.9Z" fill="#4c78a8"/><path aria-label="mean execution time in µs: 3034; algorithm: (JohT) inputPerKernelValue Transposed LoopFissionIndexArithmetic" role="graphics-symbol" aria-roledescription="bar" d="M0,41.9L46.56666666666667,41.9C48.77432676464267,41.9,50.56666666666667,43.692339902023996,50.56666666666667,45.9L50.56666666666667,54.099999999999994C50.56666666666667,56.307660097976,48.77432676464267,58.099999999999994,46.56666666666667,58.099999999999994L0,58.099999999999994C0,58.099999999999994,0,58.099999999999994,0,58.099999999999994L0,41.9C0,41.9,0,41.9,0,41.9Z" fill="#4c78a8"/><path aria-label="mean execution time in µs: 3177; algorithm: (JohT) kernelPerInputValue Transposed LoopFission" role="graphics-symbol" aria-roledescription="bar" d="M0,81.9L48.949999999999996,81.9C51.157660097976,81.9,52.949999999999996,83.692339902024,52.949999999999996,85.9L52.949999999999996,94.10000000000001C52.949999999999996,96.30766009797601,51.157660097976,98.10000000000001,48.949999999999996,98.10000000000001L0,98.10000000000001C0,98.10000000000001,0,98.10000000000001,0,98.10000000000001L0,81.9C0,81.9,0,81.9,0,81.9Z" fill="#4c78a8"/><path aria-label="mean execution time in µs: 10942; algorithm: (matlab-like) conv 'full' shape" role="graphics-symbol" aria-roledescription="bar" d="M0,221.9L178.36666666666667,221.9C180.57432676464268,221.9,182.36666666666667,223.692339902024,182.36666666666667,225.9L182.36666666666667,234.1C182.36666666666667,236.307660097976,180.57432676464268,238.1,178.36666666666667,238.1L0,238.1C0,238.1,0,238.1,0,238.1L0,221.9C0,221.9,0,221.9,0,221.9Z" fill="#4c78a8"/><path aria-label="mean execution time in µs: 11267; algorithm: (matlab-like) conv 'valid' shape pre padded" role="graphics-symbol" aria-roledescription="bar" d="M0,281.9L183.78333333333333,281.9C185.99099343130933,281.9,187.78333333333333,283.692339902024,187.78333333333333,285.9L187.78333333333333,294.09999999999997C187.78333333333333,296.30766009797594,185.99099343130933,298.09999999999997,183.78333333333333,298.09999999999997L0,298.09999999999997C0,298.09999999999997,0,298.09999999999997,0,298.09999999999997L0,281.9C0,281.9,0,281.9,0,281.9Z" fill="#4c78a8"/><path aria-label="mean execution time in µs: 11247; algorithm: (wilczek) Single" role="graphics-symbol" aria-roledescription="bar" d="M0,261.9L183.45000000000002,261.9C185.65766009797602,261.9,187.45000000000002,263.692339902024,187.45000000000002,265.9L187.45000000000002,274.09999999999997C187.45000000000002,276.30766009797594,185.65766009797602,278.09999999999997,183.45000000000002,278.09999999999997L0,278.09999999999997C0,278.09999999999997,0,278.09999999999997,0,278.09999999999997L0,261.9C0,261.9,0,261.9,0,261.9Z" fill="#4c78a8"/><path aria-label="mean execution time in µs: 5222; algorithm: (wilczek) Inner-Loop Vectorization" role="graphics-symbol" aria-roledescription="bar" d="M0,181.9L83.03333333333333,181.9C85.24099343130933,181.9,87.03333333333333,183.692339902024,87.03333333333333,185.9L87.03333333333333,194.1C87.03333333333333,196.307660097976,85.24099343130933,198.1,83.03333333333333,198.1L0,198.1C0,198.1,0,198.1,0,198.1L0,181.9C0,181.9,0,181.9,0,181.9Z" fill="#4c78a8"/><path aria-label="mean execution time in µs: 6856; algorithm: (wilczek) Outer-Loop Vectorization" role="graphics-symbol" aria-roledescription="bar" d="M0,201.9L110.26666666666667,201.9C112.47432676464267,201.9,114.26666666666667,203.692339902024,114.26666666666667,205.9L114.26666666666667,214.1C114.26666666666667,216.307660097976,112.47432676464267,218.1,110.26666666666667,218.1L0,218.1C0,218.1,0,218.1,0,218.1L0,201.9C0,201.9,0,201.9,0,201.9Z" fill="#4c78a8"/><path aria-label="mean execution time in µs: 4393; algorithm: (wilczek) Outer- and Inner-Loop Vectorization" role="graphics-symbol" aria-roledescription="bar" d="M0,161.9L69.21666666666667,161.9C71.42432676464267,161.9,73.21666666666667,163.692339902024,73.21666666666667,165.9L73.21666666666667,174.1C73.21666666666667,176.307660097976,71.42432676464267,178.1,69.21666666666667,178.1L0,178.1C0,178.1,0,178.1,0,178.1L0,161.9C0,161.9,0,161.9,0,161.9Z" fill="#4c78a8"/><path aria-label="mean execution time in µs: 11105; algorithm: (chaowang15) convolve1D" role="graphics-symbol" aria-roledescription="bar" d="M0,241.9L181.08333333333334,241.9C183.29099343130935,241.9,185.08333333333334,243.692339902024,185.08333333333334,245.9L185.08333333333334,254.10000000000002C185.08333333333334,256.307660097976,183.29099343130935,258.1,181.08333333333334,258.1L0,258.1C0,258.1,0,258.1,0,258.1L0,241.9C0,241.9,0,241.9,0,241.9Z" fill="#4c78a8"/></g><g class="mark-text role-mark child_layer_1_marks" role="graphics-object" aria-roledescription="text mark container"><text aria-label="mean execution time in µs: 1625; algorithm: (JohT) kernelPerInputValue Transposed; MeanExecutionTime: 1625" role="graphics-symbol" aria-roledescription="text mark" text-anchor="start" transform="translate(31.083333333333332,13)" font-family="sans-serif" font-size="9px" fill="black">1625</text><text aria-label="mean execution time in µs: 1964; algorithm: (JohT) inputPerKernelValue Transposed; MeanExecutionTime: 1964" role="graphics-symbol" aria-roledescription="text mark" text-anchor="start" transform="translate(36.733333333333334,33)" font-family="sans-serif" font-size="9px" fill="black">1964</text><text aria-label="mean execution time in µs: 4089; algorithm: (JohT) inputPerKernelValue Transposed InnerLoopUnrolled; MeanExecutionTime: 4089" role="graphics-symbol" aria-roledescription="text mark" text-anchor="start" transform="translate(72.15,133)" font-family="sans-serif" font-size="9px" fill="black">4089</text><text aria-label="mean execution time in µs: 4222; algorithm: (JohT) inputPerKernelValue Transposed OuterLoopUnrolled; MeanExecutionTime: 4222" role="graphics-symbol" aria-roledescription="text mark" text-anchor="start" transform="translate(74.36666666666666,153)" font-family="sans-serif" font-size="9px" fill="black">4222</text><text aria-label="mean execution time in µs: 3604; algorithm: (JohT) inputPerKernelValue Transposed Inner&amp;OuterLoopUnrolled; MeanExecutionTime: 3604" role="graphics-symbol" aria-roledescription="text mark" text-anchor="start" transform="translate(64.06666666666666,113)" font-family="sans-serif" font-size="9px" fill="black">3604</text><text aria-label="mean execution time in µs: 3063; algorithm: (JohT) inputPerKernelValue Transposed LoopFission; MeanExecutionTime: 3063" role="graphics-symbol" aria-roledescription="text mark" text-anchor="start" transform="translate(55.05,73)" font-family="sans-serif" font-size="9px" fill="black">3063</text><text aria-label="mean execution time in µs: 3034; algorithm: (JohT) inputPerKernelValue Transposed LoopFissionIndexArithmetic; MeanExecutionTime: 3034" role="graphics-symbol" aria-roledescription="text mark" text-anchor="start" transform="translate(54.56666666666667,53)" font-family="sans-serif" font-size="9px" fill="black">3034</text><text aria-label="mean execution time in µs: 3177; algorithm: (JohT) kernelPerInputValue Transposed LoopFission; MeanExecutionTime: 3177" role="graphics-symbol" aria-roledescription="text mark" text-anchor="start" transform="translate(56.949999999999996,93)" font-family="sans-serif" font-size="9px" fill="black">3177</text><text aria-label="mean execution time in µs: 10942; algorithm: (matlab-like) conv 'full' shape; MeanExecutionTime: 10942" role="graphics-symbol" aria-roledescription="text mark" text-anchor="start" transform="translate(186.36666666666667,233)" font-family="sans-serif" font-size="9px" fill="black">10942</text><text aria-label="mean execution time in µs: 11267; algorithm: (matlab-like) conv 'valid' shape pre padded; MeanExecutionTime: 11267" role="graphics-symbol" aria-roledescription="text mark" text-anchor="start" transform="translate(191.78333333333333,293)" font-family="sans-serif" font-size="9px" fill="black">11267</text><text aria-label="mean execution time in µs: 11247; algorithm: (wilczek) Single; MeanExecutionTime: 11247" role="graphics-symbol" aria-roledescription="text mark" text-anchor="start" transform="translate(191.45000000000002,273)" font-family="sans-serif" font-size="9px" fill="black">11247</text><text aria-label="mean execution time in µs: 5222; algorithm: (wilczek) Inner-Loop Vectorization; MeanExecutionTime: 5222" role="graphics-symbol" aria-roledescription="text mark" text-anchor="start" transform="translate(91.03333333333333,193)" font-family="sans-serif" font-size="9px" fill="black">5222</text><text aria-label="mean execution time in µs: 6856; algorithm: (wilczek) Outer-Loop Vectorization; MeanExecutionTime: 6856" role="graphics-symbol" aria-roledescription="text mark" text-anchor="start" transform="translate(118.26666666666667,213)" font-family="sans-serif" font-size="9px" fill="black">6856</text><text aria-label="mean execution time in µs: 4393; algorithm: (wilczek) Outer- and Inner-Loop Vectorization; MeanExecutionTime: 4393" role="graphics-symbol" aria-roledescription="text mark" text-anchor="start" transform="translate(77.21666666666667,173)" font-family="sans-serif" font-size="9px" fill="black">4393</text><text aria-label="mean execution time in µs: 11105; algorithm: (chaowang15) convolve1D; MeanExecutionTime: 11105" role="graphics-symbol" aria-roledescription="text mark" text-anchor="start" transform="translate(189.08333333333334,253)" font-family="sans-serif" font-size="9px" fill="black">11105</text></g></g><path class="foreground" aria-hidden="true" d="" display="none"/></g></g></g><path class="foreground" aria-hidden="true" d="" display="none"/></g></g></g></svg>