<svg xmlns="http://www.w3.org/2000/svg" xmlns:xlink="http://www.w3.org/1999/xlink" version="1.1" class="marks" width="1658" height="404" viewBox="0 0 1658 404"><rect width="1658" height="404" fill="white"/><g fill="none" stroke-miterlimit="10" transform="translate(509,66)"><g class="mark-group role-frame root" role="graphics-object" aria-roledescription="group mark container"><g transform="translate(0,0)"><path class="background" aria-hidden="true" d="M0,0h0v0h0Z"/><g><g class="mark-group role-column-title column-title" role="graphics-object" aria-roledescription="group mark container"><g transform="translate(320,-35)"><path class="background" aria-hidden="true" d="M0,0h0v0h0Z"/><g><g class="mark-group role-title"><g transform="translate(0,-26)"><path class="background" aria-hidden="true" d="M0,0h0v0h0Z" pointer-events="none"/><g><g class="mark-text role-title-text" role="graphics-symbol" aria-roledescription="title" aria-label="Title text 'Convolution Benchmarks'" pointer-events="none"><text text-anchor="middle" transform="translate(0,13)" font-family="sans-serif" font-size="16px" font-weight="bold" fill="#000" opacity="1">Convolution Benchmarks</text></g></g><path class="foreground" aria-hidden="true" d="" pointer-events="none" display="none"/></g></g></g><path class="foreground" aria-hidden="true" d="" display="none"/></g></g><g class="mark-group role-column-header column_header" role="graphics-object" aria-roledescription="group mark container"><g transform="translate(0,-1)"><path class="background" aria-hidden="true" d="M0,0h300v0h-300Z"/><g><g class="mark-group role-title"><g transform="translate(150,-24)"><path class="background" aria-hidden="true" d="M0,0h0v0h0Z" pointer-events="none"/><g><g class="mark-text role-title-text" role="graphics-symbol" aria-roledescription="title" aria-label="Title text 'kernel size 16'" pointer-events="none"><text text-anchor="middle" transform="translate(0,11)" font-family="sans-serif" font-size="14px" fill="#000" opacity="1">kernel size 16</text></g></g><path class="foreground" aria-hidden="true" d="" pointer-events="none" display="none"/></g></g></g><path class="foreground" aria-hidden="true" d="" display="none"/></g><g transform="translate(826,-1)"><path class="background" aria-hidden="true" d="M0,0h300v0h-300Z"/><g><g class="mark-group role-title"><g transform="translate(150,-24)"><path class="background" aria-hidden="true" d="M0,0h0v0h0Z" pointer-events="none"/><g><g class="mark-text role-title-text" role="graphics-symbol" aria-roledescription="title" aria-label="Title text 'kernel size 512'" pointer-events="none"><text text-anchor="middle" transform="translate(0,11)" font-family="sans-serif" font-size="14px" fill="#000" opacity="1">kernel size 512</text></g></g><path class="foreground" aria-hidden="true" d="" pointer-events="none" display="none"/></g></g></g><path class="foreground" aria-hidden="true" d="" display="none"/></g></g><g class="mark-group role-scope cell" role="graphics-object" aria-roledescription="group mark container"><g transform="translate(0,0)"><path class="background" aria-hidden="true" d="M0.5,0.5h300v300h-300Z" stroke="#ddd"/><g><g class="mark-group role-axis" aria-hidden="true"><g transform="translate(0.5,300.5)"><path class="background" aria-hidden="true" d="M0,0h0v0h0Z" pointer-events="none"/><g><g class="mark-rule role-axis-grid" pointer-events="none"><line transform="translate(0,0)" x2="0" y2="-300" stroke="#ddd" stroke-width="1" opacity="1"/><line transform="translate(33,0)" x2="0" y2="-300" stroke="#ddd" stroke-width="1" opacity="1"/><line transform="translate(67,0)" x2="0" y2="-300" stroke="#ddd" stroke-width="1" opacity="1"/><line transform="translate(100,0)" x2="0" y2="-300" stroke="#ddd" stroke-width="1" opacity="1"/><line transform="translate(133,0)" x2="0" y2="-300" stroke="#ddd" stroke-width="1" opacity="1"/><line transform="translate(167,0)" x2="0" y2="-300" stroke="#ddd" stroke-width="1" opacity="1"/><line transform="translate(200,0)" x2="0" y2="-300" stroke="#ddd" stroke-width="1" opacity="1"/><line transform="translate(233,0)" x2="0" y2="-300" stroke="#ddd" stroke-width="1" opacity="1"/><line transform="translate(267,0)" x2="0" y2="-300" stroke="#ddd" stroke-width="1" opacity="1"/><line transform="translate(300,0)" x2="0" y2="-300" stroke="#ddd" stroke-width="1" opacity="1"/></g></g><path class="foreground" aria-hidden="true" d="" pointer-events="none" display="none"/></g></g><g class="mark-group role-axis" role="graphics-symbol" aria-roledescription="axis" aria-label="X-axis titled 'mean execution time in µs' for a linear scale with values from 0 to 180"><g transform="translate(0.5,300.5)"><path class="background" aria-hidden="true" d="M0,0h0v0h0Z" pointer-events="none"/><g><g class="mark-rule role-axis-tick" pointer-events="none"><line transform="translate(0,0)" x2="0" y2="5" stroke="#888" stroke-width="1" opacity="1"/><line transform="translate(33,0)" x2="0" y2="5" stroke="#888" stroke-width="1" opacity="1"/><line transform="translate(67,0)" x2="0" y2="5" stroke="#888" stroke-width="1" opacity="1"/><line transform="translate(100,0)" x2="0" y2="5" stroke="#888" stroke-width="1" opacity="1"/><line transform="translate(133,0)" x2="0" y2="5" stroke="#888" stroke-width="1" opacity="1"/><line transform="translate(167,0)" x2="0" y2="5" stroke="#888" stroke-width="1" opacity="1"/><line transform="translate(200,0)" x2="0" y2="5" stroke="#888" stroke-width="1" opacity="1"/><line transform="translate(233,0)" x2="0" y2="5" stroke="#888" stroke-width="1" opacity="1"/><line transform="translate(267,0)" x2="0" y2="5" stroke="#888" stroke-width="1" opacity="1"/><line transform="translate(300,0)" x2="0" y2="5" stroke="#888" stroke-width="1" opacity="1"/></g><g class="mark-text role-axis-label" pointer-events="none"><text text-anchor="start" transform="translate(0,15)" font-family="sans-serif" font-size="10px" fill="#000" opacity="1">0</text><text text-anchor="middle" transform="translate(33.33333333333333,15)" font-family="sans-serif" font-size="10px" fill="#000" opacity="0">20</text><text text-anchor="middle" transform="translate(66.66666666666666,15)" font-family="sans-serif" font-size="10px" fill="#000" opacity="1">40</text><text text-anchor="middle" transform="translate(100,15)" font-family="sans-serif" font-size="10px" fill="#000" opacity="0">60</text><text text-anchor="middle" transform="translate(133.33333333333331,15)" font-family="sans-serif" font-size="10px" fill="#000" opacity="1">80</text><text text-anchor="middle" transform="translate(166.66666666666669,15)" font-family="sans-serif" font-size="10px" fill="#000" opacity="0">100</text><text text-anchor="middle" transform="translate(200,15)" font-family="sans-serif" font-size="10px" fill="#000" opacity="1">120</text><text text-anchor="middle" transform="translate(233.33333333333334,15)" font-family="sans-serif" font-size="10px" fill="#000" opacity="0">140</text><text text-anchor="middle" transform="translate(266.66666666666663,15)" font-family="sans-serif" font-size="10px" fill="#000" opacity="1">160</text><text text-anchor="end" transform="translate(300,15)" font-family="sans-serif" font-size="10px" fill="#000" opacity="0">180</text></g><g class="mark-rule role-axis-domain" pointer-events="none"><line transform="translate(0,0)" x2="300" y2="0" stroke="#888" stroke-width="1" opacity="1"/></g><g class="mark-text role-axis-title" pointer-events="none"><text text-anchor="middle" transform="translate(150,30)" font-family="sans-serif" font-size="11px" font-weight="bold" fill="#000" opacity="1">mean execution time in µs</text></g></g><path class="foreground" aria-hidden="true" d="" pointer-events="none" display="none"/></g></g><g class="mark-group role-axis" role="graphics-symbol" aria-roledescription="axis" aria-label="Y-axis titled 'algorithm' for a discrete scale with 15 values: (JohT) inputPerKernelValue Transposed, (JohT) inputPerKernelValue Transposed OuterLoopUnrolled, (JohT) inputPerKernelValue Transposed LoopFissionIndexArithmetic, (JohT) inputPerKernelValue Transposed LoopFission, (JohT) inputPerKernelValue Transposed Inner&amp;OuterLoopUnrolled, ending with (matlab-like) conv 'valid' shape pre padded"><g transform="translate(0.5,0.5)"><path class="background" aria-hidden="true" d="M0,0h0v0h0Z" pointer-events="none"/><g><g class="mark-rule role-axis-tick" pointer-events="none"><line transform="translate(0,10)" x2="-5" y2="0" stroke="#888" stroke-width="1" opacity="1"/><line transform="translate(0,30)" x2="-5" y2="0" stroke="#888" stroke-width="1" opacity="1"/><line transform="translate(0,50)" x2="-5" y2="0" stroke="#888" stroke-width="1" opacity="1"/><line transform="translate(0,70)" x2="-5" y2="0" stroke="#888" stroke-width="1" opacity="1"/><line transform="translate(0,90)" x2="-5" y2="0" stroke="#888" stroke-width="1" opacity="1"/><line transform="translate(0,110)" x2="-5" y2="0" stroke="#888" stroke-width="1" opacity="1"/><line transform="translate(0,130)" x2="-5" y2="0" stroke="#888" stroke-width="1" opacity="1"/><line transform="translate(0,150)" x2="-5" y2="0" stroke="#888" stroke-width="1" opacity="1"/><line transform="translate(0,170)" x2="-5" y2="0" stroke="#888" stroke-width="1" opacity="1"/><line transform="translate(0,190)" x2="-5" y2="0" stroke="#888" stroke-width="1" opacity="1"/><line transform="translate(0,210)" x2="-5" y2="0" stroke="#888" stroke-width="1" opacity="1"/><line transform="translate(0,230)" x2="-5" y2="0" stroke="#888" stroke-width="1" opacity="1"/><line transform="translate(0,250)" x2="-5" y2="0" stroke="#888" stroke-width="1" opacity="1"/><line transform="translate(0,270)" x2="-5" y2="0" stroke="#888" stroke-width="1" opacity="1"/><line transform="translate(0,290)" x2="-5" y2="0" stroke="#888" stroke-width="1" opacity="1"/></g><g class="mark-text role-axis-label" pointer-events="none"><text text-anchor="end" transform="translate(-7,12.5)" font-family="sans-serif" font-size="10px" fill="#000" opacity="1">(JohT) inputPerKernelValue Transposed</text><text text-anchor="end" transform="translate(-7,32.5)" font-family="sans-serif" font-size="10px" fill="#000" opacity="1">(JohT) inputPerKernelValue Transposed OuterLoopUnrolled</text><text text-anchor="end" transform="translate(-7,52.5)" font-family="sans-serif" font-size="10px" fill="#000" opacity="1">(JohT) inputPerKernelValue Transposed LoopFissionIndexArithme…</text><text text-anchor="end" transform="translate(-7,72.5)" font-family="sans-serif" font-size="10px" fill="#000" opacity="1">(JohT) inputPerKernelValue Transposed LoopFission</text><text text-anchor="end" transform="translate(-7,92.5)" font-family="sans-serif" font-size="10px" fill="#000" opacity="1">(JohT) inputPerKernelValue Transposed Inner&amp;OuterLoopUnrolled</text><text text-anchor="end" transform="translate(-7,112.5)" font-family="sans-serif" font-size="10px" fill="#000" opacity="1">(JohT) inputPerKernelValue Transposed InnerLoopUnrolled</text><text text-anchor="end" transform="translate(-7,132.5)" font-family="sans-serif" font-size="10px" fill="#000" opacity="1">(wilczek) Inner-Loop Vectorization</text><text text-anchor="end" transform="translate(-7,152.5)" font-family="sans-serif" font-size="10px" fill="#000" opacity="1">(wilczek) Outer- and Inner-Loop Vectorization</text><text text-anchor="end" transform="translate(-7,172.5)" font-family="sans-serif" font-size="10px" fill="#000" opacity="1">(JohT) kernelPerInputValue Transposed</text><text text-anchor="end" transform="translate(-7,192.5)" font-family="sans-serif" font-size="10px" fill="#000" opacity="1">(JohT) kernelPerInputValue Transposed LoopFission</text><text text-anchor="end" transform="translate(-7,212.5)" font-family="sans-serif" font-size="10px" fill="#000" opacity="1">(chaowang15) convolve1D</text><text text-anchor="end" transform="translate(-7,232.5)" font-family="sans-serif" font-size="10px" fill="#000" opacity="1">(wilczek) Single</text><text text-anchor="end" transform="translate(-7,252.5)" font-family="sans-serif" font-size="10px" fill="#000" opacity="1">(matlab-like) conv 'full' shape</text><text text-anchor="end" transform="translate(-7,272.5)" font-family="sans-serif" font-size="10px" fill="#000" opacity="1">(wilczek) Outer-Loop Vectorization</text><text text-anchor="end" transform="translate(-7,292.5)" font-family="sans-serif" font-size="10px" fill="#000" opacity="1">(matlab-like) conv 'valid' shape pre padded</text></g><g class="mark-rule role-axis-domain" pointer-events="none"><line transform="translate(0,0)" x2="0" y2="300" stroke="#888" stroke-width="1" opacity="1"/></g><g class="mark-text role-axis-title" pointer-events="none"><text text-anchor="middle" transform="translate(-320,150) rotate(-90) translate(0,-2)" font-family="sans-serif" font-size="11px" font-weight="bold" fill="#000" opacity="1">algorithm</text></g></g><path class="foreground" aria-hidden="true" d="" pointer-events="none" display="none"/></g></g><g class="mark-rect role-mark child_layer_0_marks" role="graphics-object" aria-roledescription="rect mark container"><path aria-label="mean execution time in µs: 127; algorithm: (JohT) kernelPerInputValue Transposed" role="graphics-symbol" aria-roledescription="bar" d="M0,161.9L207.66666666666669,161.9C209.8743267646427,161.9,211.66666666666669,163.692339902024,211.66666666666669,165.9L211.66666666666669,174.1C211.66666666666669,176.307660097976,209.8743267646427,178.1,207.66666666666669,178.1L0,178.1C0,178.1,0,178.1,0,178.1L0,161.9C0,161.9,0,161.9,0,161.9Z" fill="#4c78a8"/><path aria-label="mean execution time in µs: 57; algorithm: (JohT) inputPerKernelValue Transposed" role="graphics-symbol" aria-roledescription="bar" d="M0,1.9L91,1.9C93.207660097976,1.9,95,3.692339902024,95,5.9L95,14.099999999999998C95,16.307660097975997,93.207660097976,18.099999999999998,91,18.099999999999998L0,18.099999999999998C0,18.099999999999998,0,18.099999999999998,0,18.099999999999998L0,1.9C0,1.9,0,1.9,0,1.9Z" fill="#4c78a8"/><path aria-label="mean execution time in µs: 90; algorithm: (JohT) inputPerKernelValue Transposed InnerLoopUnrolled" role="graphics-symbol" aria-roledescription="bar" d="M0,101.9L146,101.9C148.207660097976,101.9,150,103.692339902024,150,105.9L150,114.10000000000001C150,116.30766009797601,148.207660097976,118.10000000000001,146,118.10000000000001L0,118.10000000000001C0,118.10000000000001,0,118.10000000000001,0,118.10000000000001L0,101.9C0,101.9,0,101.9,0,101.9Z" fill="#4c78a8"/><path aria-label="mean execution time in µs: 72; algorithm: (JohT) inputPerKernelValue Transposed OuterLoopUnrolled" role="graphics-symbol" aria-roledescription="bar" d="M0,21.9L116,21.9C118.207660097976,21.9,120,23.692339902024,120,25.9L120,34.099999999999994C120,36.307660097976,118.207660097976,38.099999999999994,116,38.099999999999994L0,38.099999999999994C0,38.099999999999994,0,38.099999999999994,0,38.099999999999994L0,21.9C0,21.9,0,21.9,0,21.9Z" fill="#4c78a8"/><path aria-label="mean execution time in µs: 87; algorithm: (JohT) inputPerKernelValue Transposed Inner&amp;OuterLoopUnrolled" role="graphics-symbol" aria-roledescription="bar" d="M0,81.9L141,81.9C143.207660097976,81.9,145,83.692339902024,145,85.9L145,94.10000000000001C145,96.30766009797601,143.207660097976,98.10000000000001,141,98.10000000000001L0,98.10000000000001C0,98.10000000000001,0,98.10000000000001,0,98.10000000000001L0,81.9C0,81.9,0,81.9,0,81.9Z" fill="#4c78a8"/><path aria-label="mean execution time in µs: 81; algorithm: (JohT) inputPerKernelValue Transposed LoopFission" role="graphics-symbol" aria-roledescription="bar" d="M0,61.9L131,61.9C133.207660097976,61.9,135,63.692339902023996,135,65.9L135,74.1C135,76.307660097976,133.207660097976,78.1,131,78.1L0,78.1C0,78.1,0,78.1,0,78.1L0,61.9C0,61.9,0,61.9,0,61.9Z" fill="#4c78a8"/><path aria-label="mean execution time in µs: 77; algorithm: (JohT) inputPerKernelValue Transposed LoopFissionIndexArithmetic" role="graphics-symbol" aria-roledescription="bar" d="M0,41.9L124.33333333333331,41.9C126.54099343130932,41.9,128.33333333333331,43.692339902023996,128.33333333333331,45.9L128.33333333333331,54.099999999999994C128.33333333333331,56.307660097976,126.54099343130932,58.099999999999994,124.33333333333331,58.099999999999994L0,58.099999999999994C0,58.099999999999994,0,58.099999999999994,0,58.099999999999994L0,41.9C0,41.9,0,41.9,0,41.9Z" fill="#4c78a8"/><path aria-label="mean execution time in µs: 127; algorithm: (JohT) kernelPerInputValue Transposed LoopFission" role="graphics-symbol" aria-roledescription="bar" d="M0,181.9L207.66666666666669,181.9C209.8743267646427,181.9,211.66666666666669,183.692339902024,211.66666666666669,185.9L211.66666666666669,194.1C211.66666666666669,196.307660097976,209.8743267646427,198.1,207.66666666666669,198.1L0,198.1C0,198.1,0,198.1,0,198.1L0,181.9C0,181.9,0,181.9,0,181.9Z" fill="#4c78a8"/><path aria-label="mean execution time in µs: 158; algorithm: (matlab-like) conv 'full' shape" role="graphics-symbol" aria-roledescription="bar" d="M0,241.9L259.3333333333333,241.9C261.5409934313093,241.9,263.3333333333333,243.692339902024,263.3333333333333,245.9L263.3333333333333,254.10000000000002C263.3333333333333,256.307660097976,261.5409934313093,258.1,259.3333333333333,258.1L0,258.1C0,258.1,0,258.1,0,258.1L0,241.9C0,241.9,0,241.9,0,241.9Z" fill="#4c78a8"/><path aria-label="mean execution time in µs: 164; algorithm: (matlab-like) conv 'valid' shape pre padded" role="graphics-symbol" aria-roledescription="bar" d="M0,281.9L269.3333333333333,281.9C271.5409934313093,281.9,273.3333333333333,283.692339902024,273.3333333333333,285.9L273.3333333333333,294.09999999999997C273.3333333333333,296.30766009797594,271.5409934313093,298.09999999999997,269.3333333333333,298.09999999999997L0,298.09999999999997C0,298.09999999999997,0,298.09999999999997,0,298.09999999999997L0,281.9C0,281.9,0,281.9,0,281.9Z" fill="#4c78a8"/><path aria-label="mean execution time in µs: 149; algorithm: (wilczek) Single" role="graphics-symbol" aria-roledescription="bar" d="M0,221.9L244.33333333333331,221.9C246.54099343130932,221.9,248.33333333333331,223.692339902024,248.33333333333331,225.9L248.33333333333331,234.1C248.33333333333331,236.307660097976,246.54099343130932,238.1,244.33333333333331,238.1L0,238.1C0,238.1,0,238.1,0,238.1L0,221.9C0,221.9,0,221.9,0,221.9Z" fill="#4c78a8"/><path aria-label="mean execution time in µs: 106; algorithm: (wilczek) Inner-Loop Vectorization" role="graphics-symbol" aria-roledescription="bar" d="M0,121.9L172.66666666666669,121.9C174.8743267646427,121.9,176.66666666666669,123.692339902024,176.66666666666669,125.9L176.66666666666669,134.1C176.66666666666669,136.307660097976,174.8743267646427,138.1,172.66666666666669,138.1L0,138.1C0,138.1,0,138.1,0,138.1L0,121.9C0,121.9,0,121.9,0,121.9Z" fill="#4c78a8"/><path aria-label="mean execution time in µs: 160; algorithm: (wilczek) Outer-Loop Vectorization" role="graphics-symbol" aria-roledescription="bar" d="M0,261.9L262.66666666666663,261.9C264.8743267646426,261.9,266.66666666666663,263.692339902024,266.66666666666663,265.9L266.66666666666663,274.09999999999997C266.66666666666663,276.30766009797594,264.8743267646426,278.09999999999997,262.66666666666663,278.09999999999997L0,278.09999999999997C0,278.09999999999997,0,278.09999999999997,0,278.09999999999997L0,261.9C0,261.9,0,261.9,0,261.9Z" fill="#4c78a8"/><path aria-label="mean execution time in µs: 110; algorithm: (wilczek) Outer- and Inner-Loop Vectorization" role="graphics-symbol" aria-roledescription="bar" d="M0,141.9L179.33333333333334,141.9C181.54099343130935,141.9,183.33333333333334,143.692339902024,183.33333333333334,145.9L183.33333333333334,154.1C183.33333333333334,156.307660097976,181.54099343130935,158.1,179.33333333333334,158.1L0,158.1C0,158.1,0,158.1,0,158.1L0,141.9C0,141.9,0,141.9,0,141.9Z" fill="#4c78a8"/><path aria-label="mean execution time in µs: 130; algorithm: (chaowang15) convolve1D" role="graphics-symbol" aria-roledescription="bar" d="M0,201.9L212.66666666666666,201.9C214.87432676464266,201.9,216.66666666666666,203.692339902024,216.66666666666666,205.9L216.66666666666666,214.1C216.66666666666666,216.307660097976,214.87432676464266,218.1,212.66666666666666,218.1L0,218.1C0,218.1,0,218.1,0,218.1L0,201.9C0,201.9,0,201.9,0,201.9Z" fill="#4c78a8"/></g><g class="mark-text role-mark child_layer_1_marks" role="graphics-object" aria-roledescription="text mark container"><text aria-label="mean execution time in µs: 127; algorithm: (JohT) kernelPerInputValue Transposed; MeanExecutionTime: 127" role="graphics-symbol" aria-roledescription="text mark" text-anchor="start" transform="translate(215.66666666666669,173)" font-family="sans-serif" font-size="9px" fill="black">127</text><text aria-label="mean execution time in µs: 57; algorithm: (JohT) inputPerKernelValue Transposed; MeanExecutionTime: 57" role="graphics-symbol" aria-roledescription="text mark" text-anchor="start" transform="translate(99,13)" font-family="sans-serif" font-size="9px" fill="black">57</text><text aria-label="mean execution time in µs: 90; algorithm: (JohT) inputPerKernelValue Transposed InnerLoopUnrolled; MeanExecutionTime: 90" role="graphics-symbol" aria-roledescription="text mark" text-anchor="start" transform="translate(154,113)" font-family="sans-serif" font-size="9px" fill="black">90</text><text aria-label="mean execution time in µs: 72; algorithm: (JohT) inputPerKernelValue Transposed OuterLoopUnrolled; MeanExecutionTime: 72" role="graphics-symbol" aria-roledescription="text mark" text-anchor="start" transform="translate(124,33)" font-family="sans-serif" font-size="9px" fill="black">72</text><text aria-label="mean execution time in µs: 87; algorithm: (JohT) inputPerKernelValue Transposed Inner&amp;OuterLoopUnrolled; MeanExecutionTime: 87" role="graphics-symbol" aria-roledescription="text mark" text-anchor="start" transform="translate(149,93)" font-family="sans-serif" font-size="9px" fill="black">87</text><text aria-label="mean execution time in µs: 81; algorithm: (JohT) inputPerKernelValue Transposed LoopFission; MeanExecutionTime: 81" role="graphics-symbol" aria-roledescription="text mark" text-anchor="start" transform="translate(139,73)" font-family="sans-serif" font-size="9px" fill="black">81</text><text aria-label="mean execution time in µs: 77; algorithm: (JohT) inputPerKernelValue Transposed LoopFissionIndexArithmetic; MeanExecutionTime: 77" role="graphics-symbol" aria-roledescription="text mark" text-anchor="start" transform="translate(132.33333333333331,53)" font-family="sans-serif" font-size="9px" fill="black">77</text><text aria-label="mean execution time in µs: 127; algorithm: (JohT) kernelPerInputValue Transposed LoopFission; MeanExecutionTime: 127" role="graphics-symbol" aria-roledescription="text mark" text-anchor="start" transform="translate(215.66666666666669,193)" font-family="sans-serif" font-size="9px" fill="black">127</text><text aria-label="mean execution time in µs: 158; algorithm: (matlab-like) conv 'full' shape; MeanExecutionTime: 158" role="graphics-symbol" aria-roledescription="text mark" text-anchor="start" transform="translate(267.3333333333333,253)" font-family="sans-serif" font-size="9px" fill="black">158</text><text aria-label="mean execution time in µs: 164; algorithm: (matlab-like) conv 'valid' shape pre padded; MeanExecutionTime: 164" role="graphics-symbol" aria-roledescription="text mark" text-anchor="start" transform="translate(277.3333333333333,293)" font-family="sans-serif" font-size="9px" fill="black">164</text><text aria-label="mean execution time in µs: 149; algorithm: (wilczek) Single; MeanExecutionTime: 149" role="graphics-symbol" aria-roledescription="text mark" text-anchor="start" transform="translate(252.33333333333331,233)" font-family="sans-serif" font-size="9px" fill="black">149</text><text aria-label="mean execution time in µs: 106; algorithm: (wilczek) Inner-Loop Vectorization; MeanExecutionTime: 106" role="graphics-symbol" aria-roledescription="text mark" text-anchor="start" transform="translate(180.66666666666669,133)" font-family="sans-serif" font-size="9px" fill="black">106</text><text aria-label="mean execution time in µs: 160; algorithm: (wilczek) Outer-Loop Vectorization; MeanExecutionTime: 160" role="graphics-symbol" aria-roledescription="text mark" text-anchor="start" transform="translate(270.66666666666663,273)" font-family="sans-serif" font-size="9px" fill="black">160</text><text aria-label="mean execution time in µs: 110; algorithm: (wilczek) Outer- and Inner-Loop Vectorization; MeanExecutionTime: 110" role="graphics-symbol" aria-roledescription="text mark" text-anchor="start" transform="translate(187.33333333333334,153)" font-family="sans-serif" font-size="9px" fill="black">110</text><text aria-label="mean execution time in µs: 130; algorithm: (chaowang15) convolve1D; MeanExecutionTime: 130" role="graphics-symbol" aria-roledescription="text mark" text-anchor="start" transform="translate(220.66666666666666,213)" font-family="sans-serif" font-size="9px" fill="black">130</text></g></g><path class="foreground" aria-hidden="true" d="" display="none"/></g><g transform="translate(826,0)"><path class="background" aria-hidden="true" d="M0.5,0.5h300v300h-300Z" stroke="#ddd"/><g><g class="mark-group role-axis" aria-hidden="true"><g transform="translate(0.5,300.5)"><path class="background" aria-hidden="true" d="M0,0h0v0h0Z" pointer-events="none"/><g><g class="mark-rule role-axis-grid" pointer-events="none"><line transform="translate(0,0)" x2="0" y2="-300" stroke="#ddd" stroke-width="1" opacity="1"/><line transform="translate(30,0)" x2="0" y2="-300" stroke="#ddd" stroke-width="1" opacity="1"/><line transform="translate(60,0)" x2="0" y2="-300" stroke="#ddd" stroke-width="1" opacity="1"/><line transform="translate(90,0)" x2="0" y2="-300" stroke="#ddd" stroke-width="1" opacity="1"/><line transform="translate(120,0)" x2="0" y2="-300" stroke="#ddd" stroke-width="1" opacity="1"/><line transform="translate(150,0)" x2="0" y2="-300" stroke="#ddd" stroke-width="1" opacity="1"/><line transform="translate(180,0)" x2="0" y2="-300" stroke="#ddd" stroke-width="1" opacity="1"/><line transform="translate(210,0)" x2="0" y2="-300" stroke="#ddd" stroke-width="1" opacity="1"/><line transform="translate(240,0)" x2="0" y2="-300" stroke="#ddd" stroke-width="1" opacity="1"/><line transform="translate(270,0)" x2="0" y2="-300" stroke="#ddd" stroke-width="1" opacity="1"/><line transform="translate(300,0)" x2="0" y2="-300" stroke="#ddd" stroke-width="1" opacity="1"/></g></g><path class="foreground" aria-hidden="true" d="" pointer-events="none" display="none"/></g></g><g class="mark-group role-axis" role="graphics-symbol" aria-roledescription="axis" aria-label="X-axis titled 'mean execution time in µs' for a linear scale with values from 0 to 10,000"><g transform="translate(0.5,300.5)"><path class="background" aria-hidden="true" d="M0,0h0v0h0Z" pointer-events="none"/><g><g class="mark-rule role-axis-tick" pointer-events="none"><line transform="translate(0,0)" x2="0" y2="5" stroke="#888" stroke-width="1" opacity="1"/><line transform="translate(30,0)" x2="0" y2="5" stroke="#888" stroke-width="1" opacity="1"/><line transform="translate(60,0)" x2="0" y2="5" stroke="#888" stroke-width="1" opacity="1"/><line transform="translate(90,0)" x2="0" y2="5" stroke="#888" stroke-width="1" opacity="1"/><line transform="translate(120,0)" x2="0" y2="5" stroke="#888" stroke-width="1" opacity="1"/><line transform="translate(150,0)" x2="0" y2="5" stroke="#888" stroke-width="1" opacity="1"/><line transform="translate(180,0)" x2="0" y2="5" stroke="#888" stroke-width="1" opacity="1"/><line transform="translate(210,0)" x2="0" y2="5" stroke="#888" stroke-width="1" opacity="1"/><line transform="translate(240,0)" x2="0" y2="5" stroke="#888" stroke-width="1" opacity="1"/><line transform="translate(270,0)" x2="0" y2="5" stroke="#888" stroke-width="1" opacity="1"/><line transform="translate(300,0)" x2="0" y2="5" stroke="#888" stroke-width="1" opacity="1"/></g><g class="mark-text role-axis-label" pointer-events="none"><text text-anchor="start" transform="translate(0,15)" font-family="sans-serif" font-size="10px" fill="#000" opacity="1">0</text><text text-anchor="middle" transform="translate(30,15)" font-family="sans-serif" font-size="10px" fill="#000" opacity="0">1,000</text><text text-anchor="middle" transform="translate(60,15)" font-family="sans-serif" font-size="10px" fill="#000" opacity="0">2,000</text><text text-anchor="middle" transform="translate(90,15)" font-family="sans-serif" font-size="10px" fill="#000" opacity="0">3,000</text><text text-anchor="middle" transform="translate(120,15)" font-family="sans-serif" font-size="10px" fill="#000" opacity="1">4,000</text><text text-anchor="middle" transform="translate(150,15)" font-family="sans-serif" font-size="10px" fill="#000" opacity="0">5,000</text><text text-anchor="middle" transform="translate(180,15)" font-family="sans-serif" font-size="10px" fill="#000" opacity="0">6,000</text><text text-anchor="middle" transform="translate(210,15)" font-family="sans-serif" font-size="10px" fill="#000" opacity="0">7,000</text><text text-anchor="middle" transform="translate(240,15)" font-family="sans-serif" font-size="10px" fill="#000" opacity="1">8,000</text><text text-anchor="middle" transform="translate(270,15)" font-family="sans-serif" font-size="10px" fill="#000" opacity="0">9,000</text><text text-anchor="end" transform="translate(300,15)" font-family="sans-serif" font-size="10px" fill="#000" opacity="0">10,000</text></g><g class="mark-rule role-axis-domain" pointer-events="none"><line transform="translate(0,0)" x2="300" y2="0" stroke="#888" stroke-width="1" opacity="1"/></g><g class="mark-text role-axis-title" pointer-events="none"><text text-anchor="middle" transform="translate(150,30)" font-family="sans-serif" font-size="11px" font-weight="bold" fill="#000" opacity="1">mean execution time in µs</text></g></g><path class="foreground" aria-hidden="true" d="" pointer-events="none" display="none"/></g></g><g class="mark-group role-axis" role="graphics-symbol" aria-roledescription="axis" aria-label="Y-axis titled 'algorithm' for a discrete scale with 15 values: (JohT) kernelPerInputValue Transposed, (JohT) inputPerKernelValue Transposed, (JohT) kernelPerInputValue Transposed LoopFission, (JohT) inputPerKernelValue Transposed OuterLoopUnrolled, (JohT) inputPerKernelValue Transposed LoopFissionIndexArithmetic, ending with (wilczek) Single"><g transform="translate(0.5,0.5)"><path class="background" aria-hidden="true" d="M0,0h0v0h0Z" pointer-events="none"/><g><g class="mark-rule role-axis-tick" pointer-events="none"><line transform="translate(0,10)" x2="-5" y2="0" stroke="#888" stroke-width="1" opacity="1"/><line transform="translate(0,30)" x2="-5" y2="0" stroke="#888" stroke-width="1" opacity="1"/><line transform="translate(0,50)" x2="-5" y2="0" stroke="#888" stroke-width="1" opacity="1"/><line transform="translate(0,70)" x2="-5" y2="0" stroke="#888" stroke-width="1" opacity="1"/><line transform="translate(0,90)" x2="-5" y2="0" stroke="#888" stroke-width="1" opacity="1"/><line transform="translate(0,110)" x2="-5" y2="0" stroke="#888" stroke-width="1" opacity="1"/><line transform="translate(0,130)" x2="-5" y2="0" stroke="#888" stroke-width="1" opacity="1"/><line transform="translate(0,150)" x2="-5" y2="0" stroke="#888" stroke-width="1" opacity="1"/><line transform="translate(0,170)" x2="-5" y2="0" stroke="#888" stroke-width="1" opacity="1"/><line transform="translate(0,190)" x2="-5" y2="0" stroke="#888" stroke-width="1" opacity="1"/><line transform="translate(0,210)" x2="-5" y2="0" stroke="#888" stroke-width="1" opacity="1"/><line transform="translate(0,230)" x2="-5" y2="0" stroke="#888" stroke-width="1" opacity="1"/><line transform="translate(0,250)" x2="-5" y2="0" stroke="#888" stroke-width="1" opacity="1"/><line transform="translate(0,270)" x2="-5" y2="0" stroke="#888" stroke-width="1" opacity="1"/><line transform="translate(0,290)" x2="-5" y2="0" stroke="#888" stroke-width="1" opacity="1"/></g><g class="mark-text role-axis-label" pointer-events="none"><text text-anchor="end" transform="translate(-7,12.5)" font-family="sans-serif" font-size="10px" fill="#000" opacity="1">(JohT) kernelPerInputValue Transposed</text><text text-anchor="end" transform="translate(-7,32.5)" font-family="sans-serif" font-size="10px" fill="#000" opacity="1">(JohT) inputPerKernelValue Transposed</text><text text-anchor="end" transform="translate(-7,52.5)" font-family="sans-serif" font-size="10px" fill="#000" opacity="1">(JohT) kernelPerInputValue Transposed LoopFission</text><text text-anchor="end" transform="translate(-7,72.5)" font-family="sans-serif" font-size="10px" fill="#000" opacity="1">(JohT) inputPerKernelValue Transposed OuterLoopUnrolled</text><text text-anchor="end" transform="translate(-7,92.5)" font-family="sans-serif" font-size="10px" fill="#000" opacity="1">(JohT) inputPerKernelValue Transposed LoopFissionIndexArithme…</text><text text-anchor="end" transform="translate(-7,112.5)" font-family="sans-serif" font-size="10px" fill="#000" opacity="1">(JohT) inputPerKernelValue Transposed LoopFission</text><text text-anchor="end" transform="translate(-7,132.5)" font-family="sans-serif" font-size="10px" fill="#000" opacity="1">(JohT) inputPerKernelValue Transposed Inner&amp;OuterLoopUnrolled</text><text text-anchor="end" transform="translate(-7,152.5)" font-family="sans-serif" font-size="10px" fill="#000" opacity="1">(JohT) inputPerKernelValue Transposed InnerLoopUnrolled</text><text text-anchor="end" transform="translate(-7,172.5)" font-family="sans-serif" font-size="10px" fill="#000" opacity="1">(wilczek) Inner-Loop Vectorization</text><text text-anchor="end" transform="translate(-7,192.5)" font-family="sans-serif" font-size="10px" fill="#000" opacity="1">(wilczek) Outer- and Inner-Loop Vectorization</text><text text-anchor="end" transform="translate(-7,212.5)" font-family="sans-serif" font-size="10px" fill="#000" opacity="1">(wilczek) Outer-Loop Vectorization</text><text text-anchor="end" transform="translate(-7,232.5)" font-family="sans-serif" font-size="10px" fill="#000" opacity="1">(matlab-like) conv 'full' shape</text><text text-anchor="end" transform="translate(-7,252.5)" font-family="sans-serif" font-size="10px" fill="#000" opacity="1">(chaowang15) convolve1D</text><text text-anchor="end" transform="translate(-7,272.5)" font-family="sans-serif" font-size="10px" fill="#000" opacity="1">(matlab-like) conv 'valid' shape pre padded</text><text text-anchor="end" transform="translate(-7,292.5)" font-family="sans-serif" font-size="10px" fill="#000" opacity="1">(wilczek) Single</text></g><g class="mark-rule role-axis-domain" pointer-events="none"><line transform="translate(0,0)" x2="0" y2="300" stroke="#888" stroke-width="1" opacity="1"/></g><g class="mark-text role-axis-title" pointer-events="none"><text text-anchor="middle" transform="translate(-320,150) rotate(-90) translate(0,-2)" font-family="sans-serif" font-size="11px" font-weight="bold" fill="#000" opacity="1">algorithm</text></g></g><path class="foreground" aria-hidden="true" d="" pointer-events="none" display="none"/></g></g><g class="mark-rect role-mark child_layer_0_marks" role="graphics-object" aria-roledescription="rect mark container"><path aria-label="mean execution time in µs: 1204; algorithm: (JohT) kernelPerInputValue Transposed" role="graphics-symbol" aria-roledescription="bar" d="M0,1.9L32.12,1.9C34.327660097976,1.9,36.12,3.692339902024,36.12,5.9L36.12,14.099999999999998C36.12,16.307660097975997,34.327660097976,18.099999999999998,32.12,18.099999999999998L0,18.099999999999998C0,18.099999999999998,0,18.099999999999998,0,18.099999999999998L0,1.9C0,1.9,0,1.9,0,1.9Z" fill="#4c78a8"/><path aria-label="mean execution time in µs: 1517; algorithm: (JohT) inputPerKernelValue Transposed" role="graphics-symbol" aria-roledescription="bar" d="M0,21.9L41.51,21.9C43.717660097976,21.9,45.51,23.692339902024,45.51,25.9L45.51,34.099999999999994C45.51,36.307660097976,43.717660097976,38.099999999999994,41.51,38.099999999999994L0,38.099999999999994C0,38.099999999999994,0,38.099999999999994,0,38.099999999999994L0,21.9C0,21.9,0,21.9,0,21.9Z" fill="#4c78a8"/><path aria-label="mean execution time in µs: 2967; algorithm: (JohT) inputPerKernelValue Transposed InnerLoopUnrolled" role="graphics-symbol" aria-roledescription="bar" d="M0,141.9L85.01,141.9C87.21766009797601,141.9,89.01,143.692339902024,89.01,145.9L89.01,154.1C89.01,156.307660097976,87.21766009797601,158.1,85.01,158.1L0,158.1C0,158.1,0,158.1,0,158.1L0,141.9C0,141.9,0,141.9,0,141.9Z" fill="#4c78a8"/><path aria-label="mean execution time in µs: 2117; algorithm: (JohT) inputPerKernelValue Transposed OuterLoopUnrolled" role="graphics-symbol" aria-roledescription="bar" d="M0,61.9L59.51,61.9C61.717660097976,61.9,63.51,63.692339902023996,63.51,65.9L63.51,74.1C63.51,76.307660097976,61.717660097976,78.1,59.51,78.1L0,78.1C0,78.1,0,78.1,0,78.1L0,61.9C0,61.9,0,61.9,0,61.9Z" fill="#4c78a8"/><path aria-label="mean execution time in µs: 2782; algorithm: (JohT) inputPerKernelValue Transposed Inner&amp;OuterLoopUnrolled" role="graphics-symbol" aria-roledescription="bar" d="M0,121.9L79.46000000000001,121.9C81.66766009797601,121.9,83.46000000000001,123.692339902024,83.46000000000001,125.9L83.46000000000001,134.1C83.46000000000001,136.307660097976,81.66766009797601,138.1,79.46000000000001,138.1L0,138.1C0,138.1,0,138.1,0,138.1L0,121.9C0,121.9,0,121.9,0,121.9Z" fill="#4c78a8"/><path aria-label="mean execution time in µs: 2589; algorithm: (JohT) inputPerKernelValue Transposed LoopFission" role="graphics-symbol" aria-roledescription="bar" d="M0,101.9L73.67,101.9C75.877660097976,101.9,77.67,103.692339902024,77.67,105.9L77.67,114.10000000000001C77.67,116.30766009797601,75.877660097976,118.10000000000001,73.67,118.10000000000001L0,118.10000000000001C0,118.10000000000001,0,118.10000000000001,0,118.10000000000001L0,101.9C0,101.9,0,101.9,0,101.9Z" fill="#4c78a8"/><path aria-label="mean execution time in µs: 2380; algorithm: (JohT) inputPerKernelValue Transposed LoopFissionIndexArithmetic" role="graphics-symbol" aria-roledescription="bar" d="M0,81.9L67.39999999999999,81.9C69.607660097976,81.9,71.39999999999999,83.692339902024,71.39999999999999,85.9L71.39999999999999,94.10000000000001C71.39999999999999,96.30766009797601,69.607660097976,98.10000000000001,67.39999999999999,98.10000000000001L0,98.10000000000001C0,98.10000000000001,0,98.10000000000001,0,98.10000000000001L0,81.9C0,81.9,0,81.9,0,81.9Z" fill="#4c78a8"/><path aria-label="mean execution time in µs: 1688; algorithm: (JohT) kernelPerInputValue Transposed LoopFission" role="graphics-symbol" aria-roledescription="bar" d="M0,41.9L46.64,41.9C48.847660097976004,41.9,50.64,43.692339902023996,50.64,45.9L50.64,54.099999999999994C50.64,56.307660097976,48.847660097976004,58.099999999999994,46.64,58.099999999999994L0,58.099999999999994C0,58.099999999999994,0,58.099999999999994,0,58.099999999999994L0,41.9C0,41.9,0,41.9,0,41.9Z" fill="#4c78a8"/><path aria-label="mean execution time in µs: 9176; algorithm: (matlab-like) conv 'full' shape" role="graphics-symbol" aria-roledescription="bar" d="M0,221.9L271.28,221.9C273.48766009797595,221.9,275.28,223.692339902024,275.28,225.9L275.28,234.1C275.28,236.307660097976,273.48766009797595,238.1,271.28,238.1L0,238.1C0,238.1,0,238.1,0,238.1L0,221.9C0,221.9,0,221.9,0,221.9Z" fill="#4c78a8"/><path aria-label="mean execution time in µs: 9481; algorithm: (matlab-like) conv 'valid' shape pre padded" role="graphics-symbol" aria-roledescription="bar" d="M0,261.9L280.43,261.9C282.637660097976,261.9,284.43,263.692339902024,284.43,265.9L284.43,274.09999999999997C284.43,276.30766009797594,282.637660097976,278.09999999999997,280.43,278.09999999999997L0,278.09999999999997C0,278.09999999999997,0,278.09999999999997,0,278.09999999999997L0,261.9C0,261.9,0,261.9,0,261.9Z" fill="#4c78a8"/><path aria-label="mean execution time in µs: 9483; algorithm: (wilczek) Single" role="graphics-symbol" aria-roledescription="bar" d="M0,281.9L280.49,281.9C282.697660097976,281.9,284.49,283.692339902024,284.49,285.9L284.49,294.09999999999997C284.49,296.30766009797594,282.697660097976,298.09999999999997,280.49,298.09999999999997L0,298.09999999999997C0,298.09999999999997,0,298.09999999999997,0,298.09999999999997L0,281.9C0,281.9,0,281.9,0,281.9Z" fill="#4c78a8"/><path aria-label="mean execution time in µs: 3227; algorithm: (wilczek) Inner-Loop Vectorization" role="graphics-symbol" aria-roledescription="bar" d="M0,161.9L92.81,161.9C95.017660097976,161.9,96.81,163.692339902024,96.81,165.9L96.81,174.1C96.81,176.307660097976,95.017660097976,178.1,92.81,178.1L0,178.1C0,178.1,0,178.1,0,178.1L0,161.9C0,161.9,0,161.9,0,161.9Z" fill="#4c78a8"/><path aria-label="mean execution time in µs: 5648; algorithm: (wilczek) Outer-Loop Vectorization" role="graphics-symbol" aria-roledescription="bar" d="M0,201.9L165.44,201.9C167.647660097976,201.9,169.44,203.692339902024,169.44,205.9L169.44,214.1C169.44,216.307660097976,167.647660097976,218.1,165.44,218.1L0,218.1C0,218.1,0,218.1,0,218.1L0,201.9C0,201.9,0,201.9,0,201.9Z" fill="#4c78a8"/><path aria-label="mean execution time in µs: 3327; algorithm: (wilczek) Outer- and Inner-Loop Vectorization" role="graphics-symbol" aria-roledescription="bar" d="M0,181.9L95.81,181.9C98.017660097976,181.9,99.81,183.692339902024,99.81,185.9L99.81,194.1C99.81,196.307660097976,98.017660097976,198.1,95.81,198.1L0,198.1C0,198.1,0,198.1,0,198.1L0,181.9C0,181.9,0,181.9,0,181.9Z" fill="#4c78a8"/><path aria-label="mean execution time in µs: 9314; algorithm: (chaowang15) convolve1D" role="graphics-symbol" aria-roledescription="bar" d="M0,241.9L275.42,241.9C277.627660097976,241.9,279.42,243.692339902024,279.42,245.9L279.42,254.10000000000002C279.42,256.307660097976,277.627660097976,258.1,275.42,258.1L0,258.1C0,258.1,0,258.1,0,258.1L0,241.9C0,241.9,0,241.9,0,241.9Z" fill="#4c78a8"/></g><g class="mark-text role-mark child_layer_1_marks" role="graphics-object" aria-roledescription="text mark container"><text aria-label="mean execution time in µs: 1204; algorithm: (JohT) kernelPerInputValue Transposed; MeanExecutionTime: 1204" role="graphics-symbol" aria-roledescription="text mark" text-anchor="start" transform="translate(40.12,13)" font-family="sans-serif" font-size="9px" fill="black">1204</text><text aria-label="mean execution time in µs: 1517; algorithm: (JohT) inputPerKernelValue Transposed; MeanExecutionTime: 1517" role="graphics-symbol" aria-roledescription="text mark" text-anchor="start" transform="translate(49.51,33)" font-family="sans-serif" font-size="9px" fill="black">1517</text><text aria-label="mean execution time in µs: 2967; algorithm: (JohT) inputPerKernelValue Transposed InnerLoopUnrolled; MeanExecutionTime: 2967" role="graphics-symbol" aria-roledescription="text mark" text-anchor="start" transform="translate(93.01,153)" font-family="sans-serif" font-size="9px" fill="black">2967</text><text aria-label="mean execution time in µs: 2117; algorithm: (JohT) inputPerKernelValue Transposed OuterLoopUnrolled; MeanExecutionTime: 2117" role="graphics-symbol" aria-roledescription="text mark" text-anchor="start" transform="translate(67.50999999999999,73)" font-family="sans-serif" font-size="9px" fill="black">2117</text><text aria-label="mean execution time in µs: 2782; algorithm: (JohT) inputPerKernelValue Transposed Inner&amp;OuterLoopUnrolled; MeanExecutionTime: 2782" role="graphics-symbol" aria-roledescription="text mark" text-anchor="start" transform="translate(87.46000000000001,133)" font-family="sans-serif" font-size="9px" fill="black">2782</text><text aria-label="mean execution time in µs: 2589; algorithm: (JohT) inputPerKernelValue Transposed LoopFission; MeanExecutionTime: 2589" role="graphics-symbol" aria-roledescription="text mark" text-anchor="start" transform="translate(81.67,113)" font-family="sans-serif" font-size="9px" fill="black">2589</text><text aria-label="mean execution time in µs: 2380; algorithm: (JohT) inputPerKernelValue Transposed LoopFissionIndexArithmetic; MeanExecutionTime: 2380" role="graphics-symbol" aria-roledescription="text mark" text-anchor="start" transform="translate(75.39999999999999,93)" font-family="sans-serif" font-size="9px" fill="black">2380</text><text aria-label="mean execution time in µs: 1688; algorithm: (JohT) kernelPerInputValue Transposed LoopFission; MeanExecutionTime: 1688" role="graphics-symbol" aria-roledescription="text mark" text-anchor="start" transform="translate(54.64,53)" font-family="sans-serif" font-size="9px" fill="black">1688</text><text aria-label="mean execution time in µs: 9176; algorithm: (matlab-like) conv 'full' shape; MeanExecutionTime: 9176" role="graphics-symbol" aria-roledescription="text mark" text-anchor="start" transform="translate(279.28,233)" font-family="sans-serif" font-size="9px" fill="black">9176</text><text aria-label="mean execution time in µs: 9481; algorithm: (matlab-like) conv 'valid' shape pre padded; MeanExecutionTime: 9481" role="graphics-symbol" aria-roledescription="text mark" text-anchor="start" transform="translate(288.43,273)" font-family="sans-serif" font-size="9px" fill="black">9481</text><text aria-label="mean execution time in µs: 9483; algorithm: (wilczek) Single; MeanExecutionTime: 9483" role="graphics-symbol" aria-roledescription="text mark" text-anchor="start" transform="translate(288.49,293)" font-family="sans-serif" font-size="9px" fill="black">9483</text><text aria-label="mean execution time in µs: 3227; algorithm: (wilczek) Inner-Loop Vectorization; MeanExecutionTime: 3227" role="graphics-symbol" aria-roledescription="text mark" text-anchor="start" transform="translate(100.81,173)" font-family="sans-serif" font-size="9px" fill="black">3227</text><text aria-label="mean execution time in µs: 5648; algorithm: (wilczek) Outer-Loop Vectorization; MeanExecutionTime: 5648" role="graphics-symbol" aria-roledescription="text mark" text-anchor="start" transform="translate(173.44,213)" font-family="sans-serif" font-size="9px" fill="black">5648</text><text aria-label="mean execution time in µs: 3327; algorithm: (wilczek) Outer- and Inner-Loop Vectorization; MeanExecutionTime: 3327" role="graphics-symbol" aria-roledescription="text mark" text-anchor="start" transform="translate(103.81,193)" font-family="sans-serif" font-size="9px" fill="black">3327</text><text aria-label="mean execution time in µs: 9314; algorithm: (chaowang15) convolve1D; MeanExecutionTime: 9314" role="graphics-symbol" aria-roledescription="text mark" text-anchor="start" transform="translate(283.42,253)" font-family="sans-serif" font-size="9px" fill="black">9314</text></g></g><path class="foreground" aria-hidden="true" d="" display="none"/></g></g></g><path class="foreground" aria-hidden="true" d="" display="none"/></g></g></g></svg>