<svg xmlns="http://www.w3.org/2000/svg" xmlns:xlink="http://www.w3.org/1999/xlink" version="1.1" class="marks" width="1642" height="404" viewBox="0 0 1642 404"><rect width="1642" height="404" fill="white"/><g fill="none" stroke-miterlimit="10" transform="translate(509,66)"><g class="mark-group role-frame root" role="graphics-object" aria-roledescription="group mark container"><g transform="translate(0,0)"><path class="background" aria-hidden="true" d="M0,0h0v0h0Z"/><g><g class="mark-group role-column-title column-title" role="graphics-object" aria-roledescription="group mark container"><g transform="translate(312,-35)"><path class="background" aria-hidden="true" d="M0,0h0v0h0Z"/><g><g class="mark-group role-title"><g transform="translate(0,-26)"><path class="background" aria-hidden="true" d="M0,0h0v0h0Z" pointer-events="none"/><g><g class="mark-text role-title-text" role="graphics-symbol" aria-roledescription="title" aria-label="Title text 'Convolution Benchmarks'" pointer-events="none"><text text-anchor="middle" transform="translate(0,13)" font-family="sans-serif" font-size="16px" font-weight="bold" fill="#000" opacity="1">Convolution Benchmarks</text></g></g><path class="foreground" aria-hidden="true" d="" pointer-events="none" display="none"/></g></g></g><path class="foreground" aria-hidden="true" d="" display="none"/></g></g><g class="mark-group role-column-header column_header" role="graphics-object" aria-roledescription="group mark container"><g transform="translate(0,-1)"><path class="background" aria-hidden="true" d="M0,0h300v0h-300Z"/><g><g class="mark-group role-title"><g transform="translate(150,-24)"><path class="background" aria-hidden="true" d="M0,0h0v0h0Z" pointer-events="none"/><g><g class="mark-text role-title-text" role="graphics-symbol" aria-roledescription="title" aria-label="Title text 'kernel size 16'" pointer-events="none"><text text-anchor="middle" transform="translate(0,11)" font-family="sans-serif" font-size="14px" fill="#000" opacity="1">kernel size 16</text></g></g><path class="foreground" aria-hidden="true" d="" pointer-events="none" display="none"/></g></g></g><path class="foreground" aria-hidden="true" d="" display="none"/></g><g transform="translate(826,-1)"><path class="background" aria-hidden="true" d="M0,0h300v0h-300Z"/><g><g class="mark-group role-title"><g transform="translate(150,-24)"><path class="background" aria-hidden="true" d="M0,0h0v0h0Z" pointer-events="none"/><g><g class="mark-text role-title-text" role="graphics-symbol" aria-roledescription="title" aria-label="Title text 'kernel size 512'" pointer-events="none"><text text-anchor="middle" transform="translate(0,11)" font-family="sans-serif" font-size="14px" fill="#000" opacity="1">kernel size 512</text></g></g><path class="foreground" aria-hidden="true" d="" pointer-events="none" display="none"/></g></g></g><path class="foreground" aria-hidden="true" d="" display="none"/></g></g><g class="mark-group role-scope cell" role="graphics-object" aria-roledescription="group mark container"><g transform="translate(0,0)"><path class="background" aria-hidden="true" d="M0.5,0.5h300v300h-300Z" stroke="#ddd"/><g><g class="mark-group role-axis" aria-hidden="true"><g transform="translate(0.5,300.5)"><path class="background" aria-hidden="true" d="M0,0h0v0h0Z" pointer-events="none"/><g><g class="mark-rule role-axis-grid" pointer-events="none"><line transform="translate(0,0)" x2="0" y2="-300" stroke="#ddd" stroke-width="1" opacity="1"/><line transform="translate(27,0)" x2="0" y2="-300" stroke="#ddd" stroke-width="1" opacity="1"/><line transform="translate(55,0)" x2="0" y2="-300" stroke="#ddd" stroke-width="1" opacity="1"/><line transform="translate(82,0)" x2="0" y2="-300" stroke="#ddd" stroke-width="1" opacity="1"/><line transform="translate(109,0)" x2="0" y2="-300" stroke="#ddd" stroke-width="1" opacity="1"/><line transform="translate(136,0)" x2="0" y2="-300" stroke="#ddd" stroke-width="1" opacity="1"/><line transform="translate(164,0)" x2="0" y2="-300" stroke="#ddd" stroke-width="1" opacity="1"/><line transform="translate(191,0)" x2="0" y2="-300" stroke="#ddd" stroke-width="1" opacity="1"/><line transform="translate(218,0)" x2="0" y2="-300" stroke="#ddd" stroke-width="1" opacity="1"/><line transform="translate(245,0)" x2="0" y2="-300" stroke="#ddd" stroke-width="1" opacity="1"/><line transform="translate(273,0)" x2="0" y2="-300" stroke="#ddd" stroke-width="1" opacity="1"/><line transform="translate(300,0)" x2="0" y2="-300" stroke="#ddd" stroke-width="1" opacity="1"/></g></g><path class="foreground" aria-hidden="true" d="" pointer-events="none" display="none"/></g></g><g class="mark-group role-axis" role="graphics-symbol" aria-roledescription="axis" aria-label="X-axis titled 'mean execution time in µs' for a linear scale with values from 0 to 220"><g transform="translate(0.5,300.5)"><path class="background" aria-hidden="true" d="M0,0h0v0h0Z" pointer-events="none"/><g><g class="mark-rule role-axis-tick" pointer-events="none"><line transform="translate(0,0)" x2="0" y2="5" stroke="#888" stroke-width="1" opacity="1"/><line transform="translate(27,0)" x2="0" y2="5" stroke="#888" stroke-width="1" opacity="1"/><line transform="translate(55,0)" x2="0" y2="5" stroke="#888" stroke-width="1" opacity="1"/><line transform="translate(82,0)" x2="0" y2="5" stroke="#888" stroke-width="1" opacity="1"/><line transform="translate(109,0)" x2="0" y2="5" stroke="#888" stroke-width="1" opacity="1"/><line transform="translate(136,0)" x2="0" y2="5" stroke="#888" stroke-width="1" opacity="1"/><line transform="translate(164,0)" x2="0" y2="5" stroke="#888" stroke-width="1" opacity="1"/><line transform="translate(191,0)" x2="0" y2="5" stroke="#888" stroke-width="1" opacity="1"/><line transform="translate(218,0)" x2="0" y2="5" stroke="#888" stroke-width="1" opacity="1"/><line transform="translate(245,0)" x2="0" y2="5" stroke="#888" stroke-width="1" opacity="1"/><line transform="translate(273,0)" x2="0" y2="5" stroke="#888" stroke-width="1" opacity="1"/><line transform="translate(300,0)" x2="0" y2="5" stroke="#888" stroke-width="1" opacity="1"/></g><g class="mark-text role-axis-label" pointer-events="none"><text text-anchor="start" transform="translate(0,15)" font-family="sans-serif" font-size="10px" fill="#000" opacity="1">0</text><text text-anchor="middle" transform="translate(27.272727272727273,15)" font-family="sans-serif" font-size="10px" fill="#000" opacity="0">20</text><text text-anchor="middle" transform="translate(54.54545454545455,15)" font-family="sans-serif" font-size="10px" fill="#000" opacity="1">40</text><text text-anchor="middle" transform="translate(81.81818181818181,15)" font-family="sans-serif" font-size="10px" fill="#000" opacity="0">60</text><text text-anchor="middle" transform="translate(109.0909090909091,15)" font-family="sans-serif" font-size="10px" fill="#000" opacity="1">80</text><text text-anchor="middle" transform="translate(136.36363636363635,15)" font-family="sans-serif" font-size="10px" fill="#000" opacity="0">100</text><text text-anchor="middle" transform="translate(163.63636363636363,15)" font-family="sans-serif" font-size="10px" fill="#000" opacity="1">120</text><text text-anchor="middle" transform="translate(190.9090909090909,15)" font-family="sans-serif" font-size="10px" fill="#000" opacity="0">140</text><text text-anchor="middle" transform="translate(218.1818181818182,15)" font-family="sans-serif" font-size="10px" fill="#000" opacity="1">160</text><text text-anchor="middle" transform="translate(245.45454545454547,15)" font-family="sans-serif" font-size="10px" fill="#000" opacity="0">180</text><text text-anchor="middle" transform="translate(272.7272727272727,15)" font-family="sans-serif" font-size="10px" fill="#000" opacity="1">200</text><text text-anchor="end" transform="translate(300,15)" font-family="sans-serif" font-size="10px" fill="#000" opacity="0">220</text></g><g class="mark-rule role-axis-domain" pointer-events="none"><line transform="translate(0,0)" x2="300" y2="0" stroke="#888" stroke-width="1" opacity="1"/></g><g class="mark-text role-axis-title" pointer-events="none"><text text-anchor="middle" transform="translate(150,30)" font-family="sans-serif" font-size="11px" font-weight="bold" fill="#000" opacity="1">mean execution time in µs</text></g></g><path class="foreground" aria-hidden="true" d="" pointer-events="none" display="none"/></g></g><g class="mark-group role-axis" role="graphics-symbol" aria-roledescription="axis" aria-label="Y-axis titled 'algorithm' for a discrete scale with 15 values: (JohT) inputPerKernelValue Transposed, (JohT) inputPerKernelValue Transposed LoopFission, (JohT) inputPerKernelValue Transposed LoopFissionIndexArithmetic, (JohT) inputPerKernelValue Transposed OuterLoopUnrolled, (JohT) inputPerKernelValue Transposed Inner&amp;OuterLoopUnrolled, ending with (wilczek) Outer-Loop Vectorization"><g transform="translate(0.5,0.5)"><path class="background" aria-hidden="true" d="M0,0h0v0h0Z" pointer-events="none"/><g><g class="mark-rule role-axis-tick" pointer-events="none"><line transform="translate(0,10)" x2="-5" y2="0" stroke="#888" stroke-width="1" opacity="1"/><line transform="translate(0,30)" x2="-5" y2="0" stroke="#888" stroke-width="1" opacity="1"/><line transform="translate(0,50)" x2="-5" y2="0" stroke="#888" stroke-width="1" opacity="1"/><line transform="translate(0,70)" x2="-5" y2="0" stroke="#888" stroke-width="1" opacity="1"/><line transform="translate(0,90)" x2="-5" y2="0" stroke="#888" stroke-width="1" opacity="1"/><line transform="translate(0,110)" x2="-5" y2="0" stroke="#888" stroke-width="1" opacity="1"/><line transform="translate(0,130)" x2="-5" y2="0" stroke="#888" stroke-width="1" opacity="1"/><line transform="translate(0,150)" x2="-5" y2="0" stroke="#888" stroke-width="1" opacity="1"/><line transform="translate(0,170)" x2="-5" y2="0" stroke="#888" stroke-width="1" opacity="1"/><line transform="translate(0,190)" x2="-5" y2="0" stroke="#888" stroke-width="1" opacity="1"/><line transform="translate(0,210)" x2="-5" y2="0" stroke="#888" stroke-width="1" opacity="1"/><line transform="translate(0,230)" x2="-5" y2="0" stroke="#888" stroke-width="1" opacity="1"/><line transform="translate(0,250)" x2="-5" y2="0" stroke="#888" stroke-width="1" opacity="1"/><line transform="translate(0,270)" x2="-5" y2="0" stroke="#888" stroke-width="1" opacity="1"/><line transform="translate(0,290)" x2="-5" y2="0" stroke="#888" stroke-width="1" opacity="1"/></g><g class="mark-text role-axis-label" pointer-events="none"><text text-anchor="end" transform="translate(-7,12.5)" font-family="sans-serif" font-size="10px" fill="#000" opacity="1">(JohT) inputPerKernelValue Transposed</text><text text-anchor="end" transform="translate(-7,32.5)" font-family="sans-serif" font-size="10px" fill="#000" opacity="1">(JohT) inputPerKernelValue Transposed LoopFission</text><text text-anchor="end" transform="translate(-7,52.5)" font-family="sans-serif" font-size="10px" fill="#000" opacity="1">(JohT) inputPerKernelValue Transposed LoopFissionIndexArithme…</text><text text-anchor="end" transform="translate(-7,72.5)" font-family="sans-serif" font-size="10px" fill="#000" opacity="1">(JohT) inputPerKernelValue Transposed OuterLoopUnrolled</text><text text-anchor="end" transform="translate(-7,92.5)" font-family="sans-serif" font-size="10px" fill="#000" opacity="1">(JohT) inputPerKernelValue Transposed Inner&amp;OuterLoopUnrolled</text><text text-anchor="end" transform="translate(-7,112.5)" font-family="sans-serif" font-size="10px" fill="#000" opacity="1">(wilczek) Inner-Loop Vectorization</text><text text-anchor="end" transform="translate(-7,132.5)" font-family="sans-serif" font-size="10px" fill="#000" opacity="1">(JohT) inputPerKernelValue Transposed InnerLoopUnrolled</text><text text-anchor="end" transform="translate(-7,152.5)" font-family="sans-serif" font-size="10px" fill="#000" opacity="1">(wilczek) Outer- and Inner-Loop Vectorization</text><text text-anchor="end" transform="translate(-7,172.5)" font-family="sans-serif" font-size="10px" fill="#000" opacity="1">(matlab-like) conv 'valid' shape pre padded</text><text text-anchor="end" transform="translate(-7,192.5)" font-family="sans-serif" font-size="10px" fill="#000" opacity="1">(matlab-like) conv 'full' shape</text><text text-anchor="end" transform="translate(-7,212.5)" font-family="sans-serif" font-size="10px" fill="#000" opacity="1">(wilczek) Single</text><text text-anchor="end" transform="translate(-7,232.5)" font-family="sans-serif" font-size="10px" fill="#000" opacity="1">(JohT) kernelPerInputValue Transposed</text><text text-anchor="end" transform="translate(-7,252.5)" font-family="sans-serif" font-size="10px" fill="#000" opacity="1">(JohT) kernelPerInputValue Transposed LoopFission</text><text text-anchor="end" transform="translate(-7,272.5)" font-family="sans-serif" font-size="10px" fill="#000" opacity="1">(chaowang15) convolve1D</text><text text-anchor="end" transform="translate(-7,292.5)" font-family="sans-serif" font-size="10px" fill="#000" opacity="1">(wilczek) Outer-Loop Vectorization</text></g><g class="mark-rule role-axis-domain" pointer-events="none"><line transform="translate(0,0)" x2="0" y2="300" stroke="#888" stroke-width="1" opacity="1"/></g><g class="mark-text role-axis-title" pointer-events="none"><text text-anchor="middle" transform="translate(-320,150) rotate(-90) translate(0,-2)" font-family="sans-serif" font-size="11px" font-weight="bold" fill="#000" opacity="1">algorithm</text></g></g><path class="foreground" aria-hidden="true" d="" pointer-events="none" display="none"/></g></g><g class="mark-rect role-mark child_layer_0_marks" role="graphics-object" aria-roledescription="rect mark container"><path aria-label="mean execution time in µs: 130; algorithm: (JohT) kernelPerInputValue Transposed" role="graphics-symbol" aria-roledescription="bar" d="M0,221.9L173.27272727272728,221.9C175.48038737070328,221.9,177.27272727272728,223.692339902024,177.27272727272728,225.9L177.27272727272728,234.1C177.27272727272728,236.307660097976,175.48038737070328,238.1,173.27272727272728,238.1L0,238.1C0,238.1,0,238.1,0,238.1L0,221.9C0,221.9,0,221.9,0,221.9Z" fill="#4c78a8"/><path aria-label="mean execution time in µs: 47; algorithm: (JohT) inputPerKernelValue Transposed" role="graphics-symbol" aria-roledescription="bar" d="M0,1.9L60.09090909090909,1.9C62.2985691888851,1.9,64.0909090909091,3.692339902024,64.0909090909091,5.9L64.0909090909091,14.099999999999998C64.0909090909091,16.307660097975997,62.2985691888851,18.099999999999998,60.09090909090909,18.099999999999998L0,18.099999999999998C0,18.099999999999998,0,18.099999999999998,0,18.099999999999998L0,1.9C0,1.9,0,1.9,0,1.9Z" fill="#4c78a8"/><path aria-label="mean execution time in µs: 99; algorithm: (JohT) inputPerKernelValue Transposed InnerLoopUnrolled" role="graphics-symbol" aria-roledescription="bar" d="M0,121.9L131,121.9C133.207660097976,121.9,135,123.692339902024,135,125.9L135,134.1C135,136.307660097976,133.207660097976,138.1,131,138.1L0,138.1C0,138.1,0,138.1,0,138.1L0,121.9C0,121.9,0,121.9,0,121.9Z" fill="#4c78a8"/><path aria-label="mean execution time in µs: 71; algorithm: (JohT) inputPerKernelValue Transposed OuterLoopUnrolled" role="graphics-symbol" aria-roledescription="bar" d="M0,61.9L92.81818181818183,61.9C95.02584191615783,61.9,96.81818181818183,63.692339902023996,96.81818181818183,65.9L96.81818181818183,74.1C96.81818181818183,76.307660097976,95.02584191615783,78.1,92.81818181818183,78.1L0,78.1C0,78.1,0,78.1,0,78.1L0,61.9C0,61.9,0,61.9,0,61.9Z" fill="#4c78a8"/><path aria-label="mean execution time in µs: 95; algorithm: (JohT) inputPerKernelValue Transposed Inner&amp;OuterLoopUnrolled" role="graphics-symbol" aria-roledescription="bar" d="M0,81.9L125.54545454545456,81.9C127.75311464343056,81.9,129.54545454545456,83.692339902024,129.54545454545456,85.9L129.54545454545456,94.10000000000001C129.54545454545456,96.30766009797601,127.75311464343056,98.10000000000001,125.54545454545456,98.10000000000001L0,98.10000000000001C0,98.10000000000001,0,98.10000000000001,0,98.10000000000001L0,81.9C0,81.9,0,81.9,0,81.9Z" fill="#4c78a8"/><path aria-label="mean execution time in µs: 64; algorithm: (JohT) inputPerKernelValue Transposed LoopFission" role="graphics-symbol" aria-roledescription="bar" d="M0,21.9L83.27272727272727,21.9C85.48038737070327,21.9,87.27272727272727,23.692339902024,87.27272727272727,25.9L87.27272727272727,34.099999999999994C87.27272727272727,36.307660097976,85.48038737070327,38.099999999999994,83.27272727272727,38.099999999999994L0,38.099999999999994C0,38.099999999999994,0,38.099999999999994,0,38.099999999999994L0,21.9C0,21.9,0,21.9,0,21.9Z" fill="#4c78a8"/><path aria-label="mean execution time in µs: 64; algorithm: (JohT) inputPerKernelValue Transposed LoopFissionIndexArithmetic" role="graphics-symbol" aria-roledescription="bar" d="M0,41.9L83.27272727272727,41.9C85.48038737070327,41.9,87.27272727272727,43.692339902023996,87.27272727272727,45.9L87.27272727272727,54.099999999999994C87.27272727272727,56.307660097976,85.48038737070327,58.099999999999994,83.27272727272727,58.099999999999994L0,58.099999999999994C0,58.099999999999994,0,58.099999999999994,0,58.099999999999994L0,41.9C0,41.9,0,41.9,0,41.9Z" fill="#4c78a8"/><path aria-label="mean execution time in µs: 131; algorithm: (JohT) kernelPerInputValue Transposed LoopFission" role="graphics-symbol" aria-roledescription="bar" d="M0,241.9L174.63636363636363,241.9C176.84402373433963,241.9,178.63636363636363,243.692339902024,178.63636363636363,245.9L178.63636363636363,254.10000000000002C178.63636363636363,256.307660097976,176.84402373433963,258.1,174.63636363636363,258.1L0,258.1C0,258.1,0,258.1,0,258.1L0,241.9C0,241.9,0,241.9,0,241.9Z" fill="#4c78a8"/><path aria-label="mean execution time in µs: 129; algorithm: (matlab-like) conv 'full' shape" role="graphics-symbol" aria-roledescription="bar" d="M0,181.9L171.9090909090909,181.9C174.1167510070669,181.9,175.9090909090909,183.692339902024,175.9090909090909,185.9L175.9090909090909,194.1C175.9090909090909,196.307660097976,174.1167510070669,198.1,171.9090909090909,198.1L0,198.1C0,198.1,0,198.1,0,198.1L0,181.9C0,181.9,0,181.9,0,181.9Z" fill="#4c78a8"/><path aria-label="mean execution time in µs: 125; algorithm: (matlab-like) conv 'valid' shape pre padded" role="graphics-symbol" aria-roledescription="bar" d="M0,161.9L166.45454545454547,161.9C168.66220555252147,161.9,170.45454545454547,163.692339902024,170.45454545454547,165.9L170.45454545454547,174.1C170.45454545454547,176.307660097976,168.66220555252147,178.1,166.45454545454547,178.1L0,178.1C0,178.1,0,178.1,0,178.1L0,161.9C0,161.9,0,161.9,0,161.9Z" fill="#4c78a8"/><path aria-label="mean execution time in µs: 129; algorithm: (wilczek) Single" role="graphics-symbol" aria-roledescription="bar" d="M0,201.9L171.9090909090909,201.9C174.1167510070669,201.9,175.9090909090909,203.692339902024,175.9090909090909,205.9L175.9090909090909,214.1C175.9090909090909,216.307660097976,174.1167510070669,218.1,171.9090909090909,218.1L0,218.1C0,218.1,0,218.1,0,218.1L0,201.9C0,201.9,0,201.9,0,201.9Z" fill="#4c78a8"/><path aria-label="mean execution time in µs: 97; algorithm: (wilczek) Inner-Loop Vectorization" role="graphics-symbol" aria-roledescription="bar" d="M0,101.9L128.27272727272728,101.9C130.48038737070328,101.9,132.27272727272728,103.692339902024,132.27272727272728,105.9L132.27272727272728,114.10000000000001C132.27272727272728,116.30766009797601,130.48038737070328,118.10000000000001,128.27272727272728,118.10000000000001L0,118.10000000000001C0,118.10000000000001,0,118.10000000000001,0,118.10000000000001L0,101.9C0,101.9,0,101.9,0,101.9Z" fill="#4c78a8"/><path aria-label="mean execution time in µs: 202; algorithm: (wilczek) Outer-Loop Vectorization" role="graphics-symbol" aria-roledescription="bar" d="M0,281.9L271.45454545454544,281.9C273.6622055525214,281.9,275.45454545454544,283.692339902024,275.45454545454544,285.9L275.45454545454544,294.09999999999997C275.45454545454544,296.30766009797594,273.6622055525214,298.09999999999997,271.45454545454544,298.09999999999997L0,298.09999999999997C0,298.09999999999997,0,298.09999999999997,0,298.09999999999997L0,281.9C0,281.9,0,281.9,0,281.9Z" fill="#4c78a8"/><path aria-label="mean execution time in µs: 113; algorithm: (wilczek) Outer- and Inner-Loop Vectorization" role="graphics-symbol" aria-roledescription="bar" d="M0,141.9L150.0909090909091,141.9C152.2985691888851,141.9,154.0909090909091,143.692339902024,154.0909090909091,145.9L154.0909090909091,154.1C154.0909090909091,156.307660097976,152.2985691888851,158.1,150.0909090909091,158.1L0,158.1C0,158.1,0,158.1,0,158.1L0,141.9C0,141.9,0,141.9,0,141.9Z" fill="#4c78a8"/><path aria-label="mean execution time in µs: 169; algorithm: (chaowang15) convolve1D" role="graphics-symbol" aria-roledescription="bar" d="M0,261.9L226.45454545454547,261.9C228.66220555252147,261.9,230.45454545454547,263.692339902024,230.45454545454547,265.9L230.45454545454547,274.09999999999997C230.45454545454547,276.30766009797594,228.66220555252147,278.09999999999997,226.45454545454547,278.09999999999997L0,278.09999999999997C0,278.09999999999997,0,278.09999999999997,0,278.09999999999997L0,261.9C0,261.9,0,261.9,0,261.9Z" fill="#4c78a8"/></g><g class="mark-text role-mark child_layer_1_marks" role="graphics-object" aria-roledescription="text mark container"><text aria-label="mean execution time in µs: 130; algorithm: (JohT) kernelPerInputValue Transposed; MeanExecutionTime: 130" role="graphics-symbol" aria-roledescription="text mark" text-anchor="start" transform="translate(181.27272727272728,233)" font-family="sans-serif" font-size="9px" fill="black">130</text><text aria-label="mean execution time in µs: 47; algorithm: (JohT) inputPerKernelValue Transposed; MeanExecutionTime: 47" role="graphics-symbol" aria-roledescription="text mark" text-anchor="start" transform="translate(68.0909090909091,13)" font-family="sans-serif" font-size="9px" fill="black">47</text><text aria-label="mean execution time in µs: 99; algorithm: (JohT) inputPerKernelValue Transposed InnerLoopUnrolled; MeanExecutionTime: 99" role="graphics-symbol" aria-roledescription="text mark" text-anchor="start" transform="translate(139,133)" font-family="sans-serif" font-size="9px" fill="black">99</text><text aria-label="mean execution time in µs: 71; algorithm: (JohT) inputPerKernelValue Transposed OuterLoopUnrolled; MeanExecutionTime: 71" role="graphics-symbol" aria-roledescription="text mark" text-anchor="start" transform="translate(100.81818181818183,73)" font-family="sans-serif" font-size="9px" fill="black">71</text><text aria-label="mean execution time in µs: 95; algorithm: (JohT) inputPerKernelValue Transposed Inner&amp;OuterLoopUnrolled; MeanExecutionTime: 95" role="graphics-symbol" aria-roledescription="text mark" text-anchor="start" transform="translate(133.54545454545456,93)" font-family="sans-serif" font-size="9px" fill="black">95</text><text aria-label="mean execution time in µs: 64; algorithm: (JohT) inputPerKernelValue Transposed LoopFission; MeanExecutionTime: 64" role="graphics-symbol" aria-roledescription="text mark" text-anchor="start" transform="translate(91.27272727272727,33)" font-family="sans-serif" font-size="9px" fill="black">64</text><text aria-label="mean execution time in µs: 64; algorithm: (JohT) inputPerKernelValue Transposed LoopFissionIndexArithmetic; MeanExecutionTime: 64" role="graphics-symbol" aria-roledescription="text mark" text-anchor="start" transform="translate(91.27272727272727,53)" font-family="sans-serif" font-size="9px" fill="black">64</text><text aria-label="mean execution time in µs: 131; algorithm: (JohT) kernelPerInputValue Transposed LoopFission; MeanExecutionTime: 131" role="graphics-symbol" aria-roledescription="text mark" text-anchor="start" transform="translate(182.63636363636363,253)" font-family="sans-serif" font-size="9px" fill="black">131</text><text aria-label="mean execution time in µs: 129; algorithm: (matlab-like) conv 'full' shape; MeanExecutionTime: 129" role="graphics-symbol" aria-roledescription="text mark" text-anchor="start" transform="translate(179.9090909090909,193)" font-family="sans-serif" font-size="9px" fill="black">129</text><text aria-label="mean execution time in µs: 125; algorithm: (matlab-like) conv 'valid' shape pre padded; MeanExecutionTime: 125" role="graphics-symbol" aria-roledescription="text mark" text-anchor="start" transform="translate(174.45454545454547,173)" font-family="sans-serif" font-size="9px" fill="black">125</text><text aria-label="mean execution time in µs: 129; algorithm: (wilczek) Single; MeanExecutionTime: 129" role="graphics-symbol" aria-roledescription="text mark" text-anchor="start" transform="translate(179.9090909090909,213)" font-family="sans-serif" font-size="9px" fill="black">129</text><text aria-label="mean execution time in µs: 97; algorithm: (wilczek) Inner-Loop Vectorization; MeanExecutionTime: 97" role="graphics-symbol" aria-roledescription="text mark" text-anchor="start" transform="translate(136.27272727272728,113)" font-family="sans-serif" font-size="9px" fill="black">97</text><text aria-label="mean execution time in µs: 202; algorithm: (wilczek) Outer-Loop Vectorization; MeanExecutionTime: 202" role="graphics-symbol" aria-roledescription="text mark" text-anchor="start" transform="translate(279.45454545454544,293)" font-family="sans-serif" font-size="9px" fill="black">202</text><text aria-label="mean execution time in µs: 113; algorithm: (wilczek) Outer- and Inner-Loop Vectorization; MeanExecutionTime: 113" role="graphics-symbol" aria-roledescription="text mark" text-anchor="start" transform="translate(158.0909090909091,153)" font-family="sans-serif" font-size="9px" fill="black">113</text><text aria-label="mean execution time in µs: 169; algorithm: (chaowang15) convolve1D; MeanExecutionTime: 169" role="graphics-symbol" aria-roledescription="text mark" text-anchor="start" transform="translate(234.45454545454547,273)" font-family="sans-serif" font-size="9px" fill="black">169</text></g></g><path class="foreground" aria-hidden="true" d="" display="none"/></g><g transform="translate(826,0)"><path class="background" aria-hidden="true" d="M0.5,0.5h300v300h-300Z" stroke="#ddd"/><g><g class="mark-group role-axis" aria-hidden="true"><g transform="translate(0.5,300.5)"><path class="background" aria-hidden="true" d="M0,0h0v0h0Z" pointer-events="none"/><g><g class="mark-rule role-axis-grid" pointer-events="none"><line transform="translate(0,0)" x2="0" y2="-300" stroke="#ddd" stroke-width="1" opacity="1"/><line transform="translate(33,0)" x2="0" y2="-300" stroke="#ddd" stroke-width="1" opacity="1"/><line transform="translate(67,0)" x2="0" y2="-300" stroke="#ddd" stroke-width="1" opacity="1"/><line transform="translate(100,0)" x2="0" y2="-300" stroke="#ddd" stroke-width="1" opacity="1"/><line transform="translate(133,0)" x2="0" y2="-300" stroke="#ddd" stroke-width="1" opacity="1"/><line transform="translate(167,0)" x2="0" y2="-300" stroke="#ddd" stroke-width="1" opacity="1"/><line transform="translate(200,0)" x2="0" y2="-300" stroke="#ddd" stroke-width="1" opacity="1"/><line transform="translate(233,0)" x2="0" y2="-300" stroke="#ddd" stroke-width="1" opacity="1"/><line transform="translate(267,0)" x2="0" y2="-300" stroke="#ddd" stroke-width="1" opacity="1"/><line transform="translate(300,0)" x2="0" y2="-300" stroke="#ddd" stroke-width="1" opacity="1"/></g></g><path class="foreground" aria-hidden="true" d="" pointer-events="none" display="none"/></g></g><g class="mark-group role-axis" role="graphics-symbol" aria-roledescription="axis" aria-label="X-axis titled 'mean execution time in µs' for a linear scale with values from 0 to 9,000"><g transform="translate(0.5,300.5)"><path class="background" aria-hidden="true" d="M0,0h0v0h0Z" pointer-events="none"/><g><g class="mark-rule role-axis-tick" pointer-events="none"><line transform="translate(0,0)" x2="0" y2="5" stroke="#888" stroke-width="1" opacity="1"/><line transform="translate(33,0)" x2="0" y2="5" stroke="#888" stroke-width="1" opacity="1"/><line transform="translate(67,0)" x2="0" y2="5" stroke="#888" stroke-width="1" opacity="1"/><line transform="translate(100,0)" x2="0" y2="5" stroke="#888" stroke-width="1" opacity="1"/><line transform="translate(133,0)" x2="0" y2="5" stroke="#888" stroke-width="1" opacity="1"/><line transform="translate(167,0)" x2="0" y2="5" stroke="#888" stroke-width="1" opacity="1"/><line transform="translate(200,0)" x2="0" y2="5" stroke="#888" stroke-width="1" opacity="1"/><line transform="translate(233,0)" x2="0" y2="5" stroke="#888" stroke-width="1" opacity="1"/><line transform="translate(267,0)" x2="0" y2="5" stroke="#888" stroke-width="1" opacity="1"/><line transform="translate(300,0)" x2="0" y2="5" stroke="#888" stroke-width="1" opacity="1"/></g><g class="mark-text role-axis-label" pointer-events="none"><text text-anchor="start" transform="translate(0,15)" font-family="sans-serif" font-size="10px" fill="#000" opacity="1">0</text><text text-anchor="middle" transform="translate(33.33333333333333,15)" font-family="sans-serif" font-size="10px" fill="#000" opacity="0">1,000</text><text text-anchor="middle" transform="translate(66.66666666666666,15)" font-family="sans-serif" font-size="10px" fill="#000" opacity="1">2,000</text><text text-anchor="middle" transform="translate(100,15)" font-family="sans-serif" font-size="10px" fill="#000" opacity="0">3,000</text><text text-anchor="middle" transform="translate(133.33333333333331,15)" font-family="sans-serif" font-size="10px" fill="#000" opacity="1">4,000</text><text text-anchor="middle" transform="translate(166.66666666666669,15)" font-family="sans-serif" font-size="10px" fill="#000" opacity="0">5,000</text><text text-anchor="middle" transform="translate(200,15)" font-family="sans-serif" font-size="10px" fill="#000" opacity="1">6,000</text><text text-anchor="middle" transform="translate(233.33333333333334,15)" font-family="sans-serif" font-size="10px" fill="#000" opacity="0">7,000</text><text text-anchor="middle" transform="translate(266.66666666666663,15)" font-family="sans-serif" font-size="10px" fill="#000" opacity="1">8,000</text><text text-anchor="end" transform="translate(300,15)" font-family="sans-serif" font-size="10px" fill="#000" opacity="0">9,000</text></g><g class="mark-rule role-axis-domain" pointer-events="none"><line transform="translate(0,0)" x2="300" y2="0" stroke="#888" stroke-width="1" opacity="1"/></g><g class="mark-text role-axis-title" pointer-events="none"><text text-anchor="middle" transform="translate(150,30)" font-family="sans-serif" font-size="11px" font-weight="bold" fill="#000" opacity="1">mean execution time in µs</text></g></g><path class="foreground" aria-hidden="true" d="" pointer-events="none" display="none"/></g></g><g class="mark-group role-axis" role="graphics-symbol" aria-roledescription="axis" aria-label="Y-axis titled 'algorithm' for a discrete scale with 15 values: (JohT) inputPerKernelValue Transposed, (JohT) kernelPerInputValue Transposed, (JohT) inputPerKernelValue Transposed LoopFission, (JohT) inputPerKernelValue Transposed LoopFissionIndexArithmetic, (JohT) inputPerKernelValue Transposed OuterLoopUnrolled, ending with (wilczek) Outer-Loop Vectorization"><g transform="translate(0.5,0.5)"><path class="background" aria-hidden="true" d="M0,0h0v0h0Z" pointer-events="none"/><g><g class="mark-rule role-axis-tick" pointer-events="none"><line transform="translate(0,10)" x2="-5" y2="0" stroke="#888" stroke-width="1" opacity="1"/><line transform="translate(0,30)" x2="-5" y2="0" stroke="#888" stroke-width="1" opacity="1"/><line transform="translate(0,50)" x2="-5" y2="0" stroke="#888" stroke-width="1" opacity="1"/><line transform="translate(0,70)" x2="-5" y2="0" stroke="#888" stroke-width="1" opacity="1"/><line transform="translate(0,90)" x2="-5" y2="0" stroke="#888" stroke-width="1" opacity="1"/><line transform="translate(0,110)" x2="-5" y2="0" stroke="#888" stroke-width="1" opacity="1"/><line transform="translate(0,130)" x2="-5" y2="0" stroke="#888" stroke-width="1" opacity="1"/><line transform="translate(0,150)" x2="-5" y2="0" stroke="#888" stroke-width="1" opacity="1"/><line transform="translate(0,170)" x2="-5" y2="0" stroke="#888" stroke-width="1" opacity="1"/><line transform="translate(0,190)" x2="-5" y2="0" stroke="#888" stroke-width="1" opacity="1"/><line transform="translate(0,210)" x2="-5" y2="0" stroke="#888" stroke-width="1" opacity="1"/><line transform="translate(0,230)" x2="-5" y2="0" stroke="#888" stroke-width="1" opacity="1"/><line transform="translate(0,250)" x2="-5" y2="0" stroke="#888" stroke-width="1" opacity="1"/><line transform="translate(0,270)" x2="-5" y2="0" stroke="#888" stroke-width="1" opacity="1"/><line transform="translate(0,290)" x2="-5" y2="0" stroke="#888" stroke-width="1" opacity="1"/></g><g class="mark-text role-axis-label" pointer-events="none"><text text-anchor="end" transform="translate(-7,12.5)" font-family="sans-serif" font-size="10px" fill="#000" opacity="1">(JohT) inputPerKernelValue Transposed</text><text text-anchor="end" transform="translate(-7,32.5)" font-family="sans-serif" font-size="10px" fill="#000" opacity="1">(JohT) kernelPerInputValue Transposed</text><text text-anchor="end" transform="translate(-7,52.5)" font-family="sans-serif" font-size="10px" fill="#000" opacity="1">(JohT) inputPerKernelValue Transposed LoopFission</text><text text-anchor="end" transform="translate(-7,72.5)" font-family="sans-serif" font-size="10px" fill="#000" opacity="1">(JohT) inputPerKernelValue Transposed LoopFissionIndexArithme…</text><text text-anchor="end" transform="translate(-7,92.5)" font-family="sans-serif" font-size="10px" fill="#000" opacity="1">(JohT) inputPerKernelValue Transposed OuterLoopUnrolled</text><text text-anchor="end" transform="translate(-7,112.5)" font-family="sans-serif" font-size="10px" fill="#000" opacity="1">(JohT) kernelPerInputValue Transposed LoopFission</text><text text-anchor="end" transform="translate(-7,132.5)" font-family="sans-serif" font-size="10px" fill="#000" opacity="1">(wilczek) Inner-Loop Vectorization</text><text text-anchor="end" transform="translate(-7,152.5)" font-family="sans-serif" font-size="10px" fill="#000" opacity="1">(JohT) inputPerKernelValue Transposed Inner&amp;OuterLoopUnrolled</text><text text-anchor="end" transform="translate(-7,172.5)" font-family="sans-serif" font-size="10px" fill="#000" opacity="1">(JohT) inputPerKernelValue Transposed InnerLoopUnrolled</text><text text-anchor="end" transform="translate(-7,192.5)" font-family="sans-serif" font-size="10px" fill="#000" opacity="1">(wilczek) Outer- and Inner-Loop Vectorization</text><text text-anchor="end" transform="translate(-7,212.5)" font-family="sans-serif" font-size="10px" fill="#000" opacity="1">(matlab-like) conv 'full' shape</text><text text-anchor="end" transform="translate(-7,232.5)" font-family="sans-serif" font-size="10px" fill="#000" opacity="1">(matlab-like) conv 'valid' shape pre padded</text><text text-anchor="end" transform="translate(-7,252.5)" font-family="sans-serif" font-size="10px" fill="#000" opacity="1">(chaowang15) convolve1D</text><text text-anchor="end" transform="translate(-7,272.5)" font-family="sans-serif" font-size="10px" fill="#000" opacity="1">(wilczek) Single</text><text text-anchor="end" transform="translate(-7,292.5)" font-family="sans-serif" font-size="10px" fill="#000" opacity="1">(wilczek) Outer-Loop Vectorization</text></g><g class="mark-rule role-axis-domain" pointer-events="none"><line transform="translate(0,0)" x2="0" y2="300" stroke="#888" stroke-width="1" opacity="1"/></g><g class="mark-text role-axis-title" pointer-events="none"><text text-anchor="middle" transform="translate(-320,150) rotate(-90) translate(0,-2)" font-family="sans-serif" font-size="11px" font-weight="bold" fill="#000" opacity="1">algorithm</text></g></g><path class="foreground" aria-hidden="true" d="" pointer-events="none" display="none"/></g></g><g class="mark-rect role-mark child_layer_0_marks" role="graphics-object" aria-roledescription="rect mark container"><path aria-label="mean execution time in µs: 1486; algorithm: (JohT) kernelPerInputValue Transposed" role="graphics-symbol" aria-roledescription="bar" d="M0,21.9L45.53333333333333,21.9C47.740993431309334,21.9,49.53333333333333,23.692339902024,49.53333333333333,25.9L49.53333333333333,34.099999999999994C49.53333333333333,36.307660097976,47.740993431309334,38.099999999999994,45.53333333333333,38.099999999999994L0,38.099999999999994C0,38.099999999999994,0,38.099999999999994,0,38.099999999999994L0,21.9C0,21.9,0,21.9,0,21.9Z" fill="#4c78a8"/><path aria-label="mean execution time in µs: 1242; algorithm: (JohT) inputPerKernelValue Transposed" role="graphics-symbol" aria-roledescription="bar" d="M0,1.9L37.400000000000006,1.9C39.60766009797601,1.9,41.400000000000006,3.692339902024,41.400000000000006,5.9L41.400000000000006,14.099999999999998C41.400000000000006,16.307660097975997,39.60766009797601,18.099999999999998,37.400000000000006,18.099999999999998L0,18.099999999999998C0,18.099999999999998,0,18.099999999999998,0,18.099999999999998L0,1.9C0,1.9,0,1.9,0,1.9Z" fill="#4c78a8"/><path aria-label="mean execution time in µs: 3003; algorithm: (JohT) inputPerKernelValue Transposed InnerLoopUnrolled" role="graphics-symbol" aria-roledescription="bar" d="M0,161.9L96.1,161.9C98.307660097976,161.9,100.1,163.692339902024,100.1,165.9L100.1,174.1C100.1,176.307660097976,98.307660097976,178.1,96.1,178.1L0,178.1C0,178.1,0,178.1,0,178.1L0,161.9C0,161.9,0,161.9,0,161.9Z" fill="#4c78a8"/><path aria-label="mean execution time in µs: 2177; algorithm: (JohT) inputPerKernelValue Transposed OuterLoopUnrolled" role="graphics-symbol" aria-roledescription="bar" d="M0,81.9L68.56666666666666,81.9C70.77432676464267,81.9,72.56666666666666,83.692339902024,72.56666666666666,85.9L72.56666666666666,94.10000000000001C72.56666666666666,96.30766009797601,70.77432676464267,98.10000000000001,68.56666666666666,98.10000000000001L0,98.10000000000001C0,98.10000000000001,0,98.10000000000001,0,98.10000000000001L0,81.9C0,81.9,0,81.9,0,81.9Z" fill="#4c78a8"/><path aria-label="mean execution time in µs: 3000; algorithm: (JohT) inputPerKernelValue Transposed Inner&amp;OuterLoopUnrolled" role="graphics-symbol" aria-roledescription="bar" d="M0,141.9L96,141.9C98.207660097976,141.9,100,143.692339902024,100,145.9L100,154.1C100,156.307660097976,98.207660097976,158.1,96,158.1L0,158.1C0,158.1,0,158.1,0,158.1L0,141.9C0,141.9,0,141.9,0,141.9Z" fill="#4c78a8"/><path aria-label="mean execution time in µs: 1658; algorithm: (JohT) inputPerKernelValue Transposed LoopFission" role="graphics-symbol" aria-roledescription="bar" d="M0,41.9L51.26666666666667,41.9C53.474326764642676,41.9,55.26666666666667,43.692339902023996,55.26666666666667,45.9L55.26666666666667,54.099999999999994C55.26666666666667,56.307660097976,53.474326764642676,58.099999999999994,51.26666666666667,58.099999999999994L0,58.099999999999994C0,58.099999999999994,0,58.099999999999994,0,58.099999999999994L0,41.9C0,41.9,0,41.9,0,41.9Z" fill="#4c78a8"/><path aria-label="mean execution time in µs: 1660; algorithm: (JohT) inputPerKernelValue Transposed LoopFissionIndexArithmetic" role="graphics-symbol" aria-roledescription="bar" d="M0,61.9L51.33333333333333,61.9C53.54099343130933,61.9,55.33333333333333,63.692339902023996,55.33333333333333,65.9L55.33333333333333,74.1C55.33333333333333,76.307660097976,53.54099343130933,78.1,51.33333333333333,78.1L0,78.1C0,78.1,0,78.1,0,78.1L0,61.9C0,61.9,0,61.9,0,61.9Z" fill="#4c78a8"/><path aria-label="mean execution time in µs: 2243; algorithm: (JohT) kernelPerInputValue Transposed LoopFission" role="graphics-symbol" aria-roledescription="bar" d="M0,101.9L70.76666666666667,101.9C72.97432676464267,101.9,74.76666666666667,103.692339902024,74.76666666666667,105.9L74.76666666666667,114.10000000000001C74.76666666666667,116.30766009797601,72.97432676464267,118.10000000000001,70.76666666666667,118.10000000000001L0,118.10000000000001C0,118.10000000000001,0,118.10000000000001,0,118.10000000000001L0,101.9C0,101.9,0,101.9,0,101.9Z" fill="#4c78a8"/><path aria-label="mean execution time in µs: 7491; algorithm: (matlab-like) conv 'full' shape" role="graphics-symbol" aria-roledescription="bar" d="M0,201.9L245.70000000000002,201.9C247.90766009797602,201.9,249.70000000000002,203.692339902024,249.70000000000002,205.9L249.70000000000002,214.1C249.70000000000002,216.307660097976,247.90766009797602,218.1,245.70000000000002,218.1L0,218.1C0,218.1,0,218.1,0,218.1L0,201.9C0,201.9,0,201.9,0,201.9Z" fill="#4c78a8"/><path aria-label="mean execution time in µs: 7737; algorithm: (matlab-like) conv 'valid' shape pre padded" role="graphics-symbol" aria-roledescription="bar" d="M0,221.9L253.90000000000003,221.9C256.107660097976,221.9,257.90000000000003,223.692339902024,257.90000000000003,225.9L257.90000000000003,234.1C257.90000000000003,236.307660097976,256.107660097976,238.1,253.90000000000003,238.1L0,238.1C0,238.1,0,238.1,0,238.1L0,221.9C0,221.9,0,221.9,0,221.9Z" fill="#4c78a8"/><path aria-label="mean execution time in µs: 7794; algorithm: (wilczek) Single" role="graphics-symbol" aria-roledescription="bar" d="M0,261.9L255.8,261.9C258.007660097976,261.9,259.8,263.692339902024,259.8,265.9L259.8,274.09999999999997C259.8,276.30766009797594,258.007660097976,278.09999999999997,255.8,278.09999999999997L0,278.09999999999997C0,278.09999999999997,0,278.09999999999997,0,278.09999999999997L0,261.9C0,261.9,0,261.9,0,261.9Z" fill="#4c78a8"/><path aria-label="mean execution time in µs: 2827; algorithm: (wilczek) Inner-Loop Vectorization" role="graphics-symbol" aria-roledescription="bar" d="M0,121.9L90.23333333333333,121.9C92.44099343130934,121.9,94.23333333333333,123.692339902024,94.23333333333333,125.9L94.23333333333333,134.1C94.23333333333333,136.307660097976,92.44099343130934,138.1,90.23333333333333,138.1L0,138.1C0,138.1,0,138.1,0,138.1L0,121.9C0,121.9,0,121.9,0,121.9Z" fill="#4c78a8"/><path aria-label="mean execution time in µs: 8034; algorithm: (wilczek) Outer-Loop Vectorization" role="graphics-symbol" aria-roledescription="bar" d="M0,281.9L263.8,281.9C266.007660097976,281.9,267.8,283.692339902024,267.8,285.9L267.8,294.09999999999997C267.8,296.30766009797594,266.007660097976,298.09999999999997,263.8,298.09999999999997L0,298.09999999999997C0,298.09999999999997,0,298.09999999999997,0,298.09999999999997L0,281.9C0,281.9,0,281.9,0,281.9Z" fill="#4c78a8"/><path aria-label="mean execution time in µs: 3346; algorithm: (wilczek) Outer- and Inner-Loop Vectorization" role="graphics-symbol" aria-roledescription="bar" d="M0,181.9L107.53333333333333,181.9C109.74099343130933,181.9,111.53333333333333,183.692339902024,111.53333333333333,185.9L111.53333333333333,194.1C111.53333333333333,196.307660097976,109.74099343130933,198.1,107.53333333333333,198.1L0,198.1C0,198.1,0,198.1,0,198.1L0,181.9C0,181.9,0,181.9,0,181.9Z" fill="#4c78a8"/><path aria-label="mean execution time in µs: 7757; algorithm: (chaowang15) convolve1D" role="graphics-symbol" aria-roledescription="bar" d="M0,241.9L254.56666666666666,241.9C256.77432676464264,241.9,258.56666666666666,243.692339902024,258.56666666666666,245.9L258.56666666666666,254.10000000000002C258.56666666666666,256.307660097976,256.77432676464264,258.1,254.56666666666666,258.1L0,258.1C0,258.1,0,258.1,0,258.1L0,241.9C0,241.9,0,241.9,0,241.9Z" fill="#4c78a8"/></g><g class="mark-text role-mark child_layer_1_marks" role="graphics-object" aria-roledescription="text mark container"><text aria-label="mean execution time in µs: 1486; algorithm: (JohT) kernelPerInputValue Transposed; MeanExecutionTime: 1486" role="graphics-symbol" aria-roledescription="text mark" text-anchor="start" transform="translate(53.53333333333333,33)" font-family="sans-serif" font-size="9px" fill="black">1486</text><text aria-label="mean execution time in µs: 1242; algorithm: (JohT) inputPerKernelValue Transposed; MeanExecutionTime: 1242" role="graphics-symbol" aria-roledescription="text mark" text-anchor="start" transform="translate(45.400000000000006,13)" font-family="sans-serif" font-size="9px" fill="black">1242</text><text aria-label="mean execution time in µs: 3003; algorithm: (JohT) inputPerKernelValue Transposed InnerLoopUnrolled; MeanExecutionTime: 3003" role="graphics-symbol" aria-roledescription="text mark" text-anchor="start" transform="translate(104.1,173)" font-family="sans-serif" font-size="9px" fill="black">3003</text><text aria-label="mean execution time in µs: 2177; algorithm: (JohT) inputPerKernelValue Transposed OuterLoopUnrolled; MeanExecutionTime: 2177" role="graphics-symbol" aria-roledescription="text mark" text-anchor="start" transform="translate(76.56666666666666,93)" font-family="sans-serif" font-size="9px" fill="black">2177</text><text aria-label="mean execution time in µs: 3000; algorithm: (JohT) inputPerKernelValue Transposed Inner&amp;OuterLoopUnrolled; MeanExecutionTime: 3000" role="graphics-symbol" aria-roledescription="text mark" text-anchor="start" transform="translate(104,153)" font-family="sans-serif" font-size="9px" fill="black">3000</text><text aria-label="mean execution time in µs: 1658; algorithm: (JohT) inputPerKernelValue Transposed LoopFission; MeanExecutionTime: 1658" role="graphics-symbol" aria-roledescription="text mark" text-anchor="start" transform="translate(59.26666666666667,53)" font-family="sans-serif" font-size="9px" fill="black">1658</text><text aria-label="mean execution time in µs: 1660; algorithm: (JohT) inputPerKernelValue Transposed LoopFissionIndexArithmetic; MeanExecutionTime: 1660" role="graphics-symbol" aria-roledescription="text mark" text-anchor="start" transform="translate(59.33333333333333,73)" font-family="sans-serif" font-size="9px" fill="black">1660</text><text aria-label="mean execution time in µs: 2243; algorithm: (JohT) kernelPerInputValue Transposed LoopFission; MeanExecutionTime: 2243" role="graphics-symbol" aria-roledescription="text mark" text-anchor="start" transform="translate(78.76666666666667,113)" font-family="sans-serif" font-size="9px" fill="black">2243</text><text aria-label="mean execution time in µs: 7491; algorithm: (matlab-like) conv 'full' shape; MeanExecutionTime: 7491" role="graphics-symbol" aria-roledescription="text mark" text-anchor="start" transform="translate(253.70000000000002,213)" font-family="sans-serif" font-size="9px" fill="black">7491</text><text aria-label="mean execution time in µs: 7737; algorithm: (matlab-like) conv 'valid' shape pre padded; MeanExecutionTime: 7737" role="graphics-symbol" aria-roledescription="text mark" text-anchor="start" transform="translate(261.90000000000003,233)" font-family="sans-serif" font-size="9px" fill="black">7737</text><text aria-label="mean execution time in µs: 7794; algorithm: (wilczek) Single; MeanExecutionTime: 7794" role="graphics-symbol" aria-roledescription="text mark" text-anchor="start" transform="translate(263.8,273)" font-family="sans-serif" font-size="9px" fill="black">7794</text><text aria-label="mean execution time in µs: 2827; algorithm: (wilczek) Inner-Loop Vectorization; MeanExecutionTime: 2827" role="graphics-symbol" aria-roledescription="text mark" text-anchor="start" transform="translate(98.23333333333333,133)" font-family="sans-serif" font-size="9px" fill="black">2827</text><text aria-label="mean execution time in µs: 8034; algorithm: (wilczek) Outer-Loop Vectorization; MeanExecutionTime: 8034" role="graphics-symbol" aria-roledescription="text mark" text-anchor="start" transform="translate(271.8,293)" font-family="sans-serif" font-size="9px" fill="black">8034</text><text aria-label="mean execution time in µs: 3346; algorithm: (wilczek) Outer- and Inner-Loop Vectorization; MeanExecutionTime: 3346" role="graphics-symbol" aria-roledescription="text mark" text-anchor="start" transform="translate(115.53333333333333,193)" font-family="sans-serif" font-size="9px" fill="black">3346</text><text aria-label="mean execution time in µs: 7757; algorithm: (chaowang15) convolve1D; MeanExecutionTime: 7757" role="graphics-symbol" aria-roledescription="text mark" text-anchor="start" transform="translate(262.56666666666666,253)" font-family="sans-serif" font-size="9px" fill="black">7757</text></g></g><path class="foreground" aria-hidden="true" d="" display="none"/></g></g></g><path class="foreground" aria-hidden="true" d="" display="none"/></g></g></g></svg>