<svg xmlns="http://www.w3.org/2000/svg" xmlns:xlink="http://www.w3.org/1999/xlink" version="1.1" class="marks" width="1484" height="404" viewBox="0 0 1484 404"><rect width="1484" height="404" fill="white"/><g fill="none" stroke-miterlimit="10" transform="translate(509,66)"><g class="mark-group role-frame root" role="graphics-object" aria-roledescription="group mark container"><g transform="translate(0,0)"><path class="background" aria-hidden="true" d="M0,0h0v0h0Z"/><g><g class="mark-group role-column-title column-title" role="graphics-object" aria-roledescription="group mark container"><g transform="translate(233,-35)"><path class="background" aria-hidden="true" d="M0,0h0v0h0Z"/><g><g class="mark-group role-title"><g transform="translate(0,-26)"><path class="background" aria-hidden="true" d="M0,0h0v0h0Z" pointer-events="none"/><g><g class="mark-text role-title-text" role="graphics-symbol" aria-roledescription="title" aria-label="Title text 'Convolution Benchmarks'" pointer-events="none"><text text-anchor="middle" transform="translate(0,13)" font-family="sans-serif" font-size="16px" font-weight="bold" fill="#000" opacity="1">Convolution Benchmarks</text></g></g><path class="foreground" aria-hidden="true" d="" pointer-events="none" display="none"/></g></g></g><path class="foreground" aria-hidden="true" d="" display="none"/></g></g><g class="mark-group role-column-header column_header" role="graphics-object" aria-roledescription="group mark container"><g transform="translate(0,-1)"><path class="background" aria-hidden="true" d="M0,0h200v0h-200Z"/><g><g class="mark-group role-title"><g transform="translate(100,-24)"><path class="background" aria-hidden="true" d="M0,0h0v0h0Z" pointer-events="none"/><g><g class="mark-text role-title-text" role="graphics-symbol" aria-roledescription="title" aria-label="Title text 'kernel size 16'" pointer-events="none"><text text-anchor="middle" transform="translate(0,11)" font-family="sans-serif" font-size="14px" fill="#000" opacity="1">kernel size 16</text></g></g><path class="foreground" aria-hidden="true" d="" pointer-events="none" display="none"/></g></g></g><path class="foreground" aria-hidden="true" d="" display="none"/></g><g transform="translate(739,-1)"><path class="background" aria-hidden="true" d="M0,0h200v0h-200Z"/><g><g class="mark-group role-title"><g transform="translate(100,-24)"><path class="background" aria-hidden="true" d="M0,0h0v0h0Z" pointer-events="none"/><g><g class="mark-text role-title-text" role="graphics-symbol" aria-roledescription="title" aria-label="Title text 'kernel size 512'" pointer-events="none"><text text-anchor="middle" transform="translate(0,11)" font-family="sans-serif" font-size="14px" fill="#000" opacity="1">kernel size 512</text></g></g><path class="foreground" aria-hidden="true" d="" pointer-events="none" display="none"/></g></g></g><path class="foreground" aria-hidden="true" d="" display="none"/></g></g><g class="mark-group role-scope cell" role="graphics-object" aria-roledescription="group mark container"><g transform="translate(0,0)"><path class="background" aria-hidden="true" d="M0.5,0.5h200v300h-200Z" stroke="#ddd"/><g><g class="mark-group role-axis" aria-hidden="true"><g transform="translate(0.5,300.5)"><path class="background" aria-hidden="true" d="M0,0h0v0h0Z" pointer-events="none"/><g><g class="mark-rule role-axis-grid" pointer-events="none"><line transform="translate(0,0)" x2="0" y2="-300" stroke="#ddd" stroke-width="1" opacity="1"/><line transform="translate(42,0)" x2="0" y2="-300" stroke="#ddd" stroke-width="1" opacity="1"/><line transform="translate(83,0)" x2="0" y2="-300" stroke="#ddd" stroke-width="1" opacity="1"/><line transform="translate(125,0)" x2="0" y2="-300" stroke="#ddd" stroke-width="1" opacity="1"/><line transform="translate(167,0)" x2="0" y2="-300" stroke="#ddd" stroke-width="1" opacity="1"/></g></g><path class="foreground" aria-hidden="true" d="" pointer-events="none" display="none"/></g></g><g class="mark-group role-axis" role="graphics-symbol" aria-roledescription="axis" aria-label="X-axis titled 'mean execution time in µs' for a linear scale with values from 0 to 240"><g transform="translate(0.5,300.5)"><path class="background" aria-hidden="true" d="M0,0h0v0h0Z" pointer-events="none"/><g><g class="mark-rule role-axis-tick" pointer-events="none"><line transform="translate(0,0)" x2="0" y2="5" stroke="#888" stroke-width="1" opacity="1"/><line transform="translate(42,0)" x2="0" y2="5" stroke="#888" stroke-width="1" opacity="1"/><line transform="translate(83,0)" x2="0" y2="5" stroke="#888" stroke-width="1" opacity="1"/><line transform="translate(125,0)" x2="0" y2="5" stroke="#888" stroke-width="1" opacity="1"/><line transform="translate(167,0)" x2="0" y2="5" stroke="#888" stroke-width="1" opacity="1"/></g><g class="mark-text role-axis-label" pointer-events="none"><text text-anchor="start" transform="translate(0,15)" font-family="sans-serif" font-size="10px" fill="#000" opacity="1">0</text><text text-anchor="middle" transform="translate(41.66666666666667,15)" font-family="sans-serif" font-size="10px" fill="#000" opacity="1">50</text><text text-anchor="middle" transform="translate(83.33333333333334,15)" font-family="sans-serif" font-size="10px" fill="#000" opacity="1">100</text><text text-anchor="middle" transform="translate(125,15)" font-family="sans-serif" font-size="10px" fill="#000" opacity="1">150</text><text text-anchor="middle" transform="translate(166.66666666666669,15)" font-family="sans-serif" font-size="10px" fill="#000" opacity="1">200</text></g><g class="mark-rule role-axis-domain" pointer-events="none"><line transform="translate(0,0)" x2="200" y2="0" stroke="#888" stroke-width="1" opacity="1"/></g><g class="mark-text role-axis-title" pointer-events="none"><text text-anchor="middle" transform="translate(100,30)" font-family="sans-serif" font-size="11px" font-weight="bold" fill="#000" opacity="1">mean execution time in µs</text></g></g><path class="foreground" aria-hidden="true" d="" pointer-events="none" display="none"/></g></g><g class="mark-group role-axis" role="graphics-symbol" aria-roledescription="axis" aria-label="Y-axis titled 'algorithm' for a discrete scale with 15 values: (JohT) inputPerKernelValue Transposed, (JohT) inputPerKernelValue Transposed OuterLoopUnrolled, (JohT) inputPerKernelValue Transposed LoopFissionIndexArithmetic, (JohT) inputPerKernelValue Transposed LoopFission, (JohT) inputPerKernelValue Transposed Inner&amp;OuterLoopUnrolled, ending with (chaowang15) convolve1D"><g transform="translate(0.5,0.5)"><path class="background" aria-hidden="true" d="M0,0h0v0h0Z" pointer-events="none"/><g><g class="mark-rule role-axis-tick" pointer-events="none"><line transform="translate(0,10)" x2="-5" y2="0" stroke="#888" stroke-width="1" opacity="1"/><line transform="translate(0,30)" x2="-5" y2="0" stroke="#888" stroke-width="1" opacity="1"/><line transform="translate(0,50)" x2="-5" y2="0" stroke="#888" stroke-width="1" opacity="1"/><line transform="translate(0,70)" x2="-5" y2="0" stroke="#888" stroke-width="1" opacity="1"/><line transform="translate(0,90)" x2="-5" y2="0" stroke="#888" stroke-width="1" opacity="1"/><line transform="translate(0,110)" x2="-5" y2="0" stroke="#888" stroke-width="1" opacity="1"/><line transform="translate(0,130)" x2="-5" y2="0" stroke="#888" stroke-width="1" opacity="1"/><line transform="translate(0,150)" x2="-5" y2="0" stroke="#888" stroke-width="1" opacity="1"/><line transform="translate(0,170)" x2="-5" y2="0" stroke="#888" stroke-width="1" opacity="1"/><line transform="translate(0,190)" x2="-5" y2="0" stroke="#888" stroke-width="1" opacity="1"/><line transform="translate(0,210)" x2="-5" y2="0" stroke="#888" stroke-width="1" opacity="1"/><line transform="translate(0,230)" x2="-5" y2="0" stroke="#888" stroke-width="1" opacity="1"/><line transform="translate(0,250)" x2="-5" y2="0" stroke="#888" stroke-width="1" opacity="1"/><line transform="translate(0,270)" x2="-5" y2="0" stroke="#888" stroke-width="1" opacity="1"/><line transform="translate(0,290)" x2="-5" y2="0" stroke="#888" stroke-width="1" opacity="1"/></g><g class="mark-text role-axis-label" pointer-events="none"><text text-anchor="end" transform="translate(-7,12.5)" font-family="sans-serif" font-size="10px" fill="#000" opacity="1">(JohT) inputPerKernelValue Transposed</text><text text-anchor="end" transform="translate(-7,32.5)" font-family="sans-serif" font-size="10px" fill="#000" opacity="1">(JohT) inputPerKernelValue Transposed OuterLoopUnrolled</text><text text-anchor="end" transform="translate(-7,52.5)" font-family="sans-serif" font-size="10px" fill="#000" opacity="1">(JohT) inputPerKernelValue Transposed LoopFissionIndexArithme…</text><text text-anchor="end" transform="translate(-7,72.5)" font-family="sans-serif" font-size="10px" fill="#000" opacity="1">(JohT) inputPerKernelValue Transposed LoopFission</text><text text-anchor="end" transform="translate(-7,92.5)" font-family="sans-serif" font-size="10px" fill="#000" opacity="1">(JohT) inputPerKernelValue Transposed Inner&amp;OuterLoopUnrolled</text><text text-anchor="end" transform="translate(-7,112.5)" font-family="sans-serif" font-size="10px" fill="#000" opacity="1">(JohT) inputPerKernelValue Transposed InnerLoopUnrolled</text><text text-anchor="end" transform="translate(-7,132.5)" font-family="sans-serif" font-size="10px" fill="#000" opacity="1">(wilczek) Inner-Loop Vectorization</text><text text-anchor="end" transform="translate(-7,152.5)" font-family="sans-serif" font-size="10px" fill="#000" opacity="1">(wilczek) Outer- and Inner-Loop Vectorization</text><text text-anchor="end" transform="translate(-7,172.5)" font-family="sans-serif" font-size="10px" fill="#000" opacity="1">(JohT) kernelPerInputValue Transposed LoopFission</text><text text-anchor="end" transform="translate(-7,192.5)" font-family="sans-serif" font-size="10px" fill="#000" opacity="1">(JohT) kernelPerInputValue Transposed</text><text text-anchor="end" transform="translate(-7,212.5)" font-family="sans-serif" font-size="10px" fill="#000" opacity="1">(wilczek) Single</text><text text-anchor="end" transform="translate(-7,232.5)" font-family="sans-serif" font-size="10px" fill="#000" opacity="1">(wilczek) Outer-Loop Vectorization</text><text text-anchor="end" transform="translate(-7,252.5)" font-family="sans-serif" font-size="10px" fill="#000" opacity="1">(matlab-like) conv 'valid' shape pre padded</text><text text-anchor="end" transform="translate(-7,272.5)" font-family="sans-serif" font-size="10px" fill="#000" opacity="1">(matlab-like) conv 'full' shape</text><text text-anchor="end" transform="translate(-7,292.5)" font-family="sans-serif" font-size="10px" fill="#000" opacity="1">(chaowang15) convolve1D</text></g><g class="mark-rule role-axis-domain" pointer-events="none"><line transform="translate(0,0)" x2="0" y2="300" stroke="#888" stroke-width="1" opacity="1"/></g><g class="mark-text role-axis-title" pointer-events="none"><text text-anchor="middle" transform="translate(-320,150) rotate(-90) translate(0,-2)" font-family="sans-serif" font-size="11px" font-weight="bold" fill="#000" opacity="1">algorithm</text></g></g><path class="foreground" aria-hidden="true" d="" pointer-events="none" display="none"/></g></g><g class="mark-rect role-mark child_layer_0_marks" role="graphics-object" aria-roledescription="rect mark container"><path aria-label="mean execution time in µs: 174; algorithm: (JohT) kernelPerInputValue Transposed" role="graphics-symbol" aria-roledescription="bar" d="M0,181.9L141,181.9C143.207660097976,181.9,145,183.692339902024,145,185.9L145,194.1C145,196.307660097976,143.207660097976,198.1,141,198.1L0,198.1C0,198.1,0,198.1,0,198.1L0,181.9C0,181.9,0,181.9,0,181.9Z" fill="#4c78a8"/><path aria-label="mean execution time in µs: 78; algorithm: (JohT) inputPerKernelValue Transposed" role="graphics-symbol" aria-roledescription="bar" d="M0,1.9L61,1.9C63.207660097976,1.9,65,3.692339902024,65,5.9L65,14.099999999999998C65,16.307660097975997,63.207660097976,18.099999999999998,61,18.099999999999998L0,18.099999999999998C0,18.099999999999998,0,18.099999999999998,0,18.099999999999998L0,1.9C0,1.9,0,1.9,0,1.9Z" fill="#4c78a8"/><path aria-label="mean execution time in µs: 138; algorithm: (JohT) inputPerKernelValue Transposed InnerLoopUnrolled" role="graphics-symbol" aria-roledescription="bar" d="M0,101.9L110.99999999999999,101.9C113.20766009797599,101.9,114.99999999999999,103.692339902024,114.99999999999999,105.9L114.99999999999999,114.10000000000001C114.99999999999999,116.30766009797601,113.20766009797599,118.10000000000001,110.99999999999999,118.10000000000001L0,118.10000000000001C0,118.10000000000001,0,118.10000000000001,0,118.10000000000001L0,101.9C0,101.9,0,101.9,0,101.9Z" fill="#4c78a8"/><path aria-label="mean execution time in µs: 103; algorithm: (JohT) inputPerKernelValue Transposed OuterLoopUnrolled" role="graphics-symbol" aria-roledescription="bar" d="M0,21.9L81.83333333333333,21.9C84.04099343130933,21.9,85.83333333333333,23.692339902024,85.83333333333333,25.9L85.83333333333333,34.099999999999994C85.83333333333333,36.307660097976,84.04099343130933,38.099999999999994,81.83333333333333,38.099999999999994L0,38.099999999999994C0,38.099999999999994,0,38.099999999999994,0,38.099999999999994L0,21.9C0,21.9,0,21.9,0,21.9Z" fill="#4c78a8"/><path aria-label="mean execution time in µs: 135; algorithm: (JohT) inputPerKernelValue Transposed Inner&amp;OuterLoopUnrolled" role="graphics-symbol" aria-roledescription="bar" d="M0,81.9L108.5,81.9C110.707660097976,81.9,112.5,83.692339902024,112.5,85.9L112.5,94.10000000000001C112.5,96.30766009797601,110.707660097976,98.10000000000001,108.5,98.10000000000001L0,98.10000000000001C0,98.10000000000001,0,98.10000000000001,0,98.10000000000001L0,81.9C0,81.9,0,81.9,0,81.9Z" fill="#4c78a8"/><path aria-label="mean execution time in µs: 129; algorithm: (JohT) inputPerKernelValue Transposed LoopFission" role="graphics-symbol" aria-roledescription="bar" d="M0,61.9L103.5,61.9C105.707660097976,61.9,107.5,63.692339902023996,107.5,65.9L107.5,74.1C107.5,76.307660097976,105.707660097976,78.1,103.5,78.1L0,78.1C0,78.1,0,78.1,0,78.1L0,61.9C0,61.9,0,61.9,0,61.9Z" fill="#4c78a8"/><path aria-label="mean execution time in µs: 104; algorithm: (JohT) inputPerKernelValue Transposed LoopFissionIndexArithmetic" role="graphics-symbol" aria-roledescription="bar" d="M0,41.9L82.66666666666667,41.9C84.87432676464267,41.9,86.66666666666667,43.692339902023996,86.66666666666667,45.9L86.66666666666667,54.099999999999994C86.66666666666667,56.307660097976,84.87432676464267,58.099999999999994,82.66666666666667,58.099999999999994L0,58.099999999999994C0,58.099999999999994,0,58.099999999999994,0,58.099999999999994L0,41.9C0,41.9,0,41.9,0,41.9Z" fill="#4c78a8"/><path aria-label="mean execution time in µs: 173; algorithm: (JohT) kernelPerInputValue Transposed LoopFission" role="graphics-symbol" aria-roledescription="bar" d="M0,161.9L140.16666666666666,161.9C142.37432676464266,161.9,144.16666666666666,163.692339902024,144.16666666666666,165.9L144.16666666666666,174.1C144.16666666666666,176.307660097976,142.37432676464266,178.1,140.16666666666666,178.1L0,178.1C0,178.1,0,178.1,0,178.1L0,161.9C0,161.9,0,161.9,0,161.9Z" fill="#4c78a8"/><path aria-label="mean execution time in µs: 224; algorithm: (matlab-like) conv 'full' shape" role="graphics-symbol" aria-roledescription="bar" d="M0,261.9L182.66666666666666,261.9C184.87432676464266,261.9,186.66666666666666,263.692339902024,186.66666666666666,265.9L186.66666666666666,274.09999999999997C186.66666666666666,276.30766009797594,184.87432676464266,278.09999999999997,182.66666666666666,278.09999999999997L0,278.09999999999997C0,278.09999999999997,0,278.09999999999997,0,278.09999999999997L0,261.9C0,261.9,0,261.9,0,261.9Z" fill="#4c78a8"/><path aria-label="mean execution time in µs: 219; algorithm: (matlab-like) conv 'valid' shape pre padded" role="graphics-symbol" aria-roledescription="bar" d="M0,241.9L178.5,241.9C180.707660097976,241.9,182.5,243.692339902024,182.5,245.9L182.5,254.10000000000002C182.5,256.307660097976,180.707660097976,258.1,178.5,258.1L0,258.1C0,258.1,0,258.1,0,258.1L0,241.9C0,241.9,0,241.9,0,241.9Z" fill="#4c78a8"/><path aria-label="mean execution time in µs: 209; algorithm: (wilczek) Single" role="graphics-symbol" aria-roledescription="bar" d="M0,201.9L170.16666666666666,201.9C172.37432676464266,201.9,174.16666666666666,203.692339902024,174.16666666666666,205.9L174.16666666666666,214.1C174.16666666666666,216.307660097976,172.37432676464266,218.1,170.16666666666666,218.1L0,218.1C0,218.1,0,218.1,0,218.1L0,201.9C0,201.9,0,201.9,0,201.9Z" fill="#4c78a8"/><path aria-label="mean execution time in µs: 149; algorithm: (wilczek) Inner-Loop Vectorization" role="graphics-symbol" aria-roledescription="bar" d="M0,121.9L120.16666666666667,121.9C122.37432676464267,121.9,124.16666666666667,123.692339902024,124.16666666666667,125.9L124.16666666666667,134.1C124.16666666666667,136.307660097976,122.37432676464267,138.1,120.16666666666667,138.1L0,138.1C0,138.1,0,138.1,0,138.1L0,121.9C0,121.9,0,121.9,0,121.9Z" fill="#4c78a8"/><path aria-label="mean execution time in µs: 214; algorithm: (wilczek) Outer-Loop Vectorization" role="graphics-symbol" aria-roledescription="bar" d="M0,221.9L174.33333333333334,221.9C176.54099343130935,221.9,178.33333333333334,223.692339902024,178.33333333333334,225.9L178.33333333333334,234.1C178.33333333333334,236.307660097976,176.54099343130935,238.1,174.33333333333334,238.1L0,238.1C0,238.1,0,238.1,0,238.1L0,221.9C0,221.9,0,221.9,0,221.9Z" fill="#4c78a8"/><path aria-label="mean execution time in µs: 152; algorithm: (wilczek) Outer- and Inner-Loop Vectorization" role="graphics-symbol" aria-roledescription="bar" d="M0,141.9L122.66666666666666,141.9C124.87432676464266,141.9,126.66666666666666,143.692339902024,126.66666666666666,145.9L126.66666666666666,154.1C126.66666666666666,156.307660097976,124.87432676464266,158.1,122.66666666666666,158.1L0,158.1C0,158.1,0,158.1,0,158.1L0,141.9C0,141.9,0,141.9,0,141.9Z" fill="#4c78a8"/><path aria-label="mean execution time in µs: 226; algorithm: (chaowang15) convolve1D" role="graphics-symbol" aria-roledescription="bar" d="M0,281.9L184.33333333333334,281.9C186.54099343130935,281.9,188.33333333333334,283.692339902024,188.33333333333334,285.9L188.33333333333334,294.09999999999997C188.33333333333334,296.30766009797594,186.54099343130935,298.09999999999997,184.33333333333334,298.09999999999997L0,298.09999999999997C0,298.09999999999997,0,298.09999999999997,0,298.09999999999997L0,281.9C0,281.9,0,281.9,0,281.9Z" fill="#4c78a8"/></g><g class="mark-text role-mark child_layer_1_marks" role="graphics-object" aria-roledescription="text mark container"><text aria-label="mean execution time in µs: 174; algorithm: (JohT) kernelPerInputValue Transposed; MeanExecutionTime: 174" role="graphics-symbol" aria-roledescription="text mark" text-anchor="start" transform="translate(149,193)" font-family="sans-serif" font-size="9px" fill="black">174</text><text aria-label="mean execution time in µs: 78; algorithm: (JohT) inputPerKernelValue Transposed; MeanExecutionTime: 78" role="graphics-symbol" aria-roledescription="text mark" text-anchor="start" transform="translate(69,13)" font-family="sans-serif" font-size="9px" fill="black">78</text><text aria-label="mean execution time in µs: 138; algorithm: (JohT) inputPerKernelValue Transposed InnerLoopUnrolled; MeanExecutionTime: 138" role="graphics-symbol" aria-roledescription="text mark" text-anchor="start" transform="translate(118.99999999999999,113)" font-family="sans-serif" font-size="9px" fill="black">138</text><text aria-label="mean execution time in µs: 103; algorithm: (JohT) inputPerKernelValue Transposed OuterLoopUnrolled; MeanExecutionTime: 103" role="graphics-symbol" aria-roledescription="text mark" text-anchor="start" transform="translate(89.83333333333333,33)" font-family="sans-serif" font-size="9px" fill="black">103</text><text aria-label="mean execution time in µs: 135; algorithm: (JohT) inputPerKernelValue Transposed Inner&amp;OuterLoopUnrolled; MeanExecutionTime: 135" role="graphics-symbol" aria-roledescription="text mark" text-anchor="start" transform="translate(116.5,93)" font-family="sans-serif" font-size="9px" fill="black">135</text><text aria-label="mean execution time in µs: 129; algorithm: (JohT) inputPerKernelValue Transposed LoopFission; MeanExecutionTime: 129" role="graphics-symbol" aria-roledescription="text mark" text-anchor="start" transform="translate(111.5,73)" font-family="sans-serif" font-size="9px" fill="black">129</text><text aria-label="mean execution time in µs: 104; algorithm: (JohT) inputPerKernelValue Transposed LoopFissionIndexArithmetic; MeanExecutionTime: 104" role="graphics-symbol" aria-roledescription="text mark" text-anchor="start" transform="translate(90.66666666666667,53)" font-family="sans-serif" font-size="9px" fill="black">104</text><text aria-label="mean execution time in µs: 173; algorithm: (JohT) kernelPerInputValue Transposed LoopFission; MeanExecutionTime: 173" role="graphics-symbol" aria-roledescription="text mark" text-anchor="start" transform="translate(148.16666666666666,173)" font-family="sans-serif" font-size="9px" fill="black">173</text><text aria-label="mean execution time in µs: 224; algorithm: (matlab-like) conv 'full' shape; MeanExecutionTime: 224" role="graphics-symbol" aria-roledescription="text mark" text-anchor="start" transform="translate(190.66666666666666,273)" font-family="sans-serif" font-size="9px" fill="black">224</text><text aria-label="mean execution time in µs: 219; algorithm: (matlab-like) conv 'valid' shape pre padded; MeanExecutionTime: 219" role="graphics-symbol" aria-roledescription="text mark" text-anchor="start" transform="translate(186.5,253)" font-family="sans-serif" font-size="9px" fill="black">219</text><text aria-label="mean execution time in µs: 209; algorithm: (wilczek) Single; MeanExecutionTime: 209" role="graphics-symbol" aria-roledescription="text mark" text-anchor="start" transform="translate(178.16666666666666,213)" font-family="sans-serif" font-size="9px" fill="black">209</text><text aria-label="mean execution time in µs: 149; algorithm: (wilczek) Inner-Loop Vectorization; MeanExecutionTime: 149" role="graphics-symbol" aria-roledescription="text mark" text-anchor="start" transform="translate(128.16666666666669,133)" font-family="sans-serif" font-size="9px" fill="black">149</text><text aria-label="mean execution time in µs: 214; algorithm: (wilczek) Outer-Loop Vectorization; MeanExecutionTime: 214" role="graphics-symbol" aria-roledescription="text mark" text-anchor="start" transform="translate(182.33333333333334,233)" font-family="sans-serif" font-size="9px" fill="black">214</text><text aria-label="mean execution time in µs: 152; algorithm: (wilczek) Outer- and Inner-Loop Vectorization; MeanExecutionTime: 152" role="graphics-symbol" aria-roledescription="text mark" text-anchor="start" transform="translate(130.66666666666666,153)" font-family="sans-serif" font-size="9px" fill="black">152</text><text aria-label="mean execution time in µs: 226; algorithm: (chaowang15) convolve1D; MeanExecutionTime: 226" role="graphics-symbol" aria-roledescription="text mark" text-anchor="start" transform="translate(192.33333333333334,293)" font-family="sans-serif" font-size="9px" fill="black">226</text></g></g><path class="foreground" aria-hidden="true" d="" display="none"/></g><g transform="translate(739,0)"><path class="background" aria-hidden="true" d="M0.5,0.5h200v300h-200Z" stroke="#ddd"/><g><g class="mark-group role-axis" aria-hidden="true"><g transform="translate(0.5,300.5)"><path class="background" aria-hidden="true" d="M0,0h0v0h0Z" pointer-events="none"/><g><g class="mark-rule role-axis-grid" pointer-events="none"><line transform="translate(0,0)" x2="0" y2="-300" stroke="#ddd" stroke-width="1" opacity="1"/><line transform="translate(29,0)" x2="0" y2="-300" stroke="#ddd" stroke-width="1" opacity="1"/><line transform="translate(57,0)" x2="0" y2="-300" stroke="#ddd" stroke-width="1" opacity="1"/><line transform="translate(86,0)" x2="0" y2="-300" stroke="#ddd" stroke-width="1" opacity="1"/><line transform="translate(114,0)" x2="0" y2="-300" stroke="#ddd" stroke-width="1" opacity="1"/><line transform="translate(143,0)" x2="0" y2="-300" stroke="#ddd" stroke-width="1" opacity="1"/><line transform="translate(171,0)" x2="0" y2="-300" stroke="#ddd" stroke-width="1" opacity="1"/><line transform="translate(200,0)" x2="0" y2="-300" stroke="#ddd" stroke-width="1" opacity="1"/></g></g><path class="foreground" aria-hidden="true" d="" pointer-events="none" display="none"/></g></g><g class="mark-group role-axis" role="graphics-symbol" aria-roledescription="axis" aria-label="X-axis titled 'mean execution time in µs' for a linear scale with values from 0 to 14,000"><g transform="translate(0.5,300.5)"><path class="background" aria-hidden="true" d="M0,0h0v0h0Z" pointer-events="none"/><g><g class="mark-rule role-axis-tick" pointer-events="none"><line transform="translate(0,0)" x2="0" y2="5" stroke="#888" stroke-width="1" opacity="1"/><line transform="translate(29,0)" x2="0" y2="5" stroke="#888" stroke-width="1" opacity="1"/><line transform="translate(57,0)" x2="0" y2="5" stroke="#888" stroke-width="1" opacity="1"/><line transform="translate(86,0)" x2="0" y2="5" stroke="#888" stroke-width="1" opacity="1"/><line transform="translate(114,0)" x2="0" y2="5" stroke="#888" stroke-width="1" opacity="1"/><line transform="translate(143,0)" x2="0" y2="5" stroke="#888" stroke-width="1" opacity="1"/><line transform="translate(171,0)" x2="0" y2="5" stroke="#888" stroke-width="1" opacity="1"/><line transform="translate(200,0)" x2="0" y2="5" stroke="#888" stroke-width="1" opacity="1"/></g><g class="mark-text role-axis-label" pointer-events="none"><text text-anchor="start" transform="translate(0,15)" font-family="sans-serif" font-size="10px" fill="#000" opacity="1">0</text><text text-anchor="middle" transform="translate(28.57142857142857,15)" font-family="sans-serif" font-size="10px" fill="#000" opacity="0">2,000</text><text text-anchor="middle" transform="translate(57.14285714285714,15)" font-family="sans-serif" font-size="10px" fill="#000" opacity="1">4,000</text><text text-anchor="middle" transform="translate(85.71428571428571,15)" font-family="sans-serif" font-size="10px" fill="#000" opacity="0">6,000</text><text text-anchor="middle" transform="translate(114.28571428571428,15)" font-family="sans-serif" font-size="10px" fill="#000" opacity="1">8,000</text><text text-anchor="middle" transform="translate(142.85714285714286,15)" font-family="sans-serif" font-size="10px" fill="#000" opacity="0">10,000</text><text text-anchor="middle" transform="translate(171.42857142857142,15)" font-family="sans-serif" font-size="10px" fill="#000" opacity="1">12,000</text><text text-anchor="end" transform="translate(200,15)" font-family="sans-serif" font-size="10px" fill="#000" opacity="0">14,000</text></g><g class="mark-rule role-axis-domain" pointer-events="none"><line transform="translate(0,0)" x2="200" y2="0" stroke="#888" stroke-width="1" opacity="1"/></g><g class="mark-text role-axis-title" pointer-events="none"><text text-anchor="middle" transform="translate(100,30)" font-family="sans-serif" font-size="11px" font-weight="bold" fill="#000" opacity="1">mean execution time in µs</text></g></g><path class="foreground" aria-hidden="true" d="" pointer-events="none" display="none"/></g></g><g class="mark-group role-axis" role="graphics-symbol" aria-roledescription="axis" aria-label="Y-axis titled 'algorithm' for a discrete scale with 15 values: (JohT) kernelPerInputValue Transposed, (JohT) inputPerKernelValue Transposed, (JohT) kernelPerInputValue Transposed LoopFission, (JohT) inputPerKernelValue Transposed OuterLoopUnrolled, (JohT) inputPerKernelValue Transposed LoopFissionIndexArithmetic, ending with (matlab-like) conv 'valid' shape pre padded"><g transform="translate(0.5,0.5)"><path class="background" aria-hidden="true" d="M0,0h0v0h0Z" pointer-events="none"/><g><g class="mark-rule role-axis-tick" pointer-events="none"><line transform="translate(0,10)" x2="-5" y2="0" stroke="#888" stroke-width="1" opacity="1"/><line transform="translate(0,30)" x2="-5" y2="0" stroke="#888" stroke-width="1" opacity="1"/><line transform="translate(0,50)" x2="-5" y2="0" stroke="#888" stroke-width="1" opacity="1"/><line transform="translate(0,70)" x2="-5" y2="0" stroke="#888" stroke-width="1" opacity="1"/><line transform="translate(0,90)" x2="-5" y2="0" stroke="#888" stroke-width="1" opacity="1"/><line transform="translate(0,110)" x2="-5" y2="0" stroke="#888" stroke-width="1" opacity="1"/><line transform="translate(0,130)" x2="-5" y2="0" stroke="#888" stroke-width="1" opacity="1"/><line transform="translate(0,150)" x2="-5" y2="0" stroke="#888" stroke-width="1" opacity="1"/><line transform="translate(0,170)" x2="-5" y2="0" stroke="#888" stroke-width="1" opacity="1"/><line transform="translate(0,190)" x2="-5" y2="0" stroke="#888" stroke-width="1" opacity="1"/><line transform="translate(0,210)" x2="-5" y2="0" stroke="#888" stroke-width="1" opacity="1"/><line transform="translate(0,230)" x2="-5" y2="0" stroke="#888" stroke-width="1" opacity="1"/><line transform="translate(0,250)" x2="-5" y2="0" stroke="#888" stroke-width="1" opacity="1"/><line transform="translate(0,270)" x2="-5" y2="0" stroke="#888" stroke-width="1" opacity="1"/><line transform="translate(0,290)" x2="-5" y2="0" stroke="#888" stroke-width="1" opacity="1"/></g><g class="mark-text role-axis-label" pointer-events="none"><text text-anchor="end" transform="translate(-7,12.5)" font-family="sans-serif" font-size="10px" fill="#000" opacity="1">(JohT) kernelPerInputValue Transposed</text><text text-anchor="end" transform="translate(-7,32.5)" font-family="sans-serif" font-size="10px" fill="#000" opacity="1">(JohT) inputPerKernelValue Transposed</text><text text-anchor="end" transform="translate(-7,52.5)" font-family="sans-serif" font-size="10px" fill="#000" opacity="1">(JohT) kernelPerInputValue Transposed LoopFission</text><text text-anchor="end" transform="translate(-7,72.5)" font-family="sans-serif" font-size="10px" fill="#000" opacity="1">(JohT) inputPerKernelValue Transposed OuterLoopUnrolled</text><text text-anchor="end" transform="translate(-7,92.5)" font-family="sans-serif" font-size="10px" fill="#000" opacity="1">(JohT) inputPerKernelValue Transposed LoopFissionIndexArithme…</text><text text-anchor="end" transform="translate(-7,112.5)" font-family="sans-serif" font-size="10px" fill="#000" opacity="1">(JohT) inputPerKernelValue Transposed LoopFission</text><text text-anchor="end" transform="translate(-7,132.5)" font-family="sans-serif" font-size="10px" fill="#000" opacity="1">(JohT) inputPerKernelValue Transposed Inner&amp;OuterLoopUnrolled</text><text text-anchor="end" transform="translate(-7,152.5)" font-family="sans-serif" font-size="10px" fill="#000" opacity="1">(JohT) inputPerKernelValue Transposed InnerLoopUnrolled</text><text text-anchor="end" transform="translate(-7,172.5)" font-family="sans-serif" font-size="10px" fill="#000" opacity="1">(wilczek) Inner-Loop Vectorization</text><text text-anchor="end" transform="translate(-7,192.5)" font-family="sans-serif" font-size="10px" fill="#000" opacity="1">(wilczek) Outer- and Inner-Loop Vectorization</text><text text-anchor="end" transform="translate(-7,212.5)" font-family="sans-serif" font-size="10px" fill="#000" opacity="1">(wilczek) Outer-Loop Vectorization</text><text text-anchor="end" transform="translate(-7,232.5)" font-family="sans-serif" font-size="10px" fill="#000" opacity="1">(matlab-like) conv 'full' shape</text><text text-anchor="end" transform="translate(-7,252.5)" font-family="sans-serif" font-size="10px" fill="#000" opacity="1">(chaowang15) convolve1D</text><text text-anchor="end" transform="translate(-7,272.5)" font-family="sans-serif" font-size="10px" fill="#000" opacity="1">(wilczek) Single</text><text text-anchor="end" transform="translate(-7,292.5)" font-family="sans-serif" font-size="10px" fill="#000" opacity="1">(matlab-like) conv 'valid' shape pre padded</text></g><g class="mark-rule role-axis-domain" pointer-events="none"><line transform="translate(0,0)" x2="0" y2="300" stroke="#888" stroke-width="1" opacity="1"/></g><g class="mark-text role-axis-title" pointer-events="none"><text text-anchor="middle" transform="translate(-320,150) rotate(-90) translate(0,-2)" font-family="sans-serif" font-size="11px" font-weight="bold" fill="#000" opacity="1">algorithm</text></g></g><path class="foreground" aria-hidden="true" d="" pointer-events="none" display="none"/></g></g><g class="mark-rect role-mark child_layer_0_marks" role="graphics-object" aria-roledescription="rect mark container"><path aria-label="mean execution time in µs: 1685; algorithm: (JohT) kernelPerInputValue Transposed" role="graphics-symbol" aria-roledescription="bar" d="M0,1.9L20.071428571428573,1.9C22.279088669404572,1.9,24.071428571428573,3.692339902024,24.071428571428573,5.9L24.071428571428573,14.099999999999998C24.071428571428573,16.307660097975997,22.279088669404572,18.099999999999998,20.071428571428573,18.099999999999998L0,18.099999999999998C0,18.099999999999998,0,18.099999999999998,0,18.099999999999998L0,1.9C0,1.9,0,1.9,0,1.9Z" fill="#4c78a8"/><path aria-label="mean execution time in µs: 2151; algorithm: (JohT) inputPerKernelValue Transposed" role="graphics-symbol" aria-roledescription="bar" d="M0,21.9L26.728571428571428,21.9C28.936231526547427,21.9,30.728571428571428,23.692339902024,30.728571428571428,25.9L30.728571428571428,34.099999999999994C30.728571428571428,36.307660097976,28.936231526547427,38.099999999999994,26.728571428571428,38.099999999999994L0,38.099999999999994C0,38.099999999999994,0,38.099999999999994,0,38.099999999999994L0,21.9C0,21.9,0,21.9,0,21.9Z" fill="#4c78a8"/><path aria-label="mean execution time in µs: 3998; algorithm: (JohT) inputPerKernelValue Transposed InnerLoopUnrolled" role="graphics-symbol" aria-roledescription="bar" d="M0,141.9L53.114285714285714,141.9C55.32194581226172,141.9,57.114285714285714,143.692339902024,57.114285714285714,145.9L57.114285714285714,154.1C57.114285714285714,156.307660097976,55.32194581226172,158.1,53.114285714285714,158.1L0,158.1C0,158.1,0,158.1,0,158.1L0,141.9C0,141.9,0,141.9,0,141.9Z" fill="#4c78a8"/><path aria-label="mean execution time in µs: 3029; algorithm: (JohT) inputPerKernelValue Transposed OuterLoopUnrolled" role="graphics-symbol" aria-roledescription="bar" d="M0,61.9L39.27142857142857,61.9C41.479088669404575,61.9,43.27142857142857,63.692339902023996,43.27142857142857,65.9L43.27142857142857,74.1C43.27142857142857,76.307660097976,41.479088669404575,78.1,39.27142857142857,78.1L0,78.1C0,78.1,0,78.1,0,78.1L0,61.9C0,61.9,0,61.9,0,61.9Z" fill="#4c78a8"/><path aria-label="mean execution time in µs: 3888; algorithm: (JohT) inputPerKernelValue Transposed Inner&amp;OuterLoopUnrolled" role="graphics-symbol" aria-roledescription="bar" d="M0,121.9L51.54285714285714,121.9C53.75051724083314,121.9,55.54285714285714,123.692339902024,55.54285714285714,125.9L55.54285714285714,134.1C55.54285714285714,136.307660097976,53.75051724083314,138.1,51.54285714285714,138.1L0,138.1C0,138.1,0,138.1,0,138.1L0,121.9C0,121.9,0,121.9,0,121.9Z" fill="#4c78a8"/><path aria-label="mean execution time in µs: 3447; algorithm: (JohT) inputPerKernelValue Transposed LoopFission" role="graphics-symbol" aria-roledescription="bar" d="M0,101.9L45.24285714285715,101.9C47.45051724083315,101.9,49.24285714285715,103.692339902024,49.24285714285715,105.9L49.24285714285715,114.10000000000001C49.24285714285715,116.30766009797601,47.45051724083315,118.10000000000001,45.24285714285715,118.10000000000001L0,118.10000000000001C0,118.10000000000001,0,118.10000000000001,0,118.10000000000001L0,101.9C0,101.9,0,101.9,0,101.9Z" fill="#4c78a8"/><path aria-label="mean execution time in µs: 3245; algorithm: (JohT) inputPerKernelValue Transposed LoopFissionIndexArithmetic" role="graphics-symbol" aria-roledescription="bar" d="M0,81.9L42.35714285714286,81.9C44.564802955118864,81.9,46.35714285714286,83.692339902024,46.35714285714286,85.9L46.35714285714286,94.10000000000001C46.35714285714286,96.30766009797601,44.564802955118864,98.10000000000001,42.35714285714286,98.10000000000001L0,98.10000000000001C0,98.10000000000001,0,98.10000000000001,0,98.10000000000001L0,81.9C0,81.9,0,81.9,0,81.9Z" fill="#4c78a8"/><path aria-label="mean execution time in µs: 2464; algorithm: (JohT) kernelPerInputValue Transposed LoopFission" role="graphics-symbol" aria-roledescription="bar" d="M0,41.9L31.199999999999996,41.9C33.407660097976,41.9,35.199999999999996,43.692339902023996,35.199999999999996,45.9L35.199999999999996,54.099999999999994C35.199999999999996,56.307660097976,33.407660097976,58.099999999999994,31.199999999999996,58.099999999999994L0,58.099999999999994C0,58.099999999999994,0,58.099999999999994,0,58.099999999999994L0,41.9C0,41.9,0,41.9,0,41.9Z" fill="#4c78a8"/><path aria-label="mean execution time in µs: 12802; algorithm: (matlab-like) conv 'full' shape" role="graphics-symbol" aria-roledescription="bar" d="M0,221.9L178.8857142857143,221.9C181.0933743836903,221.9,182.8857142857143,223.692339902024,182.8857142857143,225.9L182.8857142857143,234.1C182.8857142857143,236.307660097976,181.0933743836903,238.1,178.8857142857143,238.1L0,238.1C0,238.1,0,238.1,0,238.1L0,221.9C0,221.9,0,221.9,0,221.9Z" fill="#4c78a8"/><path aria-label="mean execution time in µs: 13254; algorithm: (matlab-like) conv 'valid' shape pre padded" role="graphics-symbol" aria-roledescription="bar" d="M0,281.9L185.34285714285716,281.9C187.55051724083316,281.9,189.34285714285716,283.692339902024,189.34285714285716,285.9L189.34285714285716,294.09999999999997C189.34285714285716,296.30766009797594,187.55051724083316,298.09999999999997,185.34285714285716,298.09999999999997L0,298.09999999999997C0,298.09999999999997,0,298.09999999999997,0,298.09999999999997L0,281.9C0,281.9,0,281.9,0,281.9Z" fill="#4c78a8"/><path aria-label="mean execution time in µs: 13209; algorithm: (wilczek) Single" role="graphics-symbol" aria-roledescription="bar" d="M0,261.9L184.7,261.9C186.907660097976,261.9,188.7,263.692339902024,188.7,265.9L188.7,274.09999999999997C188.7,276.30766009797594,186.907660097976,278.09999999999997,184.7,278.09999999999997L0,278.09999999999997C0,278.09999999999997,0,278.09999999999997,0,278.09999999999997L0,261.9C0,261.9,0,261.9,0,261.9Z" fill="#4c78a8"/><path aria-label="mean execution time in µs: 4455; algorithm: (wilczek) Inner-Loop Vectorization" role="graphics-symbol" aria-roledescription="bar" d="M0,161.9L59.642857142857146,161.9C61.85051724083315,161.9,63.642857142857146,163.692339902024,63.642857142857146,165.9L63.642857142857146,174.1C63.642857142857146,176.307660097976,61.85051724083315,178.1,59.642857142857146,178.1L0,178.1C0,178.1,0,178.1,0,178.1L0,161.9C0,161.9,0,161.9,0,161.9Z" fill="#4c78a8"/><path aria-label="mean execution time in µs: 7855; algorithm: (wilczek) Outer-Loop Vectorization" role="graphics-symbol" aria-roledescription="bar" d="M0,201.9L108.21428571428571,201.9C110.42194581226171,201.9,112.21428571428571,203.692339902024,112.21428571428571,205.9L112.21428571428571,214.1C112.21428571428571,216.307660097976,110.42194581226171,218.1,108.21428571428571,218.1L0,218.1C0,218.1,0,218.1,0,218.1L0,201.9C0,201.9,0,201.9,0,201.9Z" fill="#4c78a8"/><path aria-label="mean execution time in µs: 4648; algorithm: (wilczek) Outer- and Inner-Loop Vectorization" role="graphics-symbol" aria-roledescription="bar" d="M0,181.9L62.400000000000006,181.9C64.60766009797601,181.9,66.4,183.692339902024,66.4,185.9L66.4,194.1C66.4,196.307660097976,64.60766009797601,198.1,62.400000000000006,198.1L0,198.1C0,198.1,0,198.1,0,198.1L0,181.9C0,181.9,0,181.9,0,181.9Z" fill="#4c78a8"/><path aria-label="mean execution time in µs: 12990; algorithm: (chaowang15) convolve1D" role="graphics-symbol" aria-roledescription="bar" d="M0,241.9L181.57142857142856,241.9C183.77908866940456,241.9,185.57142857142856,243.692339902024,185.57142857142856,245.9L185.57142857142856,254.10000000000002C185.57142857142856,256.307660097976,183.77908866940456,258.1,181.57142857142856,258.1L0,258.1C0,258.1,0,258.1,0,258.1L0,241.9C0,241.9,0,241.9,0,241.9Z" fill="#4c78a8"/></g><g class="mark-text role-mark child_layer_1_marks" role="graphics-object" aria-roledescription="text mark container"><text aria-label="mean execution time in µs: 1685; algorithm: (JohT) kernelPerInputValue Transposed; MeanExecutionTime: 1685" role="graphics-symbol" aria-roledescription="text mark" text-anchor="start" transform="translate(28.071428571428573,13)" font-family="sans-serif" font-size="9px" fill="black">1685</text><text aria-label="mean execution time in µs: 2151; algorithm: (JohT) inputPerKernelValue Transposed; MeanExecutionTime: 2151" role="graphics-symbol" aria-roledescription="text mark" text-anchor="start" transform="translate(34.72857142857143,33)" font-family="sans-serif" font-size="9px" fill="black">2151</text><text aria-label="mean execution time in µs: 3998; algorithm: (JohT) inputPerKernelValue Transposed InnerLoopUnrolled; MeanExecutionTime: 3998" role="graphics-symbol" aria-roledescription="text mark" text-anchor="start" transform="translate(61.114285714285714,153)" font-family="sans-serif" font-size="9px" fill="black">3998</text><text aria-label="mean execution time in µs: 3029; algorithm: (JohT) inputPerKernelValue Transposed OuterLoopUnrolled; MeanExecutionTime: 3029" role="graphics-symbol" aria-roledescription="text mark" text-anchor="start" transform="translate(47.27142857142857,73)" font-family="sans-serif" font-size="9px" fill="black">3029</text><text aria-label="mean execution time in µs: 3888; algorithm: (JohT) inputPerKernelValue Transposed Inner&amp;OuterLoopUnrolled; MeanExecutionTime: 3888" role="graphics-symbol" aria-roledescription="text mark" text-anchor="start" transform="translate(59.54285714285714,133)" font-family="sans-serif" font-size="9px" fill="black">3888</text><text aria-label="mean execution time in µs: 3447; algorithm: (JohT) inputPerKernelValue Transposed LoopFission; MeanExecutionTime: 3447" role="graphics-symbol" aria-roledescription="text mark" text-anchor="start" transform="translate(53.24285714285715,113)" font-family="sans-serif" font-size="9px" fill="black">3447</text><text aria-label="mean execution time in µs: 3245; algorithm: (JohT) inputPerKernelValue Transposed LoopFissionIndexArithmetic; MeanExecutionTime: 3245" role="graphics-symbol" aria-roledescription="text mark" text-anchor="start" transform="translate(50.35714285714286,93)" font-family="sans-serif" font-size="9px" fill="black">3245</text><text aria-label="mean execution time in µs: 2464; algorithm: (JohT) kernelPerInputValue Transposed LoopFission; MeanExecutionTime: 2464" role="graphics-symbol" aria-roledescription="text mark" text-anchor="start" transform="translate(39.199999999999996,53)" font-family="sans-serif" font-size="9px" fill="black">2464</text><text aria-label="mean execution time in µs: 12802; algorithm: (matlab-like) conv 'full' shape; MeanExecutionTime: 12802" role="graphics-symbol" aria-roledescription="text mark" text-anchor="start" transform="translate(186.8857142857143,233)" font-family="sans-serif" font-size="9px" fill="black">12802</text><text aria-label="mean execution time in µs: 13254; algorithm: (matlab-like) conv 'valid' shape pre padded; MeanExecutionTime: 13254" role="graphics-symbol" aria-roledescription="text mark" text-anchor="start" transform="translate(193.34285714285716,293)" font-family="sans-serif" font-size="9px" fill="black">13254</text><text aria-label="mean execution time in µs: 13209; algorithm: (wilczek) Single; MeanExecutionTime: 13209" role="graphics-symbol" aria-roledescription="text mark" text-anchor="start" transform="translate(192.7,273)" font-family="sans-serif" font-size="9px" fill="black">13209</text><text aria-label="mean execution time in µs: 4455; algorithm: (wilczek) Inner-Loop Vectorization; MeanExecutionTime: 4455" role="graphics-symbol" aria-roledescription="text mark" text-anchor="start" transform="translate(67.64285714285714,173)" font-family="sans-serif" font-size="9px" fill="black">4455</text><text aria-label="mean execution time in µs: 7855; algorithm: (wilczek) Outer-Loop Vectorization; MeanExecutionTime: 7855" role="graphics-symbol" aria-roledescription="text mark" text-anchor="start" transform="translate(116.21428571428571,213)" font-family="sans-serif" font-size="9px" fill="black">7855</text><text aria-label="mean execution time in µs: 4648; algorithm: (wilczek) Outer- and Inner-Loop Vectorization; MeanExecutionTime: 4648" role="graphics-symbol" aria-roledescription="text mark" text-anchor="start" transform="translate(70.4,193)" font-family="sans-serif" font-size="9px" fill="black">4648</text><text aria-label="mean execution time in µs: 12990; algorithm: (chaowang15) convolve1D; MeanExecutionTime: 12990" role="graphics-symbol" aria-roledescription="text mark" text-anchor="start" transform="translate(189.57142857142856,253)" font-family="sans-serif" font-size="9px" fill="black">12990</text></g></g><path class="foreground" aria-hidden="true" d="" display="none"/></g></g></g><path class="foreground" aria-hidden="true" d="" display="none"/></g></g></g></svg>