<svg xmlns="http://www.w3.org/2000/svg" xmlns:xlink="http://www.w3.org/1999/xlink" version="1.1" class="marks" width="1485" height="404" viewBox="0 0 1485 404"><rect width="1485" height="404" fill="white"/><g fill="none" stroke-miterlimit="10" transform="translate(509,66)"><g class="mark-group role-frame root" role="graphics-object" aria-roledescription="group mark container"><g transform="translate(0,0)"><path class="background" aria-hidden="true" d="M0,0h0v0h0Z"/><g><g class="mark-group role-column-title column-title" role="graphics-object" aria-roledescription="group mark container"><g transform="translate(233,-35)"><path class="background" aria-hidden="true" d="M0,0h0v0h0Z"/><g><g class="mark-group role-title"><g transform="translate(0,-26)"><path class="background" aria-hidden="true" d="M0,0h0v0h0Z" pointer-events="none"/><g><g class="mark-text role-title-text" role="graphics-symbol" aria-roledescription="title" aria-label="Title text 'Convolution Benchmarks'" pointer-events="none"><text text-anchor="middle" transform="translate(0,13)" font-family="sans-serif" font-size="16px" font-weight="bold" fill="#000" opacity="1">Convolution Benchmarks</text></g></g><path class="foreground" aria-hidden="true" d="" pointer-events="none" display="none"/></g></g></g><path class="foreground" aria-hidden="true" d="" display="none"/></g></g><g class="mark-group role-column-header column_header" role="graphics-object" aria-roledescription="group mark container"><g transform="translate(0,-1)"><path class="background" aria-hidden="true" d="M0,0h200v0h-200Z"/><g><g class="mark-group role-title"><g transform="translate(100,-24)"><path class="background" aria-hidden="true" d="M0,0h0v0h0Z" pointer-events="none"/><g><g class="mark-text role-title-text" role="graphics-symbol" aria-roledescription="title" aria-label="Title text 'kernel size 16'" pointer-events="none"><text text-anchor="middle" transform="translate(0,11)" font-family="sans-serif" font-size="14px" fill="#000" opacity="1">kernel size 16</text></g></g><path class="foreground" aria-hidden="true" d="" pointer-events="none" display="none"/></g></g></g><path class="foreground" aria-hidden="true" d="" display="none"/></g><g transform="translate(740,-1)"><path class="background" aria-hidden="true" d="M0,0h200v0h-200Z"/><g><g class="mark-group role-title"><g transform="translate(100,-24)"><path class="background" aria-hidden="true" d="M0,0h0v0h0Z" pointer-events="none"/><g><g class="mark-text role-title-text" role="graphics-symbol" aria-roledescription="title" aria-label="Title text 'kernel size 512'" pointer-events="none"><text text-anchor="middle" transform="translate(0,11)" font-family="sans-serif" font-size="14px" fill="#000" opacity="1">kernel size 512</text></g></g><path class="foreground" aria-hidden="true" d="" pointer-events="none" display="none"/></g></g></g><path class="foreground" aria-hidden="true" d="" display="none"/></g></g><g class="mark-group role-scope cell" role="graphics-object" aria-roledescription="group mark container"><g transform="translate(0,0)"><path class="background" aria-hidden="true" d="M0.5,0.5h200v300h-200Z" stroke="#ddd"/><g><g class="mark-group role-axis" aria-hidden="true"><g transform="translate(0.5,300.5)"><path class="background" aria-hidden="true" d="M0,0h0v0h0Z" pointer-events="none"/><g><g class="mark-rule role-axis-grid" pointer-events="none"><line transform="translate(0,0)" x2="0" y2="-300" stroke="#ddd" stroke-width="1" opacity="1"/><line transform="translate(42,0)" x2="0" y2="-300" stroke="#ddd" stroke-width="1" opacity="1"/><line transform="translate(83,0)" x2="0" y2="-300" stroke="#ddd" stroke-width="1" opacity="1"/><line transform="translate(125,0)" x2="0" y2="-300" stroke="#ddd" stroke-width="1" opacity="1"/><line transform="translate(167,0)" x2="0" y2="-300" stroke="#ddd" stroke-width="1" opacity="1"/></g></g><path class="foreground" aria-hidden="true" d="" pointer-events="none" display="none"/></g></g><g class="mark-group role-axis" role="graphics-symbol" aria-roledescription="axis" aria-label="X-axis titled 'mean execution time in µs' for a linear scale with values from 0 to 240"><g transform="translate(0.5,300.5)"><path class="background" aria-hidden="true" d="M0,0h0v0h0Z" pointer-events="none"/><g><g class="mark-rule role-axis-tick" pointer-events="none"><line transform="translate(0,0)" x2="0" y2="5" stroke="#888" stroke-width="1" opacity="1"/><line transform="translate(42,0)" x2="0" y2="5" stroke="#888" stroke-width="1" opacity="1"/><line transform="translate(83,0)" x2="0" y2="5" stroke="#888" stroke-width="1" opacity="1"/><line transform="translate(125,0)" x2="0" y2="5" stroke="#888" stroke-width="1" opacity="1"/><line transform="translate(167,0)" x2="0" y2="5" stroke="#888" stroke-width="1" opacity="1"/></g><g class="mark-text role-axis-label" pointer-events="none"><text text-anchor="start" transform="translate(0,15)" font-family="sans-serif" font-size="10px" fill="#000" opacity="1">0</text><text text-anchor="middle" transform="translate(41.66666666666667,15)" font-family="sans-serif" font-size="10px" fill="#000" opacity="1">50</text><text text-anchor="middle" transform="translate(83.33333333333334,15)" font-family="sans-serif" font-size="10px" fill="#000" opacity="1">100</text><text text-anchor="middle" transform="translate(125,15)" font-family="sans-serif" font-size="10px" fill="#000" opacity="1">150</text><text text-anchor="middle" transform="translate(166.66666666666669,15)" font-family="sans-serif" font-size="10px" fill="#000" opacity="1">200</text></g><g class="mark-rule role-axis-domain" pointer-events="none"><line transform="translate(0,0)" x2="200" y2="0" stroke="#888" stroke-width="1" opacity="1"/></g><g class="mark-text role-axis-title" pointer-events="none"><text text-anchor="middle" transform="translate(100,30)" font-family="sans-serif" font-size="11px" font-weight="bold" fill="#000" opacity="1">mean execution time in µs</text></g></g><path class="foreground" aria-hidden="true" d="" pointer-events="none" display="none"/></g></g><g class="mark-group role-axis" role="graphics-symbol" aria-roledescription="axis" aria-label="Y-axis titled 'algorithm' for a discrete scale with 15 values: (JohT) inputPerKernelValue Transposed, (JohT) inputPerKernelValue Transposed LoopFissionIndexArithmetic, (JohT) inputPerKernelValue Transposed OuterLoopUnrolled, (JohT) inputPerKernelValue Transposed LoopFission, (JohT) inputPerKernelValue Transposed Inner&amp;OuterLoopUnrolled, ending with (chaowang15) convolve1D"><g transform="translate(0.5,0.5)"><path class="background" aria-hidden="true" d="M0,0h0v0h0Z" pointer-events="none"/><g><g class="mark-rule role-axis-tick" pointer-events="none"><line transform="translate(0,10)" x2="-5" y2="0" stroke="#888" stroke-width="1" opacity="1"/><line transform="translate(0,30)" x2="-5" y2="0" stroke="#888" stroke-width="1" opacity="1"/><line transform="translate(0,50)" x2="-5" y2="0" stroke="#888" stroke-width="1" opacity="1"/><line transform="translate(0,70)" x2="-5" y2="0" stroke="#888" stroke-width="1" opacity="1"/><line transform="translate(0,90)" x2="-5" y2="0" stroke="#888" stroke-width="1" opacity="1"/><line transform="translate(0,110)" x2="-5" y2="0" stroke="#888" stroke-width="1" opacity="1"/><line transform="translate(0,130)" x2="-5" y2="0" stroke="#888" stroke-width="1" opacity="1"/><line transform="translate(0,150)" x2="-5" y2="0" stroke="#888" stroke-width="1" opacity="1"/><line transform="translate(0,170)" x2="-5" y2="0" stroke="#888" stroke-width="1" opacity="1"/><line transform="translate(0,190)" x2="-5" y2="0" stroke="#888" stroke-width="1" opacity="1"/><line transform="translate(0,210)" x2="-5" y2="0" stroke="#888" stroke-width="1" opacity="1"/><line transform="translate(0,230)" x2="-5" y2="0" stroke="#888" stroke-width="1" opacity="1"/><line transform="translate(0,250)" x2="-5" y2="0" stroke="#888" stroke-width="1" opacity="1"/><line transform="translate(0,270)" x2="-5" y2="0" stroke="#888" stroke-width="1" opacity="1"/><line transform="translate(0,290)" x2="-5" y2="0" stroke="#888" stroke-width="1" opacity="1"/></g><g class="mark-text role-axis-label" pointer-events="none"><text text-anchor="end" transform="translate(-7,12.5)" font-family="sans-serif" font-size="10px" fill="#000" opacity="1">(JohT) inputPerKernelValue Transposed</text><text text-anchor="end" transform="translate(-7,32.5)" font-family="sans-serif" font-size="10px" fill="#000" opacity="1">(JohT) inputPerKernelValue Transposed LoopFissionIndexArithme…</text><text text-anchor="end" transform="translate(-7,52.5)" font-family="sans-serif" font-size="10px" fill="#000" opacity="1">(JohT) inputPerKernelValue Transposed OuterLoopUnrolled</text><text text-anchor="end" transform="translate(-7,72.5)" font-family="sans-serif" font-size="10px" fill="#000" opacity="1">(JohT) inputPerKernelValue Transposed LoopFission</text><text text-anchor="end" transform="translate(-7,92.5)" font-family="sans-serif" font-size="10px" fill="#000" opacity="1">(JohT) inputPerKernelValue Transposed Inner&amp;OuterLoopUnrolled</text><text text-anchor="end" transform="translate(-7,112.5)" font-family="sans-serif" font-size="10px" fill="#000" opacity="1">(JohT) inputPerKernelValue Transposed InnerLoopUnrolled</text><text text-anchor="end" transform="translate(-7,132.5)" font-family="sans-serif" font-size="10px" fill="#000" opacity="1">(wilczek) Inner-Loop Vectorization</text><text text-anchor="end" transform="translate(-7,152.5)" font-family="sans-serif" font-size="10px" fill="#000" opacity="1">(wilczek) Outer- and Inner-Loop Vectorization</text><text text-anchor="end" transform="translate(-7,172.5)" font-family="sans-serif" font-size="10px" fill="#000" opacity="1">(JohT) kernelPerInputValue Transposed LoopFission</text><text text-anchor="end" transform="translate(-7,192.5)" font-family="sans-serif" font-size="10px" fill="#000" opacity="1">(JohT) kernelPerInputValue Transposed</text><text text-anchor="end" transform="translate(-7,212.5)" font-family="sans-serif" font-size="10px" fill="#000" opacity="1">(wilczek) Single</text><text text-anchor="end" transform="translate(-7,232.5)" font-family="sans-serif" font-size="10px" fill="#000" opacity="1">(wilczek) Outer-Loop Vectorization</text><text text-anchor="end" transform="translate(-7,252.5)" font-family="sans-serif" font-size="10px" fill="#000" opacity="1">(matlab-like) conv 'valid' shape pre padded</text><text text-anchor="end" transform="translate(-7,272.5)" font-family="sans-serif" font-size="10px" fill="#000" opacity="1">(matlab-like) conv 'full' shape</text><text text-anchor="end" transform="translate(-7,292.5)" font-family="sans-serif" font-size="10px" fill="#000" opacity="1">(chaowang15) convolve1D</text></g><g class="mark-rule role-axis-domain" pointer-events="none"><line transform="translate(0,0)" x2="0" y2="300" stroke="#888" stroke-width="1" opacity="1"/></g><g class="mark-text role-axis-title" pointer-events="none"><text text-anchor="middle" transform="translate(-320,150) rotate(-90) translate(0,-2)" font-family="sans-serif" font-size="11px" font-weight="bold" fill="#000" opacity="1">algorithm</text></g></g><path class="foreground" aria-hidden="true" d="" pointer-events="none" display="none"/></g></g><g class="mark-rect role-mark child_layer_0_marks" role="graphics-object" aria-roledescription="rect mark container"><path aria-label="mean execution time in µs: 175; algorithm: (JohT) kernelPerInputValue Transposed" role="graphics-symbol" aria-roledescription="bar" d="M0,181.9L141.83333333333331,181.9C144.04099343130932,181.9,145.83333333333331,183.692339902024,145.83333333333331,185.9L145.83333333333331,194.1C145.83333333333331,196.307660097976,144.04099343130932,198.1,141.83333333333331,198.1L0,198.1C0,198.1,0,198.1,0,198.1L0,181.9C0,181.9,0,181.9,0,181.9Z" fill="#4c78a8"/><path aria-label="mean execution time in µs: 98; algorithm: (JohT) inputPerKernelValue Transposed" role="graphics-symbol" aria-roledescription="bar" d="M0,1.9L77.66666666666667,1.9C79.87432676464267,1.9,81.66666666666667,3.692339902024,81.66666666666667,5.9L81.66666666666667,14.099999999999998C81.66666666666667,16.307660097975997,79.87432676464267,18.099999999999998,77.66666666666667,18.099999999999998L0,18.099999999999998C0,18.099999999999998,0,18.099999999999998,0,18.099999999999998L0,1.9C0,1.9,0,1.9,0,1.9Z" fill="#4c78a8"/><path aria-label="mean execution time in µs: 138; algorithm: (JohT) inputPerKernelValue Transposed InnerLoopUnrolled" role="graphics-symbol" aria-roledescription="bar" d="M0,101.9L110.99999999999999,101.9C113.20766009797599,101.9,114.99999999999999,103.692339902024,114.99999999999999,105.9L114.99999999999999,114.10000000000001C114.99999999999999,116.30766009797601,113.20766009797599,118.10000000000001,110.99999999999999,118.10000000000001L0,118.10000000000001C0,118.10000000000001,0,118.10000000000001,0,118.10000000000001L0,101.9C0,101.9,0,101.9,0,101.9Z" fill="#4c78a8"/><path aria-label="mean execution time in µs: 114; algorithm: (JohT) inputPerKernelValue Transposed OuterLoopUnrolled" role="graphics-symbol" aria-roledescription="bar" d="M0,41.9L91,41.9C93.207660097976,41.9,95,43.692339902023996,95,45.9L95,54.099999999999994C95,56.307660097976,93.207660097976,58.099999999999994,91,58.099999999999994L0,58.099999999999994C0,58.099999999999994,0,58.099999999999994,0,58.099999999999994L0,41.9C0,41.9,0,41.9,0,41.9Z" fill="#4c78a8"/><path aria-label="mean execution time in µs: 136; algorithm: (JohT) inputPerKernelValue Transposed Inner&amp;OuterLoopUnrolled" role="graphics-symbol" aria-roledescription="bar" d="M0,81.9L109.33333333333333,81.9C111.54099343130933,81.9,113.33333333333333,83.692339902024,113.33333333333333,85.9L113.33333333333333,94.10000000000001C113.33333333333333,96.30766009797601,111.54099343130933,98.10000000000001,109.33333333333333,98.10000000000001L0,98.10000000000001C0,98.10000000000001,0,98.10000000000001,0,98.10000000000001L0,81.9C0,81.9,0,81.9,0,81.9Z" fill="#4c78a8"/><path aria-label="mean execution time in µs: 121; algorithm: (JohT) inputPerKernelValue Transposed LoopFission" role="graphics-symbol" aria-roledescription="bar" d="M0,61.9L96.83333333333333,61.9C99.04099343130933,61.9,100.83333333333333,63.692339902023996,100.83333333333333,65.9L100.83333333333333,74.1C100.83333333333333,76.307660097976,99.04099343130933,78.1,96.83333333333333,78.1L0,78.1C0,78.1,0,78.1,0,78.1L0,61.9C0,61.9,0,61.9,0,61.9Z" fill="#4c78a8"/><path aria-label="mean execution time in µs: 104; algorithm: (JohT) inputPerKernelValue Transposed LoopFissionIndexArithmetic" role="graphics-symbol" aria-roledescription="bar" d="M0,21.9L82.66666666666667,21.9C84.87432676464267,21.9,86.66666666666667,23.692339902024,86.66666666666667,25.9L86.66666666666667,34.099999999999994C86.66666666666667,36.307660097976,84.87432676464267,38.099999999999994,82.66666666666667,38.099999999999994L0,38.099999999999994C0,38.099999999999994,0,38.099999999999994,0,38.099999999999994L0,21.9C0,21.9,0,21.9,0,21.9Z" fill="#4c78a8"/><path aria-label="mean execution time in µs: 172; algorithm: (JohT) kernelPerInputValue Transposed LoopFission" role="graphics-symbol" aria-roledescription="bar" d="M0,161.9L139.33333333333334,161.9C141.54099343130935,161.9,143.33333333333334,163.692339902024,143.33333333333334,165.9L143.33333333333334,174.1C143.33333333333334,176.307660097976,141.54099343130935,178.1,139.33333333333334,178.1L0,178.1C0,178.1,0,178.1,0,178.1L0,161.9C0,161.9,0,161.9,0,161.9Z" fill="#4c78a8"/><path aria-label="mean execution time in µs: 225; algorithm: (matlab-like) conv 'full' shape" role="graphics-symbol" aria-roledescription="bar" d="M0,261.9L183.5,261.9C185.707660097976,261.9,187.5,263.692339902024,187.5,265.9L187.5,274.09999999999997C187.5,276.30766009797594,185.707660097976,278.09999999999997,183.5,278.09999999999997L0,278.09999999999997C0,278.09999999999997,0,278.09999999999997,0,278.09999999999997L0,261.9C0,261.9,0,261.9,0,261.9Z" fill="#4c78a8"/><path aria-label="mean execution time in µs: 220; algorithm: (matlab-like) conv 'valid' shape pre padded" role="graphics-symbol" aria-roledescription="bar" d="M0,241.9L179.33333333333331,241.9C181.54099343130932,241.9,183.33333333333331,243.692339902024,183.33333333333331,245.9L183.33333333333331,254.10000000000002C183.33333333333331,256.307660097976,181.54099343130932,258.1,179.33333333333331,258.1L0,258.1C0,258.1,0,258.1,0,258.1L0,241.9C0,241.9,0,241.9,0,241.9Z" fill="#4c78a8"/><path aria-label="mean execution time in µs: 199; algorithm: (wilczek) Single" role="graphics-symbol" aria-roledescription="bar" d="M0,201.9L161.83333333333334,201.9C164.04099343130935,201.9,165.83333333333334,203.692339902024,165.83333333333334,205.9L165.83333333333334,214.1C165.83333333333334,216.307660097976,164.04099343130935,218.1,161.83333333333334,218.1L0,218.1C0,218.1,0,218.1,0,218.1L0,201.9C0,201.9,0,201.9,0,201.9Z" fill="#4c78a8"/><path aria-label="mean execution time in µs: 148; algorithm: (wilczek) Inner-Loop Vectorization" role="graphics-symbol" aria-roledescription="bar" d="M0,121.9L119.33333333333334,121.9C121.54099343130935,121.9,123.33333333333334,123.692339902024,123.33333333333334,125.9L123.33333333333334,134.1C123.33333333333334,136.307660097976,121.54099343130935,138.1,119.33333333333334,138.1L0,138.1C0,138.1,0,138.1,0,138.1L0,121.9C0,121.9,0,121.9,0,121.9Z" fill="#4c78a8"/><path aria-label="mean execution time in µs: 214; algorithm: (wilczek) Outer-Loop Vectorization" role="graphics-symbol" aria-roledescription="bar" d="M0,221.9L174.33333333333334,221.9C176.54099343130935,221.9,178.33333333333334,223.692339902024,178.33333333333334,225.9L178.33333333333334,234.1C178.33333333333334,236.307660097976,176.54099343130935,238.1,174.33333333333334,238.1L0,238.1C0,238.1,0,238.1,0,238.1L0,221.9C0,221.9,0,221.9,0,221.9Z" fill="#4c78a8"/><path aria-label="mean execution time in µs: 152; algorithm: (wilczek) Outer- and Inner-Loop Vectorization" role="graphics-symbol" aria-roledescription="bar" d="M0,141.9L122.66666666666666,141.9C124.87432676464266,141.9,126.66666666666666,143.692339902024,126.66666666666666,145.9L126.66666666666666,154.1C126.66666666666666,156.307660097976,124.87432676464266,158.1,122.66666666666666,158.1L0,158.1C0,158.1,0,158.1,0,158.1L0,141.9C0,141.9,0,141.9,0,141.9Z" fill="#4c78a8"/><path aria-label="mean execution time in µs: 227; algorithm: (chaowang15) convolve1D" role="graphics-symbol" aria-roledescription="bar" d="M0,281.9L185.16666666666666,281.9C187.37432676464266,281.9,189.16666666666666,283.692339902024,189.16666666666666,285.9L189.16666666666666,294.09999999999997C189.16666666666666,296.30766009797594,187.37432676464266,298.09999999999997,185.16666666666666,298.09999999999997L0,298.09999999999997C0,298.09999999999997,0,298.09999999999997,0,298.09999999999997L0,281.9C0,281.9,0,281.9,0,281.9Z" fill="#4c78a8"/></g><g class="mark-text role-mark child_layer_1_marks" role="graphics-object" aria-roledescription="text mark container"><text aria-label="mean execution time in µs: 175; algorithm: (JohT) kernelPerInputValue Transposed; MeanExecutionTime: 175" role="graphics-symbol" aria-roledescription="text mark" text-anchor="start" transform="translate(149.83333333333331,193)" font-family="sans-serif" font-size="9px" fill="black">175</text><text aria-label="mean execution time in µs: 98; algorithm: (JohT) inputPerKernelValue Transposed; MeanExecutionTime: 98" role="graphics-symbol" aria-roledescription="text mark" text-anchor="start" transform="translate(85.66666666666667,13)" font-family="sans-serif" font-size="9px" fill="black">98</text><text aria-label="mean execution time in µs: 138; algorithm: (JohT) inputPerKernelValue Transposed InnerLoopUnrolled; MeanExecutionTime: 138" role="graphics-symbol" aria-roledescription="text mark" text-anchor="start" transform="translate(118.99999999999999,113)" font-family="sans-serif" font-size="9px" fill="black">138</text><text aria-label="mean execution time in µs: 114; algorithm: (JohT) inputPerKernelValue Transposed OuterLoopUnrolled; MeanExecutionTime: 114" role="graphics-symbol" aria-roledescription="text mark" text-anchor="start" transform="translate(99,53)" font-family="sans-serif" font-size="9px" fill="black">114</text><text aria-label="mean execution time in µs: 136; algorithm: (JohT) inputPerKernelValue Transposed Inner&amp;OuterLoopUnrolled; MeanExecutionTime: 136" role="graphics-symbol" aria-roledescription="text mark" text-anchor="start" transform="translate(117.33333333333333,93)" font-family="sans-serif" font-size="9px" fill="black">136</text><text aria-label="mean execution time in µs: 121; algorithm: (JohT) inputPerKernelValue Transposed LoopFission; MeanExecutionTime: 121" role="graphics-symbol" aria-roledescription="text mark" text-anchor="start" transform="translate(104.83333333333333,73)" font-family="sans-serif" font-size="9px" fill="black">121</text><text aria-label="mean execution time in µs: 104; algorithm: (JohT) inputPerKernelValue Transposed LoopFissionIndexArithmetic; MeanExecutionTime: 104" role="graphics-symbol" aria-roledescription="text mark" text-anchor="start" transform="translate(90.66666666666667,33)" font-family="sans-serif" font-size="9px" fill="black">104</text><text aria-label="mean execution time in µs: 172; algorithm: (JohT) kernelPerInputValue Transposed LoopFission; MeanExecutionTime: 172" role="graphics-symbol" aria-roledescription="text mark" text-anchor="start" transform="translate(147.33333333333334,173)" font-family="sans-serif" font-size="9px" fill="black">172</text><text aria-label="mean execution time in µs: 225; algorithm: (matlab-like) conv 'full' shape; MeanExecutionTime: 225" role="graphics-symbol" aria-roledescription="text mark" text-anchor="start" transform="translate(191.5,273)" font-family="sans-serif" font-size="9px" fill="black">225</text><text aria-label="mean execution time in µs: 220; algorithm: (matlab-like) conv 'valid' shape pre padded; MeanExecutionTime: 220" role="graphics-symbol" aria-roledescription="text mark" text-anchor="start" transform="translate(187.33333333333331,253)" font-family="sans-serif" font-size="9px" fill="black">220</text><text aria-label="mean execution time in µs: 199; algorithm: (wilczek) Single; MeanExecutionTime: 199" role="graphics-symbol" aria-roledescription="text mark" text-anchor="start" transform="translate(169.83333333333334,213)" font-family="sans-serif" font-size="9px" fill="black">199</text><text aria-label="mean execution time in µs: 148; algorithm: (wilczek) Inner-Loop Vectorization; MeanExecutionTime: 148" role="graphics-symbol" aria-roledescription="text mark" text-anchor="start" transform="translate(127.33333333333334,133)" font-family="sans-serif" font-size="9px" fill="black">148</text><text aria-label="mean execution time in µs: 214; algorithm: (wilczek) Outer-Loop Vectorization; MeanExecutionTime: 214" role="graphics-symbol" aria-roledescription="text mark" text-anchor="start" transform="translate(182.33333333333334,233)" font-family="sans-serif" font-size="9px" fill="black">214</text><text aria-label="mean execution time in µs: 152; algorithm: (wilczek) Outer- and Inner-Loop Vectorization; MeanExecutionTime: 152" role="graphics-symbol" aria-roledescription="text mark" text-anchor="start" transform="translate(130.66666666666666,153)" font-family="sans-serif" font-size="9px" fill="black">152</text><text aria-label="mean execution time in µs: 227; algorithm: (chaowang15) convolve1D; MeanExecutionTime: 227" role="graphics-symbol" aria-roledescription="text mark" text-anchor="start" transform="translate(193.16666666666666,293)" font-family="sans-serif" font-size="9px" fill="black">227</text></g></g><path class="foreground" aria-hidden="true" d="" display="none"/></g><g transform="translate(740,0)"><path class="background" aria-hidden="true" d="M0.5,0.5h200v300h-200Z" stroke="#ddd"/><g><g class="mark-group role-axis" aria-hidden="true"><g transform="translate(0.5,300.5)"><path class="background" aria-hidden="true" d="M0,0h0v0h0Z" pointer-events="none"/><g><g class="mark-rule role-axis-grid" pointer-events="none"><line transform="translate(0,0)" x2="0" y2="-300" stroke="#ddd" stroke-width="1" opacity="1"/><line transform="translate(29,0)" x2="0" y2="-300" stroke="#ddd" stroke-width="1" opacity="1"/><line transform="translate(57,0)" x2="0" y2="-300" stroke="#ddd" stroke-width="1" opacity="1"/><line transform="translate(86,0)" x2="0" y2="-300" stroke="#ddd" stroke-width="1" opacity="1"/><line transform="translate(114,0)" x2="0" y2="-300" stroke="#ddd" stroke-width="1" opacity="1"/><line transform="translate(143,0)" x2="0" y2="-300" stroke="#ddd" stroke-width="1" opacity="1"/><line transform="translate(171,0)" x2="0" y2="-300" stroke="#ddd" stroke-width="1" opacity="1"/><line transform="translate(200,0)" x2="0" y2="-300" stroke="#ddd" stroke-width="1" opacity="1"/></g></g><path class="foreground" aria-hidden="true" d="" pointer-events="none" display="none"/></g></g><g class="mark-group role-axis" role="graphics-symbol" aria-roledescription="axis" aria-label="X-axis titled 'mean execution time in µs' for a linear scale with values from 0 to 14,000"><g transform="translate(0.5,300.5)"><path class="background" aria-hidden="true" d="M0,0h0v0h0Z" pointer-events="none"/><g><g class="mark-rule role-axis-tick" pointer-events="none"><line transform="translate(0,0)" x2="0" y2="5" stroke="#888" stroke-width="1" opacity="1"/><line transform="translate(29,0)" x2="0" y2="5" stroke="#888" stroke-width="1" opacity="1"/><line transform="translate(57,0)" x2="0" y2="5" stroke="#888" stroke-width="1" opacity="1"/><line transform="translate(86,0)" x2="0" y2="5" stroke="#888" stroke-width="1" opacity="1"/><line transform="translate(114,0)" x2="0" y2="5" stroke="#888" stroke-width="1" opacity="1"/><line transform="translate(143,0)" x2="0" y2="5" stroke="#888" stroke-width="1" opacity="1"/><line transform="translate(171,0)" x2="0" y2="5" stroke="#888" stroke-width="1" opacity="1"/><line transform="translate(200,0)" x2="0" y2="5" stroke="#888" stroke-width="1" opacity="1"/></g><g class="mark-text role-axis-label" pointer-events="none"><text text-anchor="start" transform="translate(0,15)" font-family="sans-serif" font-size="10px" fill="#000" opacity="1">0</text><text text-anchor="middle" transform="translate(28.57142857142857,15)" font-family="sans-serif" font-size="10px" fill="#000" opacity="0">2,000</text><text text-anchor="middle" transform="translate(57.14285714285714,15)" font-family="sans-serif" font-size="10px" fill="#000" opacity="1">4,000</text><text text-anchor="middle" transform="translate(85.71428571428571,15)" font-family="sans-serif" font-size="10px" fill="#000" opacity="0">6,000</text><text text-anchor="middle" transform="translate(114.28571428571428,15)" font-family="sans-serif" font-size="10px" fill="#000" opacity="1">8,000</text><text text-anchor="middle" transform="translate(142.85714285714286,15)" font-family="sans-serif" font-size="10px" fill="#000" opacity="0">10,000</text><text text-anchor="middle" transform="translate(171.42857142857142,15)" font-family="sans-serif" font-size="10px" fill="#000" opacity="1">12,000</text><text text-anchor="end" transform="translate(200,15)" font-family="sans-serif" font-size="10px" fill="#000" opacity="0">14,000</text></g><g class="mark-rule role-axis-domain" pointer-events="none"><line transform="translate(0,0)" x2="200" y2="0" stroke="#888" stroke-width="1" opacity="1"/></g><g class="mark-text role-axis-title" pointer-events="none"><text text-anchor="middle" transform="translate(100,30)" font-family="sans-serif" font-size="11px" font-weight="bold" fill="#000" opacity="1">mean execution time in µs</text></g></g><path class="foreground" aria-hidden="true" d="" pointer-events="none" display="none"/></g></g><g class="mark-group role-axis" role="graphics-symbol" aria-roledescription="axis" aria-label="Y-axis titled 'algorithm' for a discrete scale with 15 values: (JohT) kernelPerInputValue Transposed, (JohT) inputPerKernelValue Transposed, (JohT) kernelPerInputValue Transposed LoopFission, (JohT) inputPerKernelValue Transposed OuterLoopUnrolled, (JohT) inputPerKernelValue Transposed LoopFissionIndexArithmetic, ending with (matlab-like) conv 'valid' shape pre padded"><g transform="translate(0.5,0.5)"><path class="background" aria-hidden="true" d="M0,0h0v0h0Z" pointer-events="none"/><g><g class="mark-rule role-axis-tick" pointer-events="none"><line transform="translate(0,10)" x2="-5" y2="0" stroke="#888" stroke-width="1" opacity="1"/><line transform="translate(0,30)" x2="-5" y2="0" stroke="#888" stroke-width="1" opacity="1"/><line transform="translate(0,50)" x2="-5" y2="0" stroke="#888" stroke-width="1" opacity="1"/><line transform="translate(0,70)" x2="-5" y2="0" stroke="#888" stroke-width="1" opacity="1"/><line transform="translate(0,90)" x2="-5" y2="0" stroke="#888" stroke-width="1" opacity="1"/><line transform="translate(0,110)" x2="-5" y2="0" stroke="#888" stroke-width="1" opacity="1"/><line transform="translate(0,130)" x2="-5" y2="0" stroke="#888" stroke-width="1" opacity="1"/><line transform="translate(0,150)" x2="-5" y2="0" stroke="#888" stroke-width="1" opacity="1"/><line transform="translate(0,170)" x2="-5" y2="0" stroke="#888" stroke-width="1" opacity="1"/><line transform="translate(0,190)" x2="-5" y2="0" stroke="#888" stroke-width="1" opacity="1"/><line transform="translate(0,210)" x2="-5" y2="0" stroke="#888" stroke-width="1" opacity="1"/><line transform="translate(0,230)" x2="-5" y2="0" stroke="#888" stroke-width="1" opacity="1"/><line transform="translate(0,250)" x2="-5" y2="0" stroke="#888" stroke-width="1" opacity="1"/><line transform="translate(0,270)" x2="-5" y2="0" stroke="#888" stroke-width="1" opacity="1"/><line transform="translate(0,290)" x2="-5" y2="0" stroke="#888" stroke-width="1" opacity="1"/></g><g class="mark-text role-axis-label" pointer-events="none"><text text-anchor="end" transform="translate(-7,12.5)" font-family="sans-serif" font-size="10px" fill="#000" opacity="1">(JohT) kernelPerInputValue Transposed</text><text text-anchor="end" transform="translate(-7,32.5)" font-family="sans-serif" font-size="10px" fill="#000" opacity="1">(JohT) inputPerKernelValue Transposed</text><text text-anchor="end" transform="translate(-7,52.5)" font-family="sans-serif" font-size="10px" fill="#000" opacity="1">(JohT) kernelPerInputValue Transposed LoopFission</text><text text-anchor="end" transform="translate(-7,72.5)" font-family="sans-serif" font-size="10px" fill="#000" opacity="1">(JohT) inputPerKernelValue Transposed OuterLoopUnrolled</text><text text-anchor="end" transform="translate(-7,92.5)" font-family="sans-serif" font-size="10px" fill="#000" opacity="1">(JohT) inputPerKernelValue Transposed LoopFissionIndexArithme…</text><text text-anchor="end" transform="translate(-7,112.5)" font-family="sans-serif" font-size="10px" fill="#000" opacity="1">(JohT) inputPerKernelValue Transposed LoopFission</text><text text-anchor="end" transform="translate(-7,132.5)" font-family="sans-serif" font-size="10px" fill="#000" opacity="1">(JohT) inputPerKernelValue Transposed Inner&amp;OuterLoopUnrolled</text><text text-anchor="end" transform="translate(-7,152.5)" font-family="sans-serif" font-size="10px" fill="#000" opacity="1">(JohT) inputPerKernelValue Transposed InnerLoopUnrolled</text><text text-anchor="end" transform="translate(-7,172.5)" font-family="sans-serif" font-size="10px" fill="#000" opacity="1">(wilczek) Inner-Loop Vectorization</text><text text-anchor="end" transform="translate(-7,192.5)" font-family="sans-serif" font-size="10px" fill="#000" opacity="1">(wilczek) Outer- and Inner-Loop Vectorization</text><text text-anchor="end" transform="translate(-7,212.5)" font-family="sans-serif" font-size="10px" fill="#000" opacity="1">(wilczek) Outer-Loop Vectorization</text><text text-anchor="end" transform="translate(-7,232.5)" font-family="sans-serif" font-size="10px" fill="#000" opacity="1">(matlab-like) conv 'full' shape</text><text text-anchor="end" transform="translate(-7,252.5)" font-family="sans-serif" font-size="10px" fill="#000" opacity="1">(chaowang15) convolve1D</text><text text-anchor="end" transform="translate(-7,272.5)" font-family="sans-serif" font-size="10px" fill="#000" opacity="1">(wilczek) Single</text><text text-anchor="end" transform="translate(-7,292.5)" font-family="sans-serif" font-size="10px" fill="#000" opacity="1">(matlab-like) conv 'valid' shape pre padded</text></g><g class="mark-rule role-axis-domain" pointer-events="none"><line transform="translate(0,0)" x2="0" y2="300" stroke="#888" stroke-width="1" opacity="1"/></g><g class="mark-text role-axis-title" pointer-events="none"><text text-anchor="middle" transform="translate(-320,150) rotate(-90) translate(0,-2)" font-family="sans-serif" font-size="11px" font-weight="bold" fill="#000" opacity="1">algorithm</text></g></g><path class="foreground" aria-hidden="true" d="" pointer-events="none" display="none"/></g></g><g class="mark-rect role-mark child_layer_0_marks" role="graphics-object" aria-roledescription="rect mark container"><path aria-label="mean execution time in µs: 1552; algorithm: (JohT) kernelPerInputValue Transposed" role="graphics-symbol" aria-roledescription="bar" d="M0,1.9L18.17142857142857,1.9C20.37908866940457,1.9,22.17142857142857,3.692339902024,22.17142857142857,5.9L22.17142857142857,14.099999999999998C22.17142857142857,16.307660097975997,20.37908866940457,18.099999999999998,18.17142857142857,18.099999999999998L0,18.099999999999998C0,18.099999999999998,0,18.099999999999998,0,18.099999999999998L0,1.9C0,1.9,0,1.9,0,1.9Z" fill="#4c78a8"/><path aria-label="mean execution time in µs: 2173; algorithm: (JohT) inputPerKernelValue Transposed" role="graphics-symbol" aria-roledescription="bar" d="M0,21.9L27.042857142857144,21.9C29.250517240833144,21.9,31.042857142857144,23.692339902024,31.042857142857144,25.9L31.042857142857144,34.099999999999994C31.042857142857144,36.307660097976,29.250517240833144,38.099999999999994,27.042857142857144,38.099999999999994L0,38.099999999999994C0,38.099999999999994,0,38.099999999999994,0,38.099999999999994L0,21.9C0,21.9,0,21.9,0,21.9Z" fill="#4c78a8"/><path aria-label="mean execution time in µs: 3991; algorithm: (JohT) inputPerKernelValue Transposed InnerLoopUnrolled" role="graphics-symbol" aria-roledescription="bar" d="M0,141.9L53.01428571428572,141.9C55.22194581226172,141.9,57.01428571428572,143.692339902024,57.01428571428572,145.9L57.01428571428572,154.1C57.01428571428572,156.307660097976,55.22194581226172,158.1,53.01428571428572,158.1L0,158.1C0,158.1,0,158.1,0,158.1L0,141.9C0,141.9,0,141.9,0,141.9Z" fill="#4c78a8"/><path aria-label="mean execution time in µs: 3049; algorithm: (JohT) inputPerKernelValue Transposed OuterLoopUnrolled" role="graphics-symbol" aria-roledescription="bar" d="M0,61.9L39.55714285714286,61.9C41.76480295511886,61.9,43.55714285714286,63.692339902023996,43.55714285714286,65.9L43.55714285714286,74.1C43.55714285714286,76.307660097976,41.76480295511886,78.1,39.55714285714286,78.1L0,78.1C0,78.1,0,78.1,0,78.1L0,61.9C0,61.9,0,61.9,0,61.9Z" fill="#4c78a8"/><path aria-label="mean execution time in µs: 3885; algorithm: (JohT) inputPerKernelValue Transposed Inner&amp;OuterLoopUnrolled" role="graphics-symbol" aria-roledescription="bar" d="M0,121.9L51.50000000000001,121.9C53.70766009797601,121.9,55.50000000000001,123.692339902024,55.50000000000001,125.9L55.50000000000001,134.1C55.50000000000001,136.307660097976,53.70766009797601,138.1,51.50000000000001,138.1L0,138.1C0,138.1,0,138.1,0,138.1L0,121.9C0,121.9,0,121.9,0,121.9Z" fill="#4c78a8"/><path aria-label="mean execution time in µs: 3448; algorithm: (JohT) inputPerKernelValue Transposed LoopFission" role="graphics-symbol" aria-roledescription="bar" d="M0,101.9L45.25714285714285,101.9C47.464802955118856,101.9,49.25714285714285,103.692339902024,49.25714285714285,105.9L49.25714285714285,114.10000000000001C49.25714285714285,116.30766009797601,47.464802955118856,118.10000000000001,45.25714285714285,118.10000000000001L0,118.10000000000001C0,118.10000000000001,0,118.10000000000001,0,118.10000000000001L0,101.9C0,101.9,0,101.9,0,101.9Z" fill="#4c78a8"/><path aria-label="mean execution time in µs: 3244; algorithm: (JohT) inputPerKernelValue Transposed LoopFissionIndexArithmetic" role="graphics-symbol" aria-roledescription="bar" d="M0,81.9L42.34285714285714,81.9C44.550517240833145,81.9,46.34285714285714,83.692339902024,46.34285714285714,85.9L46.34285714285714,94.10000000000001C46.34285714285714,96.30766009797601,44.550517240833145,98.10000000000001,42.34285714285714,98.10000000000001L0,98.10000000000001C0,98.10000000000001,0,98.10000000000001,0,98.10000000000001L0,81.9C0,81.9,0,81.9,0,81.9Z" fill="#4c78a8"/><path aria-label="mean execution time in µs: 2412; algorithm: (JohT) kernelPerInputValue Transposed LoopFission" role="graphics-symbol" aria-roledescription="bar" d="M0,41.9L30.457142857142856,41.9C32.66480295511886,41.9,34.457142857142856,43.692339902023996,34.457142857142856,45.9L34.457142857142856,54.099999999999994C34.457142857142856,56.307660097976,32.66480295511886,58.099999999999994,30.457142857142856,58.099999999999994L0,58.099999999999994C0,58.099999999999994,0,58.099999999999994,0,58.099999999999994L0,41.9C0,41.9,0,41.9,0,41.9Z" fill="#4c78a8"/><path aria-label="mean execution time in µs: 12803; algorithm: (matlab-like) conv 'full' shape" role="graphics-symbol" aria-roledescription="bar" d="M0,221.9L178.9,221.9C181.107660097976,221.9,182.9,223.692339902024,182.9,225.9L182.9,234.1C182.9,236.307660097976,181.107660097976,238.1,178.9,238.1L0,238.1C0,238.1,0,238.1,0,238.1L0,221.9C0,221.9,0,221.9,0,221.9Z" fill="#4c78a8"/><path aria-label="mean execution time in µs: 13249; algorithm: (matlab-like) conv 'valid' shape pre padded" role="graphics-symbol" aria-roledescription="bar" d="M0,281.9L185.27142857142857,281.9C187.47908866940458,281.9,189.27142857142857,283.692339902024,189.27142857142857,285.9L189.27142857142857,294.09999999999997C189.27142857142857,296.30766009797594,187.47908866940458,298.09999999999997,185.27142857142857,298.09999999999997L0,298.09999999999997C0,298.09999999999997,0,298.09999999999997,0,298.09999999999997L0,281.9C0,281.9,0,281.9,0,281.9Z" fill="#4c78a8"/><path aria-label="mean execution time in µs: 13211; algorithm: (wilczek) Single" role="graphics-symbol" aria-roledescription="bar" d="M0,261.9L184.72857142857143,261.9C186.93623152654743,261.9,188.72857142857143,263.692339902024,188.72857142857143,265.9L188.72857142857143,274.09999999999997C188.72857142857143,276.30766009797594,186.93623152654743,278.09999999999997,184.72857142857143,278.09999999999997L0,278.09999999999997C0,278.09999999999997,0,278.09999999999997,0,278.09999999999997L0,261.9C0,261.9,0,261.9,0,261.9Z" fill="#4c78a8"/><path aria-label="mean execution time in µs: 4456; algorithm: (wilczek) Inner-Loop Vectorization" role="graphics-symbol" aria-roledescription="bar" d="M0,161.9L59.65714285714286,161.9C61.86480295511886,161.9,63.65714285714286,163.692339902024,63.65714285714286,165.9L63.65714285714286,174.1C63.65714285714286,176.307660097976,61.86480295511886,178.1,59.65714285714286,178.1L0,178.1C0,178.1,0,178.1,0,178.1L0,161.9C0,161.9,0,161.9,0,161.9Z" fill="#4c78a8"/><path aria-label="mean execution time in µs: 7838; algorithm: (wilczek) Outer-Loop Vectorization" role="graphics-symbol" aria-roledescription="bar" d="M0,201.9L107.97142857142856,201.9C110.17908866940456,201.9,111.97142857142856,203.692339902024,111.97142857142856,205.9L111.97142857142856,214.1C111.97142857142856,216.307660097976,110.17908866940456,218.1,107.97142857142856,218.1L0,218.1C0,218.1,0,218.1,0,218.1L0,201.9C0,201.9,0,201.9,0,201.9Z" fill="#4c78a8"/><path aria-label="mean execution time in µs: 4638; algorithm: (wilczek) Outer- and Inner-Loop Vectorization" role="graphics-symbol" aria-roledescription="bar" d="M0,181.9L62.25714285714285,181.9C64.46480295511886,181.9,66.25714285714285,183.692339902024,66.25714285714285,185.9L66.25714285714285,194.1C66.25714285714285,196.307660097976,64.46480295511886,198.1,62.25714285714285,198.1L0,198.1C0,198.1,0,198.1,0,198.1L0,181.9C0,181.9,0,181.9,0,181.9Z" fill="#4c78a8"/><path aria-label="mean execution time in µs: 12983; algorithm: (chaowang15) convolve1D" role="graphics-symbol" aria-roledescription="bar" d="M0,241.9L181.4714285714286,241.9C183.6790886694046,241.9,185.4714285714286,243.692339902024,185.4714285714286,245.9L185.4714285714286,254.10000000000002C185.4714285714286,256.307660097976,183.6790886694046,258.1,181.4714285714286,258.1L0,258.1C0,258.1,0,258.1,0,258.1L0,241.9C0,241.9,0,241.9,0,241.9Z" fill="#4c78a8"/></g><g class="mark-text role-mark child_layer_1_marks" role="graphics-object" aria-roledescription="text mark container"><text aria-label="mean execution time in µs: 1552; algorithm: (JohT) kernelPerInputValue Transposed; MeanExecutionTime: 1552" role="graphics-symbol" aria-roledescription="text mark" text-anchor="start" transform="translate(26.17142857142857,13)" font-family="sans-serif" font-size="9px" fill="black">1552</text><text aria-label="mean execution time in µs: 2173; algorithm: (JohT) inputPerKernelValue Transposed; MeanExecutionTime: 2173" role="graphics-symbol" aria-roledescription="text mark" text-anchor="start" transform="translate(35.042857142857144,33)" font-family="sans-serif" font-size="9px" fill="black">2173</text><text aria-label="mean execution time in µs: 3991; algorithm: (JohT) inputPerKernelValue Transposed InnerLoopUnrolled; MeanExecutionTime: 3991" role="graphics-symbol" aria-roledescription="text mark" text-anchor="start" transform="translate(61.01428571428572,153)" font-family="sans-serif" font-size="9px" fill="black">3991</text><text aria-label="mean execution time in µs: 3049; algorithm: (JohT) inputPerKernelValue Transposed OuterLoopUnrolled; MeanExecutionTime: 3049" role="graphics-symbol" aria-roledescription="text mark" text-anchor="start" transform="translate(47.55714285714286,73)" font-family="sans-serif" font-size="9px" fill="black">3049</text><text aria-label="mean execution time in µs: 3885; algorithm: (JohT) inputPerKernelValue Transposed Inner&amp;OuterLoopUnrolled; MeanExecutionTime: 3885" role="graphics-symbol" aria-roledescription="text mark" text-anchor="start" transform="translate(59.50000000000001,133)" font-family="sans-serif" font-size="9px" fill="black">3885</text><text aria-label="mean execution time in µs: 3448; algorithm: (JohT) inputPerKernelValue Transposed LoopFission; MeanExecutionTime: 3448" role="graphics-symbol" aria-roledescription="text mark" text-anchor="start" transform="translate(53.25714285714285,113)" font-family="sans-serif" font-size="9px" fill="black">3448</text><text aria-label="mean execution time in µs: 3244; algorithm: (JohT) inputPerKernelValue Transposed LoopFissionIndexArithmetic; MeanExecutionTime: 3244" role="graphics-symbol" aria-roledescription="text mark" text-anchor="start" transform="translate(50.34285714285714,93)" font-family="sans-serif" font-size="9px" fill="black">3244</text><text aria-label="mean execution time in µs: 2412; algorithm: (JohT) kernelPerInputValue Transposed LoopFission; MeanExecutionTime: 2412" role="graphics-symbol" aria-roledescription="text mark" text-anchor="start" transform="translate(38.457142857142856,53)" font-family="sans-serif" font-size="9px" fill="black">2412</text><text aria-label="mean execution time in µs: 12803; algorithm: (matlab-like) conv 'full' shape; MeanExecutionTime: 12803" role="graphics-symbol" aria-roledescription="text mark" text-anchor="start" transform="translate(186.9,233)" font-family="sans-serif" font-size="9px" fill="black">12803</text><text aria-label="mean execution time in µs: 13249; algorithm: (matlab-like) conv 'valid' shape pre padded; MeanExecutionTime: 13249" role="graphics-symbol" aria-roledescription="text mark" text-anchor="start" transform="translate(193.27142857142857,293)" font-family="sans-serif" font-size="9px" fill="black">13249</text><text aria-label="mean execution time in µs: 13211; algorithm: (wilczek) Single; MeanExecutionTime: 13211" role="graphics-symbol" aria-roledescription="text mark" text-anchor="start" transform="translate(192.72857142857143,273)" font-family="sans-serif" font-size="9px" fill="black">13211</text><text aria-label="mean execution time in µs: 4456; algorithm: (wilczek) Inner-Loop Vectorization; MeanExecutionTime: 4456" role="graphics-symbol" aria-roledescription="text mark" text-anchor="start" transform="translate(67.65714285714286,173)" font-family="sans-serif" font-size="9px" fill="black">4456</text><text aria-label="mean execution time in µs: 7838; algorithm: (wilczek) Outer-Loop Vectorization; MeanExecutionTime: 7838" role="graphics-symbol" aria-roledescription="text mark" text-anchor="start" transform="translate(115.97142857142856,213)" font-family="sans-serif" font-size="9px" fill="black">7838</text><text aria-label="mean execution time in µs: 4638; algorithm: (wilczek) Outer- and Inner-Loop Vectorization; MeanExecutionTime: 4638" role="graphics-symbol" aria-roledescription="text mark" text-anchor="start" transform="translate(70.25714285714285,193)" font-family="sans-serif" font-size="9px" fill="black">4638</text><text aria-label="mean execution time in µs: 12983; algorithm: (chaowang15) convolve1D; MeanExecutionTime: 12983" role="graphics-symbol" aria-roledescription="text mark" text-anchor="start" transform="translate(189.4714285714286,253)" font-family="sans-serif" font-size="9px" fill="black">12983</text></g></g><path class="foreground" aria-hidden="true" d="" display="none"/></g></g></g><path class="foreground" aria-hidden="true" d="" display="none"/></g></g></g></svg>