<svg xmlns="http://www.w3.org/2000/svg" xmlns:xlink="http://www.w3.org/1999/xlink" version="1.1" class="marks" width="1645" height="404" viewBox="0 0 1645 404"><rect width="1645" height="404" fill="white"/><g fill="none" stroke-miterlimit="10" transform="translate(509,66)"><g class="mark-group role-frame root" role="graphics-object" aria-roledescription="group mark container"><g transform="translate(0,0)"><path class="background" aria-hidden="true" d="M0,0h0v0h0Z"/><g><g class="mark-group role-column-title column-title" role="graphics-object" aria-roledescription="group mark container"><g transform="translate(313,-35)"><path class="background" aria-hidden="true" d="M0,0h0v0h0Z"/><g><g class="mark-group role-title"><g transform="translate(0,-26)"><path class="background" aria-hidden="true" d="M0,0h0v0h0Z" pointer-events="none"/><g><g class="mark-text role-title-text" role="graphics-symbol" aria-roledescription="title" aria-label="Title text 'Convolution Benchmarks'" pointer-events="none"><text text-anchor="middle" transform="translate(0,13)" font-family="sans-serif" font-size="16px" font-weight="bold" fill="#000" opacity="1">Convolution Benchmarks</text></g></g><path class="foreground" aria-hidden="true" d="" pointer-events="none" display="none"/></g></g></g><path class="foreground" aria-hidden="true" d="" display="none"/></g></g><g class="mark-group role-column-header column_header" role="graphics-object" aria-roledescription="group mark container"><g transform="translate(0,-1)"><path class="background" aria-hidden="true" d="M0,0h300v0h-300Z"/><g><g class="mark-group role-title"><g transform="translate(150,-24)"><path class="background" aria-hidden="true" d="M0,0h0v0h0Z" pointer-events="none"/><g><g class="mark-text role-title-text" role="graphics-symbol" aria-roledescription="title" aria-label="Title text 'kernel size 16'" pointer-events="none"><text text-anchor="middle" transform="translate(0,11)" font-family="sans-serif" font-size="14px" fill="#000" opacity="1">kernel size 16</text></g></g><path class="foreground" aria-hidden="true" d="" pointer-events="none" display="none"/></g></g></g><path class="foreground" aria-hidden="true" d="" display="none"/></g><g transform="translate(826,-1)"><path class="background" aria-hidden="true" d="M0,0h300v0h-300Z"/><g><g class="mark-group role-title"><g transform="translate(150,-24)"><path class="background" aria-hidden="true" d="M0,0h0v0h0Z" pointer-events="none"/><g><g class="mark-text role-title-text" role="graphics-symbol" aria-roledescription="title" aria-label="Title text 'kernel size 512'" pointer-events="none"><text text-anchor="middle" transform="translate(0,11)" font-family="sans-serif" font-size="14px" fill="#000" opacity="1">kernel size 512</text></g></g><path class="foreground" aria-hidden="true" d="" pointer-events="none" display="none"/></g></g></g><path class="foreground" aria-hidden="true" d="" display="none"/></g></g><g class="mark-group role-scope cell" role="graphics-object" aria-roledescription="group mark container"><g transform="translate(0,0)"><path class="background" aria-hidden="true" d="M0.5,0.5h300v300h-300Z" stroke="#ddd"/><g><g class="mark-group role-axis" aria-hidden="true"><g transform="translate(0.5,300.5)"><path class="background" aria-hidden="true" d="M0,0h0v0h0Z" pointer-events="none"/><g><g class="mark-rule role-axis-grid" pointer-events="none"><line transform="translate(0,0)" x2="0" y2="-300" stroke="#ddd" stroke-width="1" opacity="1"/><line transform="translate(27,0)" x2="0" y2="-300" stroke="#ddd" stroke-width="1" opacity="1"/><line transform="translate(55,0)" x2="0" y2="-300" stroke="#ddd" stroke-width="1" opacity="1"/><line transform="translate(82,0)" x2="0" y2="-300" stroke="#ddd" stroke-width="1" opacity="1"/><line transform="translate(109,0)" x2="0" y2="-300" stroke="#ddd" stroke-width="1" opacity="1"/><line transform="translate(136,0)" x2="0" y2="-300" stroke="#ddd" stroke-width="1" opacity="1"/><line transform="translate(164,0)" x2="0" y2="-300" stroke="#ddd" stroke-width="1" opacity="1"/><line transform="translate(191,0)" x2="0" y2="-300" stroke="#ddd" stroke-width="1" opacity="1"/><line transform="translate(218,0)" x2="0" y2="-300" stroke="#ddd" stroke-width="1" opacity="1"/><line transform="translate(245,0)" x2="0" y2="-300" stroke="#ddd" stroke-width="1" opacity="1"/><line transform="translate(273,0)" x2="0" y2="-300" stroke="#ddd" stroke-width="1" opacity="1"/><line transform="translate(300,0)" x2="0" y2="-300" stroke="#ddd" stroke-width="1" opacity="1"/></g></g><path class="foreground" aria-hidden="true" d="" pointer-events="none" display="none"/></g></g><g class="mark-group role-axis" role="graphics-symbol" aria-roledescription="axis" aria-label="X-axis titled 'mean execution time in µs' for a linear scale with values from 0 to 220"><g transform="translate(0.5,300.5)"><path class="background" aria-hidden="true" d="M0,0h0v0h0Z" pointer-events="none"/><g><g class="mark-rule role-axis-tick" pointer-events="none"><line transform="translate(0,0)" x2="0" y2="5" stroke="#888" stroke-width="1" opacity="1"/><line transform="translate(27,0)" x2="0" y2="5" stroke="#888" stroke-width="1" opacity="1"/><line transform="translate(55,0)" x2="0" y2="5" stroke="#888" stroke-width="1" opacity="1"/><line transform="translate(82,0)" x2="0" y2="5" stroke="#888" stroke-width="1" opacity="1"/><line transform="translate(109,0)" x2="0" y2="5" stroke="#888" stroke-width="1" opacity="1"/><line transform="translate(136,0)" x2="0" y2="5" stroke="#888" stroke-width="1" opacity="1"/><line transform="translate(164,0)" x2="0" y2="5" stroke="#888" stroke-width="1" opacity="1"/><line transform="translate(191,0)" x2="0" y2="5" stroke="#888" stroke-width="1" opacity="1"/><line transform="translate(218,0)" x2="0" y2="5" stroke="#888" stroke-width="1" opacity="1"/><line transform="translate(245,0)" x2="0" y2="5" stroke="#888" stroke-width="1" opacity="1"/><line transform="translate(273,0)" x2="0" y2="5" stroke="#888" stroke-width="1" opacity="1"/><line transform="translate(300,0)" x2="0" y2="5" stroke="#888" stroke-width="1" opacity="1"/></g><g class="mark-text role-axis-label" pointer-events="none"><text text-anchor="start" transform="translate(0,15)" font-family="sans-serif" font-size="10px" fill="#000" opacity="1">0</text><text text-anchor="middle" transform="translate(27.272727272727273,15)" font-family="sans-serif" font-size="10px" fill="#000" opacity="0">20</text><text text-anchor="middle" transform="translate(54.54545454545455,15)" font-family="sans-serif" font-size="10px" fill="#000" opacity="1">40</text><text text-anchor="middle" transform="translate(81.81818181818181,15)" font-family="sans-serif" font-size="10px" fill="#000" opacity="0">60</text><text text-anchor="middle" transform="translate(109.0909090909091,15)" font-family="sans-serif" font-size="10px" fill="#000" opacity="1">80</text><text text-anchor="middle" transform="translate(136.36363636363635,15)" font-family="sans-serif" font-size="10px" fill="#000" opacity="0">100</text><text text-anchor="middle" transform="translate(163.63636363636363,15)" font-family="sans-serif" font-size="10px" fill="#000" opacity="1">120</text><text text-anchor="middle" transform="translate(190.9090909090909,15)" font-family="sans-serif" font-size="10px" fill="#000" opacity="0">140</text><text text-anchor="middle" transform="translate(218.1818181818182,15)" font-family="sans-serif" font-size="10px" fill="#000" opacity="1">160</text><text text-anchor="middle" transform="translate(245.45454545454547,15)" font-family="sans-serif" font-size="10px" fill="#000" opacity="0">180</text><text text-anchor="middle" transform="translate(272.7272727272727,15)" font-family="sans-serif" font-size="10px" fill="#000" opacity="1">200</text><text text-anchor="end" transform="translate(300,15)" font-family="sans-serif" font-size="10px" fill="#000" opacity="0">220</text></g><g class="mark-rule role-axis-domain" pointer-events="none"><line transform="translate(0,0)" x2="300" y2="0" stroke="#888" stroke-width="1" opacity="1"/></g><g class="mark-text role-axis-title" pointer-events="none"><text text-anchor="middle" transform="translate(150,30)" font-family="sans-serif" font-size="11px" font-weight="bold" fill="#000" opacity="1">mean execution time in µs</text></g></g><path class="foreground" aria-hidden="true" d="" pointer-events="none" display="none"/></g></g><g class="mark-group role-axis" role="graphics-symbol" aria-roledescription="axis" aria-label="Y-axis titled 'algorithm' for a discrete scale with 15 values: (JohT) inputPerKernelValue Transposed, (JohT) inputPerKernelValue Transposed LoopFission, (JohT) inputPerKernelValue Transposed LoopFissionIndexArithmetic, (JohT) inputPerKernelValue Transposed OuterLoopUnrolled, (JohT) inputPerKernelValue Transposed Inner&amp;OuterLoopUnrolled, ending with (wilczek) Outer-Loop Vectorization"><g transform="translate(0.5,0.5)"><path class="background" aria-hidden="true" d="M0,0h0v0h0Z" pointer-events="none"/><g><g class="mark-rule role-axis-tick" pointer-events="none"><line transform="translate(0,10)" x2="-5" y2="0" stroke="#888" stroke-width="1" opacity="1"/><line transform="translate(0,30)" x2="-5" y2="0" stroke="#888" stroke-width="1" opacity="1"/><line transform="translate(0,50)" x2="-5" y2="0" stroke="#888" stroke-width="1" opacity="1"/><line transform="translate(0,70)" x2="-5" y2="0" stroke="#888" stroke-width="1" opacity="1"/><line transform="translate(0,90)" x2="-5" y2="0" stroke="#888" stroke-width="1" opacity="1"/><line transform="translate(0,110)" x2="-5" y2="0" stroke="#888" stroke-width="1" opacity="1"/><line transform="translate(0,130)" x2="-5" y2="0" stroke="#888" stroke-width="1" opacity="1"/><line transform="translate(0,150)" x2="-5" y2="0" stroke="#888" stroke-width="1" opacity="1"/><line transform="translate(0,170)" x2="-5" y2="0" stroke="#888" stroke-width="1" opacity="1"/><line transform="translate(0,190)" x2="-5" y2="0" stroke="#888" stroke-width="1" opacity="1"/><line transform="translate(0,210)" x2="-5" y2="0" stroke="#888" stroke-width="1" opacity="1"/><line transform="translate(0,230)" x2="-5" y2="0" stroke="#888" stroke-width="1" opacity="1"/><line transform="translate(0,250)" x2="-5" y2="0" stroke="#888" stroke-width="1" opacity="1"/><line transform="translate(0,270)" x2="-5" y2="0" stroke="#888" stroke-width="1" opacity="1"/><line transform="translate(0,290)" x2="-5" y2="0" stroke="#888" stroke-width="1" opacity="1"/></g><g class="mark-text role-axis-label" pointer-events="none"><text text-anchor="end" transform="translate(-7,12.5)" font-family="sans-serif" font-size="10px" fill="#000" opacity="1">(JohT) inputPerKernelValue Transposed</text><text text-anchor="end" transform="translate(-7,32.5)" font-family="sans-serif" font-size="10px" fill="#000" opacity="1">(JohT) inputPerKernelValue Transposed LoopFission</text><text text-anchor="end" transform="translate(-7,52.5)" font-family="sans-serif" font-size="10px" fill="#000" opacity="1">(JohT) inputPerKernelValue Transposed LoopFissionIndexArithme…</text><text text-anchor="end" transform="translate(-7,72.5)" font-family="sans-serif" font-size="10px" fill="#000" opacity="1">(JohT) inputPerKernelValue Transposed OuterLoopUnrolled</text><text text-anchor="end" transform="translate(-7,92.5)" font-family="sans-serif" font-size="10px" fill="#000" opacity="1">(JohT) inputPerKernelValue Transposed Inner&amp;OuterLoopUnrolled</text><text text-anchor="end" transform="translate(-7,112.5)" font-family="sans-serif" font-size="10px" fill="#000" opacity="1">(JohT) inputPerKernelValue Transposed InnerLoopUnrolled</text><text text-anchor="end" transform="translate(-7,132.5)" font-family="sans-serif" font-size="10px" fill="#000" opacity="1">(wilczek) Inner-Loop Vectorization</text><text text-anchor="end" transform="translate(-7,152.5)" font-family="sans-serif" font-size="10px" fill="#000" opacity="1">(wilczek) Outer- and Inner-Loop Vectorization</text><text text-anchor="end" transform="translate(-7,172.5)" font-family="sans-serif" font-size="10px" fill="#000" opacity="1">(matlab-like) conv 'valid' shape pre padded</text><text text-anchor="end" transform="translate(-7,192.5)" font-family="sans-serif" font-size="10px" fill="#000" opacity="1">(chaowang15) convolve1D</text><text text-anchor="end" transform="translate(-7,212.5)" font-family="sans-serif" font-size="10px" fill="#000" opacity="1">(JohT) kernelPerInputValue Transposed</text><text text-anchor="end" transform="translate(-7,232.5)" font-family="sans-serif" font-size="10px" fill="#000" opacity="1">(JohT) kernelPerInputValue Transposed LoopFission</text><text text-anchor="end" transform="translate(-7,252.5)" font-family="sans-serif" font-size="10px" fill="#000" opacity="1">(wilczek) Single</text><text text-anchor="end" transform="translate(-7,272.5)" font-family="sans-serif" font-size="10px" fill="#000" opacity="1">(matlab-like) conv 'full' shape</text><text text-anchor="end" transform="translate(-7,292.5)" font-family="sans-serif" font-size="10px" fill="#000" opacity="1">(wilczek) Outer-Loop Vectorization</text></g><g class="mark-rule role-axis-domain" pointer-events="none"><line transform="translate(0,0)" x2="0" y2="300" stroke="#888" stroke-width="1" opacity="1"/></g><g class="mark-text role-axis-title" pointer-events="none"><text text-anchor="middle" transform="translate(-320,150) rotate(-90) translate(0,-2)" font-family="sans-serif" font-size="11px" font-weight="bold" fill="#000" opacity="1">algorithm</text></g></g><path class="foreground" aria-hidden="true" d="" pointer-events="none" display="none"/></g></g><g class="mark-rect role-mark child_layer_0_marks" role="graphics-object" aria-roledescription="rect mark container"><path aria-label="mean execution time in µs: 130; algorithm: (JohT) kernelPerInputValue Transposed" role="graphics-symbol" aria-roledescription="bar" d="M0,201.9L173.27272727272728,201.9C175.48038737070328,201.9,177.27272727272728,203.692339902024,177.27272727272728,205.9L177.27272727272728,214.1C177.27272727272728,216.307660097976,175.48038737070328,218.1,173.27272727272728,218.1L0,218.1C0,218.1,0,218.1,0,218.1L0,201.9C0,201.9,0,201.9,0,201.9Z" fill="#4c78a8"/><path aria-label="mean execution time in µs: 48; algorithm: (JohT) inputPerKernelValue Transposed" role="graphics-symbol" aria-roledescription="bar" d="M0,1.9L61.45454545454545,1.9C63.662205552521456,1.9,65.45454545454545,3.692339902024,65.45454545454545,5.9L65.45454545454545,14.099999999999998C65.45454545454545,16.307660097975997,63.662205552521456,18.099999999999998,61.45454545454545,18.099999999999998L0,18.099999999999998C0,18.099999999999998,0,18.099999999999998,0,18.099999999999998L0,1.9C0,1.9,0,1.9,0,1.9Z" fill="#4c78a8"/><path aria-label="mean execution time in µs: 95; algorithm: (JohT) inputPerKernelValue Transposed InnerLoopUnrolled" role="graphics-symbol" aria-roledescription="bar" d="M0,101.9L125.54545454545456,101.9C127.75311464343056,101.9,129.54545454545456,103.692339902024,129.54545454545456,105.9L129.54545454545456,114.10000000000001C129.54545454545456,116.30766009797601,127.75311464343056,118.10000000000001,125.54545454545456,118.10000000000001L0,118.10000000000001C0,118.10000000000001,0,118.10000000000001,0,118.10000000000001L0,101.9C0,101.9,0,101.9,0,101.9Z" fill="#4c78a8"/><path aria-label="mean execution time in µs: 70; algorithm: (JohT) inputPerKernelValue Transposed OuterLoopUnrolled" role="graphics-symbol" aria-roledescription="bar" d="M0,61.9L91.45454545454545,61.9C93.66220555252146,61.9,95.45454545454545,63.692339902023996,95.45454545454545,65.9L95.45454545454545,74.1C95.45454545454545,76.307660097976,93.66220555252146,78.1,91.45454545454545,78.1L0,78.1C0,78.1,0,78.1,0,78.1L0,61.9C0,61.9,0,61.9,0,61.9Z" fill="#4c78a8"/><path aria-label="mean execution time in µs: 94; algorithm: (JohT) inputPerKernelValue Transposed Inner&amp;OuterLoopUnrolled" role="graphics-symbol" aria-roledescription="bar" d="M0,81.9L124.18181818181819,81.9C126.38947827979419,81.9,128.1818181818182,83.692339902024,128.1818181818182,85.9L128.1818181818182,94.10000000000001C128.1818181818182,96.30766009797601,126.38947827979419,98.10000000000001,124.18181818181819,98.10000000000001L0,98.10000000000001C0,98.10000000000001,0,98.10000000000001,0,98.10000000000001L0,81.9C0,81.9,0,81.9,0,81.9Z" fill="#4c78a8"/><path aria-label="mean execution time in µs: 58; algorithm: (JohT) inputPerKernelValue Transposed LoopFission" role="graphics-symbol" aria-roledescription="bar" d="M0,21.9L75.09090909090908,21.9C77.29856918888508,21.9,79.09090909090908,23.692339902024,79.09090909090908,25.9L79.09090909090908,34.099999999999994C79.09090909090908,36.307660097976,77.29856918888508,38.099999999999994,75.09090909090908,38.099999999999994L0,38.099999999999994C0,38.099999999999994,0,38.099999999999994,0,38.099999999999994L0,21.9C0,21.9,0,21.9,0,21.9Z" fill="#4c78a8"/><path aria-label="mean execution time in µs: 69; algorithm: (JohT) inputPerKernelValue Transposed LoopFissionIndexArithmetic" role="graphics-symbol" aria-roledescription="bar" d="M0,41.9L90.0909090909091,41.9C92.2985691888851,41.9,94.0909090909091,43.692339902023996,94.0909090909091,45.9L94.0909090909091,54.099999999999994C94.0909090909091,56.307660097976,92.2985691888851,58.099999999999994,90.0909090909091,58.099999999999994L0,58.099999999999994C0,58.099999999999994,0,58.099999999999994,0,58.099999999999994L0,41.9C0,41.9,0,41.9,0,41.9Z" fill="#4c78a8"/><path aria-label="mean execution time in µs: 130; algorithm: (JohT) kernelPerInputValue Transposed LoopFission" role="graphics-symbol" aria-roledescription="bar" d="M0,221.9L173.27272727272728,221.9C175.48038737070328,221.9,177.27272727272728,223.692339902024,177.27272727272728,225.9L177.27272727272728,234.1C177.27272727272728,236.307660097976,175.48038737070328,238.1,173.27272727272728,238.1L0,238.1C0,238.1,0,238.1,0,238.1L0,221.9C0,221.9,0,221.9,0,221.9Z" fill="#4c78a8"/><path aria-label="mean execution time in µs: 172; algorithm: (matlab-like) conv 'full' shape" role="graphics-symbol" aria-roledescription="bar" d="M0,261.9L230.54545454545456,261.9C232.75311464343056,261.9,234.54545454545456,263.692339902024,234.54545454545456,265.9L234.54545454545456,274.09999999999997C234.54545454545456,276.30766009797594,232.75311464343056,278.09999999999997,230.54545454545456,278.09999999999997L0,278.09999999999997C0,278.09999999999997,0,278.09999999999997,0,278.09999999999997L0,261.9C0,261.9,0,261.9,0,261.9Z" fill="#4c78a8"/><path aria-label="mean execution time in µs: 122; algorithm: (matlab-like) conv 'valid' shape pre padded" role="graphics-symbol" aria-roledescription="bar" d="M0,161.9L162.36363636363637,161.9C164.57129646161238,161.9,166.36363636363637,163.692339902024,166.36363636363637,165.9L166.36363636363637,174.1C166.36363636363637,176.307660097976,164.57129646161238,178.1,162.36363636363637,178.1L0,178.1C0,178.1,0,178.1,0,178.1L0,161.9C0,161.9,0,161.9,0,161.9Z" fill="#4c78a8"/><path aria-label="mean execution time in µs: 159; algorithm: (wilczek) Single" role="graphics-symbol" aria-roledescription="bar" d="M0,241.9L212.81818181818184,241.9C215.02584191615784,241.9,216.81818181818184,243.692339902024,216.81818181818184,245.9L216.81818181818184,254.10000000000002C216.81818181818184,256.307660097976,215.02584191615784,258.1,212.81818181818184,258.1L0,258.1C0,258.1,0,258.1,0,258.1L0,241.9C0,241.9,0,241.9,0,241.9Z" fill="#4c78a8"/><path aria-label="mean execution time in µs: 98; algorithm: (wilczek) Inner-Loop Vectorization" role="graphics-symbol" aria-roledescription="bar" d="M0,121.9L129.63636363636363,121.9C131.84402373433963,121.9,133.63636363636363,123.692339902024,133.63636363636363,125.9L133.63636363636363,134.1C133.63636363636363,136.307660097976,131.84402373433963,138.1,129.63636363636363,138.1L0,138.1C0,138.1,0,138.1,0,138.1L0,121.9C0,121.9,0,121.9,0,121.9Z" fill="#4c78a8"/><path aria-label="mean execution time in µs: 201; algorithm: (wilczek) Outer-Loop Vectorization" role="graphics-symbol" aria-roledescription="bar" d="M0,281.9L270.0909090909091,281.9C272.2985691888851,281.9,274.0909090909091,283.692339902024,274.0909090909091,285.9L274.0909090909091,294.09999999999997C274.0909090909091,296.30766009797594,272.2985691888851,298.09999999999997,270.0909090909091,298.09999999999997L0,298.09999999999997C0,298.09999999999997,0,298.09999999999997,0,298.09999999999997L0,281.9C0,281.9,0,281.9,0,281.9Z" fill="#4c78a8"/><path aria-label="mean execution time in µs: 110; algorithm: (wilczek) Outer- and Inner-Loop Vectorization" role="graphics-symbol" aria-roledescription="bar" d="M0,141.9L146,141.9C148.207660097976,141.9,150,143.692339902024,150,145.9L150,154.1C150,156.307660097976,148.207660097976,158.1,146,158.1L0,158.1C0,158.1,0,158.1,0,158.1L0,141.9C0,141.9,0,141.9,0,141.9Z" fill="#4c78a8"/><path aria-label="mean execution time in µs: 122; algorithm: (chaowang15) convolve1D" role="graphics-symbol" aria-roledescription="bar" d="M0,181.9L162.36363636363637,181.9C164.57129646161238,181.9,166.36363636363637,183.692339902024,166.36363636363637,185.9L166.36363636363637,194.1C166.36363636363637,196.307660097976,164.57129646161238,198.1,162.36363636363637,198.1L0,198.1C0,198.1,0,198.1,0,198.1L0,181.9C0,181.9,0,181.9,0,181.9Z" fill="#4c78a8"/></g><g class="mark-text role-mark child_layer_1_marks" role="graphics-object" aria-roledescription="text mark container"><text aria-label="mean execution time in µs: 130; algorithm: (JohT) kernelPerInputValue Transposed; MeanExecutionTime: 130" role="graphics-symbol" aria-roledescription="text mark" text-anchor="start" transform="translate(181.27272727272728,213)" font-family="sans-serif" font-size="9px" fill="black">130</text><text aria-label="mean execution time in µs: 48; algorithm: (JohT) inputPerKernelValue Transposed; MeanExecutionTime: 48" role="graphics-symbol" aria-roledescription="text mark" text-anchor="start" transform="translate(69.45454545454545,13)" font-family="sans-serif" font-size="9px" fill="black">48</text><text aria-label="mean execution time in µs: 95; algorithm: (JohT) inputPerKernelValue Transposed InnerLoopUnrolled; MeanExecutionTime: 95" role="graphics-symbol" aria-roledescription="text mark" text-anchor="start" transform="translate(133.54545454545456,113)" font-family="sans-serif" font-size="9px" fill="black">95</text><text aria-label="mean execution time in µs: 70; algorithm: (JohT) inputPerKernelValue Transposed OuterLoopUnrolled; MeanExecutionTime: 70" role="graphics-symbol" aria-roledescription="text mark" text-anchor="start" transform="translate(99.45454545454545,73)" font-family="sans-serif" font-size="9px" fill="black">70</text><text aria-label="mean execution time in µs: 94; algorithm: (JohT) inputPerKernelValue Transposed Inner&amp;OuterLoopUnrolled; MeanExecutionTime: 94" role="graphics-symbol" aria-roledescription="text mark" text-anchor="start" transform="translate(132.1818181818182,93)" font-family="sans-serif" font-size="9px" fill="black">94</text><text aria-label="mean execution time in µs: 58; algorithm: (JohT) inputPerKernelValue Transposed LoopFission; MeanExecutionTime: 58" role="graphics-symbol" aria-roledescription="text mark" text-anchor="start" transform="translate(83.09090909090908,33)" font-family="sans-serif" font-size="9px" fill="black">58</text><text aria-label="mean execution time in µs: 69; algorithm: (JohT) inputPerKernelValue Transposed LoopFissionIndexArithmetic; MeanExecutionTime: 69" role="graphics-symbol" aria-roledescription="text mark" text-anchor="start" transform="translate(98.0909090909091,53)" font-family="sans-serif" font-size="9px" fill="black">69</text><text aria-label="mean execution time in µs: 130; algorithm: (JohT) kernelPerInputValue Transposed LoopFission; MeanExecutionTime: 130" role="graphics-symbol" aria-roledescription="text mark" text-anchor="start" transform="translate(181.27272727272728,233)" font-family="sans-serif" font-size="9px" fill="black">130</text><text aria-label="mean execution time in µs: 172; algorithm: (matlab-like) conv 'full' shape; MeanExecutionTime: 172" role="graphics-symbol" aria-roledescription="text mark" text-anchor="start" transform="translate(238.54545454545456,273)" font-family="sans-serif" font-size="9px" fill="black">172</text><text aria-label="mean execution time in µs: 122; algorithm: (matlab-like) conv 'valid' shape pre padded; MeanExecutionTime: 122" role="graphics-symbol" aria-roledescription="text mark" text-anchor="start" transform="translate(170.36363636363637,173)" font-family="sans-serif" font-size="9px" fill="black">122</text><text aria-label="mean execution time in µs: 159; algorithm: (wilczek) Single; MeanExecutionTime: 159" role="graphics-symbol" aria-roledescription="text mark" text-anchor="start" transform="translate(220.81818181818184,253)" font-family="sans-serif" font-size="9px" fill="black">159</text><text aria-label="mean execution time in µs: 98; algorithm: (wilczek) Inner-Loop Vectorization; MeanExecutionTime: 98" role="graphics-symbol" aria-roledescription="text mark" text-anchor="start" transform="translate(137.63636363636363,133)" font-family="sans-serif" font-size="9px" fill="black">98</text><text aria-label="mean execution time in µs: 201; algorithm: (wilczek) Outer-Loop Vectorization; MeanExecutionTime: 201" role="graphics-symbol" aria-roledescription="text mark" text-anchor="start" transform="translate(278.0909090909091,293)" font-family="sans-serif" font-size="9px" fill="black">201</text><text aria-label="mean execution time in µs: 110; algorithm: (wilczek) Outer- and Inner-Loop Vectorization; MeanExecutionTime: 110" role="graphics-symbol" aria-roledescription="text mark" text-anchor="start" transform="translate(154,153)" font-family="sans-serif" font-size="9px" fill="black">110</text><text aria-label="mean execution time in µs: 122; algorithm: (chaowang15) convolve1D; MeanExecutionTime: 122" role="graphics-symbol" aria-roledescription="text mark" text-anchor="start" transform="translate(170.36363636363637,193)" font-family="sans-serif" font-size="9px" fill="black">122</text></g></g><path class="foreground" aria-hidden="true" d="" display="none"/></g><g transform="translate(826,0)"><path class="background" aria-hidden="true" d="M0.5,0.5h300v300h-300Z" stroke="#ddd"/><g><g class="mark-group role-axis" aria-hidden="true"><g transform="translate(0.5,300.5)"><path class="background" aria-hidden="true" d="M0,0h0v0h0Z" pointer-events="none"/><g><g class="mark-rule role-axis-grid" pointer-events="none"><line transform="translate(0,0)" x2="0" y2="-300" stroke="#ddd" stroke-width="1" opacity="1"/><line transform="translate(33,0)" x2="0" y2="-300" stroke="#ddd" stroke-width="1" opacity="1"/><line transform="translate(67,0)" x2="0" y2="-300" stroke="#ddd" stroke-width="1" opacity="1"/><line transform="translate(100,0)" x2="0" y2="-300" stroke="#ddd" stroke-width="1" opacity="1"/><line transform="translate(133,0)" x2="0" y2="-300" stroke="#ddd" stroke-width="1" opacity="1"/><line transform="translate(167,0)" x2="0" y2="-300" stroke="#ddd" stroke-width="1" opacity="1"/><line transform="translate(200,0)" x2="0" y2="-300" stroke="#ddd" stroke-width="1" opacity="1"/><line transform="translate(233,0)" x2="0" y2="-300" stroke="#ddd" stroke-width="1" opacity="1"/><line transform="translate(267,0)" x2="0" y2="-300" stroke="#ddd" stroke-width="1" opacity="1"/><line transform="translate(300,0)" x2="0" y2="-300" stroke="#ddd" stroke-width="1" opacity="1"/></g></g><path class="foreground" aria-hidden="true" d="" pointer-events="none" display="none"/></g></g><g class="mark-group role-axis" role="graphics-symbol" aria-roledescription="axis" aria-label="X-axis titled 'mean execution time in µs' for a linear scale with values from 0 to 9,000"><g transform="translate(0.5,300.5)"><path class="background" aria-hidden="true" d="M0,0h0v0h0Z" pointer-events="none"/><g><g class="mark-rule role-axis-tick" pointer-events="none"><line transform="translate(0,0)" x2="0" y2="5" stroke="#888" stroke-width="1" opacity="1"/><line transform="translate(33,0)" x2="0" y2="5" stroke="#888" stroke-width="1" opacity="1"/><line transform="translate(67,0)" x2="0" y2="5" stroke="#888" stroke-width="1" opacity="1"/><line transform="translate(100,0)" x2="0" y2="5" stroke="#888" stroke-width="1" opacity="1"/><line transform="translate(133,0)" x2="0" y2="5" stroke="#888" stroke-width="1" opacity="1"/><line transform="translate(167,0)" x2="0" y2="5" stroke="#888" stroke-width="1" opacity="1"/><line transform="translate(200,0)" x2="0" y2="5" stroke="#888" stroke-width="1" opacity="1"/><line transform="translate(233,0)" x2="0" y2="5" stroke="#888" stroke-width="1" opacity="1"/><line transform="translate(267,0)" x2="0" y2="5" stroke="#888" stroke-width="1" opacity="1"/><line transform="translate(300,0)" x2="0" y2="5" stroke="#888" stroke-width="1" opacity="1"/></g><g class="mark-text role-axis-label" pointer-events="none"><text text-anchor="start" transform="translate(0,15)" font-family="sans-serif" font-size="10px" fill="#000" opacity="1">0</text><text text-anchor="middle" transform="translate(33.33333333333333,15)" font-family="sans-serif" font-size="10px" fill="#000" opacity="0">1,000</text><text text-anchor="middle" transform="translate(66.66666666666666,15)" font-family="sans-serif" font-size="10px" fill="#000" opacity="1">2,000</text><text text-anchor="middle" transform="translate(100,15)" font-family="sans-serif" font-size="10px" fill="#000" opacity="0">3,000</text><text text-anchor="middle" transform="translate(133.33333333333331,15)" font-family="sans-serif" font-size="10px" fill="#000" opacity="1">4,000</text><text text-anchor="middle" transform="translate(166.66666666666669,15)" font-family="sans-serif" font-size="10px" fill="#000" opacity="0">5,000</text><text text-anchor="middle" transform="translate(200,15)" font-family="sans-serif" font-size="10px" fill="#000" opacity="1">6,000</text><text text-anchor="middle" transform="translate(233.33333333333334,15)" font-family="sans-serif" font-size="10px" fill="#000" opacity="0">7,000</text><text text-anchor="middle" transform="translate(266.66666666666663,15)" font-family="sans-serif" font-size="10px" fill="#000" opacity="1">8,000</text><text text-anchor="end" transform="translate(300,15)" font-family="sans-serif" font-size="10px" fill="#000" opacity="0">9,000</text></g><g class="mark-rule role-axis-domain" pointer-events="none"><line transform="translate(0,0)" x2="300" y2="0" stroke="#888" stroke-width="1" opacity="1"/></g><g class="mark-text role-axis-title" pointer-events="none"><text text-anchor="middle" transform="translate(150,30)" font-family="sans-serif" font-size="11px" font-weight="bold" fill="#000" opacity="1">mean execution time in µs</text></g></g><path class="foreground" aria-hidden="true" d="" pointer-events="none" display="none"/></g></g><g class="mark-group role-axis" role="graphics-symbol" aria-roledescription="axis" aria-label="Y-axis titled 'algorithm' for a discrete scale with 15 values: (JohT) kernelPerInputValue Transposed, (JohT) inputPerKernelValue Transposed, (JohT) inputPerKernelValue Transposed LoopFission, (JohT) inputPerKernelValue Transposed LoopFissionIndexArithmetic, (JohT) inputPerKernelValue Transposed OuterLoopUnrolled, ending with (wilczek) Single"><g transform="translate(0.5,0.5)"><path class="background" aria-hidden="true" d="M0,0h0v0h0Z" pointer-events="none"/><g><g class="mark-rule role-axis-tick" pointer-events="none"><line transform="translate(0,10)" x2="-5" y2="0" stroke="#888" stroke-width="1" opacity="1"/><line transform="translate(0,30)" x2="-5" y2="0" stroke="#888" stroke-width="1" opacity="1"/><line transform="translate(0,50)" x2="-5" y2="0" stroke="#888" stroke-width="1" opacity="1"/><line transform="translate(0,70)" x2="-5" y2="0" stroke="#888" stroke-width="1" opacity="1"/><line transform="translate(0,90)" x2="-5" y2="0" stroke="#888" stroke-width="1" opacity="1"/><line transform="translate(0,110)" x2="-5" y2="0" stroke="#888" stroke-width="1" opacity="1"/><line transform="translate(0,130)" x2="-5" y2="0" stroke="#888" stroke-width="1" opacity="1"/><line transform="translate(0,150)" x2="-5" y2="0" stroke="#888" stroke-width="1" opacity="1"/><line transform="translate(0,170)" x2="-5" y2="0" stroke="#888" stroke-width="1" opacity="1"/><line transform="translate(0,190)" x2="-5" y2="0" stroke="#888" stroke-width="1" opacity="1"/><line transform="translate(0,210)" x2="-5" y2="0" stroke="#888" stroke-width="1" opacity="1"/><line transform="translate(0,230)" x2="-5" y2="0" stroke="#888" stroke-width="1" opacity="1"/><line transform="translate(0,250)" x2="-5" y2="0" stroke="#888" stroke-width="1" opacity="1"/><line transform="translate(0,270)" x2="-5" y2="0" stroke="#888" stroke-width="1" opacity="1"/><line transform="translate(0,290)" x2="-5" y2="0" stroke="#888" stroke-width="1" opacity="1"/></g><g class="mark-text role-axis-label" pointer-events="none"><text text-anchor="end" transform="translate(-7,12.5)" font-family="sans-serif" font-size="10px" fill="#000" opacity="1">(JohT) kernelPerInputValue Transposed</text><text text-anchor="end" transform="translate(-7,32.5)" font-family="sans-serif" font-size="10px" fill="#000" opacity="1">(JohT) inputPerKernelValue Transposed</text><text text-anchor="end" transform="translate(-7,52.5)" font-family="sans-serif" font-size="10px" fill="#000" opacity="1">(JohT) inputPerKernelValue Transposed LoopFission</text><text text-anchor="end" transform="translate(-7,72.5)" font-family="sans-serif" font-size="10px" fill="#000" opacity="1">(JohT) inputPerKernelValue Transposed LoopFissionIndexArithme…</text><text text-anchor="end" transform="translate(-7,92.5)" font-family="sans-serif" font-size="10px" fill="#000" opacity="1">(JohT) inputPerKernelValue Transposed OuterLoopUnrolled</text><text text-anchor="end" transform="translate(-7,112.5)" font-family="sans-serif" font-size="10px" fill="#000" opacity="1">(JohT) kernelPerInputValue Transposed LoopFission</text><text text-anchor="end" transform="translate(-7,132.5)" font-family="sans-serif" font-size="10px" fill="#000" opacity="1">(wilczek) Inner-Loop Vectorization</text><text text-anchor="end" transform="translate(-7,152.5)" font-family="sans-serif" font-size="10px" fill="#000" opacity="1">(JohT) inputPerKernelValue Transposed InnerLoopUnrolled</text><text text-anchor="end" transform="translate(-7,172.5)" font-family="sans-serif" font-size="10px" fill="#000" opacity="1">(JohT) inputPerKernelValue Transposed Inner&amp;OuterLoopUnrolled</text><text text-anchor="end" transform="translate(-7,192.5)" font-family="sans-serif" font-size="10px" fill="#000" opacity="1">(wilczek) Outer- and Inner-Loop Vectorization</text><text text-anchor="end" transform="translate(-7,212.5)" font-family="sans-serif" font-size="10px" fill="#000" opacity="1">(chaowang15) convolve1D</text><text text-anchor="end" transform="translate(-7,232.5)" font-family="sans-serif" font-size="10px" fill="#000" opacity="1">(matlab-like) conv 'full' shape</text><text text-anchor="end" transform="translate(-7,252.5)" font-family="sans-serif" font-size="10px" fill="#000" opacity="1">(matlab-like) conv 'valid' shape pre padded</text><text text-anchor="end" transform="translate(-7,272.5)" font-family="sans-serif" font-size="10px" fill="#000" opacity="1">(wilczek) Outer-Loop Vectorization</text><text text-anchor="end" transform="translate(-7,292.5)" font-family="sans-serif" font-size="10px" fill="#000" opacity="1">(wilczek) Single</text></g><g class="mark-rule role-axis-domain" pointer-events="none"><line transform="translate(0,0)" x2="0" y2="300" stroke="#888" stroke-width="1" opacity="1"/></g><g class="mark-text role-axis-title" pointer-events="none"><text text-anchor="middle" transform="translate(-320,150) rotate(-90) translate(0,-2)" font-family="sans-serif" font-size="11px" font-weight="bold" fill="#000" opacity="1">algorithm</text></g></g><path class="foreground" aria-hidden="true" d="" pointer-events="none" display="none"/></g></g><g class="mark-rect role-mark child_layer_0_marks" role="graphics-object" aria-roledescription="rect mark container"><path aria-label="mean execution time in µs: 1175; algorithm: (JohT) kernelPerInputValue Transposed" role="graphics-symbol" aria-roledescription="bar" d="M0,1.9L35.16666666666667,1.9C37.374326764642674,1.9,39.16666666666667,3.692339902024,39.16666666666667,5.9L39.16666666666667,14.099999999999998C39.16666666666667,16.307660097975997,37.374326764642674,18.099999999999998,35.16666666666667,18.099999999999998L0,18.099999999999998C0,18.099999999999998,0,18.099999999999998,0,18.099999999999998L0,1.9C0,1.9,0,1.9,0,1.9Z" fill="#4c78a8"/><path aria-label="mean execution time in µs: 1441; algorithm: (JohT) inputPerKernelValue Transposed" role="graphics-symbol" aria-roledescription="bar" d="M0,21.9L44.03333333333334,21.9C46.24099343130934,21.9,48.03333333333334,23.692339902024,48.03333333333334,25.9L48.03333333333334,34.099999999999994C48.03333333333334,36.307660097976,46.24099343130934,38.099999999999994,44.03333333333334,38.099999999999994L0,38.099999999999994C0,38.099999999999994,0,38.099999999999994,0,38.099999999999994L0,21.9C0,21.9,0,21.9,0,21.9Z" fill="#4c78a8"/><path aria-label="mean execution time in µs: 3000; algorithm: (JohT) inputPerKernelValue Transposed InnerLoopUnrolled" role="graphics-symbol" aria-roledescription="bar" d="M0,141.9L96,141.9C98.207660097976,141.9,100,143.692339902024,100,145.9L100,154.1C100,156.307660097976,98.207660097976,158.1,96,158.1L0,158.1C0,158.1,0,158.1,0,158.1L0,141.9C0,141.9,0,141.9,0,141.9Z" fill="#4c78a8"/><path aria-label="mean execution time in µs: 2174; algorithm: (JohT) inputPerKernelValue Transposed OuterLoopUnrolled" role="graphics-symbol" aria-roledescription="bar" d="M0,81.9L68.46666666666667,81.9C70.67432676464267,81.9,72.46666666666667,83.692339902024,72.46666666666667,85.9L72.46666666666667,94.10000000000001C72.46666666666667,96.30766009797601,70.67432676464267,98.10000000000001,68.46666666666667,98.10000000000001L0,98.10000000000001C0,98.10000000000001,0,98.10000000000001,0,98.10000000000001L0,81.9C0,81.9,0,81.9,0,81.9Z" fill="#4c78a8"/><path aria-label="mean execution time in µs: 3004; algorithm: (JohT) inputPerKernelValue Transposed Inner&amp;OuterLoopUnrolled" role="graphics-symbol" aria-roledescription="bar" d="M0,161.9L96.13333333333334,161.9C98.34099343130934,161.9,100.13333333333334,163.692339902024,100.13333333333334,165.9L100.13333333333334,174.1C100.13333333333334,176.307660097976,98.34099343130934,178.1,96.13333333333334,178.1L0,178.1C0,178.1,0,178.1,0,178.1L0,161.9C0,161.9,0,161.9,0,161.9Z" fill="#4c78a8"/><path aria-label="mean execution time in µs: 1649; algorithm: (JohT) inputPerKernelValue Transposed LoopFission" role="graphics-symbol" aria-roledescription="bar" d="M0,41.9L50.96666666666667,41.9C53.17432676464267,41.9,54.96666666666667,43.692339902023996,54.96666666666667,45.9L54.96666666666667,54.099999999999994C54.96666666666667,56.307660097976,53.17432676464267,58.099999999999994,50.96666666666667,58.099999999999994L0,58.099999999999994C0,58.099999999999994,0,58.099999999999994,0,58.099999999999994L0,41.9C0,41.9,0,41.9,0,41.9Z" fill="#4c78a8"/><path aria-label="mean execution time in µs: 2025; algorithm: (JohT) inputPerKernelValue Transposed LoopFissionIndexArithmetic" role="graphics-symbol" aria-roledescription="bar" d="M0,61.9L63.5,61.9C65.707660097976,61.9,67.5,63.692339902023996,67.5,65.9L67.5,74.1C67.5,76.307660097976,65.707660097976,78.1,63.5,78.1L0,78.1C0,78.1,0,78.1,0,78.1L0,61.9C0,61.9,0,61.9,0,61.9Z" fill="#4c78a8"/><path aria-label="mean execution time in µs: 2176; algorithm: (JohT) kernelPerInputValue Transposed LoopFission" role="graphics-symbol" aria-roledescription="bar" d="M0,101.9L68.53333333333333,101.9C70.74099343130933,101.9,72.53333333333333,103.692339902024,72.53333333333333,105.9L72.53333333333333,114.10000000000001C72.53333333333333,116.30766009797601,70.74099343130933,118.10000000000001,68.53333333333333,118.10000000000001L0,118.10000000000001C0,118.10000000000001,0,118.10000000000001,0,118.10000000000001L0,101.9C0,101.9,0,101.9,0,101.9Z" fill="#4c78a8"/><path aria-label="mean execution time in µs: 7602; algorithm: (matlab-like) conv 'full' shape" role="graphics-symbol" aria-roledescription="bar" d="M0,221.9L249.4,221.9C251.607660097976,221.9,253.4,223.692339902024,253.4,225.9L253.4,234.1C253.4,236.307660097976,251.607660097976,238.1,249.4,238.1L0,238.1C0,238.1,0,238.1,0,238.1L0,221.9C0,221.9,0,221.9,0,221.9Z" fill="#4c78a8"/><path aria-label="mean execution time in µs: 7718; algorithm: (matlab-like) conv 'valid' shape pre padded" role="graphics-symbol" aria-roledescription="bar" d="M0,241.9L253.26666666666665,241.9C255.47432676464265,241.9,257.26666666666665,243.692339902024,257.26666666666665,245.9L257.26666666666665,254.10000000000002C257.26666666666665,256.307660097976,255.47432676464265,258.1,253.26666666666665,258.1L0,258.1C0,258.1,0,258.1,0,258.1L0,241.9C0,241.9,0,241.9,0,241.9Z" fill="#4c78a8"/><path aria-label="mean execution time in µs: 8147; algorithm: (wilczek) Single" role="graphics-symbol" aria-roledescription="bar" d="M0,281.9L267.56666666666666,281.9C269.77432676464264,281.9,271.56666666666666,283.692339902024,271.56666666666666,285.9L271.56666666666666,294.09999999999997C271.56666666666666,296.30766009797594,269.77432676464264,298.09999999999997,267.56666666666666,298.09999999999997L0,298.09999999999997C0,298.09999999999997,0,298.09999999999997,0,298.09999999999997L0,281.9C0,281.9,0,281.9,0,281.9Z" fill="#4c78a8"/><path aria-label="mean execution time in µs: 2806; algorithm: (wilczek) Inner-Loop Vectorization" role="graphics-symbol" aria-roledescription="bar" d="M0,121.9L89.53333333333333,121.9C91.74099343130933,121.9,93.53333333333333,123.692339902024,93.53333333333333,125.9L93.53333333333333,134.1C93.53333333333333,136.307660097976,91.74099343130933,138.1,89.53333333333333,138.1L0,138.1C0,138.1,0,138.1,0,138.1L0,121.9C0,121.9,0,121.9,0,121.9Z" fill="#4c78a8"/><path aria-label="mean execution time in µs: 8021; algorithm: (wilczek) Outer-Loop Vectorization" role="graphics-symbol" aria-roledescription="bar" d="M0,261.9L263.3666666666667,261.9C265.57432676464265,261.9,267.3666666666667,263.692339902024,267.3666666666667,265.9L267.3666666666667,274.09999999999997C267.3666666666667,276.30766009797594,265.57432676464265,278.09999999999997,263.3666666666667,278.09999999999997L0,278.09999999999997C0,278.09999999999997,0,278.09999999999997,0,278.09999999999997L0,261.9C0,261.9,0,261.9,0,261.9Z" fill="#4c78a8"/><path aria-label="mean execution time in µs: 3345; algorithm: (wilczek) Outer- and Inner-Loop Vectorization" role="graphics-symbol" aria-roledescription="bar" d="M0,181.9L107.5,181.9C109.707660097976,181.9,111.5,183.692339902024,111.5,185.9L111.5,194.1C111.5,196.307660097976,109.707660097976,198.1,107.5,198.1L0,198.1C0,198.1,0,198.1,0,198.1L0,181.9C0,181.9,0,181.9,0,181.9Z" fill="#4c78a8"/><path aria-label="mean execution time in µs: 7599; algorithm: (chaowang15) convolve1D" role="graphics-symbol" aria-roledescription="bar" d="M0,201.9L249.3,201.9C251.50766009797601,201.9,253.3,203.692339902024,253.3,205.9L253.3,214.1C253.3,216.307660097976,251.50766009797601,218.1,249.3,218.1L0,218.1C0,218.1,0,218.1,0,218.1L0,201.9C0,201.9,0,201.9,0,201.9Z" fill="#4c78a8"/></g><g class="mark-text role-mark child_layer_1_marks" role="graphics-object" aria-roledescription="text mark container"><text aria-label="mean execution time in µs: 1175; algorithm: (JohT) kernelPerInputValue Transposed; MeanExecutionTime: 1175" role="graphics-symbol" aria-roledescription="text mark" text-anchor="start" transform="translate(43.16666666666667,13)" font-family="sans-serif" font-size="9px" fill="black">1175</text><text aria-label="mean execution time in µs: 1441; algorithm: (JohT) inputPerKernelValue Transposed; MeanExecutionTime: 1441" role="graphics-symbol" aria-roledescription="text mark" text-anchor="start" transform="translate(52.03333333333334,33)" font-family="sans-serif" font-size="9px" fill="black">1441</text><text aria-label="mean execution time in µs: 3000; algorithm: (JohT) inputPerKernelValue Transposed InnerLoopUnrolled; MeanExecutionTime: 3000" role="graphics-symbol" aria-roledescription="text mark" text-anchor="start" transform="translate(104,153)" font-family="sans-serif" font-size="9px" fill="black">3000</text><text aria-label="mean execution time in µs: 2174; algorithm: (JohT) inputPerKernelValue Transposed OuterLoopUnrolled; MeanExecutionTime: 2174" role="graphics-symbol" aria-roledescription="text mark" text-anchor="start" transform="translate(76.46666666666667,93)" font-family="sans-serif" font-size="9px" fill="black">2174</text><text aria-label="mean execution time in µs: 3004; algorithm: (JohT) inputPerKernelValue Transposed Inner&amp;OuterLoopUnrolled; MeanExecutionTime: 3004" role="graphics-symbol" aria-roledescription="text mark" text-anchor="start" transform="translate(104.13333333333334,173)" font-family="sans-serif" font-size="9px" fill="black">3004</text><text aria-label="mean execution time in µs: 1649; algorithm: (JohT) inputPerKernelValue Transposed LoopFission; MeanExecutionTime: 1649" role="graphics-symbol" aria-roledescription="text mark" text-anchor="start" transform="translate(58.96666666666667,53)" font-family="sans-serif" font-size="9px" fill="black">1649</text><text aria-label="mean execution time in µs: 2025; algorithm: (JohT) inputPerKernelValue Transposed LoopFissionIndexArithmetic; MeanExecutionTime: 2025" role="graphics-symbol" aria-roledescription="text mark" text-anchor="start" transform="translate(71.5,73)" font-family="sans-serif" font-size="9px" fill="black">2025</text><text aria-label="mean execution time in µs: 2176; algorithm: (JohT) kernelPerInputValue Transposed LoopFission; MeanExecutionTime: 2176" role="graphics-symbol" aria-roledescription="text mark" text-anchor="start" transform="translate(76.53333333333333,113)" font-family="sans-serif" font-size="9px" fill="black">2176</text><text aria-label="mean execution time in µs: 7602; algorithm: (matlab-like) conv 'full' shape; MeanExecutionTime: 7602" role="graphics-symbol" aria-roledescription="text mark" text-anchor="start" transform="translate(257.4,233)" font-family="sans-serif" font-size="9px" fill="black">7602</text><text aria-label="mean execution time in µs: 7718; algorithm: (matlab-like) conv 'valid' shape pre padded; MeanExecutionTime: 7718" role="graphics-symbol" aria-roledescription="text mark" text-anchor="start" transform="translate(261.26666666666665,253)" font-family="sans-serif" font-size="9px" fill="black">7718</text><text aria-label="mean execution time in µs: 8147; algorithm: (wilczek) Single; MeanExecutionTime: 8147" role="graphics-symbol" aria-roledescription="text mark" text-anchor="start" transform="translate(275.56666666666666,293)" font-family="sans-serif" font-size="9px" fill="black">8147</text><text aria-label="mean execution time in µs: 2806; algorithm: (wilczek) Inner-Loop Vectorization; MeanExecutionTime: 2806" role="graphics-symbol" aria-roledescription="text mark" text-anchor="start" transform="translate(97.53333333333333,133)" font-family="sans-serif" font-size="9px" fill="black">2806</text><text aria-label="mean execution time in µs: 8021; algorithm: (wilczek) Outer-Loop Vectorization; MeanExecutionTime: 8021" role="graphics-symbol" aria-roledescription="text mark" text-anchor="start" transform="translate(271.3666666666667,273)" font-family="sans-serif" font-size="9px" fill="black">8021</text><text aria-label="mean execution time in µs: 3345; algorithm: (wilczek) Outer- and Inner-Loop Vectorization; MeanExecutionTime: 3345" role="graphics-symbol" aria-roledescription="text mark" text-anchor="start" transform="translate(115.5,193)" font-family="sans-serif" font-size="9px" fill="black">3345</text><text aria-label="mean execution time in µs: 7599; algorithm: (chaowang15) convolve1D; MeanExecutionTime: 7599" role="graphics-symbol" aria-roledescription="text mark" text-anchor="start" transform="translate(257.3,213)" font-family="sans-serif" font-size="9px" fill="black">7599</text></g></g><path class="foreground" aria-hidden="true" d="" display="none"/></g></g></g><path class="foreground" aria-hidden="true" d="" display="none"/></g></g></g></svg>