<svg xmlns="http://www.w3.org/2000/svg" xmlns:xlink="http://www.w3.org/1999/xlink" version="1.1" class="marks" width="1485" height="404" viewBox="0 0 1485 404"><rect width="1485" height="404" fill="white"/><g fill="none" stroke-miterlimit="10" transform="translate(509,66)"><g class="mark-group role-frame root" role="graphics-object" aria-roledescription="group mark container"><g transform="translate(0,0)"><path class="background" aria-hidden="true" d="M0,0h0v0h0Z"/><g><g class="mark-group role-column-title column-title" role="graphics-object" aria-roledescription="group mark container"><g transform="translate(233,-35)"><path class="background" aria-hidden="true" d="M0,0h0v0h0Z"/><g><g class="mark-group role-title"><g transform="translate(0,-26)"><path class="background" aria-hidden="true" d="M0,0h0v0h0Z" pointer-events="none"/><g><g class="mark-text role-title-text" role="graphics-symbol" aria-roledescription="title" aria-label="Title text 'Convolution Benchmarks'" pointer-events="none"><text text-anchor="middle" transform="translate(0,13)" font-family="sans-serif" font-size="16px" font-weight="bold" fill="#000" opacity="1">Convolution Benchmarks</text></g></g><path class="foreground" aria-hidden="true" d="" pointer-events="none" display="none"/></g></g></g><path class="foreground" aria-hidden="true" d="" display="none"/></g></g><g class="mark-group role-column-header column_header" role="graphics-object" aria-roledescription="group mark container"><g transform="translate(0,-1)"><path class="background" aria-hidden="true" d="M0,0h200v0h-200Z"/><g><g class="mark-group role-title"><g transform="translate(100,-24)"><path class="background" aria-hidden="true" d="M0,0h0v0h0Z" pointer-events="none"/><g><g class="mark-text role-title-text" role="graphics-symbol" aria-roledescription="title" aria-label="Title text 'kernel size 16'" pointer-events="none"><text text-anchor="middle" transform="translate(0,11)" font-family="sans-serif" font-size="14px" fill="#000" opacity="1">kernel size 16</text></g></g><path class="foreground" aria-hidden="true" d="" pointer-events="none" display="none"/></g></g></g><path class="foreground" aria-hidden="true" d="" display="none"/></g><g transform="translate(741,-1)"><path class="background" aria-hidden="true" d="M0,0h200v0h-200Z"/><g><g class="mark-group role-title"><g transform="translate(100,-24)"><path class="background" aria-hidden="true" d="M0,0h0v0h0Z" pointer-events="none"/><g><g class="mark-text role-title-text" role="graphics-symbol" aria-roledescription="title" aria-label="Title text 'kernel size 512'" pointer-events="none"><text text-anchor="middle" transform="translate(0,11)" font-family="sans-serif" font-size="14px" fill="#000" opacity="1">kernel size 512</text></g></g><path class="foreground" aria-hidden="true" d="" pointer-events="none" display="none"/></g></g></g><path class="foreground" aria-hidden="true" d="" display="none"/></g></g><g class="mark-group role-scope cell" role="graphics-object" aria-roledescription="group mark container"><g transform="translate(0,0)"><path class="background" aria-hidden="true" d="M0.5,0.5h200v300h-200Z" stroke="#ddd"/><g><g class="mark-group role-axis" aria-hidden="true"><g transform="translate(0.5,300.5)"><path class="background" aria-hidden="true" d="M0,0h0v0h0Z" pointer-events="none"/><g><g class="mark-rule role-axis-grid" pointer-events="none"><line transform="translate(0,0)" x2="0" y2="-300" stroke="#ddd" stroke-width="1" opacity="1"/><line transform="translate(42,0)" x2="0" y2="-300" stroke="#ddd" stroke-width="1" opacity="1"/><line transform="translate(83,0)" x2="0" y2="-300" stroke="#ddd" stroke-width="1" opacity="1"/><line transform="translate(125,0)" x2="0" y2="-300" stroke="#ddd" stroke-width="1" opacity="1"/><line transform="translate(167,0)" x2="0" y2="-300" stroke="#ddd" stroke-width="1" opacity="1"/></g></g><path class="foreground" aria-hidden="true" d="" pointer-events="none" display="none"/></g></g><g class="mark-group role-axis" role="graphics-symbol" aria-roledescription="axis" aria-label="X-axis titled 'mean execution time in µs' for a linear scale with values from 0 to 240"><g transform="translate(0.5,300.5)"><path class="background" aria-hidden="true" d="M0,0h0v0h0Z" pointer-events="none"/><g><g class="mark-rule role-axis-tick" pointer-events="none"><line transform="translate(0,0)" x2="0" y2="5" stroke="#888" stroke-width="1" opacity="1"/><line transform="translate(42,0)" x2="0" y2="5" stroke="#888" stroke-width="1" opacity="1"/><line transform="translate(83,0)" x2="0" y2="5" stroke="#888" stroke-width="1" opacity="1"/><line transform="translate(125,0)" x2="0" y2="5" stroke="#888" stroke-width="1" opacity="1"/><line transform="translate(167,0)" x2="0" y2="5" stroke="#888" stroke-width="1" opacity="1"/></g><g class="mark-text role-axis-label" pointer-events="none"><text text-anchor="start" transform="translate(0,15)" font-family="sans-serif" font-size="10px" fill="#000" opacity="1">0</text><text text-anchor="middle" transform="translate(41.66666666666667,15)" font-family="sans-serif" font-size="10px" fill="#000" opacity="1">50</text><text text-anchor="middle" transform="translate(83.33333333333334,15)" font-family="sans-serif" font-size="10px" fill="#000" opacity="1">100</text><text text-anchor="middle" transform="translate(125,15)" font-family="sans-serif" font-size="10px" fill="#000" opacity="1">150</text><text text-anchor="middle" transform="translate(166.66666666666669,15)" font-family="sans-serif" font-size="10px" fill="#000" opacity="1">200</text></g><g class="mark-rule role-axis-domain" pointer-events="none"><line transform="translate(0,0)" x2="200" y2="0" stroke="#888" stroke-width="1" opacity="1"/></g><g class="mark-text role-axis-title" pointer-events="none"><text text-anchor="middle" transform="translate(100,30)" font-family="sans-serif" font-size="11px" font-weight="bold" fill="#000" opacity="1">mean execution time in µs</text></g></g><path class="foreground" aria-hidden="true" d="" pointer-events="none" display="none"/></g></g><g class="mark-group role-axis" role="graphics-symbol" aria-roledescription="axis" aria-label="Y-axis titled 'algorithm' for a discrete scale with 15 values: (JohT) inputPerKernelValue Transposed, (JohT) inputPerKernelValue Transposed OuterLoopUnrolled, (JohT) inputPerKernelValue Transposed LoopFissionIndexArithmetic, (JohT) inputPerKernelValue Transposed LoopFission, (JohT) inputPerKernelValue Transposed Inner&amp;OuterLoopUnrolled, ending with (matlab-like) conv 'valid' shape pre padded"><g transform="translate(0.5,0.5)"><path class="background" aria-hidden="true" d="M0,0h0v0h0Z" pointer-events="none"/><g><g class="mark-rule role-axis-tick" pointer-events="none"><line transform="translate(0,10)" x2="-5" y2="0" stroke="#888" stroke-width="1" opacity="1"/><line transform="translate(0,30)" x2="-5" y2="0" stroke="#888" stroke-width="1" opacity="1"/><line transform="translate(0,50)" x2="-5" y2="0" stroke="#888" stroke-width="1" opacity="1"/><line transform="translate(0,70)" x2="-5" y2="0" stroke="#888" stroke-width="1" opacity="1"/><line transform="translate(0,90)" x2="-5" y2="0" stroke="#888" stroke-width="1" opacity="1"/><line transform="translate(0,110)" x2="-5" y2="0" stroke="#888" stroke-width="1" opacity="1"/><line transform="translate(0,130)" x2="-5" y2="0" stroke="#888" stroke-width="1" opacity="1"/><line transform="translate(0,150)" x2="-5" y2="0" stroke="#888" stroke-width="1" opacity="1"/><line transform="translate(0,170)" x2="-5" y2="0" stroke="#888" stroke-width="1" opacity="1"/><line transform="translate(0,190)" x2="-5" y2="0" stroke="#888" stroke-width="1" opacity="1"/><line transform="translate(0,210)" x2="-5" y2="0" stroke="#888" stroke-width="1" opacity="1"/><line transform="translate(0,230)" x2="-5" y2="0" stroke="#888" stroke-width="1" opacity="1"/><line transform="translate(0,250)" x2="-5" y2="0" stroke="#888" stroke-width="1" opacity="1"/><line transform="translate(0,270)" x2="-5" y2="0" stroke="#888" stroke-width="1" opacity="1"/><line transform="translate(0,290)" x2="-5" y2="0" stroke="#888" stroke-width="1" opacity="1"/></g><g class="mark-text role-axis-label" pointer-events="none"><text text-anchor="end" transform="translate(-7,12.5)" font-family="sans-serif" font-size="10px" fill="#000" opacity="1">(JohT) inputPerKernelValue Transposed</text><text text-anchor="end" transform="translate(-7,32.5)" font-family="sans-serif" font-size="10px" fill="#000" opacity="1">(JohT) inputPerKernelValue Transposed OuterLoopUnrolled</text><text text-anchor="end" transform="translate(-7,52.5)" font-family="sans-serif" font-size="10px" fill="#000" opacity="1">(JohT) inputPerKernelValue Transposed LoopFissionIndexArithme…</text><text text-anchor="end" transform="translate(-7,72.5)" font-family="sans-serif" font-size="10px" fill="#000" opacity="1">(JohT) inputPerKernelValue Transposed LoopFission</text><text text-anchor="end" transform="translate(-7,92.5)" font-family="sans-serif" font-size="10px" fill="#000" opacity="1">(JohT) inputPerKernelValue Transposed Inner&amp;OuterLoopUnrolled</text><text text-anchor="end" transform="translate(-7,112.5)" font-family="sans-serif" font-size="10px" fill="#000" opacity="1">(JohT) inputPerKernelValue Transposed InnerLoopUnrolled</text><text text-anchor="end" transform="translate(-7,132.5)" font-family="sans-serif" font-size="10px" fill="#000" opacity="1">(wilczek) Inner-Loop Vectorization</text><text text-anchor="end" transform="translate(-7,152.5)" font-family="sans-serif" font-size="10px" fill="#000" opacity="1">(wilczek) Outer- and Inner-Loop Vectorization</text><text text-anchor="end" transform="translate(-7,172.5)" font-family="sans-serif" font-size="10px" fill="#000" opacity="1">(JohT) kernelPerInputValue Transposed LoopFission</text><text text-anchor="end" transform="translate(-7,192.5)" font-family="sans-serif" font-size="10px" fill="#000" opacity="1">(JohT) kernelPerInputValue Transposed</text><text text-anchor="end" transform="translate(-7,212.5)" font-family="sans-serif" font-size="10px" fill="#000" opacity="1">(wilczek) Single</text><text text-anchor="end" transform="translate(-7,232.5)" font-family="sans-serif" font-size="10px" fill="#000" opacity="1">(wilczek) Outer-Loop Vectorization</text><text text-anchor="end" transform="translate(-7,252.5)" font-family="sans-serif" font-size="10px" fill="#000" opacity="1">(chaowang15) convolve1D</text><text text-anchor="end" transform="translate(-7,272.5)" font-family="sans-serif" font-size="10px" fill="#000" opacity="1">(matlab-like) conv 'full' shape</text><text text-anchor="end" transform="translate(-7,292.5)" font-family="sans-serif" font-size="10px" fill="#000" opacity="1">(matlab-like) conv 'valid' shape pre padded</text></g><g class="mark-rule role-axis-domain" pointer-events="none"><line transform="translate(0,0)" x2="0" y2="300" stroke="#888" stroke-width="1" opacity="1"/></g><g class="mark-text role-axis-title" pointer-events="none"><text text-anchor="middle" transform="translate(-320,150) rotate(-90) translate(0,-2)" font-family="sans-serif" font-size="11px" font-weight="bold" fill="#000" opacity="1">algorithm</text></g></g><path class="foreground" aria-hidden="true" d="" pointer-events="none" display="none"/></g></g><g class="mark-rect role-mark child_layer_0_marks" role="graphics-object" aria-roledescription="rect mark container"><path aria-label="mean execution time in µs: 175; algorithm: (JohT) kernelPerInputValue Transposed" role="graphics-symbol" aria-roledescription="bar" d="M0,181.9L141.83333333333331,181.9C144.04099343130932,181.9,145.83333333333331,183.692339902024,145.83333333333331,185.9L145.83333333333331,194.1C145.83333333333331,196.307660097976,144.04099343130932,198.1,141.83333333333331,198.1L0,198.1C0,198.1,0,198.1,0,198.1L0,181.9C0,181.9,0,181.9,0,181.9Z" fill="#4c78a8"/><path aria-label="mean execution time in µs: 77; algorithm: (JohT) inputPerKernelValue Transposed" role="graphics-symbol" aria-roledescription="bar" d="M0,1.9L60.16666666666667,1.9C62.374326764642674,1.9,64.16666666666667,3.692339902024,64.16666666666667,5.9L64.16666666666667,14.099999999999998C64.16666666666667,16.307660097975997,62.374326764642674,18.099999999999998,60.16666666666667,18.099999999999998L0,18.099999999999998C0,18.099999999999998,0,18.099999999999998,0,18.099999999999998L0,1.9C0,1.9,0,1.9,0,1.9Z" fill="#4c78a8"/><path aria-label="mean execution time in µs: 138; algorithm: (JohT) inputPerKernelValue Transposed InnerLoopUnrolled" role="graphics-symbol" aria-roledescription="bar" d="M0,101.9L110.99999999999999,101.9C113.20766009797599,101.9,114.99999999999999,103.692339902024,114.99999999999999,105.9L114.99999999999999,114.10000000000001C114.99999999999999,116.30766009797601,113.20766009797599,118.10000000000001,110.99999999999999,118.10000000000001L0,118.10000000000001C0,118.10000000000001,0,118.10000000000001,0,118.10000000000001L0,101.9C0,101.9,0,101.9,0,101.9Z" fill="#4c78a8"/><path aria-label="mean execution time in µs: 104; algorithm: (JohT) inputPerKernelValue Transposed OuterLoopUnrolled" role="graphics-symbol" aria-roledescription="bar" d="M0,21.9L82.66666666666667,21.9C84.87432676464267,21.9,86.66666666666667,23.692339902024,86.66666666666667,25.9L86.66666666666667,34.099999999999994C86.66666666666667,36.307660097976,84.87432676464267,38.099999999999994,82.66666666666667,38.099999999999994L0,38.099999999999994C0,38.099999999999994,0,38.099999999999994,0,38.099999999999994L0,21.9C0,21.9,0,21.9,0,21.9Z" fill="#4c78a8"/><path aria-label="mean execution time in µs: 135; algorithm: (JohT) inputPerKernelValue Transposed Inner&amp;OuterLoopUnrolled" role="graphics-symbol" aria-roledescription="bar" d="M0,81.9L108.5,81.9C110.707660097976,81.9,112.5,83.692339902024,112.5,85.9L112.5,94.10000000000001C112.5,96.30766009797601,110.707660097976,98.10000000000001,108.5,98.10000000000001L0,98.10000000000001C0,98.10000000000001,0,98.10000000000001,0,98.10000000000001L0,81.9C0,81.9,0,81.9,0,81.9Z" fill="#4c78a8"/><path aria-label="mean execution time in µs: 121; algorithm: (JohT) inputPerKernelValue Transposed LoopFission" role="graphics-symbol" aria-roledescription="bar" d="M0,61.9L96.83333333333333,61.9C99.04099343130933,61.9,100.83333333333333,63.692339902023996,100.83333333333333,65.9L100.83333333333333,74.1C100.83333333333333,76.307660097976,99.04099343130933,78.1,96.83333333333333,78.1L0,78.1C0,78.1,0,78.1,0,78.1L0,61.9C0,61.9,0,61.9,0,61.9Z" fill="#4c78a8"/><path aria-label="mean execution time in µs: 104; algorithm: (JohT) inputPerKernelValue Transposed LoopFissionIndexArithmetic" role="graphics-symbol" aria-roledescription="bar" d="M0,41.9L82.66666666666667,41.9C84.87432676464267,41.9,86.66666666666667,43.692339902023996,86.66666666666667,45.9L86.66666666666667,54.099999999999994C86.66666666666667,56.307660097976,84.87432676464267,58.099999999999994,82.66666666666667,58.099999999999994L0,58.099999999999994C0,58.099999999999994,0,58.099999999999994,0,58.099999999999994L0,41.9C0,41.9,0,41.9,0,41.9Z" fill="#4c78a8"/><path aria-label="mean execution time in µs: 172; algorithm: (JohT) kernelPerInputValue Transposed LoopFission" role="graphics-symbol" aria-roledescription="bar" d="M0,161.9L139.33333333333334,161.9C141.54099343130935,161.9,143.33333333333334,163.692339902024,143.33333333333334,165.9L143.33333333333334,174.1C143.33333333333334,176.307660097976,141.54099343130935,178.1,139.33333333333334,178.1L0,178.1C0,178.1,0,178.1,0,178.1L0,161.9C0,161.9,0,161.9,0,161.9Z" fill="#4c78a8"/><path aria-label="mean execution time in µs: 226; algorithm: (matlab-like) conv 'full' shape" role="graphics-symbol" aria-roledescription="bar" d="M0,261.9L184.33333333333334,261.9C186.54099343130935,261.9,188.33333333333334,263.692339902024,188.33333333333334,265.9L188.33333333333334,274.09999999999997C188.33333333333334,276.30766009797594,186.54099343130935,278.09999999999997,184.33333333333334,278.09999999999997L0,278.09999999999997C0,278.09999999999997,0,278.09999999999997,0,278.09999999999997L0,261.9C0,261.9,0,261.9,0,261.9Z" fill="#4c78a8"/><path aria-label="mean execution time in µs: 229; algorithm: (matlab-like) conv 'valid' shape pre padded" role="graphics-symbol" aria-roledescription="bar" d="M0,281.9L186.83333333333334,281.9C189.04099343130935,281.9,190.83333333333334,283.692339902024,190.83333333333334,285.9L190.83333333333334,294.09999999999997C190.83333333333334,296.30766009797594,189.04099343130935,298.09999999999997,186.83333333333334,298.09999999999997L0,298.09999999999997C0,298.09999999999997,0,298.09999999999997,0,298.09999999999997L0,281.9C0,281.9,0,281.9,0,281.9Z" fill="#4c78a8"/><path aria-label="mean execution time in µs: 212; algorithm: (wilczek) Single" role="graphics-symbol" aria-roledescription="bar" d="M0,201.9L172.66666666666666,201.9C174.87432676464266,201.9,176.66666666666666,203.692339902024,176.66666666666666,205.9L176.66666666666666,214.1C176.66666666666666,216.307660097976,174.87432676464266,218.1,172.66666666666666,218.1L0,218.1C0,218.1,0,218.1,0,218.1L0,201.9C0,201.9,0,201.9,0,201.9Z" fill="#4c78a8"/><path aria-label="mean execution time in µs: 148; algorithm: (wilczek) Inner-Loop Vectorization" role="graphics-symbol" aria-roledescription="bar" d="M0,121.9L119.33333333333334,121.9C121.54099343130935,121.9,123.33333333333334,123.692339902024,123.33333333333334,125.9L123.33333333333334,134.1C123.33333333333334,136.307660097976,121.54099343130935,138.1,119.33333333333334,138.1L0,138.1C0,138.1,0,138.1,0,138.1L0,121.9C0,121.9,0,121.9,0,121.9Z" fill="#4c78a8"/><path aria-label="mean execution time in µs: 214; algorithm: (wilczek) Outer-Loop Vectorization" role="graphics-symbol" aria-roledescription="bar" d="M0,221.9L174.33333333333334,221.9C176.54099343130935,221.9,178.33333333333334,223.692339902024,178.33333333333334,225.9L178.33333333333334,234.1C178.33333333333334,236.307660097976,176.54099343130935,238.1,174.33333333333334,238.1L0,238.1C0,238.1,0,238.1,0,238.1L0,221.9C0,221.9,0,221.9,0,221.9Z" fill="#4c78a8"/><path aria-label="mean execution time in µs: 153; algorithm: (wilczek) Outer- and Inner-Loop Vectorization" role="graphics-symbol" aria-roledescription="bar" d="M0,141.9L123.49999999999999,141.9C125.70766009797599,141.9,127.49999999999999,143.692339902024,127.49999999999999,145.9L127.49999999999999,154.1C127.49999999999999,156.307660097976,125.70766009797599,158.1,123.49999999999999,158.1L0,158.1C0,158.1,0,158.1,0,158.1L0,141.9C0,141.9,0,141.9,0,141.9Z" fill="#4c78a8"/><path aria-label="mean execution time in µs: 215; algorithm: (chaowang15) convolve1D" role="graphics-symbol" aria-roledescription="bar" d="M0,241.9L175.16666666666669,241.9C177.3743267646427,241.9,179.16666666666669,243.692339902024,179.16666666666669,245.9L179.16666666666669,254.10000000000002C179.16666666666669,256.307660097976,177.3743267646427,258.1,175.16666666666669,258.1L0,258.1C0,258.1,0,258.1,0,258.1L0,241.9C0,241.9,0,241.9,0,241.9Z" fill="#4c78a8"/></g><g class="mark-text role-mark child_layer_1_marks" role="graphics-object" aria-roledescription="text mark container"><text aria-label="mean execution time in µs: 175; algorithm: (JohT) kernelPerInputValue Transposed; MeanExecutionTime: 175" role="graphics-symbol" aria-roledescription="text mark" text-anchor="start" transform="translate(149.83333333333331,193)" font-family="sans-serif" font-size="9px" fill="black">175</text><text aria-label="mean execution time in µs: 77; algorithm: (JohT) inputPerKernelValue Transposed; MeanExecutionTime: 77" role="graphics-symbol" aria-roledescription="text mark" text-anchor="start" transform="translate(68.16666666666667,13)" font-family="sans-serif" font-size="9px" fill="black">77</text><text aria-label="mean execution time in µs: 138; algorithm: (JohT) inputPerKernelValue Transposed InnerLoopUnrolled; MeanExecutionTime: 138" role="graphics-symbol" aria-roledescription="text mark" text-anchor="start" transform="translate(118.99999999999999,113)" font-family="sans-serif" font-size="9px" fill="black">138</text><text aria-label="mean execution time in µs: 104; algorithm: (JohT) inputPerKernelValue Transposed OuterLoopUnrolled; MeanExecutionTime: 104" role="graphics-symbol" aria-roledescription="text mark" text-anchor="start" transform="translate(90.66666666666667,33)" font-family="sans-serif" font-size="9px" fill="black">104</text><text aria-label="mean execution time in µs: 135; algorithm: (JohT) inputPerKernelValue Transposed Inner&amp;OuterLoopUnrolled; MeanExecutionTime: 135" role="graphics-symbol" aria-roledescription="text mark" text-anchor="start" transform="translate(116.5,93)" font-family="sans-serif" font-size="9px" fill="black">135</text><text aria-label="mean execution time in µs: 121; algorithm: (JohT) inputPerKernelValue Transposed LoopFission; MeanExecutionTime: 121" role="graphics-symbol" aria-roledescription="text mark" text-anchor="start" transform="translate(104.83333333333333,73)" font-family="sans-serif" font-size="9px" fill="black">121</text><text aria-label="mean execution time in µs: 104; algorithm: (JohT) inputPerKernelValue Transposed LoopFissionIndexArithmetic; MeanExecutionTime: 104" role="graphics-symbol" aria-roledescription="text mark" text-anchor="start" transform="translate(90.66666666666667,53)" font-family="sans-serif" font-size="9px" fill="black">104</text><text aria-label="mean execution time in µs: 172; algorithm: (JohT) kernelPerInputValue Transposed LoopFission; MeanExecutionTime: 172" role="graphics-symbol" aria-roledescription="text mark" text-anchor="start" transform="translate(147.33333333333334,173)" font-family="sans-serif" font-size="9px" fill="black">172</text><text aria-label="mean execution time in µs: 226; algorithm: (matlab-like) conv 'full' shape; MeanExecutionTime: 226" role="graphics-symbol" aria-roledescription="text mark" text-anchor="start" transform="translate(192.33333333333334,273)" font-family="sans-serif" font-size="9px" fill="black">226</text><text aria-label="mean execution time in µs: 229; algorithm: (matlab-like) conv 'valid' shape pre padded; MeanExecutionTime: 229" role="graphics-symbol" aria-roledescription="text mark" text-anchor="start" transform="translate(194.83333333333334,293)" font-family="sans-serif" font-size="9px" fill="black">229</text><text aria-label="mean execution time in µs: 212; algorithm: (wilczek) Single; MeanExecutionTime: 212" role="graphics-symbol" aria-roledescription="text mark" text-anchor="start" transform="translate(180.66666666666666,213)" font-family="sans-serif" font-size="9px" fill="black">212</text><text aria-label="mean execution time in µs: 148; algorithm: (wilczek) Inner-Loop Vectorization; MeanExecutionTime: 148" role="graphics-symbol" aria-roledescription="text mark" text-anchor="start" transform="translate(127.33333333333334,133)" font-family="sans-serif" font-size="9px" fill="black">148</text><text aria-label="mean execution time in µs: 214; algorithm: (wilczek) Outer-Loop Vectorization; MeanExecutionTime: 214" role="graphics-symbol" aria-roledescription="text mark" text-anchor="start" transform="translate(182.33333333333334,233)" font-family="sans-serif" font-size="9px" fill="black">214</text><text aria-label="mean execution time in µs: 153; algorithm: (wilczek) Outer- and Inner-Loop Vectorization; MeanExecutionTime: 153" role="graphics-symbol" aria-roledescription="text mark" text-anchor="start" transform="translate(131.5,153)" font-family="sans-serif" font-size="9px" fill="black">153</text><text aria-label="mean execution time in µs: 215; algorithm: (chaowang15) convolve1D; MeanExecutionTime: 215" role="graphics-symbol" aria-roledescription="text mark" text-anchor="start" transform="translate(183.16666666666669,253)" font-family="sans-serif" font-size="9px" fill="black">215</text></g></g><path class="foreground" aria-hidden="true" d="" display="none"/></g><g transform="translate(741,0)"><path class="background" aria-hidden="true" d="M0.5,0.5h200v300h-200Z" stroke="#ddd"/><g><g class="mark-group role-axis" aria-hidden="true"><g transform="translate(0.5,300.5)"><path class="background" aria-hidden="true" d="M0,0h0v0h0Z" pointer-events="none"/><g><g class="mark-rule role-axis-grid" pointer-events="none"><line transform="translate(0,0)" x2="0" y2="-300" stroke="#ddd" stroke-width="1" opacity="1"/><line transform="translate(29,0)" x2="0" y2="-300" stroke="#ddd" stroke-width="1" opacity="1"/><line transform="translate(57,0)" x2="0" y2="-300" stroke="#ddd" stroke-width="1" opacity="1"/><line transform="translate(86,0)" x2="0" y2="-300" stroke="#ddd" stroke-width="1" opacity="1"/><line transform="translate(114,0)" x2="0" y2="-300" stroke="#ddd" stroke-width="1" opacity="1"/><line transform="translate(143,0)" x2="0" y2="-300" stroke="#ddd" stroke-width="1" opacity="1"/><line transform="translate(171,0)" x2="0" y2="-300" stroke="#ddd" stroke-width="1" opacity="1"/><line transform="translate(200,0)" x2="0" y2="-300" stroke="#ddd" stroke-width="1" opacity="1"/></g></g><path class="foreground" aria-hidden="true" d="" pointer-events="none" display="none"/></g></g><g class="mark-group role-axis" role="graphics-symbol" aria-roledescription="axis" aria-label="X-axis titled 'mean execution time in µs' for a linear scale with values from 0 to 14,000"><g transform="translate(0.5,300.5)"><path class="background" aria-hidden="true" d="M0,0h0v0h0Z" pointer-events="none"/><g><g class="mark-rule role-axis-tick" pointer-events="none"><line transform="translate(0,0)" x2="0" y2="5" stroke="#888" stroke-width="1" opacity="1"/><line transform="translate(29,0)" x2="0" y2="5" stroke="#888" stroke-width="1" opacity="1"/><line transform="translate(57,0)" x2="0" y2="5" stroke="#888" stroke-width="1" opacity="1"/><line transform="translate(86,0)" x2="0" y2="5" stroke="#888" stroke-width="1" opacity="1"/><line transform="translate(114,0)" x2="0" y2="5" stroke="#888" stroke-width="1" opacity="1"/><line transform="translate(143,0)" x2="0" y2="5" stroke="#888" stroke-width="1" opacity="1"/><line transform="translate(171,0)" x2="0" y2="5" stroke="#888" stroke-width="1" opacity="1"/><line transform="translate(200,0)" x2="0" y2="5" stroke="#888" stroke-width="1" opacity="1"/></g><g class="mark-text role-axis-label" pointer-events="none"><text text-anchor="start" transform="translate(0,15)" font-family="sans-serif" font-size="10px" fill="#000" opacity="1">0</text><text text-anchor="middle" transform="translate(28.57142857142857,15)" font-family="sans-serif" font-size="10px" fill="#000" opacity="0">2,000</text><text text-anchor="middle" transform="translate(57.14285714285714,15)" font-family="sans-serif" font-size="10px" fill="#000" opacity="1">4,000</text><text text-anchor="middle" transform="translate(85.71428571428571,15)" font-family="sans-serif" font-size="10px" fill="#000" opacity="0">6,000</text><text text-anchor="middle" transform="translate(114.28571428571428,15)" font-family="sans-serif" font-size="10px" fill="#000" opacity="1">8,000</text><text text-anchor="middle" transform="translate(142.85714285714286,15)" font-family="sans-serif" font-size="10px" fill="#000" opacity="0">10,000</text><text text-anchor="middle" transform="translate(171.42857142857142,15)" font-family="sans-serif" font-size="10px" fill="#000" opacity="1">12,000</text><text text-anchor="end" transform="translate(200,15)" font-family="sans-serif" font-size="10px" fill="#000" opacity="0">14,000</text></g><g class="mark-rule role-axis-domain" pointer-events="none"><line transform="translate(0,0)" x2="200" y2="0" stroke="#888" stroke-width="1" opacity="1"/></g><g class="mark-text role-axis-title" pointer-events="none"><text text-anchor="middle" transform="translate(100,30)" font-family="sans-serif" font-size="11px" font-weight="bold" fill="#000" opacity="1">mean execution time in µs</text></g></g><path class="foreground" aria-hidden="true" d="" pointer-events="none" display="none"/></g></g><g class="mark-group role-axis" role="graphics-symbol" aria-roledescription="axis" aria-label="Y-axis titled 'algorithm' for a discrete scale with 15 values: (JohT) kernelPerInputValue Transposed, (JohT) inputPerKernelValue Transposed, (JohT) kernelPerInputValue Transposed LoopFission, (JohT) inputPerKernelValue Transposed OuterLoopUnrolled, (JohT) inputPerKernelValue Transposed LoopFissionIndexArithmetic, ending with (wilczek) Single"><g transform="translate(0.5,0.5)"><path class="background" aria-hidden="true" d="M0,0h0v0h0Z" pointer-events="none"/><g><g class="mark-rule role-axis-tick" pointer-events="none"><line transform="translate(0,10)" x2="-5" y2="0" stroke="#888" stroke-width="1" opacity="1"/><line transform="translate(0,30)" x2="-5" y2="0" stroke="#888" stroke-width="1" opacity="1"/><line transform="translate(0,50)" x2="-5" y2="0" stroke="#888" stroke-width="1" opacity="1"/><line transform="translate(0,70)" x2="-5" y2="0" stroke="#888" stroke-width="1" opacity="1"/><line transform="translate(0,90)" x2="-5" y2="0" stroke="#888" stroke-width="1" opacity="1"/><line transform="translate(0,110)" x2="-5" y2="0" stroke="#888" stroke-width="1" opacity="1"/><line transform="translate(0,130)" x2="-5" y2="0" stroke="#888" stroke-width="1" opacity="1"/><line transform="translate(0,150)" x2="-5" y2="0" stroke="#888" stroke-width="1" opacity="1"/><line transform="translate(0,170)" x2="-5" y2="0" stroke="#888" stroke-width="1" opacity="1"/><line transform="translate(0,190)" x2="-5" y2="0" stroke="#888" stroke-width="1" opacity="1"/><line transform="translate(0,210)" x2="-5" y2="0" stroke="#888" stroke-width="1" opacity="1"/><line transform="translate(0,230)" x2="-5" y2="0" stroke="#888" stroke-width="1" opacity="1"/><line transform="translate(0,250)" x2="-5" y2="0" stroke="#888" stroke-width="1" opacity="1"/><line transform="translate(0,270)" x2="-5" y2="0" stroke="#888" stroke-width="1" opacity="1"/><line transform="translate(0,290)" x2="-5" y2="0" stroke="#888" stroke-width="1" opacity="1"/></g><g class="mark-text role-axis-label" pointer-events="none"><text text-anchor="end" transform="translate(-7,12.5)" font-family="sans-serif" font-size="10px" fill="#000" opacity="1">(JohT) kernelPerInputValue Transposed</text><text text-anchor="end" transform="translate(-7,32.5)" font-family="sans-serif" font-size="10px" fill="#000" opacity="1">(JohT) inputPerKernelValue Transposed</text><text text-anchor="end" transform="translate(-7,52.5)" font-family="sans-serif" font-size="10px" fill="#000" opacity="1">(JohT) kernelPerInputValue Transposed LoopFission</text><text text-anchor="end" transform="translate(-7,72.5)" font-family="sans-serif" font-size="10px" fill="#000" opacity="1">(JohT) inputPerKernelValue Transposed OuterLoopUnrolled</text><text text-anchor="end" transform="translate(-7,92.5)" font-family="sans-serif" font-size="10px" fill="#000" opacity="1">(JohT) inputPerKernelValue Transposed LoopFissionIndexArithme…</text><text text-anchor="end" transform="translate(-7,112.5)" font-family="sans-serif" font-size="10px" fill="#000" opacity="1">(JohT) inputPerKernelValue Transposed LoopFission</text><text text-anchor="end" transform="translate(-7,132.5)" font-family="sans-serif" font-size="10px" fill="#000" opacity="1">(JohT) inputPerKernelValue Transposed Inner&amp;OuterLoopUnrolled</text><text text-anchor="end" transform="translate(-7,152.5)" font-family="sans-serif" font-size="10px" fill="#000" opacity="1">(JohT) inputPerKernelValue Transposed InnerLoopUnrolled</text><text text-anchor="end" transform="translate(-7,172.5)" font-family="sans-serif" font-size="10px" fill="#000" opacity="1">(wilczek) Inner-Loop Vectorization</text><text text-anchor="end" transform="translate(-7,192.5)" font-family="sans-serif" font-size="10px" fill="#000" opacity="1">(wilczek) Outer- and Inner-Loop Vectorization</text><text text-anchor="end" transform="translate(-7,212.5)" font-family="sans-serif" font-size="10px" fill="#000" opacity="1">(wilczek) Outer-Loop Vectorization</text><text text-anchor="end" transform="translate(-7,232.5)" font-family="sans-serif" font-size="10px" fill="#000" opacity="1">(matlab-like) conv 'full' shape</text><text text-anchor="end" transform="translate(-7,252.5)" font-family="sans-serif" font-size="10px" fill="#000" opacity="1">(chaowang15) convolve1D</text><text text-anchor="end" transform="translate(-7,272.5)" font-family="sans-serif" font-size="10px" fill="#000" opacity="1">(matlab-like) conv 'valid' shape pre padded</text><text text-anchor="end" transform="translate(-7,292.5)" font-family="sans-serif" font-size="10px" fill="#000" opacity="1">(wilczek) Single</text></g><g class="mark-rule role-axis-domain" pointer-events="none"><line transform="translate(0,0)" x2="0" y2="300" stroke="#888" stroke-width="1" opacity="1"/></g><g class="mark-text role-axis-title" pointer-events="none"><text text-anchor="middle" transform="translate(-320,150) rotate(-90) translate(0,-2)" font-family="sans-serif" font-size="11px" font-weight="bold" fill="#000" opacity="1">algorithm</text></g></g><path class="foreground" aria-hidden="true" d="" pointer-events="none" display="none"/></g></g><g class="mark-rect role-mark child_layer_0_marks" role="graphics-object" aria-roledescription="rect mark container"><path aria-label="mean execution time in µs: 1423; algorithm: (JohT) kernelPerInputValue Transposed" role="graphics-symbol" aria-roledescription="bar" d="M0,1.9L16.32857142857143,1.9C18.53623152654743,1.9,20.32857142857143,3.692339902024,20.32857142857143,5.9L20.32857142857143,14.099999999999998C20.32857142857143,16.307660097975997,18.53623152654743,18.099999999999998,16.32857142857143,18.099999999999998L0,18.099999999999998C0,18.099999999999998,0,18.099999999999998,0,18.099999999999998L0,1.9C0,1.9,0,1.9,0,1.9Z" fill="#4c78a8"/><path aria-label="mean execution time in µs: 2153; algorithm: (JohT) inputPerKernelValue Transposed" role="graphics-symbol" aria-roledescription="bar" d="M0,21.9L26.757142857142856,21.9C28.964802955118856,21.9,30.757142857142856,23.692339902024,30.757142857142856,25.9L30.757142857142856,34.099999999999994C30.757142857142856,36.307660097976,28.964802955118856,38.099999999999994,26.757142857142856,38.099999999999994L0,38.099999999999994C0,38.099999999999994,0,38.099999999999994,0,38.099999999999994L0,21.9C0,21.9,0,21.9,0,21.9Z" fill="#4c78a8"/><path aria-label="mean execution time in µs: 4015; algorithm: (JohT) inputPerKernelValue Transposed InnerLoopUnrolled" role="graphics-symbol" aria-roledescription="bar" d="M0,141.9L53.35714285714286,141.9C55.564802955118864,141.9,57.35714285714286,143.692339902024,57.35714285714286,145.9L57.35714285714286,154.1C57.35714285714286,156.307660097976,55.564802955118864,158.1,53.35714285714286,158.1L0,158.1C0,158.1,0,158.1,0,158.1L0,141.9C0,141.9,0,141.9,0,141.9Z" fill="#4c78a8"/><path aria-label="mean execution time in µs: 3041; algorithm: (JohT) inputPerKernelValue Transposed OuterLoopUnrolled" role="graphics-symbol" aria-roledescription="bar" d="M0,61.9L39.44285714285714,61.9C41.650517240833146,61.9,43.44285714285714,63.692339902023996,43.44285714285714,65.9L43.44285714285714,74.1C43.44285714285714,76.307660097976,41.650517240833146,78.1,39.44285714285714,78.1L0,78.1C0,78.1,0,78.1,0,78.1L0,61.9C0,61.9,0,61.9,0,61.9Z" fill="#4c78a8"/><path aria-label="mean execution time in µs: 3886; algorithm: (JohT) inputPerKernelValue Transposed Inner&amp;OuterLoopUnrolled" role="graphics-symbol" aria-roledescription="bar" d="M0,121.9L51.51428571428572,121.9C53.72194581226172,121.9,55.51428571428572,123.692339902024,55.51428571428572,125.9L55.51428571428572,134.1C55.51428571428572,136.307660097976,53.72194581226172,138.1,51.51428571428572,138.1L0,138.1C0,138.1,0,138.1,0,138.1L0,121.9C0,121.9,0,121.9,0,121.9Z" fill="#4c78a8"/><path aria-label="mean execution time in µs: 3570; algorithm: (JohT) inputPerKernelValue Transposed LoopFission" role="graphics-symbol" aria-roledescription="bar" d="M0,101.9L47,101.9C49.207660097976,101.9,51,103.692339902024,51,105.9L51,114.10000000000001C51,116.30766009797601,49.207660097976,118.10000000000001,47,118.10000000000001L0,118.10000000000001C0,118.10000000000001,0,118.10000000000001,0,118.10000000000001L0,101.9C0,101.9,0,101.9,0,101.9Z" fill="#4c78a8"/><path aria-label="mean execution time in µs: 3289; algorithm: (JohT) inputPerKernelValue Transposed LoopFissionIndexArithmetic" role="graphics-symbol" aria-roledescription="bar" d="M0,81.9L42.98571428571429,81.9C45.19337438369029,81.9,46.98571428571429,83.692339902024,46.98571428571429,85.9L46.98571428571429,94.10000000000001C46.98571428571429,96.30766009797601,45.19337438369029,98.10000000000001,42.98571428571429,98.10000000000001L0,98.10000000000001C0,98.10000000000001,0,98.10000000000001,0,98.10000000000001L0,81.9C0,81.9,0,81.9,0,81.9Z" fill="#4c78a8"/><path aria-label="mean execution time in µs: 3020; algorithm: (JohT) kernelPerInputValue Transposed LoopFission" role="graphics-symbol" aria-roledescription="bar" d="M0,41.9L39.142857142857146,41.9C41.35051724083315,41.9,43.142857142857146,43.692339902023996,43.142857142857146,45.9L43.142857142857146,54.099999999999994C43.142857142857146,56.307660097976,41.35051724083315,58.099999999999994,39.142857142857146,58.099999999999994L0,58.099999999999994C0,58.099999999999994,0,58.099999999999994,0,58.099999999999994L0,41.9C0,41.9,0,41.9,0,41.9Z" fill="#4c78a8"/><path aria-label="mean execution time in µs: 12787; algorithm: (matlab-like) conv 'full' shape" role="graphics-symbol" aria-roledescription="bar" d="M0,221.9L178.67142857142858,221.9C180.87908866940458,221.9,182.67142857142858,223.692339902024,182.67142857142858,225.9L182.67142857142858,234.1C182.67142857142858,236.307660097976,180.87908866940458,238.1,178.67142857142858,238.1L0,238.1C0,238.1,0,238.1,0,238.1L0,221.9C0,221.9,0,221.9,0,221.9Z" fill="#4c78a8"/><path aria-label="mean execution time in µs: 13212; algorithm: (matlab-like) conv 'valid' shape pre padded" role="graphics-symbol" aria-roledescription="bar" d="M0,261.9L184.74285714285713,261.9C186.95051724083314,261.9,188.74285714285713,263.692339902024,188.74285714285713,265.9L188.74285714285713,274.09999999999997C188.74285714285713,276.30766009797594,186.95051724083314,278.09999999999997,184.74285714285713,278.09999999999997L0,278.09999999999997C0,278.09999999999997,0,278.09999999999997,0,278.09999999999997L0,261.9C0,261.9,0,261.9,0,261.9Z" fill="#4c78a8"/><path aria-label="mean execution time in µs: 13226; algorithm: (wilczek) Single" role="graphics-symbol" aria-roledescription="bar" d="M0,281.9L184.94285714285715,281.9C187.15051724083315,281.9,188.94285714285715,283.692339902024,188.94285714285715,285.9L188.94285714285715,294.09999999999997C188.94285714285715,296.30766009797594,187.15051724083315,298.09999999999997,184.94285714285715,298.09999999999997L0,298.09999999999997C0,298.09999999999997,0,298.09999999999997,0,298.09999999999997L0,281.9C0,281.9,0,281.9,0,281.9Z" fill="#4c78a8"/><path aria-label="mean execution time in µs: 4452; algorithm: (wilczek) Inner-Loop Vectorization" role="graphics-symbol" aria-roledescription="bar" d="M0,161.9L59.6,161.9C61.807660097976004,161.9,63.6,163.692339902024,63.6,165.9L63.6,174.1C63.6,176.307660097976,61.807660097976004,178.1,59.6,178.1L0,178.1C0,178.1,0,178.1,0,178.1L0,161.9C0,161.9,0,161.9,0,161.9Z" fill="#4c78a8"/><path aria-label="mean execution time in µs: 7836; algorithm: (wilczek) Outer-Loop Vectorization" role="graphics-symbol" aria-roledescription="bar" d="M0,201.9L107.94285714285715,201.9C110.15051724083315,201.9,111.94285714285715,203.692339902024,111.94285714285715,205.9L111.94285714285715,214.1C111.94285714285715,216.307660097976,110.15051724083315,218.1,107.94285714285715,218.1L0,218.1C0,218.1,0,218.1,0,218.1L0,201.9C0,201.9,0,201.9,0,201.9Z" fill="#4c78a8"/><path aria-label="mean execution time in µs: 4643; algorithm: (wilczek) Outer- and Inner-Loop Vectorization" role="graphics-symbol" aria-roledescription="bar" d="M0,181.9L62.32857142857142,181.9C64.53623152654743,181.9,66.32857142857142,183.692339902024,66.32857142857142,185.9L66.32857142857142,194.1C66.32857142857142,196.307660097976,64.53623152654743,198.1,62.32857142857142,198.1L0,198.1C0,198.1,0,198.1,0,198.1L0,181.9C0,181.9,0,181.9,0,181.9Z" fill="#4c78a8"/><path aria-label="mean execution time in µs: 13032; algorithm: (chaowang15) convolve1D" role="graphics-symbol" aria-roledescription="bar" d="M0,241.9L182.17142857142858,241.9C184.37908866940458,241.9,186.17142857142858,243.692339902024,186.17142857142858,245.9L186.17142857142858,254.10000000000002C186.17142857142858,256.307660097976,184.37908866940458,258.1,182.17142857142858,258.1L0,258.1C0,258.1,0,258.1,0,258.1L0,241.9C0,241.9,0,241.9,0,241.9Z" fill="#4c78a8"/></g><g class="mark-text role-mark child_layer_1_marks" role="graphics-object" aria-roledescription="text mark container"><text aria-label="mean execution time in µs: 1423; algorithm: (JohT) kernelPerInputValue Transposed; MeanExecutionTime: 1423" role="graphics-symbol" aria-roledescription="text mark" text-anchor="start" transform="translate(24.32857142857143,13)" font-family="sans-serif" font-size="9px" fill="black">1423</text><text aria-label="mean execution time in µs: 2153; algorithm: (JohT) inputPerKernelValue Transposed; MeanExecutionTime: 2153" role="graphics-symbol" aria-roledescription="text mark" text-anchor="start" transform="translate(34.75714285714285,33)" font-family="sans-serif" font-size="9px" fill="black">2153</text><text aria-label="mean execution time in µs: 4015; algorithm: (JohT) inputPerKernelValue Transposed InnerLoopUnrolled; MeanExecutionTime: 4015" role="graphics-symbol" aria-roledescription="text mark" text-anchor="start" transform="translate(61.35714285714286,153)" font-family="sans-serif" font-size="9px" fill="black">4015</text><text aria-label="mean execution time in µs: 3041; algorithm: (JohT) inputPerKernelValue Transposed OuterLoopUnrolled; MeanExecutionTime: 3041" role="graphics-symbol" aria-roledescription="text mark" text-anchor="start" transform="translate(47.44285714285714,73)" font-family="sans-serif" font-size="9px" fill="black">3041</text><text aria-label="mean execution time in µs: 3886; algorithm: (JohT) inputPerKernelValue Transposed Inner&amp;OuterLoopUnrolled; MeanExecutionTime: 3886" role="graphics-symbol" aria-roledescription="text mark" text-anchor="start" transform="translate(59.51428571428572,133)" font-family="sans-serif" font-size="9px" fill="black">3886</text><text aria-label="mean execution time in µs: 3570; algorithm: (JohT) inputPerKernelValue Transposed LoopFission; MeanExecutionTime: 3570" role="graphics-symbol" aria-roledescription="text mark" text-anchor="start" transform="translate(55,113)" font-family="sans-serif" font-size="9px" fill="black">3570</text><text aria-label="mean execution time in µs: 3289; algorithm: (JohT) inputPerKernelValue Transposed LoopFissionIndexArithmetic; MeanExecutionTime: 3289" role="graphics-symbol" aria-roledescription="text mark" text-anchor="start" transform="translate(50.98571428571429,93)" font-family="sans-serif" font-size="9px" fill="black">3289</text><text aria-label="mean execution time in µs: 3020; algorithm: (JohT) kernelPerInputValue Transposed LoopFission; MeanExecutionTime: 3020" role="graphics-symbol" aria-roledescription="text mark" text-anchor="start" transform="translate(47.142857142857146,53)" font-family="sans-serif" font-size="9px" fill="black">3020</text><text aria-label="mean execution time in µs: 12787; algorithm: (matlab-like) conv 'full' shape; MeanExecutionTime: 12787" role="graphics-symbol" aria-roledescription="text mark" text-anchor="start" transform="translate(186.67142857142858,233)" font-family="sans-serif" font-size="9px" fill="black">12787</text><text aria-label="mean execution time in µs: 13212; algorithm: (matlab-like) conv 'valid' shape pre padded; MeanExecutionTime: 13212" role="graphics-symbol" aria-roledescription="text mark" text-anchor="start" transform="translate(192.74285714285713,273)" font-family="sans-serif" font-size="9px" fill="black">13212</text><text aria-label="mean execution time in µs: 13226; algorithm: (wilczek) Single; MeanExecutionTime: 13226" role="graphics-symbol" aria-roledescription="text mark" text-anchor="start" transform="translate(192.94285714285715,293)" font-family="sans-serif" font-size="9px" fill="black">13226</text><text aria-label="mean execution time in µs: 4452; algorithm: (wilczek) Inner-Loop Vectorization; MeanExecutionTime: 4452" role="graphics-symbol" aria-roledescription="text mark" text-anchor="start" transform="translate(67.6,173)" font-family="sans-serif" font-size="9px" fill="black">4452</text><text aria-label="mean execution time in µs: 7836; algorithm: (wilczek) Outer-Loop Vectorization; MeanExecutionTime: 7836" role="graphics-symbol" aria-roledescription="text mark" text-anchor="start" transform="translate(115.94285714285715,213)" font-family="sans-serif" font-size="9px" fill="black">7836</text><text aria-label="mean execution time in µs: 4643; algorithm: (wilczek) Outer- and Inner-Loop Vectorization; MeanExecutionTime: 4643" role="graphics-symbol" aria-roledescription="text mark" text-anchor="start" transform="translate(70.32857142857142,193)" font-family="sans-serif" font-size="9px" fill="black">4643</text><text aria-label="mean execution time in µs: 13032; algorithm: (chaowang15) convolve1D; MeanExecutionTime: 13032" role="graphics-symbol" aria-roledescription="text mark" text-anchor="start" transform="translate(190.17142857142858,253)" font-family="sans-serif" font-size="9px" fill="black">13032</text></g></g><path class="foreground" aria-hidden="true" d="" display="none"/></g></g></g><path class="foreground" aria-hidden="true" d="" display="none"/></g></g></g></svg>