<svg xmlns="http://www.w3.org/2000/svg" xmlns:xlink="http://www.w3.org/1999/xlink" version="1.1" class="marks" width="1688" height="404" viewBox="0 0 1688 404"><rect width="1688" height="404" fill="white"/><g fill="none" stroke-miterlimit="10" transform="translate(509,66)"><g class="mark-group role-frame root" role="graphics-object" aria-roledescription="group mark container"><g transform="translate(0,0)"><path class="background" aria-hidden="true" d="M0,0h0v0h0Z"/><g><g class="mark-group role-column-title column-title" role="graphics-object" aria-roledescription="group mark container"><g transform="translate(335,-35)"><path class="background" aria-hidden="true" d="M0,0h0v0h0Z"/><g><g class="mark-group role-title"><g transform="translate(0,-26)"><path class="background" aria-hidden="true" d="M0,0h0v0h0Z" pointer-events="none"/><g><g class="mark-text role-title-text" role="graphics-symbol" aria-roledescription="title" aria-label="Title text 'Convolution Benchmarks'" pointer-events="none"><text text-anchor="middle" transform="translate(0,13)" font-family="sans-serif" font-size="16px" font-weight="bold" fill="#000" opacity="1">Convolution Benchmarks</text></g></g><path class="foreground" aria-hidden="true" d="" pointer-events="none" display="none"/></g></g></g><path class="foreground" aria-hidden="true" d="" display="none"/></g></g><g class="mark-group role-column-header column_header" role="graphics-object" aria-roledescription="group mark container"><g transform="translate(0,-1)"><path class="background" aria-hidden="true" d="M0,0h300v0h-300Z"/><g><g class="mark-group role-title"><g transform="translate(150,-24)"><path class="background" aria-hidden="true" d="M0,0h0v0h0Z" pointer-events="none"/><g><g class="mark-text role-title-text" role="graphics-symbol" aria-roledescription="title" aria-label="Title text 'kernel size 16'" pointer-events="none"><text text-anchor="middle" transform="translate(0,11)" font-family="sans-serif" font-size="14px" fill="#000" opacity="1">kernel size 16</text></g></g><path class="foreground" aria-hidden="true" d="" pointer-events="none" display="none"/></g></g></g><path class="foreground" aria-hidden="true" d="" display="none"/></g><g transform="translate(842,-1)"><path class="background" aria-hidden="true" d="M0,0h300v0h-300Z"/><g><g class="mark-group role-title"><g transform="translate(150,-24)"><path class="background" aria-hidden="true" d="M0,0h0v0h0Z" pointer-events="none"/><g><g class="mark-text role-title-text" role="graphics-symbol" aria-roledescription="title" aria-label="Title text 'kernel size 512'" pointer-events="none"><text text-anchor="middle" transform="translate(0,11)" font-family="sans-serif" font-size="14px" fill="#000" opacity="1">kernel size 512</text></g></g><path class="foreground" aria-hidden="true" d="" pointer-events="none" display="none"/></g></g></g><path class="foreground" aria-hidden="true" d="" display="none"/></g></g><g class="mark-group role-scope cell" role="graphics-object" aria-roledescription="group mark container"><g transform="translate(0,0)"><path class="background" aria-hidden="true" d="M0.5,0.5h300v300h-300Z" stroke="#ddd"/><g><g class="mark-group role-axis" aria-hidden="true"><g transform="translate(0.5,300.5)"><path class="background" aria-hidden="true" d="M0,0h0v0h0Z" pointer-events="none"/><g><g class="mark-rule role-axis-grid" pointer-events="none"><line transform="translate(0,0)" x2="0" y2="-300" stroke="#ddd" stroke-width="1" opacity="1"/><line transform="translate(58,0)" x2="0" y2="-300" stroke="#ddd" stroke-width="1" opacity="1"/><line transform="translate(115,0)" x2="0" y2="-300" stroke="#ddd" stroke-width="1" opacity="1"/><line transform="translate(173,0)" x2="0" y2="-300" stroke="#ddd" stroke-width="1" opacity="1"/><line transform="translate(231,0)" x2="0" y2="-300" stroke="#ddd" stroke-width="1" opacity="1"/><line transform="translate(288,0)" x2="0" y2="-300" stroke="#ddd" stroke-width="1" opacity="1"/></g></g><path class="foreground" aria-hidden="true" d="" pointer-events="none" display="none"/></g></g><g class="mark-group role-axis" role="graphics-symbol" aria-roledescription="axis" aria-label="X-axis titled 'mean execution time in µs' for a linear scale with values from 0 to 260"><g transform="translate(0.5,300.5)"><path class="background" aria-hidden="true" d="M0,0h0v0h0Z" pointer-events="none"/><g><g class="mark-rule role-axis-tick" pointer-events="none"><line transform="translate(0,0)" x2="0" y2="5" stroke="#888" stroke-width="1" opacity="1"/><line transform="translate(58,0)" x2="0" y2="5" stroke="#888" stroke-width="1" opacity="1"/><line transform="translate(115,0)" x2="0" y2="5" stroke="#888" stroke-width="1" opacity="1"/><line transform="translate(173,0)" x2="0" y2="5" stroke="#888" stroke-width="1" opacity="1"/><line transform="translate(231,0)" x2="0" y2="5" stroke="#888" stroke-width="1" opacity="1"/><line transform="translate(288,0)" x2="0" y2="5" stroke="#888" stroke-width="1" opacity="1"/></g><g class="mark-text role-axis-label" pointer-events="none"><text text-anchor="start" transform="translate(0,15)" font-family="sans-serif" font-size="10px" fill="#000" opacity="1">0</text><text text-anchor="middle" transform="translate(57.69230769230769,15)" font-family="sans-serif" font-size="10px" fill="#000" opacity="1">50</text><text text-anchor="middle" transform="translate(115.38461538461539,15)" font-family="sans-serif" font-size="10px" fill="#000" opacity="1">100</text><text text-anchor="middle" transform="translate(173.07692307692307,15)" font-family="sans-serif" font-size="10px" fill="#000" opacity="1">150</text><text text-anchor="middle" transform="translate(230.76923076923077,15)" font-family="sans-serif" font-size="10px" fill="#000" opacity="1">200</text><text text-anchor="middle" transform="translate(288.46153846153845,15)" font-family="sans-serif" font-size="10px" fill="#000" opacity="1">250</text></g><g class="mark-rule role-axis-domain" pointer-events="none"><line transform="translate(0,0)" x2="300" y2="0" stroke="#888" stroke-width="1" opacity="1"/></g><g class="mark-text role-axis-title" pointer-events="none"><text text-anchor="middle" transform="translate(150,30)" font-family="sans-serif" font-size="11px" font-weight="bold" fill="#000" opacity="1">mean execution time in µs</text></g></g><path class="foreground" aria-hidden="true" d="" pointer-events="none" display="none"/></g></g><g class="mark-group role-axis" role="graphics-symbol" aria-roledescription="axis" aria-label="Y-axis titled 'algorithm' for a discrete scale with 15 values: (JohT) inputPerKernelValue Transposed, (JohT) inputPerKernelValue Transposed OuterLoopUnrolled, (chaowang15) convolve1D, (JohT) inputPerKernelValue Transposed Inner&amp;OuterLoopUnrolled, (JohT) inputPerKernelValue Transposed LoopFission, ending with (JohT) inputPerKernelValue Transposed InnerLoopUnrolled"><g transform="translate(0.5,0.5)"><path class="background" aria-hidden="true" d="M0,0h0v0h0Z" pointer-events="none"/><g><g class="mark-rule role-axis-tick" pointer-events="none"><line transform="translate(0,10)" x2="-5" y2="0" stroke="#888" stroke-width="1" opacity="1"/><line transform="translate(0,30)" x2="-5" y2="0" stroke="#888" stroke-width="1" opacity="1"/><line transform="translate(0,50)" x2="-5" y2="0" stroke="#888" stroke-width="1" opacity="1"/><line transform="translate(0,70)" x2="-5" y2="0" stroke="#888" stroke-width="1" opacity="1"/><line transform="translate(0,90)" x2="-5" y2="0" stroke="#888" stroke-width="1" opacity="1"/><line transform="translate(0,110)" x2="-5" y2="0" stroke="#888" stroke-width="1" opacity="1"/><line transform="translate(0,130)" x2="-5" y2="0" stroke="#888" stroke-width="1" opacity="1"/><line transform="translate(0,150)" x2="-5" y2="0" stroke="#888" stroke-width="1" opacity="1"/><line transform="translate(0,170)" x2="-5" y2="0" stroke="#888" stroke-width="1" opacity="1"/><line transform="translate(0,190)" x2="-5" y2="0" stroke="#888" stroke-width="1" opacity="1"/><line transform="translate(0,210)" x2="-5" y2="0" stroke="#888" stroke-width="1" opacity="1"/><line transform="translate(0,230)" x2="-5" y2="0" stroke="#888" stroke-width="1" opacity="1"/><line transform="translate(0,250)" x2="-5" y2="0" stroke="#888" stroke-width="1" opacity="1"/><line transform="translate(0,270)" x2="-5" y2="0" stroke="#888" stroke-width="1" opacity="1"/><line transform="translate(0,290)" x2="-5" y2="0" stroke="#888" stroke-width="1" opacity="1"/></g><g class="mark-text role-axis-label" pointer-events="none"><text text-anchor="end" transform="translate(-7,12.5)" font-family="sans-serif" font-size="10px" fill="#000" opacity="1">(JohT) inputPerKernelValue Transposed</text><text text-anchor="end" transform="translate(-7,32.5)" font-family="sans-serif" font-size="10px" fill="#000" opacity="1">(JohT) inputPerKernelValue Transposed OuterLoopUnrolled</text><text text-anchor="end" transform="translate(-7,52.5)" font-family="sans-serif" font-size="10px" fill="#000" opacity="1">(chaowang15) convolve1D</text><text text-anchor="end" transform="translate(-7,72.5)" font-family="sans-serif" font-size="10px" fill="#000" opacity="1">(JohT) inputPerKernelValue Transposed Inner&amp;OuterLoopUnrolled</text><text text-anchor="end" transform="translate(-7,92.5)" font-family="sans-serif" font-size="10px" fill="#000" opacity="1">(JohT) inputPerKernelValue Transposed LoopFission</text><text text-anchor="end" transform="translate(-7,112.5)" font-family="sans-serif" font-size="10px" fill="#000" opacity="1">(JohT) inputPerKernelValue Transposed LoopFissionIndexArithme…</text><text text-anchor="end" transform="translate(-7,132.5)" font-family="sans-serif" font-size="10px" fill="#000" opacity="1">(matlab-like) conv 'full' shape</text><text text-anchor="end" transform="translate(-7,152.5)" font-family="sans-serif" font-size="10px" fill="#000" opacity="1">(wilczek) Outer- and Inner-Loop Vectorization</text><text text-anchor="end" transform="translate(-7,172.5)" font-family="sans-serif" font-size="10px" fill="#000" opacity="1">(JohT) kernelPerInputValue Transposed</text><text text-anchor="end" transform="translate(-7,192.5)" font-family="sans-serif" font-size="10px" fill="#000" opacity="1">(JohT) kernelPerInputValue Transposed LoopFission</text><text text-anchor="end" transform="translate(-7,212.5)" font-family="sans-serif" font-size="10px" fill="#000" opacity="1">(wilczek) Inner-Loop Vectorization</text><text text-anchor="end" transform="translate(-7,232.5)" font-family="sans-serif" font-size="10px" fill="#000" opacity="1">(wilczek) Single</text><text text-anchor="end" transform="translate(-7,252.5)" font-family="sans-serif" font-size="10px" fill="#000" opacity="1">(matlab-like) conv 'valid' shape pre padded</text><text text-anchor="end" transform="translate(-7,272.5)" font-family="sans-serif" font-size="10px" fill="#000" opacity="1">(wilczek) Outer-Loop Vectorization</text><text text-anchor="end" transform="translate(-7,292.5)" font-family="sans-serif" font-size="10px" fill="#000" opacity="1">(JohT) inputPerKernelValue Transposed InnerLoopUnrolled</text></g><g class="mark-rule role-axis-domain" pointer-events="none"><line transform="translate(0,0)" x2="0" y2="300" stroke="#888" stroke-width="1" opacity="1"/></g><g class="mark-text role-axis-title" pointer-events="none"><text text-anchor="middle" transform="translate(-320,150) rotate(-90) translate(0,-2)" font-family="sans-serif" font-size="11px" font-weight="bold" fill="#000" opacity="1">algorithm</text></g></g><path class="foreground" aria-hidden="true" d="" pointer-events="none" display="none"/></g></g><g class="mark-rect role-mark child_layer_0_marks" role="graphics-object" aria-roledescription="rect mark container"><path aria-label="mean execution time in µs: 69; algorithm: (JohT) kernelPerInputValue Transposed" role="graphics-symbol" aria-roledescription="bar" d="M0,161.9L75.61538461538461,161.9C77.82304471336062,161.9,79.61538461538461,163.692339902024,79.61538461538461,165.9L79.61538461538461,174.1C79.61538461538461,176.307660097976,77.82304471336062,178.1,75.61538461538461,178.1L0,178.1C0,178.1,0,178.1,0,178.1L0,161.9C0,161.9,0,161.9,0,161.9Z" fill="#4c78a8"/><path aria-label="mean execution time in µs: 21; algorithm: (JohT) inputPerKernelValue Transposed" role="graphics-symbol" aria-roledescription="bar" d="M0,1.9L20.230769230769234,1.9C22.438429328745233,1.9,24.230769230769234,3.692339902024,24.230769230769234,5.9L24.230769230769234,14.099999999999998C24.230769230769234,16.307660097975997,22.438429328745233,18.099999999999998,20.230769230769234,18.099999999999998L0,18.099999999999998C0,18.099999999999998,0,18.099999999999998,0,18.099999999999998L0,1.9C0,1.9,0,1.9,0,1.9Z" fill="#4c78a8"/><path aria-label="mean execution time in µs: 253; algorithm: (JohT) inputPerKernelValue Transposed InnerLoopUnrolled" role="graphics-symbol" aria-roledescription="bar" d="M0,281.9L287.9230769230769,281.9C290.1307370210529,281.9,291.9230769230769,283.692339902024,291.9230769230769,285.9L291.9230769230769,294.09999999999997C291.9230769230769,296.30766009797594,290.1307370210529,298.09999999999997,287.9230769230769,298.09999999999997L0,298.09999999999997C0,298.09999999999997,0,298.09999999999997,0,298.09999999999997L0,281.9C0,281.9,0,281.9,0,281.9Z" fill="#4c78a8"/><path aria-label="mean execution time in µs: 37; algorithm: (JohT) inputPerKernelValue Transposed OuterLoopUnrolled" role="graphics-symbol" aria-roledescription="bar" d="M0,21.9L38.69230769230769,21.9C40.899967790283696,21.9,42.69230769230769,23.692339902024,42.69230769230769,25.9L42.69230769230769,34.099999999999994C42.69230769230769,36.307660097976,40.899967790283696,38.099999999999994,38.69230769230769,38.099999999999994L0,38.099999999999994C0,38.099999999999994,0,38.099999999999994,0,38.099999999999994L0,21.9C0,21.9,0,21.9,0,21.9Z" fill="#4c78a8"/><path aria-label="mean execution time in µs: 51; algorithm: (JohT) inputPerKernelValue Transposed Inner&amp;OuterLoopUnrolled" role="graphics-symbol" aria-roledescription="bar" d="M0,61.9L54.84615384615385,61.9C57.05381394412985,61.9,58.84615384615385,63.692339902023996,58.84615384615385,65.9L58.84615384615385,74.1C58.84615384615385,76.307660097976,57.05381394412985,78.1,54.84615384615385,78.1L0,78.1C0,78.1,0,78.1,0,78.1L0,61.9C0,61.9,0,61.9,0,61.9Z" fill="#4c78a8"/><path aria-label="mean execution time in µs: 54; algorithm: (JohT) inputPerKernelValue Transposed LoopFission" role="graphics-symbol" aria-roledescription="bar" d="M0,81.9L58.307692307692314,81.9C60.51535240566832,81.9,62.307692307692314,83.692339902024,62.307692307692314,85.9L62.307692307692314,94.10000000000001C62.307692307692314,96.30766009797601,60.51535240566832,98.10000000000001,58.307692307692314,98.10000000000001L0,98.10000000000001C0,98.10000000000001,0,98.10000000000001,0,98.10000000000001L0,81.9C0,81.9,0,81.9,0,81.9Z" fill="#4c78a8"/><path aria-label="mean execution time in µs: 54; algorithm: (JohT) inputPerKernelValue Transposed LoopFissionIndexArithmetic" role="graphics-symbol" aria-roledescription="bar" d="M0,101.9L58.307692307692314,101.9C60.51535240566832,101.9,62.307692307692314,103.692339902024,62.307692307692314,105.9L62.307692307692314,114.10000000000001C62.307692307692314,116.30766009797601,60.51535240566832,118.10000000000001,58.307692307692314,118.10000000000001L0,118.10000000000001C0,118.10000000000001,0,118.10000000000001,0,118.10000000000001L0,101.9C0,101.9,0,101.9,0,101.9Z" fill="#4c78a8"/><path aria-label="mean execution time in µs: 69; algorithm: (JohT) kernelPerInputValue Transposed LoopFission" role="graphics-symbol" aria-roledescription="bar" d="M0,181.9L75.61538461538461,181.9C77.82304471336062,181.9,79.61538461538461,183.692339902024,79.61538461538461,185.9L79.61538461538461,194.1C79.61538461538461,196.307660097976,77.82304471336062,198.1,75.61538461538461,198.1L0,198.1C0,198.1,0,198.1,0,198.1L0,181.9C0,181.9,0,181.9,0,181.9Z" fill="#4c78a8"/><path aria-label="mean execution time in µs: 55; algorithm: (matlab-like) conv 'full' shape" role="graphics-symbol" aria-roledescription="bar" d="M0,121.9L59.46153846153846,121.9C61.66919855951446,121.9,63.46153846153846,123.692339902024,63.46153846153846,125.9L63.46153846153846,134.1C63.46153846153846,136.307660097976,61.66919855951446,138.1,59.46153846153846,138.1L0,138.1C0,138.1,0,138.1,0,138.1L0,121.9C0,121.9,0,121.9,0,121.9Z" fill="#4c78a8"/><path aria-label="mean execution time in µs: 128; algorithm: (matlab-like) conv 'valid' shape pre padded" role="graphics-symbol" aria-roledescription="bar" d="M0,241.9L143.6923076923077,241.9C145.8999677902837,241.9,147.6923076923077,243.692339902024,147.6923076923077,245.9L147.6923076923077,254.10000000000002C147.6923076923077,256.307660097976,145.8999677902837,258.1,143.6923076923077,258.1L0,258.1C0,258.1,0,258.1,0,258.1L0,241.9C0,241.9,0,241.9,0,241.9Z" fill="#4c78a8"/><path aria-label="mean execution time in µs: 107; algorithm: (wilczek) Single" role="graphics-symbol" aria-roledescription="bar" d="M0,221.9L119.46153846153845,221.9C121.66919855951446,221.9,123.46153846153845,223.692339902024,123.46153846153845,225.9L123.46153846153845,234.1C123.46153846153845,236.307660097976,121.66919855951446,238.1,119.46153846153845,238.1L0,238.1C0,238.1,0,238.1,0,238.1L0,221.9C0,221.9,0,221.9,0,221.9Z" fill="#4c78a8"/><path aria-label="mean execution time in µs: 71; algorithm: (wilczek) Inner-Loop Vectorization" role="graphics-symbol" aria-roledescription="bar" d="M0,201.9L77.92307692307692,201.9C80.13073702105292,201.9,81.92307692307692,203.692339902024,81.92307692307692,205.9L81.92307692307692,214.1C81.92307692307692,216.307660097976,80.13073702105292,218.1,77.92307692307692,218.1L0,218.1C0,218.1,0,218.1,0,218.1L0,201.9C0,201.9,0,201.9,0,201.9Z" fill="#4c78a8"/><path aria-label="mean execution time in µs: 232; algorithm: (wilczek) Outer-Loop Vectorization" role="graphics-symbol" aria-roledescription="bar" d="M0,261.9L263.6923076923077,261.9C265.89996779028365,261.9,267.6923076923077,263.692339902024,267.6923076923077,265.9L267.6923076923077,274.09999999999997C267.6923076923077,276.30766009797594,265.89996779028365,278.09999999999997,263.6923076923077,278.09999999999997L0,278.09999999999997C0,278.09999999999997,0,278.09999999999997,0,278.09999999999997L0,261.9C0,261.9,0,261.9,0,261.9Z" fill="#4c78a8"/><path aria-label="mean execution time in µs: 68; algorithm: (wilczek) Outer- and Inner-Loop Vectorization" role="graphics-symbol" aria-roledescription="bar" d="M0,141.9L74.46153846153847,141.9C76.66919855951447,141.9,78.46153846153847,143.692339902024,78.46153846153847,145.9L78.46153846153847,154.1C78.46153846153847,156.307660097976,76.66919855951447,158.1,74.46153846153847,158.1L0,158.1C0,158.1,0,158.1,0,158.1L0,141.9C0,141.9,0,141.9,0,141.9Z" fill="#4c78a8"/><path aria-label="mean execution time in µs: 47; algorithm: (chaowang15) convolve1D" role="graphics-symbol" aria-roledescription="bar" d="M0,41.9L50.230769230769226,41.9C52.43842932874523,41.9,54.230769230769226,43.692339902023996,54.230769230769226,45.9L54.230769230769226,54.099999999999994C54.230769230769226,56.307660097976,52.43842932874523,58.099999999999994,50.230769230769226,58.099999999999994L0,58.099999999999994C0,58.099999999999994,0,58.099999999999994,0,58.099999999999994L0,41.9C0,41.9,0,41.9,0,41.9Z" fill="#4c78a8"/></g><g class="mark-text role-mark child_layer_1_marks" role="graphics-object" aria-roledescription="text mark container"><text aria-label="mean execution time in µs: 69; algorithm: (JohT) kernelPerInputValue Transposed; MeanExecutionTime: 69" role="graphics-symbol" aria-roledescription="text mark" text-anchor="start" transform="translate(83.61538461538461,173)" font-family="sans-serif" font-size="9px" fill="black">69</text><text aria-label="mean execution time in µs: 21; algorithm: (JohT) inputPerKernelValue Transposed; MeanExecutionTime: 21" role="graphics-symbol" aria-roledescription="text mark" text-anchor="start" transform="translate(28.230769230769234,13)" font-family="sans-serif" font-size="9px" fill="black">21</text><text aria-label="mean execution time in µs: 253; algorithm: (JohT) inputPerKernelValue Transposed InnerLoopUnrolled; MeanExecutionTime: 253" role="graphics-symbol" aria-roledescription="text mark" text-anchor="start" transform="translate(295.9230769230769,293)" font-family="sans-serif" font-size="9px" fill="black">253</text><text aria-label="mean execution time in µs: 37; algorithm: (JohT) inputPerKernelValue Transposed OuterLoopUnrolled; MeanExecutionTime: 37" role="graphics-symbol" aria-roledescription="text mark" text-anchor="start" transform="translate(46.69230769230769,33)" font-family="sans-serif" font-size="9px" fill="black">37</text><text aria-label="mean execution time in µs: 51; algorithm: (JohT) inputPerKernelValue Transposed Inner&amp;OuterLoopUnrolled; MeanExecutionTime: 51" role="graphics-symbol" aria-roledescription="text mark" text-anchor="start" transform="translate(62.84615384615385,73)" font-family="sans-serif" font-size="9px" fill="black">51</text><text aria-label="mean execution time in µs: 54; algorithm: (JohT) inputPerKernelValue Transposed LoopFission; MeanExecutionTime: 54" role="graphics-symbol" aria-roledescription="text mark" text-anchor="start" transform="translate(66.30769230769232,93)" font-family="sans-serif" font-size="9px" fill="black">54</text><text aria-label="mean execution time in µs: 54; algorithm: (JohT) inputPerKernelValue Transposed LoopFissionIndexArithmetic; MeanExecutionTime: 54" role="graphics-symbol" aria-roledescription="text mark" text-anchor="start" transform="translate(66.30769230769232,113)" font-family="sans-serif" font-size="9px" fill="black">54</text><text aria-label="mean execution time in µs: 69; algorithm: (JohT) kernelPerInputValue Transposed LoopFission; MeanExecutionTime: 69" role="graphics-symbol" aria-roledescription="text mark" text-anchor="start" transform="translate(83.61538461538461,193)" font-family="sans-serif" font-size="9px" fill="black">69</text><text aria-label="mean execution time in µs: 55; algorithm: (matlab-like) conv 'full' shape; MeanExecutionTime: 55" role="graphics-symbol" aria-roledescription="text mark" text-anchor="start" transform="translate(67.46153846153845,133)" font-family="sans-serif" font-size="9px" fill="black">55</text><text aria-label="mean execution time in µs: 128; algorithm: (matlab-like) conv 'valid' shape pre padded; MeanExecutionTime: 128" role="graphics-symbol" aria-roledescription="text mark" text-anchor="start" transform="translate(151.6923076923077,253)" font-family="sans-serif" font-size="9px" fill="black">128</text><text aria-label="mean execution time in µs: 107; algorithm: (wilczek) Single; MeanExecutionTime: 107" role="graphics-symbol" aria-roledescription="text mark" text-anchor="start" transform="translate(127.46153846153845,233)" font-family="sans-serif" font-size="9px" fill="black">107</text><text aria-label="mean execution time in µs: 71; algorithm: (wilczek) Inner-Loop Vectorization; MeanExecutionTime: 71" role="graphics-symbol" aria-roledescription="text mark" text-anchor="start" transform="translate(85.92307692307692,213)" font-family="sans-serif" font-size="9px" fill="black">71</text><text aria-label="mean execution time in µs: 232; algorithm: (wilczek) Outer-Loop Vectorization; MeanExecutionTime: 232" role="graphics-symbol" aria-roledescription="text mark" text-anchor="start" transform="translate(271.6923076923077,273)" font-family="sans-serif" font-size="9px" fill="black">232</text><text aria-label="mean execution time in µs: 68; algorithm: (wilczek) Outer- and Inner-Loop Vectorization; MeanExecutionTime: 68" role="graphics-symbol" aria-roledescription="text mark" text-anchor="start" transform="translate(82.46153846153847,153)" font-family="sans-serif" font-size="9px" fill="black">68</text><text aria-label="mean execution time in µs: 47; algorithm: (chaowang15) convolve1D; MeanExecutionTime: 47" role="graphics-symbol" aria-roledescription="text mark" text-anchor="start" transform="translate(58.230769230769226,53)" font-family="sans-serif" font-size="9px" fill="black">47</text></g></g><path class="foreground" aria-hidden="true" d="" display="none"/></g><g transform="translate(842,0)"><path class="background" aria-hidden="true" d="M0.5,0.5h300v300h-300Z" stroke="#ddd"/><g><g class="mark-group role-axis" aria-hidden="true"><g transform="translate(0.5,300.5)"><path class="background" aria-hidden="true" d="M0,0h0v0h0Z" pointer-events="none"/><g><g class="mark-rule role-axis-grid" pointer-events="none"><line transform="translate(0,0)" x2="0" y2="-300" stroke="#ddd" stroke-width="1" opacity="1"/><line transform="translate(27,0)" x2="0" y2="-300" stroke="#ddd" stroke-width="1" opacity="1"/><line transform="translate(55,0)" x2="0" y2="-300" stroke="#ddd" stroke-width="1" opacity="1"/><line transform="translate(82,0)" x2="0" y2="-300" stroke="#ddd" stroke-width="1" opacity="1"/><line transform="translate(109,0)" x2="0" y2="-300" stroke="#ddd" stroke-width="1" opacity="1"/><line transform="translate(136,0)" x2="0" y2="-300" stroke="#ddd" stroke-width="1" opacity="1"/><line transform="translate(164,0)" x2="0" y2="-300" stroke="#ddd" stroke-width="1" opacity="1"/><line transform="translate(191,0)" x2="0" y2="-300" stroke="#ddd" stroke-width="1" opacity="1"/><line transform="translate(218,0)" x2="0" y2="-300" stroke="#ddd" stroke-width="1" opacity="1"/><line transform="translate(245,0)" x2="0" y2="-300" stroke="#ddd" stroke-width="1" opacity="1"/><line transform="translate(273,0)" x2="0" y2="-300" stroke="#ddd" stroke-width="1" opacity="1"/><line transform="translate(300,0)" x2="0" y2="-300" stroke="#ddd" stroke-width="1" opacity="1"/></g></g><path class="foreground" aria-hidden="true" d="" pointer-events="none" display="none"/></g></g><g class="mark-group role-axis" role="graphics-symbol" aria-roledescription="axis" aria-label="X-axis titled 'mean execution time in µs' for a linear scale with values from 0 to 11,000"><g transform="translate(0.5,300.5)"><path class="background" aria-hidden="true" d="M0,0h0v0h0Z" pointer-events="none"/><g><g class="mark-rule role-axis-tick" pointer-events="none"><line transform="translate(0,0)" x2="0" y2="5" stroke="#888" stroke-width="1" opacity="1"/><line transform="translate(27,0)" x2="0" y2="5" stroke="#888" stroke-width="1" opacity="1"/><line transform="translate(55,0)" x2="0" y2="5" stroke="#888" stroke-width="1" opacity="1"/><line transform="translate(82,0)" x2="0" y2="5" stroke="#888" stroke-width="1" opacity="1"/><line transform="translate(109,0)" x2="0" y2="5" stroke="#888" stroke-width="1" opacity="1"/><line transform="translate(136,0)" x2="0" y2="5" stroke="#888" stroke-width="1" opacity="1"/><line transform="translate(164,0)" x2="0" y2="5" stroke="#888" stroke-width="1" opacity="1"/><line transform="translate(191,0)" x2="0" y2="5" stroke="#888" stroke-width="1" opacity="1"/><line transform="translate(218,0)" x2="0" y2="5" stroke="#888" stroke-width="1" opacity="1"/><line transform="translate(245,0)" x2="0" y2="5" stroke="#888" stroke-width="1" opacity="1"/><line transform="translate(273,0)" x2="0" y2="5" stroke="#888" stroke-width="1" opacity="1"/><line transform="translate(300,0)" x2="0" y2="5" stroke="#888" stroke-width="1" opacity="1"/></g><g class="mark-text role-axis-label" pointer-events="none"><text text-anchor="start" transform="translate(0,15)" font-family="sans-serif" font-size="10px" fill="#000" opacity="1">0</text><text text-anchor="middle" transform="translate(27.272727272727273,15)" font-family="sans-serif" font-size="10px" fill="#000" opacity="0">1,000</text><text text-anchor="middle" transform="translate(54.54545454545455,15)" font-family="sans-serif" font-size="10px" fill="#000" opacity="1">2,000</text><text text-anchor="middle" transform="translate(81.81818181818181,15)" font-family="sans-serif" font-size="10px" fill="#000" opacity="0">3,000</text><text text-anchor="middle" transform="translate(109.0909090909091,15)" font-family="sans-serif" font-size="10px" fill="#000" opacity="1">4,000</text><text text-anchor="middle" transform="translate(136.36363636363635,15)" font-family="sans-serif" font-size="10px" fill="#000" opacity="0">5,000</text><text text-anchor="middle" transform="translate(163.63636363636363,15)" font-family="sans-serif" font-size="10px" fill="#000" opacity="1">6,000</text><text text-anchor="middle" transform="translate(190.9090909090909,15)" font-family="sans-serif" font-size="10px" fill="#000" opacity="0">7,000</text><text text-anchor="middle" transform="translate(218.1818181818182,15)" font-family="sans-serif" font-size="10px" fill="#000" opacity="1">8,000</text><text text-anchor="middle" transform="translate(245.45454545454547,15)" font-family="sans-serif" font-size="10px" fill="#000" opacity="0">9,000</text><text text-anchor="middle" transform="translate(272.7272727272727,15)" font-family="sans-serif" font-size="10px" fill="#000" opacity="1">10,000</text><text text-anchor="end" transform="translate(300,15)" font-family="sans-serif" font-size="10px" fill="#000" opacity="0">11,000</text></g><g class="mark-rule role-axis-domain" pointer-events="none"><line transform="translate(0,0)" x2="300" y2="0" stroke="#888" stroke-width="1" opacity="1"/></g><g class="mark-text role-axis-title" pointer-events="none"><text text-anchor="middle" transform="translate(150,30)" font-family="sans-serif" font-size="11px" font-weight="bold" fill="#000" opacity="1">mean execution time in µs</text></g></g><path class="foreground" aria-hidden="true" d="" pointer-events="none" display="none"/></g></g><g class="mark-group role-axis" role="graphics-symbol" aria-roledescription="axis" aria-label="Y-axis titled 'algorithm' for a discrete scale with 15 values: (matlab-like) conv 'full' shape, (chaowang15) convolve1D, (JohT) kernelPerInputValue Transposed, (JohT) inputPerKernelValue Transposed, (JohT) kernelPerInputValue Transposed LoopFission, ending with (wilczek) Single"><g transform="translate(0.5,0.5)"><path class="background" aria-hidden="true" d="M0,0h0v0h0Z" pointer-events="none"/><g><g class="mark-rule role-axis-tick" pointer-events="none"><line transform="translate(0,10)" x2="-5" y2="0" stroke="#888" stroke-width="1" opacity="1"/><line transform="translate(0,30)" x2="-5" y2="0" stroke="#888" stroke-width="1" opacity="1"/><line transform="translate(0,50)" x2="-5" y2="0" stroke="#888" stroke-width="1" opacity="1"/><line transform="translate(0,70)" x2="-5" y2="0" stroke="#888" stroke-width="1" opacity="1"/><line transform="translate(0,90)" x2="-5" y2="0" stroke="#888" stroke-width="1" opacity="1"/><line transform="translate(0,110)" x2="-5" y2="0" stroke="#888" stroke-width="1" opacity="1"/><line transform="translate(0,130)" x2="-5" y2="0" stroke="#888" stroke-width="1" opacity="1"/><line transform="translate(0,150)" x2="-5" y2="0" stroke="#888" stroke-width="1" opacity="1"/><line transform="translate(0,170)" x2="-5" y2="0" stroke="#888" stroke-width="1" opacity="1"/><line transform="translate(0,190)" x2="-5" y2="0" stroke="#888" stroke-width="1" opacity="1"/><line transform="translate(0,210)" x2="-5" y2="0" stroke="#888" stroke-width="1" opacity="1"/><line transform="translate(0,230)" x2="-5" y2="0" stroke="#888" stroke-width="1" opacity="1"/><line transform="translate(0,250)" x2="-5" y2="0" stroke="#888" stroke-width="1" opacity="1"/><line transform="translate(0,270)" x2="-5" y2="0" stroke="#888" stroke-width="1" opacity="1"/><line transform="translate(0,290)" x2="-5" y2="0" stroke="#888" stroke-width="1" opacity="1"/></g><g class="mark-text role-axis-label" pointer-events="none"><text text-anchor="end" transform="translate(-7,12.5)" font-family="sans-serif" font-size="10px" fill="#000" opacity="1">(matlab-like) conv 'full' shape</text><text text-anchor="end" transform="translate(-7,32.5)" font-family="sans-serif" font-size="10px" fill="#000" opacity="1">(chaowang15) convolve1D</text><text text-anchor="end" transform="translate(-7,52.5)" font-family="sans-serif" font-size="10px" fill="#000" opacity="1">(JohT) kernelPerInputValue Transposed</text><text text-anchor="end" transform="translate(-7,72.5)" font-family="sans-serif" font-size="10px" fill="#000" opacity="1">(JohT) inputPerKernelValue Transposed</text><text text-anchor="end" transform="translate(-7,92.5)" font-family="sans-serif" font-size="10px" fill="#000" opacity="1">(JohT) kernelPerInputValue Transposed LoopFission</text><text text-anchor="end" transform="translate(-7,112.5)" font-family="sans-serif" font-size="10px" fill="#000" opacity="1">(JohT) inputPerKernelValue Transposed OuterLoopUnrolled</text><text text-anchor="end" transform="translate(-7,132.5)" font-family="sans-serif" font-size="10px" fill="#000" opacity="1">(JohT) inputPerKernelValue Transposed Inner&amp;OuterLoopUnrolled</text><text text-anchor="end" transform="translate(-7,152.5)" font-family="sans-serif" font-size="10px" fill="#000" opacity="1">(JohT) inputPerKernelValue Transposed LoopFissionIndexArithme…</text><text text-anchor="end" transform="translate(-7,172.5)" font-family="sans-serif" font-size="10px" fill="#000" opacity="1">(JohT) inputPerKernelValue Transposed LoopFission</text><text text-anchor="end" transform="translate(-7,192.5)" font-family="sans-serif" font-size="10px" fill="#000" opacity="1">(wilczek) Outer- and Inner-Loop Vectorization</text><text text-anchor="end" transform="translate(-7,212.5)" font-family="sans-serif" font-size="10px" fill="#000" opacity="1">(wilczek) Inner-Loop Vectorization</text><text text-anchor="end" transform="translate(-7,232.5)" font-family="sans-serif" font-size="10px" fill="#000" opacity="1">(JohT) inputPerKernelValue Transposed InnerLoopUnrolled</text><text text-anchor="end" transform="translate(-7,252.5)" font-family="sans-serif" font-size="10px" fill="#000" opacity="1">(wilczek) Outer-Loop Vectorization</text><text text-anchor="end" transform="translate(-7,272.5)" font-family="sans-serif" font-size="10px" fill="#000" opacity="1">(matlab-like) conv 'valid' shape pre padded</text><text text-anchor="end" transform="translate(-7,292.5)" font-family="sans-serif" font-size="10px" fill="#000" opacity="1">(wilczek) Single</text></g><g class="mark-rule role-axis-domain" pointer-events="none"><line transform="translate(0,0)" x2="0" y2="300" stroke="#888" stroke-width="1" opacity="1"/></g><g class="mark-text role-axis-title" pointer-events="none"><text text-anchor="middle" transform="translate(-320,150) rotate(-90) translate(0,-2)" font-family="sans-serif" font-size="11px" font-weight="bold" fill="#000" opacity="1">algorithm</text></g></g><path class="foreground" aria-hidden="true" d="" pointer-events="none" display="none"/></g></g><g class="mark-rect role-mark child_layer_0_marks" role="graphics-object" aria-roledescription="rect mark container"><path aria-label="mean execution time in µs: 653; algorithm: (JohT) kernelPerInputValue Transposed" role="graphics-symbol" aria-roledescription="bar" d="M0,41.9L13.809090909090909,41.9C16.016751007066908,41.9,17.80909090909091,43.692339902023996,17.80909090909091,45.9L17.80909090909091,54.099999999999994C17.80909090909091,56.307660097976,16.016751007066908,58.099999999999994,13.809090909090909,58.099999999999994L0,58.099999999999994C0,58.099999999999994,0,58.099999999999994,0,58.099999999999994L0,41.9C0,41.9,0,41.9,0,41.9Z" fill="#4c78a8"/><path aria-label="mean execution time in µs: 653; algorithm: (JohT) inputPerKernelValue Transposed" role="graphics-symbol" aria-roledescription="bar" d="M0,61.9L13.809090909090909,61.9C16.016751007066908,61.9,17.80909090909091,63.692339902023996,17.80909090909091,65.9L17.80909090909091,74.1C17.80909090909091,76.307660097976,16.016751007066908,78.1,13.809090909090909,78.1L0,78.1C0,78.1,0,78.1,0,78.1L0,61.9C0,61.9,0,61.9,0,61.9Z" fill="#4c78a8"/><path aria-label="mean execution time in µs: 7758; algorithm: (JohT) inputPerKernelValue Transposed InnerLoopUnrolled" role="graphics-symbol" aria-roledescription="bar" d="M0,221.9L207.5818181818182,221.9C209.7894782797942,221.9,211.5818181818182,223.692339902024,211.5818181818182,225.9L211.5818181818182,234.1C211.5818181818182,236.307660097976,209.7894782797942,238.1,207.5818181818182,238.1L0,238.1C0,238.1,0,238.1,0,238.1L0,221.9C0,221.9,0,221.9,0,221.9Z" fill="#4c78a8"/><path aria-label="mean execution time in µs: 1237; algorithm: (JohT) inputPerKernelValue Transposed OuterLoopUnrolled" role="graphics-symbol" aria-roledescription="bar" d="M0,101.9L29.736363636363635,101.9C31.944023734339634,101.9,33.736363636363635,103.692339902024,33.736363636363635,105.9L33.736363636363635,114.10000000000001C33.736363636363635,116.30766009797601,31.944023734339634,118.10000000000001,29.736363636363635,118.10000000000001L0,118.10000000000001C0,118.10000000000001,0,118.10000000000001,0,118.10000000000001L0,101.9C0,101.9,0,101.9,0,101.9Z" fill="#4c78a8"/><path aria-label="mean execution time in µs: 1625; algorithm: (JohT) inputPerKernelValue Transposed Inner&amp;OuterLoopUnrolled" role="graphics-symbol" aria-roledescription="bar" d="M0,121.9L40.31818181818182,121.9C42.52584191615782,121.9,44.31818181818182,123.692339902024,44.31818181818182,125.9L44.31818181818182,134.1C44.31818181818182,136.307660097976,42.52584191615782,138.1,40.31818181818182,138.1L0,138.1C0,138.1,0,138.1,0,138.1L0,121.9C0,121.9,0,121.9,0,121.9Z" fill="#4c78a8"/><path aria-label="mean execution time in µs: 1812; algorithm: (JohT) inputPerKernelValue Transposed LoopFission" role="graphics-symbol" aria-roledescription="bar" d="M0,161.9L45.418181818181814,161.9C47.62584191615782,161.9,49.418181818181814,163.692339902024,49.418181818181814,165.9L49.418181818181814,174.1C49.418181818181814,176.307660097976,47.62584191615782,178.1,45.418181818181814,178.1L0,178.1C0,178.1,0,178.1,0,178.1L0,161.9C0,161.9,0,161.9,0,161.9Z" fill="#4c78a8"/><path aria-label="mean execution time in µs: 1670; algorithm: (JohT) inputPerKernelValue Transposed LoopFissionIndexArithmetic" role="graphics-symbol" aria-roledescription="bar" d="M0,141.9L41.54545454545455,141.9C43.75311464343055,141.9,45.54545454545455,143.692339902024,45.54545454545455,145.9L45.54545454545455,154.1C45.54545454545455,156.307660097976,43.75311464343055,158.1,41.54545454545455,158.1L0,158.1C0,158.1,0,158.1,0,158.1L0,141.9C0,141.9,0,141.9,0,141.9Z" fill="#4c78a8"/><path aria-label="mean execution time in µs: 1135; algorithm: (JohT) kernelPerInputValue Transposed LoopFission" role="graphics-symbol" aria-roledescription="bar" d="M0,81.9L26.954545454545453,81.9C29.162205552521453,81.9,30.954545454545453,83.692339902024,30.954545454545453,85.9L30.954545454545453,94.10000000000001C30.954545454545453,96.30766009797601,29.162205552521453,98.10000000000001,26.954545454545453,98.10000000000001L0,98.10000000000001C0,98.10000000000001,0,98.10000000000001,0,98.10000000000001L0,81.9C0,81.9,0,81.9,0,81.9Z" fill="#4c78a8"/><path aria-label="mean execution time in µs: 597; algorithm: (matlab-like) conv 'full' shape" role="graphics-symbol" aria-roledescription="bar" d="M0,1.9L12.281818181818181,1.9C14.48947827979418,1.9,16.28181818181818,3.692339902024,16.28181818181818,5.9L16.28181818181818,14.099999999999998C16.28181818181818,16.307660097975997,14.48947827979418,18.099999999999998,12.281818181818181,18.099999999999998L0,18.099999999999998C0,18.099999999999998,0,18.099999999999998,0,18.099999999999998L0,1.9C0,1.9,0,1.9,0,1.9Z" fill="#4c78a8"/><path aria-label="mean execution time in µs: 10115; algorithm: (matlab-like) conv 'valid' shape pre padded" role="graphics-symbol" aria-roledescription="bar" d="M0,261.9L271.8636363636364,261.9C274.07129646161235,261.9,275.8636363636364,263.692339902024,275.8636363636364,265.9L275.8636363636364,274.09999999999997C275.8636363636364,276.30766009797594,274.07129646161235,278.09999999999997,271.8636363636364,278.09999999999997L0,278.09999999999997C0,278.09999999999997,0,278.09999999999997,0,278.09999999999997L0,261.9C0,261.9,0,261.9,0,261.9Z" fill="#4c78a8"/><path aria-label="mean execution time in µs: 10664; algorithm: (wilczek) Single" role="graphics-symbol" aria-roledescription="bar" d="M0,281.9L286.8363636363636,281.9C289.0440237343396,281.9,290.8363636363636,283.692339902024,290.8363636363636,285.9L290.8363636363636,294.09999999999997C290.8363636363636,296.30766009797594,289.0440237343396,298.09999999999997,286.8363636363636,298.09999999999997L0,298.09999999999997C0,298.09999999999997,0,298.09999999999997,0,298.09999999999997L0,281.9C0,281.9,0,281.9,0,281.9Z" fill="#4c78a8"/><path aria-label="mean execution time in µs: 2257; algorithm: (wilczek) Inner-Loop Vectorization" role="graphics-symbol" aria-roledescription="bar" d="M0,201.9L57.554545454545455,201.9C59.76220555252146,201.9,61.554545454545455,203.692339902024,61.554545454545455,205.9L61.554545454545455,214.1C61.554545454545455,216.307660097976,59.76220555252146,218.1,57.554545454545455,218.1L0,218.1C0,218.1,0,218.1,0,218.1L0,201.9C0,201.9,0,201.9,0,201.9Z" fill="#4c78a8"/><path aria-label="mean execution time in µs: 7888; algorithm: (wilczek) Outer-Loop Vectorization" role="graphics-symbol" aria-roledescription="bar" d="M0,241.9L211.12727272727273,241.9C213.33493282524873,241.9,215.12727272727273,243.692339902024,215.12727272727273,245.9L215.12727272727273,254.10000000000002C215.12727272727273,256.307660097976,213.33493282524873,258.1,211.12727272727273,258.1L0,258.1C0,258.1,0,258.1,0,258.1L0,241.9C0,241.9,0,241.9,0,241.9Z" fill="#4c78a8"/><path aria-label="mean execution time in µs: 2095; algorithm: (wilczek) Outer- and Inner-Loop Vectorization" role="graphics-symbol" aria-roledescription="bar" d="M0,181.9L53.13636363636364,181.9C55.34402373433964,181.9,57.13636363636364,183.692339902024,57.13636363636364,185.9L57.13636363636364,194.1C57.13636363636364,196.307660097976,55.34402373433964,198.1,53.13636363636364,198.1L0,198.1C0,198.1,0,198.1,0,198.1L0,181.9C0,181.9,0,181.9,0,181.9Z" fill="#4c78a8"/><path aria-label="mean execution time in µs: 642; algorithm: (chaowang15) convolve1D" role="graphics-symbol" aria-roledescription="bar" d="M0,21.9L13.509090909090908,21.9C15.716751007066907,21.9,17.509090909090908,23.692339902024,17.509090909090908,25.9L17.509090909090908,34.099999999999994C17.509090909090908,36.307660097976,15.716751007066907,38.099999999999994,13.509090909090908,38.099999999999994L0,38.099999999999994C0,38.099999999999994,0,38.099999999999994,0,38.099999999999994L0,21.9C0,21.9,0,21.9,0,21.9Z" fill="#4c78a8"/></g><g class="mark-text role-mark child_layer_1_marks" role="graphics-object" aria-roledescription="text mark container"><text aria-label="mean execution time in µs: 653; algorithm: (JohT) kernelPerInputValue Transposed; MeanExecutionTime: 653" role="graphics-symbol" aria-roledescription="text mark" text-anchor="start" transform="translate(21.80909090909091,53)" font-family="sans-serif" font-size="9px" fill="black">653</text><text aria-label="mean execution time in µs: 653; algorithm: (JohT) inputPerKernelValue Transposed; MeanExecutionTime: 653" role="graphics-symbol" aria-roledescription="text mark" text-anchor="start" transform="translate(21.80909090909091,73)" font-family="sans-serif" font-size="9px" fill="black">653</text><text aria-label="mean execution time in µs: 7758; algorithm: (JohT) inputPerKernelValue Transposed InnerLoopUnrolled; MeanExecutionTime: 7758" role="graphics-symbol" aria-roledescription="text mark" text-anchor="start" transform="translate(215.5818181818182,233)" font-family="sans-serif" font-size="9px" fill="black">7758</text><text aria-label="mean execution time in µs: 1237; algorithm: (JohT) inputPerKernelValue Transposed OuterLoopUnrolled; MeanExecutionTime: 1237" role="graphics-symbol" aria-roledescription="text mark" text-anchor="start" transform="translate(37.736363636363635,113)" font-family="sans-serif" font-size="9px" fill="black">1237</text><text aria-label="mean execution time in µs: 1625; algorithm: (JohT) inputPerKernelValue Transposed Inner&amp;OuterLoopUnrolled; MeanExecutionTime: 1625" role="graphics-symbol" aria-roledescription="text mark" text-anchor="start" transform="translate(48.31818181818182,133)" font-family="sans-serif" font-size="9px" fill="black">1625</text><text aria-label="mean execution time in µs: 1812; algorithm: (JohT) inputPerKernelValue Transposed LoopFission; MeanExecutionTime: 1812" role="graphics-symbol" aria-roledescription="text mark" text-anchor="start" transform="translate(53.418181818181814,173)" font-family="sans-serif" font-size="9px" fill="black">1812</text><text aria-label="mean execution time in µs: 1670; algorithm: (JohT) inputPerKernelValue Transposed LoopFissionIndexArithmetic; MeanExecutionTime: 1670" role="graphics-symbol" aria-roledescription="text mark" text-anchor="start" transform="translate(49.54545454545455,153)" font-family="sans-serif" font-size="9px" fill="black">1670</text><text aria-label="mean execution time in µs: 1135; algorithm: (JohT) kernelPerInputValue Transposed LoopFission; MeanExecutionTime: 1135" role="graphics-symbol" aria-roledescription="text mark" text-anchor="start" transform="translate(34.95454545454545,93)" font-family="sans-serif" font-size="9px" fill="black">1135</text><text aria-label="mean execution time in µs: 597; algorithm: (matlab-like) conv 'full' shape; MeanExecutionTime: 597" role="graphics-symbol" aria-roledescription="text mark" text-anchor="start" transform="translate(20.28181818181818,13)" font-family="sans-serif" font-size="9px" fill="black">597</text><text aria-label="mean execution time in µs: 10115; algorithm: (matlab-like) conv 'valid' shape pre padded; MeanExecutionTime: 10115" role="graphics-symbol" aria-roledescription="text mark" text-anchor="start" transform="translate(279.8636363636364,273)" font-family="sans-serif" font-size="9px" fill="black">10115</text><text aria-label="mean execution time in µs: 10664; algorithm: (wilczek) Single; MeanExecutionTime: 10664" role="graphics-symbol" aria-roledescription="text mark" text-anchor="start" transform="translate(294.8363636363636,293)" font-family="sans-serif" font-size="9px" fill="black">10664</text><text aria-label="mean execution time in µs: 2257; algorithm: (wilczek) Inner-Loop Vectorization; MeanExecutionTime: 2257" role="graphics-symbol" aria-roledescription="text mark" text-anchor="start" transform="translate(65.55454545454546,213)" font-family="sans-serif" font-size="9px" fill="black">2257</text><text aria-label="mean execution time in µs: 7888; algorithm: (wilczek) Outer-Loop Vectorization; MeanExecutionTime: 7888" role="graphics-symbol" aria-roledescription="text mark" text-anchor="start" transform="translate(219.12727272727273,253)" font-family="sans-serif" font-size="9px" fill="black">7888</text><text aria-label="mean execution time in µs: 2095; algorithm: (wilczek) Outer- and Inner-Loop Vectorization; MeanExecutionTime: 2095" role="graphics-symbol" aria-roledescription="text mark" text-anchor="start" transform="translate(61.13636363636364,193)" font-family="sans-serif" font-size="9px" fill="black">2095</text><text aria-label="mean execution time in µs: 642; algorithm: (chaowang15) convolve1D; MeanExecutionTime: 642" role="graphics-symbol" aria-roledescription="text mark" text-anchor="start" transform="translate(21.509090909090908,33)" font-family="sans-serif" font-size="9px" fill="black">642</text></g></g><path class="foreground" aria-hidden="true" d="" display="none"/></g></g></g><path class="foreground" aria-hidden="true" d="" display="none"/></g></g></g></svg>