<svg xmlns="http://www.w3.org/2000/svg" xmlns:xlink="http://www.w3.org/1999/xlink" version="1.1" class="marks" width="1485" height="404" viewBox="0 0 1485 404"><rect width="1485" height="404" fill="white"/><g fill="none" stroke-miterlimit="10" transform="translate(509,66)"><g class="mark-group role-frame root" role="graphics-object" aria-roledescription="group mark container"><g transform="translate(0,0)"><path class="background" aria-hidden="true" d="M0,0h0v0h0Z"/><g><g class="mark-group role-column-title column-title" role="graphics-object" aria-roledescription="group mark container"><g transform="translate(233,-35)"><path class="background" aria-hidden="true" d="M0,0h0v0h0Z"/><g><g class="mark-group role-title"><g transform="translate(0,-26)"><path class="background" aria-hidden="true" d="M0,0h0v0h0Z" pointer-events="none"/><g><g class="mark-text role-title-text" role="graphics-symbol" aria-roledescription="title" aria-label="Title text 'Convolution Benchmarks'" pointer-events="none"><text text-anchor="middle" transform="translate(0,13)" font-family="sans-serif" font-size="16px" font-weight="bold" fill="#000" opacity="1">Convolution Benchmarks</text></g></g><path class="foreground" aria-hidden="true" d="" pointer-events="none" display="none"/></g></g></g><path class="foreground" aria-hidden="true" d="" display="none"/></g></g><g class="mark-group role-column-header column_header" role="graphics-object" aria-roledescription="group mark container"><g transform="translate(0,-1)"><path class="background" aria-hidden="true" d="M0,0h200v0h-200Z"/><g><g class="mark-group role-title"><g transform="translate(100,-24)"><path class="background" aria-hidden="true" d="M0,0h0v0h0Z" pointer-events="none"/><g><g class="mark-text role-title-text" role="graphics-symbol" aria-roledescription="title" aria-label="Title text 'kernel size 16'" pointer-events="none"><text text-anchor="middle" transform="translate(0,11)" font-family="sans-serif" font-size="14px" fill="#000" opacity="1">kernel size 16</text></g></g><path class="foreground" aria-hidden="true" d="" pointer-events="none" display="none"/></g></g></g><path class="foreground" aria-hidden="true" d="" display="none"/></g><g transform="translate(743,-1)"><path class="background" aria-hidden="true" d="M0,0h200v0h-200Z"/><g><g class="mark-group role-title"><g transform="translate(100,-24)"><path class="background" aria-hidden="true" d="M0,0h0v0h0Z" pointer-events="none"/><g><g class="mark-text role-title-text" role="graphics-symbol" aria-roledescription="title" aria-label="Title text 'kernel size 512'" pointer-events="none"><text text-anchor="middle" transform="translate(0,11)" font-family="sans-serif" font-size="14px" fill="#000" opacity="1">kernel size 512</text></g></g><path class="foreground" aria-hidden="true" d="" pointer-events="none" display="none"/></g></g></g><path class="foreground" aria-hidden="true" d="" display="none"/></g></g><g class="mark-group role-scope cell" role="graphics-object" aria-roledescription="group mark container"><g transform="translate(0,0)"><path class="background" aria-hidden="true" d="M0.5,0.5h200v300h-200Z" stroke="#ddd"/><g><g class="mark-group role-axis" aria-hidden="true"><g transform="translate(0.5,300.5)"><path class="background" aria-hidden="true" d="M0,0h0v0h0Z" pointer-events="none"/><g><g class="mark-rule role-axis-grid" pointer-events="none"><line transform="translate(0,0)" x2="0" y2="-300" stroke="#ddd" stroke-width="1" opacity="1"/><line transform="translate(38,0)" x2="0" y2="-300" stroke="#ddd" stroke-width="1" opacity="1"/><line transform="translate(77,0)" x2="0" y2="-300" stroke="#ddd" stroke-width="1" opacity="1"/><line transform="translate(115,0)" x2="0" y2="-300" stroke="#ddd" stroke-width="1" opacity="1"/><line transform="translate(154,0)" x2="0" y2="-300" stroke="#ddd" stroke-width="1" opacity="1"/><line transform="translate(192,0)" x2="0" y2="-300" stroke="#ddd" stroke-width="1" opacity="1"/></g></g><path class="foreground" aria-hidden="true" d="" pointer-events="none" display="none"/></g></g><g class="mark-group role-axis" role="graphics-symbol" aria-roledescription="axis" aria-label="X-axis titled 'mean execution time in µs' for a linear scale with values from 0 to 260"><g transform="translate(0.5,300.5)"><path class="background" aria-hidden="true" d="M0,0h0v0h0Z" pointer-events="none"/><g><g class="mark-rule role-axis-tick" pointer-events="none"><line transform="translate(0,0)" x2="0" y2="5" stroke="#888" stroke-width="1" opacity="1"/><line transform="translate(38,0)" x2="0" y2="5" stroke="#888" stroke-width="1" opacity="1"/><line transform="translate(77,0)" x2="0" y2="5" stroke="#888" stroke-width="1" opacity="1"/><line transform="translate(115,0)" x2="0" y2="5" stroke="#888" stroke-width="1" opacity="1"/><line transform="translate(154,0)" x2="0" y2="5" stroke="#888" stroke-width="1" opacity="1"/><line transform="translate(192,0)" x2="0" y2="5" stroke="#888" stroke-width="1" opacity="1"/></g><g class="mark-text role-axis-label" pointer-events="none"><text text-anchor="start" transform="translate(0,15)" font-family="sans-serif" font-size="10px" fill="#000" opacity="1">0</text><text text-anchor="middle" transform="translate(38.46153846153847,15)" font-family="sans-serif" font-size="10px" fill="#000" opacity="1">50</text><text text-anchor="middle" transform="translate(76.92307692307693,15)" font-family="sans-serif" font-size="10px" fill="#000" opacity="1">100</text><text text-anchor="middle" transform="translate(115.38461538461537,15)" font-family="sans-serif" font-size="10px" fill="#000" opacity="1">150</text><text text-anchor="middle" transform="translate(153.84615384615387,15)" font-family="sans-serif" font-size="10px" fill="#000" opacity="1">200</text><text text-anchor="middle" transform="translate(192.30769230769232,15)" font-family="sans-serif" font-size="10px" fill="#000" opacity="1">250</text></g><g class="mark-rule role-axis-domain" pointer-events="none"><line transform="translate(0,0)" x2="200" y2="0" stroke="#888" stroke-width="1" opacity="1"/></g><g class="mark-text role-axis-title" pointer-events="none"><text text-anchor="middle" transform="translate(100,30)" font-family="sans-serif" font-size="11px" font-weight="bold" fill="#000" opacity="1">mean execution time in µs</text></g></g><path class="foreground" aria-hidden="true" d="" pointer-events="none" display="none"/></g></g><g class="mark-group role-axis" role="graphics-symbol" aria-roledescription="axis" aria-label="Y-axis titled 'algorithm' for a discrete scale with 15 values: (JohT) inputPerKernelValue Transposed, (JohT) inputPerKernelValue Transposed OuterLoopUnrolled, (chaowang15) convolve1D, (JohT) inputPerKernelValue Transposed Inner&amp;OuterLoopUnrolled, (JohT) inputPerKernelValue Transposed LoopFissionIndexArithmetic, ending with (JohT) inputPerKernelValue Transposed InnerLoopUnrolled"><g transform="translate(0.5,0.5)"><path class="background" aria-hidden="true" d="M0,0h0v0h0Z" pointer-events="none"/><g><g class="mark-rule role-axis-tick" pointer-events="none"><line transform="translate(0,10)" x2="-5" y2="0" stroke="#888" stroke-width="1" opacity="1"/><line transform="translate(0,30)" x2="-5" y2="0" stroke="#888" stroke-width="1" opacity="1"/><line transform="translate(0,50)" x2="-5" y2="0" stroke="#888" stroke-width="1" opacity="1"/><line transform="translate(0,70)" x2="-5" y2="0" stroke="#888" stroke-width="1" opacity="1"/><line transform="translate(0,90)" x2="-5" y2="0" stroke="#888" stroke-width="1" opacity="1"/><line transform="translate(0,110)" x2="-5" y2="0" stroke="#888" stroke-width="1" opacity="1"/><line transform="translate(0,130)" x2="-5" y2="0" stroke="#888" stroke-width="1" opacity="1"/><line transform="translate(0,150)" x2="-5" y2="0" stroke="#888" stroke-width="1" opacity="1"/><line transform="translate(0,170)" x2="-5" y2="0" stroke="#888" stroke-width="1" opacity="1"/><line transform="translate(0,190)" x2="-5" y2="0" stroke="#888" stroke-width="1" opacity="1"/><line transform="translate(0,210)" x2="-5" y2="0" stroke="#888" stroke-width="1" opacity="1"/><line transform="translate(0,230)" x2="-5" y2="0" stroke="#888" stroke-width="1" opacity="1"/><line transform="translate(0,250)" x2="-5" y2="0" stroke="#888" stroke-width="1" opacity="1"/><line transform="translate(0,270)" x2="-5" y2="0" stroke="#888" stroke-width="1" opacity="1"/><line transform="translate(0,290)" x2="-5" y2="0" stroke="#888" stroke-width="1" opacity="1"/></g><g class="mark-text role-axis-label" pointer-events="none"><text text-anchor="end" transform="translate(-7,12.5)" font-family="sans-serif" font-size="10px" fill="#000" opacity="1">(JohT) inputPerKernelValue Transposed</text><text text-anchor="end" transform="translate(-7,32.5)" font-family="sans-serif" font-size="10px" fill="#000" opacity="1">(JohT) inputPerKernelValue Transposed OuterLoopUnrolled</text><text text-anchor="end" transform="translate(-7,52.5)" font-family="sans-serif" font-size="10px" fill="#000" opacity="1">(chaowang15) convolve1D</text><text text-anchor="end" transform="translate(-7,72.5)" font-family="sans-serif" font-size="10px" fill="#000" opacity="1">(JohT) inputPerKernelValue Transposed Inner&amp;OuterLoopUnrolled</text><text text-anchor="end" transform="translate(-7,92.5)" font-family="sans-serif" font-size="10px" fill="#000" opacity="1">(JohT) inputPerKernelValue Transposed LoopFissionIndexArithme…</text><text text-anchor="end" transform="translate(-7,112.5)" font-family="sans-serif" font-size="10px" fill="#000" opacity="1">(matlab-like) conv 'full' shape</text><text text-anchor="end" transform="translate(-7,132.5)" font-family="sans-serif" font-size="10px" fill="#000" opacity="1">(JohT) inputPerKernelValue Transposed LoopFission</text><text text-anchor="end" transform="translate(-7,152.5)" font-family="sans-serif" font-size="10px" fill="#000" opacity="1">(wilczek) Outer- and Inner-Loop Vectorization</text><text text-anchor="end" transform="translate(-7,172.5)" font-family="sans-serif" font-size="10px" fill="#000" opacity="1">(JohT) kernelPerInputValue Transposed</text><text text-anchor="end" transform="translate(-7,192.5)" font-family="sans-serif" font-size="10px" fill="#000" opacity="1">(wilczek) Inner-Loop Vectorization</text><text text-anchor="end" transform="translate(-7,212.5)" font-family="sans-serif" font-size="10px" fill="#000" opacity="1">(JohT) kernelPerInputValue Transposed LoopFission</text><text text-anchor="end" transform="translate(-7,232.5)" font-family="sans-serif" font-size="10px" fill="#000" opacity="1">(wilczek) Single</text><text text-anchor="end" transform="translate(-7,252.5)" font-family="sans-serif" font-size="10px" fill="#000" opacity="1">(matlab-like) conv 'valid' shape pre padded</text><text text-anchor="end" transform="translate(-7,272.5)" font-family="sans-serif" font-size="10px" fill="#000" opacity="1">(wilczek) Outer-Loop Vectorization</text><text text-anchor="end" transform="translate(-7,292.5)" font-family="sans-serif" font-size="10px" fill="#000" opacity="1">(JohT) inputPerKernelValue Transposed InnerLoopUnrolled</text></g><g class="mark-rule role-axis-domain" pointer-events="none"><line transform="translate(0,0)" x2="0" y2="300" stroke="#888" stroke-width="1" opacity="1"/></g><g class="mark-text role-axis-title" pointer-events="none"><text text-anchor="middle" transform="translate(-320,150) rotate(-90) translate(0,-2)" font-family="sans-serif" font-size="11px" font-weight="bold" fill="#000" opacity="1">algorithm</text></g></g><path class="foreground" aria-hidden="true" d="" pointer-events="none" display="none"/></g></g><g class="mark-rect role-mark child_layer_0_marks" role="graphics-object" aria-roledescription="rect mark container"><path aria-label="mean execution time in µs: 72; algorithm: (JohT) kernelPerInputValue Transposed" role="graphics-symbol" aria-roledescription="bar" d="M0,161.9L51.38461538461539,161.9C53.59227548259139,161.9,55.38461538461539,163.692339902024,55.38461538461539,165.9L55.38461538461539,174.1C55.38461538461539,176.307660097976,53.59227548259139,178.1,51.38461538461539,178.1L0,178.1C0,178.1,0,178.1,0,178.1L0,161.9C0,161.9,0,161.9,0,161.9Z" fill="#4c78a8"/><path aria-label="mean execution time in µs: 22; algorithm: (JohT) inputPerKernelValue Transposed" role="graphics-symbol" aria-roledescription="bar" d="M0,1.9L12.923076923076923,1.9C15.130737021052923,1.9,16.923076923076923,3.692339902024,16.923076923076923,5.9L16.923076923076923,14.099999999999998C16.923076923076923,16.307660097975997,15.130737021052923,18.099999999999998,12.923076923076923,18.099999999999998L0,18.099999999999998C0,18.099999999999998,0,18.099999999999998,0,18.099999999999998L0,1.9C0,1.9,0,1.9,0,1.9Z" fill="#4c78a8"/><path aria-label="mean execution time in µs: 250; algorithm: (JohT) inputPerKernelValue Transposed InnerLoopUnrolled" role="graphics-symbol" aria-roledescription="bar" d="M0,281.9L188.30769230769232,281.9C190.51535240566832,281.9,192.30769230769232,283.692339902024,192.30769230769232,285.9L192.30769230769232,294.09999999999997C192.30769230769232,296.30766009797594,190.51535240566832,298.09999999999997,188.30769230769232,298.09999999999997L0,298.09999999999997C0,298.09999999999997,0,298.09999999999997,0,298.09999999999997L0,281.9C0,281.9,0,281.9,0,281.9Z" fill="#4c78a8"/><path aria-label="mean execution time in µs: 39; algorithm: (JohT) inputPerKernelValue Transposed OuterLoopUnrolled" role="graphics-symbol" aria-roledescription="bar" d="M0,21.9L26,21.9C28.207660097976,21.9,30,23.692339902024,30,25.9L30,34.099999999999994C30,36.307660097976,28.207660097976,38.099999999999994,26,38.099999999999994L0,38.099999999999994C0,38.099999999999994,0,38.099999999999994,0,38.099999999999994L0,21.9C0,21.9,0,21.9,0,21.9Z" fill="#4c78a8"/><path aria-label="mean execution time in µs: 54; algorithm: (JohT) inputPerKernelValue Transposed Inner&amp;OuterLoopUnrolled" role="graphics-symbol" aria-roledescription="bar" d="M0,61.9L37.53846153846154,61.9C39.74612163643754,61.9,41.53846153846154,63.692339902023996,41.53846153846154,65.9L41.53846153846154,74.1C41.53846153846154,76.307660097976,39.74612163643754,78.1,37.53846153846154,78.1L0,78.1C0,78.1,0,78.1,0,78.1L0,61.9C0,61.9,0,61.9,0,61.9Z" fill="#4c78a8"/><path aria-label="mean execution time in µs: 61; algorithm: (JohT) inputPerKernelValue Transposed LoopFission" role="graphics-symbol" aria-roledescription="bar" d="M0,121.9L42.92307692307692,121.9C45.13073702105292,121.9,46.92307692307692,123.692339902024,46.92307692307692,125.9L46.92307692307692,134.1C46.92307692307692,136.307660097976,45.13073702105292,138.1,42.92307692307692,138.1L0,138.1C0,138.1,0,138.1,0,138.1L0,121.9C0,121.9,0,121.9,0,121.9Z" fill="#4c78a8"/><path aria-label="mean execution time in µs: 57; algorithm: (JohT) inputPerKernelValue Transposed LoopFissionIndexArithmetic" role="graphics-symbol" aria-roledescription="bar" d="M0,81.9L39.84615384615385,81.9C42.05381394412985,81.9,43.84615384615385,83.692339902024,43.84615384615385,85.9L43.84615384615385,94.10000000000001C43.84615384615385,96.30766009797601,42.05381394412985,98.10000000000001,39.84615384615385,98.10000000000001L0,98.10000000000001C0,98.10000000000001,0,98.10000000000001,0,98.10000000000001L0,81.9C0,81.9,0,81.9,0,81.9Z" fill="#4c78a8"/><path aria-label="mean execution time in µs: 85; algorithm: (JohT) kernelPerInputValue Transposed LoopFission" role="graphics-symbol" aria-roledescription="bar" d="M0,201.9L61.38461538461539,201.9C63.59227548259139,201.9,65.38461538461539,203.692339902024,65.38461538461539,205.9L65.38461538461539,214.1C65.38461538461539,216.307660097976,63.59227548259139,218.1,61.38461538461539,218.1L0,218.1C0,218.1,0,218.1,0,218.1L0,201.9C0,201.9,0,201.9,0,201.9Z" fill="#4c78a8"/><path aria-label="mean execution time in µs: 60; algorithm: (matlab-like) conv 'full' shape" role="graphics-symbol" aria-roledescription="bar" d="M0,101.9L42.15384615384615,101.9C44.361506251822156,101.9,46.15384615384615,103.692339902024,46.15384615384615,105.9L46.15384615384615,114.10000000000001C46.15384615384615,116.30766009797601,44.361506251822156,118.10000000000001,42.15384615384615,118.10000000000001L0,118.10000000000001C0,118.10000000000001,0,118.10000000000001,0,118.10000000000001L0,101.9C0,101.9,0,101.9,0,101.9Z" fill="#4c78a8"/><path aria-label="mean execution time in µs: 133; algorithm: (matlab-like) conv 'valid' shape pre padded" role="graphics-symbol" aria-roledescription="bar" d="M0,241.9L98.30769230769229,241.9C100.5153524056683,241.9,102.30769230769229,243.692339902024,102.30769230769229,245.9L102.30769230769229,254.10000000000002C102.30769230769229,256.307660097976,100.5153524056683,258.1,98.30769230769229,258.1L0,258.1C0,258.1,0,258.1,0,258.1L0,241.9C0,241.9,0,241.9,0,241.9Z" fill="#4c78a8"/><path aria-label="mean execution time in µs: 97; algorithm: (wilczek) Single" role="graphics-symbol" aria-roledescription="bar" d="M0,221.9L70.61538461538461,221.9C72.82304471336062,221.9,74.61538461538461,223.692339902024,74.61538461538461,225.9L74.61538461538461,234.1C74.61538461538461,236.307660097976,72.82304471336062,238.1,70.61538461538461,238.1L0,238.1C0,238.1,0,238.1,0,238.1L0,221.9C0,221.9,0,221.9,0,221.9Z" fill="#4c78a8"/><path aria-label="mean execution time in µs: 72; algorithm: (wilczek) Inner-Loop Vectorization" role="graphics-symbol" aria-roledescription="bar" d="M0,181.9L51.38461538461539,181.9C53.59227548259139,181.9,55.38461538461539,183.692339902024,55.38461538461539,185.9L55.38461538461539,194.1C55.38461538461539,196.307660097976,53.59227548259139,198.1,51.38461538461539,198.1L0,198.1C0,198.1,0,198.1,0,198.1L0,181.9C0,181.9,0,181.9,0,181.9Z" fill="#4c78a8"/><path aria-label="mean execution time in µs: 228; algorithm: (wilczek) Outer-Loop Vectorization" role="graphics-symbol" aria-roledescription="bar" d="M0,261.9L171.3846153846154,261.9C173.5922754825914,261.9,175.3846153846154,263.692339902024,175.3846153846154,265.9L175.3846153846154,274.09999999999997C175.3846153846154,276.30766009797594,173.5922754825914,278.09999999999997,171.3846153846154,278.09999999999997L0,278.09999999999997C0,278.09999999999997,0,278.09999999999997,0,278.09999999999997L0,261.9C0,261.9,0,261.9,0,261.9Z" fill="#4c78a8"/><path aria-label="mean execution time in µs: 70; algorithm: (wilczek) Outer- and Inner-Loop Vectorization" role="graphics-symbol" aria-roledescription="bar" d="M0,141.9L49.84615384615385,141.9C52.05381394412985,141.9,53.84615384615385,143.692339902024,53.84615384615385,145.9L53.84615384615385,154.1C53.84615384615385,156.307660097976,52.05381394412985,158.1,49.84615384615385,158.1L0,158.1C0,158.1,0,158.1,0,158.1L0,141.9C0,141.9,0,141.9,0,141.9Z" fill="#4c78a8"/><path aria-label="mean execution time in µs: 48; algorithm: (chaowang15) convolve1D" role="graphics-symbol" aria-roledescription="bar" d="M0,41.9L32.92307692307693,41.9C35.13073702105293,41.9,36.92307692307693,43.692339902023996,36.92307692307693,45.9L36.92307692307693,54.099999999999994C36.92307692307693,56.307660097976,35.13073702105293,58.099999999999994,32.92307692307693,58.099999999999994L0,58.099999999999994C0,58.099999999999994,0,58.099999999999994,0,58.099999999999994L0,41.9C0,41.9,0,41.9,0,41.9Z" fill="#4c78a8"/></g><g class="mark-text role-mark child_layer_1_marks" role="graphics-object" aria-roledescription="text mark container"><text aria-label="mean execution time in µs: 72; algorithm: (JohT) kernelPerInputValue Transposed; MeanExecutionTime: 72" role="graphics-symbol" aria-roledescription="text mark" text-anchor="start" transform="translate(59.38461538461539,173)" font-family="sans-serif" font-size="9px" fill="black">72</text><text aria-label="mean execution time in µs: 22; algorithm: (JohT) inputPerKernelValue Transposed; MeanExecutionTime: 22" role="graphics-symbol" aria-roledescription="text mark" text-anchor="start" transform="translate(20.923076923076923,13)" font-family="sans-serif" font-size="9px" fill="black">22</text><text aria-label="mean execution time in µs: 250; algorithm: (JohT) inputPerKernelValue Transposed InnerLoopUnrolled; MeanExecutionTime: 250" role="graphics-symbol" aria-roledescription="text mark" text-anchor="start" transform="translate(196.30769230769232,293)" font-family="sans-serif" font-size="9px" fill="black">250</text><text aria-label="mean execution time in µs: 39; algorithm: (JohT) inputPerKernelValue Transposed OuterLoopUnrolled; MeanExecutionTime: 39" role="graphics-symbol" aria-roledescription="text mark" text-anchor="start" transform="translate(34,33)" font-family="sans-serif" font-size="9px" fill="black">39</text><text aria-label="mean execution time in µs: 54; algorithm: (JohT) inputPerKernelValue Transposed Inner&amp;OuterLoopUnrolled; MeanExecutionTime: 54" role="graphics-symbol" aria-roledescription="text mark" text-anchor="start" transform="translate(45.53846153846154,73)" font-family="sans-serif" font-size="9px" fill="black">54</text><text aria-label="mean execution time in µs: 61; algorithm: (JohT) inputPerKernelValue Transposed LoopFission; MeanExecutionTime: 61" role="graphics-symbol" aria-roledescription="text mark" text-anchor="start" transform="translate(50.92307692307692,133)" font-family="sans-serif" font-size="9px" fill="black">61</text><text aria-label="mean execution time in µs: 57; algorithm: (JohT) inputPerKernelValue Transposed LoopFissionIndexArithmetic; MeanExecutionTime: 57" role="graphics-symbol" aria-roledescription="text mark" text-anchor="start" transform="translate(47.84615384615385,93)" font-family="sans-serif" font-size="9px" fill="black">57</text><text aria-label="mean execution time in µs: 85; algorithm: (JohT) kernelPerInputValue Transposed LoopFission; MeanExecutionTime: 85" role="graphics-symbol" aria-roledescription="text mark" text-anchor="start" transform="translate(69.38461538461539,213)" font-family="sans-serif" font-size="9px" fill="black">85</text><text aria-label="mean execution time in µs: 60; algorithm: (matlab-like) conv 'full' shape; MeanExecutionTime: 60" role="graphics-symbol" aria-roledescription="text mark" text-anchor="start" transform="translate(50.15384615384615,113)" font-family="sans-serif" font-size="9px" fill="black">60</text><text aria-label="mean execution time in µs: 133; algorithm: (matlab-like) conv 'valid' shape pre padded; MeanExecutionTime: 133" role="graphics-symbol" aria-roledescription="text mark" text-anchor="start" transform="translate(106.30769230769229,253)" font-family="sans-serif" font-size="9px" fill="black">133</text><text aria-label="mean execution time in µs: 97; algorithm: (wilczek) Single; MeanExecutionTime: 97" role="graphics-symbol" aria-roledescription="text mark" text-anchor="start" transform="translate(78.61538461538461,233)" font-family="sans-serif" font-size="9px" fill="black">97</text><text aria-label="mean execution time in µs: 72; algorithm: (wilczek) Inner-Loop Vectorization; MeanExecutionTime: 72" role="graphics-symbol" aria-roledescription="text mark" text-anchor="start" transform="translate(59.38461538461539,193)" font-family="sans-serif" font-size="9px" fill="black">72</text><text aria-label="mean execution time in µs: 228; algorithm: (wilczek) Outer-Loop Vectorization; MeanExecutionTime: 228" role="graphics-symbol" aria-roledescription="text mark" text-anchor="start" transform="translate(179.3846153846154,273)" font-family="sans-serif" font-size="9px" fill="black">228</text><text aria-label="mean execution time in µs: 70; algorithm: (wilczek) Outer- and Inner-Loop Vectorization; MeanExecutionTime: 70" role="graphics-symbol" aria-roledescription="text mark" text-anchor="start" transform="translate(57.84615384615385,153)" font-family="sans-serif" font-size="9px" fill="black">70</text><text aria-label="mean execution time in µs: 48; algorithm: (chaowang15) convolve1D; MeanExecutionTime: 48" role="graphics-symbol" aria-roledescription="text mark" text-anchor="start" transform="translate(40.92307692307693,53)" font-family="sans-serif" font-size="9px" fill="black">48</text></g></g><path class="foreground" aria-hidden="true" d="" display="none"/></g><g transform="translate(743,0)"><path class="background" aria-hidden="true" d="M0.5,0.5h200v300h-200Z" stroke="#ddd"/><g><g class="mark-group role-axis" aria-hidden="true"><g transform="translate(0.5,300.5)"><path class="background" aria-hidden="true" d="M0,0h0v0h0Z" pointer-events="none"/><g><g class="mark-rule role-axis-grid" pointer-events="none"><line transform="translate(0,0)" x2="0" y2="-300" stroke="#ddd" stroke-width="1" opacity="1"/><line transform="translate(36,0)" x2="0" y2="-300" stroke="#ddd" stroke-width="1" opacity="1"/><line transform="translate(73,0)" x2="0" y2="-300" stroke="#ddd" stroke-width="1" opacity="1"/><line transform="translate(109,0)" x2="0" y2="-300" stroke="#ddd" stroke-width="1" opacity="1"/><line transform="translate(145,0)" x2="0" y2="-300" stroke="#ddd" stroke-width="1" opacity="1"/><line transform="translate(182,0)" x2="0" y2="-300" stroke="#ddd" stroke-width="1" opacity="1"/></g></g><path class="foreground" aria-hidden="true" d="" pointer-events="none" display="none"/></g></g><g class="mark-group role-axis" role="graphics-symbol" aria-roledescription="axis" aria-label="X-axis titled 'mean execution time in µs' for a linear scale with values from 0 to 11,000"><g transform="translate(0.5,300.5)"><path class="background" aria-hidden="true" d="M0,0h0v0h0Z" pointer-events="none"/><g><g class="mark-rule role-axis-tick" pointer-events="none"><line transform="translate(0,0)" x2="0" y2="5" stroke="#888" stroke-width="1" opacity="1"/><line transform="translate(36,0)" x2="0" y2="5" stroke="#888" stroke-width="1" opacity="1"/><line transform="translate(73,0)" x2="0" y2="5" stroke="#888" stroke-width="1" opacity="1"/><line transform="translate(109,0)" x2="0" y2="5" stroke="#888" stroke-width="1" opacity="1"/><line transform="translate(145,0)" x2="0" y2="5" stroke="#888" stroke-width="1" opacity="1"/><line transform="translate(182,0)" x2="0" y2="5" stroke="#888" stroke-width="1" opacity="1"/></g><g class="mark-text role-axis-label" pointer-events="none"><text text-anchor="start" transform="translate(0,15)" font-family="sans-serif" font-size="10px" fill="#000" opacity="1">0</text><text text-anchor="middle" transform="translate(36.36363636363637,15)" font-family="sans-serif" font-size="10px" fill="#000" opacity="0">2,000</text><text text-anchor="middle" transform="translate(72.72727272727273,15)" font-family="sans-serif" font-size="10px" fill="#000" opacity="1">4,000</text><text text-anchor="middle" transform="translate(109.09090909090908,15)" font-family="sans-serif" font-size="10px" fill="#000" opacity="0">6,000</text><text text-anchor="middle" transform="translate(145.45454545454547,15)" font-family="sans-serif" font-size="10px" fill="#000" opacity="1">8,000</text><text text-anchor="middle" transform="translate(181.8181818181818,15)" font-family="sans-serif" font-size="10px" fill="#000" opacity="0">10,000</text></g><g class="mark-rule role-axis-domain" pointer-events="none"><line transform="translate(0,0)" x2="200" y2="0" stroke="#888" stroke-width="1" opacity="1"/></g><g class="mark-text role-axis-title" pointer-events="none"><text text-anchor="middle" transform="translate(100,30)" font-family="sans-serif" font-size="11px" font-weight="bold" fill="#000" opacity="1">mean execution time in µs</text></g></g><path class="foreground" aria-hidden="true" d="" pointer-events="none" display="none"/></g></g><g class="mark-group role-axis" role="graphics-symbol" aria-roledescription="axis" aria-label="Y-axis titled 'algorithm' for a discrete scale with 15 values: (chaowang15) convolve1D, (matlab-like) conv 'full' shape, (JohT) inputPerKernelValue Transposed, (JohT) kernelPerInputValue Transposed, (JohT) kernelPerInputValue Transposed LoopFission, ending with (matlab-like) conv 'valid' shape pre padded"><g transform="translate(0.5,0.5)"><path class="background" aria-hidden="true" d="M0,0h0v0h0Z" pointer-events="none"/><g><g class="mark-rule role-axis-tick" pointer-events="none"><line transform="translate(0,10)" x2="-5" y2="0" stroke="#888" stroke-width="1" opacity="1"/><line transform="translate(0,30)" x2="-5" y2="0" stroke="#888" stroke-width="1" opacity="1"/><line transform="translate(0,50)" x2="-5" y2="0" stroke="#888" stroke-width="1" opacity="1"/><line transform="translate(0,70)" x2="-5" y2="0" stroke="#888" stroke-width="1" opacity="1"/><line transform="translate(0,90)" x2="-5" y2="0" stroke="#888" stroke-width="1" opacity="1"/><line transform="translate(0,110)" x2="-5" y2="0" stroke="#888" stroke-width="1" opacity="1"/><line transform="translate(0,130)" x2="-5" y2="0" stroke="#888" stroke-width="1" opacity="1"/><line transform="translate(0,150)" x2="-5" y2="0" stroke="#888" stroke-width="1" opacity="1"/><line transform="translate(0,170)" x2="-5" y2="0" stroke="#888" stroke-width="1" opacity="1"/><line transform="translate(0,190)" x2="-5" y2="0" stroke="#888" stroke-width="1" opacity="1"/><line transform="translate(0,210)" x2="-5" y2="0" stroke="#888" stroke-width="1" opacity="1"/><line transform="translate(0,230)" x2="-5" y2="0" stroke="#888" stroke-width="1" opacity="1"/><line transform="translate(0,250)" x2="-5" y2="0" stroke="#888" stroke-width="1" opacity="1"/><line transform="translate(0,270)" x2="-5" y2="0" stroke="#888" stroke-width="1" opacity="1"/><line transform="translate(0,290)" x2="-5" y2="0" stroke="#888" stroke-width="1" opacity="1"/></g><g class="mark-text role-axis-label" pointer-events="none"><text text-anchor="end" transform="translate(-7,12.5)" font-family="sans-serif" font-size="10px" fill="#000" opacity="1">(chaowang15) convolve1D</text><text text-anchor="end" transform="translate(-7,32.5)" font-family="sans-serif" font-size="10px" fill="#000" opacity="1">(matlab-like) conv 'full' shape</text><text text-anchor="end" transform="translate(-7,52.5)" font-family="sans-serif" font-size="10px" fill="#000" opacity="1">(JohT) inputPerKernelValue Transposed</text><text text-anchor="end" transform="translate(-7,72.5)" font-family="sans-serif" font-size="10px" fill="#000" opacity="1">(JohT) kernelPerInputValue Transposed</text><text text-anchor="end" transform="translate(-7,92.5)" font-family="sans-serif" font-size="10px" fill="#000" opacity="1">(JohT) kernelPerInputValue Transposed LoopFission</text><text text-anchor="end" transform="translate(-7,112.5)" font-family="sans-serif" font-size="10px" fill="#000" opacity="1">(JohT) inputPerKernelValue Transposed OuterLoopUnrolled</text><text text-anchor="end" transform="translate(-7,132.5)" font-family="sans-serif" font-size="10px" fill="#000" opacity="1">(JohT) inputPerKernelValue Transposed Inner&amp;OuterLoopUnrolled</text><text text-anchor="end" transform="translate(-7,152.5)" font-family="sans-serif" font-size="10px" fill="#000" opacity="1">(JohT) inputPerKernelValue Transposed LoopFissionIndexArithme…</text><text text-anchor="end" transform="translate(-7,172.5)" font-family="sans-serif" font-size="10px" fill="#000" opacity="1">(JohT) inputPerKernelValue Transposed LoopFission</text><text text-anchor="end" transform="translate(-7,192.5)" font-family="sans-serif" font-size="10px" fill="#000" opacity="1">(wilczek) Outer- and Inner-Loop Vectorization</text><text text-anchor="end" transform="translate(-7,212.5)" font-family="sans-serif" font-size="10px" fill="#000" opacity="1">(wilczek) Inner-Loop Vectorization</text><text text-anchor="end" transform="translate(-7,232.5)" font-family="sans-serif" font-size="10px" fill="#000" opacity="1">(wilczek) Outer-Loop Vectorization</text><text text-anchor="end" transform="translate(-7,252.5)" font-family="sans-serif" font-size="10px" fill="#000" opacity="1">(JohT) inputPerKernelValue Transposed InnerLoopUnrolled</text><text text-anchor="end" transform="translate(-7,272.5)" font-family="sans-serif" font-size="10px" fill="#000" opacity="1">(wilczek) Single</text><text text-anchor="end" transform="translate(-7,292.5)" font-family="sans-serif" font-size="10px" fill="#000" opacity="1">(matlab-like) conv 'valid' shape pre padded</text></g><g class="mark-rule role-axis-domain" pointer-events="none"><line transform="translate(0,0)" x2="0" y2="300" stroke="#888" stroke-width="1" opacity="1"/></g><g class="mark-text role-axis-title" pointer-events="none"><text text-anchor="middle" transform="translate(-320,150) rotate(-90) translate(0,-2)" font-family="sans-serif" font-size="11px" font-weight="bold" fill="#000" opacity="1">algorithm</text></g></g><path class="foreground" aria-hidden="true" d="" pointer-events="none" display="none"/></g></g><g class="mark-rect role-mark child_layer_0_marks" role="graphics-object" aria-roledescription="rect mark container"><path aria-label="mean execution time in µs: 679; algorithm: (JohT) kernelPerInputValue Transposed" role="graphics-symbol" aria-roledescription="bar" d="M0,61.9L8.345454545454546,61.9C10.553114643430545,61.9,12.345454545454546,63.692339902023996,12.345454545454546,65.9L12.345454545454546,74.1C12.345454545454546,76.307660097976,10.553114643430545,78.1,8.345454545454546,78.1L0,78.1C0,78.1,0,78.1,0,78.1L0,61.9C0,61.9,0,61.9,0,61.9Z" fill="#4c78a8"/><path aria-label="mean execution time in µs: 655; algorithm: (JohT) inputPerKernelValue Transposed" role="graphics-symbol" aria-roledescription="bar" d="M0,41.9L7.90909090909091,41.9C10.11675100706691,41.9,11.90909090909091,43.692339902023996,11.90909090909091,45.9L11.90909090909091,54.099999999999994C11.90909090909091,56.307660097976,10.11675100706691,58.099999999999994,7.90909090909091,58.099999999999994L0,58.099999999999994C0,58.099999999999994,0,58.099999999999994,0,58.099999999999994L0,41.9C0,41.9,0,41.9,0,41.9Z" fill="#4c78a8"/><path aria-label="mean execution time in µs: 7926; algorithm: (JohT) inputPerKernelValue Transposed InnerLoopUnrolled" role="graphics-symbol" aria-roledescription="bar" d="M0,241.9L140.10909090909092,241.9C142.31675100706693,241.9,144.10909090909092,243.692339902024,144.10909090909092,245.9L144.10909090909092,254.10000000000002C144.10909090909092,256.307660097976,142.31675100706693,258.1,140.10909090909092,258.1L0,258.1C0,258.1,0,258.1,0,258.1L0,241.9C0,241.9,0,241.9,0,241.9Z" fill="#4c78a8"/><path aria-label="mean execution time in µs: 1304; algorithm: (JohT) inputPerKernelValue Transposed OuterLoopUnrolled" role="graphics-symbol" aria-roledescription="bar" d="M0,101.9L19.70909090909091,101.9C21.91675100706691,101.9,23.70909090909091,103.692339902024,23.70909090909091,105.9L23.70909090909091,114.10000000000001C23.70909090909091,116.30766009797601,21.91675100706691,118.10000000000001,19.70909090909091,118.10000000000001L0,118.10000000000001C0,118.10000000000001,0,118.10000000000001,0,118.10000000000001L0,101.9C0,101.9,0,101.9,0,101.9Z" fill="#4c78a8"/><path aria-label="mean execution time in µs: 1636; algorithm: (JohT) inputPerKernelValue Transposed Inner&amp;OuterLoopUnrolled" role="graphics-symbol" aria-roledescription="bar" d="M0,121.9L25.745454545454546,121.9C27.953114643430546,121.9,29.745454545454546,123.692339902024,29.745454545454546,125.9L29.745454545454546,134.1C29.745454545454546,136.307660097976,27.953114643430546,138.1,25.745454545454546,138.1L0,138.1C0,138.1,0,138.1,0,138.1L0,121.9C0,121.9,0,121.9,0,121.9Z" fill="#4c78a8"/><path aria-label="mean execution time in µs: 1750; algorithm: (JohT) inputPerKernelValue Transposed LoopFission" role="graphics-symbol" aria-roledescription="bar" d="M0,161.9L27.818181818181817,161.9C30.025841916157816,161.9,31.818181818181817,163.692339902024,31.818181818181817,165.9L31.818181818181817,174.1C31.818181818181817,176.307660097976,30.025841916157816,178.1,27.818181818181817,178.1L0,178.1C0,178.1,0,178.1,0,178.1L0,161.9C0,161.9,0,161.9,0,161.9Z" fill="#4c78a8"/><path aria-label="mean execution time in µs: 1671; algorithm: (JohT) inputPerKernelValue Transposed LoopFissionIndexArithmetic" role="graphics-symbol" aria-roledescription="bar" d="M0,141.9L26.381818181818183,141.9C28.589478279794182,141.9,30.381818181818183,143.692339902024,30.381818181818183,145.9L30.381818181818183,154.1C30.381818181818183,156.307660097976,28.589478279794182,158.1,26.381818181818183,158.1L0,158.1C0,158.1,0,158.1,0,158.1L0,141.9C0,141.9,0,141.9,0,141.9Z" fill="#4c78a8"/><path aria-label="mean execution time in µs: 1165; algorithm: (JohT) kernelPerInputValue Transposed LoopFission" role="graphics-symbol" aria-roledescription="bar" d="M0,81.9L17.181818181818183,81.9C19.389478279794183,81.9,21.181818181818183,83.692339902024,21.181818181818183,85.9L21.181818181818183,94.10000000000001C21.181818181818183,96.30766009797601,19.389478279794183,98.10000000000001,17.181818181818183,98.10000000000001L0,98.10000000000001C0,98.10000000000001,0,98.10000000000001,0,98.10000000000001L0,81.9C0,81.9,0,81.9,0,81.9Z" fill="#4c78a8"/><path aria-label="mean execution time in µs: 603; algorithm: (matlab-like) conv 'full' shape" role="graphics-symbol" aria-roledescription="bar" d="M0,21.9L6.963636363636365,21.9C9.171296461612364,21.9,10.963636363636365,23.692339902024,10.963636363636365,25.9L10.963636363636365,34.099999999999994C10.963636363636365,36.307660097976,9.171296461612364,38.099999999999994,6.963636363636365,38.099999999999994L0,38.099999999999994C0,38.099999999999994,0,38.099999999999994,0,38.099999999999994L0,21.9C0,21.9,0,21.9,0,21.9Z" fill="#4c78a8"/><path aria-label="mean execution time in µs: 10274; algorithm: (matlab-like) conv 'valid' shape pre padded" role="graphics-symbol" aria-roledescription="bar" d="M0,281.9L182.8,281.9C185.00766009797601,281.9,186.8,283.692339902024,186.8,285.9L186.8,294.09999999999997C186.8,296.30766009797594,185.00766009797601,298.09999999999997,182.8,298.09999999999997L0,298.09999999999997C0,298.09999999999997,0,298.09999999999997,0,298.09999999999997L0,281.9C0,281.9,0,281.9,0,281.9Z" fill="#4c78a8"/><path aria-label="mean execution time in µs: 10254; algorithm: (wilczek) Single" role="graphics-symbol" aria-roledescription="bar" d="M0,261.9L182.43636363636364,261.9C184.64402373433964,261.9,186.43636363636364,263.692339902024,186.43636363636364,265.9L186.43636363636364,274.09999999999997C186.43636363636364,276.30766009797594,184.64402373433964,278.09999999999997,182.43636363636364,278.09999999999997L0,278.09999999999997C0,278.09999999999997,0,278.09999999999997,0,278.09999999999997L0,261.9C0,261.9,0,261.9,0,261.9Z" fill="#4c78a8"/><path aria-label="mean execution time in µs: 2220; algorithm: (wilczek) Inner-Loop Vectorization" role="graphics-symbol" aria-roledescription="bar" d="M0,201.9L36.36363636363636,201.9C38.57129646161236,201.9,40.36363636363636,203.692339902024,40.36363636363636,205.9L40.36363636363636,214.1C40.36363636363636,216.307660097976,38.57129646161236,218.1,36.36363636363636,218.1L0,218.1C0,218.1,0,218.1,0,218.1L0,201.9C0,201.9,0,201.9,0,201.9Z" fill="#4c78a8"/><path aria-label="mean execution time in µs: 7602; algorithm: (wilczek) Outer-Loop Vectorization" role="graphics-symbol" aria-roledescription="bar" d="M0,221.9L134.21818181818182,221.9C136.42584191615782,221.9,138.21818181818182,223.692339902024,138.21818181818182,225.9L138.21818181818182,234.1C138.21818181818182,236.307660097976,136.42584191615782,238.1,134.21818181818182,238.1L0,238.1C0,238.1,0,238.1,0,238.1L0,221.9C0,221.9,0,221.9,0,221.9Z" fill="#4c78a8"/><path aria-label="mean execution time in µs: 2098; algorithm: (wilczek) Outer- and Inner-Loop Vectorization" role="graphics-symbol" aria-roledescription="bar" d="M0,181.9L34.14545454545454,181.9C36.353114643430544,181.9,38.14545454545454,183.692339902024,38.14545454545454,185.9L38.14545454545454,194.1C38.14545454545454,196.307660097976,36.353114643430544,198.1,34.14545454545454,198.1L0,198.1C0,198.1,0,198.1,0,198.1L0,181.9C0,181.9,0,181.9,0,181.9Z" fill="#4c78a8"/><path aria-label="mean execution time in µs: 601; algorithm: (chaowang15) convolve1D" role="graphics-symbol" aria-roledescription="bar" d="M0,1.9L6.927272727272728,1.9C9.134932825248727,1.9,10.927272727272728,3.692339902024,10.927272727272728,5.9L10.927272727272728,14.099999999999998C10.927272727272728,16.307660097975997,9.134932825248727,18.099999999999998,6.927272727272728,18.099999999999998L0,18.099999999999998C0,18.099999999999998,0,18.099999999999998,0,18.099999999999998L0,1.9C0,1.9,0,1.9,0,1.9Z" fill="#4c78a8"/></g><g class="mark-text role-mark child_layer_1_marks" role="graphics-object" aria-roledescription="text mark container"><text aria-label="mean execution time in µs: 679; algorithm: (JohT) kernelPerInputValue Transposed; MeanExecutionTime: 679" role="graphics-symbol" aria-roledescription="text mark" text-anchor="start" transform="translate(16.345454545454544,73)" font-family="sans-serif" font-size="9px" fill="black">679</text><text aria-label="mean execution time in µs: 655; algorithm: (JohT) inputPerKernelValue Transposed; MeanExecutionTime: 655" role="graphics-symbol" aria-roledescription="text mark" text-anchor="start" transform="translate(15.90909090909091,53)" font-family="sans-serif" font-size="9px" fill="black">655</text><text aria-label="mean execution time in µs: 7926; algorithm: (JohT) inputPerKernelValue Transposed InnerLoopUnrolled; MeanExecutionTime: 7926" role="graphics-symbol" aria-roledescription="text mark" text-anchor="start" transform="translate(148.10909090909092,253)" font-family="sans-serif" font-size="9px" fill="black">7926</text><text aria-label="mean execution time in µs: 1304; algorithm: (JohT) inputPerKernelValue Transposed OuterLoopUnrolled; MeanExecutionTime: 1304" role="graphics-symbol" aria-roledescription="text mark" text-anchor="start" transform="translate(27.70909090909091,113)" font-family="sans-serif" font-size="9px" fill="black">1304</text><text aria-label="mean execution time in µs: 1636; algorithm: (JohT) inputPerKernelValue Transposed Inner&amp;OuterLoopUnrolled; MeanExecutionTime: 1636" role="graphics-symbol" aria-roledescription="text mark" text-anchor="start" transform="translate(33.74545454545455,133)" font-family="sans-serif" font-size="9px" fill="black">1636</text><text aria-label="mean execution time in µs: 1750; algorithm: (JohT) inputPerKernelValue Transposed LoopFission; MeanExecutionTime: 1750" role="graphics-symbol" aria-roledescription="text mark" text-anchor="start" transform="translate(35.81818181818181,173)" font-family="sans-serif" font-size="9px" fill="black">1750</text><text aria-label="mean execution time in µs: 1671; algorithm: (JohT) inputPerKernelValue Transposed LoopFissionIndexArithmetic; MeanExecutionTime: 1671" role="graphics-symbol" aria-roledescription="text mark" text-anchor="start" transform="translate(34.38181818181818,153)" font-family="sans-serif" font-size="9px" fill="black">1671</text><text aria-label="mean execution time in µs: 1165; algorithm: (JohT) kernelPerInputValue Transposed LoopFission; MeanExecutionTime: 1165" role="graphics-symbol" aria-roledescription="text mark" text-anchor="start" transform="translate(25.181818181818183,93)" font-family="sans-serif" font-size="9px" fill="black">1165</text><text aria-label="mean execution time in µs: 603; algorithm: (matlab-like) conv 'full' shape; MeanExecutionTime: 603" role="graphics-symbol" aria-roledescription="text mark" text-anchor="start" transform="translate(14.963636363636365,33)" font-family="sans-serif" font-size="9px" fill="black">603</text><text aria-label="mean execution time in µs: 10274; algorithm: (matlab-like) conv 'valid' shape pre padded; MeanExecutionTime: 10274" role="graphics-symbol" aria-roledescription="text mark" text-anchor="start" transform="translate(190.8,293)" font-family="sans-serif" font-size="9px" fill="black">10274</text><text aria-label="mean execution time in µs: 10254; algorithm: (wilczek) Single; MeanExecutionTime: 10254" role="graphics-symbol" aria-roledescription="text mark" text-anchor="start" transform="translate(190.43636363636364,273)" font-family="sans-serif" font-size="9px" fill="black">10254</text><text aria-label="mean execution time in µs: 2220; algorithm: (wilczek) Inner-Loop Vectorization; MeanExecutionTime: 2220" role="graphics-symbol" aria-roledescription="text mark" text-anchor="start" transform="translate(44.36363636363636,213)" font-family="sans-serif" font-size="9px" fill="black">2220</text><text aria-label="mean execution time in µs: 7602; algorithm: (wilczek) Outer-Loop Vectorization; MeanExecutionTime: 7602" role="graphics-symbol" aria-roledescription="text mark" text-anchor="start" transform="translate(142.21818181818182,233)" font-family="sans-serif" font-size="9px" fill="black">7602</text><text aria-label="mean execution time in µs: 2098; algorithm: (wilczek) Outer- and Inner-Loop Vectorization; MeanExecutionTime: 2098" role="graphics-symbol" aria-roledescription="text mark" text-anchor="start" transform="translate(42.14545454545454,193)" font-family="sans-serif" font-size="9px" fill="black">2098</text><text aria-label="mean execution time in µs: 601; algorithm: (chaowang15) convolve1D; MeanExecutionTime: 601" role="graphics-symbol" aria-roledescription="text mark" text-anchor="start" transform="translate(14.927272727272728,13)" font-family="sans-serif" font-size="9px" fill="black">601</text></g></g><path class="foreground" aria-hidden="true" d="" display="none"/></g></g></g><path class="foreground" aria-hidden="true" d="" display="none"/></g></g></g></svg>