<svg xmlns="http://www.w3.org/2000/svg" xmlns:xlink="http://www.w3.org/1999/xlink" version="1.1" class="marks" width="1692" height="404" viewBox="0 0 1692 404"><rect width="1692" height="404" fill="white"/><g fill="none" stroke-miterlimit="10" transform="translate(509,66)"><g class="mark-group role-frame root" role="graphics-object" aria-roledescription="group mark container"><g transform="translate(0,0)"><path class="background" aria-hidden="true" d="M0,0h0v0h0Z"/><g><g class="mark-group role-column-title column-title" role="graphics-object" aria-roledescription="group mark container"><g transform="translate(337,-35)"><path class="background" aria-hidden="true" d="M0,0h0v0h0Z"/><g><g class="mark-group role-title"><g transform="translate(0,-26)"><path class="background" aria-hidden="true" d="M0,0h0v0h0Z" pointer-events="none"/><g><g class="mark-text role-title-text" role="graphics-symbol" aria-roledescription="title" aria-label="Title text 'Convolution Benchmarks'" pointer-events="none"><text text-anchor="middle" transform="translate(0,13)" font-family="sans-serif" font-size="16px" font-weight="bold" fill="#000" opacity="1">Convolution Benchmarks</text></g></g><path class="foreground" aria-hidden="true" d="" pointer-events="none" display="none"/></g></g></g><path class="foreground" aria-hidden="true" d="" display="none"/></g></g><g class="mark-group role-column-header column_header" role="graphics-object" aria-roledescription="group mark container"><g transform="translate(0,-1)"><path class="background" aria-hidden="true" d="M0,0h300v0h-300Z"/><g><g class="mark-group role-title"><g transform="translate(150,-24)"><path class="background" aria-hidden="true" d="M0,0h0v0h0Z" pointer-events="none"/><g><g class="mark-text role-title-text" role="graphics-symbol" aria-roledescription="title" aria-label="Title text 'kernel size 16'" pointer-events="none"><text text-anchor="middle" transform="translate(0,11)" font-family="sans-serif" font-size="14px" fill="#000" opacity="1">kernel size 16</text></g></g><path class="foreground" aria-hidden="true" d="" pointer-events="none" display="none"/></g></g></g><path class="foreground" aria-hidden="true" d="" display="none"/></g><g transform="translate(837,-1)"><path class="background" aria-hidden="true" d="M0,0h300v0h-300Z"/><g><g class="mark-group role-title"><g transform="translate(150,-24)"><path class="background" aria-hidden="true" d="M0,0h0v0h0Z" pointer-events="none"/><g><g class="mark-text role-title-text" role="graphics-symbol" aria-roledescription="title" aria-label="Title text 'kernel size 512'" pointer-events="none"><text text-anchor="middle" transform="translate(0,11)" font-family="sans-serif" font-size="14px" fill="#000" opacity="1">kernel size 512</text></g></g><path class="foreground" aria-hidden="true" d="" pointer-events="none" display="none"/></g></g></g><path class="foreground" aria-hidden="true" d="" display="none"/></g></g><g class="mark-group role-scope cell" role="graphics-object" aria-roledescription="group mark container"><g transform="translate(0,0)"><path class="background" aria-hidden="true" d="M0.5,0.5h300v300h-300Z" stroke="#ddd"/><g><g class="mark-group role-axis" aria-hidden="true"><g transform="translate(0.5,300.5)"><path class="background" aria-hidden="true" d="M0,0h0v0h0Z" pointer-events="none"/><g><g class="mark-rule role-axis-grid" pointer-events="none"><line transform="translate(0,0)" x2="0" y2="-300" stroke="#ddd" stroke-width="1" opacity="1"/><line transform="translate(54,0)" x2="0" y2="-300" stroke="#ddd" stroke-width="1" opacity="1"/><line transform="translate(107,0)" x2="0" y2="-300" stroke="#ddd" stroke-width="1" opacity="1"/><line transform="translate(161,0)" x2="0" y2="-300" stroke="#ddd" stroke-width="1" opacity="1"/><line transform="translate(214,0)" x2="0" y2="-300" stroke="#ddd" stroke-width="1" opacity="1"/><line transform="translate(268,0)" x2="0" y2="-300" stroke="#ddd" stroke-width="1" opacity="1"/></g></g><path class="foreground" aria-hidden="true" d="" pointer-events="none" display="none"/></g></g><g class="mark-group role-axis" role="graphics-symbol" aria-roledescription="axis" aria-label="X-axis titled 'mean execution time in µs' for a linear scale with values from 0 to 280"><g transform="translate(0.5,300.5)"><path class="background" aria-hidden="true" d="M0,0h0v0h0Z" pointer-events="none"/><g><g class="mark-rule role-axis-tick" pointer-events="none"><line transform="translate(0,0)" x2="0" y2="5" stroke="#888" stroke-width="1" opacity="1"/><line transform="translate(54,0)" x2="0" y2="5" stroke="#888" stroke-width="1" opacity="1"/><line transform="translate(107,0)" x2="0" y2="5" stroke="#888" stroke-width="1" opacity="1"/><line transform="translate(161,0)" x2="0" y2="5" stroke="#888" stroke-width="1" opacity="1"/><line transform="translate(214,0)" x2="0" y2="5" stroke="#888" stroke-width="1" opacity="1"/><line transform="translate(268,0)" x2="0" y2="5" stroke="#888" stroke-width="1" opacity="1"/></g><g class="mark-text role-axis-label" pointer-events="none"><text text-anchor="start" transform="translate(0,15)" font-family="sans-serif" font-size="10px" fill="#000" opacity="1">0</text><text text-anchor="middle" transform="translate(53.57142857142857,15)" font-family="sans-serif" font-size="10px" fill="#000" opacity="1">50</text><text text-anchor="middle" transform="translate(107.14285714285714,15)" font-family="sans-serif" font-size="10px" fill="#000" opacity="1">100</text><text text-anchor="middle" transform="translate(160.71428571428572,15)" font-family="sans-serif" font-size="10px" fill="#000" opacity="1">150</text><text text-anchor="middle" transform="translate(214.28571428571428,15)" font-family="sans-serif" font-size="10px" fill="#000" opacity="1">200</text><text text-anchor="middle" transform="translate(267.8571428571429,15)" font-family="sans-serif" font-size="10px" fill="#000" opacity="1">250</text></g><g class="mark-rule role-axis-domain" pointer-events="none"><line transform="translate(0,0)" x2="300" y2="0" stroke="#888" stroke-width="1" opacity="1"/></g><g class="mark-text role-axis-title" pointer-events="none"><text text-anchor="middle" transform="translate(150,30)" font-family="sans-serif" font-size="11px" font-weight="bold" fill="#000" opacity="1">mean execution time in µs</text></g></g><path class="foreground" aria-hidden="true" d="" pointer-events="none" display="none"/></g></g><g class="mark-group role-axis" role="graphics-symbol" aria-roledescription="axis" aria-label="Y-axis titled 'algorithm' for a discrete scale with 15 values: (JohT) inputPerKernelValue Transposed, (JohT) inputPerKernelValue Transposed OuterLoopUnrolled, (chaowang15) convolve1D, (JohT) inputPerKernelValue Transposed Inner&amp;OuterLoopUnrolled, (JohT) inputPerKernelValue Transposed LoopFission, ending with (JohT) inputPerKernelValue Transposed InnerLoopUnrolled"><g transform="translate(0.5,0.5)"><path class="background" aria-hidden="true" d="M0,0h0v0h0Z" pointer-events="none"/><g><g class="mark-rule role-axis-tick" pointer-events="none"><line transform="translate(0,10)" x2="-5" y2="0" stroke="#888" stroke-width="1" opacity="1"/><line transform="translate(0,30)" x2="-5" y2="0" stroke="#888" stroke-width="1" opacity="1"/><line transform="translate(0,50)" x2="-5" y2="0" stroke="#888" stroke-width="1" opacity="1"/><line transform="translate(0,70)" x2="-5" y2="0" stroke="#888" stroke-width="1" opacity="1"/><line transform="translate(0,90)" x2="-5" y2="0" stroke="#888" stroke-width="1" opacity="1"/><line transform="translate(0,110)" x2="-5" y2="0" stroke="#888" stroke-width="1" opacity="1"/><line transform="translate(0,130)" x2="-5" y2="0" stroke="#888" stroke-width="1" opacity="1"/><line transform="translate(0,150)" x2="-5" y2="0" stroke="#888" stroke-width="1" opacity="1"/><line transform="translate(0,170)" x2="-5" y2="0" stroke="#888" stroke-width="1" opacity="1"/><line transform="translate(0,190)" x2="-5" y2="0" stroke="#888" stroke-width="1" opacity="1"/><line transform="translate(0,210)" x2="-5" y2="0" stroke="#888" stroke-width="1" opacity="1"/><line transform="translate(0,230)" x2="-5" y2="0" stroke="#888" stroke-width="1" opacity="1"/><line transform="translate(0,250)" x2="-5" y2="0" stroke="#888" stroke-width="1" opacity="1"/><line transform="translate(0,270)" x2="-5" y2="0" stroke="#888" stroke-width="1" opacity="1"/><line transform="translate(0,290)" x2="-5" y2="0" stroke="#888" stroke-width="1" opacity="1"/></g><g class="mark-text role-axis-label" pointer-events="none"><text text-anchor="end" transform="translate(-7,12.5)" font-family="sans-serif" font-size="10px" fill="#000" opacity="1">(JohT) inputPerKernelValue Transposed</text><text text-anchor="end" transform="translate(-7,32.5)" font-family="sans-serif" font-size="10px" fill="#000" opacity="1">(JohT) inputPerKernelValue Transposed OuterLoopUnrolled</text><text text-anchor="end" transform="translate(-7,52.5)" font-family="sans-serif" font-size="10px" fill="#000" opacity="1">(chaowang15) convolve1D</text><text text-anchor="end" transform="translate(-7,72.5)" font-family="sans-serif" font-size="10px" fill="#000" opacity="1">(JohT) inputPerKernelValue Transposed Inner&amp;OuterLoopUnrolled</text><text text-anchor="end" transform="translate(-7,92.5)" font-family="sans-serif" font-size="10px" fill="#000" opacity="1">(JohT) inputPerKernelValue Transposed LoopFission</text><text text-anchor="end" transform="translate(-7,112.5)" font-family="sans-serif" font-size="10px" fill="#000" opacity="1">(JohT) inputPerKernelValue Transposed LoopFissionIndexArithme…</text><text text-anchor="end" transform="translate(-7,132.5)" font-family="sans-serif" font-size="10px" fill="#000" opacity="1">(matlab-like) conv 'full' shape</text><text text-anchor="end" transform="translate(-7,152.5)" font-family="sans-serif" font-size="10px" fill="#000" opacity="1">(wilczek) Outer- and Inner-Loop Vectorization</text><text text-anchor="end" transform="translate(-7,172.5)" font-family="sans-serif" font-size="10px" fill="#000" opacity="1">(JohT) kernelPerInputValue Transposed</text><text text-anchor="end" transform="translate(-7,192.5)" font-family="sans-serif" font-size="10px" fill="#000" opacity="1">(JohT) kernelPerInputValue Transposed LoopFission</text><text text-anchor="end" transform="translate(-7,212.5)" font-family="sans-serif" font-size="10px" fill="#000" opacity="1">(wilczek) Inner-Loop Vectorization</text><text text-anchor="end" transform="translate(-7,232.5)" font-family="sans-serif" font-size="10px" fill="#000" opacity="1">(wilczek) Single</text><text text-anchor="end" transform="translate(-7,252.5)" font-family="sans-serif" font-size="10px" fill="#000" opacity="1">(matlab-like) conv 'valid' shape pre padded</text><text text-anchor="end" transform="translate(-7,272.5)" font-family="sans-serif" font-size="10px" fill="#000" opacity="1">(wilczek) Outer-Loop Vectorization</text><text text-anchor="end" transform="translate(-7,292.5)" font-family="sans-serif" font-size="10px" fill="#000" opacity="1">(JohT) inputPerKernelValue Transposed InnerLoopUnrolled</text></g><g class="mark-rule role-axis-domain" pointer-events="none"><line transform="translate(0,0)" x2="0" y2="300" stroke="#888" stroke-width="1" opacity="1"/></g><g class="mark-text role-axis-title" pointer-events="none"><text text-anchor="middle" transform="translate(-320,150) rotate(-90) translate(0,-2)" font-family="sans-serif" font-size="11px" font-weight="bold" fill="#000" opacity="1">algorithm</text></g></g><path class="foreground" aria-hidden="true" d="" pointer-events="none" display="none"/></g></g><g class="mark-rect role-mark child_layer_0_marks" role="graphics-object" aria-roledescription="rect mark container"><path aria-label="mean execution time in µs: 75; algorithm: (JohT) kernelPerInputValue Transposed" role="graphics-symbol" aria-roledescription="bar" d="M0,161.9L76.35714285714286,161.9C78.56480295511886,161.9,80.35714285714286,163.692339902024,80.35714285714286,165.9L80.35714285714286,174.1C80.35714285714286,176.307660097976,78.56480295511886,178.1,76.35714285714286,178.1L0,178.1C0,178.1,0,178.1,0,178.1L0,161.9C0,161.9,0,161.9,0,161.9Z" fill="#4c78a8"/><path aria-label="mean execution time in µs: 22; algorithm: (JohT) inputPerKernelValue Transposed" role="graphics-symbol" aria-roledescription="bar" d="M0,1.9L19.57142857142857,1.9C21.77908866940457,1.9,23.57142857142857,3.692339902024,23.57142857142857,5.9L23.57142857142857,14.099999999999998C23.57142857142857,16.307660097975997,21.77908866940457,18.099999999999998,19.57142857142857,18.099999999999998L0,18.099999999999998C0,18.099999999999998,0,18.099999999999998,0,18.099999999999998L0,1.9C0,1.9,0,1.9,0,1.9Z" fill="#4c78a8"/><path aria-label="mean execution time in µs: 267; algorithm: (JohT) inputPerKernelValue Transposed InnerLoopUnrolled" role="graphics-symbol" aria-roledescription="bar" d="M0,281.9L282.0714285714286,281.9C284.2790886694046,281.9,286.0714285714286,283.692339902024,286.0714285714286,285.9L286.0714285714286,294.09999999999997C286.0714285714286,296.30766009797594,284.2790886694046,298.09999999999997,282.0714285714286,298.09999999999997L0,298.09999999999997C0,298.09999999999997,0,298.09999999999997,0,298.09999999999997L0,281.9C0,281.9,0,281.9,0,281.9Z" fill="#4c78a8"/><path aria-label="mean execution time in µs: 41; algorithm: (JohT) inputPerKernelValue Transposed OuterLoopUnrolled" role="graphics-symbol" aria-roledescription="bar" d="M0,21.9L39.92857142857143,21.9C42.136231526547434,21.9,43.92857142857143,23.692339902024,43.92857142857143,25.9L43.92857142857143,34.099999999999994C43.92857142857143,36.307660097976,42.136231526547434,38.099999999999994,39.92857142857143,38.099999999999994L0,38.099999999999994C0,38.099999999999994,0,38.099999999999994,0,38.099999999999994L0,21.9C0,21.9,0,21.9,0,21.9Z" fill="#4c78a8"/><path aria-label="mean execution time in µs: 55; algorithm: (JohT) inputPerKernelValue Transposed Inner&amp;OuterLoopUnrolled" role="graphics-symbol" aria-roledescription="bar" d="M0,61.9L54.92857142857143,61.9C57.136231526547434,61.9,58.92857142857143,63.692339902023996,58.92857142857143,65.9L58.92857142857143,74.1C58.92857142857143,76.307660097976,57.136231526547434,78.1,54.92857142857143,78.1L0,78.1C0,78.1,0,78.1,0,78.1L0,61.9C0,61.9,0,61.9,0,61.9Z" fill="#4c78a8"/><path aria-label="mean execution time in µs: 60; algorithm: (JohT) inputPerKernelValue Transposed LoopFission" role="graphics-symbol" aria-roledescription="bar" d="M0,81.9L60.28571428571428,81.9C62.49337438369028,81.9,64.28571428571428,83.692339902024,64.28571428571428,85.9L64.28571428571428,94.10000000000001C64.28571428571428,96.30766009797601,62.49337438369028,98.10000000000001,60.28571428571428,98.10000000000001L0,98.10000000000001C0,98.10000000000001,0,98.10000000000001,0,98.10000000000001L0,81.9C0,81.9,0,81.9,0,81.9Z" fill="#4c78a8"/><path aria-label="mean execution time in µs: 60; algorithm: (JohT) inputPerKernelValue Transposed LoopFissionIndexArithmetic" role="graphics-symbol" aria-roledescription="bar" d="M0,101.9L60.28571428571428,101.9C62.49337438369028,101.9,64.28571428571428,103.692339902024,64.28571428571428,105.9L64.28571428571428,114.10000000000001C64.28571428571428,116.30766009797601,62.49337438369028,118.10000000000001,60.28571428571428,118.10000000000001L0,118.10000000000001C0,118.10000000000001,0,118.10000000000001,0,118.10000000000001L0,101.9C0,101.9,0,101.9,0,101.9Z" fill="#4c78a8"/><path aria-label="mean execution time in µs: 75; algorithm: (JohT) kernelPerInputValue Transposed LoopFission" role="graphics-symbol" aria-roledescription="bar" d="M0,181.9L76.35714285714286,181.9C78.56480295511886,181.9,80.35714285714286,183.692339902024,80.35714285714286,185.9L80.35714285714286,194.1C80.35714285714286,196.307660097976,78.56480295511886,198.1,76.35714285714286,198.1L0,198.1C0,198.1,0,198.1,0,198.1L0,181.9C0,181.9,0,181.9,0,181.9Z" fill="#4c78a8"/><path aria-label="mean execution time in µs: 61; algorithm: (matlab-like) conv 'full' shape" role="graphics-symbol" aria-roledescription="bar" d="M0,121.9L61.35714285714286,121.9C63.564802955118864,121.9,65.35714285714286,123.692339902024,65.35714285714286,125.9L65.35714285714286,134.1C65.35714285714286,136.307660097976,63.564802955118864,138.1,61.35714285714286,138.1L0,138.1C0,138.1,0,138.1,0,138.1L0,121.9C0,121.9,0,121.9,0,121.9Z" fill="#4c78a8"/><path aria-label="mean execution time in µs: 133; algorithm: (matlab-like) conv 'valid' shape pre padded" role="graphics-symbol" aria-roledescription="bar" d="M0,241.9L138.5,241.9C140.707660097976,241.9,142.5,243.692339902024,142.5,245.9L142.5,254.10000000000002C142.5,256.307660097976,140.707660097976,258.1,138.5,258.1L0,258.1C0,258.1,0,258.1,0,258.1L0,241.9C0,241.9,0,241.9,0,241.9Z" fill="#4c78a8"/><path aria-label="mean execution time in µs: 101; algorithm: (wilczek) Single" role="graphics-symbol" aria-roledescription="bar" d="M0,221.9L104.21428571428571,221.9C106.42194581226171,221.9,108.21428571428571,223.692339902024,108.21428571428571,225.9L108.21428571428571,234.1C108.21428571428571,236.307660097976,106.42194581226171,238.1,104.21428571428571,238.1L0,238.1C0,238.1,0,238.1,0,238.1L0,221.9C0,221.9,0,221.9,0,221.9Z" fill="#4c78a8"/><path aria-label="mean execution time in µs: 76; algorithm: (wilczek) Inner-Loop Vectorization" role="graphics-symbol" aria-roledescription="bar" d="M0,201.9L77.42857142857142,201.9C79.63623152654742,201.9,81.42857142857142,203.692339902024,81.42857142857142,205.9L81.42857142857142,214.1C81.42857142857142,216.307660097976,79.63623152654742,218.1,77.42857142857142,218.1L0,218.1C0,218.1,0,218.1,0,218.1L0,201.9C0,201.9,0,201.9,0,201.9Z" fill="#4c78a8"/><path aria-label="mean execution time in µs: 245; algorithm: (wilczek) Outer-Loop Vectorization" role="graphics-symbol" aria-roledescription="bar" d="M0,261.9L258.5,261.9C260.707660097976,261.9,262.5,263.692339902024,262.5,265.9L262.5,274.09999999999997C262.5,276.30766009797594,260.707660097976,278.09999999999997,258.5,278.09999999999997L0,278.09999999999997C0,278.09999999999997,0,278.09999999999997,0,278.09999999999997L0,261.9C0,261.9,0,261.9,0,261.9Z" fill="#4c78a8"/><path aria-label="mean execution time in µs: 73; algorithm: (wilczek) Outer- and Inner-Loop Vectorization" role="graphics-symbol" aria-roledescription="bar" d="M0,141.9L74.21428571428572,141.9C76.42194581226173,141.9,78.21428571428572,143.692339902024,78.21428571428572,145.9L78.21428571428572,154.1C78.21428571428572,156.307660097976,76.42194581226173,158.1,74.21428571428572,158.1L0,158.1C0,158.1,0,158.1,0,158.1L0,141.9C0,141.9,0,141.9,0,141.9Z" fill="#4c78a8"/><path aria-label="mean execution time in µs: 52; algorithm: (chaowang15) convolve1D" role="graphics-symbol" aria-roledescription="bar" d="M0,41.9L51.714285714285715,41.9C53.92194581226172,41.9,55.714285714285715,43.692339902023996,55.714285714285715,45.9L55.714285714285715,54.099999999999994C55.714285714285715,56.307660097976,53.92194581226172,58.099999999999994,51.714285714285715,58.099999999999994L0,58.099999999999994C0,58.099999999999994,0,58.099999999999994,0,58.099999999999994L0,41.9C0,41.9,0,41.9,0,41.9Z" fill="#4c78a8"/></g><g class="mark-text role-mark child_layer_1_marks" role="graphics-object" aria-roledescription="text mark container"><text aria-label="mean execution time in µs: 75; algorithm: (JohT) kernelPerInputValue Transposed; MeanExecutionTime: 75" role="graphics-symbol" aria-roledescription="text mark" text-anchor="start" transform="translate(84.35714285714286,173)" font-family="sans-serif" font-size="9px" fill="black">75</text><text aria-label="mean execution time in µs: 22; algorithm: (JohT) inputPerKernelValue Transposed; MeanExecutionTime: 22" role="graphics-symbol" aria-roledescription="text mark" text-anchor="start" transform="translate(27.57142857142857,13)" font-family="sans-serif" font-size="9px" fill="black">22</text><text aria-label="mean execution time in µs: 267; algorithm: (JohT) inputPerKernelValue Transposed InnerLoopUnrolled; MeanExecutionTime: 267" role="graphics-symbol" aria-roledescription="text mark" text-anchor="start" transform="translate(290.0714285714286,293)" font-family="sans-serif" font-size="9px" fill="black">267</text><text aria-label="mean execution time in µs: 41; algorithm: (JohT) inputPerKernelValue Transposed OuterLoopUnrolled; MeanExecutionTime: 41" role="graphics-symbol" aria-roledescription="text mark" text-anchor="start" transform="translate(47.92857142857143,33)" font-family="sans-serif" font-size="9px" fill="black">41</text><text aria-label="mean execution time in µs: 55; algorithm: (JohT) inputPerKernelValue Transposed Inner&amp;OuterLoopUnrolled; MeanExecutionTime: 55" role="graphics-symbol" aria-roledescription="text mark" text-anchor="start" transform="translate(62.92857142857143,73)" font-family="sans-serif" font-size="9px" fill="black">55</text><text aria-label="mean execution time in µs: 60; algorithm: (JohT) inputPerKernelValue Transposed LoopFission; MeanExecutionTime: 60" role="graphics-symbol" aria-roledescription="text mark" text-anchor="start" transform="translate(68.28571428571428,93)" font-family="sans-serif" font-size="9px" fill="black">60</text><text aria-label="mean execution time in µs: 60; algorithm: (JohT) inputPerKernelValue Transposed LoopFissionIndexArithmetic; MeanExecutionTime: 60" role="graphics-symbol" aria-roledescription="text mark" text-anchor="start" transform="translate(68.28571428571428,113)" font-family="sans-serif" font-size="9px" fill="black">60</text><text aria-label="mean execution time in µs: 75; algorithm: (JohT) kernelPerInputValue Transposed LoopFission; MeanExecutionTime: 75" role="graphics-symbol" aria-roledescription="text mark" text-anchor="start" transform="translate(84.35714285714286,193)" font-family="sans-serif" font-size="9px" fill="black">75</text><text aria-label="mean execution time in µs: 61; algorithm: (matlab-like) conv 'full' shape; MeanExecutionTime: 61" role="graphics-symbol" aria-roledescription="text mark" text-anchor="start" transform="translate(69.35714285714286,133)" font-family="sans-serif" font-size="9px" fill="black">61</text><text aria-label="mean execution time in µs: 133; algorithm: (matlab-like) conv 'valid' shape pre padded; MeanExecutionTime: 133" role="graphics-symbol" aria-roledescription="text mark" text-anchor="start" transform="translate(146.5,253)" font-family="sans-serif" font-size="9px" fill="black">133</text><text aria-label="mean execution time in µs: 101; algorithm: (wilczek) Single; MeanExecutionTime: 101" role="graphics-symbol" aria-roledescription="text mark" text-anchor="start" transform="translate(112.21428571428571,233)" font-family="sans-serif" font-size="9px" fill="black">101</text><text aria-label="mean execution time in µs: 76; algorithm: (wilczek) Inner-Loop Vectorization; MeanExecutionTime: 76" role="graphics-symbol" aria-roledescription="text mark" text-anchor="start" transform="translate(85.42857142857142,213)" font-family="sans-serif" font-size="9px" fill="black">76</text><text aria-label="mean execution time in µs: 245; algorithm: (wilczek) Outer-Loop Vectorization; MeanExecutionTime: 245" role="graphics-symbol" aria-roledescription="text mark" text-anchor="start" transform="translate(266.5,273)" font-family="sans-serif" font-size="9px" fill="black">245</text><text aria-label="mean execution time in µs: 73; algorithm: (wilczek) Outer- and Inner-Loop Vectorization; MeanExecutionTime: 73" role="graphics-symbol" aria-roledescription="text mark" text-anchor="start" transform="translate(82.21428571428572,153)" font-family="sans-serif" font-size="9px" fill="black">73</text><text aria-label="mean execution time in µs: 52; algorithm: (chaowang15) convolve1D; MeanExecutionTime: 52" role="graphics-symbol" aria-roledescription="text mark" text-anchor="start" transform="translate(59.714285714285715,53)" font-family="sans-serif" font-size="9px" fill="black">52</text></g></g><path class="foreground" aria-hidden="true" d="" display="none"/></g><g transform="translate(837,0)"><path class="background" aria-hidden="true" d="M0.5,0.5h300v300h-300Z" stroke="#ddd"/><g><g class="mark-group role-axis" aria-hidden="true"><g transform="translate(0.5,300.5)"><path class="background" aria-hidden="true" d="M0,0h0v0h0Z" pointer-events="none"/><g><g class="mark-rule role-axis-grid" pointer-events="none"><line transform="translate(0,0)" x2="0" y2="-300" stroke="#ddd" stroke-width="1" opacity="1"/><line transform="translate(27,0)" x2="0" y2="-300" stroke="#ddd" stroke-width="1" opacity="1"/><line transform="translate(55,0)" x2="0" y2="-300" stroke="#ddd" stroke-width="1" opacity="1"/><line transform="translate(82,0)" x2="0" y2="-300" stroke="#ddd" stroke-width="1" opacity="1"/><line transform="translate(109,0)" x2="0" y2="-300" stroke="#ddd" stroke-width="1" opacity="1"/><line transform="translate(136,0)" x2="0" y2="-300" stroke="#ddd" stroke-width="1" opacity="1"/><line transform="translate(164,0)" x2="0" y2="-300" stroke="#ddd" stroke-width="1" opacity="1"/><line transform="translate(191,0)" x2="0" y2="-300" stroke="#ddd" stroke-width="1" opacity="1"/><line transform="translate(218,0)" x2="0" y2="-300" stroke="#ddd" stroke-width="1" opacity="1"/><line transform="translate(245,0)" x2="0" y2="-300" stroke="#ddd" stroke-width="1" opacity="1"/><line transform="translate(273,0)" x2="0" y2="-300" stroke="#ddd" stroke-width="1" opacity="1"/><line transform="translate(300,0)" x2="0" y2="-300" stroke="#ddd" stroke-width="1" opacity="1"/></g></g><path class="foreground" aria-hidden="true" d="" pointer-events="none" display="none"/></g></g><g class="mark-group role-axis" role="graphics-symbol" aria-roledescription="axis" aria-label="X-axis titled 'mean execution time in µs' for a linear scale with values from 0 to 11,000"><g transform="translate(0.5,300.5)"><path class="background" aria-hidden="true" d="M0,0h0v0h0Z" pointer-events="none"/><g><g class="mark-rule role-axis-tick" pointer-events="none"><line transform="translate(0,0)" x2="0" y2="5" stroke="#888" stroke-width="1" opacity="1"/><line transform="translate(27,0)" x2="0" y2="5" stroke="#888" stroke-width="1" opacity="1"/><line transform="translate(55,0)" x2="0" y2="5" stroke="#888" stroke-width="1" opacity="1"/><line transform="translate(82,0)" x2="0" y2="5" stroke="#888" stroke-width="1" opacity="1"/><line transform="translate(109,0)" x2="0" y2="5" stroke="#888" stroke-width="1" opacity="1"/><line transform="translate(136,0)" x2="0" y2="5" stroke="#888" stroke-width="1" opacity="1"/><line transform="translate(164,0)" x2="0" y2="5" stroke="#888" stroke-width="1" opacity="1"/><line transform="translate(191,0)" x2="0" y2="5" stroke="#888" stroke-width="1" opacity="1"/><line transform="translate(218,0)" x2="0" y2="5" stroke="#888" stroke-width="1" opacity="1"/><line transform="translate(245,0)" x2="0" y2="5" stroke="#888" stroke-width="1" opacity="1"/><line transform="translate(273,0)" x2="0" y2="5" stroke="#888" stroke-width="1" opacity="1"/><line transform="translate(300,0)" x2="0" y2="5" stroke="#888" stroke-width="1" opacity="1"/></g><g class="mark-text role-axis-label" pointer-events="none"><text text-anchor="start" transform="translate(0,15)" font-family="sans-serif" font-size="10px" fill="#000" opacity="1">0</text><text text-anchor="middle" transform="translate(27.272727272727273,15)" font-family="sans-serif" font-size="10px" fill="#000" opacity="0">1,000</text><text text-anchor="middle" transform="translate(54.54545454545455,15)" font-family="sans-serif" font-size="10px" fill="#000" opacity="1">2,000</text><text text-anchor="middle" transform="translate(81.81818181818181,15)" font-family="sans-serif" font-size="10px" fill="#000" opacity="0">3,000</text><text text-anchor="middle" transform="translate(109.0909090909091,15)" font-family="sans-serif" font-size="10px" fill="#000" opacity="1">4,000</text><text text-anchor="middle" transform="translate(136.36363636363635,15)" font-family="sans-serif" font-size="10px" fill="#000" opacity="0">5,000</text><text text-anchor="middle" transform="translate(163.63636363636363,15)" font-family="sans-serif" font-size="10px" fill="#000" opacity="1">6,000</text><text text-anchor="middle" transform="translate(190.9090909090909,15)" font-family="sans-serif" font-size="10px" fill="#000" opacity="0">7,000</text><text text-anchor="middle" transform="translate(218.1818181818182,15)" font-family="sans-serif" font-size="10px" fill="#000" opacity="1">8,000</text><text text-anchor="middle" transform="translate(245.45454545454547,15)" font-family="sans-serif" font-size="10px" fill="#000" opacity="0">9,000</text><text text-anchor="middle" transform="translate(272.7272727272727,15)" font-family="sans-serif" font-size="10px" fill="#000" opacity="1">10,000</text><text text-anchor="end" transform="translate(300,15)" font-family="sans-serif" font-size="10px" fill="#000" opacity="0">11,000</text></g><g class="mark-rule role-axis-domain" pointer-events="none"><line transform="translate(0,0)" x2="300" y2="0" stroke="#888" stroke-width="1" opacity="1"/></g><g class="mark-text role-axis-title" pointer-events="none"><text text-anchor="middle" transform="translate(150,30)" font-family="sans-serif" font-size="11px" font-weight="bold" fill="#000" opacity="1">mean execution time in µs</text></g></g><path class="foreground" aria-hidden="true" d="" pointer-events="none" display="none"/></g></g><g class="mark-group role-axis" role="graphics-symbol" aria-roledescription="axis" aria-label="Y-axis titled 'algorithm' for a discrete scale with 15 values: (matlab-like) conv 'full' shape, (chaowang15) convolve1D, (JohT) kernelPerInputValue Transposed, (JohT) inputPerKernelValue Transposed, (JohT) kernelPerInputValue Transposed LoopFission, ending with (matlab-like) conv 'valid' shape pre padded"><g transform="translate(0.5,0.5)"><path class="background" aria-hidden="true" d="M0,0h0v0h0Z" pointer-events="none"/><g><g class="mark-rule role-axis-tick" pointer-events="none"><line transform="translate(0,10)" x2="-5" y2="0" stroke="#888" stroke-width="1" opacity="1"/><line transform="translate(0,30)" x2="-5" y2="0" stroke="#888" stroke-width="1" opacity="1"/><line transform="translate(0,50)" x2="-5" y2="0" stroke="#888" stroke-width="1" opacity="1"/><line transform="translate(0,70)" x2="-5" y2="0" stroke="#888" stroke-width="1" opacity="1"/><line transform="translate(0,90)" x2="-5" y2="0" stroke="#888" stroke-width="1" opacity="1"/><line transform="translate(0,110)" x2="-5" y2="0" stroke="#888" stroke-width="1" opacity="1"/><line transform="translate(0,130)" x2="-5" y2="0" stroke="#888" stroke-width="1" opacity="1"/><line transform="translate(0,150)" x2="-5" y2="0" stroke="#888" stroke-width="1" opacity="1"/><line transform="translate(0,170)" x2="-5" y2="0" stroke="#888" stroke-width="1" opacity="1"/><line transform="translate(0,190)" x2="-5" y2="0" stroke="#888" stroke-width="1" opacity="1"/><line transform="translate(0,210)" x2="-5" y2="0" stroke="#888" stroke-width="1" opacity="1"/><line transform="translate(0,230)" x2="-5" y2="0" stroke="#888" stroke-width="1" opacity="1"/><line transform="translate(0,250)" x2="-5" y2="0" stroke="#888" stroke-width="1" opacity="1"/><line transform="translate(0,270)" x2="-5" y2="0" stroke="#888" stroke-width="1" opacity="1"/><line transform="translate(0,290)" x2="-5" y2="0" stroke="#888" stroke-width="1" opacity="1"/></g><g class="mark-text role-axis-label" pointer-events="none"><text text-anchor="end" transform="translate(-7,12.5)" font-family="sans-serif" font-size="10px" fill="#000" opacity="1">(matlab-like) conv 'full' shape</text><text text-anchor="end" transform="translate(-7,32.5)" font-family="sans-serif" font-size="10px" fill="#000" opacity="1">(chaowang15) convolve1D</text><text text-anchor="end" transform="translate(-7,52.5)" font-family="sans-serif" font-size="10px" fill="#000" opacity="1">(JohT) kernelPerInputValue Transposed</text><text text-anchor="end" transform="translate(-7,72.5)" font-family="sans-serif" font-size="10px" fill="#000" opacity="1">(JohT) inputPerKernelValue Transposed</text><text text-anchor="end" transform="translate(-7,92.5)" font-family="sans-serif" font-size="10px" fill="#000" opacity="1">(JohT) kernelPerInputValue Transposed LoopFission</text><text text-anchor="end" transform="translate(-7,112.5)" font-family="sans-serif" font-size="10px" fill="#000" opacity="1">(JohT) inputPerKernelValue Transposed OuterLoopUnrolled</text><text text-anchor="end" transform="translate(-7,132.5)" font-family="sans-serif" font-size="10px" fill="#000" opacity="1">(JohT) inputPerKernelValue Transposed LoopFissionIndexArithme…</text><text text-anchor="end" transform="translate(-7,152.5)" font-family="sans-serif" font-size="10px" fill="#000" opacity="1">(JohT) inputPerKernelValue Transposed Inner&amp;OuterLoopUnrolled</text><text text-anchor="end" transform="translate(-7,172.5)" font-family="sans-serif" font-size="10px" fill="#000" opacity="1">(JohT) inputPerKernelValue Transposed LoopFission</text><text text-anchor="end" transform="translate(-7,192.5)" font-family="sans-serif" font-size="10px" fill="#000" opacity="1">(wilczek) Outer- and Inner-Loop Vectorization</text><text text-anchor="end" transform="translate(-7,212.5)" font-family="sans-serif" font-size="10px" fill="#000" opacity="1">(wilczek) Inner-Loop Vectorization</text><text text-anchor="end" transform="translate(-7,232.5)" font-family="sans-serif" font-size="10px" fill="#000" opacity="1">(wilczek) Outer-Loop Vectorization</text><text text-anchor="end" transform="translate(-7,252.5)" font-family="sans-serif" font-size="10px" fill="#000" opacity="1">(JohT) inputPerKernelValue Transposed InnerLoopUnrolled</text><text text-anchor="end" transform="translate(-7,272.5)" font-family="sans-serif" font-size="10px" fill="#000" opacity="1">(wilczek) Single</text><text text-anchor="end" transform="translate(-7,292.5)" font-family="sans-serif" font-size="10px" fill="#000" opacity="1">(matlab-like) conv 'valid' shape pre padded</text></g><g class="mark-rule role-axis-domain" pointer-events="none"><line transform="translate(0,0)" x2="0" y2="300" stroke="#888" stroke-width="1" opacity="1"/></g><g class="mark-text role-axis-title" pointer-events="none"><text text-anchor="middle" transform="translate(-320,150) rotate(-90) translate(0,-2)" font-family="sans-serif" font-size="11px" font-weight="bold" fill="#000" opacity="1">algorithm</text></g></g><path class="foreground" aria-hidden="true" d="" pointer-events="none" display="none"/></g></g><g class="mark-rect role-mark child_layer_0_marks" role="graphics-object" aria-roledescription="rect mark container"><path aria-label="mean execution time in µs: 700; algorithm: (JohT) kernelPerInputValue Transposed" role="graphics-symbol" aria-roledescription="bar" d="M0,41.9L15.09090909090909,41.9C17.29856918888509,41.9,19.09090909090909,43.692339902023996,19.09090909090909,45.9L19.09090909090909,54.099999999999994C19.09090909090909,56.307660097976,17.29856918888509,58.099999999999994,15.09090909090909,58.099999999999994L0,58.099999999999994C0,58.099999999999994,0,58.099999999999994,0,58.099999999999994L0,41.9C0,41.9,0,41.9,0,41.9Z" fill="#4c78a8"/><path aria-label="mean execution time in µs: 724; algorithm: (JohT) inputPerKernelValue Transposed" role="graphics-symbol" aria-roledescription="bar" d="M0,61.9L15.745454545454546,61.9C17.953114643430546,61.9,19.745454545454546,63.692339902023996,19.745454545454546,65.9L19.745454545454546,74.1C19.745454545454546,76.307660097976,17.953114643430546,78.1,15.745454545454546,78.1L0,78.1C0,78.1,0,78.1,0,78.1L0,61.9C0,61.9,0,61.9,0,61.9Z" fill="#4c78a8"/><path aria-label="mean execution time in µs: 8479; algorithm: (JohT) inputPerKernelValue Transposed InnerLoopUnrolled" role="graphics-symbol" aria-roledescription="bar" d="M0,241.9L227.24545454545455,241.9C229.45311464343055,241.9,231.24545454545455,243.692339902024,231.24545454545455,245.9L231.24545454545455,254.10000000000002C231.24545454545455,256.307660097976,229.45311464343055,258.1,227.24545454545455,258.1L0,258.1C0,258.1,0,258.1,0,258.1L0,241.9C0,241.9,0,241.9,0,241.9Z" fill="#4c78a8"/><path aria-label="mean execution time in µs: 1451; algorithm: (JohT) inputPerKernelValue Transposed OuterLoopUnrolled" role="graphics-symbol" aria-roledescription="bar" d="M0,101.9L35.57272727272728,101.9C37.78038737070328,101.9,39.57272727272728,103.692339902024,39.57272727272728,105.9L39.57272727272728,114.10000000000001C39.57272727272728,116.30766009797601,37.78038737070328,118.10000000000001,35.57272727272728,118.10000000000001L0,118.10000000000001C0,118.10000000000001,0,118.10000000000001,0,118.10000000000001L0,101.9C0,101.9,0,101.9,0,101.9Z" fill="#4c78a8"/><path aria-label="mean execution time in µs: 1889; algorithm: (JohT) inputPerKernelValue Transposed Inner&amp;OuterLoopUnrolled" role="graphics-symbol" aria-roledescription="bar" d="M0,141.9L47.518181818181816,141.9C49.72584191615782,141.9,51.518181818181816,143.692339902024,51.518181818181816,145.9L51.518181818181816,154.1C51.518181818181816,156.307660097976,49.72584191615782,158.1,47.518181818181816,158.1L0,158.1C0,158.1,0,158.1,0,158.1L0,141.9C0,141.9,0,141.9,0,141.9Z" fill="#4c78a8"/><path aria-label="mean execution time in µs: 1927; algorithm: (JohT) inputPerKernelValue Transposed LoopFission" role="graphics-symbol" aria-roledescription="bar" d="M0,161.9L48.554545454545455,161.9C50.76220555252146,161.9,52.554545454545455,163.692339902024,52.554545454545455,165.9L52.554545454545455,174.1C52.554545454545455,176.307660097976,50.76220555252146,178.1,48.554545454545455,178.1L0,178.1C0,178.1,0,178.1,0,178.1L0,161.9C0,161.9,0,161.9,0,161.9Z" fill="#4c78a8"/><path aria-label="mean execution time in µs: 1824; algorithm: (JohT) inputPerKernelValue Transposed LoopFissionIndexArithmetic" role="graphics-symbol" aria-roledescription="bar" d="M0,121.9L45.74545454545454,121.9C47.953114643430546,121.9,49.74545454545454,123.692339902024,49.74545454545454,125.9L49.74545454545454,134.1C49.74545454545454,136.307660097976,47.953114643430546,138.1,45.74545454545454,138.1L0,138.1C0,138.1,0,138.1,0,138.1L0,121.9C0,121.9,0,121.9,0,121.9Z" fill="#4c78a8"/><path aria-label="mean execution time in µs: 1233; algorithm: (JohT) kernelPerInputValue Transposed LoopFission" role="graphics-symbol" aria-roledescription="bar" d="M0,81.9L29.627272727272725,81.9C31.834932825248725,81.9,33.627272727272725,83.692339902024,33.627272727272725,85.9L33.627272727272725,94.10000000000001C33.627272727272725,96.30766009797601,31.834932825248725,98.10000000000001,29.627272727272725,98.10000000000001L0,98.10000000000001C0,98.10000000000001,0,98.10000000000001,0,98.10000000000001L0,81.9C0,81.9,0,81.9,0,81.9Z" fill="#4c78a8"/><path aria-label="mean execution time in µs: 645; algorithm: (matlab-like) conv 'full' shape" role="graphics-symbol" aria-roledescription="bar" d="M0,1.9L13.590909090909093,1.9C15.798569188885093,1.9,17.590909090909093,3.692339902024,17.590909090909093,5.9L17.590909090909093,14.099999999999998C17.590909090909093,16.307660097975997,15.798569188885093,18.099999999999998,13.590909090909093,18.099999999999998L0,18.099999999999998C0,18.099999999999998,0,18.099999999999998,0,18.099999999999998L0,1.9C0,1.9,0,1.9,0,1.9Z" fill="#4c78a8"/><path aria-label="mean execution time in µs: 10980; algorithm: (matlab-like) conv 'valid' shape pre padded" role="graphics-symbol" aria-roledescription="bar" d="M0,281.9L295.45454545454544,281.9C297.6622055525214,281.9,299.45454545454544,283.692339902024,299.45454545454544,285.9L299.45454545454544,294.09999999999997C299.45454545454544,296.30766009797594,297.6622055525214,298.09999999999997,295.45454545454544,298.09999999999997L0,298.09999999999997C0,298.09999999999997,0,298.09999999999997,0,298.09999999999997L0,281.9C0,281.9,0,281.9,0,281.9Z" fill="#4c78a8"/><path aria-label="mean execution time in µs: 10874; algorithm: (wilczek) Single" role="graphics-symbol" aria-roledescription="bar" d="M0,261.9L292.56363636363636,261.9C294.77129646161234,261.9,296.56363636363636,263.692339902024,296.56363636363636,265.9L296.56363636363636,274.09999999999997C296.56363636363636,276.30766009797594,294.77129646161234,278.09999999999997,292.56363636363636,278.09999999999997L0,278.09999999999997C0,278.09999999999997,0,278.09999999999997,0,278.09999999999997L0,261.9C0,261.9,0,261.9,0,261.9Z" fill="#4c78a8"/><path aria-label="mean execution time in µs: 2397; algorithm: (wilczek) Inner-Loop Vectorization" role="graphics-symbol" aria-roledescription="bar" d="M0,201.9L61.372727272727275,201.9C63.58038737070328,201.9,65.37272727272727,203.692339902024,65.37272727272727,205.9L65.37272727272727,214.1C65.37272727272727,216.307660097976,63.58038737070328,218.1,61.372727272727275,218.1L0,218.1C0,218.1,0,218.1,0,218.1L0,201.9C0,201.9,0,201.9,0,201.9Z" fill="#4c78a8"/><path aria-label="mean execution time in µs: 8104; algorithm: (wilczek) Outer-Loop Vectorization" role="graphics-symbol" aria-roledescription="bar" d="M0,221.9L217.0181818181818,221.9C219.2258419161578,221.9,221.0181818181818,223.692339902024,221.0181818181818,225.9L221.0181818181818,234.1C221.0181818181818,236.307660097976,219.2258419161578,238.1,217.0181818181818,238.1L0,238.1C0,238.1,0,238.1,0,238.1L0,221.9C0,221.9,0,221.9,0,221.9Z" fill="#4c78a8"/><path aria-label="mean execution time in µs: 2276; algorithm: (wilczek) Outer- and Inner-Loop Vectorization" role="graphics-symbol" aria-roledescription="bar" d="M0,181.9L58.07272727272727,181.9C60.280387370703274,181.9,62.07272727272727,183.692339902024,62.07272727272727,185.9L62.07272727272727,194.1C62.07272727272727,196.307660097976,60.280387370703274,198.1,58.07272727272727,198.1L0,198.1C0,198.1,0,198.1,0,198.1L0,181.9C0,181.9,0,181.9,0,181.9Z" fill="#4c78a8"/><path aria-label="mean execution time in µs: 665; algorithm: (chaowang15) convolve1D" role="graphics-symbol" aria-roledescription="bar" d="M0,21.9L14.136363636363637,21.9C16.344023734339636,21.9,18.136363636363637,23.692339902024,18.136363636363637,25.9L18.136363636363637,34.099999999999994C18.136363636363637,36.307660097976,16.344023734339636,38.099999999999994,14.136363636363637,38.099999999999994L0,38.099999999999994C0,38.099999999999994,0,38.099999999999994,0,38.099999999999994L0,21.9C0,21.9,0,21.9,0,21.9Z" fill="#4c78a8"/></g><g class="mark-text role-mark child_layer_1_marks" role="graphics-object" aria-roledescription="text mark container"><text aria-label="mean execution time in µs: 700; algorithm: (JohT) kernelPerInputValue Transposed; MeanExecutionTime: 700" role="graphics-symbol" aria-roledescription="text mark" text-anchor="start" transform="translate(23.09090909090909,53)" font-family="sans-serif" font-size="9px" fill="black">700</text><text aria-label="mean execution time in µs: 724; algorithm: (JohT) inputPerKernelValue Transposed; MeanExecutionTime: 724" role="graphics-symbol" aria-roledescription="text mark" text-anchor="start" transform="translate(23.745454545454546,73)" font-family="sans-serif" font-size="9px" fill="black">724</text><text aria-label="mean execution time in µs: 8479; algorithm: (JohT) inputPerKernelValue Transposed InnerLoopUnrolled; MeanExecutionTime: 8479" role="graphics-symbol" aria-roledescription="text mark" text-anchor="start" transform="translate(235.24545454545455,253)" font-family="sans-serif" font-size="9px" fill="black">8479</text><text aria-label="mean execution time in µs: 1451; algorithm: (JohT) inputPerKernelValue Transposed OuterLoopUnrolled; MeanExecutionTime: 1451" role="graphics-symbol" aria-roledescription="text mark" text-anchor="start" transform="translate(43.57272727272728,113)" font-family="sans-serif" font-size="9px" fill="black">1451</text><text aria-label="mean execution time in µs: 1889; algorithm: (JohT) inputPerKernelValue Transposed Inner&amp;OuterLoopUnrolled; MeanExecutionTime: 1889" role="graphics-symbol" aria-roledescription="text mark" text-anchor="start" transform="translate(55.518181818181816,153)" font-family="sans-serif" font-size="9px" fill="black">1889</text><text aria-label="mean execution time in µs: 1927; algorithm: (JohT) inputPerKernelValue Transposed LoopFission; MeanExecutionTime: 1927" role="graphics-symbol" aria-roledescription="text mark" text-anchor="start" transform="translate(56.554545454545455,173)" font-family="sans-serif" font-size="9px" fill="black">1927</text><text aria-label="mean execution time in µs: 1824; algorithm: (JohT) inputPerKernelValue Transposed LoopFissionIndexArithmetic; MeanExecutionTime: 1824" role="graphics-symbol" aria-roledescription="text mark" text-anchor="start" transform="translate(53.74545454545454,133)" font-family="sans-serif" font-size="9px" fill="black">1824</text><text aria-label="mean execution time in µs: 1233; algorithm: (JohT) kernelPerInputValue Transposed LoopFission; MeanExecutionTime: 1233" role="graphics-symbol" aria-roledescription="text mark" text-anchor="start" transform="translate(37.627272727272725,93)" font-family="sans-serif" font-size="9px" fill="black">1233</text><text aria-label="mean execution time in µs: 645; algorithm: (matlab-like) conv 'full' shape; MeanExecutionTime: 645" role="graphics-symbol" aria-roledescription="text mark" text-anchor="start" transform="translate(21.590909090909093,13)" font-family="sans-serif" font-size="9px" fill="black">645</text><text aria-label="mean execution time in µs: 10980; algorithm: (matlab-like) conv 'valid' shape pre padded; MeanExecutionTime: 10980" role="graphics-symbol" aria-roledescription="text mark" text-anchor="start" transform="translate(303.45454545454544,293)" font-family="sans-serif" font-size="9px" fill="black">10980</text><text aria-label="mean execution time in µs: 10874; algorithm: (wilczek) Single; MeanExecutionTime: 10874" role="graphics-symbol" aria-roledescription="text mark" text-anchor="start" transform="translate(300.56363636363636,273)" font-family="sans-serif" font-size="9px" fill="black">10874</text><text aria-label="mean execution time in µs: 2397; algorithm: (wilczek) Inner-Loop Vectorization; MeanExecutionTime: 2397" role="graphics-symbol" aria-roledescription="text mark" text-anchor="start" transform="translate(69.37272727272727,213)" font-family="sans-serif" font-size="9px" fill="black">2397</text><text aria-label="mean execution time in µs: 8104; algorithm: (wilczek) Outer-Loop Vectorization; MeanExecutionTime: 8104" role="graphics-symbol" aria-roledescription="text mark" text-anchor="start" transform="translate(225.0181818181818,233)" font-family="sans-serif" font-size="9px" fill="black">8104</text><text aria-label="mean execution time in µs: 2276; algorithm: (wilczek) Outer- and Inner-Loop Vectorization; MeanExecutionTime: 2276" role="graphics-symbol" aria-roledescription="text mark" text-anchor="start" transform="translate(66.07272727272726,193)" font-family="sans-serif" font-size="9px" fill="black">2276</text><text aria-label="mean execution time in µs: 665; algorithm: (chaowang15) convolve1D; MeanExecutionTime: 665" role="graphics-symbol" aria-roledescription="text mark" text-anchor="start" transform="translate(22.136363636363637,33)" font-family="sans-serif" font-size="9px" fill="black">665</text></g></g><path class="foreground" aria-hidden="true" d="" display="none"/></g></g></g><path class="foreground" aria-hidden="true" d="" display="none"/></g></g></g></svg>