<svg xmlns="http://www.w3.org/2000/svg" xmlns:xlink="http://www.w3.org/1999/xlink" version="1.1" class="marks" width="1691" height="404" viewBox="0 0 1691 404"><rect width="1691" height="404" fill="white"/><g fill="none" stroke-miterlimit="10" transform="translate(509,66)"><g class="mark-group role-frame root" role="graphics-object" aria-roledescription="group mark container"><g transform="translate(0,0)"><path class="background" aria-hidden="true" d="M0,0h0v0h0Z"/><g><g class="mark-group role-column-title column-title" role="graphics-object" aria-roledescription="group mark container"><g transform="translate(336,-35)"><path class="background" aria-hidden="true" d="M0,0h0v0h0Z"/><g><g class="mark-group role-title"><g transform="translate(0,-26)"><path class="background" aria-hidden="true" d="M0,0h0v0h0Z" pointer-events="none"/><g><g class="mark-text role-title-text" role="graphics-symbol" aria-roledescription="title" aria-label="Title text 'Convolution Benchmarks'" pointer-events="none"><text text-anchor="middle" transform="translate(0,13)" font-family="sans-serif" font-size="16px" font-weight="bold" fill="#000" opacity="1">Convolution Benchmarks</text></g></g><path class="foreground" aria-hidden="true" d="" pointer-events="none" display="none"/></g></g></g><path class="foreground" aria-hidden="true" d="" display="none"/></g></g><g class="mark-group role-column-header column_header" role="graphics-object" aria-roledescription="group mark container"><g transform="translate(0,-1)"><path class="background" aria-hidden="true" d="M0,0h300v0h-300Z"/><g><g class="mark-group role-title"><g transform="translate(150,-24)"><path class="background" aria-hidden="true" d="M0,0h0v0h0Z" pointer-events="none"/><g><g class="mark-text role-title-text" role="graphics-symbol" aria-roledescription="title" aria-label="Title text 'kernel size 16'" pointer-events="none"><text text-anchor="middle" transform="translate(0,11)" font-family="sans-serif" font-size="14px" fill="#000" opacity="1">kernel size 16</text></g></g><path class="foreground" aria-hidden="true" d="" pointer-events="none" display="none"/></g></g></g><path class="foreground" aria-hidden="true" d="" display="none"/></g><g transform="translate(842,-1)"><path class="background" aria-hidden="true" d="M0,0h300v0h-300Z"/><g><g class="mark-group role-title"><g transform="translate(150,-24)"><path class="background" aria-hidden="true" d="M0,0h0v0h0Z" pointer-events="none"/><g><g class="mark-text role-title-text" role="graphics-symbol" aria-roledescription="title" aria-label="Title text 'kernel size 512'" pointer-events="none"><text text-anchor="middle" transform="translate(0,11)" font-family="sans-serif" font-size="14px" fill="#000" opacity="1">kernel size 512</text></g></g><path class="foreground" aria-hidden="true" d="" pointer-events="none" display="none"/></g></g></g><path class="foreground" aria-hidden="true" d="" display="none"/></g></g><g class="mark-group role-scope cell" role="graphics-object" aria-roledescription="group mark container"><g transform="translate(0,0)"><path class="background" aria-hidden="true" d="M0.5,0.5h300v300h-300Z" stroke="#ddd"/><g><g class="mark-group role-axis" aria-hidden="true"><g transform="translate(0.5,300.5)"><path class="background" aria-hidden="true" d="M0,0h0v0h0Z" pointer-events="none"/><g><g class="mark-rule role-axis-grid" pointer-events="none"><line transform="translate(0,0)" x2="0" y2="-300" stroke="#ddd" stroke-width="1" opacity="1"/><line transform="translate(54,0)" x2="0" y2="-300" stroke="#ddd" stroke-width="1" opacity="1"/><line transform="translate(107,0)" x2="0" y2="-300" stroke="#ddd" stroke-width="1" opacity="1"/><line transform="translate(161,0)" x2="0" y2="-300" stroke="#ddd" stroke-width="1" opacity="1"/><line transform="translate(214,0)" x2="0" y2="-300" stroke="#ddd" stroke-width="1" opacity="1"/><line transform="translate(268,0)" x2="0" y2="-300" stroke="#ddd" stroke-width="1" opacity="1"/></g></g><path class="foreground" aria-hidden="true" d="" pointer-events="none" display="none"/></g></g><g class="mark-group role-axis" role="graphics-symbol" aria-roledescription="axis" aria-label="X-axis titled 'mean execution time in µs' for a linear scale with values from 0 to 280"><g transform="translate(0.5,300.5)"><path class="background" aria-hidden="true" d="M0,0h0v0h0Z" pointer-events="none"/><g><g class="mark-rule role-axis-tick" pointer-events="none"><line transform="translate(0,0)" x2="0" y2="5" stroke="#888" stroke-width="1" opacity="1"/><line transform="translate(54,0)" x2="0" y2="5" stroke="#888" stroke-width="1" opacity="1"/><line transform="translate(107,0)" x2="0" y2="5" stroke="#888" stroke-width="1" opacity="1"/><line transform="translate(161,0)" x2="0" y2="5" stroke="#888" stroke-width="1" opacity="1"/><line transform="translate(214,0)" x2="0" y2="5" stroke="#888" stroke-width="1" opacity="1"/><line transform="translate(268,0)" x2="0" y2="5" stroke="#888" stroke-width="1" opacity="1"/></g><g class="mark-text role-axis-label" pointer-events="none"><text text-anchor="start" transform="translate(0,15)" font-family="sans-serif" font-size="10px" fill="#000" opacity="1">0</text><text text-anchor="middle" transform="translate(53.57142857142857,15)" font-family="sans-serif" font-size="10px" fill="#000" opacity="1">50</text><text text-anchor="middle" transform="translate(107.14285714285714,15)" font-family="sans-serif" font-size="10px" fill="#000" opacity="1">100</text><text text-anchor="middle" transform="translate(160.71428571428572,15)" font-family="sans-serif" font-size="10px" fill="#000" opacity="1">150</text><text text-anchor="middle" transform="translate(214.28571428571428,15)" font-family="sans-serif" font-size="10px" fill="#000" opacity="1">200</text><text text-anchor="middle" transform="translate(267.8571428571429,15)" font-family="sans-serif" font-size="10px" fill="#000" opacity="1">250</text></g><g class="mark-rule role-axis-domain" pointer-events="none"><line transform="translate(0,0)" x2="300" y2="0" stroke="#888" stroke-width="1" opacity="1"/></g><g class="mark-text role-axis-title" pointer-events="none"><text text-anchor="middle" transform="translate(150,30)" font-family="sans-serif" font-size="11px" font-weight="bold" fill="#000" opacity="1">mean execution time in µs</text></g></g><path class="foreground" aria-hidden="true" d="" pointer-events="none" display="none"/></g></g><g class="mark-group role-axis" role="graphics-symbol" aria-roledescription="axis" aria-label="Y-axis titled 'algorithm' for a discrete scale with 15 values: (JohT) inputPerKernelValue Transposed OuterLoopUnrolled, (JohT) inputPerKernelValue Transposed, (chaowang15) convolve1D, (JohT) inputPerKernelValue Transposed Inner&amp;OuterLoopUnrolled, (JohT) inputPerKernelValue Transposed LoopFission, ending with (JohT) inputPerKernelValue Transposed InnerLoopUnrolled"><g transform="translate(0.5,0.5)"><path class="background" aria-hidden="true" d="M0,0h0v0h0Z" pointer-events="none"/><g><g class="mark-rule role-axis-tick" pointer-events="none"><line transform="translate(0,10)" x2="-5" y2="0" stroke="#888" stroke-width="1" opacity="1"/><line transform="translate(0,30)" x2="-5" y2="0" stroke="#888" stroke-width="1" opacity="1"/><line transform="translate(0,50)" x2="-5" y2="0" stroke="#888" stroke-width="1" opacity="1"/><line transform="translate(0,70)" x2="-5" y2="0" stroke="#888" stroke-width="1" opacity="1"/><line transform="translate(0,90)" x2="-5" y2="0" stroke="#888" stroke-width="1" opacity="1"/><line transform="translate(0,110)" x2="-5" y2="0" stroke="#888" stroke-width="1" opacity="1"/><line transform="translate(0,130)" x2="-5" y2="0" stroke="#888" stroke-width="1" opacity="1"/><line transform="translate(0,150)" x2="-5" y2="0" stroke="#888" stroke-width="1" opacity="1"/><line transform="translate(0,170)" x2="-5" y2="0" stroke="#888" stroke-width="1" opacity="1"/><line transform="translate(0,190)" x2="-5" y2="0" stroke="#888" stroke-width="1" opacity="1"/><line transform="translate(0,210)" x2="-5" y2="0" stroke="#888" stroke-width="1" opacity="1"/><line transform="translate(0,230)" x2="-5" y2="0" stroke="#888" stroke-width="1" opacity="1"/><line transform="translate(0,250)" x2="-5" y2="0" stroke="#888" stroke-width="1" opacity="1"/><line transform="translate(0,270)" x2="-5" y2="0" stroke="#888" stroke-width="1" opacity="1"/><line transform="translate(0,290)" x2="-5" y2="0" stroke="#888" stroke-width="1" opacity="1"/></g><g class="mark-text role-axis-label" pointer-events="none"><text text-anchor="end" transform="translate(-7,12.5)" font-family="sans-serif" font-size="10px" fill="#000" opacity="1">(JohT) inputPerKernelValue Transposed OuterLoopUnrolled</text><text text-anchor="end" transform="translate(-7,32.5)" font-family="sans-serif" font-size="10px" fill="#000" opacity="1">(JohT) inputPerKernelValue Transposed</text><text text-anchor="end" transform="translate(-7,52.5)" font-family="sans-serif" font-size="10px" fill="#000" opacity="1">(chaowang15) convolve1D</text><text text-anchor="end" transform="translate(-7,72.5)" font-family="sans-serif" font-size="10px" fill="#000" opacity="1">(JohT) inputPerKernelValue Transposed Inner&amp;OuterLoopUnrolled</text><text text-anchor="end" transform="translate(-7,92.5)" font-family="sans-serif" font-size="10px" fill="#000" opacity="1">(JohT) inputPerKernelValue Transposed LoopFission</text><text text-anchor="end" transform="translate(-7,112.5)" font-family="sans-serif" font-size="10px" fill="#000" opacity="1">(matlab-like) conv 'full' shape</text><text text-anchor="end" transform="translate(-7,132.5)" font-family="sans-serif" font-size="10px" fill="#000" opacity="1">(JohT) kernelPerInputValue Transposed</text><text text-anchor="end" transform="translate(-7,152.5)" font-family="sans-serif" font-size="10px" fill="#000" opacity="1">(wilczek) Inner-Loop Vectorization</text><text text-anchor="end" transform="translate(-7,172.5)" font-family="sans-serif" font-size="10px" fill="#000" opacity="1">(wilczek) Outer-Loop Vectorization</text><text text-anchor="end" transform="translate(-7,192.5)" font-family="sans-serif" font-size="10px" fill="#000" opacity="1">(wilczek) Outer- and Inner-Loop Vectorization</text><text text-anchor="end" transform="translate(-7,212.5)" font-family="sans-serif" font-size="10px" fill="#000" opacity="1">(JohT) kernelPerInputValue Transposed LoopFission</text><text text-anchor="end" transform="translate(-7,232.5)" font-family="sans-serif" font-size="10px" fill="#000" opacity="1">(JohT) inputPerKernelValue Transposed LoopFissionIndexArithme…</text><text text-anchor="end" transform="translate(-7,252.5)" font-family="sans-serif" font-size="10px" fill="#000" opacity="1">(wilczek) Single</text><text text-anchor="end" transform="translate(-7,272.5)" font-family="sans-serif" font-size="10px" fill="#000" opacity="1">(matlab-like) conv 'valid' shape pre padded</text><text text-anchor="end" transform="translate(-7,292.5)" font-family="sans-serif" font-size="10px" fill="#000" opacity="1">(JohT) inputPerKernelValue Transposed InnerLoopUnrolled</text></g><g class="mark-rule role-axis-domain" pointer-events="none"><line transform="translate(0,0)" x2="0" y2="300" stroke="#888" stroke-width="1" opacity="1"/></g><g class="mark-text role-axis-title" pointer-events="none"><text text-anchor="middle" transform="translate(-320,150) rotate(-90) translate(0,-2)" font-family="sans-serif" font-size="11px" font-weight="bold" fill="#000" opacity="1">algorithm</text></g></g><path class="foreground" aria-hidden="true" d="" pointer-events="none" display="none"/></g></g><g class="mark-rect role-mark child_layer_0_marks" role="graphics-object" aria-roledescription="rect mark container"><path aria-label="mean execution time in µs: 72; algorithm: (JohT) kernelPerInputValue Transposed" role="graphics-symbol" aria-roledescription="bar" d="M0,121.9L73.14285714285714,121.9C75.35051724083314,121.9,77.14285714285714,123.692339902024,77.14285714285714,125.9L77.14285714285714,134.1C77.14285714285714,136.307660097976,75.35051724083314,138.1,73.14285714285714,138.1L0,138.1C0,138.1,0,138.1,0,138.1L0,121.9C0,121.9,0,121.9,0,121.9Z" fill="#4c78a8"/><path aria-label="mean execution time in µs: 33; algorithm: (JohT) inputPerKernelValue Transposed" role="graphics-symbol" aria-roledescription="bar" d="M0,21.9L31.357142857142854,21.9C33.56480295511886,21.9,35.357142857142854,23.692339902024,35.357142857142854,25.9L35.357142857142854,34.099999999999994C35.357142857142854,36.307660097976,33.56480295511886,38.099999999999994,31.357142857142854,38.099999999999994L0,38.099999999999994C0,38.099999999999994,0,38.099999999999994,0,38.099999999999994L0,21.9C0,21.9,0,21.9,0,21.9Z" fill="#4c78a8"/><path aria-label="mean execution time in µs: 272; algorithm: (JohT) inputPerKernelValue Transposed InnerLoopUnrolled" role="graphics-symbol" aria-roledescription="bar" d="M0,281.9L287.42857142857144,281.9C289.6362315265474,281.9,291.42857142857144,283.692339902024,291.42857142857144,285.9L291.42857142857144,294.09999999999997C291.42857142857144,296.30766009797594,289.6362315265474,298.09999999999997,287.42857142857144,298.09999999999997L0,298.09999999999997C0,298.09999999999997,0,298.09999999999997,0,298.09999999999997L0,281.9C0,281.9,0,281.9,0,281.9Z" fill="#4c78a8"/><path aria-label="mean execution time in µs: 27; algorithm: (JohT) inputPerKernelValue Transposed OuterLoopUnrolled" role="graphics-symbol" aria-roledescription="bar" d="M0,1.9L24.92857142857143,1.9C27.13623152654743,1.9,28.92857142857143,3.692339902024,28.92857142857143,5.9L28.92857142857143,14.099999999999998C28.92857142857143,16.307660097975997,27.13623152654743,18.099999999999998,24.92857142857143,18.099999999999998L0,18.099999999999998C0,18.099999999999998,0,18.099999999999998,0,18.099999999999998L0,1.9C0,1.9,0,1.9,0,1.9Z" fill="#4c78a8"/><path aria-label="mean execution time in µs: 56; algorithm: (JohT) inputPerKernelValue Transposed Inner&amp;OuterLoopUnrolled" role="graphics-symbol" aria-roledescription="bar" d="M0,61.9L56,61.9C58.207660097976,61.9,60,63.692339902023996,60,65.9L60,74.1C60,76.307660097976,58.207660097976,78.1,56,78.1L0,78.1C0,78.1,0,78.1,0,78.1L0,61.9C0,61.9,0,61.9,0,61.9Z" fill="#4c78a8"/><path aria-label="mean execution time in µs: 59; algorithm: (JohT) inputPerKernelValue Transposed LoopFission" role="graphics-symbol" aria-roledescription="bar" d="M0,81.9L59.214285714285715,81.9C61.42194581226172,81.9,63.214285714285715,83.692339902024,63.214285714285715,85.9L63.214285714285715,94.10000000000001C63.214285714285715,96.30766009797601,61.42194581226172,98.10000000000001,59.214285714285715,98.10000000000001L0,98.10000000000001C0,98.10000000000001,0,98.10000000000001,0,98.10000000000001L0,81.9C0,81.9,0,81.9,0,81.9Z" fill="#4c78a8"/><path aria-label="mean execution time in µs: 111; algorithm: (JohT) inputPerKernelValue Transposed LoopFissionIndexArithmetic" role="graphics-symbol" aria-roledescription="bar" d="M0,221.9L114.92857142857142,221.9C117.13623152654742,221.9,118.92857142857142,223.692339902024,118.92857142857142,225.9L118.92857142857142,234.1C118.92857142857142,236.307660097976,117.13623152654742,238.1,114.92857142857142,238.1L0,238.1C0,238.1,0,238.1,0,238.1L0,221.9C0,221.9,0,221.9,0,221.9Z" fill="#4c78a8"/><path aria-label="mean execution time in µs: 103; algorithm: (JohT) kernelPerInputValue Transposed LoopFission" role="graphics-symbol" aria-roledescription="bar" d="M0,201.9L106.35714285714286,201.9C108.56480295511886,201.9,110.35714285714286,203.692339902024,110.35714285714286,205.9L110.35714285714286,214.1C110.35714285714286,216.307660097976,108.56480295511886,218.1,106.35714285714286,218.1L0,218.1C0,218.1,0,218.1,0,218.1L0,201.9C0,201.9,0,201.9,0,201.9Z" fill="#4c78a8"/><path aria-label="mean execution time in µs: 63; algorithm: (matlab-like) conv 'full' shape" role="graphics-symbol" aria-roledescription="bar" d="M0,101.9L63.5,101.9C65.707660097976,101.9,67.5,103.692339902024,67.5,105.9L67.5,114.10000000000001C67.5,116.30766009797601,65.707660097976,118.10000000000001,63.5,118.10000000000001L0,118.10000000000001C0,118.10000000000001,0,118.10000000000001,0,118.10000000000001L0,101.9C0,101.9,0,101.9,0,101.9Z" fill="#4c78a8"/><path aria-label="mean execution time in µs: 177; algorithm: (matlab-like) conv 'valid' shape pre padded" role="graphics-symbol" aria-roledescription="bar" d="M0,261.9L185.64285714285714,261.9C187.85051724083314,261.9,189.64285714285714,263.692339902024,189.64285714285714,265.9L189.64285714285714,274.09999999999997C189.64285714285714,276.30766009797594,187.85051724083314,278.09999999999997,185.64285714285714,278.09999999999997L0,278.09999999999997C0,278.09999999999997,0,278.09999999999997,0,278.09999999999997L0,261.9C0,261.9,0,261.9,0,261.9Z" fill="#4c78a8"/><path aria-label="mean execution time in µs: 115; algorithm: (wilczek) Single" role="graphics-symbol" aria-roledescription="bar" d="M0,241.9L119.21428571428571,241.9C121.42194581226171,241.9,123.21428571428571,243.692339902024,123.21428571428571,245.9L123.21428571428571,254.10000000000002C123.21428571428571,256.307660097976,121.42194581226171,258.1,119.21428571428571,258.1L0,258.1C0,258.1,0,258.1,0,258.1L0,241.9C0,241.9,0,241.9,0,241.9Z" fill="#4c78a8"/><path aria-label="mean execution time in µs: 90; algorithm: (wilczek) Inner-Loop Vectorization" role="graphics-symbol" aria-roledescription="bar" d="M0,141.9L92.42857142857143,141.9C94.63623152654743,141.9,96.42857142857143,143.692339902024,96.42857142857143,145.9L96.42857142857143,154.1C96.42857142857143,156.307660097976,94.63623152654743,158.1,92.42857142857143,158.1L0,158.1C0,158.1,0,158.1,0,158.1L0,141.9C0,141.9,0,141.9,0,141.9Z" fill="#4c78a8"/><path aria-label="mean execution time in µs: 93; algorithm: (wilczek) Outer-Loop Vectorization" role="graphics-symbol" aria-roledescription="bar" d="M0,161.9L95.64285714285714,161.9C97.85051724083314,161.9,99.64285714285714,163.692339902024,99.64285714285714,165.9L99.64285714285714,174.1C99.64285714285714,176.307660097976,97.85051724083314,178.1,95.64285714285714,178.1L0,178.1C0,178.1,0,178.1,0,178.1L0,161.9C0,161.9,0,161.9,0,161.9Z" fill="#4c78a8"/><path aria-label="mean execution time in µs: 95; algorithm: (wilczek) Outer- and Inner-Loop Vectorization" role="graphics-symbol" aria-roledescription="bar" d="M0,181.9L97.78571428571429,181.9C99.9933743836903,181.9,101.78571428571429,183.692339902024,101.78571428571429,185.9L101.78571428571429,194.1C101.78571428571429,196.307660097976,99.9933743836903,198.1,97.78571428571429,198.1L0,198.1C0,198.1,0,198.1,0,198.1L0,181.9C0,181.9,0,181.9,0,181.9Z" fill="#4c78a8"/><path aria-label="mean execution time in µs: 35; algorithm: (chaowang15) convolve1D" role="graphics-symbol" aria-roledescription="bar" d="M0,41.9L33.5,41.9C35.707660097976,41.9,37.5,43.692339902023996,37.5,45.9L37.5,54.099999999999994C37.5,56.307660097976,35.707660097976,58.099999999999994,33.5,58.099999999999994L0,58.099999999999994C0,58.099999999999994,0,58.099999999999994,0,58.099999999999994L0,41.9C0,41.9,0,41.9,0,41.9Z" fill="#4c78a8"/></g><g class="mark-text role-mark child_layer_1_marks" role="graphics-object" aria-roledescription="text mark container"><text aria-label="mean execution time in µs: 72; algorithm: (JohT) kernelPerInputValue Transposed; MeanExecutionTime: 72" role="graphics-symbol" aria-roledescription="text mark" text-anchor="start" transform="translate(81.14285714285714,133)" font-family="sans-serif" font-size="9px" fill="black">72</text><text aria-label="mean execution time in µs: 33; algorithm: (JohT) inputPerKernelValue Transposed; MeanExecutionTime: 33" role="graphics-symbol" aria-roledescription="text mark" text-anchor="start" transform="translate(39.357142857142854,33)" font-family="sans-serif" font-size="9px" fill="black">33</text><text aria-label="mean execution time in µs: 272; algorithm: (JohT) inputPerKernelValue Transposed InnerLoopUnrolled; MeanExecutionTime: 272" role="graphics-symbol" aria-roledescription="text mark" text-anchor="start" transform="translate(295.42857142857144,293)" font-family="sans-serif" font-size="9px" fill="black">272</text><text aria-label="mean execution time in µs: 27; algorithm: (JohT) inputPerKernelValue Transposed OuterLoopUnrolled; MeanExecutionTime: 27" role="graphics-symbol" aria-roledescription="text mark" text-anchor="start" transform="translate(32.92857142857143,13)" font-family="sans-serif" font-size="9px" fill="black">27</text><text aria-label="mean execution time in µs: 56; algorithm: (JohT) inputPerKernelValue Transposed Inner&amp;OuterLoopUnrolled; MeanExecutionTime: 56" role="graphics-symbol" aria-roledescription="text mark" text-anchor="start" transform="translate(64,73)" font-family="sans-serif" font-size="9px" fill="black">56</text><text aria-label="mean execution time in µs: 59; algorithm: (JohT) inputPerKernelValue Transposed LoopFission; MeanExecutionTime: 59" role="graphics-symbol" aria-roledescription="text mark" text-anchor="start" transform="translate(67.21428571428572,93)" font-family="sans-serif" font-size="9px" fill="black">59</text><text aria-label="mean execution time in µs: 111; algorithm: (JohT) inputPerKernelValue Transposed LoopFissionIndexArithmetic; MeanExecutionTime: 111" role="graphics-symbol" aria-roledescription="text mark" text-anchor="start" transform="translate(122.92857142857142,233)" font-family="sans-serif" font-size="9px" fill="black">111</text><text aria-label="mean execution time in µs: 103; algorithm: (JohT) kernelPerInputValue Transposed LoopFission; MeanExecutionTime: 103" role="graphics-symbol" aria-roledescription="text mark" text-anchor="start" transform="translate(114.35714285714286,213)" font-family="sans-serif" font-size="9px" fill="black">103</text><text aria-label="mean execution time in µs: 63; algorithm: (matlab-like) conv 'full' shape; MeanExecutionTime: 63" role="graphics-symbol" aria-roledescription="text mark" text-anchor="start" transform="translate(71.5,113)" font-family="sans-serif" font-size="9px" fill="black">63</text><text aria-label="mean execution time in µs: 177; algorithm: (matlab-like) conv 'valid' shape pre padded; MeanExecutionTime: 177" role="graphics-symbol" aria-roledescription="text mark" text-anchor="start" transform="translate(193.64285714285714,273)" font-family="sans-serif" font-size="9px" fill="black">177</text><text aria-label="mean execution time in µs: 115; algorithm: (wilczek) Single; MeanExecutionTime: 115" role="graphics-symbol" aria-roledescription="text mark" text-anchor="start" transform="translate(127.21428571428571,253)" font-family="sans-serif" font-size="9px" fill="black">115</text><text aria-label="mean execution time in µs: 90; algorithm: (wilczek) Inner-Loop Vectorization; MeanExecutionTime: 90" role="graphics-symbol" aria-roledescription="text mark" text-anchor="start" transform="translate(100.42857142857143,153)" font-family="sans-serif" font-size="9px" fill="black">90</text><text aria-label="mean execution time in µs: 93; algorithm: (wilczek) Outer-Loop Vectorization; MeanExecutionTime: 93" role="graphics-symbol" aria-roledescription="text mark" text-anchor="start" transform="translate(103.64285714285714,173)" font-family="sans-serif" font-size="9px" fill="black">93</text><text aria-label="mean execution time in µs: 95; algorithm: (wilczek) Outer- and Inner-Loop Vectorization; MeanExecutionTime: 95" role="graphics-symbol" aria-roledescription="text mark" text-anchor="start" transform="translate(105.78571428571429,193)" font-family="sans-serif" font-size="9px" fill="black">95</text><text aria-label="mean execution time in µs: 35; algorithm: (chaowang15) convolve1D; MeanExecutionTime: 35" role="graphics-symbol" aria-roledescription="text mark" text-anchor="start" transform="translate(41.5,53)" font-family="sans-serif" font-size="9px" fill="black">35</text></g></g><path class="foreground" aria-hidden="true" d="" display="none"/></g><g transform="translate(842,0)"><path class="background" aria-hidden="true" d="M0.5,0.5h300v300h-300Z" stroke="#ddd"/><g><g class="mark-group role-axis" aria-hidden="true"><g transform="translate(0.5,300.5)"><path class="background" aria-hidden="true" d="M0,0h0v0h0Z" pointer-events="none"/><g><g class="mark-rule role-axis-grid" pointer-events="none"><line transform="translate(0,0)" x2="0" y2="-300" stroke="#ddd" stroke-width="1" opacity="1"/><line transform="translate(46,0)" x2="0" y2="-300" stroke="#ddd" stroke-width="1" opacity="1"/><line transform="translate(92,0)" x2="0" y2="-300" stroke="#ddd" stroke-width="1" opacity="1"/><line transform="translate(138,0)" x2="0" y2="-300" stroke="#ddd" stroke-width="1" opacity="1"/><line transform="translate(185,0)" x2="0" y2="-300" stroke="#ddd" stroke-width="1" opacity="1"/><line transform="translate(231,0)" x2="0" y2="-300" stroke="#ddd" stroke-width="1" opacity="1"/><line transform="translate(277,0)" x2="0" y2="-300" stroke="#ddd" stroke-width="1" opacity="1"/></g></g><path class="foreground" aria-hidden="true" d="" pointer-events="none" display="none"/></g></g><g class="mark-group role-axis" role="graphics-symbol" aria-roledescription="axis" aria-label="X-axis titled 'mean execution time in µs' for a linear scale with values from 0 to 13,000"><g transform="translate(0.5,300.5)"><path class="background" aria-hidden="true" d="M0,0h0v0h0Z" pointer-events="none"/><g><g class="mark-rule role-axis-tick" pointer-events="none"><line transform="translate(0,0)" x2="0" y2="5" stroke="#888" stroke-width="1" opacity="1"/><line transform="translate(46,0)" x2="0" y2="5" stroke="#888" stroke-width="1" opacity="1"/><line transform="translate(92,0)" x2="0" y2="5" stroke="#888" stroke-width="1" opacity="1"/><line transform="translate(138,0)" x2="0" y2="5" stroke="#888" stroke-width="1" opacity="1"/><line transform="translate(185,0)" x2="0" y2="5" stroke="#888" stroke-width="1" opacity="1"/><line transform="translate(231,0)" x2="0" y2="5" stroke="#888" stroke-width="1" opacity="1"/><line transform="translate(277,0)" x2="0" y2="5" stroke="#888" stroke-width="1" opacity="1"/></g><g class="mark-text role-axis-label" pointer-events="none"><text text-anchor="start" transform="translate(0,15)" font-family="sans-serif" font-size="10px" fill="#000" opacity="1">0</text><text text-anchor="middle" transform="translate(46.15384615384615,15)" font-family="sans-serif" font-size="10px" fill="#000" opacity="0">2,000</text><text text-anchor="middle" transform="translate(92.3076923076923,15)" font-family="sans-serif" font-size="10px" fill="#000" opacity="1">4,000</text><text text-anchor="middle" transform="translate(138.46153846153848,15)" font-family="sans-serif" font-size="10px" fill="#000" opacity="0">6,000</text><text text-anchor="middle" transform="translate(184.6153846153846,15)" font-family="sans-serif" font-size="10px" fill="#000" opacity="1">8,000</text><text text-anchor="middle" transform="translate(230.76923076923077,15)" font-family="sans-serif" font-size="10px" fill="#000" opacity="0">10,000</text><text text-anchor="middle" transform="translate(276.92307692307696,15)" font-family="sans-serif" font-size="10px" fill="#000" opacity="1">12,000</text></g><g class="mark-rule role-axis-domain" pointer-events="none"><line transform="translate(0,0)" x2="300" y2="0" stroke="#888" stroke-width="1" opacity="1"/></g><g class="mark-text role-axis-title" pointer-events="none"><text text-anchor="middle" transform="translate(150,30)" font-family="sans-serif" font-size="11px" font-weight="bold" fill="#000" opacity="1">mean execution time in µs</text></g></g><path class="foreground" aria-hidden="true" d="" pointer-events="none" display="none"/></g></g><g class="mark-group role-axis" role="graphics-symbol" aria-roledescription="axis" aria-label="Y-axis titled 'algorithm' for a discrete scale with 15 values: (matlab-like) conv 'full' shape, (JohT) inputPerKernelValue Transposed, (chaowang15) convolve1D, (JohT) kernelPerInputValue Transposed, (wilczek) Single, ending with (matlab-like) conv 'valid' shape pre padded"><g transform="translate(0.5,0.5)"><path class="background" aria-hidden="true" d="M0,0h0v0h0Z" pointer-events="none"/><g><g class="mark-rule role-axis-tick" pointer-events="none"><line transform="translate(0,10)" x2="-5" y2="0" stroke="#888" stroke-width="1" opacity="1"/><line transform="translate(0,30)" x2="-5" y2="0" stroke="#888" stroke-width="1" opacity="1"/><line transform="translate(0,50)" x2="-5" y2="0" stroke="#888" stroke-width="1" opacity="1"/><line transform="translate(0,70)" x2="-5" y2="0" stroke="#888" stroke-width="1" opacity="1"/><line transform="translate(0,90)" x2="-5" y2="0" stroke="#888" stroke-width="1" opacity="1"/><line transform="translate(0,110)" x2="-5" y2="0" stroke="#888" stroke-width="1" opacity="1"/><line transform="translate(0,130)" x2="-5" y2="0" stroke="#888" stroke-width="1" opacity="1"/><line transform="translate(0,150)" x2="-5" y2="0" stroke="#888" stroke-width="1" opacity="1"/><line transform="translate(0,170)" x2="-5" y2="0" stroke="#888" stroke-width="1" opacity="1"/><line transform="translate(0,190)" x2="-5" y2="0" stroke="#888" stroke-width="1" opacity="1"/><line transform="translate(0,210)" x2="-5" y2="0" stroke="#888" stroke-width="1" opacity="1"/><line transform="translate(0,230)" x2="-5" y2="0" stroke="#888" stroke-width="1" opacity="1"/><line transform="translate(0,250)" x2="-5" y2="0" stroke="#888" stroke-width="1" opacity="1"/><line transform="translate(0,270)" x2="-5" y2="0" stroke="#888" stroke-width="1" opacity="1"/><line transform="translate(0,290)" x2="-5" y2="0" stroke="#888" stroke-width="1" opacity="1"/></g><g class="mark-text role-axis-label" pointer-events="none"><text text-anchor="end" transform="translate(-7,12.5)" font-family="sans-serif" font-size="10px" fill="#000" opacity="1">(matlab-like) conv 'full' shape</text><text text-anchor="end" transform="translate(-7,32.5)" font-family="sans-serif" font-size="10px" fill="#000" opacity="1">(JohT) inputPerKernelValue Transposed</text><text text-anchor="end" transform="translate(-7,52.5)" font-family="sans-serif" font-size="10px" fill="#000" opacity="1">(chaowang15) convolve1D</text><text text-anchor="end" transform="translate(-7,72.5)" font-family="sans-serif" font-size="10px" fill="#000" opacity="1">(JohT) kernelPerInputValue Transposed</text><text text-anchor="end" transform="translate(-7,92.5)" font-family="sans-serif" font-size="10px" fill="#000" opacity="1">(wilczek) Single</text><text text-anchor="end" transform="translate(-7,112.5)" font-family="sans-serif" font-size="10px" fill="#000" opacity="1">(JohT) inputPerKernelValue Transposed OuterLoopUnrolled</text><text text-anchor="end" transform="translate(-7,132.5)" font-family="sans-serif" font-size="10px" fill="#000" opacity="1">(JohT) kernelPerInputValue Transposed LoopFission</text><text text-anchor="end" transform="translate(-7,152.5)" font-family="sans-serif" font-size="10px" fill="#000" opacity="1">(JohT) inputPerKernelValue Transposed LoopFissionIndexArithme…</text><text text-anchor="end" transform="translate(-7,172.5)" font-family="sans-serif" font-size="10px" fill="#000" opacity="1">(wilczek) Outer- and Inner-Loop Vectorization</text><text text-anchor="end" transform="translate(-7,192.5)" font-family="sans-serif" font-size="10px" fill="#000" opacity="1">(JohT) inputPerKernelValue Transposed Inner&amp;OuterLoopUnrolled</text><text text-anchor="end" transform="translate(-7,212.5)" font-family="sans-serif" font-size="10px" fill="#000" opacity="1">(JohT) inputPerKernelValue Transposed LoopFission</text><text text-anchor="end" transform="translate(-7,232.5)" font-family="sans-serif" font-size="10px" fill="#000" opacity="1">(wilczek) Inner-Loop Vectorization</text><text text-anchor="end" transform="translate(-7,252.5)" font-family="sans-serif" font-size="10px" fill="#000" opacity="1">(wilczek) Outer-Loop Vectorization</text><text text-anchor="end" transform="translate(-7,272.5)" font-family="sans-serif" font-size="10px" fill="#000" opacity="1">(JohT) inputPerKernelValue Transposed InnerLoopUnrolled</text><text text-anchor="end" transform="translate(-7,292.5)" font-family="sans-serif" font-size="10px" fill="#000" opacity="1">(matlab-like) conv 'valid' shape pre padded</text></g><g class="mark-rule role-axis-domain" pointer-events="none"><line transform="translate(0,0)" x2="0" y2="300" stroke="#888" stroke-width="1" opacity="1"/></g><g class="mark-text role-axis-title" pointer-events="none"><text text-anchor="middle" transform="translate(-320,150) rotate(-90) translate(0,-2)" font-family="sans-serif" font-size="11px" font-weight="bold" fill="#000" opacity="1">algorithm</text></g></g><path class="foreground" aria-hidden="true" d="" pointer-events="none" display="none"/></g></g><g class="mark-rect role-mark child_layer_0_marks" role="graphics-object" aria-roledescription="rect mark container"><path aria-label="mean execution time in µs: 1032; algorithm: (JohT) kernelPerInputValue Transposed" role="graphics-symbol" aria-roledescription="bar" d="M0,61.9L19.815384615384616,61.9C22.023044713360616,61.9,23.815384615384616,63.692339902023996,23.815384615384616,65.9L23.815384615384616,74.1C23.815384615384616,76.307660097976,22.023044713360616,78.1,19.815384615384616,78.1L0,78.1C0,78.1,0,78.1,0,78.1L0,61.9C0,61.9,0,61.9,0,61.9Z" fill="#4c78a8"/><path aria-label="mean execution time in µs: 816; algorithm: (JohT) inputPerKernelValue Transposed" role="graphics-symbol" aria-roledescription="bar" d="M0,21.9L14.830769230769231,21.9C17.03842932874523,21.9,18.83076923076923,23.692339902024,18.83076923076923,25.9L18.83076923076923,34.099999999999994C18.83076923076923,36.307660097976,17.03842932874523,38.099999999999994,14.830769230769231,38.099999999999994L0,38.099999999999994C0,38.099999999999994,0,38.099999999999994,0,38.099999999999994L0,21.9C0,21.9,0,21.9,0,21.9Z" fill="#4c78a8"/><path aria-label="mean execution time in µs: 8794; algorithm: (JohT) inputPerKernelValue Transposed InnerLoopUnrolled" role="graphics-symbol" aria-roledescription="bar" d="M0,261.9L198.93846153846152,261.9C201.14612163643753,261.9,202.93846153846152,263.692339902024,202.93846153846152,265.9L202.93846153846152,274.09999999999997C202.93846153846152,276.30766009797594,201.14612163643753,278.09999999999997,198.93846153846152,278.09999999999997L0,278.09999999999997C0,278.09999999999997,0,278.09999999999997,0,278.09999999999997L0,261.9C0,261.9,0,261.9,0,261.9Z" fill="#4c78a8"/><path aria-label="mean execution time in µs: 1183; algorithm: (JohT) inputPerKernelValue Transposed OuterLoopUnrolled" role="graphics-symbol" aria-roledescription="bar" d="M0,101.9L23.3,101.9C25.507660097976,101.9,27.3,103.692339902024,27.3,105.9L27.3,114.10000000000001C27.3,116.30766009797601,25.507660097976,118.10000000000001,23.3,118.10000000000001L0,118.10000000000001C0,118.10000000000001,0,118.10000000000001,0,118.10000000000001L0,101.9C0,101.9,0,101.9,0,101.9Z" fill="#4c78a8"/><path aria-label="mean execution time in µs: 2132; algorithm: (JohT) inputPerKernelValue Transposed Inner&amp;OuterLoopUnrolled" role="graphics-symbol" aria-roledescription="bar" d="M0,181.9L45.2,181.9C47.407660097976006,181.9,49.2,183.692339902024,49.2,185.9L49.2,194.1C49.2,196.307660097976,47.407660097976006,198.1,45.2,198.1L0,198.1C0,198.1,0,198.1,0,198.1L0,181.9C0,181.9,0,181.9,0,181.9Z" fill="#4c78a8"/><path aria-label="mean execution time in µs: 2179; algorithm: (JohT) inputPerKernelValue Transposed LoopFission" role="graphics-symbol" aria-roledescription="bar" d="M0,201.9L46.284615384615385,201.9C48.49227548259139,201.9,50.284615384615385,203.692339902024,50.284615384615385,205.9L50.284615384615385,214.1C50.284615384615385,216.307660097976,48.49227548259139,218.1,46.284615384615385,218.1L0,218.1C0,218.1,0,218.1,0,218.1L0,201.9C0,201.9,0,201.9,0,201.9Z" fill="#4c78a8"/><path aria-label="mean execution time in µs: 1997; algorithm: (JohT) inputPerKernelValue Transposed LoopFissionIndexArithmetic" role="graphics-symbol" aria-roledescription="bar" d="M0,141.9L42.08461538461539,141.9C44.29227548259139,141.9,46.08461538461539,143.692339902024,46.08461538461539,145.9L46.08461538461539,154.1C46.08461538461539,156.307660097976,44.29227548259139,158.1,42.08461538461539,158.1L0,158.1C0,158.1,0,158.1,0,158.1L0,141.9C0,141.9,0,141.9,0,141.9Z" fill="#4c78a8"/><path aria-label="mean execution time in µs: 1650; algorithm: (JohT) kernelPerInputValue Transposed LoopFission" role="graphics-symbol" aria-roledescription="bar" d="M0,121.9L34.07692307692307,121.9C36.284583174899076,121.9,38.07692307692307,123.692339902024,38.07692307692307,125.9L38.07692307692307,134.1C38.07692307692307,136.307660097976,36.284583174899076,138.1,34.07692307692307,138.1L0,138.1C0,138.1,0,138.1,0,138.1L0,121.9C0,121.9,0,121.9,0,121.9Z" fill="#4c78a8"/><path aria-label="mean execution time in µs: 722; algorithm: (matlab-like) conv 'full' shape" role="graphics-symbol" aria-roledescription="bar" d="M0,1.9L12.661538461538463,1.9C14.869198559514462,1.9,16.661538461538463,3.692339902024,16.661538461538463,5.9L16.661538461538463,14.099999999999998C16.661538461538463,16.307660097975997,14.869198559514462,18.099999999999998,12.661538461538463,18.099999999999998L0,18.099999999999998C0,18.099999999999998,0,18.099999999999998,0,18.099999999999998L0,1.9C0,1.9,0,1.9,0,1.9Z" fill="#4c78a8"/><path aria-label="mean execution time in µs: 12711; algorithm: (matlab-like) conv 'valid' shape pre padded" role="graphics-symbol" aria-roledescription="bar" d="M0,281.9L289.3307692307692,281.9C291.53842932874517,281.9,293.3307692307692,283.692339902024,293.3307692307692,285.9L293.3307692307692,294.09999999999997C293.3307692307692,296.30766009797594,291.53842932874517,298.09999999999997,289.3307692307692,298.09999999999997L0,298.09999999999997C0,298.09999999999997,0,298.09999999999997,0,298.09999999999997L0,281.9C0,281.9,0,281.9,0,281.9Z" fill="#4c78a8"/><path aria-label="mean execution time in µs: 1045; algorithm: (wilczek) Single" role="graphics-symbol" aria-roledescription="bar" d="M0,81.9L20.115384615384617,81.9C22.323044713360616,81.9,24.115384615384617,83.692339902024,24.115384615384617,85.9L24.115384615384617,94.10000000000001C24.115384615384617,96.30766009797601,22.323044713360616,98.10000000000001,20.115384615384617,98.10000000000001L0,98.10000000000001C0,98.10000000000001,0,98.10000000000001,0,98.10000000000001L0,81.9C0,81.9,0,81.9,0,81.9Z" fill="#4c78a8"/><path aria-label="mean execution time in µs: 2904; algorithm: (wilczek) Inner-Loop Vectorization" role="graphics-symbol" aria-roledescription="bar" d="M0,221.9L63.01538461538462,221.9C65.22304471336062,221.9,67.01538461538462,223.692339902024,67.01538461538462,225.9L67.01538461538462,234.1C67.01538461538462,236.307660097976,65.22304471336062,238.1,63.01538461538462,238.1L0,238.1C0,238.1,0,238.1,0,238.1L0,221.9C0,221.9,0,221.9,0,221.9Z" fill="#4c78a8"/><path aria-label="mean execution time in µs: 4063; algorithm: (wilczek) Outer-Loop Vectorization" role="graphics-symbol" aria-roledescription="bar" d="M0,241.9L89.76153846153846,241.9C91.96919855951447,241.9,93.76153846153846,243.692339902024,93.76153846153846,245.9L93.76153846153846,254.10000000000002C93.76153846153846,256.307660097976,91.96919855951447,258.1,89.76153846153846,258.1L0,258.1C0,258.1,0,258.1,0,258.1L0,241.9C0,241.9,0,241.9,0,241.9Z" fill="#4c78a8"/><path aria-label="mean execution time in µs: 2061; algorithm: (wilczek) Outer- and Inner-Loop Vectorization" role="graphics-symbol" aria-roledescription="bar" d="M0,161.9L43.56153846153846,161.9C45.769198559514464,161.9,47.56153846153846,163.692339902024,47.56153846153846,165.9L47.56153846153846,174.1C47.56153846153846,176.307660097976,45.769198559514464,178.1,43.56153846153846,178.1L0,178.1C0,178.1,0,178.1,0,178.1L0,161.9C0,161.9,0,161.9,0,161.9Z" fill="#4c78a8"/><path aria-label="mean execution time in µs: 1015; algorithm: (chaowang15) convolve1D" role="graphics-symbol" aria-roledescription="bar" d="M0,41.9L19.42307692307692,41.9C21.63073702105292,41.9,23.42307692307692,43.692339902023996,23.42307692307692,45.9L23.42307692307692,54.099999999999994C23.42307692307692,56.307660097976,21.63073702105292,58.099999999999994,19.42307692307692,58.099999999999994L0,58.099999999999994C0,58.099999999999994,0,58.099999999999994,0,58.099999999999994L0,41.9C0,41.9,0,41.9,0,41.9Z" fill="#4c78a8"/></g><g class="mark-text role-mark child_layer_1_marks" role="graphics-object" aria-roledescription="text mark container"><text aria-label="mean execution time in µs: 1032; algorithm: (JohT) kernelPerInputValue Transposed; MeanExecutionTime: 1032" role="graphics-symbol" aria-roledescription="text mark" text-anchor="start" transform="translate(27.815384615384616,73)" font-family="sans-serif" font-size="9px" fill="black">1032</text><text aria-label="mean execution time in µs: 816; algorithm: (JohT) inputPerKernelValue Transposed; MeanExecutionTime: 816" role="graphics-symbol" aria-roledescription="text mark" text-anchor="start" transform="translate(22.83076923076923,33)" font-family="sans-serif" font-size="9px" fill="black">816</text><text aria-label="mean execution time in µs: 8794; algorithm: (JohT) inputPerKernelValue Transposed InnerLoopUnrolled; MeanExecutionTime: 8794" role="graphics-symbol" aria-roledescription="text mark" text-anchor="start" transform="translate(206.93846153846152,273)" font-family="sans-serif" font-size="9px" fill="black">8794</text><text aria-label="mean execution time in µs: 1183; algorithm: (JohT) inputPerKernelValue Transposed OuterLoopUnrolled; MeanExecutionTime: 1183" role="graphics-symbol" aria-roledescription="text mark" text-anchor="start" transform="translate(31.3,113)" font-family="sans-serif" font-size="9px" fill="black">1183</text><text aria-label="mean execution time in µs: 2132; algorithm: (JohT) inputPerKernelValue Transposed Inner&amp;OuterLoopUnrolled; MeanExecutionTime: 2132" role="graphics-symbol" aria-roledescription="text mark" text-anchor="start" transform="translate(53.2,193)" font-family="sans-serif" font-size="9px" fill="black">2132</text><text aria-label="mean execution time in µs: 2179; algorithm: (JohT) inputPerKernelValue Transposed LoopFission; MeanExecutionTime: 2179" role="graphics-symbol" aria-roledescription="text mark" text-anchor="start" transform="translate(54.284615384615385,213)" font-family="sans-serif" font-size="9px" fill="black">2179</text><text aria-label="mean execution time in µs: 1997; algorithm: (JohT) inputPerKernelValue Transposed LoopFissionIndexArithmetic; MeanExecutionTime: 1997" role="graphics-symbol" aria-roledescription="text mark" text-anchor="start" transform="translate(50.08461538461539,153)" font-family="sans-serif" font-size="9px" fill="black">1997</text><text aria-label="mean execution time in µs: 1650; algorithm: (JohT) kernelPerInputValue Transposed LoopFission; MeanExecutionTime: 1650" role="graphics-symbol" aria-roledescription="text mark" text-anchor="start" transform="translate(42.07692307692307,133)" font-family="sans-serif" font-size="9px" fill="black">1650</text><text aria-label="mean execution time in µs: 722; algorithm: (matlab-like) conv 'full' shape; MeanExecutionTime: 722" role="graphics-symbol" aria-roledescription="text mark" text-anchor="start" transform="translate(20.661538461538463,13)" font-family="sans-serif" font-size="9px" fill="black">722</text><text aria-label="mean execution time in µs: 12711; algorithm: (matlab-like) conv 'valid' shape pre padded; MeanExecutionTime: 12711" role="graphics-symbol" aria-roledescription="text mark" text-anchor="start" transform="translate(297.3307692307692,293)" font-family="sans-serif" font-size="9px" fill="black">12711</text><text aria-label="mean execution time in µs: 1045; algorithm: (wilczek) Single; MeanExecutionTime: 1045" role="graphics-symbol" aria-roledescription="text mark" text-anchor="start" transform="translate(28.115384615384617,93)" font-family="sans-serif" font-size="9px" fill="black">1045</text><text aria-label="mean execution time in µs: 2904; algorithm: (wilczek) Inner-Loop Vectorization; MeanExecutionTime: 2904" role="graphics-symbol" aria-roledescription="text mark" text-anchor="start" transform="translate(71.01538461538462,233)" font-family="sans-serif" font-size="9px" fill="black">2904</text><text aria-label="mean execution time in µs: 4063; algorithm: (wilczek) Outer-Loop Vectorization; MeanExecutionTime: 4063" role="graphics-symbol" aria-roledescription="text mark" text-anchor="start" transform="translate(97.76153846153846,253)" font-family="sans-serif" font-size="9px" fill="black">4063</text><text aria-label="mean execution time in µs: 2061; algorithm: (wilczek) Outer- and Inner-Loop Vectorization; MeanExecutionTime: 2061" role="graphics-symbol" aria-roledescription="text mark" text-anchor="start" transform="translate(51.56153846153846,173)" font-family="sans-serif" font-size="9px" fill="black">2061</text><text aria-label="mean execution time in µs: 1015; algorithm: (chaowang15) convolve1D; MeanExecutionTime: 1015" role="graphics-symbol" aria-roledescription="text mark" text-anchor="start" transform="translate(27.42307692307692,53)" font-family="sans-serif" font-size="9px" fill="black">1015</text></g></g><path class="foreground" aria-hidden="true" d="" display="none"/></g></g></g><path class="foreground" aria-hidden="true" d="" display="none"/></g></g></g></svg>