<svg xmlns="http://www.w3.org/2000/svg" xmlns:xlink="http://www.w3.org/1999/xlink" version="1.1" class="marks" width="1664" height="404" viewBox="0 0 1664 404"><rect width="1664" height="404" fill="white"/><g fill="none" stroke-miterlimit="10" transform="translate(509,66)"><g class="mark-group role-frame root" role="graphics-object" aria-roledescription="group mark container"><g transform="translate(0,0)"><path class="background" aria-hidden="true" d="M0,0h0v0h0Z"/><g><g class="mark-group role-column-title column-title" role="graphics-object" aria-roledescription="group mark container"><g transform="translate(323,-35)"><path class="background" aria-hidden="true" d="M0,0h0v0h0Z"/><g><g class="mark-group role-title"><g transform="translate(0,-26)"><path class="background" aria-hidden="true" d="M0,0h0v0h0Z" pointer-events="none"/><g><g class="mark-text role-title-text" role="graphics-symbol" aria-roledescription="title" aria-label="Title text 'Convolution Benchmarks'" pointer-events="none"><text text-anchor="middle" transform="translate(0,13)" font-family="sans-serif" font-size="16px" font-weight="bold" fill="#000" opacity="1">Convolution Benchmarks</text></g></g><path class="foreground" aria-hidden="true" d="" pointer-events="none" display="none"/></g></g></g><path class="foreground" aria-hidden="true" d="" display="none"/></g></g><g class="mark-group role-column-header column_header" role="graphics-object" aria-roledescription="group mark container"><g transform="translate(0,-1)"><path class="background" aria-hidden="true" d="M0,0h300v0h-300Z"/><g><g class="mark-group role-title"><g transform="translate(150,-24)"><path class="background" aria-hidden="true" d="M0,0h0v0h0Z" pointer-events="none"/><g><g class="mark-text role-title-text" role="graphics-symbol" aria-roledescription="title" aria-label="Title text 'kernel size 16'" pointer-events="none"><text text-anchor="middle" transform="translate(0,11)" font-family="sans-serif" font-size="14px" fill="#000" opacity="1">kernel size 16</text></g></g><path class="foreground" aria-hidden="true" d="" pointer-events="none" display="none"/></g></g></g><path class="foreground" aria-hidden="true" d="" display="none"/></g><g transform="translate(826,-1)"><path class="background" aria-hidden="true" d="M0,0h300v0h-300Z"/><g><g class="mark-group role-title"><g transform="translate(150,-24)"><path class="background" aria-hidden="true" d="M0,0h0v0h0Z" pointer-events="none"/><g><g class="mark-text role-title-text" role="graphics-symbol" aria-roledescription="title" aria-label="Title text 'kernel size 512'" pointer-events="none"><text text-anchor="middle" transform="translate(0,11)" font-family="sans-serif" font-size="14px" fill="#000" opacity="1">kernel size 512</text></g></g><path class="foreground" aria-hidden="true" d="" pointer-events="none" display="none"/></g></g></g><path class="foreground" aria-hidden="true" d="" display="none"/></g></g><g class="mark-group role-scope cell" role="graphics-object" aria-roledescription="group mark container"><g transform="translate(0,0)"><path class="background" aria-hidden="true" d="M0.5,0.5h300v300h-300Z" stroke="#ddd"/><g><g class="mark-group role-axis" aria-hidden="true"><g transform="translate(0.5,300.5)"><path class="background" aria-hidden="true" d="M0,0h0v0h0Z" pointer-events="none"/><g><g class="mark-rule role-axis-grid" pointer-events="none"><line transform="translate(0,0)" x2="0" y2="-300" stroke="#ddd" stroke-width="1" opacity="1"/><line transform="translate(38,0)" x2="0" y2="-300" stroke="#ddd" stroke-width="1" opacity="1"/><line transform="translate(75,0)" x2="0" y2="-300" stroke="#ddd" stroke-width="1" opacity="1"/><line transform="translate(113,0)" x2="0" y2="-300" stroke="#ddd" stroke-width="1" opacity="1"/><line transform="translate(150,0)" x2="0" y2="-300" stroke="#ddd" stroke-width="1" opacity="1"/><line transform="translate(188,0)" x2="0" y2="-300" stroke="#ddd" stroke-width="1" opacity="1"/><line transform="translate(225,0)" x2="0" y2="-300" stroke="#ddd" stroke-width="1" opacity="1"/><line transform="translate(263,0)" x2="0" y2="-300" stroke="#ddd" stroke-width="1" opacity="1"/><line transform="translate(300,0)" x2="0" y2="-300" stroke="#ddd" stroke-width="1" opacity="1"/></g></g><path class="foreground" aria-hidden="true" d="" pointer-events="none" display="none"/></g></g><g class="mark-group role-axis" role="graphics-symbol" aria-roledescription="axis" aria-label="X-axis titled 'mean execution time in µs' for a linear scale with values from 0 to 400"><g transform="translate(0.5,300.5)"><path class="background" aria-hidden="true" d="M0,0h0v0h0Z" pointer-events="none"/><g><g class="mark-rule role-axis-tick" pointer-events="none"><line transform="translate(0,0)" x2="0" y2="5" stroke="#888" stroke-width="1" opacity="1"/><line transform="translate(38,0)" x2="0" y2="5" stroke="#888" stroke-width="1" opacity="1"/><line transform="translate(75,0)" x2="0" y2="5" stroke="#888" stroke-width="1" opacity="1"/><line transform="translate(113,0)" x2="0" y2="5" stroke="#888" stroke-width="1" opacity="1"/><line transform="translate(150,0)" x2="0" y2="5" stroke="#888" stroke-width="1" opacity="1"/><line transform="translate(188,0)" x2="0" y2="5" stroke="#888" stroke-width="1" opacity="1"/><line transform="translate(225,0)" x2="0" y2="5" stroke="#888" stroke-width="1" opacity="1"/><line transform="translate(263,0)" x2="0" y2="5" stroke="#888" stroke-width="1" opacity="1"/><line transform="translate(300,0)" x2="0" y2="5" stroke="#888" stroke-width="1" opacity="1"/></g><g class="mark-text role-axis-label" pointer-events="none"><text text-anchor="start" transform="translate(0,15)" font-family="sans-serif" font-size="10px" fill="#000" opacity="1">0</text><text text-anchor="middle" transform="translate(37.5,15)" font-family="sans-serif" font-size="10px" fill="#000" opacity="1">50</text><text text-anchor="middle" transform="translate(75,15)" font-family="sans-serif" font-size="10px" fill="#000" opacity="1">100</text><text text-anchor="middle" transform="translate(112.5,15)" font-family="sans-serif" font-size="10px" fill="#000" opacity="1">150</text><text text-anchor="middle" transform="translate(150,15)" font-family="sans-serif" font-size="10px" fill="#000" opacity="1">200</text><text text-anchor="middle" transform="translate(187.5,15)" font-family="sans-serif" font-size="10px" fill="#000" opacity="1">250</text><text text-anchor="middle" transform="translate(225,15)" font-family="sans-serif" font-size="10px" fill="#000" opacity="1">300</text><text text-anchor="middle" transform="translate(262.5,15)" font-family="sans-serif" font-size="10px" fill="#000" opacity="1">350</text><text text-anchor="end" transform="translate(300,15)" font-family="sans-serif" font-size="10px" fill="#000" opacity="1">400</text></g><g class="mark-rule role-axis-domain" pointer-events="none"><line transform="translate(0,0)" x2="300" y2="0" stroke="#888" stroke-width="1" opacity="1"/></g><g class="mark-text role-axis-title" pointer-events="none"><text text-anchor="middle" transform="translate(150,30)" font-family="sans-serif" font-size="11px" font-weight="bold" fill="#000" opacity="1">mean execution time in µs</text></g></g><path class="foreground" aria-hidden="true" d="" pointer-events="none" display="none"/></g></g><g class="mark-group role-axis" role="graphics-symbol" aria-roledescription="axis" aria-label="Y-axis titled 'algorithm' for a discrete scale with 15 values: (JohT) inputPerKernelValue Transposed, (JohT) inputPerKernelValue Transposed OuterLoopUnrolled, (chaowang15) convolve1D, (JohT) inputPerKernelValue Transposed LoopFissionIndexArithmetic, (JohT) kernelPerInputValue Transposed, ending with (JohT) inputPerKernelValue Transposed InnerLoopUnrolled"><g transform="translate(0.5,0.5)"><path class="background" aria-hidden="true" d="M0,0h0v0h0Z" pointer-events="none"/><g><g class="mark-rule role-axis-tick" pointer-events="none"><line transform="translate(0,10)" x2="-5" y2="0" stroke="#888" stroke-width="1" opacity="1"/><line transform="translate(0,30)" x2="-5" y2="0" stroke="#888" stroke-width="1" opacity="1"/><line transform="translate(0,50)" x2="-5" y2="0" stroke="#888" stroke-width="1" opacity="1"/><line transform="translate(0,70)" x2="-5" y2="0" stroke="#888" stroke-width="1" opacity="1"/><line transform="translate(0,90)" x2="-5" y2="0" stroke="#888" stroke-width="1" opacity="1"/><line transform="translate(0,110)" x2="-5" y2="0" stroke="#888" stroke-width="1" opacity="1"/><line transform="translate(0,130)" x2="-5" y2="0" stroke="#888" stroke-width="1" opacity="1"/><line transform="translate(0,150)" x2="-5" y2="0" stroke="#888" stroke-width="1" opacity="1"/><line transform="translate(0,170)" x2="-5" y2="0" stroke="#888" stroke-width="1" opacity="1"/><line transform="translate(0,190)" x2="-5" y2="0" stroke="#888" stroke-width="1" opacity="1"/><line transform="translate(0,210)" x2="-5" y2="0" stroke="#888" stroke-width="1" opacity="1"/><line transform="translate(0,230)" x2="-5" y2="0" stroke="#888" stroke-width="1" opacity="1"/><line transform="translate(0,250)" x2="-5" y2="0" stroke="#888" stroke-width="1" opacity="1"/><line transform="translate(0,270)" x2="-5" y2="0" stroke="#888" stroke-width="1" opacity="1"/><line transform="translate(0,290)" x2="-5" y2="0" stroke="#888" stroke-width="1" opacity="1"/></g><g class="mark-text role-axis-label" pointer-events="none"><text text-anchor="end" transform="translate(-7,12.5)" font-family="sans-serif" font-size="10px" fill="#000" opacity="1">(JohT) inputPerKernelValue Transposed</text><text text-anchor="end" transform="translate(-7,32.5)" font-family="sans-serif" font-size="10px" fill="#000" opacity="1">(JohT) inputPerKernelValue Transposed OuterLoopUnrolled</text><text text-anchor="end" transform="translate(-7,52.5)" font-family="sans-serif" font-size="10px" fill="#000" opacity="1">(chaowang15) convolve1D</text><text text-anchor="end" transform="translate(-7,72.5)" font-family="sans-serif" font-size="10px" fill="#000" opacity="1">(JohT) inputPerKernelValue Transposed LoopFissionIndexArithme…</text><text text-anchor="end" transform="translate(-7,92.5)" font-family="sans-serif" font-size="10px" fill="#000" opacity="1">(JohT) kernelPerInputValue Transposed</text><text text-anchor="end" transform="translate(-7,112.5)" font-family="sans-serif" font-size="10px" fill="#000" opacity="1">(JohT) kernelPerInputValue Transposed LoopFission</text><text text-anchor="end" transform="translate(-7,132.5)" font-family="sans-serif" font-size="10px" fill="#000" opacity="1">(matlab-like) conv 'full' shape</text><text text-anchor="end" transform="translate(-7,152.5)" font-family="sans-serif" font-size="10px" fill="#000" opacity="1">(wilczek) Inner-Loop Vectorization</text><text text-anchor="end" transform="translate(-7,172.5)" font-family="sans-serif" font-size="10px" fill="#000" opacity="1">(wilczek) Outer- and Inner-Loop Vectorization</text><text text-anchor="end" transform="translate(-7,192.5)" font-family="sans-serif" font-size="10px" fill="#000" opacity="1">(JohT) inputPerKernelValue Transposed Inner&amp;OuterLoopUnrolled</text><text text-anchor="end" transform="translate(-7,212.5)" font-family="sans-serif" font-size="10px" fill="#000" opacity="1">(JohT) inputPerKernelValue Transposed LoopFission</text><text text-anchor="end" transform="translate(-7,232.5)" font-family="sans-serif" font-size="10px" fill="#000" opacity="1">(wilczek) Single</text><text text-anchor="end" transform="translate(-7,252.5)" font-family="sans-serif" font-size="10px" fill="#000" opacity="1">(matlab-like) conv 'valid' shape pre padded</text><text text-anchor="end" transform="translate(-7,272.5)" font-family="sans-serif" font-size="10px" fill="#000" opacity="1">(wilczek) Outer-Loop Vectorization</text><text text-anchor="end" transform="translate(-7,292.5)" font-family="sans-serif" font-size="10px" fill="#000" opacity="1">(JohT) inputPerKernelValue Transposed InnerLoopUnrolled</text></g><g class="mark-rule role-axis-domain" pointer-events="none"><line transform="translate(0,0)" x2="0" y2="300" stroke="#888" stroke-width="1" opacity="1"/></g><g class="mark-text role-axis-title" pointer-events="none"><text text-anchor="middle" transform="translate(-320,150) rotate(-90) translate(0,-2)" font-family="sans-serif" font-size="11px" font-weight="bold" fill="#000" opacity="1">algorithm</text></g></g><path class="foreground" aria-hidden="true" d="" pointer-events="none" display="none"/></g></g><g class="mark-rect role-mark child_layer_0_marks" role="graphics-object" aria-roledescription="rect mark container"><path aria-label="mean execution time in µs: 72; algorithm: (JohT) kernelPerInputValue Transposed" role="graphics-symbol" aria-roledescription="bar" d="M0,81.9L50,81.9C52.207660097976,81.9,54,83.692339902024,54,85.9L54,94.10000000000001C54,96.30766009797601,52.207660097976,98.10000000000001,50,98.10000000000001L0,98.10000000000001C0,98.10000000000001,0,98.10000000000001,0,98.10000000000001L0,81.9C0,81.9,0,81.9,0,81.9Z" fill="#4c78a8"/><path aria-label="mean execution time in µs: 24; algorithm: (JohT) inputPerKernelValue Transposed" role="graphics-symbol" aria-roledescription="bar" d="M0,1.9L14,1.9C16.207660097976,1.9,18,3.692339902024,18,5.9L18,14.099999999999998C18,16.307660097975997,16.207660097976,18.099999999999998,14,18.099999999999998L0,18.099999999999998C0,18.099999999999998,0,18.099999999999998,0,18.099999999999998L0,1.9C0,1.9,0,1.9,0,1.9Z" fill="#4c78a8"/><path aria-label="mean execution time in µs: 356; algorithm: (JohT) inputPerKernelValue Transposed InnerLoopUnrolled" role="graphics-symbol" aria-roledescription="bar" d="M0,281.9L263,281.9C265.207660097976,281.9,267,283.692339902024,267,285.9L267,294.09999999999997C267,296.30766009797594,265.207660097976,298.09999999999997,263,298.09999999999997L0,298.09999999999997C0,298.09999999999997,0,298.09999999999997,0,298.09999999999997L0,281.9C0,281.9,0,281.9,0,281.9Z" fill="#4c78a8"/><path aria-label="mean execution time in µs: 27; algorithm: (JohT) inputPerKernelValue Transposed OuterLoopUnrolled" role="graphics-symbol" aria-roledescription="bar" d="M0,21.9L16.25,21.9C18.457660097976,21.9,20.25,23.692339902024,20.25,25.9L20.25,34.099999999999994C20.25,36.307660097976,18.457660097976,38.099999999999994,16.25,38.099999999999994L0,38.099999999999994C0,38.099999999999994,0,38.099999999999994,0,38.099999999999994L0,21.9C0,21.9,0,21.9,0,21.9Z" fill="#4c78a8"/><path aria-label="mean execution time in µs: 84; algorithm: (JohT) inputPerKernelValue Transposed Inner&amp;OuterLoopUnrolled" role="graphics-symbol" aria-roledescription="bar" d="M0,181.9L59,181.9C61.207660097976,181.9,63,183.692339902024,63,185.9L63,194.1C63,196.307660097976,61.207660097976,198.1,59,198.1L0,198.1C0,198.1,0,198.1,0,198.1L0,181.9C0,181.9,0,181.9,0,181.9Z" fill="#4c78a8"/><path aria-label="mean execution time in µs: 104; algorithm: (JohT) inputPerKernelValue Transposed LoopFission" role="graphics-symbol" aria-roledescription="bar" d="M0,201.9L74,201.9C76.207660097976,201.9,78,203.692339902024,78,205.9L78,214.1C78,216.307660097976,76.207660097976,218.1,74,218.1L0,218.1C0,218.1,0,218.1,0,218.1L0,201.9C0,201.9,0,201.9,0,201.9Z" fill="#4c78a8"/><path aria-label="mean execution time in µs: 59; algorithm: (JohT) inputPerKernelValue Transposed LoopFissionIndexArithmetic" role="graphics-symbol" aria-roledescription="bar" d="M0,61.9L40.25,61.9C42.457660097976,61.9,44.25,63.692339902023996,44.25,65.9L44.25,74.1C44.25,76.307660097976,42.457660097976,78.1,40.25,78.1L0,78.1C0,78.1,0,78.1,0,78.1L0,61.9C0,61.9,0,61.9,0,61.9Z" fill="#4c78a8"/><path aria-label="mean execution time in µs: 74; algorithm: (JohT) kernelPerInputValue Transposed LoopFission" role="graphics-symbol" aria-roledescription="bar" d="M0,101.9L51.5,101.9C53.707660097976,101.9,55.5,103.692339902024,55.5,105.9L55.5,114.10000000000001C55.5,116.30766009797601,53.707660097976,118.10000000000001,51.5,118.10000000000001L0,118.10000000000001C0,118.10000000000001,0,118.10000000000001,0,118.10000000000001L0,101.9C0,101.9,0,101.9,0,101.9Z" fill="#4c78a8"/><path aria-label="mean execution time in µs: 74; algorithm: (matlab-like) conv 'full' shape" role="graphics-symbol" aria-roledescription="bar" d="M0,121.9L51.5,121.9C53.707660097976,121.9,55.5,123.692339902024,55.5,125.9L55.5,134.1C55.5,136.307660097976,53.707660097976,138.1,51.5,138.1L0,138.1C0,138.1,0,138.1,0,138.1L0,121.9C0,121.9,0,121.9,0,121.9Z" fill="#4c78a8"/><path aria-label="mean execution time in µs: 137; algorithm: (matlab-like) conv 'valid' shape pre padded" role="graphics-symbol" aria-roledescription="bar" d="M0,241.9L98.75000000000001,241.9C100.95766009797602,241.9,102.75000000000001,243.692339902024,102.75000000000001,245.9L102.75000000000001,254.10000000000002C102.75000000000001,256.307660097976,100.95766009797602,258.1,98.75000000000001,258.1L0,258.1C0,258.1,0,258.1,0,258.1L0,241.9C0,241.9,0,241.9,0,241.9Z" fill="#4c78a8"/><path aria-label="mean execution time in µs: 111; algorithm: (wilczek) Single" role="graphics-symbol" aria-roledescription="bar" d="M0,221.9L79.25000000000001,221.9C81.45766009797602,221.9,83.25000000000001,223.692339902024,83.25000000000001,225.9L83.25000000000001,234.1C83.25000000000001,236.307660097976,81.45766009797602,238.1,79.25000000000001,238.1L0,238.1C0,238.1,0,238.1,0,238.1L0,221.9C0,221.9,0,221.9,0,221.9Z" fill="#4c78a8"/><path aria-label="mean execution time in µs: 75; algorithm: (wilczek) Inner-Loop Vectorization" role="graphics-symbol" aria-roledescription="bar" d="M0,141.9L52.25,141.9C54.457660097976,141.9,56.25,143.692339902024,56.25,145.9L56.25,154.1C56.25,156.307660097976,54.457660097976,158.1,52.25,158.1L0,158.1C0,158.1,0,158.1,0,158.1L0,141.9C0,141.9,0,141.9,0,141.9Z" fill="#4c78a8"/><path aria-label="mean execution time in µs: 174; algorithm: (wilczek) Outer-Loop Vectorization" role="graphics-symbol" aria-roledescription="bar" d="M0,261.9L126.5,261.9C128.707660097976,261.9,130.5,263.692339902024,130.5,265.9L130.5,274.09999999999997C130.5,276.30766009797594,128.707660097976,278.09999999999997,126.5,278.09999999999997L0,278.09999999999997C0,278.09999999999997,0,278.09999999999997,0,278.09999999999997L0,261.9C0,261.9,0,261.9,0,261.9Z" fill="#4c78a8"/><path aria-label="mean execution time in µs: 82; algorithm: (wilczek) Outer- and Inner-Loop Vectorization" role="graphics-symbol" aria-roledescription="bar" d="M0,161.9L57.49999999999999,161.9C59.707660097975996,161.9,61.49999999999999,163.692339902024,61.49999999999999,165.9L61.49999999999999,174.1C61.49999999999999,176.307660097976,59.707660097975996,178.1,57.49999999999999,178.1L0,178.1C0,178.1,0,178.1,0,178.1L0,161.9C0,161.9,0,161.9,0,161.9Z" fill="#4c78a8"/><path aria-label="mean execution time in µs: 37; algorithm: (chaowang15) convolve1D" role="graphics-symbol" aria-roledescription="bar" d="M0,41.9L23.75,41.9C25.957660097976,41.9,27.75,43.692339902023996,27.75,45.9L27.75,54.099999999999994C27.75,56.307660097976,25.957660097976,58.099999999999994,23.75,58.099999999999994L0,58.099999999999994C0,58.099999999999994,0,58.099999999999994,0,58.099999999999994L0,41.9C0,41.9,0,41.9,0,41.9Z" fill="#4c78a8"/></g><g class="mark-text role-mark child_layer_1_marks" role="graphics-object" aria-roledescription="text mark container"><text aria-label="mean execution time in µs: 72; algorithm: (JohT) kernelPerInputValue Transposed; MeanExecutionTime: 72" role="graphics-symbol" aria-roledescription="text mark" text-anchor="start" transform="translate(58,93)" font-family="sans-serif" font-size="9px" fill="black">72</text><text aria-label="mean execution time in µs: 24; algorithm: (JohT) inputPerKernelValue Transposed; MeanExecutionTime: 24" role="graphics-symbol" aria-roledescription="text mark" text-anchor="start" transform="translate(22,13)" font-family="sans-serif" font-size="9px" fill="black">24</text><text aria-label="mean execution time in µs: 356; algorithm: (JohT) inputPerKernelValue Transposed InnerLoopUnrolled; MeanExecutionTime: 356" role="graphics-symbol" aria-roledescription="text mark" text-anchor="start" transform="translate(271,293)" font-family="sans-serif" font-size="9px" fill="black">356</text><text aria-label="mean execution time in µs: 27; algorithm: (JohT) inputPerKernelValue Transposed OuterLoopUnrolled; MeanExecutionTime: 27" role="graphics-symbol" aria-roledescription="text mark" text-anchor="start" transform="translate(24.25,33)" font-family="sans-serif" font-size="9px" fill="black">27</text><text aria-label="mean execution time in µs: 84; algorithm: (JohT) inputPerKernelValue Transposed Inner&amp;OuterLoopUnrolled; MeanExecutionTime: 84" role="graphics-symbol" aria-roledescription="text mark" text-anchor="start" transform="translate(67,193)" font-family="sans-serif" font-size="9px" fill="black">84</text><text aria-label="mean execution time in µs: 104; algorithm: (JohT) inputPerKernelValue Transposed LoopFission; MeanExecutionTime: 104" role="graphics-symbol" aria-roledescription="text mark" text-anchor="start" transform="translate(82,213)" font-family="sans-serif" font-size="9px" fill="black">104</text><text aria-label="mean execution time in µs: 59; algorithm: (JohT) inputPerKernelValue Transposed LoopFissionIndexArithmetic; MeanExecutionTime: 59" role="graphics-symbol" aria-roledescription="text mark" text-anchor="start" transform="translate(48.25,73)" font-family="sans-serif" font-size="9px" fill="black">59</text><text aria-label="mean execution time in µs: 74; algorithm: (JohT) kernelPerInputValue Transposed LoopFission; MeanExecutionTime: 74" role="graphics-symbol" aria-roledescription="text mark" text-anchor="start" transform="translate(59.5,113)" font-family="sans-serif" font-size="9px" fill="black">74</text><text aria-label="mean execution time in µs: 74; algorithm: (matlab-like) conv 'full' shape; MeanExecutionTime: 74" role="graphics-symbol" aria-roledescription="text mark" text-anchor="start" transform="translate(59.5,133)" font-family="sans-serif" font-size="9px" fill="black">74</text><text aria-label="mean execution time in µs: 137; algorithm: (matlab-like) conv 'valid' shape pre padded; MeanExecutionTime: 137" role="graphics-symbol" aria-roledescription="text mark" text-anchor="start" transform="translate(106.75000000000001,253)" font-family="sans-serif" font-size="9px" fill="black">137</text><text aria-label="mean execution time in µs: 111; algorithm: (wilczek) Single; MeanExecutionTime: 111" role="graphics-symbol" aria-roledescription="text mark" text-anchor="start" transform="translate(87.25000000000001,233)" font-family="sans-serif" font-size="9px" fill="black">111</text><text aria-label="mean execution time in µs: 75; algorithm: (wilczek) Inner-Loop Vectorization; MeanExecutionTime: 75" role="graphics-symbol" aria-roledescription="text mark" text-anchor="start" transform="translate(60.25,153)" font-family="sans-serif" font-size="9px" fill="black">75</text><text aria-label="mean execution time in µs: 174; algorithm: (wilczek) Outer-Loop Vectorization; MeanExecutionTime: 174" role="graphics-symbol" aria-roledescription="text mark" text-anchor="start" transform="translate(134.5,273)" font-family="sans-serif" font-size="9px" fill="black">174</text><text aria-label="mean execution time in µs: 82; algorithm: (wilczek) Outer- and Inner-Loop Vectorization; MeanExecutionTime: 82" role="graphics-symbol" aria-roledescription="text mark" text-anchor="start" transform="translate(65.5,173)" font-family="sans-serif" font-size="9px" fill="black">82</text><text aria-label="mean execution time in µs: 37; algorithm: (chaowang15) convolve1D; MeanExecutionTime: 37" role="graphics-symbol" aria-roledescription="text mark" text-anchor="start" transform="translate(31.75,53)" font-family="sans-serif" font-size="9px" fill="black">37</text></g></g><path class="foreground" aria-hidden="true" d="" display="none"/></g><g transform="translate(826,0)"><path class="background" aria-hidden="true" d="M0.5,0.5h300v300h-300Z" stroke="#ddd"/><g><g class="mark-group role-axis" aria-hidden="true"><g transform="translate(0.5,300.5)"><path class="background" aria-hidden="true" d="M0,0h0v0h0Z" pointer-events="none"/><g><g class="mark-rule role-axis-grid" pointer-events="none"><line transform="translate(0,0)" x2="0" y2="-300" stroke="#ddd" stroke-width="1" opacity="1"/><line transform="translate(43,0)" x2="0" y2="-300" stroke="#ddd" stroke-width="1" opacity="1"/><line transform="translate(86,0)" x2="0" y2="-300" stroke="#ddd" stroke-width="1" opacity="1"/><line transform="translate(129,0)" x2="0" y2="-300" stroke="#ddd" stroke-width="1" opacity="1"/><line transform="translate(171,0)" x2="0" y2="-300" stroke="#ddd" stroke-width="1" opacity="1"/><line transform="translate(214,0)" x2="0" y2="-300" stroke="#ddd" stroke-width="1" opacity="1"/><line transform="translate(257,0)" x2="0" y2="-300" stroke="#ddd" stroke-width="1" opacity="1"/><line transform="translate(300,0)" x2="0" y2="-300" stroke="#ddd" stroke-width="1" opacity="1"/></g></g><path class="foreground" aria-hidden="true" d="" pointer-events="none" display="none"/></g></g><g class="mark-group role-axis" role="graphics-symbol" aria-roledescription="axis" aria-label="X-axis titled 'mean execution time in µs' for a linear scale with values from 0 to 14,000"><g transform="translate(0.5,300.5)"><path class="background" aria-hidden="true" d="M0,0h0v0h0Z" pointer-events="none"/><g><g class="mark-rule role-axis-tick" pointer-events="none"><line transform="translate(0,0)" x2="0" y2="5" stroke="#888" stroke-width="1" opacity="1"/><line transform="translate(43,0)" x2="0" y2="5" stroke="#888" stroke-width="1" opacity="1"/><line transform="translate(86,0)" x2="0" y2="5" stroke="#888" stroke-width="1" opacity="1"/><line transform="translate(129,0)" x2="0" y2="5" stroke="#888" stroke-width="1" opacity="1"/><line transform="translate(171,0)" x2="0" y2="5" stroke="#888" stroke-width="1" opacity="1"/><line transform="translate(214,0)" x2="0" y2="5" stroke="#888" stroke-width="1" opacity="1"/><line transform="translate(257,0)" x2="0" y2="5" stroke="#888" stroke-width="1" opacity="1"/><line transform="translate(300,0)" x2="0" y2="5" stroke="#888" stroke-width="1" opacity="1"/></g><g class="mark-text role-axis-label" pointer-events="none"><text text-anchor="start" transform="translate(0,15)" font-family="sans-serif" font-size="10px" fill="#000" opacity="1">0</text><text text-anchor="middle" transform="translate(42.857142857142854,15)" font-family="sans-serif" font-size="10px" fill="#000" opacity="0">2,000</text><text text-anchor="middle" transform="translate(85.71428571428571,15)" font-family="sans-serif" font-size="10px" fill="#000" opacity="1">4,000</text><text text-anchor="middle" transform="translate(128.57142857142856,15)" font-family="sans-serif" font-size="10px" fill="#000" opacity="0">6,000</text><text text-anchor="middle" transform="translate(171.42857142857142,15)" font-family="sans-serif" font-size="10px" fill="#000" opacity="1">8,000</text><text text-anchor="middle" transform="translate(214.28571428571428,15)" font-family="sans-serif" font-size="10px" fill="#000" opacity="0">10,000</text><text text-anchor="middle" transform="translate(257.1428571428571,15)" font-family="sans-serif" font-size="10px" fill="#000" opacity="1">12,000</text><text text-anchor="end" transform="translate(300,15)" font-family="sans-serif" font-size="10px" fill="#000" opacity="0">14,000</text></g><g class="mark-rule role-axis-domain" pointer-events="none"><line transform="translate(0,0)" x2="300" y2="0" stroke="#888" stroke-width="1" opacity="1"/></g><g class="mark-text role-axis-title" pointer-events="none"><text text-anchor="middle" transform="translate(150,30)" font-family="sans-serif" font-size="11px" font-weight="bold" fill="#000" opacity="1">mean execution time in µs</text></g></g><path class="foreground" aria-hidden="true" d="" pointer-events="none" display="none"/></g></g><g class="mark-group role-axis" role="graphics-symbol" aria-roledescription="axis" aria-label="Y-axis titled 'algorithm' for a discrete scale with 15 values: (chaowang15) convolve1D, (wilczek) Single, (JohT) inputPerKernelValue Transposed, (JohT) inputPerKernelValue Transposed OuterLoopUnrolled, (JohT) kernelPerInputValue Transposed, ending with (matlab-like) conv 'valid' shape pre padded"><g transform="translate(0.5,0.5)"><path class="background" aria-hidden="true" d="M0,0h0v0h0Z" pointer-events="none"/><g><g class="mark-rule role-axis-tick" pointer-events="none"><line transform="translate(0,10)" x2="-5" y2="0" stroke="#888" stroke-width="1" opacity="1"/><line transform="translate(0,30)" x2="-5" y2="0" stroke="#888" stroke-width="1" opacity="1"/><line transform="translate(0,50)" x2="-5" y2="0" stroke="#888" stroke-width="1" opacity="1"/><line transform="translate(0,70)" x2="-5" y2="0" stroke="#888" stroke-width="1" opacity="1"/><line transform="translate(0,90)" x2="-5" y2="0" stroke="#888" stroke-width="1" opacity="1"/><line transform="translate(0,110)" x2="-5" y2="0" stroke="#888" stroke-width="1" opacity="1"/><line transform="translate(0,130)" x2="-5" y2="0" stroke="#888" stroke-width="1" opacity="1"/><line transform="translate(0,150)" x2="-5" y2="0" stroke="#888" stroke-width="1" opacity="1"/><line transform="translate(0,170)" x2="-5" y2="0" stroke="#888" stroke-width="1" opacity="1"/><line transform="translate(0,190)" x2="-5" y2="0" stroke="#888" stroke-width="1" opacity="1"/><line transform="translate(0,210)" x2="-5" y2="0" stroke="#888" stroke-width="1" opacity="1"/><line transform="translate(0,230)" x2="-5" y2="0" stroke="#888" stroke-width="1" opacity="1"/><line transform="translate(0,250)" x2="-5" y2="0" stroke="#888" stroke-width="1" opacity="1"/><line transform="translate(0,270)" x2="-5" y2="0" stroke="#888" stroke-width="1" opacity="1"/><line transform="translate(0,290)" x2="-5" y2="0" stroke="#888" stroke-width="1" opacity="1"/></g><g class="mark-text role-axis-label" pointer-events="none"><text text-anchor="end" transform="translate(-7,12.5)" font-family="sans-serif" font-size="10px" fill="#000" opacity="1">(chaowang15) convolve1D</text><text text-anchor="end" transform="translate(-7,32.5)" font-family="sans-serif" font-size="10px" fill="#000" opacity="1">(wilczek) Single</text><text text-anchor="end" transform="translate(-7,52.5)" font-family="sans-serif" font-size="10px" fill="#000" opacity="1">(JohT) inputPerKernelValue Transposed</text><text text-anchor="end" transform="translate(-7,72.5)" font-family="sans-serif" font-size="10px" fill="#000" opacity="1">(JohT) inputPerKernelValue Transposed OuterLoopUnrolled</text><text text-anchor="end" transform="translate(-7,92.5)" font-family="sans-serif" font-size="10px" fill="#000" opacity="1">(JohT) kernelPerInputValue Transposed</text><text text-anchor="end" transform="translate(-7,112.5)" font-family="sans-serif" font-size="10px" fill="#000" opacity="1">(matlab-like) conv 'full' shape</text><text text-anchor="end" transform="translate(-7,132.5)" font-family="sans-serif" font-size="10px" fill="#000" opacity="1">(JohT) kernelPerInputValue Transposed LoopFission</text><text text-anchor="end" transform="translate(-7,152.5)" font-family="sans-serif" font-size="10px" fill="#000" opacity="1">(wilczek) Outer- and Inner-Loop Vectorization</text><text text-anchor="end" transform="translate(-7,172.5)" font-family="sans-serif" font-size="10px" fill="#000" opacity="1">(JohT) inputPerKernelValue Transposed LoopFissionIndexArithme…</text><text text-anchor="end" transform="translate(-7,192.5)" font-family="sans-serif" font-size="10px" fill="#000" opacity="1">(JohT) inputPerKernelValue Transposed Inner&amp;OuterLoopUnrolled</text><text text-anchor="end" transform="translate(-7,212.5)" font-family="sans-serif" font-size="10px" fill="#000" opacity="1">(JohT) inputPerKernelValue Transposed LoopFission</text><text text-anchor="end" transform="translate(-7,232.5)" font-family="sans-serif" font-size="10px" fill="#000" opacity="1">(wilczek) Inner-Loop Vectorization</text><text text-anchor="end" transform="translate(-7,252.5)" font-family="sans-serif" font-size="10px" fill="#000" opacity="1">(wilczek) Outer-Loop Vectorization</text><text text-anchor="end" transform="translate(-7,272.5)" font-family="sans-serif" font-size="10px" fill="#000" opacity="1">(JohT) inputPerKernelValue Transposed InnerLoopUnrolled</text><text text-anchor="end" transform="translate(-7,292.5)" font-family="sans-serif" font-size="10px" fill="#000" opacity="1">(matlab-like) conv 'valid' shape pre padded</text></g><g class="mark-rule role-axis-domain" pointer-events="none"><line transform="translate(0,0)" x2="0" y2="300" stroke="#888" stroke-width="1" opacity="1"/></g><g class="mark-text role-axis-title" pointer-events="none"><text text-anchor="middle" transform="translate(-320,150) rotate(-90) translate(0,-2)" font-family="sans-serif" font-size="11px" font-weight="bold" fill="#000" opacity="1">algorithm</text></g></g><path class="foreground" aria-hidden="true" d="" pointer-events="none" display="none"/></g></g><g class="mark-rect role-mark child_layer_0_marks" role="graphics-object" aria-roledescription="rect mark container"><path aria-label="mean execution time in µs: 944; algorithm: (JohT) kernelPerInputValue Transposed" role="graphics-symbol" aria-roledescription="bar" d="M0,81.9L16.22857142857143,81.9C18.43623152654743,81.9,20.22857142857143,83.692339902024,20.22857142857143,85.9L20.22857142857143,94.10000000000001C20.22857142857143,96.30766009797601,18.43623152654743,98.10000000000001,16.22857142857143,98.10000000000001L0,98.10000000000001C0,98.10000000000001,0,98.10000000000001,0,98.10000000000001L0,81.9C0,81.9,0,81.9,0,81.9Z" fill="#4c78a8"/><path aria-label="mean execution time in µs: 865; algorithm: (JohT) inputPerKernelValue Transposed" role="graphics-symbol" aria-roledescription="bar" d="M0,41.9L14.535714285714285,41.9C16.743374383690284,41.9,18.535714285714285,43.692339902023996,18.535714285714285,45.9L18.535714285714285,54.099999999999994C18.535714285714285,56.307660097976,16.743374383690284,58.099999999999994,14.535714285714285,58.099999999999994L0,58.099999999999994C0,58.099999999999994,0,58.099999999999994,0,58.099999999999994L0,41.9C0,41.9,0,41.9,0,41.9Z" fill="#4c78a8"/><path aria-label="mean execution time in µs: 9451; algorithm: (JohT) inputPerKernelValue Transposed InnerLoopUnrolled" role="graphics-symbol" aria-roledescription="bar" d="M0,261.9L198.52142857142857,261.9C200.72908866940458,261.9,202.52142857142857,263.692339902024,202.52142857142857,265.9L202.52142857142857,274.09999999999997C202.52142857142857,276.30766009797594,200.72908866940458,278.09999999999997,198.52142857142857,278.09999999999997L0,278.09999999999997C0,278.09999999999997,0,278.09999999999997,0,278.09999999999997L0,261.9C0,261.9,0,261.9,0,261.9Z" fill="#4c78a8"/><path aria-label="mean execution time in µs: 878; algorithm: (JohT) inputPerKernelValue Transposed OuterLoopUnrolled" role="graphics-symbol" aria-roledescription="bar" d="M0,61.9L14.814285714285713,61.9C17.021945812261713,61.9,18.814285714285713,63.692339902023996,18.814285714285713,65.9L18.814285714285713,74.1C18.814285714285713,76.307660097976,17.021945812261713,78.1,14.814285714285713,78.1L0,78.1C0,78.1,0,78.1,0,78.1L0,61.9C0,61.9,0,61.9,0,61.9Z" fill="#4c78a8"/><path aria-label="mean execution time in µs: 1987; algorithm: (JohT) inputPerKernelValue Transposed Inner&amp;OuterLoopUnrolled" role="graphics-symbol" aria-roledescription="bar" d="M0,181.9L38.57857142857143,181.9C40.78623152654743,181.9,42.57857142857143,183.692339902024,42.57857142857143,185.9L42.57857142857143,194.1C42.57857142857143,196.307660097976,40.78623152654743,198.1,38.57857142857143,198.1L0,198.1C0,198.1,0,198.1,0,198.1L0,181.9C0,181.9,0,181.9,0,181.9Z" fill="#4c78a8"/><path aria-label="mean execution time in µs: 2264; algorithm: (JohT) inputPerKernelValue Transposed LoopFission" role="graphics-symbol" aria-roledescription="bar" d="M0,201.9L44.51428571428572,201.9C46.72194581226172,201.9,48.51428571428572,203.692339902024,48.51428571428572,205.9L48.51428571428572,214.1C48.51428571428572,216.307660097976,46.72194581226172,218.1,44.51428571428572,218.1L0,218.1C0,218.1,0,218.1,0,218.1L0,201.9C0,201.9,0,201.9,0,201.9Z" fill="#4c78a8"/><path aria-label="mean execution time in µs: 1980; algorithm: (JohT) inputPerKernelValue Transposed LoopFissionIndexArithmetic" role="graphics-symbol" aria-roledescription="bar" d="M0,161.9L38.42857142857143,161.9C40.636231526547434,161.9,42.42857142857143,163.692339902024,42.42857142857143,165.9L42.42857142857143,174.1C42.42857142857143,176.307660097976,40.636231526547434,178.1,38.42857142857143,178.1L0,178.1C0,178.1,0,178.1,0,178.1L0,161.9C0,161.9,0,161.9,0,161.9Z" fill="#4c78a8"/><path aria-label="mean execution time in µs: 1312; algorithm: (JohT) kernelPerInputValue Transposed LoopFission" role="graphics-symbol" aria-roledescription="bar" d="M0,121.9L24.114285714285714,121.9C26.321945812261713,121.9,28.114285714285714,123.692339902024,28.114285714285714,125.9L28.114285714285714,134.1C28.114285714285714,136.307660097976,26.321945812261713,138.1,24.114285714285714,138.1L0,138.1C0,138.1,0,138.1,0,138.1L0,121.9C0,121.9,0,121.9,0,121.9Z" fill="#4c78a8"/><path aria-label="mean execution time in µs: 1064; algorithm: (matlab-like) conv 'full' shape" role="graphics-symbol" aria-roledescription="bar" d="M0,101.9L18.8,101.9C21.007660097976,101.9,22.8,103.692339902024,22.8,105.9L22.8,114.10000000000001C22.8,116.30766009797601,21.007660097976,118.10000000000001,18.8,118.10000000000001L0,118.10000000000001C0,118.10000000000001,0,118.10000000000001,0,118.10000000000001L0,101.9C0,101.9,0,101.9,0,101.9Z" fill="#4c78a8"/><path aria-label="mean execution time in µs: 13189; algorithm: (matlab-like) conv 'valid' shape pre padded" role="graphics-symbol" aria-roledescription="bar" d="M0,281.9L278.62142857142857,281.9C280.82908866940454,281.9,282.62142857142857,283.692339902024,282.62142857142857,285.9L282.62142857142857,294.09999999999997C282.62142857142857,296.30766009797594,280.82908866940454,298.09999999999997,278.62142857142857,298.09999999999997L0,298.09999999999997C0,298.09999999999997,0,298.09999999999997,0,298.09999999999997L0,281.9C0,281.9,0,281.9,0,281.9Z" fill="#4c78a8"/><path aria-label="mean execution time in µs: 827; algorithm: (wilczek) Single" role="graphics-symbol" aria-roledescription="bar" d="M0,21.9L13.721428571428572,21.9C15.929088669404571,21.9,17.72142857142857,23.692339902024,17.72142857142857,25.9L17.72142857142857,34.099999999999994C17.72142857142857,36.307660097976,15.929088669404571,38.099999999999994,13.721428571428572,38.099999999999994L0,38.099999999999994C0,38.099999999999994,0,38.099999999999994,0,38.099999999999994L0,21.9C0,21.9,0,21.9,0,21.9Z" fill="#4c78a8"/><path aria-label="mean execution time in µs: 3124; algorithm: (wilczek) Inner-Loop Vectorization" role="graphics-symbol" aria-roledescription="bar" d="M0,221.9L62.942857142857136,221.9C65.15051724083314,221.9,66.94285714285714,223.692339902024,66.94285714285714,225.9L66.94285714285714,234.1C66.94285714285714,236.307660097976,65.15051724083314,238.1,62.942857142857136,238.1L0,238.1C0,238.1,0,238.1,0,238.1L0,221.9C0,221.9,0,221.9,0,221.9Z" fill="#4c78a8"/><path aria-label="mean execution time in µs: 3323; algorithm: (wilczek) Outer-Loop Vectorization" role="graphics-symbol" aria-roledescription="bar" d="M0,241.9L67.20714285714286,241.9C69.41480295511886,241.9,71.20714285714286,243.692339902024,71.20714285714286,245.9L71.20714285714286,254.10000000000002C71.20714285714286,256.307660097976,69.41480295511886,258.1,67.20714285714286,258.1L0,258.1C0,258.1,0,258.1,0,258.1L0,241.9C0,241.9,0,241.9,0,241.9Z" fill="#4c78a8"/><path aria-label="mean execution time in µs: 1659; algorithm: (wilczek) Outer- and Inner-Loop Vectorization" role="graphics-symbol" aria-roledescription="bar" d="M0,141.9L31.549999999999997,141.9C33.757660097976,141.9,35.55,143.692339902024,35.55,145.9L35.55,154.1C35.55,156.307660097976,33.757660097976,158.1,31.549999999999997,158.1L0,158.1C0,158.1,0,158.1,0,158.1L0,141.9C0,141.9,0,141.9,0,141.9Z" fill="#4c78a8"/><path aria-label="mean execution time in µs: 722; algorithm: (chaowang15) convolve1D" role="graphics-symbol" aria-roledescription="bar" d="M0,1.9L11.471428571428572,1.9C13.679088669404571,1.9,15.471428571428572,3.692339902024,15.471428571428572,5.9L15.471428571428572,14.099999999999998C15.471428571428572,16.307660097975997,13.679088669404571,18.099999999999998,11.471428571428572,18.099999999999998L0,18.099999999999998C0,18.099999999999998,0,18.099999999999998,0,18.099999999999998L0,1.9C0,1.9,0,1.9,0,1.9Z" fill="#4c78a8"/></g><g class="mark-text role-mark child_layer_1_marks" role="graphics-object" aria-roledescription="text mark container"><text aria-label="mean execution time in µs: 944; algorithm: (JohT) kernelPerInputValue Transposed; MeanExecutionTime: 944" role="graphics-symbol" aria-roledescription="text mark" text-anchor="start" transform="translate(24.22857142857143,93)" font-family="sans-serif" font-size="9px" fill="black">944</text><text aria-label="mean execution time in µs: 865; algorithm: (JohT) inputPerKernelValue Transposed; MeanExecutionTime: 865" role="graphics-symbol" aria-roledescription="text mark" text-anchor="start" transform="translate(22.535714285714285,53)" font-family="sans-serif" font-size="9px" fill="black">865</text><text aria-label="mean execution time in µs: 9451; algorithm: (JohT) inputPerKernelValue Transposed InnerLoopUnrolled; MeanExecutionTime: 9451" role="graphics-symbol" aria-roledescription="text mark" text-anchor="start" transform="translate(206.52142857142857,273)" font-family="sans-serif" font-size="9px" fill="black">9451</text><text aria-label="mean execution time in µs: 878; algorithm: (JohT) inputPerKernelValue Transposed OuterLoopUnrolled; MeanExecutionTime: 878" role="graphics-symbol" aria-roledescription="text mark" text-anchor="start" transform="translate(22.814285714285713,73)" font-family="sans-serif" font-size="9px" fill="black">878</text><text aria-label="mean execution time in µs: 1987; algorithm: (JohT) inputPerKernelValue Transposed Inner&amp;OuterLoopUnrolled; MeanExecutionTime: 1987" role="graphics-symbol" aria-roledescription="text mark" text-anchor="start" transform="translate(46.57857142857143,193)" font-family="sans-serif" font-size="9px" fill="black">1987</text><text aria-label="mean execution time in µs: 2264; algorithm: (JohT) inputPerKernelValue Transposed LoopFission; MeanExecutionTime: 2264" role="graphics-symbol" aria-roledescription="text mark" text-anchor="start" transform="translate(52.51428571428572,213)" font-family="sans-serif" font-size="9px" fill="black">2264</text><text aria-label="mean execution time in µs: 1980; algorithm: (JohT) inputPerKernelValue Transposed LoopFissionIndexArithmetic; MeanExecutionTime: 1980" role="graphics-symbol" aria-roledescription="text mark" text-anchor="start" transform="translate(46.42857142857143,173)" font-family="sans-serif" font-size="9px" fill="black">1980</text><text aria-label="mean execution time in µs: 1312; algorithm: (JohT) kernelPerInputValue Transposed LoopFission; MeanExecutionTime: 1312" role="graphics-symbol" aria-roledescription="text mark" text-anchor="start" transform="translate(32.114285714285714,133)" font-family="sans-serif" font-size="9px" fill="black">1312</text><text aria-label="mean execution time in µs: 1064; algorithm: (matlab-like) conv 'full' shape; MeanExecutionTime: 1064" role="graphics-symbol" aria-roledescription="text mark" text-anchor="start" transform="translate(26.8,113)" font-family="sans-serif" font-size="9px" fill="black">1064</text><text aria-label="mean execution time in µs: 13189; algorithm: (matlab-like) conv 'valid' shape pre padded; MeanExecutionTime: 13189" role="graphics-symbol" aria-roledescription="text mark" text-anchor="start" transform="translate(286.62142857142857,293)" font-family="sans-serif" font-size="9px" fill="black">13189</text><text aria-label="mean execution time in µs: 827; algorithm: (wilczek) Single; MeanExecutionTime: 827" role="graphics-symbol" aria-roledescription="text mark" text-anchor="start" transform="translate(21.72142857142857,33)" font-family="sans-serif" font-size="9px" fill="black">827</text><text aria-label="mean execution time in µs: 3124; algorithm: (wilczek) Inner-Loop Vectorization; MeanExecutionTime: 3124" role="graphics-symbol" aria-roledescription="text mark" text-anchor="start" transform="translate(70.94285714285714,233)" font-family="sans-serif" font-size="9px" fill="black">3124</text><text aria-label="mean execution time in µs: 3323; algorithm: (wilczek) Outer-Loop Vectorization; MeanExecutionTime: 3323" role="graphics-symbol" aria-roledescription="text mark" text-anchor="start" transform="translate(75.20714285714286,253)" font-family="sans-serif" font-size="9px" fill="black">3323</text><text aria-label="mean execution time in µs: 1659; algorithm: (wilczek) Outer- and Inner-Loop Vectorization; MeanExecutionTime: 1659" role="graphics-symbol" aria-roledescription="text mark" text-anchor="start" transform="translate(39.55,153)" font-family="sans-serif" font-size="9px" fill="black">1659</text><text aria-label="mean execution time in µs: 722; algorithm: (chaowang15) convolve1D; MeanExecutionTime: 722" role="graphics-symbol" aria-roledescription="text mark" text-anchor="start" transform="translate(19.47142857142857,13)" font-family="sans-serif" font-size="9px" fill="black">722</text></g></g><path class="foreground" aria-hidden="true" d="" display="none"/></g></g></g><path class="foreground" aria-hidden="true" d="" display="none"/></g></g></g></svg>