<svg xmlns="http://www.w3.org/2000/svg" xmlns:xlink="http://www.w3.org/1999/xlink" version="1.1" class="marks" width="1677" height="404" viewBox="0 0 1677 404"><rect width="1677" height="404" fill="white"/><g fill="none" stroke-miterlimit="10" transform="translate(509,66)"><g class="mark-group role-frame root" role="graphics-object" aria-roledescription="group mark container"><g transform="translate(0,0)"><path class="background" aria-hidden="true" d="M0,0h0v0h0Z"/><g><g class="mark-group role-column-title column-title" role="graphics-object" aria-roledescription="group mark container"><g transform="translate(329,-35)"><path class="background" aria-hidden="true" d="M0,0h0v0h0Z"/><g><g class="mark-group role-title"><g transform="translate(0,-26)"><path class="background" aria-hidden="true" d="M0,0h0v0h0Z" pointer-events="none"/><g><g class="mark-text role-title-text" role="graphics-symbol" aria-roledescription="title" aria-label="Title text 'Convolution Benchmarks'" pointer-events="none"><text text-anchor="middle" transform="translate(0,13)" font-family="sans-serif" font-size="16px" font-weight="bold" fill="#000" opacity="1">Convolution Benchmarks</text></g></g><path class="foreground" aria-hidden="true" d="" pointer-events="none" display="none"/></g></g></g><path class="foreground" aria-hidden="true" d="" display="none"/></g></g><g class="mark-group role-column-header column_header" role="graphics-object" aria-roledescription="group mark container"><g transform="translate(0,-1)"><path class="background" aria-hidden="true" d="M0,0h300v0h-300Z"/><g><g class="mark-group role-title"><g transform="translate(150,-24)"><path class="background" aria-hidden="true" d="M0,0h0v0h0Z" pointer-events="none"/><g><g class="mark-text role-title-text" role="graphics-symbol" aria-roledescription="title" aria-label="Title text 'kernel size 16'" pointer-events="none"><text text-anchor="middle" transform="translate(0,11)" font-family="sans-serif" font-size="14px" fill="#000" opacity="1">kernel size 16</text></g></g><path class="foreground" aria-hidden="true" d="" pointer-events="none" display="none"/></g></g></g><path class="foreground" aria-hidden="true" d="" display="none"/></g><g transform="translate(840,-1)"><path class="background" aria-hidden="true" d="M0,0h300v0h-300Z"/><g><g class="mark-group role-title"><g transform="translate(150,-24)"><path class="background" aria-hidden="true" d="M0,0h0v0h0Z" pointer-events="none"/><g><g class="mark-text role-title-text" role="graphics-symbol" aria-roledescription="title" aria-label="Title text 'kernel size 512'" pointer-events="none"><text text-anchor="middle" transform="translate(0,11)" font-family="sans-serif" font-size="14px" fill="#000" opacity="1">kernel size 512</text></g></g><path class="foreground" aria-hidden="true" d="" pointer-events="none" display="none"/></g></g></g><path class="foreground" aria-hidden="true" d="" display="none"/></g></g><g class="mark-group role-scope cell" role="graphics-object" aria-roledescription="group mark container"><g transform="translate(0,0)"><path class="background" aria-hidden="true" d="M0.5,0.5h300v300h-300Z" stroke="#ddd"/><g><g class="mark-group role-axis" aria-hidden="true"><g transform="translate(0.5,300.5)"><path class="background" aria-hidden="true" d="M0,0h0v0h0Z" pointer-events="none"/><g><g class="mark-rule role-axis-grid" pointer-events="none"><line transform="translate(0,0)" x2="0" y2="-300" stroke="#ddd" stroke-width="1" opacity="1"/><line transform="translate(58,0)" x2="0" y2="-300" stroke="#ddd" stroke-width="1" opacity="1"/><line transform="translate(115,0)" x2="0" y2="-300" stroke="#ddd" stroke-width="1" opacity="1"/><line transform="translate(173,0)" x2="0" y2="-300" stroke="#ddd" stroke-width="1" opacity="1"/><line transform="translate(231,0)" x2="0" y2="-300" stroke="#ddd" stroke-width="1" opacity="1"/><line transform="translate(288,0)" x2="0" y2="-300" stroke="#ddd" stroke-width="1" opacity="1"/></g></g><path class="foreground" aria-hidden="true" d="" pointer-events="none" display="none"/></g></g><g class="mark-group role-axis" role="graphics-symbol" aria-roledescription="axis" aria-label="X-axis titled 'mean execution time in µs' for a linear scale with values from 0 to 260"><g transform="translate(0.5,300.5)"><path class="background" aria-hidden="true" d="M0,0h0v0h0Z" pointer-events="none"/><g><g class="mark-rule role-axis-tick" pointer-events="none"><line transform="translate(0,0)" x2="0" y2="5" stroke="#888" stroke-width="1" opacity="1"/><line transform="translate(58,0)" x2="0" y2="5" stroke="#888" stroke-width="1" opacity="1"/><line transform="translate(115,0)" x2="0" y2="5" stroke="#888" stroke-width="1" opacity="1"/><line transform="translate(173,0)" x2="0" y2="5" stroke="#888" stroke-width="1" opacity="1"/><line transform="translate(231,0)" x2="0" y2="5" stroke="#888" stroke-width="1" opacity="1"/><line transform="translate(288,0)" x2="0" y2="5" stroke="#888" stroke-width="1" opacity="1"/></g><g class="mark-text role-axis-label" pointer-events="none"><text text-anchor="start" transform="translate(0,15)" font-family="sans-serif" font-size="10px" fill="#000" opacity="1">0</text><text text-anchor="middle" transform="translate(57.69230769230769,15)" font-family="sans-serif" font-size="10px" fill="#000" opacity="1">50</text><text text-anchor="middle" transform="translate(115.38461538461539,15)" font-family="sans-serif" font-size="10px" fill="#000" opacity="1">100</text><text text-anchor="middle" transform="translate(173.07692307692307,15)" font-family="sans-serif" font-size="10px" fill="#000" opacity="1">150</text><text text-anchor="middle" transform="translate(230.76923076923077,15)" font-family="sans-serif" font-size="10px" fill="#000" opacity="1">200</text><text text-anchor="middle" transform="translate(288.46153846153845,15)" font-family="sans-serif" font-size="10px" fill="#000" opacity="1">250</text></g><g class="mark-rule role-axis-domain" pointer-events="none"><line transform="translate(0,0)" x2="300" y2="0" stroke="#888" stroke-width="1" opacity="1"/></g><g class="mark-text role-axis-title" pointer-events="none"><text text-anchor="middle" transform="translate(150,30)" font-family="sans-serif" font-size="11px" font-weight="bold" fill="#000" opacity="1">mean execution time in µs</text></g></g><path class="foreground" aria-hidden="true" d="" pointer-events="none" display="none"/></g></g><g class="mark-group role-axis" role="graphics-symbol" aria-roledescription="axis" aria-label="Y-axis titled 'algorithm' for a discrete scale with 15 values: (JohT) inputPerKernelValue Transposed, (JohT) inputPerKernelValue Transposed OuterLoopUnrolled, (chaowang15) convolve1D, (JohT) inputPerKernelValue Transposed Inner&amp;OuterLoopUnrolled, (wilczek) Outer- and Inner-Loop Vectorization, ending with (JohT) inputPerKernelValue Transposed InnerLoopUnrolled"><g transform="translate(0.5,0.5)"><path class="background" aria-hidden="true" d="M0,0h0v0h0Z" pointer-events="none"/><g><g class="mark-rule role-axis-tick" pointer-events="none"><line transform="translate(0,10)" x2="-5" y2="0" stroke="#888" stroke-width="1" opacity="1"/><line transform="translate(0,30)" x2="-5" y2="0" stroke="#888" stroke-width="1" opacity="1"/><line transform="translate(0,50)" x2="-5" y2="0" stroke="#888" stroke-width="1" opacity="1"/><line transform="translate(0,70)" x2="-5" y2="0" stroke="#888" stroke-width="1" opacity="1"/><line transform="translate(0,90)" x2="-5" y2="0" stroke="#888" stroke-width="1" opacity="1"/><line transform="translate(0,110)" x2="-5" y2="0" stroke="#888" stroke-width="1" opacity="1"/><line transform="translate(0,130)" x2="-5" y2="0" stroke="#888" stroke-width="1" opacity="1"/><line transform="translate(0,150)" x2="-5" y2="0" stroke="#888" stroke-width="1" opacity="1"/><line transform="translate(0,170)" x2="-5" y2="0" stroke="#888" stroke-width="1" opacity="1"/><line transform="translate(0,190)" x2="-5" y2="0" stroke="#888" stroke-width="1" opacity="1"/><line transform="translate(0,210)" x2="-5" y2="0" stroke="#888" stroke-width="1" opacity="1"/><line transform="translate(0,230)" x2="-5" y2="0" stroke="#888" stroke-width="1" opacity="1"/><line transform="translate(0,250)" x2="-5" y2="0" stroke="#888" stroke-width="1" opacity="1"/><line transform="translate(0,270)" x2="-5" y2="0" stroke="#888" stroke-width="1" opacity="1"/><line transform="translate(0,290)" x2="-5" y2="0" stroke="#888" stroke-width="1" opacity="1"/></g><g class="mark-text role-axis-label" pointer-events="none"><text text-anchor="end" transform="translate(-7,12.5)" font-family="sans-serif" font-size="10px" fill="#000" opacity="1">(JohT) inputPerKernelValue Transposed</text><text text-anchor="end" transform="translate(-7,32.5)" font-family="sans-serif" font-size="10px" fill="#000" opacity="1">(JohT) inputPerKernelValue Transposed OuterLoopUnrolled</text><text text-anchor="end" transform="translate(-7,52.5)" font-family="sans-serif" font-size="10px" fill="#000" opacity="1">(chaowang15) convolve1D</text><text text-anchor="end" transform="translate(-7,72.5)" font-family="sans-serif" font-size="10px" fill="#000" opacity="1">(JohT) inputPerKernelValue Transposed Inner&amp;OuterLoopUnrolled</text><text text-anchor="end" transform="translate(-7,92.5)" font-family="sans-serif" font-size="10px" fill="#000" opacity="1">(wilczek) Outer- and Inner-Loop Vectorization</text><text text-anchor="end" transform="translate(-7,112.5)" font-family="sans-serif" font-size="10px" fill="#000" opacity="1">(JohT) inputPerKernelValue Transposed LoopFissionIndexArithme…</text><text text-anchor="end" transform="translate(-7,132.5)" font-family="sans-serif" font-size="10px" fill="#000" opacity="1">(JohT) inputPerKernelValue Transposed LoopFission</text><text text-anchor="end" transform="translate(-7,152.5)" font-family="sans-serif" font-size="10px" fill="#000" opacity="1">(matlab-like) conv 'full' shape</text><text text-anchor="end" transform="translate(-7,172.5)" font-family="sans-serif" font-size="10px" fill="#000" opacity="1">(wilczek) Inner-Loop Vectorization</text><text text-anchor="end" transform="translate(-7,192.5)" font-family="sans-serif" font-size="10px" fill="#000" opacity="1">(JohT) kernelPerInputValue Transposed LoopFission</text><text text-anchor="end" transform="translate(-7,212.5)" font-family="sans-serif" font-size="10px" fill="#000" opacity="1">(JohT) kernelPerInputValue Transposed</text><text text-anchor="end" transform="translate(-7,232.5)" font-family="sans-serif" font-size="10px" fill="#000" opacity="1">(wilczek) Outer-Loop Vectorization</text><text text-anchor="end" transform="translate(-7,252.5)" font-family="sans-serif" font-size="10px" fill="#000" opacity="1">(wilczek) Single</text><text text-anchor="end" transform="translate(-7,272.5)" font-family="sans-serif" font-size="10px" fill="#000" opacity="1">(matlab-like) conv 'valid' shape pre padded</text><text text-anchor="end" transform="translate(-7,292.5)" font-family="sans-serif" font-size="10px" fill="#000" opacity="1">(JohT) inputPerKernelValue Transposed InnerLoopUnrolled</text></g><g class="mark-rule role-axis-domain" pointer-events="none"><line transform="translate(0,0)" x2="0" y2="300" stroke="#888" stroke-width="1" opacity="1"/></g><g class="mark-text role-axis-title" pointer-events="none"><text text-anchor="middle" transform="translate(-320,150) rotate(-90) translate(0,-2)" font-family="sans-serif" font-size="11px" font-weight="bold" fill="#000" opacity="1">algorithm</text></g></g><path class="foreground" aria-hidden="true" d="" pointer-events="none" display="none"/></g></g><g class="mark-rect role-mark child_layer_0_marks" role="graphics-object" aria-roledescription="rect mark container"><path aria-label="mean execution time in µs: 69; algorithm: (JohT) kernelPerInputValue Transposed" role="graphics-symbol" aria-roledescription="bar" d="M0,201.9L75.61538461538461,201.9C77.82304471336062,201.9,79.61538461538461,203.692339902024,79.61538461538461,205.9L79.61538461538461,214.1C79.61538461538461,216.307660097976,77.82304471336062,218.1,75.61538461538461,218.1L0,218.1C0,218.1,0,218.1,0,218.1L0,201.9C0,201.9,0,201.9,0,201.9Z" fill="#4c78a8"/><path aria-label="mean execution time in µs: 23; algorithm: (JohT) inputPerKernelValue Transposed" role="graphics-symbol" aria-roledescription="bar" d="M0,1.9L22.53846153846154,1.9C24.74612163643754,1.9,26.53846153846154,3.692339902024,26.53846153846154,5.9L26.53846153846154,14.099999999999998C26.53846153846154,16.307660097975997,24.74612163643754,18.099999999999998,22.53846153846154,18.099999999999998L0,18.099999999999998C0,18.099999999999998,0,18.099999999999998,0,18.099999999999998L0,1.9C0,1.9,0,1.9,0,1.9Z" fill="#4c78a8"/><path aria-label="mean execution time in µs: 251; algorithm: (JohT) inputPerKernelValue Transposed InnerLoopUnrolled" role="graphics-symbol" aria-roledescription="bar" d="M0,281.9L285.61538461538464,281.9C287.8230447133606,281.9,289.61538461538464,283.692339902024,289.61538461538464,285.9L289.61538461538464,294.09999999999997C289.61538461538464,296.30766009797594,287.8230447133606,298.09999999999997,285.61538461538464,298.09999999999997L0,298.09999999999997C0,298.09999999999997,0,298.09999999999997,0,298.09999999999997L0,281.9C0,281.9,0,281.9,0,281.9Z" fill="#4c78a8"/><path aria-label="mean execution time in µs: 26; algorithm: (JohT) inputPerKernelValue Transposed OuterLoopUnrolled" role="graphics-symbol" aria-roledescription="bar" d="M0,21.9L26,21.9C28.207660097976,21.9,30,23.692339902024,30,25.9L30,34.099999999999994C30,36.307660097976,28.207660097976,38.099999999999994,26,38.099999999999994L0,38.099999999999994C0,38.099999999999994,0,38.099999999999994,0,38.099999999999994L0,21.9C0,21.9,0,21.9,0,21.9Z" fill="#4c78a8"/><path aria-label="mean execution time in µs: 51; algorithm: (JohT) inputPerKernelValue Transposed Inner&amp;OuterLoopUnrolled" role="graphics-symbol" aria-roledescription="bar" d="M0,61.9L54.84615384615385,61.9C57.05381394412985,61.9,58.84615384615385,63.692339902023996,58.84615384615385,65.9L58.84615384615385,74.1C58.84615384615385,76.307660097976,57.05381394412985,78.1,54.84615384615385,78.1L0,78.1C0,78.1,0,78.1,0,78.1L0,61.9C0,61.9,0,61.9,0,61.9Z" fill="#4c78a8"/><path aria-label="mean execution time in µs: 55; algorithm: (JohT) inputPerKernelValue Transposed LoopFission" role="graphics-symbol" aria-roledescription="bar" d="M0,121.9L59.46153846153846,121.9C61.66919855951446,121.9,63.46153846153846,123.692339902024,63.46153846153846,125.9L63.46153846153846,134.1C63.46153846153846,136.307660097976,61.66919855951446,138.1,59.46153846153846,138.1L0,138.1C0,138.1,0,138.1,0,138.1L0,121.9C0,121.9,0,121.9,0,121.9Z" fill="#4c78a8"/><path aria-label="mean execution time in µs: 54; algorithm: (JohT) inputPerKernelValue Transposed LoopFissionIndexArithmetic" role="graphics-symbol" aria-roledescription="bar" d="M0,101.9L58.307692307692314,101.9C60.51535240566832,101.9,62.307692307692314,103.692339902024,62.307692307692314,105.9L62.307692307692314,114.10000000000001C62.307692307692314,116.30766009797601,60.51535240566832,118.10000000000001,58.307692307692314,118.10000000000001L0,118.10000000000001C0,118.10000000000001,0,118.10000000000001,0,118.10000000000001L0,101.9C0,101.9,0,101.9,0,101.9Z" fill="#4c78a8"/><path aria-label="mean execution time in µs: 67; algorithm: (JohT) kernelPerInputValue Transposed LoopFission" role="graphics-symbol" aria-roledescription="bar" d="M0,181.9L73.30769230769229,181.9C75.5153524056683,181.9,77.30769230769229,183.692339902024,77.30769230769229,185.9L77.30769230769229,194.1C77.30769230769229,196.307660097976,75.5153524056683,198.1,73.30769230769229,198.1L0,198.1C0,198.1,0,198.1,0,198.1L0,181.9C0,181.9,0,181.9,0,181.9Z" fill="#4c78a8"/><path aria-label="mean execution time in µs: 58; algorithm: (matlab-like) conv 'full' shape" role="graphics-symbol" aria-roledescription="bar" d="M0,141.9L62.92307692307692,141.9C65.13073702105292,141.9,66.92307692307692,143.692339902024,66.92307692307692,145.9L66.92307692307692,154.1C66.92307692307692,156.307660097976,65.13073702105292,158.1,62.92307692307692,158.1L0,158.1C0,158.1,0,158.1,0,158.1L0,141.9C0,141.9,0,141.9,0,141.9Z" fill="#4c78a8"/><path aria-label="mean execution time in µs: 121; algorithm: (matlab-like) conv 'valid' shape pre padded" role="graphics-symbol" aria-roledescription="bar" d="M0,261.9L135.6153846153846,261.9C137.82304471336062,261.9,139.6153846153846,263.692339902024,139.6153846153846,265.9L139.6153846153846,274.09999999999997C139.6153846153846,276.30766009797594,137.82304471336062,278.09999999999997,135.6153846153846,278.09999999999997L0,278.09999999999997C0,278.09999999999997,0,278.09999999999997,0,278.09999999999997L0,261.9C0,261.9,0,261.9,0,261.9Z" fill="#4c78a8"/><path aria-label="mean execution time in µs: 106; algorithm: (wilczek) Single" role="graphics-symbol" aria-roledescription="bar" d="M0,241.9L118.3076923076923,241.9C120.51535240566831,241.9,122.3076923076923,243.692339902024,122.3076923076923,245.9L122.3076923076923,254.10000000000002C122.3076923076923,256.307660097976,120.51535240566831,258.1,118.3076923076923,258.1L0,258.1C0,258.1,0,258.1,0,258.1L0,241.9C0,241.9,0,241.9,0,241.9Z" fill="#4c78a8"/><path aria-label="mean execution time in µs: 65; algorithm: (wilczek) Inner-Loop Vectorization" role="graphics-symbol" aria-roledescription="bar" d="M0,161.9L71,161.9C73.207660097976,161.9,75,163.692339902024,75,165.9L75,174.1C75,176.307660097976,73.207660097976,178.1,71,178.1L0,178.1C0,178.1,0,178.1,0,178.1L0,161.9C0,161.9,0,161.9,0,161.9Z" fill="#4c78a8"/><path aria-label="mean execution time in µs: 82; algorithm: (wilczek) Outer-Loop Vectorization" role="graphics-symbol" aria-roledescription="bar" d="M0,221.9L90.61538461538461,221.9C92.82304471336062,221.9,94.61538461538461,223.692339902024,94.61538461538461,225.9L94.61538461538461,234.1C94.61538461538461,236.307660097976,92.82304471336062,238.1,90.61538461538461,238.1L0,238.1C0,238.1,0,238.1,0,238.1L0,221.9C0,221.9,0,221.9,0,221.9Z" fill="#4c78a8"/><path aria-label="mean execution time in µs: 51; algorithm: (wilczek) Outer- and Inner-Loop Vectorization" role="graphics-symbol" aria-roledescription="bar" d="M0,81.9L54.84615384615385,81.9C57.05381394412985,81.9,58.84615384615385,83.692339902024,58.84615384615385,85.9L58.84615384615385,94.10000000000001C58.84615384615385,96.30766009797601,57.05381394412985,98.10000000000001,54.84615384615385,98.10000000000001L0,98.10000000000001C0,98.10000000000001,0,98.10000000000001,0,98.10000000000001L0,81.9C0,81.9,0,81.9,0,81.9Z" fill="#4c78a8"/><path aria-label="mean execution time in µs: 32; algorithm: (chaowang15) convolve1D" role="graphics-symbol" aria-roledescription="bar" d="M0,41.9L32.92307692307693,41.9C35.13073702105293,41.9,36.92307692307693,43.692339902023996,36.92307692307693,45.9L36.92307692307693,54.099999999999994C36.92307692307693,56.307660097976,35.13073702105293,58.099999999999994,32.92307692307693,58.099999999999994L0,58.099999999999994C0,58.099999999999994,0,58.099999999999994,0,58.099999999999994L0,41.9C0,41.9,0,41.9,0,41.9Z" fill="#4c78a8"/></g><g class="mark-text role-mark child_layer_1_marks" role="graphics-object" aria-roledescription="text mark container"><text aria-label="mean execution time in µs: 69; algorithm: (JohT) kernelPerInputValue Transposed; MeanExecutionTime: 69" role="graphics-symbol" aria-roledescription="text mark" text-anchor="start" transform="translate(83.61538461538461,213)" font-family="sans-serif" font-size="9px" fill="black">69</text><text aria-label="mean execution time in µs: 23; algorithm: (JohT) inputPerKernelValue Transposed; MeanExecutionTime: 23" role="graphics-symbol" aria-roledescription="text mark" text-anchor="start" transform="translate(30.53846153846154,13)" font-family="sans-serif" font-size="9px" fill="black">23</text><text aria-label="mean execution time in µs: 251; algorithm: (JohT) inputPerKernelValue Transposed InnerLoopUnrolled; MeanExecutionTime: 251" role="graphics-symbol" aria-roledescription="text mark" text-anchor="start" transform="translate(293.61538461538464,293)" font-family="sans-serif" font-size="9px" fill="black">251</text><text aria-label="mean execution time in µs: 26; algorithm: (JohT) inputPerKernelValue Transposed OuterLoopUnrolled; MeanExecutionTime: 26" role="graphics-symbol" aria-roledescription="text mark" text-anchor="start" transform="translate(34,33)" font-family="sans-serif" font-size="9px" fill="black">26</text><text aria-label="mean execution time in µs: 51; algorithm: (JohT) inputPerKernelValue Transposed Inner&amp;OuterLoopUnrolled; MeanExecutionTime: 51" role="graphics-symbol" aria-roledescription="text mark" text-anchor="start" transform="translate(62.84615384615385,73)" font-family="sans-serif" font-size="9px" fill="black">51</text><text aria-label="mean execution time in µs: 55; algorithm: (JohT) inputPerKernelValue Transposed LoopFission; MeanExecutionTime: 55" role="graphics-symbol" aria-roledescription="text mark" text-anchor="start" transform="translate(67.46153846153845,133)" font-family="sans-serif" font-size="9px" fill="black">55</text><text aria-label="mean execution time in µs: 54; algorithm: (JohT) inputPerKernelValue Transposed LoopFissionIndexArithmetic; MeanExecutionTime: 54" role="graphics-symbol" aria-roledescription="text mark" text-anchor="start" transform="translate(66.30769230769232,113)" font-family="sans-serif" font-size="9px" fill="black">54</text><text aria-label="mean execution time in µs: 67; algorithm: (JohT) kernelPerInputValue Transposed LoopFission; MeanExecutionTime: 67" role="graphics-symbol" aria-roledescription="text mark" text-anchor="start" transform="translate(81.30769230769229,193)" font-family="sans-serif" font-size="9px" fill="black">67</text><text aria-label="mean execution time in µs: 58; algorithm: (matlab-like) conv 'full' shape; MeanExecutionTime: 58" role="graphics-symbol" aria-roledescription="text mark" text-anchor="start" transform="translate(70.92307692307692,153)" font-family="sans-serif" font-size="9px" fill="black">58</text><text aria-label="mean execution time in µs: 121; algorithm: (matlab-like) conv 'valid' shape pre padded; MeanExecutionTime: 121" role="graphics-symbol" aria-roledescription="text mark" text-anchor="start" transform="translate(143.6153846153846,273)" font-family="sans-serif" font-size="9px" fill="black">121</text><text aria-label="mean execution time in µs: 106; algorithm: (wilczek) Single; MeanExecutionTime: 106" role="graphics-symbol" aria-roledescription="text mark" text-anchor="start" transform="translate(126.3076923076923,253)" font-family="sans-serif" font-size="9px" fill="black">106</text><text aria-label="mean execution time in µs: 65; algorithm: (wilczek) Inner-Loop Vectorization; MeanExecutionTime: 65" role="graphics-symbol" aria-roledescription="text mark" text-anchor="start" transform="translate(79,173)" font-family="sans-serif" font-size="9px" fill="black">65</text><text aria-label="mean execution time in µs: 82; algorithm: (wilczek) Outer-Loop Vectorization; MeanExecutionTime: 82" role="graphics-symbol" aria-roledescription="text mark" text-anchor="start" transform="translate(98.61538461538461,233)" font-family="sans-serif" font-size="9px" fill="black">82</text><text aria-label="mean execution time in µs: 51; algorithm: (wilczek) Outer- and Inner-Loop Vectorization; MeanExecutionTime: 51" role="graphics-symbol" aria-roledescription="text mark" text-anchor="start" transform="translate(62.84615384615385,93)" font-family="sans-serif" font-size="9px" fill="black">51</text><text aria-label="mean execution time in µs: 32; algorithm: (chaowang15) convolve1D; MeanExecutionTime: 32" role="graphics-symbol" aria-roledescription="text mark" text-anchor="start" transform="translate(40.92307692307693,53)" font-family="sans-serif" font-size="9px" fill="black">32</text></g></g><path class="foreground" aria-hidden="true" d="" display="none"/></g><g transform="translate(840,0)"><path class="background" aria-hidden="true" d="M0.5,0.5h300v300h-300Z" stroke="#ddd"/><g><g class="mark-group role-axis" aria-hidden="true"><g transform="translate(0.5,300.5)"><path class="background" aria-hidden="true" d="M0,0h0v0h0Z" pointer-events="none"/><g><g class="mark-rule role-axis-grid" pointer-events="none"><line transform="translate(0,0)" x2="0" y2="-300" stroke="#ddd" stroke-width="1" opacity="1"/><line transform="translate(27,0)" x2="0" y2="-300" stroke="#ddd" stroke-width="1" opacity="1"/><line transform="translate(55,0)" x2="0" y2="-300" stroke="#ddd" stroke-width="1" opacity="1"/><line transform="translate(82,0)" x2="0" y2="-300" stroke="#ddd" stroke-width="1" opacity="1"/><line transform="translate(109,0)" x2="0" y2="-300" stroke="#ddd" stroke-width="1" opacity="1"/><line transform="translate(136,0)" x2="0" y2="-300" stroke="#ddd" stroke-width="1" opacity="1"/><line transform="translate(164,0)" x2="0" y2="-300" stroke="#ddd" stroke-width="1" opacity="1"/><line transform="translate(191,0)" x2="0" y2="-300" stroke="#ddd" stroke-width="1" opacity="1"/><line transform="translate(218,0)" x2="0" y2="-300" stroke="#ddd" stroke-width="1" opacity="1"/><line transform="translate(245,0)" x2="0" y2="-300" stroke="#ddd" stroke-width="1" opacity="1"/><line transform="translate(273,0)" x2="0" y2="-300" stroke="#ddd" stroke-width="1" opacity="1"/><line transform="translate(300,0)" x2="0" y2="-300" stroke="#ddd" stroke-width="1" opacity="1"/></g></g><path class="foreground" aria-hidden="true" d="" pointer-events="none" display="none"/></g></g><g class="mark-group role-axis" role="graphics-symbol" aria-roledescription="axis" aria-label="X-axis titled 'mean execution time in µs' for a linear scale with values from 0 to 11,000"><g transform="translate(0.5,300.5)"><path class="background" aria-hidden="true" d="M0,0h0v0h0Z" pointer-events="none"/><g><g class="mark-rule role-axis-tick" pointer-events="none"><line transform="translate(0,0)" x2="0" y2="5" stroke="#888" stroke-width="1" opacity="1"/><line transform="translate(27,0)" x2="0" y2="5" stroke="#888" stroke-width="1" opacity="1"/><line transform="translate(55,0)" x2="0" y2="5" stroke="#888" stroke-width="1" opacity="1"/><line transform="translate(82,0)" x2="0" y2="5" stroke="#888" stroke-width="1" opacity="1"/><line transform="translate(109,0)" x2="0" y2="5" stroke="#888" stroke-width="1" opacity="1"/><line transform="translate(136,0)" x2="0" y2="5" stroke="#888" stroke-width="1" opacity="1"/><line transform="translate(164,0)" x2="0" y2="5" stroke="#888" stroke-width="1" opacity="1"/><line transform="translate(191,0)" x2="0" y2="5" stroke="#888" stroke-width="1" opacity="1"/><line transform="translate(218,0)" x2="0" y2="5" stroke="#888" stroke-width="1" opacity="1"/><line transform="translate(245,0)" x2="0" y2="5" stroke="#888" stroke-width="1" opacity="1"/><line transform="translate(273,0)" x2="0" y2="5" stroke="#888" stroke-width="1" opacity="1"/><line transform="translate(300,0)" x2="0" y2="5" stroke="#888" stroke-width="1" opacity="1"/></g><g class="mark-text role-axis-label" pointer-events="none"><text text-anchor="start" transform="translate(0,15)" font-family="sans-serif" font-size="10px" fill="#000" opacity="1">0</text><text text-anchor="middle" transform="translate(27.272727272727273,15)" font-family="sans-serif" font-size="10px" fill="#000" opacity="0">1,000</text><text text-anchor="middle" transform="translate(54.54545454545455,15)" font-family="sans-serif" font-size="10px" fill="#000" opacity="1">2,000</text><text text-anchor="middle" transform="translate(81.81818181818181,15)" font-family="sans-serif" font-size="10px" fill="#000" opacity="0">3,000</text><text text-anchor="middle" transform="translate(109.0909090909091,15)" font-family="sans-serif" font-size="10px" fill="#000" opacity="1">4,000</text><text text-anchor="middle" transform="translate(136.36363636363635,15)" font-family="sans-serif" font-size="10px" fill="#000" opacity="0">5,000</text><text text-anchor="middle" transform="translate(163.63636363636363,15)" font-family="sans-serif" font-size="10px" fill="#000" opacity="1">6,000</text><text text-anchor="middle" transform="translate(190.9090909090909,15)" font-family="sans-serif" font-size="10px" fill="#000" opacity="0">7,000</text><text text-anchor="middle" transform="translate(218.1818181818182,15)" font-family="sans-serif" font-size="10px" fill="#000" opacity="1">8,000</text><text text-anchor="middle" transform="translate(245.45454545454547,15)" font-family="sans-serif" font-size="10px" fill="#000" opacity="0">9,000</text><text text-anchor="middle" transform="translate(272.7272727272727,15)" font-family="sans-serif" font-size="10px" fill="#000" opacity="1">10,000</text><text text-anchor="end" transform="translate(300,15)" font-family="sans-serif" font-size="10px" fill="#000" opacity="0">11,000</text></g><g class="mark-rule role-axis-domain" pointer-events="none"><line transform="translate(0,0)" x2="300" y2="0" stroke="#888" stroke-width="1" opacity="1"/></g><g class="mark-text role-axis-title" pointer-events="none"><text text-anchor="middle" transform="translate(150,30)" font-family="sans-serif" font-size="11px" font-weight="bold" fill="#000" opacity="1">mean execution time in µs</text></g></g><path class="foreground" aria-hidden="true" d="" pointer-events="none" display="none"/></g></g><g class="mark-group role-axis" role="graphics-symbol" aria-roledescription="axis" aria-label="Y-axis titled 'algorithm' for a discrete scale with 15 values: (chaowang15) convolve1D, (matlab-like) conv 'full' shape, (wilczek) Single, (JohT) kernelPerInputValue Transposed, (JohT) inputPerKernelValue Transposed, ending with (matlab-like) conv 'valid' shape pre padded"><g transform="translate(0.5,0.5)"><path class="background" aria-hidden="true" d="M0,0h0v0h0Z" pointer-events="none"/><g><g class="mark-rule role-axis-tick" pointer-events="none"><line transform="translate(0,10)" x2="-5" y2="0" stroke="#888" stroke-width="1" opacity="1"/><line transform="translate(0,30)" x2="-5" y2="0" stroke="#888" stroke-width="1" opacity="1"/><line transform="translate(0,50)" x2="-5" y2="0" stroke="#888" stroke-width="1" opacity="1"/><line transform="translate(0,70)" x2="-5" y2="0" stroke="#888" stroke-width="1" opacity="1"/><line transform="translate(0,90)" x2="-5" y2="0" stroke="#888" stroke-width="1" opacity="1"/><line transform="translate(0,110)" x2="-5" y2="0" stroke="#888" stroke-width="1" opacity="1"/><line transform="translate(0,130)" x2="-5" y2="0" stroke="#888" stroke-width="1" opacity="1"/><line transform="translate(0,150)" x2="-5" y2="0" stroke="#888" stroke-width="1" opacity="1"/><line transform="translate(0,170)" x2="-5" y2="0" stroke="#888" stroke-width="1" opacity="1"/><line transform="translate(0,190)" x2="-5" y2="0" stroke="#888" stroke-width="1" opacity="1"/><line transform="translate(0,210)" x2="-5" y2="0" stroke="#888" stroke-width="1" opacity="1"/><line transform="translate(0,230)" x2="-5" y2="0" stroke="#888" stroke-width="1" opacity="1"/><line transform="translate(0,250)" x2="-5" y2="0" stroke="#888" stroke-width="1" opacity="1"/><line transform="translate(0,270)" x2="-5" y2="0" stroke="#888" stroke-width="1" opacity="1"/><line transform="translate(0,290)" x2="-5" y2="0" stroke="#888" stroke-width="1" opacity="1"/></g><g class="mark-text role-axis-label" pointer-events="none"><text text-anchor="end" transform="translate(-7,12.5)" font-family="sans-serif" font-size="10px" fill="#000" opacity="1">(chaowang15) convolve1D</text><text text-anchor="end" transform="translate(-7,32.5)" font-family="sans-serif" font-size="10px" fill="#000" opacity="1">(matlab-like) conv 'full' shape</text><text text-anchor="end" transform="translate(-7,52.5)" font-family="sans-serif" font-size="10px" fill="#000" opacity="1">(wilczek) Single</text><text text-anchor="end" transform="translate(-7,72.5)" font-family="sans-serif" font-size="10px" fill="#000" opacity="1">(JohT) kernelPerInputValue Transposed</text><text text-anchor="end" transform="translate(-7,92.5)" font-family="sans-serif" font-size="10px" fill="#000" opacity="1">(JohT) inputPerKernelValue Transposed</text><text text-anchor="end" transform="translate(-7,112.5)" font-family="sans-serif" font-size="10px" fill="#000" opacity="1">(JohT) inputPerKernelValue Transposed OuterLoopUnrolled</text><text text-anchor="end" transform="translate(-7,132.5)" font-family="sans-serif" font-size="10px" fill="#000" opacity="1">(JohT) kernelPerInputValue Transposed LoopFission</text><text text-anchor="end" transform="translate(-7,152.5)" font-family="sans-serif" font-size="10px" fill="#000" opacity="1">(wilczek) Outer- and Inner-Loop Vectorization</text><text text-anchor="end" transform="translate(-7,172.5)" font-family="sans-serif" font-size="10px" fill="#000" opacity="1">(JohT) inputPerKernelValue Transposed LoopFissionIndexArithme…</text><text text-anchor="end" transform="translate(-7,192.5)" font-family="sans-serif" font-size="10px" fill="#000" opacity="1">(JohT) inputPerKernelValue Transposed Inner&amp;OuterLoopUnrolled</text><text text-anchor="end" transform="translate(-7,212.5)" font-family="sans-serif" font-size="10px" fill="#000" opacity="1">(JohT) inputPerKernelValue Transposed LoopFission</text><text text-anchor="end" transform="translate(-7,232.5)" font-family="sans-serif" font-size="10px" fill="#000" opacity="1">(wilczek) Inner-Loop Vectorization</text><text text-anchor="end" transform="translate(-7,252.5)" font-family="sans-serif" font-size="10px" fill="#000" opacity="1">(wilczek) Outer-Loop Vectorization</text><text text-anchor="end" transform="translate(-7,272.5)" font-family="sans-serif" font-size="10px" fill="#000" opacity="1">(JohT) inputPerKernelValue Transposed InnerLoopUnrolled</text><text text-anchor="end" transform="translate(-7,292.5)" font-family="sans-serif" font-size="10px" fill="#000" opacity="1">(matlab-like) conv 'valid' shape pre padded</text></g><g class="mark-rule role-axis-domain" pointer-events="none"><line transform="translate(0,0)" x2="0" y2="300" stroke="#888" stroke-width="1" opacity="1"/></g><g class="mark-text role-axis-title" pointer-events="none"><text text-anchor="middle" transform="translate(-320,150) rotate(-90) translate(0,-2)" font-family="sans-serif" font-size="11px" font-weight="bold" fill="#000" opacity="1">algorithm</text></g></g><path class="foreground" aria-hidden="true" d="" pointer-events="none" display="none"/></g></g><g class="mark-rect role-mark child_layer_0_marks" role="graphics-object" aria-roledescription="rect mark container"><path aria-label="mean execution time in µs: 686; algorithm: (JohT) kernelPerInputValue Transposed" role="graphics-symbol" aria-roledescription="bar" d="M0,61.9L14.70909090909091,61.9C16.91675100706691,61.9,18.70909090909091,63.692339902023996,18.70909090909091,65.9L18.70909090909091,74.1C18.70909090909091,76.307660097976,16.91675100706691,78.1,14.70909090909091,78.1L0,78.1C0,78.1,0,78.1,0,78.1L0,61.9C0,61.9,0,61.9,0,61.9Z" fill="#4c78a8"/><path aria-label="mean execution time in µs: 700; algorithm: (JohT) inputPerKernelValue Transposed" role="graphics-symbol" aria-roledescription="bar" d="M0,81.9L15.09090909090909,81.9C17.29856918888509,81.9,19.09090909090909,83.692339902024,19.09090909090909,85.9L19.09090909090909,94.10000000000001C19.09090909090909,96.30766009797601,17.29856918888509,98.10000000000001,15.09090909090909,98.10000000000001L0,98.10000000000001C0,98.10000000000001,0,98.10000000000001,0,98.10000000000001L0,81.9C0,81.9,0,81.9,0,81.9Z" fill="#4c78a8"/><path aria-label="mean execution time in µs: 8249; algorithm: (JohT) inputPerKernelValue Transposed InnerLoopUnrolled" role="graphics-symbol" aria-roledescription="bar" d="M0,261.9L220.97272727272727,261.9C223.18038737070327,261.9,224.97272727272727,263.692339902024,224.97272727272727,265.9L224.97272727272727,274.09999999999997C224.97272727272727,276.30766009797594,223.18038737070327,278.09999999999997,220.97272727272727,278.09999999999997L0,278.09999999999997C0,278.09999999999997,0,278.09999999999997,0,278.09999999999997L0,261.9C0,261.9,0,261.9,0,261.9Z" fill="#4c78a8"/><path aria-label="mean execution time in µs: 878; algorithm: (JohT) inputPerKernelValue Transposed OuterLoopUnrolled" role="graphics-symbol" aria-roledescription="bar" d="M0,101.9L19.945454545454545,101.9C22.153114643430545,101.9,23.945454545454545,103.692339902024,23.945454545454545,105.9L23.945454545454545,114.10000000000001C23.945454545454545,116.30766009797601,22.153114643430545,118.10000000000001,19.945454545454545,118.10000000000001L0,118.10000000000001C0,118.10000000000001,0,118.10000000000001,0,118.10000000000001L0,101.9C0,101.9,0,101.9,0,101.9Z" fill="#4c78a8"/><path aria-label="mean execution time in µs: 1751; algorithm: (JohT) inputPerKernelValue Transposed Inner&amp;OuterLoopUnrolled" role="graphics-symbol" aria-roledescription="bar" d="M0,181.9L43.75454545454545,181.9C45.96220555252145,181.9,47.75454545454545,183.692339902024,47.75454545454545,185.9L47.75454545454545,194.1C47.75454545454545,196.307660097976,45.96220555252145,198.1,43.75454545454545,198.1L0,198.1C0,198.1,0,198.1,0,198.1L0,181.9C0,181.9,0,181.9,0,181.9Z" fill="#4c78a8"/><path aria-label="mean execution time in µs: 1816; algorithm: (JohT) inputPerKernelValue Transposed LoopFission" role="graphics-symbol" aria-roledescription="bar" d="M0,201.9L45.52727272727273,201.9C47.734932825248734,201.9,49.52727272727273,203.692339902024,49.52727272727273,205.9L49.52727272727273,214.1C49.52727272727273,216.307660097976,47.734932825248734,218.1,45.52727272727273,218.1L0,218.1C0,218.1,0,218.1,0,218.1L0,201.9C0,201.9,0,201.9,0,201.9Z" fill="#4c78a8"/><path aria-label="mean execution time in µs: 1746; algorithm: (JohT) inputPerKernelValue Transposed LoopFissionIndexArithmetic" role="graphics-symbol" aria-roledescription="bar" d="M0,161.9L43.61818181818182,161.9C45.82584191615782,161.9,47.61818181818182,163.692339902024,47.61818181818182,165.9L47.61818181818182,174.1C47.61818181818182,176.307660097976,45.82584191615782,178.1,43.61818181818182,178.1L0,178.1C0,178.1,0,178.1,0,178.1L0,161.9C0,161.9,0,161.9,0,161.9Z" fill="#4c78a8"/><path aria-label="mean execution time in µs: 1242; algorithm: (JohT) kernelPerInputValue Transposed LoopFission" role="graphics-symbol" aria-roledescription="bar" d="M0,121.9L29.872727272727268,121.9C32.08038737070327,121.9,33.87272727272727,123.692339902024,33.87272727272727,125.9L33.87272727272727,134.1C33.87272727272727,136.307660097976,32.08038737070327,138.1,29.872727272727268,138.1L0,138.1C0,138.1,0,138.1,0,138.1L0,121.9C0,121.9,0,121.9,0,121.9Z" fill="#4c78a8"/><path aria-label="mean execution time in µs: 631; algorithm: (matlab-like) conv 'full' shape" role="graphics-symbol" aria-roledescription="bar" d="M0,21.9L13.20909090909091,21.9C15.41675100706691,21.9,17.20909090909091,23.692339902024,17.20909090909091,25.9L17.20909090909091,34.099999999999994C17.20909090909091,36.307660097976,15.41675100706691,38.099999999999994,13.20909090909091,38.099999999999994L0,38.099999999999994C0,38.099999999999994,0,38.099999999999994,0,38.099999999999994L0,21.9C0,21.9,0,21.9,0,21.9Z" fill="#4c78a8"/><path aria-label="mean execution time in µs: 10308; algorithm: (matlab-like) conv 'valid' shape pre padded" role="graphics-symbol" aria-roledescription="bar" d="M0,281.9L277.1272727272727,281.9C279.3349328252487,281.9,281.1272727272727,283.692339902024,281.1272727272727,285.9L281.1272727272727,294.09999999999997C281.1272727272727,296.30766009797594,279.3349328252487,298.09999999999997,277.1272727272727,298.09999999999997L0,298.09999999999997C0,298.09999999999997,0,298.09999999999997,0,298.09999999999997L0,281.9C0,281.9,0,281.9,0,281.9Z" fill="#4c78a8"/><path aria-label="mean execution time in µs: 679; algorithm: (wilczek) Single" role="graphics-symbol" aria-roledescription="bar" d="M0,41.9L14.51818181818182,41.9C16.72584191615782,41.9,18.51818181818182,43.692339902023996,18.51818181818182,45.9L18.51818181818182,54.099999999999994C18.51818181818182,56.307660097976,16.72584191615782,58.099999999999994,14.51818181818182,58.099999999999994L0,58.099999999999994C0,58.099999999999994,0,58.099999999999994,0,58.099999999999994L0,41.9C0,41.9,0,41.9,0,41.9Z" fill="#4c78a8"/><path aria-label="mean execution time in µs: 1926; algorithm: (wilczek) Inner-Loop Vectorization" role="graphics-symbol" aria-roledescription="bar" d="M0,221.9L48.52727272727273,221.9C50.734932825248734,221.9,52.52727272727273,223.692339902024,52.52727272727273,225.9L52.52727272727273,234.1C52.52727272727273,236.307660097976,50.734932825248734,238.1,48.52727272727273,238.1L0,238.1C0,238.1,0,238.1,0,238.1L0,221.9C0,221.9,0,221.9,0,221.9Z" fill="#4c78a8"/><path aria-label="mean execution time in µs: 2792; algorithm: (wilczek) Outer-Loop Vectorization" role="graphics-symbol" aria-roledescription="bar" d="M0,241.9L72.14545454545456,241.9C74.35311464343056,241.9,76.14545454545456,243.692339902024,76.14545454545456,245.9L76.14545454545456,254.10000000000002C76.14545454545456,256.307660097976,74.35311464343056,258.1,72.14545454545456,258.1L0,258.1C0,258.1,0,258.1,0,258.1L0,241.9C0,241.9,0,241.9,0,241.9Z" fill="#4c78a8"/><path aria-label="mean execution time in µs: 1409; algorithm: (wilczek) Outer- and Inner-Loop Vectorization" role="graphics-symbol" aria-roledescription="bar" d="M0,141.9L34.42727272727273,141.9C36.63493282524873,141.9,38.42727272727273,143.692339902024,38.42727272727273,145.9L38.42727272727273,154.1C38.42727272727273,156.307660097976,36.63493282524873,158.1,34.42727272727273,158.1L0,158.1C0,158.1,0,158.1,0,158.1L0,141.9C0,141.9,0,141.9,0,141.9Z" fill="#4c78a8"/><path aria-label="mean execution time in µs: 606; algorithm: (chaowang15) convolve1D" role="graphics-symbol" aria-roledescription="bar" d="M0,1.9L12.527272727272727,1.9C14.734932825248727,1.9,16.527272727272727,3.692339902024,16.527272727272727,5.9L16.527272727272727,14.099999999999998C16.527272727272727,16.307660097975997,14.734932825248727,18.099999999999998,12.527272727272727,18.099999999999998L0,18.099999999999998C0,18.099999999999998,0,18.099999999999998,0,18.099999999999998L0,1.9C0,1.9,0,1.9,0,1.9Z" fill="#4c78a8"/></g><g class="mark-text role-mark child_layer_1_marks" role="graphics-object" aria-roledescription="text mark container"><text aria-label="mean execution time in µs: 686; algorithm: (JohT) kernelPerInputValue Transposed; MeanExecutionTime: 686" role="graphics-symbol" aria-roledescription="text mark" text-anchor="start" transform="translate(22.70909090909091,73)" font-family="sans-serif" font-size="9px" fill="black">686</text><text aria-label="mean execution time in µs: 700; algorithm: (JohT) inputPerKernelValue Transposed; MeanExecutionTime: 700" role="graphics-symbol" aria-roledescription="text mark" text-anchor="start" transform="translate(23.09090909090909,93)" font-family="sans-serif" font-size="9px" fill="black">700</text><text aria-label="mean execution time in µs: 8249; algorithm: (JohT) inputPerKernelValue Transposed InnerLoopUnrolled; MeanExecutionTime: 8249" role="graphics-symbol" aria-roledescription="text mark" text-anchor="start" transform="translate(228.97272727272727,273)" font-family="sans-serif" font-size="9px" fill="black">8249</text><text aria-label="mean execution time in µs: 878; algorithm: (JohT) inputPerKernelValue Transposed OuterLoopUnrolled; MeanExecutionTime: 878" role="graphics-symbol" aria-roledescription="text mark" text-anchor="start" transform="translate(27.945454545454545,113)" font-family="sans-serif" font-size="9px" fill="black">878</text><text aria-label="mean execution time in µs: 1751; algorithm: (JohT) inputPerKernelValue Transposed Inner&amp;OuterLoopUnrolled; MeanExecutionTime: 1751" role="graphics-symbol" aria-roledescription="text mark" text-anchor="start" transform="translate(51.75454545454545,193)" font-family="sans-serif" font-size="9px" fill="black">1751</text><text aria-label="mean execution time in µs: 1816; algorithm: (JohT) inputPerKernelValue Transposed LoopFission; MeanExecutionTime: 1816" role="graphics-symbol" aria-roledescription="text mark" text-anchor="start" transform="translate(53.52727272727273,213)" font-family="sans-serif" font-size="9px" fill="black">1816</text><text aria-label="mean execution time in µs: 1746; algorithm: (JohT) inputPerKernelValue Transposed LoopFissionIndexArithmetic; MeanExecutionTime: 1746" role="graphics-symbol" aria-roledescription="text mark" text-anchor="start" transform="translate(51.61818181818182,173)" font-family="sans-serif" font-size="9px" fill="black">1746</text><text aria-label="mean execution time in µs: 1242; algorithm: (JohT) kernelPerInputValue Transposed LoopFission; MeanExecutionTime: 1242" role="graphics-symbol" aria-roledescription="text mark" text-anchor="start" transform="translate(37.87272727272727,133)" font-family="sans-serif" font-size="9px" fill="black">1242</text><text aria-label="mean execution time in µs: 631; algorithm: (matlab-like) conv 'full' shape; MeanExecutionTime: 631" role="graphics-symbol" aria-roledescription="text mark" text-anchor="start" transform="translate(21.20909090909091,33)" font-family="sans-serif" font-size="9px" fill="black">631</text><text aria-label="mean execution time in µs: 10308; algorithm: (matlab-like) conv 'valid' shape pre padded; MeanExecutionTime: 10308" role="graphics-symbol" aria-roledescription="text mark" text-anchor="start" transform="translate(285.1272727272727,293)" font-family="sans-serif" font-size="9px" fill="black">10308</text><text aria-label="mean execution time in µs: 679; algorithm: (wilczek) Single; MeanExecutionTime: 679" role="graphics-symbol" aria-roledescription="text mark" text-anchor="start" transform="translate(22.51818181818182,53)" font-family="sans-serif" font-size="9px" fill="black">679</text><text aria-label="mean execution time in µs: 1926; algorithm: (wilczek) Inner-Loop Vectorization; MeanExecutionTime: 1926" role="graphics-symbol" aria-roledescription="text mark" text-anchor="start" transform="translate(56.52727272727273,233)" font-family="sans-serif" font-size="9px" fill="black">1926</text><text aria-label="mean execution time in µs: 2792; algorithm: (wilczek) Outer-Loop Vectorization; MeanExecutionTime: 2792" role="graphics-symbol" aria-roledescription="text mark" text-anchor="start" transform="translate(80.14545454545456,253)" font-family="sans-serif" font-size="9px" fill="black">2792</text><text aria-label="mean execution time in µs: 1409; algorithm: (wilczek) Outer- and Inner-Loop Vectorization; MeanExecutionTime: 1409" role="graphics-symbol" aria-roledescription="text mark" text-anchor="start" transform="translate(42.42727272727273,153)" font-family="sans-serif" font-size="9px" fill="black">1409</text><text aria-label="mean execution time in µs: 606; algorithm: (chaowang15) convolve1D; MeanExecutionTime: 606" role="graphics-symbol" aria-roledescription="text mark" text-anchor="start" transform="translate(20.527272727272727,13)" font-family="sans-serif" font-size="9px" fill="black">606</text></g></g><path class="foreground" aria-hidden="true" d="" display="none"/></g></g></g><path class="foreground" aria-hidden="true" d="" display="none"/></g></g></g></svg>