<svg xmlns="http://www.w3.org/2000/svg" xmlns:xlink="http://www.w3.org/1999/xlink" version="1.1" class="marks" width="1480" height="404" viewBox="0 0 1480 404"><rect width="1480" height="404" fill="white"/><g fill="none" stroke-miterlimit="10" transform="translate(509,66)"><g class="mark-group role-frame root" role="graphics-object" aria-roledescription="group mark container"><g transform="translate(0,0)"><path class="background" aria-hidden="true" d="M0,0h0v0h0Z"/><g><g class="mark-group role-column-title column-title" role="graphics-object" aria-roledescription="group mark container"><g transform="translate(231,-35)"><path class="background" aria-hidden="true" d="M0,0h0v0h0Z"/><g><g class="mark-group role-title"><g transform="translate(0,-26)"><path class="background" aria-hidden="true" d="M0,0h0v0h0Z" pointer-events="none"/><g><g class="mark-text role-title-text" role="graphics-symbol" aria-roledescription="title" aria-label="Title text 'Convolution Benchmarks'" pointer-events="none"><text text-anchor="middle" transform="translate(0,13)" font-family="sans-serif" font-size="16px" font-weight="bold" fill="#000" opacity="1">Convolution Benchmarks</text></g></g><path class="foreground" aria-hidden="true" d="" pointer-events="none" display="none"/></g></g></g><path class="foreground" aria-hidden="true" d="" display="none"/></g></g><g class="mark-group role-column-header column_header" role="graphics-object" aria-roledescription="group mark container"><g transform="translate(0,-1)"><path class="background" aria-hidden="true" d="M0,0h200v0h-200Z"/><g><g class="mark-group role-title"><g transform="translate(100,-24)"><path class="background" aria-hidden="true" d="M0,0h0v0h0Z" pointer-events="none"/><g><g class="mark-text role-title-text" role="graphics-symbol" aria-roledescription="title" aria-label="Title text 'kernel size 16'" pointer-events="none"><text text-anchor="middle" transform="translate(0,11)" font-family="sans-serif" font-size="14px" fill="#000" opacity="1">kernel size 16</text></g></g><path class="foreground" aria-hidden="true" d="" pointer-events="none" display="none"/></g></g></g><path class="foreground" aria-hidden="true" d="" display="none"/></g><g transform="translate(740,-1)"><path class="background" aria-hidden="true" d="M0,0h200v0h-200Z"/><g><g class="mark-group role-title"><g transform="translate(100,-24)"><path class="background" aria-hidden="true" d="M0,0h0v0h0Z" pointer-events="none"/><g><g class="mark-text role-title-text" role="graphics-symbol" aria-roledescription="title" aria-label="Title text 'kernel size 512'" pointer-events="none"><text text-anchor="middle" transform="translate(0,11)" font-family="sans-serif" font-size="14px" fill="#000" opacity="1">kernel size 512</text></g></g><path class="foreground" aria-hidden="true" d="" pointer-events="none" display="none"/></g></g></g><path class="foreground" aria-hidden="true" d="" display="none"/></g></g><g class="mark-group role-scope cell" role="graphics-object" aria-roledescription="group mark container"><g transform="translate(0,0)"><path class="background" aria-hidden="true" d="M0.5,0.5h200v300h-200Z" stroke="#ddd"/><g><g class="mark-group role-axis" aria-hidden="true"><g transform="translate(0.5,300.5)"><path class="background" aria-hidden="true" d="M0,0h0v0h0Z" pointer-events="none"/><g><g class="mark-rule role-axis-grid" pointer-events="none"><line transform="translate(0,0)" x2="0" y2="-300" stroke="#ddd" stroke-width="1" opacity="1"/><line transform="translate(38,0)" x2="0" y2="-300" stroke="#ddd" stroke-width="1" opacity="1"/><line transform="translate(77,0)" x2="0" y2="-300" stroke="#ddd" stroke-width="1" opacity="1"/><line transform="translate(115,0)" x2="0" y2="-300" stroke="#ddd" stroke-width="1" opacity="1"/><line transform="translate(154,0)" x2="0" y2="-300" stroke="#ddd" stroke-width="1" opacity="1"/><line transform="translate(192,0)" x2="0" y2="-300" stroke="#ddd" stroke-width="1" opacity="1"/></g></g><path class="foreground" aria-hidden="true" d="" pointer-events="none" display="none"/></g></g><g class="mark-group role-axis" role="graphics-symbol" aria-roledescription="axis" aria-label="X-axis titled 'mean execution time in µs' for a linear scale with values from 0 to 260"><g transform="translate(0.5,300.5)"><path class="background" aria-hidden="true" d="M0,0h0v0h0Z" pointer-events="none"/><g><g class="mark-rule role-axis-tick" pointer-events="none"><line transform="translate(0,0)" x2="0" y2="5" stroke="#888" stroke-width="1" opacity="1"/><line transform="translate(38,0)" x2="0" y2="5" stroke="#888" stroke-width="1" opacity="1"/><line transform="translate(77,0)" x2="0" y2="5" stroke="#888" stroke-width="1" opacity="1"/><line transform="translate(115,0)" x2="0" y2="5" stroke="#888" stroke-width="1" opacity="1"/><line transform="translate(154,0)" x2="0" y2="5" stroke="#888" stroke-width="1" opacity="1"/><line transform="translate(192,0)" x2="0" y2="5" stroke="#888" stroke-width="1" opacity="1"/></g><g class="mark-text role-axis-label" pointer-events="none"><text text-anchor="start" transform="translate(0,15)" font-family="sans-serif" font-size="10px" fill="#000" opacity="1">0</text><text text-anchor="middle" transform="translate(38.46153846153847,15)" font-family="sans-serif" font-size="10px" fill="#000" opacity="1">50</text><text text-anchor="middle" transform="translate(76.92307692307693,15)" font-family="sans-serif" font-size="10px" fill="#000" opacity="1">100</text><text text-anchor="middle" transform="translate(115.38461538461537,15)" font-family="sans-serif" font-size="10px" fill="#000" opacity="1">150</text><text text-anchor="middle" transform="translate(153.84615384615387,15)" font-family="sans-serif" font-size="10px" fill="#000" opacity="1">200</text><text text-anchor="middle" transform="translate(192.30769230769232,15)" font-family="sans-serif" font-size="10px" fill="#000" opacity="1">250</text></g><g class="mark-rule role-axis-domain" pointer-events="none"><line transform="translate(0,0)" x2="200" y2="0" stroke="#888" stroke-width="1" opacity="1"/></g><g class="mark-text role-axis-title" pointer-events="none"><text text-anchor="middle" transform="translate(100,30)" font-family="sans-serif" font-size="11px" font-weight="bold" fill="#000" opacity="1">mean execution time in µs</text></g></g><path class="foreground" aria-hidden="true" d="" pointer-events="none" display="none"/></g></g><g class="mark-group role-axis" role="graphics-symbol" aria-roledescription="axis" aria-label="Y-axis titled 'algorithm' for a discrete scale with 15 values: (JohT) inputPerKernelValue Transposed, (JohT) inputPerKernelValue Transposed OuterLoopUnrolled, (chaowang15) convolve1D, (JohT) inputPerKernelValue Transposed Inner&amp;OuterLoopUnrolled, (JohT) inputPerKernelValue Transposed LoopFissionIndexArithmetic, ending with (wilczek) Outer-Loop Vectorization"><g transform="translate(0.5,0.5)"><path class="background" aria-hidden="true" d="M0,0h0v0h0Z" pointer-events="none"/><g><g class="mark-rule role-axis-tick" pointer-events="none"><line transform="translate(0,10)" x2="-5" y2="0" stroke="#888" stroke-width="1" opacity="1"/><line transform="translate(0,30)" x2="-5" y2="0" stroke="#888" stroke-width="1" opacity="1"/><line transform="translate(0,50)" x2="-5" y2="0" stroke="#888" stroke-width="1" opacity="1"/><line transform="translate(0,70)" x2="-5" y2="0" stroke="#888" stroke-width="1" opacity="1"/><line transform="translate(0,90)" x2="-5" y2="0" stroke="#888" stroke-width="1" opacity="1"/><line transform="translate(0,110)" x2="-5" y2="0" stroke="#888" stroke-width="1" opacity="1"/><line transform="translate(0,130)" x2="-5" y2="0" stroke="#888" stroke-width="1" opacity="1"/><line transform="translate(0,150)" x2="-5" y2="0" stroke="#888" stroke-width="1" opacity="1"/><line transform="translate(0,170)" x2="-5" y2="0" stroke="#888" stroke-width="1" opacity="1"/><line transform="translate(0,190)" x2="-5" y2="0" stroke="#888" stroke-width="1" opacity="1"/><line transform="translate(0,210)" x2="-5" y2="0" stroke="#888" stroke-width="1" opacity="1"/><line transform="translate(0,230)" x2="-5" y2="0" stroke="#888" stroke-width="1" opacity="1"/><line transform="translate(0,250)" x2="-5" y2="0" stroke="#888" stroke-width="1" opacity="1"/><line transform="translate(0,270)" x2="-5" y2="0" stroke="#888" stroke-width="1" opacity="1"/><line transform="translate(0,290)" x2="-5" y2="0" stroke="#888" stroke-width="1" opacity="1"/></g><g class="mark-text role-axis-label" pointer-events="none"><text text-anchor="end" transform="translate(-7,12.5)" font-family="sans-serif" font-size="10px" fill="#000" opacity="1">(JohT) inputPerKernelValue Transposed</text><text text-anchor="end" transform="translate(-7,32.5)" font-family="sans-serif" font-size="10px" fill="#000" opacity="1">(JohT) inputPerKernelValue Transposed OuterLoopUnrolled</text><text text-anchor="end" transform="translate(-7,52.5)" font-family="sans-serif" font-size="10px" fill="#000" opacity="1">(chaowang15) convolve1D</text><text text-anchor="end" transform="translate(-7,72.5)" font-family="sans-serif" font-size="10px" fill="#000" opacity="1">(JohT) inputPerKernelValue Transposed Inner&amp;OuterLoopUnrolled</text><text text-anchor="end" transform="translate(-7,92.5)" font-family="sans-serif" font-size="10px" fill="#000" opacity="1">(JohT) inputPerKernelValue Transposed LoopFissionIndexArithme…</text><text text-anchor="end" transform="translate(-7,112.5)" font-family="sans-serif" font-size="10px" fill="#000" opacity="1">(matlab-like) conv 'full' shape</text><text text-anchor="end" transform="translate(-7,132.5)" font-family="sans-serif" font-size="10px" fill="#000" opacity="1">(JohT) inputPerKernelValue Transposed LoopFission</text><text text-anchor="end" transform="translate(-7,152.5)" font-family="sans-serif" font-size="10px" fill="#000" opacity="1">(JohT) kernelPerInputValue Transposed</text><text text-anchor="end" transform="translate(-7,172.5)" font-family="sans-serif" font-size="10px" fill="#000" opacity="1">(JohT) kernelPerInputValue Transposed LoopFission</text><text text-anchor="end" transform="translate(-7,192.5)" font-family="sans-serif" font-size="10px" fill="#000" opacity="1">(wilczek) Outer- and Inner-Loop Vectorization</text><text text-anchor="end" transform="translate(-7,212.5)" font-family="sans-serif" font-size="10px" fill="#000" opacity="1">(wilczek) Inner-Loop Vectorization</text><text text-anchor="end" transform="translate(-7,232.5)" font-family="sans-serif" font-size="10px" fill="#000" opacity="1">(wilczek) Single</text><text text-anchor="end" transform="translate(-7,252.5)" font-family="sans-serif" font-size="10px" fill="#000" opacity="1">(matlab-like) conv 'valid' shape pre padded</text><text text-anchor="end" transform="translate(-7,272.5)" font-family="sans-serif" font-size="10px" fill="#000" opacity="1">(JohT) inputPerKernelValue Transposed InnerLoopUnrolled</text><text text-anchor="end" transform="translate(-7,292.5)" font-family="sans-serif" font-size="10px" fill="#000" opacity="1">(wilczek) Outer-Loop Vectorization</text></g><g class="mark-rule role-axis-domain" pointer-events="none"><line transform="translate(0,0)" x2="0" y2="300" stroke="#888" stroke-width="1" opacity="1"/></g><g class="mark-text role-axis-title" pointer-events="none"><text text-anchor="middle" transform="translate(-320,150) rotate(-90) translate(0,-2)" font-family="sans-serif" font-size="11px" font-weight="bold" fill="#000" opacity="1">algorithm</text></g></g><path class="foreground" aria-hidden="true" d="" pointer-events="none" display="none"/></g></g><g class="mark-rect role-mark child_layer_0_marks" role="graphics-object" aria-roledescription="rect mark container"><path aria-label="mean execution time in µs: 66; algorithm: (JohT) kernelPerInputValue Transposed" role="graphics-symbol" aria-roledescription="bar" d="M0,141.9L46.76923076923077,141.9C48.97689086720677,141.9,50.76923076923077,143.692339902024,50.76923076923077,145.9L50.76923076923077,154.1C50.76923076923077,156.307660097976,48.97689086720677,158.1,46.76923076923077,158.1L0,158.1C0,158.1,0,158.1,0,158.1L0,141.9C0,141.9,0,141.9,0,141.9Z" fill="#4c78a8"/><path aria-label="mean execution time in µs: 20; algorithm: (JohT) inputPerKernelValue Transposed" role="graphics-symbol" aria-roledescription="bar" d="M0,1.9L11.384615384615385,1.9C13.592275482591385,1.9,15.384615384615385,3.692339902024,15.384615384615385,5.9L15.384615384615385,14.099999999999998C15.384615384615385,16.307660097975997,13.592275482591385,18.099999999999998,11.384615384615385,18.099999999999998L0,18.099999999999998C0,18.099999999999998,0,18.099999999999998,0,18.099999999999998L0,1.9C0,1.9,0,1.9,0,1.9Z" fill="#4c78a8"/><path aria-label="mean execution time in µs: 239; algorithm: (JohT) inputPerKernelValue Transposed InnerLoopUnrolled" role="graphics-symbol" aria-roledescription="bar" d="M0,261.9L179.84615384615384,261.9C182.05381394412984,261.9,183.84615384615384,263.692339902024,183.84615384615384,265.9L183.84615384615384,274.09999999999997C183.84615384615384,276.30766009797594,182.05381394412984,278.09999999999997,179.84615384615384,278.09999999999997L0,278.09999999999997C0,278.09999999999997,0,278.09999999999997,0,278.09999999999997L0,261.9C0,261.9,0,261.9,0,261.9Z" fill="#4c78a8"/><path aria-label="mean execution time in µs: 38; algorithm: (JohT) inputPerKernelValue Transposed OuterLoopUnrolled" role="graphics-symbol" aria-roledescription="bar" d="M0,21.9L25.230769230769234,21.9C27.438429328745233,21.9,29.230769230769234,23.692339902024,29.230769230769234,25.9L29.230769230769234,34.099999999999994C29.230769230769234,36.307660097976,27.438429328745233,38.099999999999994,25.230769230769234,38.099999999999994L0,38.099999999999994C0,38.099999999999994,0,38.099999999999994,0,38.099999999999994L0,21.9C0,21.9,0,21.9,0,21.9Z" fill="#4c78a8"/><path aria-label="mean execution time in µs: 51; algorithm: (JohT) inputPerKernelValue Transposed Inner&amp;OuterLoopUnrolled" role="graphics-symbol" aria-roledescription="bar" d="M0,61.9L35.23076923076923,61.9C37.43842932874524,61.9,39.23076923076923,63.692339902023996,39.23076923076923,65.9L39.23076923076923,74.1C39.23076923076923,76.307660097976,37.43842932874524,78.1,35.23076923076923,78.1L0,78.1C0,78.1,0,78.1,0,78.1L0,61.9C0,61.9,0,61.9,0,61.9Z" fill="#4c78a8"/><path aria-label="mean execution time in µs: 57; algorithm: (JohT) inputPerKernelValue Transposed LoopFission" role="graphics-symbol" aria-roledescription="bar" d="M0,121.9L39.84615384615385,121.9C42.05381394412985,121.9,43.84615384615385,123.692339902024,43.84615384615385,125.9L43.84615384615385,134.1C43.84615384615385,136.307660097976,42.05381394412985,138.1,39.84615384615385,138.1L0,138.1C0,138.1,0,138.1,0,138.1L0,121.9C0,121.9,0,121.9,0,121.9Z" fill="#4c78a8"/><path aria-label="mean execution time in µs: 54; algorithm: (JohT) inputPerKernelValue Transposed LoopFissionIndexArithmetic" role="graphics-symbol" aria-roledescription="bar" d="M0,81.9L37.53846153846154,81.9C39.74612163643754,81.9,41.53846153846154,83.692339902024,41.53846153846154,85.9L41.53846153846154,94.10000000000001C41.53846153846154,96.30766009797601,39.74612163643754,98.10000000000001,37.53846153846154,98.10000000000001L0,98.10000000000001C0,98.10000000000001,0,98.10000000000001,0,98.10000000000001L0,81.9C0,81.9,0,81.9,0,81.9Z" fill="#4c78a8"/><path aria-label="mean execution time in µs: 67; algorithm: (JohT) kernelPerInputValue Transposed LoopFission" role="graphics-symbol" aria-roledescription="bar" d="M0,161.9L47.53846153846153,161.9C49.746121636437536,161.9,51.53846153846153,163.692339902024,51.53846153846153,165.9L51.53846153846153,174.1C51.53846153846153,176.307660097976,49.746121636437536,178.1,47.53846153846153,178.1L0,178.1C0,178.1,0,178.1,0,178.1L0,161.9C0,161.9,0,161.9,0,161.9Z" fill="#4c78a8"/><path aria-label="mean execution time in µs: 55; algorithm: (matlab-like) conv 'full' shape" role="graphics-symbol" aria-roledescription="bar" d="M0,101.9L38.30769230769231,101.9C40.51535240566831,101.9,42.30769230769231,103.692339902024,42.30769230769231,105.9L42.30769230769231,114.10000000000001C42.30769230769231,116.30766009797601,40.51535240566831,118.10000000000001,38.30769230769231,118.10000000000001L0,118.10000000000001C0,118.10000000000001,0,118.10000000000001,0,118.10000000000001L0,101.9C0,101.9,0,101.9,0,101.9Z" fill="#4c78a8"/><path aria-label="mean execution time in µs: 124; algorithm: (matlab-like) conv 'valid' shape pre padded" role="graphics-symbol" aria-roledescription="bar" d="M0,241.9L91.38461538461539,241.9C93.59227548259139,241.9,95.38461538461539,243.692339902024,95.38461538461539,245.9L95.38461538461539,254.10000000000002C95.38461538461539,256.307660097976,93.59227548259139,258.1,91.38461538461539,258.1L0,258.1C0,258.1,0,258.1,0,258.1L0,241.9C0,241.9,0,241.9,0,241.9Z" fill="#4c78a8"/><path aria-label="mean execution time in µs: 96; algorithm: (wilczek) Single" role="graphics-symbol" aria-roledescription="bar" d="M0,221.9L69.84615384615385,221.9C72.05381394412986,221.9,73.84615384615385,223.692339902024,73.84615384615385,225.9L73.84615384615385,234.1C73.84615384615385,236.307660097976,72.05381394412986,238.1,69.84615384615385,238.1L0,238.1C0,238.1,0,238.1,0,238.1L0,221.9C0,221.9,0,221.9,0,221.9Z" fill="#4c78a8"/><path aria-label="mean execution time in µs: 70; algorithm: (wilczek) Inner-Loop Vectorization" role="graphics-symbol" aria-roledescription="bar" d="M0,201.9L49.84615384615385,201.9C52.05381394412985,201.9,53.84615384615385,203.692339902024,53.84615384615385,205.9L53.84615384615385,214.1C53.84615384615385,216.307660097976,52.05381394412985,218.1,49.84615384615385,218.1L0,218.1C0,218.1,0,218.1,0,218.1L0,201.9C0,201.9,0,201.9,0,201.9Z" fill="#4c78a8"/><path aria-label="mean execution time in µs: 247; algorithm: (wilczek) Outer-Loop Vectorization" role="graphics-symbol" aria-roledescription="bar" d="M0,281.9L186,281.9C188.207660097976,281.9,190,283.692339902024,190,285.9L190,294.09999999999997C190,296.30766009797594,188.207660097976,298.09999999999997,186,298.09999999999997L0,298.09999999999997C0,298.09999999999997,0,298.09999999999997,0,298.09999999999997L0,281.9C0,281.9,0,281.9,0,281.9Z" fill="#4c78a8"/><path aria-label="mean execution time in µs: 68; algorithm: (wilczek) Outer- and Inner-Loop Vectorization" role="graphics-symbol" aria-roledescription="bar" d="M0,181.9L48.307692307692314,181.9C50.51535240566832,181.9,52.307692307692314,183.692339902024,52.307692307692314,185.9L52.307692307692314,194.1C52.307692307692314,196.307660097976,50.51535240566832,198.1,48.307692307692314,198.1L0,198.1C0,198.1,0,198.1,0,198.1L0,181.9C0,181.9,0,181.9,0,181.9Z" fill="#4c78a8"/><path aria-label="mean execution time in µs: 45; algorithm: (chaowang15) convolve1D" role="graphics-symbol" aria-roledescription="bar" d="M0,41.9L30.615384615384613,41.9C32.823044713360616,41.9,34.61538461538461,43.692339902023996,34.61538461538461,45.9L34.61538461538461,54.099999999999994C34.61538461538461,56.307660097976,32.823044713360616,58.099999999999994,30.615384615384613,58.099999999999994L0,58.099999999999994C0,58.099999999999994,0,58.099999999999994,0,58.099999999999994L0,41.9C0,41.9,0,41.9,0,41.9Z" fill="#4c78a8"/></g><g class="mark-text role-mark child_layer_1_marks" role="graphics-object" aria-roledescription="text mark container"><text aria-label="mean execution time in µs: 66; algorithm: (JohT) kernelPerInputValue Transposed; MeanExecutionTime: 66" role="graphics-symbol" aria-roledescription="text mark" text-anchor="start" transform="translate(54.76923076923077,153)" font-family="sans-serif" font-size="9px" fill="black">66</text><text aria-label="mean execution time in µs: 20; algorithm: (JohT) inputPerKernelValue Transposed; MeanExecutionTime: 20" role="graphics-symbol" aria-roledescription="text mark" text-anchor="start" transform="translate(19.384615384615387,13)" font-family="sans-serif" font-size="9px" fill="black">20</text><text aria-label="mean execution time in µs: 239; algorithm: (JohT) inputPerKernelValue Transposed InnerLoopUnrolled; MeanExecutionTime: 239" role="graphics-symbol" aria-roledescription="text mark" text-anchor="start" transform="translate(187.84615384615384,273)" font-family="sans-serif" font-size="9px" fill="black">239</text><text aria-label="mean execution time in µs: 38; algorithm: (JohT) inputPerKernelValue Transposed OuterLoopUnrolled; MeanExecutionTime: 38" role="graphics-symbol" aria-roledescription="text mark" text-anchor="start" transform="translate(33.23076923076923,33)" font-family="sans-serif" font-size="9px" fill="black">38</text><text aria-label="mean execution time in µs: 51; algorithm: (JohT) inputPerKernelValue Transposed Inner&amp;OuterLoopUnrolled; MeanExecutionTime: 51" role="graphics-symbol" aria-roledescription="text mark" text-anchor="start" transform="translate(43.23076923076923,73)" font-family="sans-serif" font-size="9px" fill="black">51</text><text aria-label="mean execution time in µs: 57; algorithm: (JohT) inputPerKernelValue Transposed LoopFission; MeanExecutionTime: 57" role="graphics-symbol" aria-roledescription="text mark" text-anchor="start" transform="translate(47.84615384615385,133)" font-family="sans-serif" font-size="9px" fill="black">57</text><text aria-label="mean execution time in µs: 54; algorithm: (JohT) inputPerKernelValue Transposed LoopFissionIndexArithmetic; MeanExecutionTime: 54" role="graphics-symbol" aria-roledescription="text mark" text-anchor="start" transform="translate(45.53846153846154,93)" font-family="sans-serif" font-size="9px" fill="black">54</text><text aria-label="mean execution time in µs: 67; algorithm: (JohT) kernelPerInputValue Transposed LoopFission; MeanExecutionTime: 67" role="graphics-symbol" aria-roledescription="text mark" text-anchor="start" transform="translate(55.53846153846153,173)" font-family="sans-serif" font-size="9px" fill="black">67</text><text aria-label="mean execution time in µs: 55; algorithm: (matlab-like) conv 'full' shape; MeanExecutionTime: 55" role="graphics-symbol" aria-roledescription="text mark" text-anchor="start" transform="translate(46.30769230769231,113)" font-family="sans-serif" font-size="9px" fill="black">55</text><text aria-label="mean execution time in µs: 124; algorithm: (matlab-like) conv 'valid' shape pre padded; MeanExecutionTime: 124" role="graphics-symbol" aria-roledescription="text mark" text-anchor="start" transform="translate(99.38461538461539,253)" font-family="sans-serif" font-size="9px" fill="black">124</text><text aria-label="mean execution time in µs: 96; algorithm: (wilczek) Single; MeanExecutionTime: 96" role="graphics-symbol" aria-roledescription="text mark" text-anchor="start" transform="translate(77.84615384615385,233)" font-family="sans-serif" font-size="9px" fill="black">96</text><text aria-label="mean execution time in µs: 70; algorithm: (wilczek) Inner-Loop Vectorization; MeanExecutionTime: 70" role="graphics-symbol" aria-roledescription="text mark" text-anchor="start" transform="translate(57.84615384615385,213)" font-family="sans-serif" font-size="9px" fill="black">70</text><text aria-label="mean execution time in µs: 247; algorithm: (wilczek) Outer-Loop Vectorization; MeanExecutionTime: 247" role="graphics-symbol" aria-roledescription="text mark" text-anchor="start" transform="translate(194,293)" font-family="sans-serif" font-size="9px" fill="black">247</text><text aria-label="mean execution time in µs: 68; algorithm: (wilczek) Outer- and Inner-Loop Vectorization; MeanExecutionTime: 68" role="graphics-symbol" aria-roledescription="text mark" text-anchor="start" transform="translate(56.307692307692314,193)" font-family="sans-serif" font-size="9px" fill="black">68</text><text aria-label="mean execution time in µs: 45; algorithm: (chaowang15) convolve1D; MeanExecutionTime: 45" role="graphics-symbol" aria-roledescription="text mark" text-anchor="start" transform="translate(38.61538461538461,53)" font-family="sans-serif" font-size="9px" fill="black">45</text></g></g><path class="foreground" aria-hidden="true" d="" display="none"/></g><g transform="translate(740,0)"><path class="background" aria-hidden="true" d="M0.5,0.5h200v300h-200Z" stroke="#ddd"/><g><g class="mark-group role-axis" aria-hidden="true"><g transform="translate(0.5,300.5)"><path class="background" aria-hidden="true" d="M0,0h0v0h0Z" pointer-events="none"/><g><g class="mark-rule role-axis-grid" pointer-events="none"><line transform="translate(0,0)" x2="0" y2="-300" stroke="#ddd" stroke-width="1" opacity="1"/><line transform="translate(36,0)" x2="0" y2="-300" stroke="#ddd" stroke-width="1" opacity="1"/><line transform="translate(73,0)" x2="0" y2="-300" stroke="#ddd" stroke-width="1" opacity="1"/><line transform="translate(109,0)" x2="0" y2="-300" stroke="#ddd" stroke-width="1" opacity="1"/><line transform="translate(145,0)" x2="0" y2="-300" stroke="#ddd" stroke-width="1" opacity="1"/><line transform="translate(182,0)" x2="0" y2="-300" stroke="#ddd" stroke-width="1" opacity="1"/></g></g><path class="foreground" aria-hidden="true" d="" pointer-events="none" display="none"/></g></g><g class="mark-group role-axis" role="graphics-symbol" aria-roledescription="axis" aria-label="X-axis titled 'mean execution time in µs' for a linear scale with values from 0 to 11,000"><g transform="translate(0.5,300.5)"><path class="background" aria-hidden="true" d="M0,0h0v0h0Z" pointer-events="none"/><g><g class="mark-rule role-axis-tick" pointer-events="none"><line transform="translate(0,0)" x2="0" y2="5" stroke="#888" stroke-width="1" opacity="1"/><line transform="translate(36,0)" x2="0" y2="5" stroke="#888" stroke-width="1" opacity="1"/><line transform="translate(73,0)" x2="0" y2="5" stroke="#888" stroke-width="1" opacity="1"/><line transform="translate(109,0)" x2="0" y2="5" stroke="#888" stroke-width="1" opacity="1"/><line transform="translate(145,0)" x2="0" y2="5" stroke="#888" stroke-width="1" opacity="1"/><line transform="translate(182,0)" x2="0" y2="5" stroke="#888" stroke-width="1" opacity="1"/></g><g class="mark-text role-axis-label" pointer-events="none"><text text-anchor="start" transform="translate(0,15)" font-family="sans-serif" font-size="10px" fill="#000" opacity="1">0</text><text text-anchor="middle" transform="translate(36.36363636363637,15)" font-family="sans-serif" font-size="10px" fill="#000" opacity="0">2,000</text><text text-anchor="middle" transform="translate(72.72727272727273,15)" font-family="sans-serif" font-size="10px" fill="#000" opacity="1">4,000</text><text text-anchor="middle" transform="translate(109.09090909090908,15)" font-family="sans-serif" font-size="10px" fill="#000" opacity="0">6,000</text><text text-anchor="middle" transform="translate(145.45454545454547,15)" font-family="sans-serif" font-size="10px" fill="#000" opacity="1">8,000</text><text text-anchor="middle" transform="translate(181.8181818181818,15)" font-family="sans-serif" font-size="10px" fill="#000" opacity="0">10,000</text></g><g class="mark-rule role-axis-domain" pointer-events="none"><line transform="translate(0,0)" x2="200" y2="0" stroke="#888" stroke-width="1" opacity="1"/></g><g class="mark-text role-axis-title" pointer-events="none"><text text-anchor="middle" transform="translate(100,30)" font-family="sans-serif" font-size="11px" font-weight="bold" fill="#000" opacity="1">mean execution time in µs</text></g></g><path class="foreground" aria-hidden="true" d="" pointer-events="none" display="none"/></g></g><g class="mark-group role-axis" role="graphics-symbol" aria-roledescription="axis" aria-label="Y-axis titled 'algorithm' for a discrete scale with 15 values: (chaowang15) convolve1D, (matlab-like) conv 'full' shape, (JohT) kernelPerInputValue Transposed, (JohT) inputPerKernelValue Transposed, (JohT) kernelPerInputValue Transposed LoopFission, ending with (matlab-like) conv 'valid' shape pre padded"><g transform="translate(0.5,0.5)"><path class="background" aria-hidden="true" d="M0,0h0v0h0Z" pointer-events="none"/><g><g class="mark-rule role-axis-tick" pointer-events="none"><line transform="translate(0,10)" x2="-5" y2="0" stroke="#888" stroke-width="1" opacity="1"/><line transform="translate(0,30)" x2="-5" y2="0" stroke="#888" stroke-width="1" opacity="1"/><line transform="translate(0,50)" x2="-5" y2="0" stroke="#888" stroke-width="1" opacity="1"/><line transform="translate(0,70)" x2="-5" y2="0" stroke="#888" stroke-width="1" opacity="1"/><line transform="translate(0,90)" x2="-5" y2="0" stroke="#888" stroke-width="1" opacity="1"/><line transform="translate(0,110)" x2="-5" y2="0" stroke="#888" stroke-width="1" opacity="1"/><line transform="translate(0,130)" x2="-5" y2="0" stroke="#888" stroke-width="1" opacity="1"/><line transform="translate(0,150)" x2="-5" y2="0" stroke="#888" stroke-width="1" opacity="1"/><line transform="translate(0,170)" x2="-5" y2="0" stroke="#888" stroke-width="1" opacity="1"/><line transform="translate(0,190)" x2="-5" y2="0" stroke="#888" stroke-width="1" opacity="1"/><line transform="translate(0,210)" x2="-5" y2="0" stroke="#888" stroke-width="1" opacity="1"/><line transform="translate(0,230)" x2="-5" y2="0" stroke="#888" stroke-width="1" opacity="1"/><line transform="translate(0,250)" x2="-5" y2="0" stroke="#888" stroke-width="1" opacity="1"/><line transform="translate(0,270)" x2="-5" y2="0" stroke="#888" stroke-width="1" opacity="1"/><line transform="translate(0,290)" x2="-5" y2="0" stroke="#888" stroke-width="1" opacity="1"/></g><g class="mark-text role-axis-label" pointer-events="none"><text text-anchor="end" transform="translate(-7,12.5)" font-family="sans-serif" font-size="10px" fill="#000" opacity="1">(chaowang15) convolve1D</text><text text-anchor="end" transform="translate(-7,32.5)" font-family="sans-serif" font-size="10px" fill="#000" opacity="1">(matlab-like) conv 'full' shape</text><text text-anchor="end" transform="translate(-7,52.5)" font-family="sans-serif" font-size="10px" fill="#000" opacity="1">(JohT) kernelPerInputValue Transposed</text><text text-anchor="end" transform="translate(-7,72.5)" font-family="sans-serif" font-size="10px" fill="#000" opacity="1">(JohT) inputPerKernelValue Transposed</text><text text-anchor="end" transform="translate(-7,92.5)" font-family="sans-serif" font-size="10px" fill="#000" opacity="1">(JohT) kernelPerInputValue Transposed LoopFission</text><text text-anchor="end" transform="translate(-7,112.5)" font-family="sans-serif" font-size="10px" fill="#000" opacity="1">(JohT) inputPerKernelValue Transposed OuterLoopUnrolled</text><text text-anchor="end" transform="translate(-7,132.5)" font-family="sans-serif" font-size="10px" fill="#000" opacity="1">(JohT) inputPerKernelValue Transposed Inner&amp;OuterLoopUnrolled</text><text text-anchor="end" transform="translate(-7,152.5)" font-family="sans-serif" font-size="10px" fill="#000" opacity="1">(JohT) inputPerKernelValue Transposed LoopFission</text><text text-anchor="end" transform="translate(-7,172.5)" font-family="sans-serif" font-size="10px" fill="#000" opacity="1">(JohT) inputPerKernelValue Transposed LoopFissionIndexArithme…</text><text text-anchor="end" transform="translate(-7,192.5)" font-family="sans-serif" font-size="10px" fill="#000" opacity="1">(wilczek) Outer- and Inner-Loop Vectorization</text><text text-anchor="end" transform="translate(-7,212.5)" font-family="sans-serif" font-size="10px" fill="#000" opacity="1">(wilczek) Inner-Loop Vectorization</text><text text-anchor="end" transform="translate(-7,232.5)" font-family="sans-serif" font-size="10px" fill="#000" opacity="1">(wilczek) Outer-Loop Vectorization</text><text text-anchor="end" transform="translate(-7,252.5)" font-family="sans-serif" font-size="10px" fill="#000" opacity="1">(JohT) inputPerKernelValue Transposed InnerLoopUnrolled</text><text text-anchor="end" transform="translate(-7,272.5)" font-family="sans-serif" font-size="10px" fill="#000" opacity="1">(wilczek) Single</text><text text-anchor="end" transform="translate(-7,292.5)" font-family="sans-serif" font-size="10px" fill="#000" opacity="1">(matlab-like) conv 'valid' shape pre padded</text></g><g class="mark-rule role-axis-domain" pointer-events="none"><line transform="translate(0,0)" x2="0" y2="300" stroke="#888" stroke-width="1" opacity="1"/></g><g class="mark-text role-axis-title" pointer-events="none"><text text-anchor="middle" transform="translate(-320,150) rotate(-90) translate(0,-2)" font-family="sans-serif" font-size="11px" font-weight="bold" fill="#000" opacity="1">algorithm</text></g></g><path class="foreground" aria-hidden="true" d="" pointer-events="none" display="none"/></g></g><g class="mark-rect role-mark child_layer_0_marks" role="graphics-object" aria-roledescription="rect mark container"><path aria-label="mean execution time in µs: 652; algorithm: (JohT) kernelPerInputValue Transposed" role="graphics-symbol" aria-roledescription="bar" d="M0,41.9L7.854545454545455,41.9C10.062205552521455,41.9,11.854545454545455,43.692339902023996,11.854545454545455,45.9L11.854545454545455,54.099999999999994C11.854545454545455,56.307660097976,10.062205552521455,58.099999999999994,7.854545454545455,58.099999999999994L0,58.099999999999994C0,58.099999999999994,0,58.099999999999994,0,58.099999999999994L0,41.9C0,41.9,0,41.9,0,41.9Z" fill="#4c78a8"/><path aria-label="mean execution time in µs: 652; algorithm: (JohT) inputPerKernelValue Transposed" role="graphics-symbol" aria-roledescription="bar" d="M0,61.9L7.854545454545455,61.9C10.062205552521455,61.9,11.854545454545455,63.692339902023996,11.854545454545455,65.9L11.854545454545455,74.1C11.854545454545455,76.307660097976,10.062205552521455,78.1,7.854545454545455,78.1L0,78.1C0,78.1,0,78.1,0,78.1L0,61.9C0,61.9,0,61.9,0,61.9Z" fill="#4c78a8"/><path aria-label="mean execution time in µs: 7700; algorithm: (JohT) inputPerKernelValue Transposed InnerLoopUnrolled" role="graphics-symbol" aria-roledescription="bar" d="M0,241.9L136,241.9C138.207660097976,241.9,140,243.692339902024,140,245.9L140,254.10000000000002C140,256.307660097976,138.207660097976,258.1,136,258.1L0,258.1C0,258.1,0,258.1,0,258.1L0,241.9C0,241.9,0,241.9,0,241.9Z" fill="#4c78a8"/><path aria-label="mean execution time in µs: 1241; algorithm: (JohT) inputPerKernelValue Transposed OuterLoopUnrolled" role="graphics-symbol" aria-roledescription="bar" d="M0,101.9L18.563636363636363,101.9C20.771296461612362,101.9,22.563636363636363,103.692339902024,22.563636363636363,105.9L22.563636363636363,114.10000000000001C22.563636363636363,116.30766009797601,20.771296461612362,118.10000000000001,18.563636363636363,118.10000000000001L0,118.10000000000001C0,118.10000000000001,0,118.10000000000001,0,118.10000000000001L0,101.9C0,101.9,0,101.9,0,101.9Z" fill="#4c78a8"/><path aria-label="mean execution time in µs: 1621; algorithm: (JohT) inputPerKernelValue Transposed Inner&amp;OuterLoopUnrolled" role="graphics-symbol" aria-roledescription="bar" d="M0,121.9L25.472727272727273,121.9C27.680387370703272,121.9,29.472727272727273,123.692339902024,29.472727272727273,125.9L29.472727272727273,134.1C29.472727272727273,136.307660097976,27.680387370703272,138.1,25.472727272727273,138.1L0,138.1C0,138.1,0,138.1,0,138.1L0,121.9C0,121.9,0,121.9,0,121.9Z" fill="#4c78a8"/><path aria-label="mean execution time in µs: 1665; algorithm: (JohT) inputPerKernelValue Transposed LoopFission" role="graphics-symbol" aria-roledescription="bar" d="M0,141.9L26.272727272727273,141.9C28.480387370703273,141.9,30.272727272727273,143.692339902024,30.272727272727273,145.9L30.272727272727273,154.1C30.272727272727273,156.307660097976,28.480387370703273,158.1,26.272727272727273,158.1L0,158.1C0,158.1,0,158.1,0,158.1L0,141.9C0,141.9,0,141.9,0,141.9Z" fill="#4c78a8"/><path aria-label="mean execution time in µs: 1724; algorithm: (JohT) inputPerKernelValue Transposed LoopFissionIndexArithmetic" role="graphics-symbol" aria-roledescription="bar" d="M0,161.9L27.345454545454544,161.9C29.553114643430543,161.9,31.345454545454544,163.692339902024,31.345454545454544,165.9L31.345454545454544,174.1C31.345454545454544,176.307660097976,29.553114643430543,178.1,27.345454545454544,178.1L0,178.1C0,178.1,0,178.1,0,178.1L0,161.9C0,161.9,0,161.9,0,161.9Z" fill="#4c78a8"/><path aria-label="mean execution time in µs: 1118; algorithm: (JohT) kernelPerInputValue Transposed LoopFission" role="graphics-symbol" aria-roledescription="bar" d="M0,81.9L16.327272727272728,81.9C18.534932825248728,81.9,20.327272727272728,83.692339902024,20.327272727272728,85.9L20.327272727272728,94.10000000000001C20.327272727272728,96.30766009797601,18.534932825248728,98.10000000000001,16.327272727272728,98.10000000000001L0,98.10000000000001C0,98.10000000000001,0,98.10000000000001,0,98.10000000000001L0,81.9C0,81.9,0,81.9,0,81.9Z" fill="#4c78a8"/><path aria-label="mean execution time in µs: 595; algorithm: (matlab-like) conv 'full' shape" role="graphics-symbol" aria-roledescription="bar" d="M0,21.9L6.818181818181818,21.9C9.025841916157818,21.9,10.818181818181818,23.692339902024,10.818181818181818,25.9L10.818181818181818,34.099999999999994C10.818181818181818,36.307660097976,9.025841916157818,38.099999999999994,6.818181818181818,38.099999999999994L0,38.099999999999994C0,38.099999999999994,0,38.099999999999994,0,38.099999999999994L0,21.9C0,21.9,0,21.9,0,21.9Z" fill="#4c78a8"/><path aria-label="mean execution time in µs: 10153; algorithm: (matlab-like) conv 'valid' shape pre padded" role="graphics-symbol" aria-roledescription="bar" d="M0,281.9L180.60000000000002,281.9C182.80766009797603,281.9,184.60000000000002,283.692339902024,184.60000000000002,285.9L184.60000000000002,294.09999999999997C184.60000000000002,296.30766009797594,182.80766009797603,298.09999999999997,180.60000000000002,298.09999999999997L0,298.09999999999997C0,298.09999999999997,0,298.09999999999997,0,298.09999999999997L0,281.9C0,281.9,0,281.9,0,281.9Z" fill="#4c78a8"/><path aria-label="mean execution time in µs: 10002; algorithm: (wilczek) Single" role="graphics-symbol" aria-roledescription="bar" d="M0,261.9L177.85454545454544,261.9C180.06220555252145,261.9,181.85454545454544,263.692339902024,181.85454545454544,265.9L181.85454545454544,274.09999999999997C181.85454545454544,276.30766009797594,180.06220555252145,278.09999999999997,177.85454545454544,278.09999999999997L0,278.09999999999997C0,278.09999999999997,0,278.09999999999997,0,278.09999999999997L0,261.9C0,261.9,0,261.9,0,261.9Z" fill="#4c78a8"/><path aria-label="mean execution time in µs: 2359; algorithm: (wilczek) Inner-Loop Vectorization" role="graphics-symbol" aria-roledescription="bar" d="M0,201.9L38.89090909090909,201.9C41.098569188885094,201.9,42.89090909090909,203.692339902024,42.89090909090909,205.9L42.89090909090909,214.1C42.89090909090909,216.307660097976,41.098569188885094,218.1,38.89090909090909,218.1L0,218.1C0,218.1,0,218.1,0,218.1L0,201.9C0,201.9,0,201.9,0,201.9Z" fill="#4c78a8"/><path aria-label="mean execution time in µs: 7459; algorithm: (wilczek) Outer-Loop Vectorization" role="graphics-symbol" aria-roledescription="bar" d="M0,221.9L131.61818181818182,221.9C133.82584191615783,221.9,135.61818181818182,223.692339902024,135.61818181818182,225.9L135.61818181818182,234.1C135.61818181818182,236.307660097976,133.82584191615783,238.1,131.61818181818182,238.1L0,238.1C0,238.1,0,238.1,0,238.1L0,221.9C0,221.9,0,221.9,0,221.9Z" fill="#4c78a8"/><path aria-label="mean execution time in µs: 2087; algorithm: (wilczek) Outer- and Inner-Loop Vectorization" role="graphics-symbol" aria-roledescription="bar" d="M0,181.9L33.945454545454545,181.9C36.15311464343055,181.9,37.945454545454545,183.692339902024,37.945454545454545,185.9L37.945454545454545,194.1C37.945454545454545,196.307660097976,36.15311464343055,198.1,33.945454545454545,198.1L0,198.1C0,198.1,0,198.1,0,198.1L0,181.9C0,181.9,0,181.9,0,181.9Z" fill="#4c78a8"/><path aria-label="mean execution time in µs: 583; algorithm: (chaowang15) convolve1D" role="graphics-symbol" aria-roledescription="bar" d="M0,1.9L6.6,1.9C8.807660097976,1.9,10.6,3.692339902024,10.6,5.9L10.6,14.099999999999998C10.6,16.307660097975997,8.807660097976,18.099999999999998,6.6,18.099999999999998L0,18.099999999999998C0,18.099999999999998,0,18.099999999999998,0,18.099999999999998L0,1.9C0,1.9,0,1.9,0,1.9Z" fill="#4c78a8"/></g><g class="mark-text role-mark child_layer_1_marks" role="graphics-object" aria-roledescription="text mark container"><text aria-label="mean execution time in µs: 652; algorithm: (JohT) kernelPerInputValue Transposed; MeanExecutionTime: 652" role="graphics-symbol" aria-roledescription="text mark" text-anchor="start" transform="translate(15.854545454545455,53)" font-family="sans-serif" font-size="9px" fill="black">652</text><text aria-label="mean execution time in µs: 652; algorithm: (JohT) inputPerKernelValue Transposed; MeanExecutionTime: 652" role="graphics-symbol" aria-roledescription="text mark" text-anchor="start" transform="translate(15.854545454545455,73)" font-family="sans-serif" font-size="9px" fill="black">652</text><text aria-label="mean execution time in µs: 7700; algorithm: (JohT) inputPerKernelValue Transposed InnerLoopUnrolled; MeanExecutionTime: 7700" role="graphics-symbol" aria-roledescription="text mark" text-anchor="start" transform="translate(144,253)" font-family="sans-serif" font-size="9px" fill="black">7700</text><text aria-label="mean execution time in µs: 1241; algorithm: (JohT) inputPerKernelValue Transposed OuterLoopUnrolled; MeanExecutionTime: 1241" role="graphics-symbol" aria-roledescription="text mark" text-anchor="start" transform="translate(26.563636363636363,113)" font-family="sans-serif" font-size="9px" fill="black">1241</text><text aria-label="mean execution time in µs: 1621; algorithm: (JohT) inputPerKernelValue Transposed Inner&amp;OuterLoopUnrolled; MeanExecutionTime: 1621" role="graphics-symbol" aria-roledescription="text mark" text-anchor="start" transform="translate(33.47272727272727,133)" font-family="sans-serif" font-size="9px" fill="black">1621</text><text aria-label="mean execution time in µs: 1665; algorithm: (JohT) inputPerKernelValue Transposed LoopFission; MeanExecutionTime: 1665" role="graphics-symbol" aria-roledescription="text mark" text-anchor="start" transform="translate(34.27272727272727,153)" font-family="sans-serif" font-size="9px" fill="black">1665</text><text aria-label="mean execution time in µs: 1724; algorithm: (JohT) inputPerKernelValue Transposed LoopFissionIndexArithmetic; MeanExecutionTime: 1724" role="graphics-symbol" aria-roledescription="text mark" text-anchor="start" transform="translate(35.345454545454544,173)" font-family="sans-serif" font-size="9px" fill="black">1724</text><text aria-label="mean execution time in µs: 1118; algorithm: (JohT) kernelPerInputValue Transposed LoopFission; MeanExecutionTime: 1118" role="graphics-symbol" aria-roledescription="text mark" text-anchor="start" transform="translate(24.327272727272728,93)" font-family="sans-serif" font-size="9px" fill="black">1118</text><text aria-label="mean execution time in µs: 595; algorithm: (matlab-like) conv 'full' shape; MeanExecutionTime: 595" role="graphics-symbol" aria-roledescription="text mark" text-anchor="start" transform="translate(14.818181818181818,33)" font-family="sans-serif" font-size="9px" fill="black">595</text><text aria-label="mean execution time in µs: 10153; algorithm: (matlab-like) conv 'valid' shape pre padded; MeanExecutionTime: 10153" role="graphics-symbol" aria-roledescription="text mark" text-anchor="start" transform="translate(188.60000000000002,293)" font-family="sans-serif" font-size="9px" fill="black">10153</text><text aria-label="mean execution time in µs: 10002; algorithm: (wilczek) Single; MeanExecutionTime: 10002" role="graphics-symbol" aria-roledescription="text mark" text-anchor="start" transform="translate(185.85454545454544,273)" font-family="sans-serif" font-size="9px" fill="black">10002</text><text aria-label="mean execution time in µs: 2359; algorithm: (wilczek) Inner-Loop Vectorization; MeanExecutionTime: 2359" role="graphics-symbol" aria-roledescription="text mark" text-anchor="start" transform="translate(46.89090909090909,213)" font-family="sans-serif" font-size="9px" fill="black">2359</text><text aria-label="mean execution time in µs: 7459; algorithm: (wilczek) Outer-Loop Vectorization; MeanExecutionTime: 7459" role="graphics-symbol" aria-roledescription="text mark" text-anchor="start" transform="translate(139.61818181818182,233)" font-family="sans-serif" font-size="9px" fill="black">7459</text><text aria-label="mean execution time in µs: 2087; algorithm: (wilczek) Outer- and Inner-Loop Vectorization; MeanExecutionTime: 2087" role="graphics-symbol" aria-roledescription="text mark" text-anchor="start" transform="translate(41.945454545454545,193)" font-family="sans-serif" font-size="9px" fill="black">2087</text><text aria-label="mean execution time in µs: 583; algorithm: (chaowang15) convolve1D; MeanExecutionTime: 583" role="graphics-symbol" aria-roledescription="text mark" text-anchor="start" transform="translate(14.6,13)" font-family="sans-serif" font-size="9px" fill="black">583</text></g></g><path class="foreground" aria-hidden="true" d="" display="none"/></g></g></g><path class="foreground" aria-hidden="true" d="" display="none"/></g></g></g></svg>