<svg xmlns="http://www.w3.org/2000/svg" xmlns:xlink="http://www.w3.org/1999/xlink" version="1.1" class="marks" width="1661" height="404" viewBox="0 0 1661 404"><rect width="1661" height="404" fill="white"/><g fill="none" stroke-miterlimit="10" transform="translate(509,66)"><g class="mark-group role-frame root" role="graphics-object" aria-roledescription="group mark container"><g transform="translate(0,0)"><path class="background" aria-hidden="true" d="M0,0h0v0h0Z"/><g><g class="mark-group role-column-title column-title" role="graphics-object" aria-roledescription="group mark container"><g transform="translate(321,-35)"><path class="background" aria-hidden="true" d="M0,0h0v0h0Z"/><g><g class="mark-group role-title"><g transform="translate(0,-26)"><path class="background" aria-hidden="true" d="M0,0h0v0h0Z" pointer-events="none"/><g><g class="mark-text role-title-text" role="graphics-symbol" aria-roledescription="title" aria-label="Title text 'Convolution Benchmarks'" pointer-events="none"><text text-anchor="middle" transform="translate(0,13)" font-family="sans-serif" font-size="16px" font-weight="bold" fill="#000" opacity="1">Convolution Benchmarks</text></g></g><path class="foreground" aria-hidden="true" d="" pointer-events="none" display="none"/></g></g></g><path class="foreground" aria-hidden="true" d="" display="none"/></g></g><g class="mark-group role-column-header column_header" role="graphics-object" aria-roledescription="group mark container"><g transform="translate(0,-1)"><path class="background" aria-hidden="true" d="M0,0h300v0h-300Z"/><g><g class="mark-group role-title"><g transform="translate(150,-24)"><path class="background" aria-hidden="true" d="M0,0h0v0h0Z" pointer-events="none"/><g><g class="mark-text role-title-text" role="graphics-symbol" aria-roledescription="title" aria-label="Title text 'kernel size 16'" pointer-events="none"><text text-anchor="middle" transform="translate(0,11)" font-family="sans-serif" font-size="14px" fill="#000" opacity="1">kernel size 16</text></g></g><path class="foreground" aria-hidden="true" d="" pointer-events="none" display="none"/></g></g></g><path class="foreground" aria-hidden="true" d="" display="none"/></g><g transform="translate(832,-1)"><path class="background" aria-hidden="true" d="M0,0h300v0h-300Z"/><g><g class="mark-group role-title"><g transform="translate(150,-24)"><path class="background" aria-hidden="true" d="M0,0h0v0h0Z" pointer-events="none"/><g><g class="mark-text role-title-text" role="graphics-symbol" aria-roledescription="title" aria-label="Title text 'kernel size 512'" pointer-events="none"><text text-anchor="middle" transform="translate(0,11)" font-family="sans-serif" font-size="14px" fill="#000" opacity="1">kernel size 512</text></g></g><path class="foreground" aria-hidden="true" d="" pointer-events="none" display="none"/></g></g></g><path class="foreground" aria-hidden="true" d="" display="none"/></g></g><g class="mark-group role-scope cell" role="graphics-object" aria-roledescription="group mark container"><g transform="translate(0,0)"><path class="background" aria-hidden="true" d="M0.5,0.5h300v300h-300Z" stroke="#ddd"/><g><g class="mark-group role-axis" aria-hidden="true"><g transform="translate(0.5,300.5)"><path class="background" aria-hidden="true" d="M0,0h0v0h0Z" pointer-events="none"/><g><g class="mark-rule role-axis-grid" pointer-events="none"><line transform="translate(0,0)" x2="0" y2="-300" stroke="#ddd" stroke-width="1" opacity="1"/><line transform="translate(54,0)" x2="0" y2="-300" stroke="#ddd" stroke-width="1" opacity="1"/><line transform="translate(107,0)" x2="0" y2="-300" stroke="#ddd" stroke-width="1" opacity="1"/><line transform="translate(161,0)" x2="0" y2="-300" stroke="#ddd" stroke-width="1" opacity="1"/><line transform="translate(214,0)" x2="0" y2="-300" stroke="#ddd" stroke-width="1" opacity="1"/><line transform="translate(268,0)" x2="0" y2="-300" stroke="#ddd" stroke-width="1" opacity="1"/></g></g><path class="foreground" aria-hidden="true" d="" pointer-events="none" display="none"/></g></g><g class="mark-group role-axis" role="graphics-symbol" aria-roledescription="axis" aria-label="X-axis titled 'mean execution time in µs' for a linear scale with values from 0 to 280"><g transform="translate(0.5,300.5)"><path class="background" aria-hidden="true" d="M0,0h0v0h0Z" pointer-events="none"/><g><g class="mark-rule role-axis-tick" pointer-events="none"><line transform="translate(0,0)" x2="0" y2="5" stroke="#888" stroke-width="1" opacity="1"/><line transform="translate(54,0)" x2="0" y2="5" stroke="#888" stroke-width="1" opacity="1"/><line transform="translate(107,0)" x2="0" y2="5" stroke="#888" stroke-width="1" opacity="1"/><line transform="translate(161,0)" x2="0" y2="5" stroke="#888" stroke-width="1" opacity="1"/><line transform="translate(214,0)" x2="0" y2="5" stroke="#888" stroke-width="1" opacity="1"/><line transform="translate(268,0)" x2="0" y2="5" stroke="#888" stroke-width="1" opacity="1"/></g><g class="mark-text role-axis-label" pointer-events="none"><text text-anchor="start" transform="translate(0,15)" font-family="sans-serif" font-size="10px" fill="#000" opacity="1">0</text><text text-anchor="middle" transform="translate(53.57142857142857,15)" font-family="sans-serif" font-size="10px" fill="#000" opacity="1">50</text><text text-anchor="middle" transform="translate(107.14285714285714,15)" font-family="sans-serif" font-size="10px" fill="#000" opacity="1">100</text><text text-anchor="middle" transform="translate(160.71428571428572,15)" font-family="sans-serif" font-size="10px" fill="#000" opacity="1">150</text><text text-anchor="middle" transform="translate(214.28571428571428,15)" font-family="sans-serif" font-size="10px" fill="#000" opacity="1">200</text><text text-anchor="middle" transform="translate(267.8571428571429,15)" font-family="sans-serif" font-size="10px" fill="#000" opacity="1">250</text></g><g class="mark-rule role-axis-domain" pointer-events="none"><line transform="translate(0,0)" x2="300" y2="0" stroke="#888" stroke-width="1" opacity="1"/></g><g class="mark-text role-axis-title" pointer-events="none"><text text-anchor="middle" transform="translate(150,30)" font-family="sans-serif" font-size="11px" font-weight="bold" fill="#000" opacity="1">mean execution time in µs</text></g></g><path class="foreground" aria-hidden="true" d="" pointer-events="none" display="none"/></g></g><g class="mark-group role-axis" role="graphics-symbol" aria-roledescription="axis" aria-label="Y-axis titled 'algorithm' for a discrete scale with 15 values: (JohT) inputPerKernelValue Transposed, (JohT) inputPerKernelValue Transposed OuterLoopUnrolled, (chaowang15) convolve1D, (wilczek) Outer- and Inner-Loop Vectorization, (JohT) inputPerKernelValue Transposed Inner&amp;OuterLoopUnrolled, ending with (JohT) inputPerKernelValue Transposed InnerLoopUnrolled"><g transform="translate(0.5,0.5)"><path class="background" aria-hidden="true" d="M0,0h0v0h0Z" pointer-events="none"/><g><g class="mark-rule role-axis-tick" pointer-events="none"><line transform="translate(0,10)" x2="-5" y2="0" stroke="#888" stroke-width="1" opacity="1"/><line transform="translate(0,30)" x2="-5" y2="0" stroke="#888" stroke-width="1" opacity="1"/><line transform="translate(0,50)" x2="-5" y2="0" stroke="#888" stroke-width="1" opacity="1"/><line transform="translate(0,70)" x2="-5" y2="0" stroke="#888" stroke-width="1" opacity="1"/><line transform="translate(0,90)" x2="-5" y2="0" stroke="#888" stroke-width="1" opacity="1"/><line transform="translate(0,110)" x2="-5" y2="0" stroke="#888" stroke-width="1" opacity="1"/><line transform="translate(0,130)" x2="-5" y2="0" stroke="#888" stroke-width="1" opacity="1"/><line transform="translate(0,150)" x2="-5" y2="0" stroke="#888" stroke-width="1" opacity="1"/><line transform="translate(0,170)" x2="-5" y2="0" stroke="#888" stroke-width="1" opacity="1"/><line transform="translate(0,190)" x2="-5" y2="0" stroke="#888" stroke-width="1" opacity="1"/><line transform="translate(0,210)" x2="-5" y2="0" stroke="#888" stroke-width="1" opacity="1"/><line transform="translate(0,230)" x2="-5" y2="0" stroke="#888" stroke-width="1" opacity="1"/><line transform="translate(0,250)" x2="-5" y2="0" stroke="#888" stroke-width="1" opacity="1"/><line transform="translate(0,270)" x2="-5" y2="0" stroke="#888" stroke-width="1" opacity="1"/><line transform="translate(0,290)" x2="-5" y2="0" stroke="#888" stroke-width="1" opacity="1"/></g><g class="mark-text role-axis-label" pointer-events="none"><text text-anchor="end" transform="translate(-7,12.5)" font-family="sans-serif" font-size="10px" fill="#000" opacity="1">(JohT) inputPerKernelValue Transposed</text><text text-anchor="end" transform="translate(-7,32.5)" font-family="sans-serif" font-size="10px" fill="#000" opacity="1">(JohT) inputPerKernelValue Transposed OuterLoopUnrolled</text><text text-anchor="end" transform="translate(-7,52.5)" font-family="sans-serif" font-size="10px" fill="#000" opacity="1">(chaowang15) convolve1D</text><text text-anchor="end" transform="translate(-7,72.5)" font-family="sans-serif" font-size="10px" fill="#000" opacity="1">(wilczek) Outer- and Inner-Loop Vectorization</text><text text-anchor="end" transform="translate(-7,92.5)" font-family="sans-serif" font-size="10px" fill="#000" opacity="1">(JohT) inputPerKernelValue Transposed Inner&amp;OuterLoopUnrolled</text><text text-anchor="end" transform="translate(-7,112.5)" font-family="sans-serif" font-size="10px" fill="#000" opacity="1">(JohT) inputPerKernelValue Transposed LoopFission</text><text text-anchor="end" transform="translate(-7,132.5)" font-family="sans-serif" font-size="10px" fill="#000" opacity="1">(JohT) inputPerKernelValue Transposed LoopFissionIndexArithme…</text><text text-anchor="end" transform="translate(-7,152.5)" font-family="sans-serif" font-size="10px" fill="#000" opacity="1">(matlab-like) conv 'full' shape</text><text text-anchor="end" transform="translate(-7,172.5)" font-family="sans-serif" font-size="10px" fill="#000" opacity="1">(wilczek) Inner-Loop Vectorization</text><text text-anchor="end" transform="translate(-7,192.5)" font-family="sans-serif" font-size="10px" fill="#000" opacity="1">(JohT) kernelPerInputValue Transposed</text><text text-anchor="end" transform="translate(-7,212.5)" font-family="sans-serif" font-size="10px" fill="#000" opacity="1">(JohT) kernelPerInputValue Transposed LoopFission</text><text text-anchor="end" transform="translate(-7,232.5)" font-family="sans-serif" font-size="10px" fill="#000" opacity="1">(wilczek) Outer-Loop Vectorization</text><text text-anchor="end" transform="translate(-7,252.5)" font-family="sans-serif" font-size="10px" fill="#000" opacity="1">(wilczek) Single</text><text text-anchor="end" transform="translate(-7,272.5)" font-family="sans-serif" font-size="10px" fill="#000" opacity="1">(matlab-like) conv 'valid' shape pre padded</text><text text-anchor="end" transform="translate(-7,292.5)" font-family="sans-serif" font-size="10px" fill="#000" opacity="1">(JohT) inputPerKernelValue Transposed InnerLoopUnrolled</text></g><g class="mark-rule role-axis-domain" pointer-events="none"><line transform="translate(0,0)" x2="0" y2="300" stroke="#888" stroke-width="1" opacity="1"/></g><g class="mark-text role-axis-title" pointer-events="none"><text text-anchor="middle" transform="translate(-320,150) rotate(-90) translate(0,-2)" font-family="sans-serif" font-size="11px" font-weight="bold" fill="#000" opacity="1">algorithm</text></g></g><path class="foreground" aria-hidden="true" d="" pointer-events="none" display="none"/></g></g><g class="mark-rect role-mark child_layer_0_marks" role="graphics-object" aria-roledescription="rect mark container"><path aria-label="mean execution time in µs: 72; algorithm: (JohT) kernelPerInputValue Transposed" role="graphics-symbol" aria-roledescription="bar" d="M0,181.9L73.14285714285714,181.9C75.35051724083314,181.9,77.14285714285714,183.692339902024,77.14285714285714,185.9L77.14285714285714,194.1C77.14285714285714,196.307660097976,75.35051724083314,198.1,73.14285714285714,198.1L0,198.1C0,198.1,0,198.1,0,198.1L0,181.9C0,181.9,0,181.9,0,181.9Z" fill="#4c78a8"/><path aria-label="mean execution time in µs: 23; algorithm: (JohT) inputPerKernelValue Transposed" role="graphics-symbol" aria-roledescription="bar" d="M0,1.9L20.642857142857142,1.9C22.850517240833142,1.9,24.642857142857142,3.692339902024,24.642857142857142,5.9L24.642857142857142,14.099999999999998C24.642857142857142,16.307660097975997,22.850517240833142,18.099999999999998,20.642857142857142,18.099999999999998L0,18.099999999999998C0,18.099999999999998,0,18.099999999999998,0,18.099999999999998L0,1.9C0,1.9,0,1.9,0,1.9Z" fill="#4c78a8"/><path aria-label="mean execution time in µs: 263; algorithm: (JohT) inputPerKernelValue Transposed InnerLoopUnrolled" role="graphics-symbol" aria-roledescription="bar" d="M0,281.9L277.7857142857143,281.9C279.99337438369025,281.9,281.7857142857143,283.692339902024,281.7857142857143,285.9L281.7857142857143,294.09999999999997C281.7857142857143,296.30766009797594,279.99337438369025,298.09999999999997,277.7857142857143,298.09999999999997L0,298.09999999999997C0,298.09999999999997,0,298.09999999999997,0,298.09999999999997L0,281.9C0,281.9,0,281.9,0,281.9Z" fill="#4c78a8"/><path aria-label="mean execution time in µs: 27; algorithm: (JohT) inputPerKernelValue Transposed OuterLoopUnrolled" role="graphics-symbol" aria-roledescription="bar" d="M0,21.9L24.92857142857143,21.9C27.13623152654743,21.9,28.92857142857143,23.692339902024,28.92857142857143,25.9L28.92857142857143,34.099999999999994C28.92857142857143,36.307660097976,27.13623152654743,38.099999999999994,24.92857142857143,38.099999999999994L0,38.099999999999994C0,38.099999999999994,0,38.099999999999994,0,38.099999999999994L0,21.9C0,21.9,0,21.9,0,21.9Z" fill="#4c78a8"/><path aria-label="mean execution time in µs: 57; algorithm: (JohT) inputPerKernelValue Transposed Inner&amp;OuterLoopUnrolled" role="graphics-symbol" aria-roledescription="bar" d="M0,81.9L57.07142857142857,81.9C59.27908866940457,81.9,61.07142857142857,83.692339902024,61.07142857142857,85.9L61.07142857142857,94.10000000000001C61.07142857142857,96.30766009797601,59.27908866940457,98.10000000000001,57.07142857142857,98.10000000000001L0,98.10000000000001C0,98.10000000000001,0,98.10000000000001,0,98.10000000000001L0,81.9C0,81.9,0,81.9,0,81.9Z" fill="#4c78a8"/><path aria-label="mean execution time in µs: 58; algorithm: (JohT) inputPerKernelValue Transposed LoopFission" role="graphics-symbol" aria-roledescription="bar" d="M0,101.9L58.142857142857146,101.9C60.35051724083315,101.9,62.142857142857146,103.692339902024,62.142857142857146,105.9L62.142857142857146,114.10000000000001C62.142857142857146,116.30766009797601,60.35051724083315,118.10000000000001,58.142857142857146,118.10000000000001L0,118.10000000000001C0,118.10000000000001,0,118.10000000000001,0,118.10000000000001L0,101.9C0,101.9,0,101.9,0,101.9Z" fill="#4c78a8"/><path aria-label="mean execution time in µs: 60; algorithm: (JohT) inputPerKernelValue Transposed LoopFissionIndexArithmetic" role="graphics-symbol" aria-roledescription="bar" d="M0,121.9L60.28571428571428,121.9C62.49337438369028,121.9,64.28571428571428,123.692339902024,64.28571428571428,125.9L64.28571428571428,134.1C64.28571428571428,136.307660097976,62.49337438369028,138.1,60.28571428571428,138.1L0,138.1C0,138.1,0,138.1,0,138.1L0,121.9C0,121.9,0,121.9,0,121.9Z" fill="#4c78a8"/><path aria-label="mean execution time in µs: 73; algorithm: (JohT) kernelPerInputValue Transposed LoopFission" role="graphics-symbol" aria-roledescription="bar" d="M0,201.9L74.21428571428572,201.9C76.42194581226173,201.9,78.21428571428572,203.692339902024,78.21428571428572,205.9L78.21428571428572,214.1C78.21428571428572,216.307660097976,76.42194581226173,218.1,74.21428571428572,218.1L0,218.1C0,218.1,0,218.1,0,218.1L0,201.9C0,201.9,0,201.9,0,201.9Z" fill="#4c78a8"/><path aria-label="mean execution time in µs: 64; algorithm: (matlab-like) conv 'full' shape" role="graphics-symbol" aria-roledescription="bar" d="M0,141.9L64.57142857142857,141.9C66.77908866940457,141.9,68.57142857142857,143.692339902024,68.57142857142857,145.9L68.57142857142857,154.1C68.57142857142857,156.307660097976,66.77908866940457,158.1,64.57142857142857,158.1L0,158.1C0,158.1,0,158.1,0,158.1L0,141.9C0,141.9,0,141.9,0,141.9Z" fill="#4c78a8"/><path aria-label="mean execution time in µs: 131; algorithm: (matlab-like) conv 'valid' shape pre padded" role="graphics-symbol" aria-roledescription="bar" d="M0,261.9L136.35714285714286,261.9C138.56480295511886,261.9,140.35714285714286,263.692339902024,140.35714285714286,265.9L140.35714285714286,274.09999999999997C140.35714285714286,276.30766009797594,138.56480295511886,278.09999999999997,136.35714285714286,278.09999999999997L0,278.09999999999997C0,278.09999999999997,0,278.09999999999997,0,278.09999999999997L0,261.9C0,261.9,0,261.9,0,261.9Z" fill="#4c78a8"/><path aria-label="mean execution time in µs: 118; algorithm: (wilczek) Single" role="graphics-symbol" aria-roledescription="bar" d="M0,241.9L122.42857142857143,241.9C124.63623152654743,241.9,126.42857142857143,243.692339902024,126.42857142857143,245.9L126.42857142857143,254.10000000000002C126.42857142857143,256.307660097976,124.63623152654743,258.1,122.42857142857143,258.1L0,258.1C0,258.1,0,258.1,0,258.1L0,241.9C0,241.9,0,241.9,0,241.9Z" fill="#4c78a8"/><path aria-label="mean execution time in µs: 66; algorithm: (wilczek) Inner-Loop Vectorization" role="graphics-symbol" aria-roledescription="bar" d="M0,161.9L66.71428571428571,161.9C68.92194581226171,161.9,70.71428571428571,163.692339902024,70.71428571428571,165.9L70.71428571428571,174.1C70.71428571428571,176.307660097976,68.92194581226171,178.1,66.71428571428571,178.1L0,178.1C0,178.1,0,178.1,0,178.1L0,161.9C0,161.9,0,161.9,0,161.9Z" fill="#4c78a8"/><path aria-label="mean execution time in µs: 83; algorithm: (wilczek) Outer-Loop Vectorization" role="graphics-symbol" aria-roledescription="bar" d="M0,221.9L84.92857142857143,221.9C87.13623152654743,221.9,88.92857142857143,223.692339902024,88.92857142857143,225.9L88.92857142857143,234.1C88.92857142857143,236.307660097976,87.13623152654743,238.1,84.92857142857143,238.1L0,238.1C0,238.1,0,238.1,0,238.1L0,221.9C0,221.9,0,221.9,0,221.9Z" fill="#4c78a8"/><path aria-label="mean execution time in µs: 54; algorithm: (wilczek) Outer- and Inner-Loop Vectorization" role="graphics-symbol" aria-roledescription="bar" d="M0,61.9L53.85714285714286,61.9C56.064802955118864,61.9,57.85714285714286,63.692339902023996,57.85714285714286,65.9L57.85714285714286,74.1C57.85714285714286,76.307660097976,56.064802955118864,78.1,53.85714285714286,78.1L0,78.1C0,78.1,0,78.1,0,78.1L0,61.9C0,61.9,0,61.9,0,61.9Z" fill="#4c78a8"/><path aria-label="mean execution time in µs: 34; algorithm: (chaowang15) convolve1D" role="graphics-symbol" aria-roledescription="bar" d="M0,41.9L32.42857142857143,41.9C34.636231526547434,41.9,36.42857142857143,43.692339902023996,36.42857142857143,45.9L36.42857142857143,54.099999999999994C36.42857142857143,56.307660097976,34.636231526547434,58.099999999999994,32.42857142857143,58.099999999999994L0,58.099999999999994C0,58.099999999999994,0,58.099999999999994,0,58.099999999999994L0,41.9C0,41.9,0,41.9,0,41.9Z" fill="#4c78a8"/></g><g class="mark-text role-mark child_layer_1_marks" role="graphics-object" aria-roledescription="text mark container"><text aria-label="mean execution time in µs: 72; algorithm: (JohT) kernelPerInputValue Transposed; MeanExecutionTime: 72" role="graphics-symbol" aria-roledescription="text mark" text-anchor="start" transform="translate(81.14285714285714,193)" font-family="sans-serif" font-size="9px" fill="black">72</text><text aria-label="mean execution time in µs: 23; algorithm: (JohT) inputPerKernelValue Transposed; MeanExecutionTime: 23" role="graphics-symbol" aria-roledescription="text mark" text-anchor="start" transform="translate(28.642857142857142,13)" font-family="sans-serif" font-size="9px" fill="black">23</text><text aria-label="mean execution time in µs: 263; algorithm: (JohT) inputPerKernelValue Transposed InnerLoopUnrolled; MeanExecutionTime: 263" role="graphics-symbol" aria-roledescription="text mark" text-anchor="start" transform="translate(285.7857142857143,293)" font-family="sans-serif" font-size="9px" fill="black">263</text><text aria-label="mean execution time in µs: 27; algorithm: (JohT) inputPerKernelValue Transposed OuterLoopUnrolled; MeanExecutionTime: 27" role="graphics-symbol" aria-roledescription="text mark" text-anchor="start" transform="translate(32.92857142857143,33)" font-family="sans-serif" font-size="9px" fill="black">27</text><text aria-label="mean execution time in µs: 57; algorithm: (JohT) inputPerKernelValue Transposed Inner&amp;OuterLoopUnrolled; MeanExecutionTime: 57" role="graphics-symbol" aria-roledescription="text mark" text-anchor="start" transform="translate(65.07142857142857,93)" font-family="sans-serif" font-size="9px" fill="black">57</text><text aria-label="mean execution time in µs: 58; algorithm: (JohT) inputPerKernelValue Transposed LoopFission; MeanExecutionTime: 58" role="graphics-symbol" aria-roledescription="text mark" text-anchor="start" transform="translate(66.14285714285714,113)" font-family="sans-serif" font-size="9px" fill="black">58</text><text aria-label="mean execution time in µs: 60; algorithm: (JohT) inputPerKernelValue Transposed LoopFissionIndexArithmetic; MeanExecutionTime: 60" role="graphics-symbol" aria-roledescription="text mark" text-anchor="start" transform="translate(68.28571428571428,133)" font-family="sans-serif" font-size="9px" fill="black">60</text><text aria-label="mean execution time in µs: 73; algorithm: (JohT) kernelPerInputValue Transposed LoopFission; MeanExecutionTime: 73" role="graphics-symbol" aria-roledescription="text mark" text-anchor="start" transform="translate(82.21428571428572,213)" font-family="sans-serif" font-size="9px" fill="black">73</text><text aria-label="mean execution time in µs: 64; algorithm: (matlab-like) conv 'full' shape; MeanExecutionTime: 64" role="graphics-symbol" aria-roledescription="text mark" text-anchor="start" transform="translate(72.57142857142857,153)" font-family="sans-serif" font-size="9px" fill="black">64</text><text aria-label="mean execution time in µs: 131; algorithm: (matlab-like) conv 'valid' shape pre padded; MeanExecutionTime: 131" role="graphics-symbol" aria-roledescription="text mark" text-anchor="start" transform="translate(144.35714285714286,273)" font-family="sans-serif" font-size="9px" fill="black">131</text><text aria-label="mean execution time in µs: 118; algorithm: (wilczek) Single; MeanExecutionTime: 118" role="graphics-symbol" aria-roledescription="text mark" text-anchor="start" transform="translate(130.42857142857144,253)" font-family="sans-serif" font-size="9px" fill="black">118</text><text aria-label="mean execution time in µs: 66; algorithm: (wilczek) Inner-Loop Vectorization; MeanExecutionTime: 66" role="graphics-symbol" aria-roledescription="text mark" text-anchor="start" transform="translate(74.71428571428571,173)" font-family="sans-serif" font-size="9px" fill="black">66</text><text aria-label="mean execution time in µs: 83; algorithm: (wilczek) Outer-Loop Vectorization; MeanExecutionTime: 83" role="graphics-symbol" aria-roledescription="text mark" text-anchor="start" transform="translate(92.92857142857143,233)" font-family="sans-serif" font-size="9px" fill="black">83</text><text aria-label="mean execution time in µs: 54; algorithm: (wilczek) Outer- and Inner-Loop Vectorization; MeanExecutionTime: 54" role="graphics-symbol" aria-roledescription="text mark" text-anchor="start" transform="translate(61.85714285714286,73)" font-family="sans-serif" font-size="9px" fill="black">54</text><text aria-label="mean execution time in µs: 34; algorithm: (chaowang15) convolve1D; MeanExecutionTime: 34" role="graphics-symbol" aria-roledescription="text mark" text-anchor="start" transform="translate(40.42857142857143,53)" font-family="sans-serif" font-size="9px" fill="black">34</text></g></g><path class="foreground" aria-hidden="true" d="" display="none"/></g><g transform="translate(832,0)"><path class="background" aria-hidden="true" d="M0.5,0.5h300v300h-300Z" stroke="#ddd"/><g><g class="mark-group role-axis" aria-hidden="true"><g transform="translate(0.5,300.5)"><path class="background" aria-hidden="true" d="M0,0h0v0h0Z" pointer-events="none"/><g><g class="mark-rule role-axis-grid" pointer-events="none"><line transform="translate(0,0)" x2="0" y2="-300" stroke="#ddd" stroke-width="1" opacity="1"/><line transform="translate(38,0)" x2="0" y2="-300" stroke="#ddd" stroke-width="1" opacity="1"/><line transform="translate(75,0)" x2="0" y2="-300" stroke="#ddd" stroke-width="1" opacity="1"/><line transform="translate(113,0)" x2="0" y2="-300" stroke="#ddd" stroke-width="1" opacity="1"/><line transform="translate(150,0)" x2="0" y2="-300" stroke="#ddd" stroke-width="1" opacity="1"/><line transform="translate(188,0)" x2="0" y2="-300" stroke="#ddd" stroke-width="1" opacity="1"/><line transform="translate(225,0)" x2="0" y2="-300" stroke="#ddd" stroke-width="1" opacity="1"/><line transform="translate(263,0)" x2="0" y2="-300" stroke="#ddd" stroke-width="1" opacity="1"/><line transform="translate(300,0)" x2="0" y2="-300" stroke="#ddd" stroke-width="1" opacity="1"/></g></g><path class="foreground" aria-hidden="true" d="" pointer-events="none" display="none"/></g></g><g class="mark-group role-axis" role="graphics-symbol" aria-roledescription="axis" aria-label="X-axis titled 'mean execution time in µs' for a linear scale with values from 0 to 16,000"><g transform="translate(0.5,300.5)"><path class="background" aria-hidden="true" d="M0,0h0v0h0Z" pointer-events="none"/><g><g class="mark-rule role-axis-tick" pointer-events="none"><line transform="translate(0,0)" x2="0" y2="5" stroke="#888" stroke-width="1" opacity="1"/><line transform="translate(38,0)" x2="0" y2="5" stroke="#888" stroke-width="1" opacity="1"/><line transform="translate(75,0)" x2="0" y2="5" stroke="#888" stroke-width="1" opacity="1"/><line transform="translate(113,0)" x2="0" y2="5" stroke="#888" stroke-width="1" opacity="1"/><line transform="translate(150,0)" x2="0" y2="5" stroke="#888" stroke-width="1" opacity="1"/><line transform="translate(188,0)" x2="0" y2="5" stroke="#888" stroke-width="1" opacity="1"/><line transform="translate(225,0)" x2="0" y2="5" stroke="#888" stroke-width="1" opacity="1"/><line transform="translate(263,0)" x2="0" y2="5" stroke="#888" stroke-width="1" opacity="1"/><line transform="translate(300,0)" x2="0" y2="5" stroke="#888" stroke-width="1" opacity="1"/></g><g class="mark-text role-axis-label" pointer-events="none"><text text-anchor="start" transform="translate(0,15)" font-family="sans-serif" font-size="10px" fill="#000" opacity="1">0</text><text text-anchor="middle" transform="translate(37.5,15)" font-family="sans-serif" font-size="10px" fill="#000" opacity="0">2,000</text><text text-anchor="middle" transform="translate(75,15)" font-family="sans-serif" font-size="10px" fill="#000" opacity="1">4,000</text><text text-anchor="middle" transform="translate(112.5,15)" font-family="sans-serif" font-size="10px" fill="#000" opacity="0">6,000</text><text text-anchor="middle" transform="translate(150,15)" font-family="sans-serif" font-size="10px" fill="#000" opacity="1">8,000</text><text text-anchor="middle" transform="translate(187.5,15)" font-family="sans-serif" font-size="10px" fill="#000" opacity="0">10,000</text><text text-anchor="middle" transform="translate(225,15)" font-family="sans-serif" font-size="10px" fill="#000" opacity="1">12,000</text><text text-anchor="middle" transform="translate(262.5,15)" font-family="sans-serif" font-size="10px" fill="#000" opacity="0">14,000</text><text text-anchor="end" transform="translate(300,15)" font-family="sans-serif" font-size="10px" fill="#000" opacity="1">16,000</text></g><g class="mark-rule role-axis-domain" pointer-events="none"><line transform="translate(0,0)" x2="300" y2="0" stroke="#888" stroke-width="1" opacity="1"/></g><g class="mark-text role-axis-title" pointer-events="none"><text text-anchor="middle" transform="translate(150,30)" font-family="sans-serif" font-size="11px" font-weight="bold" fill="#000" opacity="1">mean execution time in µs</text></g></g><path class="foreground" aria-hidden="true" d="" pointer-events="none" display="none"/></g></g><g class="mark-group role-axis" role="graphics-symbol" aria-roledescription="axis" aria-label="Y-axis titled 'algorithm' for a discrete scale with 15 values: (matlab-like) conv 'full' shape, (JohT) inputPerKernelValue Transposed, (wilczek) Single, (JohT) kernelPerInputValue Transposed, (JohT) inputPerKernelValue Transposed OuterLoopUnrolled, ending with (matlab-like) conv 'valid' shape pre padded"><g transform="translate(0.5,0.5)"><path class="background" aria-hidden="true" d="M0,0h0v0h0Z" pointer-events="none"/><g><g class="mark-rule role-axis-tick" pointer-events="none"><line transform="translate(0,10)" x2="-5" y2="0" stroke="#888" stroke-width="1" opacity="1"/><line transform="translate(0,30)" x2="-5" y2="0" stroke="#888" stroke-width="1" opacity="1"/><line transform="translate(0,50)" x2="-5" y2="0" stroke="#888" stroke-width="1" opacity="1"/><line transform="translate(0,70)" x2="-5" y2="0" stroke="#888" stroke-width="1" opacity="1"/><line transform="translate(0,90)" x2="-5" y2="0" stroke="#888" stroke-width="1" opacity="1"/><line transform="translate(0,110)" x2="-5" y2="0" stroke="#888" stroke-width="1" opacity="1"/><line transform="translate(0,130)" x2="-5" y2="0" stroke="#888" stroke-width="1" opacity="1"/><line transform="translate(0,150)" x2="-5" y2="0" stroke="#888" stroke-width="1" opacity="1"/><line transform="translate(0,170)" x2="-5" y2="0" stroke="#888" stroke-width="1" opacity="1"/><line transform="translate(0,190)" x2="-5" y2="0" stroke="#888" stroke-width="1" opacity="1"/><line transform="translate(0,210)" x2="-5" y2="0" stroke="#888" stroke-width="1" opacity="1"/><line transform="translate(0,230)" x2="-5" y2="0" stroke="#888" stroke-width="1" opacity="1"/><line transform="translate(0,250)" x2="-5" y2="0" stroke="#888" stroke-width="1" opacity="1"/><line transform="translate(0,270)" x2="-5" y2="0" stroke="#888" stroke-width="1" opacity="1"/><line transform="translate(0,290)" x2="-5" y2="0" stroke="#888" stroke-width="1" opacity="1"/></g><g class="mark-text role-axis-label" pointer-events="none"><text text-anchor="end" transform="translate(-7,12.5)" font-family="sans-serif" font-size="10px" fill="#000" opacity="1">(matlab-like) conv 'full' shape</text><text text-anchor="end" transform="translate(-7,32.5)" font-family="sans-serif" font-size="10px" fill="#000" opacity="1">(JohT) inputPerKernelValue Transposed</text><text text-anchor="end" transform="translate(-7,52.5)" font-family="sans-serif" font-size="10px" fill="#000" opacity="1">(wilczek) Single</text><text text-anchor="end" transform="translate(-7,72.5)" font-family="sans-serif" font-size="10px" fill="#000" opacity="1">(JohT) kernelPerInputValue Transposed</text><text text-anchor="end" transform="translate(-7,92.5)" font-family="sans-serif" font-size="10px" fill="#000" opacity="1">(JohT) inputPerKernelValue Transposed OuterLoopUnrolled</text><text text-anchor="end" transform="translate(-7,112.5)" font-family="sans-serif" font-size="10px" fill="#000" opacity="1">(chaowang15) convolve1D</text><text text-anchor="end" transform="translate(-7,132.5)" font-family="sans-serif" font-size="10px" fill="#000" opacity="1">(JohT) kernelPerInputValue Transposed LoopFission</text><text text-anchor="end" transform="translate(-7,152.5)" font-family="sans-serif" font-size="10px" fill="#000" opacity="1">(JohT) inputPerKernelValue Transposed Inner&amp;OuterLoopUnrolled</text><text text-anchor="end" transform="translate(-7,172.5)" font-family="sans-serif" font-size="10px" fill="#000" opacity="1">(JohT) inputPerKernelValue Transposed LoopFission</text><text text-anchor="end" transform="translate(-7,192.5)" font-family="sans-serif" font-size="10px" fill="#000" opacity="1">(JohT) inputPerKernelValue Transposed LoopFissionIndexArithme…</text><text text-anchor="end" transform="translate(-7,212.5)" font-family="sans-serif" font-size="10px" fill="#000" opacity="1">(wilczek) Inner-Loop Vectorization</text><text text-anchor="end" transform="translate(-7,232.5)" font-family="sans-serif" font-size="10px" fill="#000" opacity="1">(wilczek) Outer- and Inner-Loop Vectorization</text><text text-anchor="end" transform="translate(-7,252.5)" font-family="sans-serif" font-size="10px" fill="#000" opacity="1">(wilczek) Outer-Loop Vectorization</text><text text-anchor="end" transform="translate(-7,272.5)" font-family="sans-serif" font-size="10px" fill="#000" opacity="1">(JohT) inputPerKernelValue Transposed InnerLoopUnrolled</text><text text-anchor="end" transform="translate(-7,292.5)" font-family="sans-serif" font-size="10px" fill="#000" opacity="1">(matlab-like) conv 'valid' shape pre padded</text></g><g class="mark-rule role-axis-domain" pointer-events="none"><line transform="translate(0,0)" x2="0" y2="300" stroke="#888" stroke-width="1" opacity="1"/></g><g class="mark-text role-axis-title" pointer-events="none"><text text-anchor="middle" transform="translate(-320,150) rotate(-90) translate(0,-2)" font-family="sans-serif" font-size="11px" font-weight="bold" fill="#000" opacity="1">algorithm</text></g></g><path class="foreground" aria-hidden="true" d="" pointer-events="none" display="none"/></g></g><g class="mark-rect role-mark child_layer_0_marks" role="graphics-object" aria-roledescription="rect mark container"><path aria-label="mean execution time in µs: 749; algorithm: (JohT) kernelPerInputValue Transposed" role="graphics-symbol" aria-roledescription="bar" d="M0,61.9L10.04375,61.9C12.251410097975999,61.9,14.04375,63.692339902023996,14.04375,65.9L14.04375,74.1C14.04375,76.307660097976,12.251410097975999,78.1,10.04375,78.1L0,78.1C0,78.1,0,78.1,0,78.1L0,61.9C0,61.9,0,61.9,0,61.9Z" fill="#4c78a8"/><path aria-label="mean execution time in µs: 713; algorithm: (JohT) inputPerKernelValue Transposed" role="graphics-symbol" aria-roledescription="bar" d="M0,21.9L9.368749999999999,21.9C11.576410097975998,21.9,13.368749999999999,23.692339902024,13.368749999999999,25.9L13.368749999999999,34.099999999999994C13.368749999999999,36.307660097976,11.576410097975998,38.099999999999994,9.368749999999999,38.099999999999994L0,38.099999999999994C0,38.099999999999994,0,38.099999999999994,0,38.099999999999994L0,21.9C0,21.9,0,21.9,0,21.9Z" fill="#4c78a8"/><path aria-label="mean execution time in µs: 8498; algorithm: (JohT) inputPerKernelValue Transposed InnerLoopUnrolled" role="graphics-symbol" aria-roledescription="bar" d="M0,261.9L155.33749999999998,261.9C157.54516009797598,261.9,159.33749999999998,263.692339902024,159.33749999999998,265.9L159.33749999999998,274.09999999999997C159.33749999999998,276.30766009797594,157.54516009797598,278.09999999999997,155.33749999999998,278.09999999999997L0,278.09999999999997C0,278.09999999999997,0,278.09999999999997,0,278.09999999999997L0,261.9C0,261.9,0,261.9,0,261.9Z" fill="#4c78a8"/><path aria-label="mean execution time in µs: 847; algorithm: (JohT) inputPerKernelValue Transposed OuterLoopUnrolled" role="graphics-symbol" aria-roledescription="bar" d="M0,81.9L11.88125,81.9C14.088910097976,81.9,15.88125,83.692339902024,15.88125,85.9L15.88125,94.10000000000001C15.88125,96.30766009797601,14.088910097976,98.10000000000001,11.88125,98.10000000000001L0,98.10000000000001C0,98.10000000000001,0,98.10000000000001,0,98.10000000000001L0,81.9C0,81.9,0,81.9,0,81.9Z" fill="#4c78a8"/><path aria-label="mean execution time in µs: 1725; algorithm: (JohT) inputPerKernelValue Transposed Inner&amp;OuterLoopUnrolled" role="graphics-symbol" aria-roledescription="bar" d="M0,141.9L28.34375,141.9C30.551410097976,141.9,32.34375,143.692339902024,32.34375,145.9L32.34375,154.1C32.34375,156.307660097976,30.551410097976,158.1,28.34375,158.1L0,158.1C0,158.1,0,158.1,0,158.1L0,141.9C0,141.9,0,141.9,0,141.9Z" fill="#4c78a8"/><path aria-label="mean execution time in µs: 1845; algorithm: (JohT) inputPerKernelValue Transposed LoopFission" role="graphics-symbol" aria-roledescription="bar" d="M0,161.9L30.59375,161.9C32.801410097976,161.9,34.59375,163.692339902024,34.59375,165.9L34.59375,174.1C34.59375,176.307660097976,32.801410097976,178.1,30.59375,178.1L0,178.1C0,178.1,0,178.1,0,178.1L0,161.9C0,161.9,0,161.9,0,161.9Z" fill="#4c78a8"/><path aria-label="mean execution time in µs: 1852; algorithm: (JohT) inputPerKernelValue Transposed LoopFissionIndexArithmetic" role="graphics-symbol" aria-roledescription="bar" d="M0,181.9L30.725,181.9C32.932660097976004,181.9,34.725,183.692339902024,34.725,185.9L34.725,194.1C34.725,196.307660097976,32.932660097976004,198.1,30.725,198.1L0,198.1C0,198.1,0,198.1,0,198.1L0,181.9C0,181.9,0,181.9,0,181.9Z" fill="#4c78a8"/><path aria-label="mean execution time in µs: 1199; algorithm: (JohT) kernelPerInputValue Transposed LoopFission" role="graphics-symbol" aria-roledescription="bar" d="M0,121.9L18.481250000000003,121.9C20.688910097976002,121.9,22.481250000000003,123.692339902024,22.481250000000003,125.9L22.481250000000003,134.1C22.481250000000003,136.307660097976,20.688910097976002,138.1,18.481250000000003,138.1L0,138.1C0,138.1,0,138.1,0,138.1L0,121.9C0,121.9,0,121.9,0,121.9Z" fill="#4c78a8"/><path aria-label="mean execution time in µs: 689; algorithm: (matlab-like) conv 'full' shape" role="graphics-symbol" aria-roledescription="bar" d="M0,1.9L8.91875,1.9C11.126410097975999,1.9,12.91875,3.692339902024,12.91875,5.9L12.91875,14.099999999999998C12.91875,16.307660097975997,11.126410097975999,18.099999999999998,8.91875,18.099999999999998L0,18.099999999999998C0,18.099999999999998,0,18.099999999999998,0,18.099999999999998L0,1.9C0,1.9,0,1.9,0,1.9Z" fill="#4c78a8"/><path aria-label="mean execution time in µs: 14577; algorithm: (matlab-like) conv 'valid' shape pre padded" role="graphics-symbol" aria-roledescription="bar" d="M0,281.9L269.31875,281.9C271.526410097976,281.9,273.31875,283.692339902024,273.31875,285.9L273.31875,294.09999999999997C273.31875,296.30766009797594,271.526410097976,298.09999999999997,269.31875,298.09999999999997L0,298.09999999999997C0,298.09999999999997,0,298.09999999999997,0,298.09999999999997L0,281.9C0,281.9,0,281.9,0,281.9Z" fill="#4c78a8"/><path aria-label="mean execution time in µs: 729; algorithm: (wilczek) Single" role="graphics-symbol" aria-roledescription="bar" d="M0,41.9L9.66875,41.9C11.876410097975999,41.9,13.66875,43.692339902023996,13.66875,45.9L13.66875,54.099999999999994C13.66875,56.307660097976,11.876410097975999,58.099999999999994,9.66875,58.099999999999994L0,58.099999999999994C0,58.099999999999994,0,58.099999999999994,0,58.099999999999994L0,41.9C0,41.9,0,41.9,0,41.9Z" fill="#4c78a8"/><path aria-label="mean execution time in µs: 1978; algorithm: (wilczek) Inner-Loop Vectorization" role="graphics-symbol" aria-roledescription="bar" d="M0,201.9L33.0875,201.9C35.295160097976,201.9,37.0875,203.692339902024,37.0875,205.9L37.0875,214.1C37.0875,216.307660097976,35.295160097976,218.1,33.0875,218.1L0,218.1C0,218.1,0,218.1,0,218.1L0,201.9C0,201.9,0,201.9,0,201.9Z" fill="#4c78a8"/><path aria-label="mean execution time in µs: 3489; algorithm: (wilczek) Outer-Loop Vectorization" role="graphics-symbol" aria-roledescription="bar" d="M0,241.9L61.41875,241.9C63.626410097976006,241.9,65.41875,243.692339902024,65.41875,245.9L65.41875,254.10000000000002C65.41875,256.307660097976,63.626410097976006,258.1,61.41875,258.1L0,258.1C0,258.1,0,258.1,0,258.1L0,241.9C0,241.9,0,241.9,0,241.9Z" fill="#4c78a8"/><path aria-label="mean execution time in µs: 2717; algorithm: (wilczek) Outer- and Inner-Loop Vectorization" role="graphics-symbol" aria-roledescription="bar" d="M0,221.9L46.94375,221.9C49.151410097976004,221.9,50.94375,223.692339902024,50.94375,225.9L50.94375,234.1C50.94375,236.307660097976,49.151410097976004,238.1,46.94375,238.1L0,238.1C0,238.1,0,238.1,0,238.1L0,221.9C0,221.9,0,221.9,0,221.9Z" fill="#4c78a8"/><path aria-label="mean execution time in µs: 856; algorithm: (chaowang15) convolve1D" role="graphics-symbol" aria-roledescription="bar" d="M0,101.9L12.05,101.9C14.257660097976,101.9,16.05,103.692339902024,16.05,105.9L16.05,114.10000000000001C16.05,116.30766009797601,14.257660097976,118.10000000000001,12.05,118.10000000000001L0,118.10000000000001C0,118.10000000000001,0,118.10000000000001,0,118.10000000000001L0,101.9C0,101.9,0,101.9,0,101.9Z" fill="#4c78a8"/></g><g class="mark-text role-mark child_layer_1_marks" role="graphics-object" aria-roledescription="text mark container"><text aria-label="mean execution time in µs: 749; algorithm: (JohT) kernelPerInputValue Transposed; MeanExecutionTime: 749" role="graphics-symbol" aria-roledescription="text mark" text-anchor="start" transform="translate(18.04375,73)" font-family="sans-serif" font-size="9px" fill="black">749</text><text aria-label="mean execution time in µs: 713; algorithm: (JohT) inputPerKernelValue Transposed; MeanExecutionTime: 713" role="graphics-symbol" aria-roledescription="text mark" text-anchor="start" transform="translate(17.36875,33)" font-family="sans-serif" font-size="9px" fill="black">713</text><text aria-label="mean execution time in µs: 8498; algorithm: (JohT) inputPerKernelValue Transposed InnerLoopUnrolled; MeanExecutionTime: 8498" role="graphics-symbol" aria-roledescription="text mark" text-anchor="start" transform="translate(163.33749999999998,273)" font-family="sans-serif" font-size="9px" fill="black">8498</text><text aria-label="mean execution time in µs: 847; algorithm: (JohT) inputPerKernelValue Transposed OuterLoopUnrolled; MeanExecutionTime: 847" role="graphics-symbol" aria-roledescription="text mark" text-anchor="start" transform="translate(19.88125,93)" font-family="sans-serif" font-size="9px" fill="black">847</text><text aria-label="mean execution time in µs: 1725; algorithm: (JohT) inputPerKernelValue Transposed Inner&amp;OuterLoopUnrolled; MeanExecutionTime: 1725" role="graphics-symbol" aria-roledescription="text mark" text-anchor="start" transform="translate(36.34375,153)" font-family="sans-serif" font-size="9px" fill="black">1725</text><text aria-label="mean execution time in µs: 1845; algorithm: (JohT) inputPerKernelValue Transposed LoopFission; MeanExecutionTime: 1845" role="graphics-symbol" aria-roledescription="text mark" text-anchor="start" transform="translate(38.59375,173)" font-family="sans-serif" font-size="9px" fill="black">1845</text><text aria-label="mean execution time in µs: 1852; algorithm: (JohT) inputPerKernelValue Transposed LoopFissionIndexArithmetic; MeanExecutionTime: 1852" role="graphics-symbol" aria-roledescription="text mark" text-anchor="start" transform="translate(38.725,193)" font-family="sans-serif" font-size="9px" fill="black">1852</text><text aria-label="mean execution time in µs: 1199; algorithm: (JohT) kernelPerInputValue Transposed LoopFission; MeanExecutionTime: 1199" role="graphics-symbol" aria-roledescription="text mark" text-anchor="start" transform="translate(26.481250000000003,133)" font-family="sans-serif" font-size="9px" fill="black">1199</text><text aria-label="mean execution time in µs: 689; algorithm: (matlab-like) conv 'full' shape; MeanExecutionTime: 689" role="graphics-symbol" aria-roledescription="text mark" text-anchor="start" transform="translate(16.91875,13)" font-family="sans-serif" font-size="9px" fill="black">689</text><text aria-label="mean execution time in µs: 14577; algorithm: (matlab-like) conv 'valid' shape pre padded; MeanExecutionTime: 14577" role="graphics-symbol" aria-roledescription="text mark" text-anchor="start" transform="translate(277.31875,293)" font-family="sans-serif" font-size="9px" fill="black">14577</text><text aria-label="mean execution time in µs: 729; algorithm: (wilczek) Single; MeanExecutionTime: 729" role="graphics-symbol" aria-roledescription="text mark" text-anchor="start" transform="translate(17.66875,53)" font-family="sans-serif" font-size="9px" fill="black">729</text><text aria-label="mean execution time in µs: 1978; algorithm: (wilczek) Inner-Loop Vectorization; MeanExecutionTime: 1978" role="graphics-symbol" aria-roledescription="text mark" text-anchor="start" transform="translate(41.0875,213)" font-family="sans-serif" font-size="9px" fill="black">1978</text><text aria-label="mean execution time in µs: 3489; algorithm: (wilczek) Outer-Loop Vectorization; MeanExecutionTime: 3489" role="graphics-symbol" aria-roledescription="text mark" text-anchor="start" transform="translate(69.41875,253)" font-family="sans-serif" font-size="9px" fill="black">3489</text><text aria-label="mean execution time in µs: 2717; algorithm: (wilczek) Outer- and Inner-Loop Vectorization; MeanExecutionTime: 2717" role="graphics-symbol" aria-roledescription="text mark" text-anchor="start" transform="translate(54.94375,233)" font-family="sans-serif" font-size="9px" fill="black">2717</text><text aria-label="mean execution time in µs: 856; algorithm: (chaowang15) convolve1D; MeanExecutionTime: 856" role="graphics-symbol" aria-roledescription="text mark" text-anchor="start" transform="translate(20.05,113)" font-family="sans-serif" font-size="9px" fill="black">856</text></g></g><path class="foreground" aria-hidden="true" d="" display="none"/></g></g></g><path class="foreground" aria-hidden="true" d="" display="none"/></g></g></g></svg>