<svg xmlns="http://www.w3.org/2000/svg" xmlns:xlink="http://www.w3.org/1999/xlink" version="1.1" class="marks" width="1666" height="404" viewBox="0 0 1666 404"><rect width="1666" height="404" fill="white"/><g fill="none" stroke-miterlimit="10" transform="translate(509,66)"><g class="mark-group role-frame root" role="graphics-object" aria-roledescription="group mark container"><g transform="translate(0,0)"><path class="background" aria-hidden="true" d="M0,0h0v0h0Z"/><g><g class="mark-group role-column-title column-title" role="graphics-object" aria-roledescription="group mark container"><g transform="translate(324,-35)"><path class="background" aria-hidden="true" d="M0,0h0v0h0Z"/><g><g class="mark-group role-title"><g transform="translate(0,-26)"><path class="background" aria-hidden="true" d="M0,0h0v0h0Z" pointer-events="none"/><g><g class="mark-text role-title-text" role="graphics-symbol" aria-roledescription="title" aria-label="Title text 'Convolution Benchmarks'" pointer-events="none"><text text-anchor="middle" transform="translate(0,13)" font-family="sans-serif" font-size="16px" font-weight="bold" fill="#000" opacity="1">Convolution Benchmarks</text></g></g><path class="foreground" aria-hidden="true" d="" pointer-events="none" display="none"/></g></g></g><path class="foreground" aria-hidden="true" d="" display="none"/></g></g><g class="mark-group role-column-header column_header" role="graphics-object" aria-roledescription="group mark container"><g transform="translate(0,-1)"><path class="background" aria-hidden="true" d="M0,0h300v0h-300Z"/><g><g class="mark-group role-title"><g transform="translate(150,-24)"><path class="background" aria-hidden="true" d="M0,0h0v0h0Z" pointer-events="none"/><g><g class="mark-text role-title-text" role="graphics-symbol" aria-roledescription="title" aria-label="Title text 'kernel size 16'" pointer-events="none"><text text-anchor="middle" transform="translate(0,11)" font-family="sans-serif" font-size="14px" fill="#000" opacity="1">kernel size 16</text></g></g><path class="foreground" aria-hidden="true" d="" pointer-events="none" display="none"/></g></g></g><path class="foreground" aria-hidden="true" d="" display="none"/></g><g transform="translate(831,-1)"><path class="background" aria-hidden="true" d="M0,0h300v0h-300Z"/><g><g class="mark-group role-title"><g transform="translate(150,-24)"><path class="background" aria-hidden="true" d="M0,0h0v0h0Z" pointer-events="none"/><g><g class="mark-text role-title-text" role="graphics-symbol" aria-roledescription="title" aria-label="Title text 'kernel size 512'" pointer-events="none"><text text-anchor="middle" transform="translate(0,11)" font-family="sans-serif" font-size="14px" fill="#000" opacity="1">kernel size 512</text></g></g><path class="foreground" aria-hidden="true" d="" pointer-events="none" display="none"/></g></g></g><path class="foreground" aria-hidden="true" d="" display="none"/></g></g><g class="mark-group role-scope cell" role="graphics-object" aria-roledescription="group mark container"><g transform="translate(0,0)"><path class="background" aria-hidden="true" d="M0.5,0.5h300v300h-300Z" stroke="#ddd"/><g><g class="mark-group role-axis" aria-hidden="true"><g transform="translate(0.5,300.5)"><path class="background" aria-hidden="true" d="M0,0h0v0h0Z" pointer-events="none"/><g><g class="mark-rule role-axis-grid" pointer-events="none"><line transform="translate(0,0)" x2="0" y2="-300" stroke="#ddd" stroke-width="1" opacity="1"/><line transform="translate(58,0)" x2="0" y2="-300" stroke="#ddd" stroke-width="1" opacity="1"/><line transform="translate(115,0)" x2="0" y2="-300" stroke="#ddd" stroke-width="1" opacity="1"/><line transform="translate(173,0)" x2="0" y2="-300" stroke="#ddd" stroke-width="1" opacity="1"/><line transform="translate(231,0)" x2="0" y2="-300" stroke="#ddd" stroke-width="1" opacity="1"/><line transform="translate(288,0)" x2="0" y2="-300" stroke="#ddd" stroke-width="1" opacity="1"/></g></g><path class="foreground" aria-hidden="true" d="" pointer-events="none" display="none"/></g></g><g class="mark-group role-axis" role="graphics-symbol" aria-roledescription="axis" aria-label="X-axis titled 'mean execution time in µs' for a linear scale with values from 0 to 260"><g transform="translate(0.5,300.5)"><path class="background" aria-hidden="true" d="M0,0h0v0h0Z" pointer-events="none"/><g><g class="mark-rule role-axis-tick" pointer-events="none"><line transform="translate(0,0)" x2="0" y2="5" stroke="#888" stroke-width="1" opacity="1"/><line transform="translate(58,0)" x2="0" y2="5" stroke="#888" stroke-width="1" opacity="1"/><line transform="translate(115,0)" x2="0" y2="5" stroke="#888" stroke-width="1" opacity="1"/><line transform="translate(173,0)" x2="0" y2="5" stroke="#888" stroke-width="1" opacity="1"/><line transform="translate(231,0)" x2="0" y2="5" stroke="#888" stroke-width="1" opacity="1"/><line transform="translate(288,0)" x2="0" y2="5" stroke="#888" stroke-width="1" opacity="1"/></g><g class="mark-text role-axis-label" pointer-events="none"><text text-anchor="start" transform="translate(0,15)" font-family="sans-serif" font-size="10px" fill="#000" opacity="1">0</text><text text-anchor="middle" transform="translate(57.69230769230769,15)" font-family="sans-serif" font-size="10px" fill="#000" opacity="1">50</text><text text-anchor="middle" transform="translate(115.38461538461539,15)" font-family="sans-serif" font-size="10px" fill="#000" opacity="1">100</text><text text-anchor="middle" transform="translate(173.07692307692307,15)" font-family="sans-serif" font-size="10px" fill="#000" opacity="1">150</text><text text-anchor="middle" transform="translate(230.76923076923077,15)" font-family="sans-serif" font-size="10px" fill="#000" opacity="1">200</text><text text-anchor="middle" transform="translate(288.46153846153845,15)" font-family="sans-serif" font-size="10px" fill="#000" opacity="1">250</text></g><g class="mark-rule role-axis-domain" pointer-events="none"><line transform="translate(0,0)" x2="300" y2="0" stroke="#888" stroke-width="1" opacity="1"/></g><g class="mark-text role-axis-title" pointer-events="none"><text text-anchor="middle" transform="translate(150,30)" font-family="sans-serif" font-size="11px" font-weight="bold" fill="#000" opacity="1">mean execution time in µs</text></g></g><path class="foreground" aria-hidden="true" d="" pointer-events="none" display="none"/></g></g><g class="mark-group role-axis" role="graphics-symbol" aria-roledescription="axis" aria-label="Y-axis titled 'algorithm' for a discrete scale with 15 values: (JohT) inputPerKernelValue Transposed, (JohT) inputPerKernelValue Transposed OuterLoopUnrolled, (chaowang15) convolve1D, (wilczek) Outer- and Inner-Loop Vectorization, (JohT) inputPerKernelValue Transposed Inner&amp;OuterLoopUnrolled, ending with (JohT) inputPerKernelValue Transposed InnerLoopUnrolled"><g transform="translate(0.5,0.5)"><path class="background" aria-hidden="true" d="M0,0h0v0h0Z" pointer-events="none"/><g><g class="mark-rule role-axis-tick" pointer-events="none"><line transform="translate(0,10)" x2="-5" y2="0" stroke="#888" stroke-width="1" opacity="1"/><line transform="translate(0,30)" x2="-5" y2="0" stroke="#888" stroke-width="1" opacity="1"/><line transform="translate(0,50)" x2="-5" y2="0" stroke="#888" stroke-width="1" opacity="1"/><line transform="translate(0,70)" x2="-5" y2="0" stroke="#888" stroke-width="1" opacity="1"/><line transform="translate(0,90)" x2="-5" y2="0" stroke="#888" stroke-width="1" opacity="1"/><line transform="translate(0,110)" x2="-5" y2="0" stroke="#888" stroke-width="1" opacity="1"/><line transform="translate(0,130)" x2="-5" y2="0" stroke="#888" stroke-width="1" opacity="1"/><line transform="translate(0,150)" x2="-5" y2="0" stroke="#888" stroke-width="1" opacity="1"/><line transform="translate(0,170)" x2="-5" y2="0" stroke="#888" stroke-width="1" opacity="1"/><line transform="translate(0,190)" x2="-5" y2="0" stroke="#888" stroke-width="1" opacity="1"/><line transform="translate(0,210)" x2="-5" y2="0" stroke="#888" stroke-width="1" opacity="1"/><line transform="translate(0,230)" x2="-5" y2="0" stroke="#888" stroke-width="1" opacity="1"/><line transform="translate(0,250)" x2="-5" y2="0" stroke="#888" stroke-width="1" opacity="1"/><line transform="translate(0,270)" x2="-5" y2="0" stroke="#888" stroke-width="1" opacity="1"/><line transform="translate(0,290)" x2="-5" y2="0" stroke="#888" stroke-width="1" opacity="1"/></g><g class="mark-text role-axis-label" pointer-events="none"><text text-anchor="end" transform="translate(-7,12.5)" font-family="sans-serif" font-size="10px" fill="#000" opacity="1">(JohT) inputPerKernelValue Transposed</text><text text-anchor="end" transform="translate(-7,32.5)" font-family="sans-serif" font-size="10px" fill="#000" opacity="1">(JohT) inputPerKernelValue Transposed OuterLoopUnrolled</text><text text-anchor="end" transform="translate(-7,52.5)" font-family="sans-serif" font-size="10px" fill="#000" opacity="1">(chaowang15) convolve1D</text><text text-anchor="end" transform="translate(-7,72.5)" font-family="sans-serif" font-size="10px" fill="#000" opacity="1">(wilczek) Outer- and Inner-Loop Vectorization</text><text text-anchor="end" transform="translate(-7,92.5)" font-family="sans-serif" font-size="10px" fill="#000" opacity="1">(JohT) inputPerKernelValue Transposed Inner&amp;OuterLoopUnrolled</text><text text-anchor="end" transform="translate(-7,112.5)" font-family="sans-serif" font-size="10px" fill="#000" opacity="1">(JohT) inputPerKernelValue Transposed LoopFission</text><text text-anchor="end" transform="translate(-7,132.5)" font-family="sans-serif" font-size="10px" fill="#000" opacity="1">(JohT) inputPerKernelValue Transposed LoopFissionIndexArithme…</text><text text-anchor="end" transform="translate(-7,152.5)" font-family="sans-serif" font-size="10px" fill="#000" opacity="1">(matlab-like) conv 'full' shape</text><text text-anchor="end" transform="translate(-7,172.5)" font-family="sans-serif" font-size="10px" fill="#000" opacity="1">(wilczek) Inner-Loop Vectorization</text><text text-anchor="end" transform="translate(-7,192.5)" font-family="sans-serif" font-size="10px" fill="#000" opacity="1">(JohT) kernelPerInputValue Transposed</text><text text-anchor="end" transform="translate(-7,212.5)" font-family="sans-serif" font-size="10px" fill="#000" opacity="1">(JohT) kernelPerInputValue Transposed LoopFission</text><text text-anchor="end" transform="translate(-7,232.5)" font-family="sans-serif" font-size="10px" fill="#000" opacity="1">(wilczek) Outer-Loop Vectorization</text><text text-anchor="end" transform="translate(-7,252.5)" font-family="sans-serif" font-size="10px" fill="#000" opacity="1">(wilczek) Single</text><text text-anchor="end" transform="translate(-7,272.5)" font-family="sans-serif" font-size="10px" fill="#000" opacity="1">(matlab-like) conv 'valid' shape pre padded</text><text text-anchor="end" transform="translate(-7,292.5)" font-family="sans-serif" font-size="10px" fill="#000" opacity="1">(JohT) inputPerKernelValue Transposed InnerLoopUnrolled</text></g><g class="mark-rule role-axis-domain" pointer-events="none"><line transform="translate(0,0)" x2="0" y2="300" stroke="#888" stroke-width="1" opacity="1"/></g><g class="mark-text role-axis-title" pointer-events="none"><text text-anchor="middle" transform="translate(-320,150) rotate(-90) translate(0,-2)" font-family="sans-serif" font-size="11px" font-weight="bold" fill="#000" opacity="1">algorithm</text></g></g><path class="foreground" aria-hidden="true" d="" pointer-events="none" display="none"/></g></g><g class="mark-rect role-mark child_layer_0_marks" role="graphics-object" aria-roledescription="rect mark container"><path aria-label="mean execution time in µs: 66; algorithm: (JohT) kernelPerInputValue Transposed" role="graphics-symbol" aria-roledescription="bar" d="M0,181.9L72.15384615384615,181.9C74.36150625182215,181.9,76.15384615384615,183.692339902024,76.15384615384615,185.9L76.15384615384615,194.1C76.15384615384615,196.307660097976,74.36150625182215,198.1,72.15384615384615,198.1L0,198.1C0,198.1,0,198.1,0,198.1L0,181.9C0,181.9,0,181.9,0,181.9Z" fill="#4c78a8"/><path aria-label="mean execution time in µs: 21; algorithm: (JohT) inputPerKernelValue Transposed" role="graphics-symbol" aria-roledescription="bar" d="M0,1.9L20.230769230769234,1.9C22.438429328745233,1.9,24.230769230769234,3.692339902024,24.230769230769234,5.9L24.230769230769234,14.099999999999998C24.230769230769234,16.307660097975997,22.438429328745233,18.099999999999998,20.230769230769234,18.099999999999998L0,18.099999999999998C0,18.099999999999998,0,18.099999999999998,0,18.099999999999998L0,1.9C0,1.9,0,1.9,0,1.9Z" fill="#4c78a8"/><path aria-label="mean execution time in µs: 243; algorithm: (JohT) inputPerKernelValue Transposed InnerLoopUnrolled" role="graphics-symbol" aria-roledescription="bar" d="M0,281.9L276.3846153846154,281.9C278.5922754825914,281.9,280.3846153846154,283.692339902024,280.3846153846154,285.9L280.3846153846154,294.09999999999997C280.3846153846154,296.30766009797594,278.5922754825914,298.09999999999997,276.3846153846154,298.09999999999997L0,298.09999999999997C0,298.09999999999997,0,298.09999999999997,0,298.09999999999997L0,281.9C0,281.9,0,281.9,0,281.9Z" fill="#4c78a8"/><path aria-label="mean execution time in µs: 27; algorithm: (JohT) inputPerKernelValue Transposed OuterLoopUnrolled" role="graphics-symbol" aria-roledescription="bar" d="M0,21.9L27.153846153846157,21.9C29.361506251822156,21.9,31.153846153846157,23.692339902024,31.153846153846157,25.9L31.153846153846157,34.099999999999994C31.153846153846157,36.307660097976,29.361506251822156,38.099999999999994,27.153846153846157,38.099999999999994L0,38.099999999999994C0,38.099999999999994,0,38.099999999999994,0,38.099999999999994L0,21.9C0,21.9,0,21.9,0,21.9Z" fill="#4c78a8"/><path aria-label="mean execution time in µs: 51; algorithm: (JohT) inputPerKernelValue Transposed Inner&amp;OuterLoopUnrolled" role="graphics-symbol" aria-roledescription="bar" d="M0,81.9L54.84615384615385,81.9C57.05381394412985,81.9,58.84615384615385,83.692339902024,58.84615384615385,85.9L58.84615384615385,94.10000000000001C58.84615384615385,96.30766009797601,57.05381394412985,98.10000000000001,54.84615384615385,98.10000000000001L0,98.10000000000001C0,98.10000000000001,0,98.10000000000001,0,98.10000000000001L0,81.9C0,81.9,0,81.9,0,81.9Z" fill="#4c78a8"/><path aria-label="mean execution time in µs: 54; algorithm: (JohT) inputPerKernelValue Transposed LoopFission" role="graphics-symbol" aria-roledescription="bar" d="M0,101.9L58.307692307692314,101.9C60.51535240566832,101.9,62.307692307692314,103.692339902024,62.307692307692314,105.9L62.307692307692314,114.10000000000001C62.307692307692314,116.30766009797601,60.51535240566832,118.10000000000001,58.307692307692314,118.10000000000001L0,118.10000000000001C0,118.10000000000001,0,118.10000000000001,0,118.10000000000001L0,101.9C0,101.9,0,101.9,0,101.9Z" fill="#4c78a8"/><path aria-label="mean execution time in µs: 58; algorithm: (JohT) inputPerKernelValue Transposed LoopFissionIndexArithmetic" role="graphics-symbol" aria-roledescription="bar" d="M0,121.9L62.92307692307692,121.9C65.13073702105292,121.9,66.92307692307692,123.692339902024,66.92307692307692,125.9L66.92307692307692,134.1C66.92307692307692,136.307660097976,65.13073702105292,138.1,62.92307692307692,138.1L0,138.1C0,138.1,0,138.1,0,138.1L0,121.9C0,121.9,0,121.9,0,121.9Z" fill="#4c78a8"/><path aria-label="mean execution time in µs: 67; algorithm: (JohT) kernelPerInputValue Transposed LoopFission" role="graphics-symbol" aria-roledescription="bar" d="M0,201.9L73.30769230769229,201.9C75.5153524056683,201.9,77.30769230769229,203.692339902024,77.30769230769229,205.9L77.30769230769229,214.1C77.30769230769229,216.307660097976,75.5153524056683,218.1,73.30769230769229,218.1L0,218.1C0,218.1,0,218.1,0,218.1L0,201.9C0,201.9,0,201.9,0,201.9Z" fill="#4c78a8"/><path aria-label="mean execution time in µs: 59; algorithm: (matlab-like) conv 'full' shape" role="graphics-symbol" aria-roledescription="bar" d="M0,141.9L64.07692307692308,141.9C66.28458317489908,141.9,68.07692307692308,143.692339902024,68.07692307692308,145.9L68.07692307692308,154.1C68.07692307692308,156.307660097976,66.28458317489908,158.1,64.07692307692308,158.1L0,158.1C0,158.1,0,158.1,0,158.1L0,141.9C0,141.9,0,141.9,0,141.9Z" fill="#4c78a8"/><path aria-label="mean execution time in µs: 123; algorithm: (matlab-like) conv 'valid' shape pre padded" role="graphics-symbol" aria-roledescription="bar" d="M0,261.9L137.9230769230769,261.9C140.1307370210529,261.9,141.9230769230769,263.692339902024,141.9230769230769,265.9L141.9230769230769,274.09999999999997C141.9230769230769,276.30766009797594,140.1307370210529,278.09999999999997,137.9230769230769,278.09999999999997L0,278.09999999999997C0,278.09999999999997,0,278.09999999999997,0,278.09999999999997L0,261.9C0,261.9,0,261.9,0,261.9Z" fill="#4c78a8"/><path aria-label="mean execution time in µs: 103; algorithm: (wilczek) Single" role="graphics-symbol" aria-roledescription="bar" d="M0,241.9L114.84615384615384,241.9C117.05381394412984,241.9,118.84615384615384,243.692339902024,118.84615384615384,245.9L118.84615384615384,254.10000000000002C118.84615384615384,256.307660097976,117.05381394412984,258.1,114.84615384615384,258.1L0,258.1C0,258.1,0,258.1,0,258.1L0,241.9C0,241.9,0,241.9,0,241.9Z" fill="#4c78a8"/><path aria-label="mean execution time in µs: 60; algorithm: (wilczek) Inner-Loop Vectorization" role="graphics-symbol" aria-roledescription="bar" d="M0,161.9L65.23076923076924,161.9C67.43842932874524,161.9,69.23076923076924,163.692339902024,69.23076923076924,165.9L69.23076923076924,174.1C69.23076923076924,176.307660097976,67.43842932874524,178.1,65.23076923076924,178.1L0,178.1C0,178.1,0,178.1,0,178.1L0,161.9C0,161.9,0,161.9,0,161.9Z" fill="#4c78a8"/><path aria-label="mean execution time in µs: 75; algorithm: (wilczek) Outer-Loop Vectorization" role="graphics-symbol" aria-roledescription="bar" d="M0,221.9L82.53846153846153,221.9C84.74612163643754,221.9,86.53846153846153,223.692339902024,86.53846153846153,225.9L86.53846153846153,234.1C86.53846153846153,236.307660097976,84.74612163643754,238.1,82.53846153846153,238.1L0,238.1C0,238.1,0,238.1,0,238.1L0,221.9C0,221.9,0,221.9,0,221.9Z" fill="#4c78a8"/><path aria-label="mean execution time in µs: 47; algorithm: (wilczek) Outer- and Inner-Loop Vectorization" role="graphics-symbol" aria-roledescription="bar" d="M0,61.9L50.230769230769226,61.9C52.43842932874523,61.9,54.230769230769226,63.692339902023996,54.230769230769226,65.9L54.230769230769226,74.1C54.230769230769226,76.307660097976,52.43842932874523,78.1,50.230769230769226,78.1L0,78.1C0,78.1,0,78.1,0,78.1L0,61.9C0,61.9,0,61.9,0,61.9Z" fill="#4c78a8"/><path aria-label="mean execution time in µs: 31; algorithm: (chaowang15) convolve1D" role="graphics-symbol" aria-roledescription="bar" d="M0,41.9L31.769230769230774,41.9C33.97689086720678,41.9,35.769230769230774,43.692339902023996,35.769230769230774,45.9L35.769230769230774,54.099999999999994C35.769230769230774,56.307660097976,33.97689086720678,58.099999999999994,31.769230769230774,58.099999999999994L0,58.099999999999994C0,58.099999999999994,0,58.099999999999994,0,58.099999999999994L0,41.9C0,41.9,0,41.9,0,41.9Z" fill="#4c78a8"/></g><g class="mark-text role-mark child_layer_1_marks" role="graphics-object" aria-roledescription="text mark container"><text aria-label="mean execution time in µs: 66; algorithm: (JohT) kernelPerInputValue Transposed; MeanExecutionTime: 66" role="graphics-symbol" aria-roledescription="text mark" text-anchor="start" transform="translate(80.15384615384615,193)" font-family="sans-serif" font-size="9px" fill="black">66</text><text aria-label="mean execution time in µs: 21; algorithm: (JohT) inputPerKernelValue Transposed; MeanExecutionTime: 21" role="graphics-symbol" aria-roledescription="text mark" text-anchor="start" transform="translate(28.230769230769234,13)" font-family="sans-serif" font-size="9px" fill="black">21</text><text aria-label="mean execution time in µs: 243; algorithm: (JohT) inputPerKernelValue Transposed InnerLoopUnrolled; MeanExecutionTime: 243" role="graphics-symbol" aria-roledescription="text mark" text-anchor="start" transform="translate(284.3846153846154,293)" font-family="sans-serif" font-size="9px" fill="black">243</text><text aria-label="mean execution time in µs: 27; algorithm: (JohT) inputPerKernelValue Transposed OuterLoopUnrolled; MeanExecutionTime: 27" role="graphics-symbol" aria-roledescription="text mark" text-anchor="start" transform="translate(35.15384615384616,33)" font-family="sans-serif" font-size="9px" fill="black">27</text><text aria-label="mean execution time in µs: 51; algorithm: (JohT) inputPerKernelValue Transposed Inner&amp;OuterLoopUnrolled; MeanExecutionTime: 51" role="graphics-symbol" aria-roledescription="text mark" text-anchor="start" transform="translate(62.84615384615385,93)" font-family="sans-serif" font-size="9px" fill="black">51</text><text aria-label="mean execution time in µs: 54; algorithm: (JohT) inputPerKernelValue Transposed LoopFission; MeanExecutionTime: 54" role="graphics-symbol" aria-roledescription="text mark" text-anchor="start" transform="translate(66.30769230769232,113)" font-family="sans-serif" font-size="9px" fill="black">54</text><text aria-label="mean execution time in µs: 58; algorithm: (JohT) inputPerKernelValue Transposed LoopFissionIndexArithmetic; MeanExecutionTime: 58" role="graphics-symbol" aria-roledescription="text mark" text-anchor="start" transform="translate(70.92307692307692,133)" font-family="sans-serif" font-size="9px" fill="black">58</text><text aria-label="mean execution time in µs: 67; algorithm: (JohT) kernelPerInputValue Transposed LoopFission; MeanExecutionTime: 67" role="graphics-symbol" aria-roledescription="text mark" text-anchor="start" transform="translate(81.30769230769229,213)" font-family="sans-serif" font-size="9px" fill="black">67</text><text aria-label="mean execution time in µs: 59; algorithm: (matlab-like) conv 'full' shape; MeanExecutionTime: 59" role="graphics-symbol" aria-roledescription="text mark" text-anchor="start" transform="translate(72.07692307692308,153)" font-family="sans-serif" font-size="9px" fill="black">59</text><text aria-label="mean execution time in µs: 123; algorithm: (matlab-like) conv 'valid' shape pre padded; MeanExecutionTime: 123" role="graphics-symbol" aria-roledescription="text mark" text-anchor="start" transform="translate(145.9230769230769,273)" font-family="sans-serif" font-size="9px" fill="black">123</text><text aria-label="mean execution time in µs: 103; algorithm: (wilczek) Single; MeanExecutionTime: 103" role="graphics-symbol" aria-roledescription="text mark" text-anchor="start" transform="translate(122.84615384615384,253)" font-family="sans-serif" font-size="9px" fill="black">103</text><text aria-label="mean execution time in µs: 60; algorithm: (wilczek) Inner-Loop Vectorization; MeanExecutionTime: 60" role="graphics-symbol" aria-roledescription="text mark" text-anchor="start" transform="translate(73.23076923076924,173)" font-family="sans-serif" font-size="9px" fill="black">60</text><text aria-label="mean execution time in µs: 75; algorithm: (wilczek) Outer-Loop Vectorization; MeanExecutionTime: 75" role="graphics-symbol" aria-roledescription="text mark" text-anchor="start" transform="translate(90.53846153846153,233)" font-family="sans-serif" font-size="9px" fill="black">75</text><text aria-label="mean execution time in µs: 47; algorithm: (wilczek) Outer- and Inner-Loop Vectorization; MeanExecutionTime: 47" role="graphics-symbol" aria-roledescription="text mark" text-anchor="start" transform="translate(58.230769230769226,73)" font-family="sans-serif" font-size="9px" fill="black">47</text><text aria-label="mean execution time in µs: 31; algorithm: (chaowang15) convolve1D; MeanExecutionTime: 31" role="graphics-symbol" aria-roledescription="text mark" text-anchor="start" transform="translate(39.769230769230774,53)" font-family="sans-serif" font-size="9px" fill="black">31</text></g></g><path class="foreground" aria-hidden="true" d="" display="none"/></g><g transform="translate(831,0)"><path class="background" aria-hidden="true" d="M0.5,0.5h300v300h-300Z" stroke="#ddd"/><g><g class="mark-group role-axis" aria-hidden="true"><g transform="translate(0.5,300.5)"><path class="background" aria-hidden="true" d="M0,0h0v0h0Z" pointer-events="none"/><g><g class="mark-rule role-axis-grid" pointer-events="none"><line transform="translate(0,0)" x2="0" y2="-300" stroke="#ddd" stroke-width="1" opacity="1"/><line transform="translate(27,0)" x2="0" y2="-300" stroke="#ddd" stroke-width="1" opacity="1"/><line transform="translate(55,0)" x2="0" y2="-300" stroke="#ddd" stroke-width="1" opacity="1"/><line transform="translate(82,0)" x2="0" y2="-300" stroke="#ddd" stroke-width="1" opacity="1"/><line transform="translate(109,0)" x2="0" y2="-300" stroke="#ddd" stroke-width="1" opacity="1"/><line transform="translate(136,0)" x2="0" y2="-300" stroke="#ddd" stroke-width="1" opacity="1"/><line transform="translate(164,0)" x2="0" y2="-300" stroke="#ddd" stroke-width="1" opacity="1"/><line transform="translate(191,0)" x2="0" y2="-300" stroke="#ddd" stroke-width="1" opacity="1"/><line transform="translate(218,0)" x2="0" y2="-300" stroke="#ddd" stroke-width="1" opacity="1"/><line transform="translate(245,0)" x2="0" y2="-300" stroke="#ddd" stroke-width="1" opacity="1"/><line transform="translate(273,0)" x2="0" y2="-300" stroke="#ddd" stroke-width="1" opacity="1"/><line transform="translate(300,0)" x2="0" y2="-300" stroke="#ddd" stroke-width="1" opacity="1"/></g></g><path class="foreground" aria-hidden="true" d="" pointer-events="none" display="none"/></g></g><g class="mark-group role-axis" role="graphics-symbol" aria-roledescription="axis" aria-label="X-axis titled 'mean execution time in µs' for a linear scale with values from 0 to 11,000"><g transform="translate(0.5,300.5)"><path class="background" aria-hidden="true" d="M0,0h0v0h0Z" pointer-events="none"/><g><g class="mark-rule role-axis-tick" pointer-events="none"><line transform="translate(0,0)" x2="0" y2="5" stroke="#888" stroke-width="1" opacity="1"/><line transform="translate(27,0)" x2="0" y2="5" stroke="#888" stroke-width="1" opacity="1"/><line transform="translate(55,0)" x2="0" y2="5" stroke="#888" stroke-width="1" opacity="1"/><line transform="translate(82,0)" x2="0" y2="5" stroke="#888" stroke-width="1" opacity="1"/><line transform="translate(109,0)" x2="0" y2="5" stroke="#888" stroke-width="1" opacity="1"/><line transform="translate(136,0)" x2="0" y2="5" stroke="#888" stroke-width="1" opacity="1"/><line transform="translate(164,0)" x2="0" y2="5" stroke="#888" stroke-width="1" opacity="1"/><line transform="translate(191,0)" x2="0" y2="5" stroke="#888" stroke-width="1" opacity="1"/><line transform="translate(218,0)" x2="0" y2="5" stroke="#888" stroke-width="1" opacity="1"/><line transform="translate(245,0)" x2="0" y2="5" stroke="#888" stroke-width="1" opacity="1"/><line transform="translate(273,0)" x2="0" y2="5" stroke="#888" stroke-width="1" opacity="1"/><line transform="translate(300,0)" x2="0" y2="5" stroke="#888" stroke-width="1" opacity="1"/></g><g class="mark-text role-axis-label" pointer-events="none"><text text-anchor="start" transform="translate(0,15)" font-family="sans-serif" font-size="10px" fill="#000" opacity="1">0</text><text text-anchor="middle" transform="translate(27.272727272727273,15)" font-family="sans-serif" font-size="10px" fill="#000" opacity="0">1,000</text><text text-anchor="middle" transform="translate(54.54545454545455,15)" font-family="sans-serif" font-size="10px" fill="#000" opacity="1">2,000</text><text text-anchor="middle" transform="translate(81.81818181818181,15)" font-family="sans-serif" font-size="10px" fill="#000" opacity="0">3,000</text><text text-anchor="middle" transform="translate(109.0909090909091,15)" font-family="sans-serif" font-size="10px" fill="#000" opacity="1">4,000</text><text text-anchor="middle" transform="translate(136.36363636363635,15)" font-family="sans-serif" font-size="10px" fill="#000" opacity="0">5,000</text><text text-anchor="middle" transform="translate(163.63636363636363,15)" font-family="sans-serif" font-size="10px" fill="#000" opacity="1">6,000</text><text text-anchor="middle" transform="translate(190.9090909090909,15)" font-family="sans-serif" font-size="10px" fill="#000" opacity="0">7,000</text><text text-anchor="middle" transform="translate(218.1818181818182,15)" font-family="sans-serif" font-size="10px" fill="#000" opacity="1">8,000</text><text text-anchor="middle" transform="translate(245.45454545454547,15)" font-family="sans-serif" font-size="10px" fill="#000" opacity="0">9,000</text><text text-anchor="middle" transform="translate(272.7272727272727,15)" font-family="sans-serif" font-size="10px" fill="#000" opacity="1">10,000</text><text text-anchor="end" transform="translate(300,15)" font-family="sans-serif" font-size="10px" fill="#000" opacity="0">11,000</text></g><g class="mark-rule role-axis-domain" pointer-events="none"><line transform="translate(0,0)" x2="300" y2="0" stroke="#888" stroke-width="1" opacity="1"/></g><g class="mark-text role-axis-title" pointer-events="none"><text text-anchor="middle" transform="translate(150,30)" font-family="sans-serif" font-size="11px" font-weight="bold" fill="#000" opacity="1">mean execution time in µs</text></g></g><path class="foreground" aria-hidden="true" d="" pointer-events="none" display="none"/></g></g><g class="mark-group role-axis" role="graphics-symbol" aria-roledescription="axis" aria-label="Y-axis titled 'algorithm' for a discrete scale with 15 values: (matlab-like) conv 'full' shape, (chaowang15) convolve1D, (JohT) kernelPerInputValue Transposed, (JohT) inputPerKernelValue Transposed, (wilczek) Single, ending with (matlab-like) conv 'valid' shape pre padded"><g transform="translate(0.5,0.5)"><path class="background" aria-hidden="true" d="M0,0h0v0h0Z" pointer-events="none"/><g><g class="mark-rule role-axis-tick" pointer-events="none"><line transform="translate(0,10)" x2="-5" y2="0" stroke="#888" stroke-width="1" opacity="1"/><line transform="translate(0,30)" x2="-5" y2="0" stroke="#888" stroke-width="1" opacity="1"/><line transform="translate(0,50)" x2="-5" y2="0" stroke="#888" stroke-width="1" opacity="1"/><line transform="translate(0,70)" x2="-5" y2="0" stroke="#888" stroke-width="1" opacity="1"/><line transform="translate(0,90)" x2="-5" y2="0" stroke="#888" stroke-width="1" opacity="1"/><line transform="translate(0,110)" x2="-5" y2="0" stroke="#888" stroke-width="1" opacity="1"/><line transform="translate(0,130)" x2="-5" y2="0" stroke="#888" stroke-width="1" opacity="1"/><line transform="translate(0,150)" x2="-5" y2="0" stroke="#888" stroke-width="1" opacity="1"/><line transform="translate(0,170)" x2="-5" y2="0" stroke="#888" stroke-width="1" opacity="1"/><line transform="translate(0,190)" x2="-5" y2="0" stroke="#888" stroke-width="1" opacity="1"/><line transform="translate(0,210)" x2="-5" y2="0" stroke="#888" stroke-width="1" opacity="1"/><line transform="translate(0,230)" x2="-5" y2="0" stroke="#888" stroke-width="1" opacity="1"/><line transform="translate(0,250)" x2="-5" y2="0" stroke="#888" stroke-width="1" opacity="1"/><line transform="translate(0,270)" x2="-5" y2="0" stroke="#888" stroke-width="1" opacity="1"/><line transform="translate(0,290)" x2="-5" y2="0" stroke="#888" stroke-width="1" opacity="1"/></g><g class="mark-text role-axis-label" pointer-events="none"><text text-anchor="end" transform="translate(-7,12.5)" font-family="sans-serif" font-size="10px" fill="#000" opacity="1">(matlab-like) conv 'full' shape</text><text text-anchor="end" transform="translate(-7,32.5)" font-family="sans-serif" font-size="10px" fill="#000" opacity="1">(chaowang15) convolve1D</text><text text-anchor="end" transform="translate(-7,52.5)" font-family="sans-serif" font-size="10px" fill="#000" opacity="1">(JohT) kernelPerInputValue Transposed</text><text text-anchor="end" transform="translate(-7,72.5)" font-family="sans-serif" font-size="10px" fill="#000" opacity="1">(JohT) inputPerKernelValue Transposed</text><text text-anchor="end" transform="translate(-7,92.5)" font-family="sans-serif" font-size="10px" fill="#000" opacity="1">(wilczek) Single</text><text text-anchor="end" transform="translate(-7,112.5)" font-family="sans-serif" font-size="10px" fill="#000" opacity="1">(JohT) inputPerKernelValue Transposed OuterLoopUnrolled</text><text text-anchor="end" transform="translate(-7,132.5)" font-family="sans-serif" font-size="10px" fill="#000" opacity="1">(JohT) kernelPerInputValue Transposed LoopFission</text><text text-anchor="end" transform="translate(-7,152.5)" font-family="sans-serif" font-size="10px" fill="#000" opacity="1">(wilczek) Outer- and Inner-Loop Vectorization</text><text text-anchor="end" transform="translate(-7,172.5)" font-family="sans-serif" font-size="10px" fill="#000" opacity="1">(JohT) inputPerKernelValue Transposed LoopFissionIndexArithme…</text><text text-anchor="end" transform="translate(-7,192.5)" font-family="sans-serif" font-size="10px" fill="#000" opacity="1">(JohT) inputPerKernelValue Transposed Inner&amp;OuterLoopUnrolled</text><text text-anchor="end" transform="translate(-7,212.5)" font-family="sans-serif" font-size="10px" fill="#000" opacity="1">(JohT) inputPerKernelValue Transposed LoopFission</text><text text-anchor="end" transform="translate(-7,232.5)" font-family="sans-serif" font-size="10px" fill="#000" opacity="1">(wilczek) Inner-Loop Vectorization</text><text text-anchor="end" transform="translate(-7,252.5)" font-family="sans-serif" font-size="10px" fill="#000" opacity="1">(wilczek) Outer-Loop Vectorization</text><text text-anchor="end" transform="translate(-7,272.5)" font-family="sans-serif" font-size="10px" fill="#000" opacity="1">(JohT) inputPerKernelValue Transposed InnerLoopUnrolled</text><text text-anchor="end" transform="translate(-7,292.5)" font-family="sans-serif" font-size="10px" fill="#000" opacity="1">(matlab-like) conv 'valid' shape pre padded</text></g><g class="mark-rule role-axis-domain" pointer-events="none"><line transform="translate(0,0)" x2="0" y2="300" stroke="#888" stroke-width="1" opacity="1"/></g><g class="mark-text role-axis-title" pointer-events="none"><text text-anchor="middle" transform="translate(-320,150) rotate(-90) translate(0,-2)" font-family="sans-serif" font-size="11px" font-weight="bold" fill="#000" opacity="1">algorithm</text></g></g><path class="foreground" aria-hidden="true" d="" pointer-events="none" display="none"/></g></g><g class="mark-rect role-mark child_layer_0_marks" role="graphics-object" aria-roledescription="rect mark container"><path aria-label="mean execution time in µs: 657; algorithm: (JohT) kernelPerInputValue Transposed" role="graphics-symbol" aria-roledescription="bar" d="M0,41.9L13.918181818181818,41.9C16.125841916157817,41.9,17.918181818181818,43.692339902023996,17.918181818181818,45.9L17.918181818181818,54.099999999999994C17.918181818181818,56.307660097976,16.125841916157817,58.099999999999994,13.918181818181818,58.099999999999994L0,58.099999999999994C0,58.099999999999994,0,58.099999999999994,0,58.099999999999994L0,41.9C0,41.9,0,41.9,0,41.9Z" fill="#4c78a8"/><path aria-label="mean execution time in µs: 664; algorithm: (JohT) inputPerKernelValue Transposed" role="graphics-symbol" aria-roledescription="bar" d="M0,61.9L14.10909090909091,61.9C16.31675100706691,61.9,18.10909090909091,63.692339902023996,18.10909090909091,65.9L18.10909090909091,74.1C18.10909090909091,76.307660097976,16.31675100706691,78.1,14.10909090909091,78.1L0,78.1C0,78.1,0,78.1,0,78.1L0,61.9C0,61.9,0,61.9,0,61.9Z" fill="#4c78a8"/><path aria-label="mean execution time in µs: 7933; algorithm: (JohT) inputPerKernelValue Transposed InnerLoopUnrolled" role="graphics-symbol" aria-roledescription="bar" d="M0,261.9L212.35454545454544,261.9C214.56220555252145,261.9,216.35454545454544,263.692339902024,216.35454545454544,265.9L216.35454545454544,274.09999999999997C216.35454545454544,276.30766009797594,214.56220555252145,278.09999999999997,212.35454545454544,278.09999999999997L0,278.09999999999997C0,278.09999999999997,0,278.09999999999997,0,278.09999999999997L0,261.9C0,261.9,0,261.9,0,261.9Z" fill="#4c78a8"/><path aria-label="mean execution time in µs: 808; algorithm: (JohT) inputPerKernelValue Transposed OuterLoopUnrolled" role="graphics-symbol" aria-roledescription="bar" d="M0,101.9L18.036363636363635,101.9C20.244023734339635,101.9,22.036363636363635,103.692339902024,22.036363636363635,105.9L22.036363636363635,114.10000000000001C22.036363636363635,116.30766009797601,20.244023734339635,118.10000000000001,18.036363636363635,118.10000000000001L0,118.10000000000001C0,118.10000000000001,0,118.10000000000001,0,118.10000000000001L0,101.9C0,101.9,0,101.9,0,101.9Z" fill="#4c78a8"/><path aria-label="mean execution time in µs: 1753; algorithm: (JohT) inputPerKernelValue Transposed Inner&amp;OuterLoopUnrolled" role="graphics-symbol" aria-roledescription="bar" d="M0,181.9L43.80909090909091,181.9C46.016751007066915,181.9,47.80909090909091,183.692339902024,47.80909090909091,185.9L47.80909090909091,194.1C47.80909090909091,196.307660097976,46.016751007066915,198.1,43.80909090909091,198.1L0,198.1C0,198.1,0,198.1,0,198.1L0,181.9C0,181.9,0,181.9,0,181.9Z" fill="#4c78a8"/><path aria-label="mean execution time in µs: 1773; algorithm: (JohT) inputPerKernelValue Transposed LoopFission" role="graphics-symbol" aria-roledescription="bar" d="M0,201.9L44.35454545454545,201.9C46.562205552521455,201.9,48.35454545454545,203.692339902024,48.35454545454545,205.9L48.35454545454545,214.1C48.35454545454545,216.307660097976,46.562205552521455,218.1,44.35454545454545,218.1L0,218.1C0,218.1,0,218.1,0,218.1L0,201.9C0,201.9,0,201.9,0,201.9Z" fill="#4c78a8"/><path aria-label="mean execution time in µs: 1672; algorithm: (JohT) inputPerKernelValue Transposed LoopFissionIndexArithmetic" role="graphics-symbol" aria-roledescription="bar" d="M0,161.9L41.6,161.9C43.807660097976004,161.9,45.6,163.692339902024,45.6,165.9L45.6,174.1C45.6,176.307660097976,43.807660097976004,178.1,41.6,178.1L0,178.1C0,178.1,0,178.1,0,178.1L0,161.9C0,161.9,0,161.9,0,161.9Z" fill="#4c78a8"/><path aria-label="mean execution time in µs: 1190; algorithm: (JohT) kernelPerInputValue Transposed LoopFission" role="graphics-symbol" aria-roledescription="bar" d="M0,121.9L28.454545454545453,121.9C30.662205552521453,121.9,32.45454545454545,123.692339902024,32.45454545454545,125.9L32.45454545454545,134.1C32.45454545454545,136.307660097976,30.662205552521453,138.1,28.454545454545453,138.1L0,138.1C0,138.1,0,138.1,0,138.1L0,121.9C0,121.9,0,121.9,0,121.9Z" fill="#4c78a8"/><path aria-label="mean execution time in µs: 607; algorithm: (matlab-like) conv 'full' shape" role="graphics-symbol" aria-roledescription="bar" d="M0,1.9L12.554545454545455,1.9C14.762205552521454,1.9,16.554545454545455,3.692339902024,16.554545454545455,5.9L16.554545454545455,14.099999999999998C16.554545454545455,16.307660097975997,14.762205552521454,18.099999999999998,12.554545454545455,18.099999999999998L0,18.099999999999998C0,18.099999999999998,0,18.099999999999998,0,18.099999999999998L0,1.9C0,1.9,0,1.9,0,1.9Z" fill="#4c78a8"/><path aria-label="mean execution time in µs: 10244; algorithm: (matlab-like) conv 'valid' shape pre padded" role="graphics-symbol" aria-roledescription="bar" d="M0,281.9L275.3818181818182,281.9C277.58947827979415,281.9,279.3818181818182,283.692339902024,279.3818181818182,285.9L279.3818181818182,294.09999999999997C279.3818181818182,296.30766009797594,277.58947827979415,298.09999999999997,275.3818181818182,298.09999999999997L0,298.09999999999997C0,298.09999999999997,0,298.09999999999997,0,298.09999999999997L0,281.9C0,281.9,0,281.9,0,281.9Z" fill="#4c78a8"/><path aria-label="mean execution time in µs: 707; algorithm: (wilczek) Single" role="graphics-symbol" aria-roledescription="bar" d="M0,81.9L15.281818181818181,81.9C17.48947827979418,81.9,19.28181818181818,83.692339902024,19.28181818181818,85.9L19.28181818181818,94.10000000000001C19.28181818181818,96.30766009797601,17.48947827979418,98.10000000000001,15.281818181818181,98.10000000000001L0,98.10000000000001C0,98.10000000000001,0,98.10000000000001,0,98.10000000000001L0,81.9C0,81.9,0,81.9,0,81.9Z" fill="#4c78a8"/><path aria-label="mean execution time in µs: 1897; algorithm: (wilczek) Inner-Loop Vectorization" role="graphics-symbol" aria-roledescription="bar" d="M0,221.9L47.736363636363635,221.9C49.94402373433964,221.9,51.736363636363635,223.692339902024,51.736363636363635,225.9L51.736363636363635,234.1C51.736363636363635,236.307660097976,49.94402373433964,238.1,47.736363636363635,238.1L0,238.1C0,238.1,0,238.1,0,238.1L0,221.9C0,221.9,0,221.9,0,221.9Z" fill="#4c78a8"/><path aria-label="mean execution time in µs: 2797; algorithm: (wilczek) Outer-Loop Vectorization" role="graphics-symbol" aria-roledescription="bar" d="M0,241.9L72.28181818181818,241.9C74.48947827979418,241.9,76.28181818181818,243.692339902024,76.28181818181818,245.9L76.28181818181818,254.10000000000002C76.28181818181818,256.307660097976,74.48947827979418,258.1,72.28181818181818,258.1L0,258.1C0,258.1,0,258.1,0,258.1L0,241.9C0,241.9,0,241.9,0,241.9Z" fill="#4c78a8"/><path aria-label="mean execution time in µs: 1567; algorithm: (wilczek) Outer- and Inner-Loop Vectorization" role="graphics-symbol" aria-roledescription="bar" d="M0,141.9L38.736363636363635,141.9C40.94402373433964,141.9,42.736363636363635,143.692339902024,42.736363636363635,145.9L42.736363636363635,154.1C42.736363636363635,156.307660097976,40.94402373433964,158.1,38.736363636363635,158.1L0,158.1C0,158.1,0,158.1,0,158.1L0,141.9C0,141.9,0,141.9,0,141.9Z" fill="#4c78a8"/><path aria-label="mean execution time in µs: 639; algorithm: (chaowang15) convolve1D" role="graphics-symbol" aria-roledescription="bar" d="M0,21.9L13.427272727272726,21.9C15.634932825248725,21.9,17.427272727272726,23.692339902024,17.427272727272726,25.9L17.427272727272726,34.099999999999994C17.427272727272726,36.307660097976,15.634932825248725,38.099999999999994,13.427272727272726,38.099999999999994L0,38.099999999999994C0,38.099999999999994,0,38.099999999999994,0,38.099999999999994L0,21.9C0,21.9,0,21.9,0,21.9Z" fill="#4c78a8"/></g><g class="mark-text role-mark child_layer_1_marks" role="graphics-object" aria-roledescription="text mark container"><text aria-label="mean execution time in µs: 657; algorithm: (JohT) kernelPerInputValue Transposed; MeanExecutionTime: 657" role="graphics-symbol" aria-roledescription="text mark" text-anchor="start" transform="translate(21.918181818181818,53)" font-family="sans-serif" font-size="9px" fill="black">657</text><text aria-label="mean execution time in µs: 664; algorithm: (JohT) inputPerKernelValue Transposed; MeanExecutionTime: 664" role="graphics-symbol" aria-roledescription="text mark" text-anchor="start" transform="translate(22.10909090909091,73)" font-family="sans-serif" font-size="9px" fill="black">664</text><text aria-label="mean execution time in µs: 7933; algorithm: (JohT) inputPerKernelValue Transposed InnerLoopUnrolled; MeanExecutionTime: 7933" role="graphics-symbol" aria-roledescription="text mark" text-anchor="start" transform="translate(220.35454545454544,273)" font-family="sans-serif" font-size="9px" fill="black">7933</text><text aria-label="mean execution time in µs: 808; algorithm: (JohT) inputPerKernelValue Transposed OuterLoopUnrolled; MeanExecutionTime: 808" role="graphics-symbol" aria-roledescription="text mark" text-anchor="start" transform="translate(26.036363636363635,113)" font-family="sans-serif" font-size="9px" fill="black">808</text><text aria-label="mean execution time in µs: 1753; algorithm: (JohT) inputPerKernelValue Transposed Inner&amp;OuterLoopUnrolled; MeanExecutionTime: 1753" role="graphics-symbol" aria-roledescription="text mark" text-anchor="start" transform="translate(51.80909090909091,193)" font-family="sans-serif" font-size="9px" fill="black">1753</text><text aria-label="mean execution time in µs: 1773; algorithm: (JohT) inputPerKernelValue Transposed LoopFission; MeanExecutionTime: 1773" role="graphics-symbol" aria-roledescription="text mark" text-anchor="start" transform="translate(52.35454545454545,213)" font-family="sans-serif" font-size="9px" fill="black">1773</text><text aria-label="mean execution time in µs: 1672; algorithm: (JohT) inputPerKernelValue Transposed LoopFissionIndexArithmetic; MeanExecutionTime: 1672" role="graphics-symbol" aria-roledescription="text mark" text-anchor="start" transform="translate(49.6,173)" font-family="sans-serif" font-size="9px" fill="black">1672</text><text aria-label="mean execution time in µs: 1190; algorithm: (JohT) kernelPerInputValue Transposed LoopFission; MeanExecutionTime: 1190" role="graphics-symbol" aria-roledescription="text mark" text-anchor="start" transform="translate(36.45454545454545,133)" font-family="sans-serif" font-size="9px" fill="black">1190</text><text aria-label="mean execution time in µs: 607; algorithm: (matlab-like) conv 'full' shape; MeanExecutionTime: 607" role="graphics-symbol" aria-roledescription="text mark" text-anchor="start" transform="translate(20.554545454545455,13)" font-family="sans-serif" font-size="9px" fill="black">607</text><text aria-label="mean execution time in µs: 10244; algorithm: (matlab-like) conv 'valid' shape pre padded; MeanExecutionTime: 10244" role="graphics-symbol" aria-roledescription="text mark" text-anchor="start" transform="translate(283.3818181818182,293)" font-family="sans-serif" font-size="9px" fill="black">10244</text><text aria-label="mean execution time in µs: 707; algorithm: (wilczek) Single; MeanExecutionTime: 707" role="graphics-symbol" aria-roledescription="text mark" text-anchor="start" transform="translate(23.28181818181818,93)" font-family="sans-serif" font-size="9px" fill="black">707</text><text aria-label="mean execution time in µs: 1897; algorithm: (wilczek) Inner-Loop Vectorization; MeanExecutionTime: 1897" role="graphics-symbol" aria-roledescription="text mark" text-anchor="start" transform="translate(55.736363636363635,233)" font-family="sans-serif" font-size="9px" fill="black">1897</text><text aria-label="mean execution time in µs: 2797; algorithm: (wilczek) Outer-Loop Vectorization; MeanExecutionTime: 2797" role="graphics-symbol" aria-roledescription="text mark" text-anchor="start" transform="translate(80.28181818181818,253)" font-family="sans-serif" font-size="9px" fill="black">2797</text><text aria-label="mean execution time in µs: 1567; algorithm: (wilczek) Outer- and Inner-Loop Vectorization; MeanExecutionTime: 1567" role="graphics-symbol" aria-roledescription="text mark" text-anchor="start" transform="translate(46.736363636363635,153)" font-family="sans-serif" font-size="9px" fill="black">1567</text><text aria-label="mean execution time in µs: 639; algorithm: (chaowang15) convolve1D; MeanExecutionTime: 639" role="graphics-symbol" aria-roledescription="text mark" text-anchor="start" transform="translate(21.427272727272726,33)" font-family="sans-serif" font-size="9px" fill="black">639</text></g></g><path class="foreground" aria-hidden="true" d="" display="none"/></g></g></g><path class="foreground" aria-hidden="true" d="" display="none"/></g></g></g></svg>