<svg xmlns="http://www.w3.org/2000/svg" xmlns:xlink="http://www.w3.org/1999/xlink" version="1.1" class="marks" width="1689" height="404" viewBox="0 0 1689 404"><rect width="1689" height="404" fill="white"/><g fill="none" stroke-miterlimit="10" transform="translate(509,66)"><g class="mark-group role-frame root" role="graphics-object" aria-roledescription="group mark container"><g transform="translate(0,0)"><path class="background" aria-hidden="true" d="M0,0h0v0h0Z"/><g><g class="mark-group role-column-title column-title" role="graphics-object" aria-roledescription="group mark container"><g transform="translate(335,-35)"><path class="background" aria-hidden="true" d="M0,0h0v0h0Z"/><g><g class="mark-group role-title"><g transform="translate(0,-26)"><path class="background" aria-hidden="true" d="M0,0h0v0h0Z" pointer-events="none"/><g><g class="mark-text role-title-text" role="graphics-symbol" aria-roledescription="title" aria-label="Title text 'Convolution Benchmarks'" pointer-events="none"><text text-anchor="middle" transform="translate(0,13)" font-family="sans-serif" font-size="16px" font-weight="bold" fill="#000" opacity="1">Convolution Benchmarks</text></g></g><path class="foreground" aria-hidden="true" d="" pointer-events="none" display="none"/></g></g></g><path class="foreground" aria-hidden="true" d="" display="none"/></g></g><g class="mark-group role-column-header column_header" role="graphics-object" aria-roledescription="group mark container"><g transform="translate(0,-1)"><path class="background" aria-hidden="true" d="M0,0h300v0h-300Z"/><g><g class="mark-group role-title"><g transform="translate(150,-24)"><path class="background" aria-hidden="true" d="M0,0h0v0h0Z" pointer-events="none"/><g><g class="mark-text role-title-text" role="graphics-symbol" aria-roledescription="title" aria-label="Title text 'kernel size 16'" pointer-events="none"><text text-anchor="middle" transform="translate(0,11)" font-family="sans-serif" font-size="14px" fill="#000" opacity="1">kernel size 16</text></g></g><path class="foreground" aria-hidden="true" d="" pointer-events="none" display="none"/></g></g></g><path class="foreground" aria-hidden="true" d="" display="none"/></g><g transform="translate(834,-1)"><path class="background" aria-hidden="true" d="M0,0h300v0h-300Z"/><g><g class="mark-group role-title"><g transform="translate(150,-24)"><path class="background" aria-hidden="true" d="M0,0h0v0h0Z" pointer-events="none"/><g><g class="mark-text role-title-text" role="graphics-symbol" aria-roledescription="title" aria-label="Title text 'kernel size 512'" pointer-events="none"><text text-anchor="middle" transform="translate(0,11)" font-family="sans-serif" font-size="14px" fill="#000" opacity="1">kernel size 512</text></g></g><path class="foreground" aria-hidden="true" d="" pointer-events="none" display="none"/></g></g></g><path class="foreground" aria-hidden="true" d="" display="none"/></g></g><g class="mark-group role-scope cell" role="graphics-object" aria-roledescription="group mark container"><g transform="translate(0,0)"><path class="background" aria-hidden="true" d="M0.5,0.5h300v300h-300Z" stroke="#ddd"/><g><g class="mark-group role-axis" aria-hidden="true"><g transform="translate(0.5,300.5)"><path class="background" aria-hidden="true" d="M0,0h0v0h0Z" pointer-events="none"/><g><g class="mark-rule role-axis-grid" pointer-events="none"><line transform="translate(0,0)" x2="0" y2="-300" stroke="#ddd" stroke-width="1" opacity="1"/><line transform="translate(54,0)" x2="0" y2="-300" stroke="#ddd" stroke-width="1" opacity="1"/><line transform="translate(107,0)" x2="0" y2="-300" stroke="#ddd" stroke-width="1" opacity="1"/><line transform="translate(161,0)" x2="0" y2="-300" stroke="#ddd" stroke-width="1" opacity="1"/><line transform="translate(214,0)" x2="0" y2="-300" stroke="#ddd" stroke-width="1" opacity="1"/><line transform="translate(268,0)" x2="0" y2="-300" stroke="#ddd" stroke-width="1" opacity="1"/></g></g><path class="foreground" aria-hidden="true" d="" pointer-events="none" display="none"/></g></g><g class="mark-group role-axis" role="graphics-symbol" aria-roledescription="axis" aria-label="X-axis titled 'mean execution time in µs' for a linear scale with values from 0 to 280"><g transform="translate(0.5,300.5)"><path class="background" aria-hidden="true" d="M0,0h0v0h0Z" pointer-events="none"/><g><g class="mark-rule role-axis-tick" pointer-events="none"><line transform="translate(0,0)" x2="0" y2="5" stroke="#888" stroke-width="1" opacity="1"/><line transform="translate(54,0)" x2="0" y2="5" stroke="#888" stroke-width="1" opacity="1"/><line transform="translate(107,0)" x2="0" y2="5" stroke="#888" stroke-width="1" opacity="1"/><line transform="translate(161,0)" x2="0" y2="5" stroke="#888" stroke-width="1" opacity="1"/><line transform="translate(214,0)" x2="0" y2="5" stroke="#888" stroke-width="1" opacity="1"/><line transform="translate(268,0)" x2="0" y2="5" stroke="#888" stroke-width="1" opacity="1"/></g><g class="mark-text role-axis-label" pointer-events="none"><text text-anchor="start" transform="translate(0,15)" font-family="sans-serif" font-size="10px" fill="#000" opacity="1">0</text><text text-anchor="middle" transform="translate(53.57142857142857,15)" font-family="sans-serif" font-size="10px" fill="#000" opacity="1">50</text><text text-anchor="middle" transform="translate(107.14285714285714,15)" font-family="sans-serif" font-size="10px" fill="#000" opacity="1">100</text><text text-anchor="middle" transform="translate(160.71428571428572,15)" font-family="sans-serif" font-size="10px" fill="#000" opacity="1">150</text><text text-anchor="middle" transform="translate(214.28571428571428,15)" font-family="sans-serif" font-size="10px" fill="#000" opacity="1">200</text><text text-anchor="middle" transform="translate(267.8571428571429,15)" font-family="sans-serif" font-size="10px" fill="#000" opacity="1">250</text></g><g class="mark-rule role-axis-domain" pointer-events="none"><line transform="translate(0,0)" x2="300" y2="0" stroke="#888" stroke-width="1" opacity="1"/></g><g class="mark-text role-axis-title" pointer-events="none"><text text-anchor="middle" transform="translate(150,30)" font-family="sans-serif" font-size="11px" font-weight="bold" fill="#000" opacity="1">mean execution time in µs</text></g></g><path class="foreground" aria-hidden="true" d="" pointer-events="none" display="none"/></g></g><g class="mark-group role-axis" role="graphics-symbol" aria-roledescription="axis" aria-label="Y-axis titled 'algorithm' for a discrete scale with 15 values: (JohT) inputPerKernelValue Transposed, (JohT) inputPerKernelValue Transposed OuterLoopUnrolled, (chaowang15) convolve1D, (wilczek) Outer- and Inner-Loop Vectorization, (JohT) inputPerKernelValue Transposed LoopFission, ending with (JohT) inputPerKernelValue Transposed InnerLoopUnrolled"><g transform="translate(0.5,0.5)"><path class="background" aria-hidden="true" d="M0,0h0v0h0Z" pointer-events="none"/><g><g class="mark-rule role-axis-tick" pointer-events="none"><line transform="translate(0,10)" x2="-5" y2="0" stroke="#888" stroke-width="1" opacity="1"/><line transform="translate(0,30)" x2="-5" y2="0" stroke="#888" stroke-width="1" opacity="1"/><line transform="translate(0,50)" x2="-5" y2="0" stroke="#888" stroke-width="1" opacity="1"/><line transform="translate(0,70)" x2="-5" y2="0" stroke="#888" stroke-width="1" opacity="1"/><line transform="translate(0,90)" x2="-5" y2="0" stroke="#888" stroke-width="1" opacity="1"/><line transform="translate(0,110)" x2="-5" y2="0" stroke="#888" stroke-width="1" opacity="1"/><line transform="translate(0,130)" x2="-5" y2="0" stroke="#888" stroke-width="1" opacity="1"/><line transform="translate(0,150)" x2="-5" y2="0" stroke="#888" stroke-width="1" opacity="1"/><line transform="translate(0,170)" x2="-5" y2="0" stroke="#888" stroke-width="1" opacity="1"/><line transform="translate(0,190)" x2="-5" y2="0" stroke="#888" stroke-width="1" opacity="1"/><line transform="translate(0,210)" x2="-5" y2="0" stroke="#888" stroke-width="1" opacity="1"/><line transform="translate(0,230)" x2="-5" y2="0" stroke="#888" stroke-width="1" opacity="1"/><line transform="translate(0,250)" x2="-5" y2="0" stroke="#888" stroke-width="1" opacity="1"/><line transform="translate(0,270)" x2="-5" y2="0" stroke="#888" stroke-width="1" opacity="1"/><line transform="translate(0,290)" x2="-5" y2="0" stroke="#888" stroke-width="1" opacity="1"/></g><g class="mark-text role-axis-label" pointer-events="none"><text text-anchor="end" transform="translate(-7,12.5)" font-family="sans-serif" font-size="10px" fill="#000" opacity="1">(JohT) inputPerKernelValue Transposed</text><text text-anchor="end" transform="translate(-7,32.5)" font-family="sans-serif" font-size="10px" fill="#000" opacity="1">(JohT) inputPerKernelValue Transposed OuterLoopUnrolled</text><text text-anchor="end" transform="translate(-7,52.5)" font-family="sans-serif" font-size="10px" fill="#000" opacity="1">(chaowang15) convolve1D</text><text text-anchor="end" transform="translate(-7,72.5)" font-family="sans-serif" font-size="10px" fill="#000" opacity="1">(wilczek) Outer- and Inner-Loop Vectorization</text><text text-anchor="end" transform="translate(-7,92.5)" font-family="sans-serif" font-size="10px" fill="#000" opacity="1">(JohT) inputPerKernelValue Transposed LoopFission</text><text text-anchor="end" transform="translate(-7,112.5)" font-family="sans-serif" font-size="10px" fill="#000" opacity="1">(JohT) inputPerKernelValue Transposed LoopFissionIndexArithme…</text><text text-anchor="end" transform="translate(-7,132.5)" font-family="sans-serif" font-size="10px" fill="#000" opacity="1">(JohT) inputPerKernelValue Transposed Inner&amp;OuterLoopUnrolled</text><text text-anchor="end" transform="translate(-7,152.5)" font-family="sans-serif" font-size="10px" fill="#000" opacity="1">(matlab-like) conv 'full' shape</text><text text-anchor="end" transform="translate(-7,172.5)" font-family="sans-serif" font-size="10px" fill="#000" opacity="1">(wilczek) Inner-Loop Vectorization</text><text text-anchor="end" transform="translate(-7,192.5)" font-family="sans-serif" font-size="10px" fill="#000" opacity="1">(JohT) kernelPerInputValue Transposed</text><text text-anchor="end" transform="translate(-7,212.5)" font-family="sans-serif" font-size="10px" fill="#000" opacity="1">(JohT) kernelPerInputValue Transposed LoopFission</text><text text-anchor="end" transform="translate(-7,232.5)" font-family="sans-serif" font-size="10px" fill="#000" opacity="1">(wilczek) Outer-Loop Vectorization</text><text text-anchor="end" transform="translate(-7,252.5)" font-family="sans-serif" font-size="10px" fill="#000" opacity="1">(wilczek) Single</text><text text-anchor="end" transform="translate(-7,272.5)" font-family="sans-serif" font-size="10px" fill="#000" opacity="1">(matlab-like) conv 'valid' shape pre padded</text><text text-anchor="end" transform="translate(-7,292.5)" font-family="sans-serif" font-size="10px" fill="#000" opacity="1">(JohT) inputPerKernelValue Transposed InnerLoopUnrolled</text></g><g class="mark-rule role-axis-domain" pointer-events="none"><line transform="translate(0,0)" x2="0" y2="300" stroke="#888" stroke-width="1" opacity="1"/></g><g class="mark-text role-axis-title" pointer-events="none"><text text-anchor="middle" transform="translate(-320,150) rotate(-90) translate(0,-2)" font-family="sans-serif" font-size="11px" font-weight="bold" fill="#000" opacity="1">algorithm</text></g></g><path class="foreground" aria-hidden="true" d="" pointer-events="none" display="none"/></g></g><g class="mark-rect role-mark child_layer_0_marks" role="graphics-object" aria-roledescription="rect mark container"><path aria-label="mean execution time in µs: 71; algorithm: (JohT) kernelPerInputValue Transposed" role="graphics-symbol" aria-roledescription="bar" d="M0,181.9L72.07142857142857,181.9C74.27908866940457,181.9,76.07142857142857,183.692339902024,76.07142857142857,185.9L76.07142857142857,194.1C76.07142857142857,196.307660097976,74.27908866940457,198.1,72.07142857142857,198.1L0,198.1C0,198.1,0,198.1,0,198.1L0,181.9C0,181.9,0,181.9,0,181.9Z" fill="#4c78a8"/><path aria-label="mean execution time in µs: 22; algorithm: (JohT) inputPerKernelValue Transposed" role="graphics-symbol" aria-roledescription="bar" d="M0,1.9L19.57142857142857,1.9C21.77908866940457,1.9,23.57142857142857,3.692339902024,23.57142857142857,5.9L23.57142857142857,14.099999999999998C23.57142857142857,16.307660097975997,21.77908866940457,18.099999999999998,19.57142857142857,18.099999999999998L0,18.099999999999998C0,18.099999999999998,0,18.099999999999998,0,18.099999999999998L0,1.9C0,1.9,0,1.9,0,1.9Z" fill="#4c78a8"/><path aria-label="mean execution time in µs: 265; algorithm: (JohT) inputPerKernelValue Transposed InnerLoopUnrolled" role="graphics-symbol" aria-roledescription="bar" d="M0,281.9L279.92857142857144,281.9C282.1362315265474,281.9,283.92857142857144,283.692339902024,283.92857142857144,285.9L283.92857142857144,294.09999999999997C283.92857142857144,296.30766009797594,282.1362315265474,298.09999999999997,279.92857142857144,298.09999999999997L0,298.09999999999997C0,298.09999999999997,0,298.09999999999997,0,298.09999999999997L0,281.9C0,281.9,0,281.9,0,281.9Z" fill="#4c78a8"/><path aria-label="mean execution time in µs: 26; algorithm: (JohT) inputPerKernelValue Transposed OuterLoopUnrolled" role="graphics-symbol" aria-roledescription="bar" d="M0,21.9L23.857142857142858,21.9C26.064802955118857,21.9,27.857142857142858,23.692339902024,27.857142857142858,25.9L27.857142857142858,34.099999999999994C27.857142857142858,36.307660097976,26.064802955118857,38.099999999999994,23.857142857142858,38.099999999999994L0,38.099999999999994C0,38.099999999999994,0,38.099999999999994,0,38.099999999999994L0,21.9C0,21.9,0,21.9,0,21.9Z" fill="#4c78a8"/><path aria-label="mean execution time in µs: 61; algorithm: (JohT) inputPerKernelValue Transposed Inner&amp;OuterLoopUnrolled" role="graphics-symbol" aria-roledescription="bar" d="M0,121.9L61.35714285714286,121.9C63.564802955118864,121.9,65.35714285714286,123.692339902024,65.35714285714286,125.9L65.35714285714286,134.1C65.35714285714286,136.307660097976,63.564802955118864,138.1,61.35714285714286,138.1L0,138.1C0,138.1,0,138.1,0,138.1L0,121.9C0,121.9,0,121.9,0,121.9Z" fill="#4c78a8"/><path aria-label="mean execution time in µs: 56; algorithm: (JohT) inputPerKernelValue Transposed LoopFission" role="graphics-symbol" aria-roledescription="bar" d="M0,81.9L56,81.9C58.207660097976,81.9,60,83.692339902024,60,85.9L60,94.10000000000001C60,96.30766009797601,58.207660097976,98.10000000000001,56,98.10000000000001L0,98.10000000000001C0,98.10000000000001,0,98.10000000000001,0,98.10000000000001L0,81.9C0,81.9,0,81.9,0,81.9Z" fill="#4c78a8"/><path aria-label="mean execution time in µs: 59; algorithm: (JohT) inputPerKernelValue Transposed LoopFissionIndexArithmetic" role="graphics-symbol" aria-roledescription="bar" d="M0,101.9L59.214285714285715,101.9C61.42194581226172,101.9,63.214285714285715,103.692339902024,63.214285714285715,105.9L63.214285714285715,114.10000000000001C63.214285714285715,116.30766009797601,61.42194581226172,118.10000000000001,59.214285714285715,118.10000000000001L0,118.10000000000001C0,118.10000000000001,0,118.10000000000001,0,118.10000000000001L0,101.9C0,101.9,0,101.9,0,101.9Z" fill="#4c78a8"/><path aria-label="mean execution time in µs: 74; algorithm: (JohT) kernelPerInputValue Transposed LoopFission" role="graphics-symbol" aria-roledescription="bar" d="M0,201.9L75.28571428571429,201.9C77.4933743836903,201.9,79.28571428571429,203.692339902024,79.28571428571429,205.9L79.28571428571429,214.1C79.28571428571429,216.307660097976,77.4933743836903,218.1,75.28571428571429,218.1L0,218.1C0,218.1,0,218.1,0,218.1L0,201.9C0,201.9,0,201.9,0,201.9Z" fill="#4c78a8"/><path aria-label="mean execution time in µs: 64; algorithm: (matlab-like) conv 'full' shape" role="graphics-symbol" aria-roledescription="bar" d="M0,141.9L64.57142857142857,141.9C66.77908866940457,141.9,68.57142857142857,143.692339902024,68.57142857142857,145.9L68.57142857142857,154.1C68.57142857142857,156.307660097976,66.77908866940457,158.1,64.57142857142857,158.1L0,158.1C0,158.1,0,158.1,0,158.1L0,141.9C0,141.9,0,141.9,0,141.9Z" fill="#4c78a8"/><path aria-label="mean execution time in µs: 134; algorithm: (matlab-like) conv 'valid' shape pre padded" role="graphics-symbol" aria-roledescription="bar" d="M0,261.9L139.57142857142858,261.9C141.7790886694046,261.9,143.57142857142858,263.692339902024,143.57142857142858,265.9L143.57142857142858,274.09999999999997C143.57142857142858,276.30766009797594,141.7790886694046,278.09999999999997,139.57142857142858,278.09999999999997L0,278.09999999999997C0,278.09999999999997,0,278.09999999999997,0,278.09999999999997L0,261.9C0,261.9,0,261.9,0,261.9Z" fill="#4c78a8"/><path aria-label="mean execution time in µs: 114; algorithm: (wilczek) Single" role="graphics-symbol" aria-roledescription="bar" d="M0,241.9L118.14285714285714,241.9C120.35051724083314,241.9,122.14285714285714,243.692339902024,122.14285714285714,245.9L122.14285714285714,254.10000000000002C122.14285714285714,256.307660097976,120.35051724083314,258.1,118.14285714285714,258.1L0,258.1C0,258.1,0,258.1,0,258.1L0,241.9C0,241.9,0,241.9,0,241.9Z" fill="#4c78a8"/><path aria-label="mean execution time in µs: 67; algorithm: (wilczek) Inner-Loop Vectorization" role="graphics-symbol" aria-roledescription="bar" d="M0,161.9L67.78571428571429,161.9C69.9933743836903,161.9,71.78571428571429,163.692339902024,71.78571428571429,165.9L71.78571428571429,174.1C71.78571428571429,176.307660097976,69.9933743836903,178.1,67.78571428571429,178.1L0,178.1C0,178.1,0,178.1,0,178.1L0,161.9C0,161.9,0,161.9,0,161.9Z" fill="#4c78a8"/><path aria-label="mean execution time in µs: 83; algorithm: (wilczek) Outer-Loop Vectorization" role="graphics-symbol" aria-roledescription="bar" d="M0,221.9L84.92857142857143,221.9C87.13623152654743,221.9,88.92857142857143,223.692339902024,88.92857142857143,225.9L88.92857142857143,234.1C88.92857142857143,236.307660097976,87.13623152654743,238.1,84.92857142857143,238.1L0,238.1C0,238.1,0,238.1,0,238.1L0,221.9C0,221.9,0,221.9,0,221.9Z" fill="#4c78a8"/><path aria-label="mean execution time in µs: 50; algorithm: (wilczek) Outer- and Inner-Loop Vectorization" role="graphics-symbol" aria-roledescription="bar" d="M0,61.9L49.57142857142857,61.9C51.77908866940457,61.9,53.57142857142857,63.692339902023996,53.57142857142857,65.9L53.57142857142857,74.1C53.57142857142857,76.307660097976,51.77908866940457,78.1,49.57142857142857,78.1L0,78.1C0,78.1,0,78.1,0,78.1L0,61.9C0,61.9,0,61.9,0,61.9Z" fill="#4c78a8"/><path aria-label="mean execution time in µs: 36; algorithm: (chaowang15) convolve1D" role="graphics-symbol" aria-roledescription="bar" d="M0,41.9L34.57142857142857,41.9C36.77908866940457,41.9,38.57142857142857,43.692339902023996,38.57142857142857,45.9L38.57142857142857,54.099999999999994C38.57142857142857,56.307660097976,36.77908866940457,58.099999999999994,34.57142857142857,58.099999999999994L0,58.099999999999994C0,58.099999999999994,0,58.099999999999994,0,58.099999999999994L0,41.9C0,41.9,0,41.9,0,41.9Z" fill="#4c78a8"/></g><g class="mark-text role-mark child_layer_1_marks" role="graphics-object" aria-roledescription="text mark container"><text aria-label="mean execution time in µs: 71; algorithm: (JohT) kernelPerInputValue Transposed; MeanExecutionTime: 71" role="graphics-symbol" aria-roledescription="text mark" text-anchor="start" transform="translate(80.07142857142857,193)" font-family="sans-serif" font-size="9px" fill="black">71</text><text aria-label="mean execution time in µs: 22; algorithm: (JohT) inputPerKernelValue Transposed; MeanExecutionTime: 22" role="graphics-symbol" aria-roledescription="text mark" text-anchor="start" transform="translate(27.57142857142857,13)" font-family="sans-serif" font-size="9px" fill="black">22</text><text aria-label="mean execution time in µs: 265; algorithm: (JohT) inputPerKernelValue Transposed InnerLoopUnrolled; MeanExecutionTime: 265" role="graphics-symbol" aria-roledescription="text mark" text-anchor="start" transform="translate(287.92857142857144,293)" font-family="sans-serif" font-size="9px" fill="black">265</text><text aria-label="mean execution time in µs: 26; algorithm: (JohT) inputPerKernelValue Transposed OuterLoopUnrolled; MeanExecutionTime: 26" role="graphics-symbol" aria-roledescription="text mark" text-anchor="start" transform="translate(31.857142857142858,33)" font-family="sans-serif" font-size="9px" fill="black">26</text><text aria-label="mean execution time in µs: 61; algorithm: (JohT) inputPerKernelValue Transposed Inner&amp;OuterLoopUnrolled; MeanExecutionTime: 61" role="graphics-symbol" aria-roledescription="text mark" text-anchor="start" transform="translate(69.35714285714286,133)" font-family="sans-serif" font-size="9px" fill="black">61</text><text aria-label="mean execution time in µs: 56; algorithm: (JohT) inputPerKernelValue Transposed LoopFission; MeanExecutionTime: 56" role="graphics-symbol" aria-roledescription="text mark" text-anchor="start" transform="translate(64,93)" font-family="sans-serif" font-size="9px" fill="black">56</text><text aria-label="mean execution time in µs: 59; algorithm: (JohT) inputPerKernelValue Transposed LoopFissionIndexArithmetic; MeanExecutionTime: 59" role="graphics-symbol" aria-roledescription="text mark" text-anchor="start" transform="translate(67.21428571428572,113)" font-family="sans-serif" font-size="9px" fill="black">59</text><text aria-label="mean execution time in µs: 74; algorithm: (JohT) kernelPerInputValue Transposed LoopFission; MeanExecutionTime: 74" role="graphics-symbol" aria-roledescription="text mark" text-anchor="start" transform="translate(83.28571428571429,213)" font-family="sans-serif" font-size="9px" fill="black">74</text><text aria-label="mean execution time in µs: 64; algorithm: (matlab-like) conv 'full' shape; MeanExecutionTime: 64" role="graphics-symbol" aria-roledescription="text mark" text-anchor="start" transform="translate(72.57142857142857,153)" font-family="sans-serif" font-size="9px" fill="black">64</text><text aria-label="mean execution time in µs: 134; algorithm: (matlab-like) conv 'valid' shape pre padded; MeanExecutionTime: 134" role="graphics-symbol" aria-roledescription="text mark" text-anchor="start" transform="translate(147.57142857142858,273)" font-family="sans-serif" font-size="9px" fill="black">134</text><text aria-label="mean execution time in µs: 114; algorithm: (wilczek) Single; MeanExecutionTime: 114" role="graphics-symbol" aria-roledescription="text mark" text-anchor="start" transform="translate(126.14285714285714,253)" font-family="sans-serif" font-size="9px" fill="black">114</text><text aria-label="mean execution time in µs: 67; algorithm: (wilczek) Inner-Loop Vectorization; MeanExecutionTime: 67" role="graphics-symbol" aria-roledescription="text mark" text-anchor="start" transform="translate(75.78571428571429,173)" font-family="sans-serif" font-size="9px" fill="black">67</text><text aria-label="mean execution time in µs: 83; algorithm: (wilczek) Outer-Loop Vectorization; MeanExecutionTime: 83" role="graphics-symbol" aria-roledescription="text mark" text-anchor="start" transform="translate(92.92857142857143,233)" font-family="sans-serif" font-size="9px" fill="black">83</text><text aria-label="mean execution time in µs: 50; algorithm: (wilczek) Outer- and Inner-Loop Vectorization; MeanExecutionTime: 50" role="graphics-symbol" aria-roledescription="text mark" text-anchor="start" transform="translate(57.57142857142857,73)" font-family="sans-serif" font-size="9px" fill="black">50</text><text aria-label="mean execution time in µs: 36; algorithm: (chaowang15) convolve1D; MeanExecutionTime: 36" role="graphics-symbol" aria-roledescription="text mark" text-anchor="start" transform="translate(42.57142857142857,53)" font-family="sans-serif" font-size="9px" fill="black">36</text></g></g><path class="foreground" aria-hidden="true" d="" display="none"/></g><g transform="translate(834,0)"><path class="background" aria-hidden="true" d="M0.5,0.5h300v300h-300Z" stroke="#ddd"/><g><g class="mark-group role-axis" aria-hidden="true"><g transform="translate(0.5,300.5)"><path class="background" aria-hidden="true" d="M0,0h0v0h0Z" pointer-events="none"/><g><g class="mark-rule role-axis-grid" pointer-events="none"><line transform="translate(0,0)" x2="0" y2="-300" stroke="#ddd" stroke-width="1" opacity="1"/><line transform="translate(27,0)" x2="0" y2="-300" stroke="#ddd" stroke-width="1" opacity="1"/><line transform="translate(55,0)" x2="0" y2="-300" stroke="#ddd" stroke-width="1" opacity="1"/><line transform="translate(82,0)" x2="0" y2="-300" stroke="#ddd" stroke-width="1" opacity="1"/><line transform="translate(109,0)" x2="0" y2="-300" stroke="#ddd" stroke-width="1" opacity="1"/><line transform="translate(136,0)" x2="0" y2="-300" stroke="#ddd" stroke-width="1" opacity="1"/><line transform="translate(164,0)" x2="0" y2="-300" stroke="#ddd" stroke-width="1" opacity="1"/><line transform="translate(191,0)" x2="0" y2="-300" stroke="#ddd" stroke-width="1" opacity="1"/><line transform="translate(218,0)" x2="0" y2="-300" stroke="#ddd" stroke-width="1" opacity="1"/><line transform="translate(245,0)" x2="0" y2="-300" stroke="#ddd" stroke-width="1" opacity="1"/><line transform="translate(273,0)" x2="0" y2="-300" stroke="#ddd" stroke-width="1" opacity="1"/><line transform="translate(300,0)" x2="0" y2="-300" stroke="#ddd" stroke-width="1" opacity="1"/></g></g><path class="foreground" aria-hidden="true" d="" pointer-events="none" display="none"/></g></g><g class="mark-group role-axis" role="graphics-symbol" aria-roledescription="axis" aria-label="X-axis titled 'mean execution time in µs' for a linear scale with values from 0 to 11,000"><g transform="translate(0.5,300.5)"><path class="background" aria-hidden="true" d="M0,0h0v0h0Z" pointer-events="none"/><g><g class="mark-rule role-axis-tick" pointer-events="none"><line transform="translate(0,0)" x2="0" y2="5" stroke="#888" stroke-width="1" opacity="1"/><line transform="translate(27,0)" x2="0" y2="5" stroke="#888" stroke-width="1" opacity="1"/><line transform="translate(55,0)" x2="0" y2="5" stroke="#888" stroke-width="1" opacity="1"/><line transform="translate(82,0)" x2="0" y2="5" stroke="#888" stroke-width="1" opacity="1"/><line transform="translate(109,0)" x2="0" y2="5" stroke="#888" stroke-width="1" opacity="1"/><line transform="translate(136,0)" x2="0" y2="5" stroke="#888" stroke-width="1" opacity="1"/><line transform="translate(164,0)" x2="0" y2="5" stroke="#888" stroke-width="1" opacity="1"/><line transform="translate(191,0)" x2="0" y2="5" stroke="#888" stroke-width="1" opacity="1"/><line transform="translate(218,0)" x2="0" y2="5" stroke="#888" stroke-width="1" opacity="1"/><line transform="translate(245,0)" x2="0" y2="5" stroke="#888" stroke-width="1" opacity="1"/><line transform="translate(273,0)" x2="0" y2="5" stroke="#888" stroke-width="1" opacity="1"/><line transform="translate(300,0)" x2="0" y2="5" stroke="#888" stroke-width="1" opacity="1"/></g><g class="mark-text role-axis-label" pointer-events="none"><text text-anchor="start" transform="translate(0,15)" font-family="sans-serif" font-size="10px" fill="#000" opacity="1">0</text><text text-anchor="middle" transform="translate(27.272727272727273,15)" font-family="sans-serif" font-size="10px" fill="#000" opacity="0">1,000</text><text text-anchor="middle" transform="translate(54.54545454545455,15)" font-family="sans-serif" font-size="10px" fill="#000" opacity="1">2,000</text><text text-anchor="middle" transform="translate(81.81818181818181,15)" font-family="sans-serif" font-size="10px" fill="#000" opacity="0">3,000</text><text text-anchor="middle" transform="translate(109.0909090909091,15)" font-family="sans-serif" font-size="10px" fill="#000" opacity="1">4,000</text><text text-anchor="middle" transform="translate(136.36363636363635,15)" font-family="sans-serif" font-size="10px" fill="#000" opacity="0">5,000</text><text text-anchor="middle" transform="translate(163.63636363636363,15)" font-family="sans-serif" font-size="10px" fill="#000" opacity="1">6,000</text><text text-anchor="middle" transform="translate(190.9090909090909,15)" font-family="sans-serif" font-size="10px" fill="#000" opacity="0">7,000</text><text text-anchor="middle" transform="translate(218.1818181818182,15)" font-family="sans-serif" font-size="10px" fill="#000" opacity="1">8,000</text><text text-anchor="middle" transform="translate(245.45454545454547,15)" font-family="sans-serif" font-size="10px" fill="#000" opacity="0">9,000</text><text text-anchor="middle" transform="translate(272.7272727272727,15)" font-family="sans-serif" font-size="10px" fill="#000" opacity="1">10,000</text><text text-anchor="end" transform="translate(300,15)" font-family="sans-serif" font-size="10px" fill="#000" opacity="0">11,000</text></g><g class="mark-rule role-axis-domain" pointer-events="none"><line transform="translate(0,0)" x2="300" y2="0" stroke="#888" stroke-width="1" opacity="1"/></g><g class="mark-text role-axis-title" pointer-events="none"><text text-anchor="middle" transform="translate(150,30)" font-family="sans-serif" font-size="11px" font-weight="bold" fill="#000" opacity="1">mean execution time in µs</text></g></g><path class="foreground" aria-hidden="true" d="" pointer-events="none" display="none"/></g></g><g class="mark-group role-axis" role="graphics-symbol" aria-roledescription="axis" aria-label="Y-axis titled 'algorithm' for a discrete scale with 15 values: (chaowang15) convolve1D, (matlab-like) conv 'full' shape, (JohT) inputPerKernelValue Transposed, (JohT) kernelPerInputValue Transposed, (wilczek) Single, ending with (matlab-like) conv 'valid' shape pre padded"><g transform="translate(0.5,0.5)"><path class="background" aria-hidden="true" d="M0,0h0v0h0Z" pointer-events="none"/><g><g class="mark-rule role-axis-tick" pointer-events="none"><line transform="translate(0,10)" x2="-5" y2="0" stroke="#888" stroke-width="1" opacity="1"/><line transform="translate(0,30)" x2="-5" y2="0" stroke="#888" stroke-width="1" opacity="1"/><line transform="translate(0,50)" x2="-5" y2="0" stroke="#888" stroke-width="1" opacity="1"/><line transform="translate(0,70)" x2="-5" y2="0" stroke="#888" stroke-width="1" opacity="1"/><line transform="translate(0,90)" x2="-5" y2="0" stroke="#888" stroke-width="1" opacity="1"/><line transform="translate(0,110)" x2="-5" y2="0" stroke="#888" stroke-width="1" opacity="1"/><line transform="translate(0,130)" x2="-5" y2="0" stroke="#888" stroke-width="1" opacity="1"/><line transform="translate(0,150)" x2="-5" y2="0" stroke="#888" stroke-width="1" opacity="1"/><line transform="translate(0,170)" x2="-5" y2="0" stroke="#888" stroke-width="1" opacity="1"/><line transform="translate(0,190)" x2="-5" y2="0" stroke="#888" stroke-width="1" opacity="1"/><line transform="translate(0,210)" x2="-5" y2="0" stroke="#888" stroke-width="1" opacity="1"/><line transform="translate(0,230)" x2="-5" y2="0" stroke="#888" stroke-width="1" opacity="1"/><line transform="translate(0,250)" x2="-5" y2="0" stroke="#888" stroke-width="1" opacity="1"/><line transform="translate(0,270)" x2="-5" y2="0" stroke="#888" stroke-width="1" opacity="1"/><line transform="translate(0,290)" x2="-5" y2="0" stroke="#888" stroke-width="1" opacity="1"/></g><g class="mark-text role-axis-label" pointer-events="none"><text text-anchor="end" transform="translate(-7,12.5)" font-family="sans-serif" font-size="10px" fill="#000" opacity="1">(chaowang15) convolve1D</text><text text-anchor="end" transform="translate(-7,32.5)" font-family="sans-serif" font-size="10px" fill="#000" opacity="1">(matlab-like) conv 'full' shape</text><text text-anchor="end" transform="translate(-7,52.5)" font-family="sans-serif" font-size="10px" fill="#000" opacity="1">(JohT) inputPerKernelValue Transposed</text><text text-anchor="end" transform="translate(-7,72.5)" font-family="sans-serif" font-size="10px" fill="#000" opacity="1">(JohT) kernelPerInputValue Transposed</text><text text-anchor="end" transform="translate(-7,92.5)" font-family="sans-serif" font-size="10px" fill="#000" opacity="1">(wilczek) Single</text><text text-anchor="end" transform="translate(-7,112.5)" font-family="sans-serif" font-size="10px" fill="#000" opacity="1">(JohT) inputPerKernelValue Transposed OuterLoopUnrolled</text><text text-anchor="end" transform="translate(-7,132.5)" font-family="sans-serif" font-size="10px" fill="#000" opacity="1">(JohT) kernelPerInputValue Transposed LoopFission</text><text text-anchor="end" transform="translate(-7,152.5)" font-family="sans-serif" font-size="10px" fill="#000" opacity="1">(wilczek) Outer- and Inner-Loop Vectorization</text><text text-anchor="end" transform="translate(-7,172.5)" font-family="sans-serif" font-size="10px" fill="#000" opacity="1">(JohT) inputPerKernelValue Transposed Inner&amp;OuterLoopUnrolled</text><text text-anchor="end" transform="translate(-7,192.5)" font-family="sans-serif" font-size="10px" fill="#000" opacity="1">(JohT) inputPerKernelValue Transposed LoopFissionIndexArithme…</text><text text-anchor="end" transform="translate(-7,212.5)" font-family="sans-serif" font-size="10px" fill="#000" opacity="1">(JohT) inputPerKernelValue Transposed LoopFission</text><text text-anchor="end" transform="translate(-7,232.5)" font-family="sans-serif" font-size="10px" fill="#000" opacity="1">(wilczek) Inner-Loop Vectorization</text><text text-anchor="end" transform="translate(-7,252.5)" font-family="sans-serif" font-size="10px" fill="#000" opacity="1">(wilczek) Outer-Loop Vectorization</text><text text-anchor="end" transform="translate(-7,272.5)" font-family="sans-serif" font-size="10px" fill="#000" opacity="1">(JohT) inputPerKernelValue Transposed InnerLoopUnrolled</text><text text-anchor="end" transform="translate(-7,292.5)" font-family="sans-serif" font-size="10px" fill="#000" opacity="1">(matlab-like) conv 'valid' shape pre padded</text></g><g class="mark-rule role-axis-domain" pointer-events="none"><line transform="translate(0,0)" x2="0" y2="300" stroke="#888" stroke-width="1" opacity="1"/></g><g class="mark-text role-axis-title" pointer-events="none"><text text-anchor="middle" transform="translate(-320,150) rotate(-90) translate(0,-2)" font-family="sans-serif" font-size="11px" font-weight="bold" fill="#000" opacity="1">algorithm</text></g></g><path class="foreground" aria-hidden="true" d="" pointer-events="none" display="none"/></g></g><g class="mark-rect role-mark child_layer_0_marks" role="graphics-object" aria-roledescription="rect mark container"><path aria-label="mean execution time in µs: 743; algorithm: (JohT) kernelPerInputValue Transposed" role="graphics-symbol" aria-roledescription="bar" d="M0,61.9L16.263636363636365,61.9C18.471296461612365,61.9,20.263636363636365,63.692339902023996,20.263636363636365,65.9L20.263636363636365,74.1C20.263636363636365,76.307660097976,18.471296461612365,78.1,16.263636363636365,78.1L0,78.1C0,78.1,0,78.1,0,78.1L0,61.9C0,61.9,0,61.9,0,61.9Z" fill="#4c78a8"/><path aria-label="mean execution time in µs: 727; algorithm: (JohT) inputPerKernelValue Transposed" role="graphics-symbol" aria-roledescription="bar" d="M0,41.9L15.827272727272728,41.9C18.034932825248728,41.9,19.827272727272728,43.692339902023996,19.827272727272728,45.9L19.827272727272728,54.099999999999994C19.827272727272728,56.307660097976,18.034932825248728,58.099999999999994,15.827272727272728,58.099999999999994L0,58.099999999999994C0,58.099999999999994,0,58.099999999999994,0,58.099999999999994L0,41.9C0,41.9,0,41.9,0,41.9Z" fill="#4c78a8"/><path aria-label="mean execution time in µs: 8610; algorithm: (JohT) inputPerKernelValue Transposed InnerLoopUnrolled" role="graphics-symbol" aria-roledescription="bar" d="M0,261.9L230.8181818181818,261.9C233.02584191615782,261.9,234.8181818181818,263.692339902024,234.8181818181818,265.9L234.8181818181818,274.09999999999997C234.8181818181818,276.30766009797594,233.02584191615782,278.09999999999997,230.8181818181818,278.09999999999997L0,278.09999999999997C0,278.09999999999997,0,278.09999999999997,0,278.09999999999997L0,261.9C0,261.9,0,261.9,0,261.9Z" fill="#4c78a8"/><path aria-label="mean execution time in µs: 896; algorithm: (JohT) inputPerKernelValue Transposed OuterLoopUnrolled" role="graphics-symbol" aria-roledescription="bar" d="M0,101.9L20.436363636363637,101.9C22.644023734339637,101.9,24.436363636363637,103.692339902024,24.436363636363637,105.9L24.436363636363637,114.10000000000001C24.436363636363637,116.30766009797601,22.644023734339637,118.10000000000001,20.436363636363637,118.10000000000001L0,118.10000000000001C0,118.10000000000001,0,118.10000000000001,0,118.10000000000001L0,101.9C0,101.9,0,101.9,0,101.9Z" fill="#4c78a8"/><path aria-label="mean execution time in µs: 1824; algorithm: (JohT) inputPerKernelValue Transposed Inner&amp;OuterLoopUnrolled" role="graphics-symbol" aria-roledescription="bar" d="M0,161.9L45.74545454545454,161.9C47.953114643430546,161.9,49.74545454545454,163.692339902024,49.74545454545454,165.9L49.74545454545454,174.1C49.74545454545454,176.307660097976,47.953114643430546,178.1,45.74545454545454,178.1L0,178.1C0,178.1,0,178.1,0,178.1L0,161.9C0,161.9,0,161.9,0,161.9Z" fill="#4c78a8"/><path aria-label="mean execution time in µs: 1873; algorithm: (JohT) inputPerKernelValue Transposed LoopFission" role="graphics-symbol" aria-roledescription="bar" d="M0,201.9L47.08181818181818,201.9C49.28947827979418,201.9,51.08181818181818,203.692339902024,51.08181818181818,205.9L51.08181818181818,214.1C51.08181818181818,216.307660097976,49.28947827979418,218.1,47.08181818181818,218.1L0,218.1C0,218.1,0,218.1,0,218.1L0,201.9C0,201.9,0,201.9,0,201.9Z" fill="#4c78a8"/><path aria-label="mean execution time in µs: 1872; algorithm: (JohT) inputPerKernelValue Transposed LoopFissionIndexArithmetic" role="graphics-symbol" aria-roledescription="bar" d="M0,181.9L47.054545454545455,181.9C49.26220555252146,181.9,51.054545454545455,183.692339902024,51.054545454545455,185.9L51.054545454545455,194.1C51.054545454545455,196.307660097976,49.26220555252146,198.1,47.054545454545455,198.1L0,198.1C0,198.1,0,198.1,0,198.1L0,181.9C0,181.9,0,181.9,0,181.9Z" fill="#4c78a8"/><path aria-label="mean execution time in µs: 1209; algorithm: (JohT) kernelPerInputValue Transposed LoopFission" role="graphics-symbol" aria-roledescription="bar" d="M0,121.9L28.972727272727276,121.9C31.180387370703276,121.9,32.972727272727276,123.692339902024,32.972727272727276,125.9L32.972727272727276,134.1C32.972727272727276,136.307660097976,31.180387370703276,138.1,28.972727272727276,138.1L0,138.1C0,138.1,0,138.1,0,138.1L0,121.9C0,121.9,0,121.9,0,121.9Z" fill="#4c78a8"/><path aria-label="mean execution time in µs: 683; algorithm: (matlab-like) conv 'full' shape" role="graphics-symbol" aria-roledescription="bar" d="M0,21.9L14.627272727272729,21.9C16.83493282524873,21.9,18.62727272727273,23.692339902024,18.62727272727273,25.9L18.62727272727273,34.099999999999994C18.62727272727273,36.307660097976,16.83493282524873,38.099999999999994,14.627272727272729,38.099999999999994L0,38.099999999999994C0,38.099999999999994,0,38.099999999999994,0,38.099999999999994L0,21.9C0,21.9,0,21.9,0,21.9Z" fill="#4c78a8"/><path aria-label="mean execution time in µs: 10970; algorithm: (matlab-like) conv 'valid' shape pre padded" role="graphics-symbol" aria-roledescription="bar" d="M0,281.9L295.1818181818182,281.9C297.38947827979416,281.9,299.1818181818182,283.692339902024,299.1818181818182,285.9L299.1818181818182,294.09999999999997C299.1818181818182,296.30766009797594,297.38947827979416,298.09999999999997,295.1818181818182,298.09999999999997L0,298.09999999999997C0,298.09999999999997,0,298.09999999999997,0,298.09999999999997L0,281.9C0,281.9,0,281.9,0,281.9Z" fill="#4c78a8"/><path aria-label="mean execution time in µs: 743; algorithm: (wilczek) Single" role="graphics-symbol" aria-roledescription="bar" d="M0,81.9L16.263636363636365,81.9C18.471296461612365,81.9,20.263636363636365,83.692339902024,20.263636363636365,85.9L20.263636363636365,94.10000000000001C20.263636363636365,96.30766009797601,18.471296461612365,98.10000000000001,16.263636363636365,98.10000000000001L0,98.10000000000001C0,98.10000000000001,0,98.10000000000001,0,98.10000000000001L0,81.9C0,81.9,0,81.9,0,81.9Z" fill="#4c78a8"/><path aria-label="mean execution time in µs: 2087; algorithm: (wilczek) Inner-Loop Vectorization" role="graphics-symbol" aria-roledescription="bar" d="M0,221.9L52.918181818181814,221.9C55.12584191615782,221.9,56.918181818181814,223.692339902024,56.918181818181814,225.9L56.918181818181814,234.1C56.918181818181814,236.307660097976,55.12584191615782,238.1,52.918181818181814,238.1L0,238.1C0,238.1,0,238.1,0,238.1L0,221.9C0,221.9,0,221.9,0,221.9Z" fill="#4c78a8"/><path aria-label="mean execution time in µs: 2999; algorithm: (wilczek) Outer-Loop Vectorization" role="graphics-symbol" aria-roledescription="bar" d="M0,241.9L77.79090909090908,241.9C79.99856918888509,241.9,81.79090909090908,243.692339902024,81.79090909090908,245.9L81.79090909090908,254.10000000000002C81.79090909090908,256.307660097976,79.99856918888509,258.1,77.79090909090908,258.1L0,258.1C0,258.1,0,258.1,0,258.1L0,241.9C0,241.9,0,241.9,0,241.9Z" fill="#4c78a8"/><path aria-label="mean execution time in µs: 1523; algorithm: (wilczek) Outer- and Inner-Loop Vectorization" role="graphics-symbol" aria-roledescription="bar" d="M0,141.9L37.53636363636363,141.9C39.744023734339635,141.9,41.53636363636363,143.692339902024,41.53636363636363,145.9L41.53636363636363,154.1C41.53636363636363,156.307660097976,39.744023734339635,158.1,37.53636363636363,158.1L0,158.1C0,158.1,0,158.1,0,158.1L0,141.9C0,141.9,0,141.9,0,141.9Z" fill="#4c78a8"/><path aria-label="mean execution time in µs: 670; algorithm: (chaowang15) convolve1D" role="graphics-symbol" aria-roledescription="bar" d="M0,1.9L14.272727272727273,1.9C16.480387370703273,1.9,18.272727272727273,3.692339902024,18.272727272727273,5.9L18.272727272727273,14.099999999999998C18.272727272727273,16.307660097975997,16.480387370703273,18.099999999999998,14.272727272727273,18.099999999999998L0,18.099999999999998C0,18.099999999999998,0,18.099999999999998,0,18.099999999999998L0,1.9C0,1.9,0,1.9,0,1.9Z" fill="#4c78a8"/></g><g class="mark-text role-mark child_layer_1_marks" role="graphics-object" aria-roledescription="text mark container"><text aria-label="mean execution time in µs: 743; algorithm: (JohT) kernelPerInputValue Transposed; MeanExecutionTime: 743" role="graphics-symbol" aria-roledescription="text mark" text-anchor="start" transform="translate(24.263636363636365,73)" font-family="sans-serif" font-size="9px" fill="black">743</text><text aria-label="mean execution time in µs: 727; algorithm: (JohT) inputPerKernelValue Transposed; MeanExecutionTime: 727" role="graphics-symbol" aria-roledescription="text mark" text-anchor="start" transform="translate(23.827272727272728,53)" font-family="sans-serif" font-size="9px" fill="black">727</text><text aria-label="mean execution time in µs: 8610; algorithm: (JohT) inputPerKernelValue Transposed InnerLoopUnrolled; MeanExecutionTime: 8610" role="graphics-symbol" aria-roledescription="text mark" text-anchor="start" transform="translate(238.8181818181818,273)" font-family="sans-serif" font-size="9px" fill="black">8610</text><text aria-label="mean execution time in µs: 896; algorithm: (JohT) inputPerKernelValue Transposed OuterLoopUnrolled; MeanExecutionTime: 896" role="graphics-symbol" aria-roledescription="text mark" text-anchor="start" transform="translate(28.436363636363637,113)" font-family="sans-serif" font-size="9px" fill="black">896</text><text aria-label="mean execution time in µs: 1824; algorithm: (JohT) inputPerKernelValue Transposed Inner&amp;OuterLoopUnrolled; MeanExecutionTime: 1824" role="graphics-symbol" aria-roledescription="text mark" text-anchor="start" transform="translate(53.74545454545454,173)" font-family="sans-serif" font-size="9px" fill="black">1824</text><text aria-label="mean execution time in µs: 1873; algorithm: (JohT) inputPerKernelValue Transposed LoopFission; MeanExecutionTime: 1873" role="graphics-symbol" aria-roledescription="text mark" text-anchor="start" transform="translate(55.08181818181818,213)" font-family="sans-serif" font-size="9px" fill="black">1873</text><text aria-label="mean execution time in µs: 1872; algorithm: (JohT) inputPerKernelValue Transposed LoopFissionIndexArithmetic; MeanExecutionTime: 1872" role="graphics-symbol" aria-roledescription="text mark" text-anchor="start" transform="translate(55.054545454545455,193)" font-family="sans-serif" font-size="9px" fill="black">1872</text><text aria-label="mean execution time in µs: 1209; algorithm: (JohT) kernelPerInputValue Transposed LoopFission; MeanExecutionTime: 1209" role="graphics-symbol" aria-roledescription="text mark" text-anchor="start" transform="translate(36.972727272727276,133)" font-family="sans-serif" font-size="9px" fill="black">1209</text><text aria-label="mean execution time in µs: 683; algorithm: (matlab-like) conv 'full' shape; MeanExecutionTime: 683" role="graphics-symbol" aria-roledescription="text mark" text-anchor="start" transform="translate(22.62727272727273,33)" font-family="sans-serif" font-size="9px" fill="black">683</text><text aria-label="mean execution time in µs: 10970; algorithm: (matlab-like) conv 'valid' shape pre padded; MeanExecutionTime: 10970" role="graphics-symbol" aria-roledescription="text mark" text-anchor="start" transform="translate(303.1818181818182,293)" font-family="sans-serif" font-size="9px" fill="black">10970</text><text aria-label="mean execution time in µs: 743; algorithm: (wilczek) Single; MeanExecutionTime: 743" role="graphics-symbol" aria-roledescription="text mark" text-anchor="start" transform="translate(24.263636363636365,93)" font-family="sans-serif" font-size="9px" fill="black">743</text><text aria-label="mean execution time in µs: 2087; algorithm: (wilczek) Inner-Loop Vectorization; MeanExecutionTime: 2087" role="graphics-symbol" aria-roledescription="text mark" text-anchor="start" transform="translate(60.918181818181814,233)" font-family="sans-serif" font-size="9px" fill="black">2087</text><text aria-label="mean execution time in µs: 2999; algorithm: (wilczek) Outer-Loop Vectorization; MeanExecutionTime: 2999" role="graphics-symbol" aria-roledescription="text mark" text-anchor="start" transform="translate(85.79090909090908,253)" font-family="sans-serif" font-size="9px" fill="black">2999</text><text aria-label="mean execution time in µs: 1523; algorithm: (wilczek) Outer- and Inner-Loop Vectorization; MeanExecutionTime: 1523" role="graphics-symbol" aria-roledescription="text mark" text-anchor="start" transform="translate(45.53636363636363,153)" font-family="sans-serif" font-size="9px" fill="black">1523</text><text aria-label="mean execution time in µs: 670; algorithm: (chaowang15) convolve1D; MeanExecutionTime: 670" role="graphics-symbol" aria-roledescription="text mark" text-anchor="start" transform="translate(22.272727272727273,13)" font-family="sans-serif" font-size="9px" fill="black">670</text></g></g><path class="foreground" aria-hidden="true" d="" display="none"/></g></g></g><path class="foreground" aria-hidden="true" d="" display="none"/></g></g></g></svg>