<svg xmlns="http://www.w3.org/2000/svg" xmlns:xlink="http://www.w3.org/1999/xlink" version="1.1" class="marks" width="1486" height="404" viewBox="0 0 1486 404"><rect width="1486" height="404" fill="white"/><g fill="none" stroke-miterlimit="10" transform="translate(509,66)"><g class="mark-group role-frame root" role="graphics-object" aria-roledescription="group mark container"><g transform="translate(0,0)"><path class="background" aria-hidden="true" d="M0,0h0v0h0Z"/><g><g class="mark-group role-column-title column-title" role="graphics-object" aria-roledescription="group mark container"><g transform="translate(234,-35)"><path class="background" aria-hidden="true" d="M0,0h0v0h0Z"/><g><g class="mark-group role-title"><g transform="translate(0,-26)"><path class="background" aria-hidden="true" d="M0,0h0v0h0Z" pointer-events="none"/><g><g class="mark-text role-title-text" role="graphics-symbol" aria-roledescription="title" aria-label="Title text 'Convolution Benchmarks'" pointer-events="none"><text text-anchor="middle" transform="translate(0,13)" font-family="sans-serif" font-size="16px" font-weight="bold" fill="#000" opacity="1">Convolution Benchmarks</text></g></g><path class="foreground" aria-hidden="true" d="" pointer-events="none" display="none"/></g></g></g><path class="foreground" aria-hidden="true" d="" display="none"/></g></g><g class="mark-group role-column-header column_header" role="graphics-object" aria-roledescription="group mark container"><g transform="translate(0,-1)"><path class="background" aria-hidden="true" d="M0,0h200v0h-200Z"/><g><g class="mark-group role-title"><g transform="translate(100,-24)"><path class="background" aria-hidden="true" d="M0,0h0v0h0Z" pointer-events="none"/><g><g class="mark-text role-title-text" role="graphics-symbol" aria-roledescription="title" aria-label="Title text 'kernel size 16'" pointer-events="none"><text text-anchor="middle" transform="translate(0,11)" font-family="sans-serif" font-size="14px" fill="#000" opacity="1">kernel size 16</text></g></g><path class="foreground" aria-hidden="true" d="" pointer-events="none" display="none"/></g></g></g><path class="foreground" aria-hidden="true" d="" display="none"/></g><g transform="translate(738,-1)"><path class="background" aria-hidden="true" d="M0,0h200v0h-200Z"/><g><g class="mark-group role-title"><g transform="translate(100,-24)"><path class="background" aria-hidden="true" d="M0,0h0v0h0Z" pointer-events="none"/><g><g class="mark-text role-title-text" role="graphics-symbol" aria-roledescription="title" aria-label="Title text 'kernel size 512'" pointer-events="none"><text text-anchor="middle" transform="translate(0,11)" font-family="sans-serif" font-size="14px" fill="#000" opacity="1">kernel size 512</text></g></g><path class="foreground" aria-hidden="true" d="" pointer-events="none" display="none"/></g></g></g><path class="foreground" aria-hidden="true" d="" display="none"/></g></g><g class="mark-group role-scope cell" role="graphics-object" aria-roledescription="group mark container"><g transform="translate(0,0)"><path class="background" aria-hidden="true" d="M0.5,0.5h200v300h-200Z" stroke="#ddd"/><g><g class="mark-group role-axis" aria-hidden="true"><g transform="translate(0.5,300.5)"><path class="background" aria-hidden="true" d="M0,0h0v0h0Z" pointer-events="none"/><g><g class="mark-rule role-axis-grid" pointer-events="none"><line transform="translate(0,0)" x2="0" y2="-300" stroke="#ddd" stroke-width="1" opacity="1"/><line transform="translate(38,0)" x2="0" y2="-300" stroke="#ddd" stroke-width="1" opacity="1"/><line transform="translate(77,0)" x2="0" y2="-300" stroke="#ddd" stroke-width="1" opacity="1"/><line transform="translate(115,0)" x2="0" y2="-300" stroke="#ddd" stroke-width="1" opacity="1"/><line transform="translate(154,0)" x2="0" y2="-300" stroke="#ddd" stroke-width="1" opacity="1"/><line transform="translate(192,0)" x2="0" y2="-300" stroke="#ddd" stroke-width="1" opacity="1"/></g></g><path class="foreground" aria-hidden="true" d="" pointer-events="none" display="none"/></g></g><g class="mark-group role-axis" role="graphics-symbol" aria-roledescription="axis" aria-label="X-axis titled 'mean execution time in µs' for a linear scale with values from 0 to 260"><g transform="translate(0.5,300.5)"><path class="background" aria-hidden="true" d="M0,0h0v0h0Z" pointer-events="none"/><g><g class="mark-rule role-axis-tick" pointer-events="none"><line transform="translate(0,0)" x2="0" y2="5" stroke="#888" stroke-width="1" opacity="1"/><line transform="translate(38,0)" x2="0" y2="5" stroke="#888" stroke-width="1" opacity="1"/><line transform="translate(77,0)" x2="0" y2="5" stroke="#888" stroke-width="1" opacity="1"/><line transform="translate(115,0)" x2="0" y2="5" stroke="#888" stroke-width="1" opacity="1"/><line transform="translate(154,0)" x2="0" y2="5" stroke="#888" stroke-width="1" opacity="1"/><line transform="translate(192,0)" x2="0" y2="5" stroke="#888" stroke-width="1" opacity="1"/></g><g class="mark-text role-axis-label" pointer-events="none"><text text-anchor="start" transform="translate(0,15)" font-family="sans-serif" font-size="10px" fill="#000" opacity="1">0</text><text text-anchor="middle" transform="translate(38.46153846153847,15)" font-family="sans-serif" font-size="10px" fill="#000" opacity="1">50</text><text text-anchor="middle" transform="translate(76.92307692307693,15)" font-family="sans-serif" font-size="10px" fill="#000" opacity="1">100</text><text text-anchor="middle" transform="translate(115.38461538461537,15)" font-family="sans-serif" font-size="10px" fill="#000" opacity="1">150</text><text text-anchor="middle" transform="translate(153.84615384615387,15)" font-family="sans-serif" font-size="10px" fill="#000" opacity="1">200</text><text text-anchor="middle" transform="translate(192.30769230769232,15)" font-family="sans-serif" font-size="10px" fill="#000" opacity="1">250</text></g><g class="mark-rule role-axis-domain" pointer-events="none"><line transform="translate(0,0)" x2="200" y2="0" stroke="#888" stroke-width="1" opacity="1"/></g><g class="mark-text role-axis-title" pointer-events="none"><text text-anchor="middle" transform="translate(100,30)" font-family="sans-serif" font-size="11px" font-weight="bold" fill="#000" opacity="1">mean execution time in µs</text></g></g><path class="foreground" aria-hidden="true" d="" pointer-events="none" display="none"/></g></g><g class="mark-group role-axis" role="graphics-symbol" aria-roledescription="axis" aria-label="Y-axis titled 'algorithm' for a discrete scale with 15 values: (JohT) inputPerKernelValue Transposed, (JohT) inputPerKernelValue Transposed OuterLoopUnrolled, (chaowang15) convolve1D, (matlab-like) conv 'full' shape, (JohT) inputPerKernelValue Transposed Inner&amp;OuterLoopUnrolled, ending with (wilczek) Outer-Loop Vectorization"><g transform="translate(0.5,0.5)"><path class="background" aria-hidden="true" d="M0,0h0v0h0Z" pointer-events="none"/><g><g class="mark-rule role-axis-tick" pointer-events="none"><line transform="translate(0,10)" x2="-5" y2="0" stroke="#888" stroke-width="1" opacity="1"/><line transform="translate(0,30)" x2="-5" y2="0" stroke="#888" stroke-width="1" opacity="1"/><line transform="translate(0,50)" x2="-5" y2="0" stroke="#888" stroke-width="1" opacity="1"/><line transform="translate(0,70)" x2="-5" y2="0" stroke="#888" stroke-width="1" opacity="1"/><line transform="translate(0,90)" x2="-5" y2="0" stroke="#888" stroke-width="1" opacity="1"/><line transform="translate(0,110)" x2="-5" y2="0" stroke="#888" stroke-width="1" opacity="1"/><line transform="translate(0,130)" x2="-5" y2="0" stroke="#888" stroke-width="1" opacity="1"/><line transform="translate(0,150)" x2="-5" y2="0" stroke="#888" stroke-width="1" opacity="1"/><line transform="translate(0,170)" x2="-5" y2="0" stroke="#888" stroke-width="1" opacity="1"/><line transform="translate(0,190)" x2="-5" y2="0" stroke="#888" stroke-width="1" opacity="1"/><line transform="translate(0,210)" x2="-5" y2="0" stroke="#888" stroke-width="1" opacity="1"/><line transform="translate(0,230)" x2="-5" y2="0" stroke="#888" stroke-width="1" opacity="1"/><line transform="translate(0,250)" x2="-5" y2="0" stroke="#888" stroke-width="1" opacity="1"/><line transform="translate(0,270)" x2="-5" y2="0" stroke="#888" stroke-width="1" opacity="1"/><line transform="translate(0,290)" x2="-5" y2="0" stroke="#888" stroke-width="1" opacity="1"/></g><g class="mark-text role-axis-label" pointer-events="none"><text text-anchor="end" transform="translate(-7,12.5)" font-family="sans-serif" font-size="10px" fill="#000" opacity="1">(JohT) inputPerKernelValue Transposed</text><text text-anchor="end" transform="translate(-7,32.5)" font-family="sans-serif" font-size="10px" fill="#000" opacity="1">(JohT) inputPerKernelValue Transposed OuterLoopUnrolled</text><text text-anchor="end" transform="translate(-7,52.5)" font-family="sans-serif" font-size="10px" fill="#000" opacity="1">(chaowang15) convolve1D</text><text text-anchor="end" transform="translate(-7,72.5)" font-family="sans-serif" font-size="10px" fill="#000" opacity="1">(matlab-like) conv 'full' shape</text><text text-anchor="end" transform="translate(-7,92.5)" font-family="sans-serif" font-size="10px" fill="#000" opacity="1">(JohT) inputPerKernelValue Transposed Inner&amp;OuterLoopUnrolled</text><text text-anchor="end" transform="translate(-7,112.5)" font-family="sans-serif" font-size="10px" fill="#000" opacity="1">(JohT) inputPerKernelValue Transposed LoopFission</text><text text-anchor="end" transform="translate(-7,132.5)" font-family="sans-serif" font-size="10px" fill="#000" opacity="1">(JohT) inputPerKernelValue Transposed LoopFissionIndexArithme…</text><text text-anchor="end" transform="translate(-7,152.5)" font-family="sans-serif" font-size="10px" fill="#000" opacity="1">(wilczek) Outer- and Inner-Loop Vectorization</text><text text-anchor="end" transform="translate(-7,172.5)" font-family="sans-serif" font-size="10px" fill="#000" opacity="1">(JohT) kernelPerInputValue Transposed</text><text text-anchor="end" transform="translate(-7,192.5)" font-family="sans-serif" font-size="10px" fill="#000" opacity="1">(JohT) kernelPerInputValue Transposed LoopFission</text><text text-anchor="end" transform="translate(-7,212.5)" font-family="sans-serif" font-size="10px" fill="#000" opacity="1">(wilczek) Inner-Loop Vectorization</text><text text-anchor="end" transform="translate(-7,232.5)" font-family="sans-serif" font-size="10px" fill="#000" opacity="1">(wilczek) Single</text><text text-anchor="end" transform="translate(-7,252.5)" font-family="sans-serif" font-size="10px" fill="#000" opacity="1">(matlab-like) conv 'valid' shape pre padded</text><text text-anchor="end" transform="translate(-7,272.5)" font-family="sans-serif" font-size="10px" fill="#000" opacity="1">(JohT) inputPerKernelValue Transposed InnerLoopUnrolled</text><text text-anchor="end" transform="translate(-7,292.5)" font-family="sans-serif" font-size="10px" fill="#000" opacity="1">(wilczek) Outer-Loop Vectorization</text></g><g class="mark-rule role-axis-domain" pointer-events="none"><line transform="translate(0,0)" x2="0" y2="300" stroke="#888" stroke-width="1" opacity="1"/></g><g class="mark-text role-axis-title" pointer-events="none"><text text-anchor="middle" transform="translate(-320,150) rotate(-90) translate(0,-2)" font-family="sans-serif" font-size="11px" font-weight="bold" fill="#000" opacity="1">algorithm</text></g></g><path class="foreground" aria-hidden="true" d="" pointer-events="none" display="none"/></g></g><g class="mark-rect role-mark child_layer_0_marks" role="graphics-object" aria-roledescription="rect mark container"><path aria-label="mean execution time in µs: 66; algorithm: (JohT) kernelPerInputValue Transposed" role="graphics-symbol" aria-roledescription="bar" d="M0,161.9L46.76923076923077,161.9C48.97689086720677,161.9,50.76923076923077,163.692339902024,50.76923076923077,165.9L50.76923076923077,174.1C50.76923076923077,176.307660097976,48.97689086720677,178.1,46.76923076923077,178.1L0,178.1C0,178.1,0,178.1,0,178.1L0,161.9C0,161.9,0,161.9,0,161.9Z" fill="#4c78a8"/><path aria-label="mean execution time in µs: 23; algorithm: (JohT) inputPerKernelValue Transposed" role="graphics-symbol" aria-roledescription="bar" d="M0,1.9L13.692307692307693,1.9C15.899967790283693,1.9,17.692307692307693,3.692339902024,17.692307692307693,5.9L17.692307692307693,14.099999999999998C17.692307692307693,16.307660097975997,15.899967790283693,18.099999999999998,13.692307692307693,18.099999999999998L0,18.099999999999998C0,18.099999999999998,0,18.099999999999998,0,18.099999999999998L0,1.9C0,1.9,0,1.9,0,1.9Z" fill="#4c78a8"/><path aria-label="mean execution time in µs: 239; algorithm: (JohT) inputPerKernelValue Transposed InnerLoopUnrolled" role="graphics-symbol" aria-roledescription="bar" d="M0,261.9L179.84615384615384,261.9C182.05381394412984,261.9,183.84615384615384,263.692339902024,183.84615384615384,265.9L183.84615384615384,274.09999999999997C183.84615384615384,276.30766009797594,182.05381394412984,278.09999999999997,179.84615384615384,278.09999999999997L0,278.09999999999997C0,278.09999999999997,0,278.09999999999997,0,278.09999999999997L0,261.9C0,261.9,0,261.9,0,261.9Z" fill="#4c78a8"/><path aria-label="mean execution time in µs: 42; algorithm: (JohT) inputPerKernelValue Transposed OuterLoopUnrolled" role="graphics-symbol" aria-roledescription="bar" d="M0,21.9L28.307692307692307,21.9C30.515352405668306,21.9,32.30769230769231,23.692339902024,32.30769230769231,25.9L32.30769230769231,34.099999999999994C32.30769230769231,36.307660097976,30.515352405668306,38.099999999999994,28.307692307692307,38.099999999999994L0,38.099999999999994C0,38.099999999999994,0,38.099999999999994,0,38.099999999999994L0,21.9C0,21.9,0,21.9,0,21.9Z" fill="#4c78a8"/><path aria-label="mean execution time in µs: 56; algorithm: (JohT) inputPerKernelValue Transposed Inner&amp;OuterLoopUnrolled" role="graphics-symbol" aria-roledescription="bar" d="M0,81.9L39.07692307692308,81.9C41.28458317489908,81.9,43.07692307692308,83.692339902024,43.07692307692308,85.9L43.07692307692308,94.10000000000001C43.07692307692308,96.30766009797601,41.28458317489908,98.10000000000001,39.07692307692308,98.10000000000001L0,98.10000000000001C0,98.10000000000001,0,98.10000000000001,0,98.10000000000001L0,81.9C0,81.9,0,81.9,0,81.9Z" fill="#4c78a8"/><path aria-label="mean execution time in µs: 58; algorithm: (JohT) inputPerKernelValue Transposed LoopFission" role="graphics-symbol" aria-roledescription="bar" d="M0,101.9L40.61538461538462,101.9C42.82304471336062,101.9,44.61538461538462,103.692339902024,44.61538461538462,105.9L44.61538461538462,114.10000000000001C44.61538461538462,116.30766009797601,42.82304471336062,118.10000000000001,40.61538461538462,118.10000000000001L0,118.10000000000001C0,118.10000000000001,0,118.10000000000001,0,118.10000000000001L0,101.9C0,101.9,0,101.9,0,101.9Z" fill="#4c78a8"/><path aria-label="mean execution time in µs: 60; algorithm: (JohT) inputPerKernelValue Transposed LoopFissionIndexArithmetic" role="graphics-symbol" aria-roledescription="bar" d="M0,121.9L42.15384615384615,121.9C44.361506251822156,121.9,46.15384615384615,123.692339902024,46.15384615384615,125.9L46.15384615384615,134.1C46.15384615384615,136.307660097976,44.361506251822156,138.1,42.15384615384615,138.1L0,138.1C0,138.1,0,138.1,0,138.1L0,121.9C0,121.9,0,121.9,0,121.9Z" fill="#4c78a8"/><path aria-label="mean execution time in µs: 71; algorithm: (JohT) kernelPerInputValue Transposed LoopFission" role="graphics-symbol" aria-roledescription="bar" d="M0,181.9L50.61538461538461,181.9C52.823044713360616,181.9,54.61538461538461,183.692339902024,54.61538461538461,185.9L54.61538461538461,194.1C54.61538461538461,196.307660097976,52.823044713360616,198.1,50.61538461538461,198.1L0,198.1C0,198.1,0,198.1,0,198.1L0,181.9C0,181.9,0,181.9,0,181.9Z" fill="#4c78a8"/><path aria-label="mean execution time in µs: 55; algorithm: (matlab-like) conv 'full' shape" role="graphics-symbol" aria-roledescription="bar" d="M0,61.9L38.30769230769231,61.9C40.51535240566831,61.9,42.30769230769231,63.692339902023996,42.30769230769231,65.9L42.30769230769231,74.1C42.30769230769231,76.307660097976,40.51535240566831,78.1,38.30769230769231,78.1L0,78.1C0,78.1,0,78.1,0,78.1L0,61.9C0,61.9,0,61.9,0,61.9Z" fill="#4c78a8"/><path aria-label="mean execution time in µs: 132; algorithm: (matlab-like) conv 'valid' shape pre padded" role="graphics-symbol" aria-roledescription="bar" d="M0,241.9L97.53846153846153,241.9C99.74612163643754,241.9,101.53846153846153,243.692339902024,101.53846153846153,245.9L101.53846153846153,254.10000000000002C101.53846153846153,256.307660097976,99.74612163643754,258.1,97.53846153846153,258.1L0,258.1C0,258.1,0,258.1,0,258.1L0,241.9C0,241.9,0,241.9,0,241.9Z" fill="#4c78a8"/><path aria-label="mean execution time in µs: 104; algorithm: (wilczek) Single" role="graphics-symbol" aria-roledescription="bar" d="M0,221.9L76,221.9C78.207660097976,221.9,80,223.692339902024,80,225.9L80,234.1C80,236.307660097976,78.207660097976,238.1,76,238.1L0,238.1C0,238.1,0,238.1,0,238.1L0,221.9C0,221.9,0,221.9,0,221.9Z" fill="#4c78a8"/><path aria-label="mean execution time in µs: 76; algorithm: (wilczek) Inner-Loop Vectorization" role="graphics-symbol" aria-roledescription="bar" d="M0,201.9L54.46153846153847,201.9C56.66919855951447,201.9,58.46153846153847,203.692339902024,58.46153846153847,205.9L58.46153846153847,214.1C58.46153846153847,216.307660097976,56.66919855951447,218.1,54.46153846153847,218.1L0,218.1C0,218.1,0,218.1,0,218.1L0,201.9C0,201.9,0,201.9,0,201.9Z" fill="#4c78a8"/><path aria-label="mean execution time in µs: 244; algorithm: (wilczek) Outer-Loop Vectorization" role="graphics-symbol" aria-roledescription="bar" d="M0,281.9L183.69230769230768,281.9C185.89996779028368,281.9,187.69230769230768,283.692339902024,187.69230769230768,285.9L187.69230769230768,294.09999999999997C187.69230769230768,296.30766009797594,185.89996779028368,298.09999999999997,183.69230769230768,298.09999999999997L0,298.09999999999997C0,298.09999999999997,0,298.09999999999997,0,298.09999999999997L0,281.9C0,281.9,0,281.9,0,281.9Z" fill="#4c78a8"/><path aria-label="mean execution time in µs: 65; algorithm: (wilczek) Outer- and Inner-Loop Vectorization" role="graphics-symbol" aria-roledescription="bar" d="M0,141.9L46,141.9C48.207660097976,141.9,50,143.692339902024,50,145.9L50,154.1C50,156.307660097976,48.207660097976,158.1,46,158.1L0,158.1C0,158.1,0,158.1,0,158.1L0,141.9C0,141.9,0,141.9,0,141.9Z" fill="#4c78a8"/><path aria-label="mean execution time in µs: 48; algorithm: (chaowang15) convolve1D" role="graphics-symbol" aria-roledescription="bar" d="M0,41.9L32.92307692307693,41.9C35.13073702105293,41.9,36.92307692307693,43.692339902023996,36.92307692307693,45.9L36.92307692307693,54.099999999999994C36.92307692307693,56.307660097976,35.13073702105293,58.099999999999994,32.92307692307693,58.099999999999994L0,58.099999999999994C0,58.099999999999994,0,58.099999999999994,0,58.099999999999994L0,41.9C0,41.9,0,41.9,0,41.9Z" fill="#4c78a8"/></g><g class="mark-text role-mark child_layer_1_marks" role="graphics-object" aria-roledescription="text mark container"><text aria-label="mean execution time in µs: 66; algorithm: (JohT) kernelPerInputValue Transposed; MeanExecutionTime: 66" role="graphics-symbol" aria-roledescription="text mark" text-anchor="start" transform="translate(54.76923076923077,173)" font-family="sans-serif" font-size="9px" fill="black">66</text><text aria-label="mean execution time in µs: 23; algorithm: (JohT) inputPerKernelValue Transposed; MeanExecutionTime: 23" role="graphics-symbol" aria-roledescription="text mark" text-anchor="start" transform="translate(21.692307692307693,13)" font-family="sans-serif" font-size="9px" fill="black">23</text><text aria-label="mean execution time in µs: 239; algorithm: (JohT) inputPerKernelValue Transposed InnerLoopUnrolled; MeanExecutionTime: 239" role="graphics-symbol" aria-roledescription="text mark" text-anchor="start" transform="translate(187.84615384615384,273)" font-family="sans-serif" font-size="9px" fill="black">239</text><text aria-label="mean execution time in µs: 42; algorithm: (JohT) inputPerKernelValue Transposed OuterLoopUnrolled; MeanExecutionTime: 42" role="graphics-symbol" aria-roledescription="text mark" text-anchor="start" transform="translate(36.30769230769231,33)" font-family="sans-serif" font-size="9px" fill="black">42</text><text aria-label="mean execution time in µs: 56; algorithm: (JohT) inputPerKernelValue Transposed Inner&amp;OuterLoopUnrolled; MeanExecutionTime: 56" role="graphics-symbol" aria-roledescription="text mark" text-anchor="start" transform="translate(47.07692307692308,93)" font-family="sans-serif" font-size="9px" fill="black">56</text><text aria-label="mean execution time in µs: 58; algorithm: (JohT) inputPerKernelValue Transposed LoopFission; MeanExecutionTime: 58" role="graphics-symbol" aria-roledescription="text mark" text-anchor="start" transform="translate(48.61538461538462,113)" font-family="sans-serif" font-size="9px" fill="black">58</text><text aria-label="mean execution time in µs: 60; algorithm: (JohT) inputPerKernelValue Transposed LoopFissionIndexArithmetic; MeanExecutionTime: 60" role="graphics-symbol" aria-roledescription="text mark" text-anchor="start" transform="translate(50.15384615384615,133)" font-family="sans-serif" font-size="9px" fill="black">60</text><text aria-label="mean execution time in µs: 71; algorithm: (JohT) kernelPerInputValue Transposed LoopFission; MeanExecutionTime: 71" role="graphics-symbol" aria-roledescription="text mark" text-anchor="start" transform="translate(58.61538461538461,193)" font-family="sans-serif" font-size="9px" fill="black">71</text><text aria-label="mean execution time in µs: 55; algorithm: (matlab-like) conv 'full' shape; MeanExecutionTime: 55" role="graphics-symbol" aria-roledescription="text mark" text-anchor="start" transform="translate(46.30769230769231,73)" font-family="sans-serif" font-size="9px" fill="black">55</text><text aria-label="mean execution time in µs: 132; algorithm: (matlab-like) conv 'valid' shape pre padded; MeanExecutionTime: 132" role="graphics-symbol" aria-roledescription="text mark" text-anchor="start" transform="translate(105.53846153846153,253)" font-family="sans-serif" font-size="9px" fill="black">132</text><text aria-label="mean execution time in µs: 104; algorithm: (wilczek) Single; MeanExecutionTime: 104" role="graphics-symbol" aria-roledescription="text mark" text-anchor="start" transform="translate(84,233)" font-family="sans-serif" font-size="9px" fill="black">104</text><text aria-label="mean execution time in µs: 76; algorithm: (wilczek) Inner-Loop Vectorization; MeanExecutionTime: 76" role="graphics-symbol" aria-roledescription="text mark" text-anchor="start" transform="translate(62.46153846153847,213)" font-family="sans-serif" font-size="9px" fill="black">76</text><text aria-label="mean execution time in µs: 244; algorithm: (wilczek) Outer-Loop Vectorization; MeanExecutionTime: 244" role="graphics-symbol" aria-roledescription="text mark" text-anchor="start" transform="translate(191.69230769230768,293)" font-family="sans-serif" font-size="9px" fill="black">244</text><text aria-label="mean execution time in µs: 65; algorithm: (wilczek) Outer- and Inner-Loop Vectorization; MeanExecutionTime: 65" role="graphics-symbol" aria-roledescription="text mark" text-anchor="start" transform="translate(54,153)" font-family="sans-serif" font-size="9px" fill="black">65</text><text aria-label="mean execution time in µs: 48; algorithm: (chaowang15) convolve1D; MeanExecutionTime: 48" role="graphics-symbol" aria-roledescription="text mark" text-anchor="start" transform="translate(40.92307692307693,53)" font-family="sans-serif" font-size="9px" fill="black">48</text></g></g><path class="foreground" aria-hidden="true" d="" display="none"/></g><g transform="translate(738,0)"><path class="background" aria-hidden="true" d="M0.5,0.5h200v300h-200Z" stroke="#ddd"/><g><g class="mark-group role-axis" aria-hidden="true"><g transform="translate(0.5,300.5)"><path class="background" aria-hidden="true" d="M0,0h0v0h0Z" pointer-events="none"/><g><g class="mark-rule role-axis-grid" pointer-events="none"><line transform="translate(0,0)" x2="0" y2="-300" stroke="#ddd" stroke-width="1" opacity="1"/><line transform="translate(36,0)" x2="0" y2="-300" stroke="#ddd" stroke-width="1" opacity="1"/><line transform="translate(73,0)" x2="0" y2="-300" stroke="#ddd" stroke-width="1" opacity="1"/><line transform="translate(109,0)" x2="0" y2="-300" stroke="#ddd" stroke-width="1" opacity="1"/><line transform="translate(145,0)" x2="0" y2="-300" stroke="#ddd" stroke-width="1" opacity="1"/><line transform="translate(182,0)" x2="0" y2="-300" stroke="#ddd" stroke-width="1" opacity="1"/></g></g><path class="foreground" aria-hidden="true" d="" pointer-events="none" display="none"/></g></g><g class="mark-group role-axis" role="graphics-symbol" aria-roledescription="axis" aria-label="X-axis titled 'mean execution time in µs' for a linear scale with values from 0 to 11,000"><g transform="translate(0.5,300.5)"><path class="background" aria-hidden="true" d="M0,0h0v0h0Z" pointer-events="none"/><g><g class="mark-rule role-axis-tick" pointer-events="none"><line transform="translate(0,0)" x2="0" y2="5" stroke="#888" stroke-width="1" opacity="1"/><line transform="translate(36,0)" x2="0" y2="5" stroke="#888" stroke-width="1" opacity="1"/><line transform="translate(73,0)" x2="0" y2="5" stroke="#888" stroke-width="1" opacity="1"/><line transform="translate(109,0)" x2="0" y2="5" stroke="#888" stroke-width="1" opacity="1"/><line transform="translate(145,0)" x2="0" y2="5" stroke="#888" stroke-width="1" opacity="1"/><line transform="translate(182,0)" x2="0" y2="5" stroke="#888" stroke-width="1" opacity="1"/></g><g class="mark-text role-axis-label" pointer-events="none"><text text-anchor="start" transform="translate(0,15)" font-family="sans-serif" font-size="10px" fill="#000" opacity="1">0</text><text text-anchor="middle" transform="translate(36.36363636363637,15)" font-family="sans-serif" font-size="10px" fill="#000" opacity="0">2,000</text><text text-anchor="middle" transform="translate(72.72727272727273,15)" font-family="sans-serif" font-size="10px" fill="#000" opacity="1">4,000</text><text text-anchor="middle" transform="translate(109.09090909090908,15)" font-family="sans-serif" font-size="10px" fill="#000" opacity="0">6,000</text><text text-anchor="middle" transform="translate(145.45454545454547,15)" font-family="sans-serif" font-size="10px" fill="#000" opacity="1">8,000</text><text text-anchor="middle" transform="translate(181.8181818181818,15)" font-family="sans-serif" font-size="10px" fill="#000" opacity="0">10,000</text></g><g class="mark-rule role-axis-domain" pointer-events="none"><line transform="translate(0,0)" x2="200" y2="0" stroke="#888" stroke-width="1" opacity="1"/></g><g class="mark-text role-axis-title" pointer-events="none"><text text-anchor="middle" transform="translate(100,30)" font-family="sans-serif" font-size="11px" font-weight="bold" fill="#000" opacity="1">mean execution time in µs</text></g></g><path class="foreground" aria-hidden="true" d="" pointer-events="none" display="none"/></g></g><g class="mark-group role-axis" role="graphics-symbol" aria-roledescription="axis" aria-label="Y-axis titled 'algorithm' for a discrete scale with 15 values: (matlab-like) conv 'full' shape, (chaowang15) convolve1D, (JohT) kernelPerInputValue Transposed, (JohT) inputPerKernelValue Transposed, (JohT) kernelPerInputValue Transposed LoopFission, ending with (wilczek) Single"><g transform="translate(0.5,0.5)"><path class="background" aria-hidden="true" d="M0,0h0v0h0Z" pointer-events="none"/><g><g class="mark-rule role-axis-tick" pointer-events="none"><line transform="translate(0,10)" x2="-5" y2="0" stroke="#888" stroke-width="1" opacity="1"/><line transform="translate(0,30)" x2="-5" y2="0" stroke="#888" stroke-width="1" opacity="1"/><line transform="translate(0,50)" x2="-5" y2="0" stroke="#888" stroke-width="1" opacity="1"/><line transform="translate(0,70)" x2="-5" y2="0" stroke="#888" stroke-width="1" opacity="1"/><line transform="translate(0,90)" x2="-5" y2="0" stroke="#888" stroke-width="1" opacity="1"/><line transform="translate(0,110)" x2="-5" y2="0" stroke="#888" stroke-width="1" opacity="1"/><line transform="translate(0,130)" x2="-5" y2="0" stroke="#888" stroke-width="1" opacity="1"/><line transform="translate(0,150)" x2="-5" y2="0" stroke="#888" stroke-width="1" opacity="1"/><line transform="translate(0,170)" x2="-5" y2="0" stroke="#888" stroke-width="1" opacity="1"/><line transform="translate(0,190)" x2="-5" y2="0" stroke="#888" stroke-width="1" opacity="1"/><line transform="translate(0,210)" x2="-5" y2="0" stroke="#888" stroke-width="1" opacity="1"/><line transform="translate(0,230)" x2="-5" y2="0" stroke="#888" stroke-width="1" opacity="1"/><line transform="translate(0,250)" x2="-5" y2="0" stroke="#888" stroke-width="1" opacity="1"/><line transform="translate(0,270)" x2="-5" y2="0" stroke="#888" stroke-width="1" opacity="1"/><line transform="translate(0,290)" x2="-5" y2="0" stroke="#888" stroke-width="1" opacity="1"/></g><g class="mark-text role-axis-label" pointer-events="none"><text text-anchor="end" transform="translate(-7,12.5)" font-family="sans-serif" font-size="10px" fill="#000" opacity="1">(matlab-like) conv 'full' shape</text><text text-anchor="end" transform="translate(-7,32.5)" font-family="sans-serif" font-size="10px" fill="#000" opacity="1">(chaowang15) convolve1D</text><text text-anchor="end" transform="translate(-7,52.5)" font-family="sans-serif" font-size="10px" fill="#000" opacity="1">(JohT) kernelPerInputValue Transposed</text><text text-anchor="end" transform="translate(-7,72.5)" font-family="sans-serif" font-size="10px" fill="#000" opacity="1">(JohT) inputPerKernelValue Transposed</text><text text-anchor="end" transform="translate(-7,92.5)" font-family="sans-serif" font-size="10px" fill="#000" opacity="1">(JohT) kernelPerInputValue Transposed LoopFission</text><text text-anchor="end" transform="translate(-7,112.5)" font-family="sans-serif" font-size="10px" fill="#000" opacity="1">(JohT) inputPerKernelValue Transposed OuterLoopUnrolled</text><text text-anchor="end" transform="translate(-7,132.5)" font-family="sans-serif" font-size="10px" fill="#000" opacity="1">(JohT) inputPerKernelValue Transposed LoopFissionIndexArithme…</text><text text-anchor="end" transform="translate(-7,152.5)" font-family="sans-serif" font-size="10px" fill="#000" opacity="1">(JohT) inputPerKernelValue Transposed Inner&amp;OuterLoopUnrolled</text><text text-anchor="end" transform="translate(-7,172.5)" font-family="sans-serif" font-size="10px" fill="#000" opacity="1">(JohT) inputPerKernelValue Transposed LoopFission</text><text text-anchor="end" transform="translate(-7,192.5)" font-family="sans-serif" font-size="10px" fill="#000" opacity="1">(wilczek) Outer- and Inner-Loop Vectorization</text><text text-anchor="end" transform="translate(-7,212.5)" font-family="sans-serif" font-size="10px" fill="#000" opacity="1">(wilczek) Inner-Loop Vectorization</text><text text-anchor="end" transform="translate(-7,232.5)" font-family="sans-serif" font-size="10px" fill="#000" opacity="1">(wilczek) Outer-Loop Vectorization</text><text text-anchor="end" transform="translate(-7,252.5)" font-family="sans-serif" font-size="10px" fill="#000" opacity="1">(JohT) inputPerKernelValue Transposed InnerLoopUnrolled</text><text text-anchor="end" transform="translate(-7,272.5)" font-family="sans-serif" font-size="10px" fill="#000" opacity="1">(matlab-like) conv 'valid' shape pre padded</text><text text-anchor="end" transform="translate(-7,292.5)" font-family="sans-serif" font-size="10px" fill="#000" opacity="1">(wilczek) Single</text></g><g class="mark-rule role-axis-domain" pointer-events="none"><line transform="translate(0,0)" x2="0" y2="300" stroke="#888" stroke-width="1" opacity="1"/></g><g class="mark-text role-axis-title" pointer-events="none"><text text-anchor="middle" transform="translate(-320,150) rotate(-90) translate(0,-2)" font-family="sans-serif" font-size="11px" font-weight="bold" fill="#000" opacity="1">algorithm</text></g></g><path class="foreground" aria-hidden="true" d="" pointer-events="none" display="none"/></g></g><g class="mark-rect role-mark child_layer_0_marks" role="graphics-object" aria-roledescription="rect mark container"><path aria-label="mean execution time in µs: 692; algorithm: (JohT) kernelPerInputValue Transposed" role="graphics-symbol" aria-roledescription="bar" d="M0,41.9L8.581818181818182,41.9C10.789478279794182,41.9,12.581818181818182,43.692339902023996,12.581818181818182,45.9L12.581818181818182,54.099999999999994C12.581818181818182,56.307660097976,10.789478279794182,58.099999999999994,8.581818181818182,58.099999999999994L0,58.099999999999994C0,58.099999999999994,0,58.099999999999994,0,58.099999999999994L0,41.9C0,41.9,0,41.9,0,41.9Z" fill="#4c78a8"/><path aria-label="mean execution time in µs: 762; algorithm: (JohT) inputPerKernelValue Transposed" role="graphics-symbol" aria-roledescription="bar" d="M0,61.9L9.854545454545455,61.9C12.062205552521455,61.9,13.854545454545455,63.692339902023996,13.854545454545455,65.9L13.854545454545455,74.1C13.854545454545455,76.307660097976,12.062205552521455,78.1,9.854545454545455,78.1L0,78.1C0,78.1,0,78.1,0,78.1L0,61.9C0,61.9,0,61.9,0,61.9Z" fill="#4c78a8"/><path aria-label="mean execution time in µs: 8191; algorithm: (JohT) inputPerKernelValue Transposed InnerLoopUnrolled" role="graphics-symbol" aria-roledescription="bar" d="M0,241.9L144.92727272727274,241.9C147.13493282524874,241.9,148.92727272727274,243.692339902024,148.92727272727274,245.9L148.92727272727274,254.10000000000002C148.92727272727274,256.307660097976,147.13493282524874,258.1,144.92727272727274,258.1L0,258.1C0,258.1,0,258.1,0,258.1L0,241.9C0,241.9,0,241.9,0,241.9Z" fill="#4c78a8"/><path aria-label="mean execution time in µs: 1345; algorithm: (JohT) inputPerKernelValue Transposed OuterLoopUnrolled" role="graphics-symbol" aria-roledescription="bar" d="M0,101.9L20.454545454545453,101.9C22.662205552521453,101.9,24.454545454545453,103.692339902024,24.454545454545453,105.9L24.454545454545453,114.10000000000001C24.454545454545453,116.30766009797601,22.662205552521453,118.10000000000001,20.454545454545453,118.10000000000001L0,118.10000000000001C0,118.10000000000001,0,118.10000000000001,0,118.10000000000001L0,101.9C0,101.9,0,101.9,0,101.9Z" fill="#4c78a8"/><path aria-label="mean execution time in µs: 1721; algorithm: (JohT) inputPerKernelValue Transposed Inner&amp;OuterLoopUnrolled" role="graphics-symbol" aria-roledescription="bar" d="M0,141.9L27.290909090909093,141.9C29.498569188885092,141.9,31.290909090909093,143.692339902024,31.290909090909093,145.9L31.290909090909093,154.1C31.290909090909093,156.307660097976,29.498569188885092,158.1,27.290909090909093,158.1L0,158.1C0,158.1,0,158.1,0,158.1L0,141.9C0,141.9,0,141.9,0,141.9Z" fill="#4c78a8"/><path aria-label="mean execution time in µs: 1814; algorithm: (JohT) inputPerKernelValue Transposed LoopFission" role="graphics-symbol" aria-roledescription="bar" d="M0,161.9L28.981818181818184,161.9C31.189478279794184,161.9,32.981818181818184,163.692339902024,32.981818181818184,165.9L32.981818181818184,174.1C32.981818181818184,176.307660097976,31.189478279794184,178.1,28.981818181818184,178.1L0,178.1C0,178.1,0,178.1,0,178.1L0,161.9C0,161.9,0,161.9,0,161.9Z" fill="#4c78a8"/><path aria-label="mean execution time in µs: 1715; algorithm: (JohT) inputPerKernelValue Transposed LoopFissionIndexArithmetic" role="graphics-symbol" aria-roledescription="bar" d="M0,121.9L27.181818181818183,121.9C29.389478279794183,121.9,31.181818181818183,123.692339902024,31.181818181818183,125.9L31.181818181818183,134.1C31.181818181818183,136.307660097976,29.389478279794183,138.1,27.181818181818183,138.1L0,138.1C0,138.1,0,138.1,0,138.1L0,121.9C0,121.9,0,121.9,0,121.9Z" fill="#4c78a8"/><path aria-label="mean execution time in µs: 1147; algorithm: (JohT) kernelPerInputValue Transposed LoopFission" role="graphics-symbol" aria-roledescription="bar" d="M0,81.9L16.854545454545452,81.9C19.06220555252145,81.9,20.854545454545452,83.692339902024,20.854545454545452,85.9L20.854545454545452,94.10000000000001C20.854545454545452,96.30766009797601,19.06220555252145,98.10000000000001,16.854545454545452,98.10000000000001L0,98.10000000000001C0,98.10000000000001,0,98.10000000000001,0,98.10000000000001L0,81.9C0,81.9,0,81.9,0,81.9Z" fill="#4c78a8"/><path aria-label="mean execution time in µs: 599; algorithm: (matlab-like) conv 'full' shape" role="graphics-symbol" aria-roledescription="bar" d="M0,1.9L6.890909090909091,1.9C9.09856918888509,1.9,10.89090909090909,3.692339902024,10.89090909090909,5.9L10.89090909090909,14.099999999999998C10.89090909090909,16.307660097975997,9.09856918888509,18.099999999999998,6.890909090909091,18.099999999999998L0,18.099999999999998C0,18.099999999999998,0,18.099999999999998,0,18.099999999999998L0,1.9C0,1.9,0,1.9,0,1.9Z" fill="#4c78a8"/><path aria-label="mean execution time in µs: 10550; algorithm: (matlab-like) conv 'valid' shape pre padded" role="graphics-symbol" aria-roledescription="bar" d="M0,261.9L187.8181818181818,261.9C190.02584191615782,261.9,191.8181818181818,263.692339902024,191.8181818181818,265.9L191.8181818181818,274.09999999999997C191.8181818181818,276.30766009797594,190.02584191615782,278.09999999999997,187.8181818181818,278.09999999999997L0,278.09999999999997C0,278.09999999999997,0,278.09999999999997,0,278.09999999999997L0,261.9C0,261.9,0,261.9,0,261.9Z" fill="#4c78a8"/><path aria-label="mean execution time in µs: 10589; algorithm: (wilczek) Single" role="graphics-symbol" aria-roledescription="bar" d="M0,281.9L188.52727272727273,281.9C190.73493282524873,281.9,192.52727272727273,283.692339902024,192.52727272727273,285.9L192.52727272727273,294.09999999999997C192.52727272727273,296.30766009797594,190.73493282524873,298.09999999999997,188.52727272727273,298.09999999999997L0,298.09999999999997C0,298.09999999999997,0,298.09999999999997,0,298.09999999999997L0,281.9C0,281.9,0,281.9,0,281.9Z" fill="#4c78a8"/><path aria-label="mean execution time in µs: 2326; algorithm: (wilczek) Inner-Loop Vectorization" role="graphics-symbol" aria-roledescription="bar" d="M0,201.9L38.29090909090909,201.9C40.49856918888509,201.9,42.29090909090909,203.692339902024,42.29090909090909,205.9L42.29090909090909,214.1C42.29090909090909,216.307660097976,40.49856918888509,218.1,38.29090909090909,218.1L0,218.1C0,218.1,0,218.1,0,218.1L0,201.9C0,201.9,0,201.9,0,201.9Z" fill="#4c78a8"/><path aria-label="mean execution time in µs: 7695; algorithm: (wilczek) Outer-Loop Vectorization" role="graphics-symbol" aria-roledescription="bar" d="M0,221.9L135.9090909090909,221.9C138.1167510070669,221.9,139.9090909090909,223.692339902024,139.9090909090909,225.9L139.9090909090909,234.1C139.9090909090909,236.307660097976,138.1167510070669,238.1,135.9090909090909,238.1L0,238.1C0,238.1,0,238.1,0,238.1L0,221.9C0,221.9,0,221.9,0,221.9Z" fill="#4c78a8"/><path aria-label="mean execution time in µs: 2165; algorithm: (wilczek) Outer- and Inner-Loop Vectorization" role="graphics-symbol" aria-roledescription="bar" d="M0,181.9L35.36363636363636,181.9C37.57129646161236,181.9,39.36363636363636,183.692339902024,39.36363636363636,185.9L39.36363636363636,194.1C39.36363636363636,196.307660097976,37.57129646161236,198.1,35.36363636363636,198.1L0,198.1C0,198.1,0,198.1,0,198.1L0,181.9C0,181.9,0,181.9,0,181.9Z" fill="#4c78a8"/><path aria-label="mean execution time in µs: 619; algorithm: (chaowang15) convolve1D" role="graphics-symbol" aria-roledescription="bar" d="M0,21.9L7.254545454545454,21.9C9.462205552521453,21.9,11.254545454545454,23.692339902024,11.254545454545454,25.9L11.254545454545454,34.099999999999994C11.254545454545454,36.307660097976,9.462205552521453,38.099999999999994,7.254545454545454,38.099999999999994L0,38.099999999999994C0,38.099999999999994,0,38.099999999999994,0,38.099999999999994L0,21.9C0,21.9,0,21.9,0,21.9Z" fill="#4c78a8"/></g><g class="mark-text role-mark child_layer_1_marks" role="graphics-object" aria-roledescription="text mark container"><text aria-label="mean execution time in µs: 692; algorithm: (JohT) kernelPerInputValue Transposed; MeanExecutionTime: 692" role="graphics-symbol" aria-roledescription="text mark" text-anchor="start" transform="translate(16.581818181818182,53)" font-family="sans-serif" font-size="9px" fill="black">692</text><text aria-label="mean execution time in µs: 762; algorithm: (JohT) inputPerKernelValue Transposed; MeanExecutionTime: 762" role="graphics-symbol" aria-roledescription="text mark" text-anchor="start" transform="translate(17.854545454545455,73)" font-family="sans-serif" font-size="9px" fill="black">762</text><text aria-label="mean execution time in µs: 8191; algorithm: (JohT) inputPerKernelValue Transposed InnerLoopUnrolled; MeanExecutionTime: 8191" role="graphics-symbol" aria-roledescription="text mark" text-anchor="start" transform="translate(152.92727272727274,253)" font-family="sans-serif" font-size="9px" fill="black">8191</text><text aria-label="mean execution time in µs: 1345; algorithm: (JohT) inputPerKernelValue Transposed OuterLoopUnrolled; MeanExecutionTime: 1345" role="graphics-symbol" aria-roledescription="text mark" text-anchor="start" transform="translate(28.454545454545453,113)" font-family="sans-serif" font-size="9px" fill="black">1345</text><text aria-label="mean execution time in µs: 1721; algorithm: (JohT) inputPerKernelValue Transposed Inner&amp;OuterLoopUnrolled; MeanExecutionTime: 1721" role="graphics-symbol" aria-roledescription="text mark" text-anchor="start" transform="translate(35.290909090909096,153)" font-family="sans-serif" font-size="9px" fill="black">1721</text><text aria-label="mean execution time in µs: 1814; algorithm: (JohT) inputPerKernelValue Transposed LoopFission; MeanExecutionTime: 1814" role="graphics-symbol" aria-roledescription="text mark" text-anchor="start" transform="translate(36.981818181818184,173)" font-family="sans-serif" font-size="9px" fill="black">1814</text><text aria-label="mean execution time in µs: 1715; algorithm: (JohT) inputPerKernelValue Transposed LoopFissionIndexArithmetic; MeanExecutionTime: 1715" role="graphics-symbol" aria-roledescription="text mark" text-anchor="start" transform="translate(35.18181818181819,133)" font-family="sans-serif" font-size="9px" fill="black">1715</text><text aria-label="mean execution time in µs: 1147; algorithm: (JohT) kernelPerInputValue Transposed LoopFission; MeanExecutionTime: 1147" role="graphics-symbol" aria-roledescription="text mark" text-anchor="start" transform="translate(24.854545454545452,93)" font-family="sans-serif" font-size="9px" fill="black">1147</text><text aria-label="mean execution time in µs: 599; algorithm: (matlab-like) conv 'full' shape; MeanExecutionTime: 599" role="graphics-symbol" aria-roledescription="text mark" text-anchor="start" transform="translate(14.89090909090909,13)" font-family="sans-serif" font-size="9px" fill="black">599</text><text aria-label="mean execution time in µs: 10550; algorithm: (matlab-like) conv 'valid' shape pre padded; MeanExecutionTime: 10550" role="graphics-symbol" aria-roledescription="text mark" text-anchor="start" transform="translate(195.8181818181818,273)" font-family="sans-serif" font-size="9px" fill="black">10550</text><text aria-label="mean execution time in µs: 10589; algorithm: (wilczek) Single; MeanExecutionTime: 10589" role="graphics-symbol" aria-roledescription="text mark" text-anchor="start" transform="translate(196.52727272727273,293)" font-family="sans-serif" font-size="9px" fill="black">10589</text><text aria-label="mean execution time in µs: 2326; algorithm: (wilczek) Inner-Loop Vectorization; MeanExecutionTime: 2326" role="graphics-symbol" aria-roledescription="text mark" text-anchor="start" transform="translate(46.29090909090909,213)" font-family="sans-serif" font-size="9px" fill="black">2326</text><text aria-label="mean execution time in µs: 7695; algorithm: (wilczek) Outer-Loop Vectorization; MeanExecutionTime: 7695" role="graphics-symbol" aria-roledescription="text mark" text-anchor="start" transform="translate(143.9090909090909,233)" font-family="sans-serif" font-size="9px" fill="black">7695</text><text aria-label="mean execution time in µs: 2165; algorithm: (wilczek) Outer- and Inner-Loop Vectorization; MeanExecutionTime: 2165" role="graphics-symbol" aria-roledescription="text mark" text-anchor="start" transform="translate(43.36363636363636,193)" font-family="sans-serif" font-size="9px" fill="black">2165</text><text aria-label="mean execution time in µs: 619; algorithm: (chaowang15) convolve1D; MeanExecutionTime: 619" role="graphics-symbol" aria-roledescription="text mark" text-anchor="start" transform="translate(15.254545454545454,33)" font-family="sans-serif" font-size="9px" fill="black">619</text></g></g><path class="foreground" aria-hidden="true" d="" display="none"/></g></g></g><path class="foreground" aria-hidden="true" d="" display="none"/></g></g></g></svg>