<svg xmlns="http://www.w3.org/2000/svg" xmlns:xlink="http://www.w3.org/1999/xlink" version="1.1" class="marks" width="1480" height="464" viewBox="0 0 1480 464"><rect width="1480" height="464" fill="white"/><g fill="none" stroke-miterlimit="10" transform="translate(509,66)"><g class="mark-group role-frame root" role="graphics-object" aria-roledescription="group mark container"><g transform="translate(0,0)"><path class="background" aria-hidden="true" d="M0,0h0v0h0Z"/><g><g class="mark-group role-column-title column-title" role="graphics-object" aria-roledescription="group mark container"><g transform="translate(231,-35)"><path class="background" aria-hidden="true" d="M0,0h0v0h0Z"/><g><g class="mark-group role-title"><g transform="translate(0,-26)"><path class="background" aria-hidden="true" d="M0,0h0v0h0Z" pointer-events="none"/><g><g class="mark-text role-title-text" role="graphics-symbol" aria-roledescription="title" aria-label="Title text 'Convolution Benchmarks'" pointer-events="none"><text text-anchor="middle" transform="translate(0,13)" font-family="sans-serif" font-size="16px" font-weight="bold" fill="#000" opacity="1">Convolution Benchmarks</text></g></g><path class="foreground" aria-hidden="true" d="" pointer-events="none" display="none"/></g></g></g><path class="foreground" aria-hidden="true" d="" display="none"/></g></g><g class="mark-group role-column-header column_header" role="graphics-object" aria-roledescription="group mark container"><g transform="translate(0,-1)"><path class="background" aria-hidden="true" d="M0,0h200v0h-200Z"/><g><g class="mark-group role-title"><g transform="translate(100,-24)"><path class="background" aria-hidden="true" d="M0,0h0v0h0Z" pointer-events="none"/><g><g class="mark-text role-title-text" role="graphics-symbol" aria-roledescription="title" aria-label="Title text 'kernel size 16'" pointer-events="none"><text text-anchor="middle" transform="translate(0,11)" font-family="sans-serif" font-size="14px" fill="#000" opacity="1">kernel size 16</text></g></g><path class="foreground" aria-hidden="true" d="" pointer-events="none" display="none"/></g></g></g><path class="foreground" aria-hidden="true" d="" display="none"/></g><g transform="translate(745,-1)"><path class="background" aria-hidden="true" d="M0,0h200v0h-200Z"/><g><g class="mark-group role-title"><g transform="translate(100,-24)"><path class="background" aria-hidden="true" d="M0,0h0v0h0Z" pointer-events="none"/><g><g class="mark-text role-title-text" role="graphics-symbol" aria-roledescription="title" aria-label="Title text 'kernel size 512'" pointer-events="none"><text text-anchor="middle" transform="translate(0,11)" font-family="sans-serif" font-size="14px" fill="#000" opacity="1">kernel size 512</text></g></g><path class="foreground" aria-hidden="true" d="" pointer-events="none" display="none"/></g></g></g><path class="foreground" aria-hidden="true" d="" display="none"/></g></g><g class="mark-group role-scope cell" role="graphics-object" aria-roledescription="group mark container"><g transform="translate(0,0)"><path class="background" aria-hidden="true" d="M0.5,0.5h200v360h-200Z" stroke="#ddd"/><g><g class="mark-group role-axis" aria-hidden="true"><g transform="translate(0.5,360.5)"><path class="background" aria-hidden="true" d="M0,0h0v0h0Z" pointer-events="none"/><g><g class="mark-rule role-axis-grid" pointer-events="none"><line transform="translate(0,0)" x2="0" y2="-360" stroke="#ddd" stroke-width="1" opacity="1"/><line transform="translate(50,0)" x2="0" y2="-360" stroke="#ddd" stroke-width="1" opacity="1"/><line transform="translate(100,0)" x2="0" y2="-360" stroke="#ddd" stroke-width="1" opacity="1"/><line transform="translate(150,0)" x2="0" y2="-360" stroke="#ddd" stroke-width="1" opacity="1"/><line transform="translate(200,0)" x2="0" y2="-360" stroke="#ddd" stroke-width="1" opacity="1"/></g></g><path class="foreground" aria-hidden="true" d="" pointer-events="none" display="none"/></g></g><g class="mark-group role-axis" role="graphics-symbol" aria-roledescription="axis" aria-label="X-axis titled 'mean execution time in µs' for a linear scale with values from 0 to 400"><g transform="translate(0.5,360.5)"><path class="background" aria-hidden="true" d="M0,0h0v0h0Z" pointer-events="none"/><g><g class="mark-rule role-axis-tick" pointer-events="none"><line transform="translate(0,0)" x2="0" y2="5" stroke="#888" stroke-width="1" opacity="1"/><line transform="translate(50,0)" x2="0" y2="5" stroke="#888" stroke-width="1" opacity="1"/><line transform="translate(100,0)" x2="0" y2="5" stroke="#888" stroke-width="1" opacity="1"/><line transform="translate(150,0)" x2="0" y2="5" stroke="#888" stroke-width="1" opacity="1"/><line transform="translate(200,0)" x2="0" y2="5" stroke="#888" stroke-width="1" opacity="1"/></g><g class="mark-text role-axis-label" pointer-events="none"><text text-anchor="start" transform="translate(0,15)" font-family="sans-serif" font-size="10px" fill="#000" opacity="1">0</text><text text-anchor="middle" transform="translate(50,15)" font-family="sans-serif" font-size="10px" fill="#000" opacity="1">100</text><text text-anchor="middle" transform="translate(100,15)" font-family="sans-serif" font-size="10px" fill="#000" opacity="1">200</text><text text-anchor="middle" transform="translate(150,15)" font-family="sans-serif" font-size="10px" fill="#000" opacity="1">300</text><text text-anchor="end" transform="translate(200,15)" font-family="sans-serif" font-size="10px" fill="#000" opacity="1">400</text></g><g class="mark-rule role-axis-domain" pointer-events="none"><line transform="translate(0,0)" x2="200" y2="0" stroke="#888" stroke-width="1" opacity="1"/></g><g class="mark-text role-axis-title" pointer-events="none"><text text-anchor="middle" transform="translate(100,30)" font-family="sans-serif" font-size="11px" font-weight="bold" fill="#000" opacity="1">mean execution time in µs</text></g></g><path class="foreground" aria-hidden="true" d="" pointer-events="none" display="none"/></g></g><g class="mark-group role-axis" role="graphics-symbol" aria-roledescription="axis" aria-label="Y-axis titled 'algorithm' for a discrete scale with 18 values: (wilczek) AVX NoAlign Outer-Loop Vectorization, (wilczek) AVX NoAlign Outer- and Inner-Loop Vectorization, (wilczek) AVX NoAlign Inner-Loop Vectorization, (JohT) inputPerKernelValue Transposed, (JohT) inputPerKernelValue Transposed LoopFissionIndexArithmetic, ending with (wilczek) Single"><g transform="translate(0.5,0.5)"><path class="background" aria-hidden="true" d="M0,0h0v0h0Z" pointer-events="none"/><g><g class="mark-rule role-axis-tick" pointer-events="none"><line transform="translate(0,10)" x2="-5" y2="0" stroke="#888" stroke-width="1" opacity="1"/><line transform="translate(0,30)" x2="-5" y2="0" stroke="#888" stroke-width="1" opacity="1"/><line transform="translate(0,50)" x2="-5" y2="0" stroke="#888" stroke-width="1" opacity="1"/><line transform="translate(0,70)" x2="-5" y2="0" stroke="#888" stroke-width="1" opacity="1"/><line transform="translate(0,90)" x2="-5" y2="0" stroke="#888" stroke-width="1" opacity="1"/><line transform="translate(0,110)" x2="-5" y2="0" stroke="#888" stroke-width="1" opacity="1"/><line transform="translate(0,130)" x2="-5" y2="0" stroke="#888" stroke-width="1" opacity="1"/><line transform="translate(0,150)" x2="-5" y2="0" stroke="#888" stroke-width="1" opacity="1"/><line transform="translate(0,170)" x2="-5" y2="0" stroke="#888" stroke-width="1" opacity="1"/><line transform="translate(0,190)" x2="-5" y2="0" stroke="#888" stroke-width="1" opacity="1"/><line transform="translate(0,210)" x2="-5" y2="0" stroke="#888" stroke-width="1" opacity="1"/><line transform="translate(0,230)" x2="-5" y2="0" stroke="#888" stroke-width="1" opacity="1"/><line transform="translate(0,250)" x2="-5" y2="0" stroke="#888" stroke-width="1" opacity="1"/><line transform="translate(0,270)" x2="-5" y2="0" stroke="#888" stroke-width="1" opacity="1"/><line transform="translate(0,290)" x2="-5" y2="0" stroke="#888" stroke-width="1" opacity="1"/><line transform="translate(0,310)" x2="-5" y2="0" stroke="#888" stroke-width="1" opacity="1"/><line transform="translate(0,330)" x2="-5" y2="0" stroke="#888" stroke-width="1" opacity="1"/><line transform="translate(0,350)" x2="-5" y2="0" stroke="#888" stroke-width="1" opacity="1"/></g><g class="mark-text role-axis-label" pointer-events="none"><text text-anchor="end" transform="translate(-7,12.5)" font-family="sans-serif" font-size="10px" fill="#000" opacity="1">(wilczek) AVX NoAlign Outer-Loop Vectorization</text><text text-anchor="end" transform="translate(-7,32.5)" font-family="sans-serif" font-size="10px" fill="#000" opacity="1">(wilczek) AVX NoAlign Outer- and Inner-Loop Vectorization</text><text text-anchor="end" transform="translate(-7,52.5)" font-family="sans-serif" font-size="10px" fill="#000" opacity="1">(wilczek) AVX NoAlign Inner-Loop Vectorization</text><text text-anchor="end" transform="translate(-7,72.5)" font-family="sans-serif" font-size="10px" fill="#000" opacity="1">(JohT) inputPerKernelValue Transposed</text><text text-anchor="end" transform="translate(-7,92.5)" font-family="sans-serif" font-size="10px" fill="#000" opacity="1">(JohT) inputPerKernelValue Transposed LoopFissionIndexArithme…</text><text text-anchor="end" transform="translate(-7,112.5)" font-family="sans-serif" font-size="10px" fill="#000" opacity="1">(JohT) inputPerKernelValue Transposed LoopFission</text><text text-anchor="end" transform="translate(-7,132.5)" font-family="sans-serif" font-size="10px" fill="#000" opacity="1">(JohT) kernelPerInputValue Transposed</text><text text-anchor="end" transform="translate(-7,152.5)" font-family="sans-serif" font-size="10px" fill="#000" opacity="1">(wilczek) Outer- and Inner-Loop Vectorization</text><text text-anchor="end" transform="translate(-7,172.5)" font-family="sans-serif" font-size="10px" fill="#000" opacity="1">(JohT) inputPerKernelValue Transposed Inner&amp;OuterLoopUnrolled</text><text text-anchor="end" transform="translate(-7,192.5)" font-family="sans-serif" font-size="10px" fill="#000" opacity="1">(wilczek) Inner-Loop Vectorization</text><text text-anchor="end" transform="translate(-7,212.5)" font-family="sans-serif" font-size="10px" fill="#000" opacity="1">(JohT) inputPerKernelValue Transposed InnerLoopUnrolled</text><text text-anchor="end" transform="translate(-7,232.5)" font-family="sans-serif" font-size="10px" fill="#000" opacity="1">(wilczek) Outer-Loop Vectorization</text><text text-anchor="end" transform="translate(-7,252.5)" font-family="sans-serif" font-size="10px" fill="#000" opacity="1">(JohT) inputPerKernelValue Transposed OuterLoopUnrolled</text><text text-anchor="end" transform="translate(-7,272.5)" font-family="sans-serif" font-size="10px" fill="#000" opacity="1">(matlab-like) conv 'valid' shape pre padded</text><text text-anchor="end" transform="translate(-7,292.5)" font-family="sans-serif" font-size="10px" fill="#000" opacity="1">(chaowang15) convolve1D</text><text text-anchor="end" transform="translate(-7,312.5)" font-family="sans-serif" font-size="10px" fill="#000" opacity="1">(JohT) kernelPerInputValue Transposed LoopFission</text><text text-anchor="end" transform="translate(-7,332.5)" font-family="sans-serif" font-size="10px" fill="#000" opacity="1">(matlab-like) conv 'full' shape</text><text text-anchor="end" transform="translate(-7,352.5)" font-family="sans-serif" font-size="10px" fill="#000" opacity="1">(wilczek) Single</text></g><g class="mark-rule role-axis-domain" pointer-events="none"><line transform="translate(0,0)" x2="0" y2="360" stroke="#888" stroke-width="1" opacity="1"/></g><g class="mark-text role-axis-title" pointer-events="none"><text text-anchor="middle" transform="translate(-320,180) rotate(-90) translate(0,-2)" font-family="sans-serif" font-size="11px" font-weight="bold" fill="#000" opacity="1">algorithm</text></g></g><path class="foreground" aria-hidden="true" d="" pointer-events="none" display="none"/></g></g><g class="mark-rect role-mark child_layer_0_marks" role="graphics-object" aria-roledescription="rect mark container"><path aria-label="mean execution time in µs: 140; algorithm: (JohT) kernelPerInputValue Transposed" role="graphics-symbol" aria-roledescription="bar" d="M0,121.9L66,121.9C68.207660097976,121.9,70,123.692339902024,70,125.9L70,134.1C70,136.307660097976,68.207660097976,138.1,66,138.1L0,138.1C0,138.1,0,138.1,0,138.1L0,121.9C0,121.9,0,121.9,0,121.9Z" fill="#4c78a8"/><path aria-label="mean execution time in µs: 82; algorithm: (JohT) inputPerKernelValue Transposed" role="graphics-symbol" aria-roledescription="bar" d="M0,61.9L37,61.9C39.207660097976,61.9,41,63.692339902023996,41,65.9L41,74.1C41,76.307660097976,39.207660097976,78.1,37,78.1L0,78.1C0,78.1,0,78.1,0,78.1L0,61.9C0,61.9,0,61.9,0,61.9Z" fill="#4c78a8"/><path aria-label="mean execution time in µs: 171; algorithm: (JohT) inputPerKernelValue Transposed InnerLoopUnrolled" role="graphics-symbol" aria-roledescription="bar" d="M0,201.9L81.5,201.9C83.707660097976,201.9,85.5,203.692339902024,85.5,205.9L85.5,214.1C85.5,216.307660097976,83.707660097976,218.1,81.5,218.1L0,218.1C0,218.1,0,218.1,0,218.1L0,201.9C0,201.9,0,201.9,0,201.9Z" fill="#4c78a8"/><path aria-label="mean execution time in µs: 198; algorithm: (JohT) inputPerKernelValue Transposed OuterLoopUnrolled" role="graphics-symbol" aria-roledescription="bar" d="M0,241.9L95,241.9C97.207660097976,241.9,99,243.692339902024,99,245.9L99,254.10000000000002C99,256.307660097976,97.207660097976,258.1,95,258.1L0,258.1C0,258.1,0,258.1,0,258.1L0,241.9C0,241.9,0,241.9,0,241.9Z" fill="#4c78a8"/><path aria-label="mean execution time in µs: 143; algorithm: (JohT) inputPerKernelValue Transposed Inner&amp;OuterLoopUnrolled" role="graphics-symbol" aria-roledescription="bar" d="M0,161.9L67.5,161.9C69.707660097976,161.9,71.5,163.692339902024,71.5,165.9L71.5,174.1C71.5,176.307660097976,69.707660097976,178.1,67.5,178.1L0,178.1C0,178.1,0,178.1,0,178.1L0,161.9C0,161.9,0,161.9,0,161.9Z" fill="#4c78a8"/><path aria-label="mean execution time in µs: 124; algorithm: (JohT) inputPerKernelValue Transposed LoopFission" role="graphics-symbol" aria-roledescription="bar" d="M0,101.9L58,101.9C60.207660097976,101.9,62,103.692339902024,62,105.9L62,114.10000000000001C62,116.30766009797601,60.207660097976,118.10000000000001,58,118.10000000000001L0,118.10000000000001C0,118.10000000000001,0,118.10000000000001,0,118.10000000000001L0,101.9C0,101.9,0,101.9,0,101.9Z" fill="#4c78a8"/><path aria-label="mean execution time in µs: 122; algorithm: (JohT) inputPerKernelValue Transposed LoopFissionIndexArithmetic" role="graphics-symbol" aria-roledescription="bar" d="M0,81.9L57,81.9C59.207660097976,81.9,61,83.692339902024,61,85.9L61,94.10000000000001C61,96.30766009797601,59.207660097976,98.10000000000001,57,98.10000000000001L0,98.10000000000001C0,98.10000000000001,0,98.10000000000001,0,98.10000000000001L0,81.9C0,81.9,0,81.9,0,81.9Z" fill="#4c78a8"/><path aria-label="mean execution time in µs: 246; algorithm: (JohT) kernelPerInputValue Transposed LoopFission" role="graphics-symbol" aria-roledescription="bar" d="M0,301.9L119,301.9C121.207660097976,301.9,123,303.692339902024,123,305.9L123,314.09999999999997C123,316.30766009797594,121.207660097976,318.09999999999997,119,318.09999999999997L0,318.09999999999997C0,318.09999999999997,0,318.09999999999997,0,318.09999999999997L0,301.9C0,301.9,0,301.9,0,301.9Z" fill="#4c78a8"/><path aria-label="mean execution time in µs: 259; algorithm: (matlab-like) conv 'full' shape" role="graphics-symbol" aria-roledescription="bar" d="M0,321.9L125.5,321.9C127.707660097976,321.9,129.5,323.692339902024,129.5,325.9L129.5,334.09999999999997C129.5,336.30766009797594,127.707660097976,338.09999999999997,125.5,338.09999999999997L0,338.09999999999997C0,338.09999999999997,0,338.09999999999997,0,338.09999999999997L0,321.9C0,321.9,0,321.9,0,321.9Z" fill="#4c78a8"/><path aria-label="mean execution time in µs: 205; algorithm: (matlab-like) conv 'valid' shape pre padded" role="graphics-symbol" aria-roledescription="bar" d="M0,261.9L98.49999999999999,261.9C100.70766009797599,261.9,102.49999999999999,263.692339902024,102.49999999999999,265.9L102.49999999999999,274.09999999999997C102.49999999999999,276.30766009797594,100.70766009797599,278.09999999999997,98.49999999999999,278.09999999999997L0,278.09999999999997C0,278.09999999999997,0,278.09999999999997,0,278.09999999999997L0,261.9C0,261.9,0,261.9,0,261.9Z" fill="#4c78a8"/><path aria-label="mean execution time in µs: 389; algorithm: (wilczek) Single" role="graphics-symbol" aria-roledescription="bar" d="M0,341.9L190.5,341.9C192.707660097976,341.9,194.5,343.692339902024,194.5,345.9L194.5,354.09999999999997C194.5,356.30766009797594,192.707660097976,358.09999999999997,190.5,358.09999999999997L0,358.09999999999997C0,358.09999999999997,0,358.09999999999997,0,358.09999999999997L0,341.9C0,341.9,0,341.9,0,341.9Z" fill="#4c78a8"/><path aria-label="mean execution time in µs: 155; algorithm: (wilczek) Inner-Loop Vectorization" role="graphics-symbol" aria-roledescription="bar" d="M0,181.9L73.5,181.9C75.707660097976,181.9,77.5,183.692339902024,77.5,185.9L77.5,194.1C77.5,196.307660097976,75.707660097976,198.1,73.5,198.1L0,198.1C0,198.1,0,198.1,0,198.1L0,181.9C0,181.9,0,181.9,0,181.9Z" fill="#4c78a8"/><path aria-label="mean execution time in µs: 194; algorithm: (wilczek) Outer-Loop Vectorization" role="graphics-symbol" aria-roledescription="bar" d="M0,221.9L93,221.9C95.207660097976,221.9,97,223.692339902024,97,225.9L97,234.1C97,236.307660097976,95.207660097976,238.1,93,238.1L0,238.1C0,238.1,0,238.1,0,238.1L0,221.9C0,221.9,0,221.9,0,221.9Z" fill="#4c78a8"/><path aria-label="mean execution time in µs: 142; algorithm: (wilczek) Outer- and Inner-Loop Vectorization" role="graphics-symbol" aria-roledescription="bar" d="M0,141.9L67,141.9C69.207660097976,141.9,71,143.692339902024,71,145.9L71,154.1C71,156.307660097976,69.207660097976,158.1,67,158.1L0,158.1C0,158.1,0,158.1,0,158.1L0,141.9C0,141.9,0,141.9,0,141.9Z" fill="#4c78a8"/><path aria-label="mean execution time in µs: 70; algorithm: (wilczek) AVX NoAlign Inner-Loop Vectorization" role="graphics-symbol" aria-roledescription="bar" d="M0,41.9L31,41.9C33.207660097976,41.9,35,43.692339902023996,35,45.9L35,54.099999999999994C35,56.307660097976,33.207660097976,58.099999999999994,31,58.099999999999994L0,58.099999999999994C0,58.099999999999994,0,58.099999999999994,0,58.099999999999994L0,41.9C0,41.9,0,41.9,0,41.9Z" fill="#4c78a8"/><path aria-label="mean execution time in µs: 35; algorithm: (wilczek) AVX NoAlign Outer-Loop Vectorization" role="graphics-symbol" aria-roledescription="bar" d="M0,1.9L13.5,1.9C15.707660097976,1.9,17.5,3.692339902024,17.5,5.9L17.5,14.099999999999998C17.5,16.307660097975997,15.707660097976,18.099999999999998,13.5,18.099999999999998L0,18.099999999999998C0,18.099999999999998,0,18.099999999999998,0,18.099999999999998L0,1.9C0,1.9,0,1.9,0,1.9Z" fill="#4c78a8"/><path aria-label="mean execution time in µs: 56; algorithm: (wilczek) AVX NoAlign Outer- and Inner-Loop Vectorization" role="graphics-symbol" aria-roledescription="bar" d="M0,21.9L24.000000000000004,21.9C26.207660097976003,21.9,28.000000000000004,23.692339902024,28.000000000000004,25.9L28.000000000000004,34.099999999999994C28.000000000000004,36.307660097976,26.207660097976003,38.099999999999994,24.000000000000004,38.099999999999994L0,38.099999999999994C0,38.099999999999994,0,38.099999999999994,0,38.099999999999994L0,21.9C0,21.9,0,21.9,0,21.9Z" fill="#4c78a8"/><path aria-label="mean execution time in µs: 243; algorithm: (chaowang15) convolve1D" role="graphics-symbol" aria-roledescription="bar" d="M0,281.9L117.50000000000001,281.9C119.70766009797602,281.9,121.50000000000001,283.692339902024,121.50000000000001,285.9L121.50000000000001,294.09999999999997C121.50000000000001,296.30766009797594,119.70766009797602,298.09999999999997,117.50000000000001,298.09999999999997L0,298.09999999999997C0,298.09999999999997,0,298.09999999999997,0,298.09999999999997L0,281.9C0,281.9,0,281.9,0,281.9Z" fill="#4c78a8"/></g><g class="mark-text role-mark child_layer_1_marks" role="graphics-object" aria-roledescription="text mark container"><text aria-label="mean execution time in µs: 140; algorithm: (JohT) kernelPerInputValue Transposed; MeanExecutionTime: 140" role="graphics-symbol" aria-roledescription="text mark" text-anchor="start" transform="translate(74,133)" font-family="sans-serif" font-size="9px" fill="black">140</text><text aria-label="mean execution time in µs: 82; algorithm: (JohT) inputPerKernelValue Transposed; MeanExecutionTime: 82" role="graphics-symbol" aria-roledescription="text mark" text-anchor="start" transform="translate(45,73)" font-family="sans-serif" font-size="9px" fill="black">82</text><text aria-label="mean execution time in µs: 171; algorithm: (JohT) inputPerKernelValue Transposed InnerLoopUnrolled; MeanExecutionTime: 171" role="graphics-symbol" aria-roledescription="text mark" text-anchor="start" transform="translate(89.5,213)" font-family="sans-serif" font-size="9px" fill="black">171</text><text aria-label="mean execution time in µs: 198; algorithm: (JohT) inputPerKernelValue Transposed OuterLoopUnrolled; MeanExecutionTime: 198" role="graphics-symbol" aria-roledescription="text mark" text-anchor="start" transform="translate(103,253)" font-family="sans-serif" font-size="9px" fill="black">198</text><text aria-label="mean execution time in µs: 143; algorithm: (JohT) inputPerKernelValue Transposed Inner&amp;OuterLoopUnrolled; MeanExecutionTime: 143" role="graphics-symbol" aria-roledescription="text mark" text-anchor="start" transform="translate(75.5,173)" font-family="sans-serif" font-size="9px" fill="black">143</text><text aria-label="mean execution time in µs: 124; algorithm: (JohT) inputPerKernelValue Transposed LoopFission; MeanExecutionTime: 124" role="graphics-symbol" aria-roledescription="text mark" text-anchor="start" transform="translate(66,113)" font-family="sans-serif" font-size="9px" fill="black">124</text><text aria-label="mean execution time in µs: 122; algorithm: (JohT) inputPerKernelValue Transposed LoopFissionIndexArithmetic; MeanExecutionTime: 122" role="graphics-symbol" aria-roledescription="text mark" text-anchor="start" transform="translate(65,93)" font-family="sans-serif" font-size="9px" fill="black">122</text><text aria-label="mean execution time in µs: 246; algorithm: (JohT) kernelPerInputValue Transposed LoopFission; MeanExecutionTime: 246" role="graphics-symbol" aria-roledescription="text mark" text-anchor="start" transform="translate(127,313)" font-family="sans-serif" font-size="9px" fill="black">246</text><text aria-label="mean execution time in µs: 259; algorithm: (matlab-like) conv 'full' shape; MeanExecutionTime: 259" role="graphics-symbol" aria-roledescription="text mark" text-anchor="start" transform="translate(133.5,333)" font-family="sans-serif" font-size="9px" fill="black">259</text><text aria-label="mean execution time in µs: 205; algorithm: (matlab-like) conv 'valid' shape pre padded; MeanExecutionTime: 205" role="graphics-symbol" aria-roledescription="text mark" text-anchor="start" transform="translate(106.49999999999999,273)" font-family="sans-serif" font-size="9px" fill="black">205</text><text aria-label="mean execution time in µs: 389; algorithm: (wilczek) Single; MeanExecutionTime: 389" role="graphics-symbol" aria-roledescription="text mark" text-anchor="start" transform="translate(198.5,353)" font-family="sans-serif" font-size="9px" fill="black">389</text><text aria-label="mean execution time in µs: 155; algorithm: (wilczek) Inner-Loop Vectorization; MeanExecutionTime: 155" role="graphics-symbol" aria-roledescription="text mark" text-anchor="start" transform="translate(81.5,193)" font-family="sans-serif" font-size="9px" fill="black">155</text><text aria-label="mean execution time in µs: 194; algorithm: (wilczek) Outer-Loop Vectorization; MeanExecutionTime: 194" role="graphics-symbol" aria-roledescription="text mark" text-anchor="start" transform="translate(101,233)" font-family="sans-serif" font-size="9px" fill="black">194</text><text aria-label="mean execution time in µs: 142; algorithm: (wilczek) Outer- and Inner-Loop Vectorization; MeanExecutionTime: 142" role="graphics-symbol" aria-roledescription="text mark" text-anchor="start" transform="translate(75,153)" font-family="sans-serif" font-size="9px" fill="black">142</text><text aria-label="mean execution time in µs: 70; algorithm: (wilczek) AVX NoAlign Inner-Loop Vectorization; MeanExecutionTime: 70" role="graphics-symbol" aria-roledescription="text mark" text-anchor="start" transform="translate(39,53)" font-family="sans-serif" font-size="9px" fill="black">70</text><text aria-label="mean execution time in µs: 35; algorithm: (wilczek) AVX NoAlign Outer-Loop Vectorization; MeanExecutionTime: 35" role="graphics-symbol" aria-roledescription="text mark" text-anchor="start" transform="translate(21.5,13)" font-family="sans-serif" font-size="9px" fill="black">35</text><text aria-label="mean execution time in µs: 56; algorithm: (wilczek) AVX NoAlign Outer- and Inner-Loop Vectorization; MeanExecutionTime: 56" role="graphics-symbol" aria-roledescription="text mark" text-anchor="start" transform="translate(32,33)" font-family="sans-serif" font-size="9px" fill="black">56</text><text aria-label="mean execution time in µs: 243; algorithm: (chaowang15) convolve1D; MeanExecutionTime: 243" role="graphics-symbol" aria-roledescription="text mark" text-anchor="start" transform="translate(125.50000000000001,293)" font-family="sans-serif" font-size="9px" fill="black">243</text></g></g><path class="foreground" aria-hidden="true" d="" display="none"/></g><g transform="translate(745,0)"><path class="background" aria-hidden="true" d="M0.5,0.5h200v360h-200Z" stroke="#ddd"/><g><g class="mark-group role-axis" aria-hidden="true"><g transform="translate(0.5,360.5)"><path class="background" aria-hidden="true" d="M0,0h0v0h0Z" pointer-events="none"/><g><g class="mark-rule role-axis-grid" pointer-events="none"><line transform="translate(0,0)" x2="0" y2="-360" stroke="#ddd" stroke-width="1" opacity="1"/><line transform="translate(40,0)" x2="0" y2="-360" stroke="#ddd" stroke-width="1" opacity="1"/><line transform="translate(80,0)" x2="0" y2="-360" stroke="#ddd" stroke-width="1" opacity="1"/><line transform="translate(120,0)" x2="0" y2="-360" stroke="#ddd" stroke-width="1" opacity="1"/><line transform="translate(160,0)" x2="0" y2="-360" stroke="#ddd" stroke-width="1" opacity="1"/><line transform="translate(200,0)" x2="0" y2="-360" stroke="#ddd" stroke-width="1" opacity="1"/></g></g><path class="foreground" aria-hidden="true" d="" pointer-events="none" display="none"/></g></g><g class="mark-group role-axis" role="graphics-symbol" aria-roledescription="axis" aria-label="X-axis titled 'mean execution time in µs' for a linear scale with values from 0 to 10,000"><g transform="translate(0.5,360.5)"><path class="background" aria-hidden="true" d="M0,0h0v0h0Z" pointer-events="none"/><g><g class="mark-rule role-axis-tick" pointer-events="none"><line transform="translate(0,0)" x2="0" y2="5" stroke="#888" stroke-width="1" opacity="1"/><line transform="translate(40,0)" x2="0" y2="5" stroke="#888" stroke-width="1" opacity="1"/><line transform="translate(80,0)" x2="0" y2="5" stroke="#888" stroke-width="1" opacity="1"/><line transform="translate(120,0)" x2="0" y2="5" stroke="#888" stroke-width="1" opacity="1"/><line transform="translate(160,0)" x2="0" y2="5" stroke="#888" stroke-width="1" opacity="1"/><line transform="translate(200,0)" x2="0" y2="5" stroke="#888" stroke-width="1" opacity="1"/></g><g class="mark-text role-axis-label" pointer-events="none"><text text-anchor="start" transform="translate(0,15)" font-family="sans-serif" font-size="10px" fill="#000" opacity="1">0</text><text text-anchor="middle" transform="translate(40,15)" font-family="sans-serif" font-size="10px" fill="#000" opacity="0">2,000</text><text text-anchor="middle" transform="translate(80,15)" font-family="sans-serif" font-size="10px" fill="#000" opacity="1">4,000</text><text text-anchor="middle" transform="translate(120,15)" font-family="sans-serif" font-size="10px" fill="#000" opacity="0">6,000</text><text text-anchor="middle" transform="translate(160,15)" font-family="sans-serif" font-size="10px" fill="#000" opacity="1">8,000</text><text text-anchor="end" transform="translate(200,15)" font-family="sans-serif" font-size="10px" fill="#000" opacity="0">10,000</text></g><g class="mark-rule role-axis-domain" pointer-events="none"><line transform="translate(0,0)" x2="200" y2="0" stroke="#888" stroke-width="1" opacity="1"/></g><g class="mark-text role-axis-title" pointer-events="none"><text text-anchor="middle" transform="translate(100,30)" font-family="sans-serif" font-size="11px" font-weight="bold" fill="#000" opacity="1">mean execution time in µs</text></g></g><path class="foreground" aria-hidden="true" d="" pointer-events="none" display="none"/></g></g><g class="mark-group role-axis" role="graphics-symbol" aria-roledescription="axis" aria-label="Y-axis titled 'algorithm' for a discrete scale with 18 values: (wilczek) AVX NoAlign Outer- and Inner-Loop Vectorization, (wilczek) AVX NoAlign Outer-Loop Vectorization, (wilczek) AVX NoAlign Inner-Loop Vectorization, (JohT) kernelPerInputValue Transposed, (JohT) kernelPerInputValue Transposed LoopFission, ending with (wilczek) Single"><g transform="translate(0.5,0.5)"><path class="background" aria-hidden="true" d="M0,0h0v0h0Z" pointer-events="none"/><g><g class="mark-rule role-axis-tick" pointer-events="none"><line transform="translate(0,10)" x2="-5" y2="0" stroke="#888" stroke-width="1" opacity="1"/><line transform="translate(0,30)" x2="-5" y2="0" stroke="#888" stroke-width="1" opacity="1"/><line transform="translate(0,50)" x2="-5" y2="0" stroke="#888" stroke-width="1" opacity="1"/><line transform="translate(0,70)" x2="-5" y2="0" stroke="#888" stroke-width="1" opacity="1"/><line transform="translate(0,90)" x2="-5" y2="0" stroke="#888" stroke-width="1" opacity="1"/><line transform="translate(0,110)" x2="-5" y2="0" stroke="#888" stroke-width="1" opacity="1"/><line transform="translate(0,130)" x2="-5" y2="0" stroke="#888" stroke-width="1" opacity="1"/><line transform="translate(0,150)" x2="-5" y2="0" stroke="#888" stroke-width="1" opacity="1"/><line transform="translate(0,170)" x2="-5" y2="0" stroke="#888" stroke-width="1" opacity="1"/><line transform="translate(0,190)" x2="-5" y2="0" stroke="#888" stroke-width="1" opacity="1"/><line transform="translate(0,210)" x2="-5" y2="0" stroke="#888" stroke-width="1" opacity="1"/><line transform="translate(0,230)" x2="-5" y2="0" stroke="#888" stroke-width="1" opacity="1"/><line transform="translate(0,250)" x2="-5" y2="0" stroke="#888" stroke-width="1" opacity="1"/><line transform="translate(0,270)" x2="-5" y2="0" stroke="#888" stroke-width="1" opacity="1"/><line transform="translate(0,290)" x2="-5" y2="0" stroke="#888" stroke-width="1" opacity="1"/><line transform="translate(0,310)" x2="-5" y2="0" stroke="#888" stroke-width="1" opacity="1"/><line transform="translate(0,330)" x2="-5" y2="0" stroke="#888" stroke-width="1" opacity="1"/><line transform="translate(0,350)" x2="-5" y2="0" stroke="#888" stroke-width="1" opacity="1"/></g><g class="mark-text role-axis-label" pointer-events="none"><text text-anchor="end" transform="translate(-7,12.5)" font-family="sans-serif" font-size="10px" fill="#000" opacity="1">(wilczek) AVX NoAlign Outer- and Inner-Loop Vectorization</text><text text-anchor="end" transform="translate(-7,32.5)" font-family="sans-serif" font-size="10px" fill="#000" opacity="1">(wilczek) AVX NoAlign Outer-Loop Vectorization</text><text text-anchor="end" transform="translate(-7,52.5)" font-family="sans-serif" font-size="10px" fill="#000" opacity="1">(wilczek) AVX NoAlign Inner-Loop Vectorization</text><text text-anchor="end" transform="translate(-7,72.5)" font-family="sans-serif" font-size="10px" fill="#000" opacity="1">(JohT) kernelPerInputValue Transposed</text><text text-anchor="end" transform="translate(-7,92.5)" font-family="sans-serif" font-size="10px" fill="#000" opacity="1">(JohT) kernelPerInputValue Transposed LoopFission</text><text text-anchor="end" transform="translate(-7,112.5)" font-family="sans-serif" font-size="10px" fill="#000" opacity="1">(JohT) inputPerKernelValue Transposed</text><text text-anchor="end" transform="translate(-7,132.5)" font-family="sans-serif" font-size="10px" fill="#000" opacity="1">(JohT) inputPerKernelValue Transposed LoopFissionIndexArithme…</text><text text-anchor="end" transform="translate(-7,152.5)" font-family="sans-serif" font-size="10px" fill="#000" opacity="1">(JohT) inputPerKernelValue Transposed LoopFission</text><text text-anchor="end" transform="translate(-7,172.5)" font-family="sans-serif" font-size="10px" fill="#000" opacity="1">(wilczek) Outer- and Inner-Loop Vectorization</text><text text-anchor="end" transform="translate(-7,192.5)" font-family="sans-serif" font-size="10px" fill="#000" opacity="1">(JohT) inputPerKernelValue Transposed Inner&amp;OuterLoopUnrolled</text><text text-anchor="end" transform="translate(-7,212.5)" font-family="sans-serif" font-size="10px" fill="#000" opacity="1">(wilczek) Inner-Loop Vectorization</text><text text-anchor="end" transform="translate(-7,232.5)" font-family="sans-serif" font-size="10px" fill="#000" opacity="1">(JohT) inputPerKernelValue Transposed InnerLoopUnrolled</text><text text-anchor="end" transform="translate(-7,252.5)" font-family="sans-serif" font-size="10px" fill="#000" opacity="1">(JohT) inputPerKernelValue Transposed OuterLoopUnrolled</text><text text-anchor="end" transform="translate(-7,272.5)" font-family="sans-serif" font-size="10px" fill="#000" opacity="1">(wilczek) Outer-Loop Vectorization</text><text text-anchor="end" transform="translate(-7,292.5)" font-family="sans-serif" font-size="10px" fill="#000" opacity="1">(matlab-like) conv 'full' shape</text><text text-anchor="end" transform="translate(-7,312.5)" font-family="sans-serif" font-size="10px" fill="#000" opacity="1">(chaowang15) convolve1D</text><text text-anchor="end" transform="translate(-7,332.5)" font-family="sans-serif" font-size="10px" fill="#000" opacity="1">(matlab-like) conv 'valid' shape pre padded</text><text text-anchor="end" transform="translate(-7,352.5)" font-family="sans-serif" font-size="10px" fill="#000" opacity="1">(wilczek) Single</text></g><g class="mark-rule role-axis-domain" pointer-events="none"><line transform="translate(0,0)" x2="0" y2="360" stroke="#888" stroke-width="1" opacity="1"/></g><g class="mark-text role-axis-title" pointer-events="none"><text text-anchor="middle" transform="translate(-320,180) rotate(-90) translate(0,-2)" font-family="sans-serif" font-size="11px" font-weight="bold" fill="#000" opacity="1">algorithm</text></g></g><path class="foreground" aria-hidden="true" d="" pointer-events="none" display="none"/></g></g><g class="mark-rect role-mark child_layer_0_marks" role="graphics-object" aria-roledescription="rect mark container"><path aria-label="mean execution time in µs: 1367; algorithm: (JohT) kernelPerInputValue Transposed" role="graphics-symbol" aria-roledescription="bar" d="M0,61.9L23.339999999999996,61.9C25.547660097975996,61.9,27.339999999999996,63.692339902023996,27.339999999999996,65.9L27.339999999999996,74.1C27.339999999999996,76.307660097976,25.547660097975996,78.1,23.339999999999996,78.1L0,78.1C0,78.1,0,78.1,0,78.1L0,61.9C0,61.9,0,61.9,0,61.9Z" fill="#4c78a8"/><path aria-label="mean execution time in µs: 2164; algorithm: (JohT) inputPerKernelValue Transposed" role="graphics-symbol" aria-roledescription="bar" d="M0,101.9L39.28,101.9C41.487660097976004,101.9,43.28,103.692339902024,43.28,105.9L43.28,114.10000000000001C43.28,116.30766009797601,41.487660097976004,118.10000000000001,39.28,118.10000000000001L0,118.10000000000001C0,118.10000000000001,0,118.10000000000001,0,118.10000000000001L0,101.9C0,101.9,0,101.9,0,101.9Z" fill="#4c78a8"/><path aria-label="mean execution time in µs: 4774; algorithm: (JohT) inputPerKernelValue Transposed InnerLoopUnrolled" role="graphics-symbol" aria-roledescription="bar" d="M0,221.9L91.48,221.9C93.687660097976,221.9,95.48,223.692339902024,95.48,225.9L95.48,234.1C95.48,236.307660097976,93.687660097976,238.1,91.48,238.1L0,238.1C0,238.1,0,238.1,0,238.1L0,221.9C0,221.9,0,221.9,0,221.9Z" fill="#4c78a8"/><path aria-label="mean execution time in µs: 5358; algorithm: (JohT) inputPerKernelValue Transposed OuterLoopUnrolled" role="graphics-symbol" aria-roledescription="bar" d="M0,241.9L103.16000000000001,241.9C105.36766009797601,241.9,107.16000000000001,243.692339902024,107.16000000000001,245.9L107.16000000000001,254.10000000000002C107.16000000000001,256.307660097976,105.36766009797601,258.1,103.16000000000001,258.1L0,258.1C0,258.1,0,258.1,0,258.1L0,241.9C0,241.9,0,241.9,0,241.9Z" fill="#4c78a8"/><path aria-label="mean execution time in µs: 4096; algorithm: (JohT) inputPerKernelValue Transposed Inner&amp;OuterLoopUnrolled" role="graphics-symbol" aria-roledescription="bar" d="M0,181.9L77.92,181.9C80.127660097976,181.9,81.92,183.692339902024,81.92,185.9L81.92,194.1C81.92,196.307660097976,80.127660097976,198.1,77.92,198.1L0,198.1C0,198.1,0,198.1,0,198.1L0,181.9C0,181.9,0,181.9,0,181.9Z" fill="#4c78a8"/><path aria-label="mean execution time in µs: 3542; algorithm: (JohT) inputPerKernelValue Transposed LoopFission" role="graphics-symbol" aria-roledescription="bar" d="M0,141.9L66.84,141.9C69.047660097976,141.9,70.84,143.692339902024,70.84,145.9L70.84,154.1C70.84,156.307660097976,69.047660097976,158.1,66.84,158.1L0,158.1C0,158.1,0,158.1,0,158.1L0,141.9C0,141.9,0,141.9,0,141.9Z" fill="#4c78a8"/><path aria-label="mean execution time in µs: 3537; algorithm: (JohT) inputPerKernelValue Transposed LoopFissionIndexArithmetic" role="graphics-symbol" aria-roledescription="bar" d="M0,121.9L66.74000000000001,121.9C68.94766009797601,121.9,70.74000000000001,123.692339902024,70.74000000000001,125.9L70.74000000000001,134.1C70.74000000000001,136.307660097976,68.94766009797601,138.1,66.74000000000001,138.1L0,138.1C0,138.1,0,138.1,0,138.1L0,121.9C0,121.9,0,121.9,0,121.9Z" fill="#4c78a8"/><path aria-label="mean execution time in µs: 1983; algorithm: (JohT) kernelPerInputValue Transposed LoopFission" role="graphics-symbol" aria-roledescription="bar" d="M0,81.9L35.660000000000004,81.9C37.86766009797601,81.9,39.660000000000004,83.692339902024,39.660000000000004,85.9L39.660000000000004,94.10000000000001C39.660000000000004,96.30766009797601,37.86766009797601,98.10000000000001,35.660000000000004,98.10000000000001L0,98.10000000000001C0,98.10000000000001,0,98.10000000000001,0,98.10000000000001L0,81.9C0,81.9,0,81.9,0,81.9Z" fill="#4c78a8"/><path aria-label="mean execution time in µs: 7003; algorithm: (matlab-like) conv 'full' shape" role="graphics-symbol" aria-roledescription="bar" d="M0,281.9L136.06,281.9C138.267660097976,281.9,140.06,283.692339902024,140.06,285.9L140.06,294.09999999999997C140.06,296.30766009797594,138.267660097976,298.09999999999997,136.06,298.09999999999997L0,298.09999999999997C0,298.09999999999997,0,298.09999999999997,0,298.09999999999997L0,281.9C0,281.9,0,281.9,0,281.9Z" fill="#4c78a8"/><path aria-label="mean execution time in µs: 7202; algorithm: (matlab-like) conv 'valid' shape pre padded" role="graphics-symbol" aria-roledescription="bar" d="M0,321.9L140.04,321.9C142.247660097976,321.9,144.04,323.692339902024,144.04,325.9L144.04,334.09999999999997C144.04,336.30766009797594,142.247660097976,338.09999999999997,140.04,338.09999999999997L0,338.09999999999997C0,338.09999999999997,0,338.09999999999997,0,338.09999999999997L0,321.9C0,321.9,0,321.9,0,321.9Z" fill="#4c78a8"/><path aria-label="mean execution time in µs: 9398; algorithm: (wilczek) Single" role="graphics-symbol" aria-roledescription="bar" d="M0,341.9L183.95999999999998,341.9C186.16766009797598,341.9,187.95999999999998,343.692339902024,187.95999999999998,345.9L187.95999999999998,354.09999999999997C187.95999999999998,356.30766009797594,186.16766009797598,358.09999999999997,183.95999999999998,358.09999999999997L0,358.09999999999997C0,358.09999999999997,0,358.09999999999997,0,358.09999999999997L0,341.9C0,341.9,0,341.9,0,341.9Z" fill="#4c78a8"/><path aria-label="mean execution time in µs: 4430; algorithm: (wilczek) Inner-Loop Vectorization" role="graphics-symbol" aria-roledescription="bar" d="M0,201.9L84.6,201.9C86.807660097976,201.9,88.6,203.692339902024,88.6,205.9L88.6,214.1C88.6,216.307660097976,86.807660097976,218.1,84.6,218.1L0,218.1C0,218.1,0,218.1,0,218.1L0,201.9C0,201.9,0,201.9,0,201.9Z" fill="#4c78a8"/><path aria-label="mean execution time in µs: 5915; algorithm: (wilczek) Outer-Loop Vectorization" role="graphics-symbol" aria-roledescription="bar" d="M0,261.9L114.30000000000001,261.9C116.50766009797601,261.9,118.30000000000001,263.692339902024,118.30000000000001,265.9L118.30000000000001,274.09999999999997C118.30000000000001,276.30766009797594,116.50766009797601,278.09999999999997,114.30000000000001,278.09999999999997L0,278.09999999999997C0,278.09999999999997,0,278.09999999999997,0,278.09999999999997L0,261.9C0,261.9,0,261.9,0,261.9Z" fill="#4c78a8"/><path aria-label="mean execution time in µs: 3881; algorithm: (wilczek) Outer- and Inner-Loop Vectorization" role="graphics-symbol" aria-roledescription="bar" d="M0,161.9L73.62,161.9C75.82766009797601,161.9,77.62,163.692339902024,77.62,165.9L77.62,174.1C77.62,176.307660097976,75.82766009797601,178.1,73.62,178.1L0,178.1C0,178.1,0,178.1,0,178.1L0,161.9C0,161.9,0,161.9,0,161.9Z" fill="#4c78a8"/><path aria-label="mean execution time in µs: 1027; algorithm: (wilczek) AVX NoAlign Inner-Loop Vectorization" role="graphics-symbol" aria-roledescription="bar" d="M0,41.9L16.54,41.9C18.747660097976,41.9,20.54,43.692339902023996,20.54,45.9L20.54,54.099999999999994C20.54,56.307660097976,18.747660097976,58.099999999999994,16.54,58.099999999999994L0,58.099999999999994C0,58.099999999999994,0,58.099999999999994,0,58.099999999999994L0,41.9C0,41.9,0,41.9,0,41.9Z" fill="#4c78a8"/><path aria-label="mean execution time in µs: 961; algorithm: (wilczek) AVX NoAlign Outer-Loop Vectorization" role="graphics-symbol" aria-roledescription="bar" d="M0,21.9L15.220000000000002,21.9C17.427660097976002,21.9,19.220000000000002,23.692339902024,19.220000000000002,25.9L19.220000000000002,34.099999999999994C19.220000000000002,36.307660097976,17.427660097976002,38.099999999999994,15.220000000000002,38.099999999999994L0,38.099999999999994C0,38.099999999999994,0,38.099999999999994,0,38.099999999999994L0,21.9C0,21.9,0,21.9,0,21.9Z" fill="#4c78a8"/><path aria-label="mean execution time in µs: 632; algorithm: (wilczek) AVX NoAlign Outer- and Inner-Loop Vectorization" role="graphics-symbol" aria-roledescription="bar" d="M0,1.9L8.64,1.9C10.847660097976,1.9,12.64,3.692339902024,12.64,5.9L12.64,14.099999999999998C12.64,16.307660097975997,10.847660097976,18.099999999999998,8.64,18.099999999999998L0,18.099999999999998C0,18.099999999999998,0,18.099999999999998,0,18.099999999999998L0,1.9C0,1.9,0,1.9,0,1.9Z" fill="#4c78a8"/><path aria-label="mean execution time in µs: 7075; algorithm: (chaowang15) convolve1D" role="graphics-symbol" aria-roledescription="bar" d="M0,301.9L137.5,301.9C139.707660097976,301.9,141.5,303.692339902024,141.5,305.9L141.5,314.09999999999997C141.5,316.30766009797594,139.707660097976,318.09999999999997,137.5,318.09999999999997L0,318.09999999999997C0,318.09999999999997,0,318.09999999999997,0,318.09999999999997L0,301.9C0,301.9,0,301.9,0,301.9Z" fill="#4c78a8"/></g><g class="mark-text role-mark child_layer_1_marks" role="graphics-object" aria-roledescription="text mark container"><text aria-label="mean execution time in µs: 1367; algorithm: (JohT) kernelPerInputValue Transposed; MeanExecutionTime: 1367" role="graphics-symbol" aria-roledescription="text mark" text-anchor="start" transform="translate(31.339999999999996,73)" font-family="sans-serif" font-size="9px" fill="black">1367</text><text aria-label="mean execution time in µs: 2164; algorithm: (JohT) inputPerKernelValue Transposed; MeanExecutionTime: 2164" role="graphics-symbol" aria-roledescription="text mark" text-anchor="start" transform="translate(47.28,113)" font-family="sans-serif" font-size="9px" fill="black">2164</text><text aria-label="mean execution time in µs: 4774; algorithm: (JohT) inputPerKernelValue Transposed InnerLoopUnrolled; MeanExecutionTime: 4774" role="graphics-symbol" aria-roledescription="text mark" text-anchor="start" transform="translate(99.48,233)" font-family="sans-serif" font-size="9px" fill="black">4774</text><text aria-label="mean execution time in µs: 5358; algorithm: (JohT) inputPerKernelValue Transposed OuterLoopUnrolled; MeanExecutionTime: 5358" role="graphics-symbol" aria-roledescription="text mark" text-anchor="start" transform="translate(111.16000000000001,253)" font-family="sans-serif" font-size="9px" fill="black">5358</text><text aria-label="mean execution time in µs: 4096; algorithm: (JohT) inputPerKernelValue Transposed Inner&amp;OuterLoopUnrolled; MeanExecutionTime: 4096" role="graphics-symbol" aria-roledescription="text mark" text-anchor="start" transform="translate(85.92,193)" font-family="sans-serif" font-size="9px" fill="black">4096</text><text aria-label="mean execution time in µs: 3542; algorithm: (JohT) inputPerKernelValue Transposed LoopFission; MeanExecutionTime: 3542" role="graphics-symbol" aria-roledescription="text mark" text-anchor="start" transform="translate(74.84,153)" font-family="sans-serif" font-size="9px" fill="black">3542</text><text aria-label="mean execution time in µs: 3537; algorithm: (JohT) inputPerKernelValue Transposed LoopFissionIndexArithmetic; MeanExecutionTime: 3537" role="graphics-symbol" aria-roledescription="text mark" text-anchor="start" transform="translate(74.74000000000001,133)" font-family="sans-serif" font-size="9px" fill="black">3537</text><text aria-label="mean execution time in µs: 1983; algorithm: (JohT) kernelPerInputValue Transposed LoopFission; MeanExecutionTime: 1983" role="graphics-symbol" aria-roledescription="text mark" text-anchor="start" transform="translate(43.660000000000004,93)" font-family="sans-serif" font-size="9px" fill="black">1983</text><text aria-label="mean execution time in µs: 7003; algorithm: (matlab-like) conv 'full' shape; MeanExecutionTime: 7003" role="graphics-symbol" aria-roledescription="text mark" text-anchor="start" transform="translate(144.06,293)" font-family="sans-serif" font-size="9px" fill="black">7003</text><text aria-label="mean execution time in µs: 7202; algorithm: (matlab-like) conv 'valid' shape pre padded; MeanExecutionTime: 7202" role="graphics-symbol" aria-roledescription="text mark" text-anchor="start" transform="translate(148.04,333)" font-family="sans-serif" font-size="9px" fill="black">7202</text><text aria-label="mean execution time in µs: 9398; algorithm: (wilczek) Single; MeanExecutionTime: 9398" role="graphics-symbol" aria-roledescription="text mark" text-anchor="start" transform="translate(191.95999999999998,353)" font-family="sans-serif" font-size="9px" fill="black">9398</text><text aria-label="mean execution time in µs: 4430; algorithm: (wilczek) Inner-Loop Vectorization; MeanExecutionTime: 4430" role="graphics-symbol" aria-roledescription="text mark" text-anchor="start" transform="translate(92.6,213)" font-family="sans-serif" font-size="9px" fill="black">4430</text><text aria-label="mean execution time in µs: 5915; algorithm: (wilczek) Outer-Loop Vectorization; MeanExecutionTime: 5915" role="graphics-symbol" aria-roledescription="text mark" text-anchor="start" transform="translate(122.30000000000001,273)" font-family="sans-serif" font-size="9px" fill="black">5915</text><text aria-label="mean execution time in µs: 3881; algorithm: (wilczek) Outer- and Inner-Loop Vectorization; MeanExecutionTime: 3881" role="graphics-symbol" aria-roledescription="text mark" text-anchor="start" transform="translate(81.62,173)" font-family="sans-serif" font-size="9px" fill="black">3881</text><text aria-label="mean execution time in µs: 1027; algorithm: (wilczek) AVX NoAlign Inner-Loop Vectorization; MeanExecutionTime: 1027" role="graphics-symbol" aria-roledescription="text mark" text-anchor="start" transform="translate(24.54,53)" font-family="sans-serif" font-size="9px" fill="black">1027</text><text aria-label="mean execution time in µs: 961; algorithm: (wilczek) AVX NoAlign Outer-Loop Vectorization; MeanExecutionTime: 961" role="graphics-symbol" aria-roledescription="text mark" text-anchor="start" transform="translate(23.220000000000002,33)" font-family="sans-serif" font-size="9px" fill="black">961</text><text aria-label="mean execution time in µs: 632; algorithm: (wilczek) AVX NoAlign Outer- and Inner-Loop Vectorization; MeanExecutionTime: 632" role="graphics-symbol" aria-roledescription="text mark" text-anchor="start" transform="translate(16.64,13)" font-family="sans-serif" font-size="9px" fill="black">632</text><text aria-label="mean execution time in µs: 7075; algorithm: (chaowang15) convolve1D; MeanExecutionTime: 7075" role="graphics-symbol" aria-roledescription="text mark" text-anchor="start" transform="translate(145.5,313)" font-family="sans-serif" font-size="9px" fill="black">7075</text></g></g><path class="foreground" aria-hidden="true" d="" display="none"/></g></g></g><path class="foreground" aria-hidden="true" d="" display="none"/></g></g></g></svg>