<svg xmlns="http://www.w3.org/2000/svg" xmlns:xlink="http://www.w3.org/1999/xlink" version="1.1" class="marks" width="1474" height="464" viewBox="0 0 1474 464"><rect width="1474" height="464" fill="white"/><g fill="none" stroke-miterlimit="10" transform="translate(509,66)"><g class="mark-group role-frame root" role="graphics-object" aria-roledescription="group mark container"><g transform="translate(0,0)"><path class="background" aria-hidden="true" d="M0,0h0v0h0Z"/><g><g class="mark-group role-column-title column-title" role="graphics-object" aria-roledescription="group mark container"><g transform="translate(228,-35)"><path class="background" aria-hidden="true" d="M0,0h0v0h0Z"/><g><g class="mark-group role-title"><g transform="translate(0,-26)"><path class="background" aria-hidden="true" d="M0,0h0v0h0Z" pointer-events="none"/><g><g class="mark-text role-title-text" role="graphics-symbol" aria-roledescription="title" aria-label="Title text 'Convolution Benchmarks'" pointer-events="none"><text text-anchor="middle" transform="translate(0,13)" font-family="sans-serif" font-size="16px" font-weight="bold" fill="#000" opacity="1">Convolution Benchmarks</text></g></g><path class="foreground" aria-hidden="true" d="" pointer-events="none" display="none"/></g></g></g><path class="foreground" aria-hidden="true" d="" display="none"/></g></g><g class="mark-group role-column-header column_header" role="graphics-object" aria-roledescription="group mark container"><g transform="translate(0,-1)"><path class="background" aria-hidden="true" d="M0,0h200v0h-200Z"/><g><g class="mark-group role-title"><g transform="translate(100,-24)"><path class="background" aria-hidden="true" d="M0,0h0v0h0Z" pointer-events="none"/><g><g class="mark-text role-title-text" role="graphics-symbol" aria-roledescription="title" aria-label="Title text 'kernel size 16'" pointer-events="none"><text text-anchor="middle" transform="translate(0,11)" font-family="sans-serif" font-size="14px" fill="#000" opacity="1">kernel size 16</text></g></g><path class="foreground" aria-hidden="true" d="" pointer-events="none" display="none"/></g></g></g><path class="foreground" aria-hidden="true" d="" display="none"/></g><g transform="translate(749,-1)"><path class="background" aria-hidden="true" d="M0,0h200v0h-200Z"/><g><g class="mark-group role-title"><g transform="translate(100,-24)"><path class="background" aria-hidden="true" d="M0,0h0v0h0Z" pointer-events="none"/><g><g class="mark-text role-title-text" role="graphics-symbol" aria-roledescription="title" aria-label="Title text 'kernel size 512'" pointer-events="none"><text text-anchor="middle" transform="translate(0,11)" font-family="sans-serif" font-size="14px" fill="#000" opacity="1">kernel size 512</text></g></g><path class="foreground" aria-hidden="true" d="" pointer-events="none" display="none"/></g></g></g><path class="foreground" aria-hidden="true" d="" display="none"/></g></g><g class="mark-group role-scope cell" role="graphics-object" aria-roledescription="group mark container"><g transform="translate(0,0)"><path class="background" aria-hidden="true" d="M0.5,0.5h200v360h-200Z" stroke="#ddd"/><g><g class="mark-group role-axis" aria-hidden="true"><g transform="translate(0.5,360.5)"><path class="background" aria-hidden="true" d="M0,0h0v0h0Z" pointer-events="none"/><g><g class="mark-rule role-axis-grid" pointer-events="none"><line transform="translate(0,0)" x2="0" y2="-360" stroke="#ddd" stroke-width="1" opacity="1"/><line transform="translate(50,0)" x2="0" y2="-360" stroke="#ddd" stroke-width="1" opacity="1"/><line transform="translate(100,0)" x2="0" y2="-360" stroke="#ddd" stroke-width="1" opacity="1"/><line transform="translate(150,0)" x2="0" y2="-360" stroke="#ddd" stroke-width="1" opacity="1"/><line transform="translate(200,0)" x2="0" y2="-360" stroke="#ddd" stroke-width="1" opacity="1"/></g></g><path class="foreground" aria-hidden="true" d="" pointer-events="none" display="none"/></g></g><g class="mark-group role-axis" role="graphics-symbol" aria-roledescription="axis" aria-label="X-axis titled 'mean execution time in µs' for a linear scale with values from 0 to 200"><g transform="translate(0.5,360.5)"><path class="background" aria-hidden="true" d="M0,0h0v0h0Z" pointer-events="none"/><g><g class="mark-rule role-axis-tick" pointer-events="none"><line transform="translate(0,0)" x2="0" y2="5" stroke="#888" stroke-width="1" opacity="1"/><line transform="translate(50,0)" x2="0" y2="5" stroke="#888" stroke-width="1" opacity="1"/><line transform="translate(100,0)" x2="0" y2="5" stroke="#888" stroke-width="1" opacity="1"/><line transform="translate(150,0)" x2="0" y2="5" stroke="#888" stroke-width="1" opacity="1"/><line transform="translate(200,0)" x2="0" y2="5" stroke="#888" stroke-width="1" opacity="1"/></g><g class="mark-text role-axis-label" pointer-events="none"><text text-anchor="start" transform="translate(0,15)" font-family="sans-serif" font-size="10px" fill="#000" opacity="1">0</text><text text-anchor="middle" transform="translate(50,15)" font-family="sans-serif" font-size="10px" fill="#000" opacity="1">50</text><text text-anchor="middle" transform="translate(100,15)" font-family="sans-serif" font-size="10px" fill="#000" opacity="1">100</text><text text-anchor="middle" transform="translate(150,15)" font-family="sans-serif" font-size="10px" fill="#000" opacity="1">150</text><text text-anchor="end" transform="translate(200,15)" font-family="sans-serif" font-size="10px" fill="#000" opacity="1">200</text></g><g class="mark-rule role-axis-domain" pointer-events="none"><line transform="translate(0,0)" x2="200" y2="0" stroke="#888" stroke-width="1" opacity="1"/></g><g class="mark-text role-axis-title" pointer-events="none"><text text-anchor="middle" transform="translate(100,30)" font-family="sans-serif" font-size="11px" font-weight="bold" fill="#000" opacity="1">mean execution time in µs</text></g></g><path class="foreground" aria-hidden="true" d="" pointer-events="none" display="none"/></g></g><g class="mark-group role-axis" role="graphics-symbol" aria-roledescription="axis" aria-label="Y-axis titled 'algorithm' for a discrete scale with 18 values: (wilczek) AVX NoAlign Outer-Loop Vectorization, (JohT) inputPerKernelValue Transposed, (wilczek) AVX NoAlign Outer- and Inner-Loop Vectorization, (wilczek) AVX NoAlign Inner-Loop Vectorization, (JohT) inputPerKernelValue Transposed LoopFission, ending with (wilczek) Outer-Loop Vectorization"><g transform="translate(0.5,0.5)"><path class="background" aria-hidden="true" d="M0,0h0v0h0Z" pointer-events="none"/><g><g class="mark-rule role-axis-tick" pointer-events="none"><line transform="translate(0,10)" x2="-5" y2="0" stroke="#888" stroke-width="1" opacity="1"/><line transform="translate(0,30)" x2="-5" y2="0" stroke="#888" stroke-width="1" opacity="1"/><line transform="translate(0,50)" x2="-5" y2="0" stroke="#888" stroke-width="1" opacity="1"/><line transform="translate(0,70)" x2="-5" y2="0" stroke="#888" stroke-width="1" opacity="1"/><line transform="translate(0,90)" x2="-5" y2="0" stroke="#888" stroke-width="1" opacity="1"/><line transform="translate(0,110)" x2="-5" y2="0" stroke="#888" stroke-width="1" opacity="1"/><line transform="translate(0,130)" x2="-5" y2="0" stroke="#888" stroke-width="1" opacity="1"/><line transform="translate(0,150)" x2="-5" y2="0" stroke="#888" stroke-width="1" opacity="1"/><line transform="translate(0,170)" x2="-5" y2="0" stroke="#888" stroke-width="1" opacity="1"/><line transform="translate(0,190)" x2="-5" y2="0" stroke="#888" stroke-width="1" opacity="1"/><line transform="translate(0,210)" x2="-5" y2="0" stroke="#888" stroke-width="1" opacity="1"/><line transform="translate(0,230)" x2="-5" y2="0" stroke="#888" stroke-width="1" opacity="1"/><line transform="translate(0,250)" x2="-5" y2="0" stroke="#888" stroke-width="1" opacity="1"/><line transform="translate(0,270)" x2="-5" y2="0" stroke="#888" stroke-width="1" opacity="1"/><line transform="translate(0,290)" x2="-5" y2="0" stroke="#888" stroke-width="1" opacity="1"/><line transform="translate(0,310)" x2="-5" y2="0" stroke="#888" stroke-width="1" opacity="1"/><line transform="translate(0,330)" x2="-5" y2="0" stroke="#888" stroke-width="1" opacity="1"/><line transform="translate(0,350)" x2="-5" y2="0" stroke="#888" stroke-width="1" opacity="1"/></g><g class="mark-text role-axis-label" pointer-events="none"><text text-anchor="end" transform="translate(-7,12.5)" font-family="sans-serif" font-size="10px" fill="#000" opacity="1">(wilczek) AVX NoAlign Outer-Loop Vectorization</text><text text-anchor="end" transform="translate(-7,32.5)" font-family="sans-serif" font-size="10px" fill="#000" opacity="1">(JohT) inputPerKernelValue Transposed</text><text text-anchor="end" transform="translate(-7,52.5)" font-family="sans-serif" font-size="10px" fill="#000" opacity="1">(wilczek) AVX NoAlign Outer- and Inner-Loop Vectorization</text><text text-anchor="end" transform="translate(-7,72.5)" font-family="sans-serif" font-size="10px" fill="#000" opacity="1">(wilczek) AVX NoAlign Inner-Loop Vectorization</text><text text-anchor="end" transform="translate(-7,92.5)" font-family="sans-serif" font-size="10px" fill="#000" opacity="1">(JohT) inputPerKernelValue Transposed LoopFission</text><text text-anchor="end" transform="translate(-7,112.5)" font-family="sans-serif" font-size="10px" fill="#000" opacity="1">(JohT) inputPerKernelValue Transposed LoopFissionIndexArithme…</text><text text-anchor="end" transform="translate(-7,132.5)" font-family="sans-serif" font-size="10px" fill="#000" opacity="1">(JohT) inputPerKernelValue Transposed Inner&amp;OuterLoopUnrolled</text><text text-anchor="end" transform="translate(-7,152.5)" font-family="sans-serif" font-size="10px" fill="#000" opacity="1">(wilczek) Inner-Loop Vectorization</text><text text-anchor="end" transform="translate(-7,172.5)" font-family="sans-serif" font-size="10px" fill="#000" opacity="1">(JohT) inputPerKernelValue Transposed InnerLoopUnrolled</text><text text-anchor="end" transform="translate(-7,192.5)" font-family="sans-serif" font-size="10px" fill="#000" opacity="1">(wilczek) Outer- and Inner-Loop Vectorization</text><text text-anchor="end" transform="translate(-7,212.5)" font-family="sans-serif" font-size="10px" fill="#000" opacity="1">(matlab-like) conv 'full' shape</text><text text-anchor="end" transform="translate(-7,232.5)" font-family="sans-serif" font-size="10px" fill="#000" opacity="1">(wilczek) Single</text><text text-anchor="end" transform="translate(-7,252.5)" font-family="sans-serif" font-size="10px" fill="#000" opacity="1">(JohT) kernelPerInputValue Transposed</text><text text-anchor="end" transform="translate(-7,272.5)" font-family="sans-serif" font-size="10px" fill="#000" opacity="1">(JohT) kernelPerInputValue Transposed LoopFission</text><text text-anchor="end" transform="translate(-7,292.5)" font-family="sans-serif" font-size="10px" fill="#000" opacity="1">(chaowang15) convolve1D</text><text text-anchor="end" transform="translate(-7,312.5)" font-family="sans-serif" font-size="10px" fill="#000" opacity="1">(JohT) inputPerKernelValue Transposed OuterLoopUnrolled</text><text text-anchor="end" transform="translate(-7,332.5)" font-family="sans-serif" font-size="10px" fill="#000" opacity="1">(matlab-like) conv 'valid' shape pre padded</text><text text-anchor="end" transform="translate(-7,352.5)" font-family="sans-serif" font-size="10px" fill="#000" opacity="1">(wilczek) Outer-Loop Vectorization</text></g><g class="mark-rule role-axis-domain" pointer-events="none"><line transform="translate(0,0)" x2="0" y2="360" stroke="#888" stroke-width="1" opacity="1"/></g><g class="mark-text role-axis-title" pointer-events="none"><text text-anchor="middle" transform="translate(-320,180) rotate(-90) translate(0,-2)" font-family="sans-serif" font-size="11px" font-weight="bold" fill="#000" opacity="1">algorithm</text></g></g><path class="foreground" aria-hidden="true" d="" pointer-events="none" display="none"/></g></g><g class="mark-rect role-mark child_layer_0_marks" role="graphics-object" aria-roledescription="rect mark container"><path aria-label="mean execution time in µs: 154; algorithm: (JohT) kernelPerInputValue Transposed" role="graphics-symbol" aria-roledescription="bar" d="M0,241.9L150,241.9C152.207660097976,241.9,154,243.692339902024,154,245.9L154,254.10000000000002C154,256.307660097976,152.207660097976,258.1,150,258.1L0,258.1C0,258.1,0,258.1,0,258.1L0,241.9C0,241.9,0,241.9,0,241.9Z" fill="#4c78a8"/><path aria-label="mean execution time in µs: 40; algorithm: (JohT) inputPerKernelValue Transposed" role="graphics-symbol" aria-roledescription="bar" d="M0,21.9L36,21.9C38.207660097976,21.9,40,23.692339902024,40,25.9L40,34.099999999999994C40,36.307660097976,38.207660097976,38.099999999999994,36,38.099999999999994L0,38.099999999999994C0,38.099999999999994,0,38.099999999999994,0,38.099999999999994L0,21.9C0,21.9,0,21.9,0,21.9Z" fill="#4c78a8"/><path aria-label="mean execution time in µs: 97; algorithm: (JohT) inputPerKernelValue Transposed InnerLoopUnrolled" role="graphics-symbol" aria-roledescription="bar" d="M0,161.9L93,161.9C95.207660097976,161.9,97,163.692339902024,97,165.9L97,174.1C97,176.307660097976,95.207660097976,178.1,93,178.1L0,178.1C0,178.1,0,178.1,0,178.1L0,161.9C0,161.9,0,161.9,0,161.9Z" fill="#4c78a8"/><path aria-label="mean execution time in µs: 167; algorithm: (JohT) inputPerKernelValue Transposed OuterLoopUnrolled" role="graphics-symbol" aria-roledescription="bar" d="M0,301.9L163,301.9C165.207660097976,301.9,167,303.692339902024,167,305.9L167,314.09999999999997C167,316.30766009797594,165.207660097976,318.09999999999997,163,318.09999999999997L0,318.09999999999997C0,318.09999999999997,0,318.09999999999997,0,318.09999999999997L0,301.9C0,301.9,0,301.9,0,301.9Z" fill="#4c78a8"/><path aria-label="mean execution time in µs: 93; algorithm: (JohT) inputPerKernelValue Transposed Inner&amp;OuterLoopUnrolled" role="graphics-symbol" aria-roledescription="bar" d="M0,121.9L89,121.9C91.207660097976,121.9,93,123.692339902024,93,125.9L93,134.1C93,136.307660097976,91.207660097976,138.1,89,138.1L0,138.1C0,138.1,0,138.1,0,138.1L0,121.9C0,121.9,0,121.9,0,121.9Z" fill="#4c78a8"/><path aria-label="mean execution time in µs: 61; algorithm: (JohT) inputPerKernelValue Transposed LoopFission" role="graphics-symbol" aria-roledescription="bar" d="M0,81.9L57,81.9C59.207660097976,81.9,61,83.692339902024,61,85.9L61,94.10000000000001C61,96.30766009797601,59.207660097976,98.10000000000001,57,98.10000000000001L0,98.10000000000001C0,98.10000000000001,0,98.10000000000001,0,98.10000000000001L0,81.9C0,81.9,0,81.9,0,81.9Z" fill="#4c78a8"/><path aria-label="mean execution time in µs: 63; algorithm: (JohT) inputPerKernelValue Transposed LoopFissionIndexArithmetic" role="graphics-symbol" aria-roledescription="bar" d="M0,101.9L59,101.9C61.207660097976,101.9,63,103.692339902024,63,105.9L63,114.10000000000001C63,116.30766009797601,61.207660097976,118.10000000000001,59,118.10000000000001L0,118.10000000000001C0,118.10000000000001,0,118.10000000000001,0,118.10000000000001L0,101.9C0,101.9,0,101.9,0,101.9Z" fill="#4c78a8"/><path aria-label="mean execution time in µs: 154; algorithm: (JohT) kernelPerInputValue Transposed LoopFission" role="graphics-symbol" aria-roledescription="bar" d="M0,261.9L150,261.9C152.207660097976,261.9,154,263.692339902024,154,265.9L154,274.09999999999997C154,276.30766009797594,152.207660097976,278.09999999999997,150,278.09999999999997L0,278.09999999999997C0,278.09999999999997,0,278.09999999999997,0,278.09999999999997L0,261.9C0,261.9,0,261.9,0,261.9Z" fill="#4c78a8"/><path aria-label="mean execution time in µs: 124; algorithm: (matlab-like) conv 'full' shape" role="graphics-symbol" aria-roledescription="bar" d="M0,201.9L120,201.9C122.207660097976,201.9,124,203.692339902024,124,205.9L124,214.1C124,216.307660097976,122.207660097976,218.1,120,218.1L0,218.1C0,218.1,0,218.1,0,218.1L0,201.9C0,201.9,0,201.9,0,201.9Z" fill="#4c78a8"/><path aria-label="mean execution time in µs: 172; algorithm: (matlab-like) conv 'valid' shape pre padded" role="graphics-symbol" aria-roledescription="bar" d="M0,321.9L168,321.9C170.207660097976,321.9,172,323.692339902024,172,325.9L172,334.09999999999997C172,336.30766009797594,170.207660097976,338.09999999999997,168,338.09999999999997L0,338.09999999999997C0,338.09999999999997,0,338.09999999999997,0,338.09999999999997L0,321.9C0,321.9,0,321.9,0,321.9Z" fill="#4c78a8"/><path aria-label="mean execution time in µs: 127; algorithm: (wilczek) Single" role="graphics-symbol" aria-roledescription="bar" d="M0,221.9L123,221.9C125.207660097976,221.9,127,223.692339902024,127,225.9L127,234.1C127,236.307660097976,125.207660097976,238.1,123,238.1L0,238.1C0,238.1,0,238.1,0,238.1L0,221.9C0,221.9,0,221.9,0,221.9Z" fill="#4c78a8"/><path aria-label="mean execution time in µs: 95; algorithm: (wilczek) Inner-Loop Vectorization" role="graphics-symbol" aria-roledescription="bar" d="M0,141.9L91,141.9C93.207660097976,141.9,95,143.692339902024,95,145.9L95,154.1C95,156.307660097976,93.207660097976,158.1,91,158.1L0,158.1C0,158.1,0,158.1,0,158.1L0,141.9C0,141.9,0,141.9,0,141.9Z" fill="#4c78a8"/><path aria-label="mean execution time in µs: 199; algorithm: (wilczek) Outer-Loop Vectorization" role="graphics-symbol" aria-roledescription="bar" d="M0,341.9L195,341.9C197.207660097976,341.9,199,343.692339902024,199,345.9L199,354.09999999999997C199,356.30766009797594,197.207660097976,358.09999999999997,195,358.09999999999997L0,358.09999999999997C0,358.09999999999997,0,358.09999999999997,0,358.09999999999997L0,341.9C0,341.9,0,341.9,0,341.9Z" fill="#4c78a8"/><path aria-label="mean execution time in µs: 112; algorithm: (wilczek) Outer- and Inner-Loop Vectorization" role="graphics-symbol" aria-roledescription="bar" d="M0,181.9L108.00000000000001,181.9C110.20766009797602,181.9,112.00000000000001,183.692339902024,112.00000000000001,185.9L112.00000000000001,194.1C112.00000000000001,196.307660097976,110.20766009797602,198.1,108.00000000000001,198.1L0,198.1C0,198.1,0,198.1,0,198.1L0,181.9C0,181.9,0,181.9,0,181.9Z" fill="#4c78a8"/><path aria-label="mean execution time in µs: 50; algorithm: (wilczek) AVX NoAlign Inner-Loop Vectorization" role="graphics-symbol" aria-roledescription="bar" d="M0,61.9L46,61.9C48.207660097976,61.9,50,63.692339902023996,50,65.9L50,74.1C50,76.307660097976,48.207660097976,78.1,46,78.1L0,78.1C0,78.1,0,78.1,0,78.1L0,61.9C0,61.9,0,61.9,0,61.9Z" fill="#4c78a8"/><path aria-label="mean execution time in µs: 24; algorithm: (wilczek) AVX NoAlign Outer-Loop Vectorization" role="graphics-symbol" aria-roledescription="bar" d="M0,1.9L20,1.9C22.207660097976,1.9,24,3.692339902024,24,5.9L24,14.099999999999998C24,16.307660097975997,22.207660097976,18.099999999999998,20,18.099999999999998L0,18.099999999999998C0,18.099999999999998,0,18.099999999999998,0,18.099999999999998L0,1.9C0,1.9,0,1.9,0,1.9Z" fill="#4c78a8"/><path aria-label="mean execution time in µs: 40; algorithm: (wilczek) AVX NoAlign Outer- and Inner-Loop Vectorization" role="graphics-symbol" aria-roledescription="bar" d="M0,41.9L36,41.9C38.207660097976,41.9,40,43.692339902023996,40,45.9L40,54.099999999999994C40,56.307660097976,38.207660097976,58.099999999999994,36,58.099999999999994L0,58.099999999999994C0,58.099999999999994,0,58.099999999999994,0,58.099999999999994L0,41.9C0,41.9,0,41.9,0,41.9Z" fill="#4c78a8"/><path aria-label="mean execution time in µs: 166; algorithm: (chaowang15) convolve1D" role="graphics-symbol" aria-roledescription="bar" d="M0,281.9L162,281.9C164.207660097976,281.9,166,283.692339902024,166,285.9L166,294.09999999999997C166,296.30766009797594,164.207660097976,298.09999999999997,162,298.09999999999997L0,298.09999999999997C0,298.09999999999997,0,298.09999999999997,0,298.09999999999997L0,281.9C0,281.9,0,281.9,0,281.9Z" fill="#4c78a8"/></g><g class="mark-text role-mark child_layer_1_marks" role="graphics-object" aria-roledescription="text mark container"><text aria-label="mean execution time in µs: 154; algorithm: (JohT) kernelPerInputValue Transposed; MeanExecutionTime: 154" role="graphics-symbol" aria-roledescription="text mark" text-anchor="start" transform="translate(158,253)" font-family="sans-serif" font-size="9px" fill="black">154</text><text aria-label="mean execution time in µs: 40; algorithm: (JohT) inputPerKernelValue Transposed; MeanExecutionTime: 40" role="graphics-symbol" aria-roledescription="text mark" text-anchor="start" transform="translate(44,33)" font-family="sans-serif" font-size="9px" fill="black">40</text><text aria-label="mean execution time in µs: 97; algorithm: (JohT) inputPerKernelValue Transposed InnerLoopUnrolled; MeanExecutionTime: 97" role="graphics-symbol" aria-roledescription="text mark" text-anchor="start" transform="translate(101,173)" font-family="sans-serif" font-size="9px" fill="black">97</text><text aria-label="mean execution time in µs: 167; algorithm: (JohT) inputPerKernelValue Transposed OuterLoopUnrolled; MeanExecutionTime: 167" role="graphics-symbol" aria-roledescription="text mark" text-anchor="start" transform="translate(171,313)" font-family="sans-serif" font-size="9px" fill="black">167</text><text aria-label="mean execution time in µs: 93; algorithm: (JohT) inputPerKernelValue Transposed Inner&amp;OuterLoopUnrolled; MeanExecutionTime: 93" role="graphics-symbol" aria-roledescription="text mark" text-anchor="start" transform="translate(97,133)" font-family="sans-serif" font-size="9px" fill="black">93</text><text aria-label="mean execution time in µs: 61; algorithm: (JohT) inputPerKernelValue Transposed LoopFission; MeanExecutionTime: 61" role="graphics-symbol" aria-roledescription="text mark" text-anchor="start" transform="translate(65,93)" font-family="sans-serif" font-size="9px" fill="black">61</text><text aria-label="mean execution time in µs: 63; algorithm: (JohT) inputPerKernelValue Transposed LoopFissionIndexArithmetic; MeanExecutionTime: 63" role="graphics-symbol" aria-roledescription="text mark" text-anchor="start" transform="translate(67,113)" font-family="sans-serif" font-size="9px" fill="black">63</text><text aria-label="mean execution time in µs: 154; algorithm: (JohT) kernelPerInputValue Transposed LoopFission; MeanExecutionTime: 154" role="graphics-symbol" aria-roledescription="text mark" text-anchor="start" transform="translate(158,273)" font-family="sans-serif" font-size="9px" fill="black">154</text><text aria-label="mean execution time in µs: 124; algorithm: (matlab-like) conv 'full' shape; MeanExecutionTime: 124" role="graphics-symbol" aria-roledescription="text mark" text-anchor="start" transform="translate(128,213)" font-family="sans-serif" font-size="9px" fill="black">124</text><text aria-label="mean execution time in µs: 172; algorithm: (matlab-like) conv 'valid' shape pre padded; MeanExecutionTime: 172" role="graphics-symbol" aria-roledescription="text mark" text-anchor="start" transform="translate(176,333)" font-family="sans-serif" font-size="9px" fill="black">172</text><text aria-label="mean execution time in µs: 127; algorithm: (wilczek) Single; MeanExecutionTime: 127" role="graphics-symbol" aria-roledescription="text mark" text-anchor="start" transform="translate(131,233)" font-family="sans-serif" font-size="9px" fill="black">127</text><text aria-label="mean execution time in µs: 95; algorithm: (wilczek) Inner-Loop Vectorization; MeanExecutionTime: 95" role="graphics-symbol" aria-roledescription="text mark" text-anchor="start" transform="translate(99,153)" font-family="sans-serif" font-size="9px" fill="black">95</text><text aria-label="mean execution time in µs: 199; algorithm: (wilczek) Outer-Loop Vectorization; MeanExecutionTime: 199" role="graphics-symbol" aria-roledescription="text mark" text-anchor="start" transform="translate(203,353)" font-family="sans-serif" font-size="9px" fill="black">199</text><text aria-label="mean execution time in µs: 112; algorithm: (wilczek) Outer- and Inner-Loop Vectorization; MeanExecutionTime: 112" role="graphics-symbol" aria-roledescription="text mark" text-anchor="start" transform="translate(116.00000000000001,193)" font-family="sans-serif" font-size="9px" fill="black">112</text><text aria-label="mean execution time in µs: 50; algorithm: (wilczek) AVX NoAlign Inner-Loop Vectorization; MeanExecutionTime: 50" role="graphics-symbol" aria-roledescription="text mark" text-anchor="start" transform="translate(54,73)" font-family="sans-serif" font-size="9px" fill="black">50</text><text aria-label="mean execution time in µs: 24; algorithm: (wilczek) AVX NoAlign Outer-Loop Vectorization; MeanExecutionTime: 24" role="graphics-symbol" aria-roledescription="text mark" text-anchor="start" transform="translate(28,13)" font-family="sans-serif" font-size="9px" fill="black">24</text><text aria-label="mean execution time in µs: 40; algorithm: (wilczek) AVX NoAlign Outer- and Inner-Loop Vectorization; MeanExecutionTime: 40" role="graphics-symbol" aria-roledescription="text mark" text-anchor="start" transform="translate(44,53)" font-family="sans-serif" font-size="9px" fill="black">40</text><text aria-label="mean execution time in µs: 166; algorithm: (chaowang15) convolve1D; MeanExecutionTime: 166" role="graphics-symbol" aria-roledescription="text mark" text-anchor="start" transform="translate(170,293)" font-family="sans-serif" font-size="9px" fill="black">166</text></g></g><path class="foreground" aria-hidden="true" d="" display="none"/></g><g transform="translate(749,0)"><path class="background" aria-hidden="true" d="M0.5,0.5h200v360h-200Z" stroke="#ddd"/><g><g class="mark-group role-axis" aria-hidden="true"><g transform="translate(0.5,360.5)"><path class="background" aria-hidden="true" d="M0,0h0v0h0Z" pointer-events="none"/><g><g class="mark-rule role-axis-grid" pointer-events="none"><line transform="translate(0,0)" x2="0" y2="-360" stroke="#ddd" stroke-width="1" opacity="1"/><line transform="translate(44,0)" x2="0" y2="-360" stroke="#ddd" stroke-width="1" opacity="1"/><line transform="translate(89,0)" x2="0" y2="-360" stroke="#ddd" stroke-width="1" opacity="1"/><line transform="translate(133,0)" x2="0" y2="-360" stroke="#ddd" stroke-width="1" opacity="1"/><line transform="translate(178,0)" x2="0" y2="-360" stroke="#ddd" stroke-width="1" opacity="1"/></g></g><path class="foreground" aria-hidden="true" d="" pointer-events="none" display="none"/></g></g><g class="mark-group role-axis" role="graphics-symbol" aria-roledescription="axis" aria-label="X-axis titled 'mean execution time in µs' for a linear scale with values from 0 to 9,000"><g transform="translate(0.5,360.5)"><path class="background" aria-hidden="true" d="M0,0h0v0h0Z" pointer-events="none"/><g><g class="mark-rule role-axis-tick" pointer-events="none"><line transform="translate(0,0)" x2="0" y2="5" stroke="#888" stroke-width="1" opacity="1"/><line transform="translate(44,0)" x2="0" y2="5" stroke="#888" stroke-width="1" opacity="1"/><line transform="translate(89,0)" x2="0" y2="5" stroke="#888" stroke-width="1" opacity="1"/><line transform="translate(133,0)" x2="0" y2="5" stroke="#888" stroke-width="1" opacity="1"/><line transform="translate(178,0)" x2="0" y2="5" stroke="#888" stroke-width="1" opacity="1"/></g><g class="mark-text role-axis-label" pointer-events="none"><text text-anchor="start" transform="translate(0,15)" font-family="sans-serif" font-size="10px" fill="#000" opacity="1">0</text><text text-anchor="middle" transform="translate(44.44444444444444,15)" font-family="sans-serif" font-size="10px" fill="#000" opacity="1">2,000</text><text text-anchor="middle" transform="translate(88.88888888888889,15)" font-family="sans-serif" font-size="10px" fill="#000" opacity="1">4,000</text><text text-anchor="middle" transform="translate(133.33333333333331,15)" font-family="sans-serif" font-size="10px" fill="#000" opacity="1">6,000</text><text text-anchor="middle" transform="translate(177.77777777777777,15)" font-family="sans-serif" font-size="10px" fill="#000" opacity="1">8,000</text></g><g class="mark-rule role-axis-domain" pointer-events="none"><line transform="translate(0,0)" x2="200" y2="0" stroke="#888" stroke-width="1" opacity="1"/></g><g class="mark-text role-axis-title" pointer-events="none"><text text-anchor="middle" transform="translate(100,30)" font-family="sans-serif" font-size="11px" font-weight="bold" fill="#000" opacity="1">mean execution time in µs</text></g></g><path class="foreground" aria-hidden="true" d="" pointer-events="none" display="none"/></g></g><g class="mark-group role-axis" role="graphics-symbol" aria-roledescription="axis" aria-label="Y-axis titled 'algorithm' for a discrete scale with 18 values: (wilczek) AVX NoAlign Outer- and Inner-Loop Vectorization, (wilczek) AVX NoAlign Inner-Loop Vectorization, (wilczek) AVX NoAlign Outer-Loop Vectorization, (JohT) kernelPerInputValue Transposed, (JohT) inputPerKernelValue Transposed, ending with (wilczek) Outer-Loop Vectorization"><g transform="translate(0.5,0.5)"><path class="background" aria-hidden="true" d="M0,0h0v0h0Z" pointer-events="none"/><g><g class="mark-rule role-axis-tick" pointer-events="none"><line transform="translate(0,10)" x2="-5" y2="0" stroke="#888" stroke-width="1" opacity="1"/><line transform="translate(0,30)" x2="-5" y2="0" stroke="#888" stroke-width="1" opacity="1"/><line transform="translate(0,50)" x2="-5" y2="0" stroke="#888" stroke-width="1" opacity="1"/><line transform="translate(0,70)" x2="-5" y2="0" stroke="#888" stroke-width="1" opacity="1"/><line transform="translate(0,90)" x2="-5" y2="0" stroke="#888" stroke-width="1" opacity="1"/><line transform="translate(0,110)" x2="-5" y2="0" stroke="#888" stroke-width="1" opacity="1"/><line transform="translate(0,130)" x2="-5" y2="0" stroke="#888" stroke-width="1" opacity="1"/><line transform="translate(0,150)" x2="-5" y2="0" stroke="#888" stroke-width="1" opacity="1"/><line transform="translate(0,170)" x2="-5" y2="0" stroke="#888" stroke-width="1" opacity="1"/><line transform="translate(0,190)" x2="-5" y2="0" stroke="#888" stroke-width="1" opacity="1"/><line transform="translate(0,210)" x2="-5" y2="0" stroke="#888" stroke-width="1" opacity="1"/><line transform="translate(0,230)" x2="-5" y2="0" stroke="#888" stroke-width="1" opacity="1"/><line transform="translate(0,250)" x2="-5" y2="0" stroke="#888" stroke-width="1" opacity="1"/><line transform="translate(0,270)" x2="-5" y2="0" stroke="#888" stroke-width="1" opacity="1"/><line transform="translate(0,290)" x2="-5" y2="0" stroke="#888" stroke-width="1" opacity="1"/><line transform="translate(0,310)" x2="-5" y2="0" stroke="#888" stroke-width="1" opacity="1"/><line transform="translate(0,330)" x2="-5" y2="0" stroke="#888" stroke-width="1" opacity="1"/><line transform="translate(0,350)" x2="-5" y2="0" stroke="#888" stroke-width="1" opacity="1"/></g><g class="mark-text role-axis-label" pointer-events="none"><text text-anchor="end" transform="translate(-7,12.5)" font-family="sans-serif" font-size="10px" fill="#000" opacity="1">(wilczek) AVX NoAlign Outer- and Inner-Loop Vectorization</text><text text-anchor="end" transform="translate(-7,32.5)" font-family="sans-serif" font-size="10px" fill="#000" opacity="1">(wilczek) AVX NoAlign Inner-Loop Vectorization</text><text text-anchor="end" transform="translate(-7,52.5)" font-family="sans-serif" font-size="10px" fill="#000" opacity="1">(wilczek) AVX NoAlign Outer-Loop Vectorization</text><text text-anchor="end" transform="translate(-7,72.5)" font-family="sans-serif" font-size="10px" fill="#000" opacity="1">(JohT) kernelPerInputValue Transposed</text><text text-anchor="end" transform="translate(-7,92.5)" font-family="sans-serif" font-size="10px" fill="#000" opacity="1">(JohT) inputPerKernelValue Transposed</text><text text-anchor="end" transform="translate(-7,112.5)" font-family="sans-serif" font-size="10px" fill="#000" opacity="1">(JohT) kernelPerInputValue Transposed LoopFission</text><text text-anchor="end" transform="translate(-7,132.5)" font-family="sans-serif" font-size="10px" fill="#000" opacity="1">(JohT) inputPerKernelValue Transposed LoopFission</text><text text-anchor="end" transform="translate(-7,152.5)" font-family="sans-serif" font-size="10px" fill="#000" opacity="1">(JohT) inputPerKernelValue Transposed LoopFissionIndexArithme…</text><text text-anchor="end" transform="translate(-7,172.5)" font-family="sans-serif" font-size="10px" fill="#000" opacity="1">(wilczek) Inner-Loop Vectorization</text><text text-anchor="end" transform="translate(-7,192.5)" font-family="sans-serif" font-size="10px" fill="#000" opacity="1">(JohT) inputPerKernelValue Transposed Inner&amp;OuterLoopUnrolled</text><text text-anchor="end" transform="translate(-7,212.5)" font-family="sans-serif" font-size="10px" fill="#000" opacity="1">(JohT) inputPerKernelValue Transposed InnerLoopUnrolled</text><text text-anchor="end" transform="translate(-7,232.5)" font-family="sans-serif" font-size="10px" fill="#000" opacity="1">(wilczek) Outer- and Inner-Loop Vectorization</text><text text-anchor="end" transform="translate(-7,252.5)" font-family="sans-serif" font-size="10px" fill="#000" opacity="1">(JohT) inputPerKernelValue Transposed OuterLoopUnrolled</text><text text-anchor="end" transform="translate(-7,272.5)" font-family="sans-serif" font-size="10px" fill="#000" opacity="1">(matlab-like) conv 'full' shape</text><text text-anchor="end" transform="translate(-7,292.5)" font-family="sans-serif" font-size="10px" fill="#000" opacity="1">(chaowang15) convolve1D</text><text text-anchor="end" transform="translate(-7,312.5)" font-family="sans-serif" font-size="10px" fill="#000" opacity="1">(wilczek) Single</text><text text-anchor="end" transform="translate(-7,332.5)" font-family="sans-serif" font-size="10px" fill="#000" opacity="1">(matlab-like) conv 'valid' shape pre padded</text><text text-anchor="end" transform="translate(-7,352.5)" font-family="sans-serif" font-size="10px" fill="#000" opacity="1">(wilczek) Outer-Loop Vectorization</text></g><g class="mark-rule role-axis-domain" pointer-events="none"><line transform="translate(0,0)" x2="0" y2="360" stroke="#888" stroke-width="1" opacity="1"/></g><g class="mark-text role-axis-title" pointer-events="none"><text text-anchor="middle" transform="translate(-320,180) rotate(-90) translate(0,-2)" font-family="sans-serif" font-size="11px" font-weight="bold" fill="#000" opacity="1">algorithm</text></g></g><path class="foreground" aria-hidden="true" d="" pointer-events="none" display="none"/></g></g><g class="mark-rect role-mark child_layer_0_marks" role="graphics-object" aria-roledescription="rect mark container"><path aria-label="mean execution time in µs: 1070; algorithm: (JohT) kernelPerInputValue Transposed" role="graphics-symbol" aria-roledescription="bar" d="M0,61.9L19.77777777777778,61.9C21.985437875753778,61.9,23.77777777777778,63.692339902023996,23.77777777777778,65.9L23.77777777777778,74.1C23.77777777777778,76.307660097976,21.985437875753778,78.1,19.77777777777778,78.1L0,78.1C0,78.1,0,78.1,0,78.1L0,61.9C0,61.9,0,61.9,0,61.9Z" fill="#4c78a8"/><path aria-label="mean execution time in µs: 1117; algorithm: (JohT) inputPerKernelValue Transposed" role="graphics-symbol" aria-roledescription="bar" d="M0,81.9L20.822222222222223,81.9C23.029882320198222,81.9,24.822222222222223,83.692339902024,24.822222222222223,85.9L24.822222222222223,94.10000000000001C24.822222222222223,96.30766009797601,23.029882320198222,98.10000000000001,20.822222222222223,98.10000000000001L0,98.10000000000001C0,98.10000000000001,0,98.10000000000001,0,98.10000000000001L0,81.9C0,81.9,0,81.9,0,81.9Z" fill="#4c78a8"/><path aria-label="mean execution time in µs: 3038; algorithm: (JohT) inputPerKernelValue Transposed InnerLoopUnrolled" role="graphics-symbol" aria-roledescription="bar" d="M0,201.9L63.511111111111106,201.9C65.71877120908711,201.9,67.5111111111111,203.692339902024,67.5111111111111,205.9L67.5111111111111,214.1C67.5111111111111,216.307660097976,65.71877120908711,218.1,63.511111111111106,218.1L0,218.1C0,218.1,0,218.1,0,218.1L0,201.9C0,201.9,0,201.9,0,201.9Z" fill="#4c78a8"/><path aria-label="mean execution time in µs: 5306; algorithm: (JohT) inputPerKernelValue Transposed OuterLoopUnrolled" role="graphics-symbol" aria-roledescription="bar" d="M0,241.9L113.91111111111113,241.9C116.11877120908713,241.9,117.91111111111113,243.692339902024,117.91111111111113,245.9L117.91111111111113,254.10000000000002C117.91111111111113,256.307660097976,116.11877120908713,258.1,113.91111111111113,258.1L0,258.1C0,258.1,0,258.1,0,258.1L0,241.9C0,241.9,0,241.9,0,241.9Z" fill="#4c78a8"/><path aria-label="mean execution time in µs: 2980; algorithm: (JohT) inputPerKernelValue Transposed Inner&amp;OuterLoopUnrolled" role="graphics-symbol" aria-roledescription="bar" d="M0,181.9L62.22222222222223,181.9C64.42988232019823,181.9,66.22222222222223,183.692339902024,66.22222222222223,185.9L66.22222222222223,194.1C66.22222222222223,196.307660097976,64.42988232019823,198.1,62.22222222222223,198.1L0,198.1C0,198.1,0,198.1,0,198.1L0,181.9C0,181.9,0,181.9,0,181.9Z" fill="#4c78a8"/><path aria-label="mean execution time in µs: 1793; algorithm: (JohT) inputPerKernelValue Transposed LoopFission" role="graphics-symbol" aria-roledescription="bar" d="M0,121.9L35.84444444444444,121.9C38.052104542420444,121.9,39.84444444444444,123.692339902024,39.84444444444444,125.9L39.84444444444444,134.1C39.84444444444444,136.307660097976,38.052104542420444,138.1,35.84444444444444,138.1L0,138.1C0,138.1,0,138.1,0,138.1L0,121.9C0,121.9,0,121.9,0,121.9Z" fill="#4c78a8"/><path aria-label="mean execution time in µs: 1835; algorithm: (JohT) inputPerKernelValue Transposed LoopFissionIndexArithmetic" role="graphics-symbol" aria-roledescription="bar" d="M0,141.9L36.77777777777778,141.9C38.98543787575378,141.9,40.77777777777778,143.692339902024,40.77777777777778,145.9L40.77777777777778,154.1C40.77777777777778,156.307660097976,38.98543787575378,158.1,36.77777777777778,158.1L0,158.1C0,158.1,0,158.1,0,158.1L0,141.9C0,141.9,0,141.9,0,141.9Z" fill="#4c78a8"/><path aria-label="mean execution time in µs: 1715; algorithm: (JohT) kernelPerInputValue Transposed LoopFission" role="graphics-symbol" aria-roledescription="bar" d="M0,101.9L34.111111111111114,101.9C36.31877120908712,101.9,38.111111111111114,103.692339902024,38.111111111111114,105.9L38.111111111111114,114.10000000000001C38.111111111111114,116.30766009797601,36.31877120908712,118.10000000000001,34.111111111111114,118.10000000000001L0,118.10000000000001C0,118.10000000000001,0,118.10000000000001,0,118.10000000000001L0,101.9C0,101.9,0,101.9,0,101.9Z" fill="#4c78a8"/><path aria-label="mean execution time in µs: 7443; algorithm: (matlab-like) conv 'full' shape" role="graphics-symbol" aria-roledescription="bar" d="M0,261.9L161.39999999999998,261.9C163.60766009797598,261.9,165.39999999999998,263.692339902024,165.39999999999998,265.9L165.39999999999998,274.09999999999997C165.39999999999998,276.30766009797594,163.60766009797598,278.09999999999997,161.39999999999998,278.09999999999997L0,278.09999999999997C0,278.09999999999997,0,278.09999999999997,0,278.09999999999997L0,261.9C0,261.9,0,261.9,0,261.9Z" fill="#4c78a8"/><path aria-label="mean execution time in µs: 7832; algorithm: (matlab-like) conv 'valid' shape pre padded" role="graphics-symbol" aria-roledescription="bar" d="M0,321.9L170.04444444444445,321.9C172.25210454242045,321.9,174.04444444444445,323.692339902024,174.04444444444445,325.9L174.04444444444445,334.09999999999997C174.04444444444445,336.30766009797594,172.25210454242045,338.09999999999997,170.04444444444445,338.09999999999997L0,338.09999999999997C0,338.09999999999997,0,338.09999999999997,0,338.09999999999997L0,321.9C0,321.9,0,321.9,0,321.9Z" fill="#4c78a8"/><path aria-label="mean execution time in µs: 7752; algorithm: (wilczek) Single" role="graphics-symbol" aria-roledescription="bar" d="M0,301.9L168.26666666666665,301.9C170.47432676464265,301.9,172.26666666666665,303.692339902024,172.26666666666665,305.9L172.26666666666665,314.09999999999997C172.26666666666665,316.30766009797594,170.47432676464265,318.09999999999997,168.26666666666665,318.09999999999997L0,318.09999999999997C0,318.09999999999997,0,318.09999999999997,0,318.09999999999997L0,301.9C0,301.9,0,301.9,0,301.9Z" fill="#4c78a8"/><path aria-label="mean execution time in µs: 2803; algorithm: (wilczek) Inner-Loop Vectorization" role="graphics-symbol" aria-roledescription="bar" d="M0,161.9L58.28888888888889,161.9C60.496548986864894,161.9,62.28888888888889,163.692339902024,62.28888888888889,165.9L62.28888888888889,174.1C62.28888888888889,176.307660097976,60.496548986864894,178.1,58.28888888888889,178.1L0,178.1C0,178.1,0,178.1,0,178.1L0,161.9C0,161.9,0,161.9,0,161.9Z" fill="#4c78a8"/><path aria-label="mean execution time in µs: 8005; algorithm: (wilczek) Outer-Loop Vectorization" role="graphics-symbol" aria-roledescription="bar" d="M0,341.9L173.88888888888889,341.9C176.0965489868649,341.9,177.88888888888889,343.692339902024,177.88888888888889,345.9L177.88888888888889,354.09999999999997C177.88888888888889,356.30766009797594,176.0965489868649,358.09999999999997,173.88888888888889,358.09999999999997L0,358.09999999999997C0,358.09999999999997,0,358.09999999999997,0,358.09999999999997L0,341.9C0,341.9,0,341.9,0,341.9Z" fill="#4c78a8"/><path aria-label="mean execution time in µs: 3323; algorithm: (wilczek) Outer- and Inner-Loop Vectorization" role="graphics-symbol" aria-roledescription="bar" d="M0,221.9L69.84444444444445,221.9C72.05210454242045,221.9,73.84444444444445,223.692339902024,73.84444444444445,225.9L73.84444444444445,234.1C73.84444444444445,236.307660097976,72.05210454242045,238.1,69.84444444444445,238.1L0,238.1C0,238.1,0,238.1,0,238.1L0,221.9C0,221.9,0,221.9,0,221.9Z" fill="#4c78a8"/><path aria-label="mean execution time in µs: 937; algorithm: (wilczek) AVX NoAlign Inner-Loop Vectorization" role="graphics-symbol" aria-roledescription="bar" d="M0,21.9L16.822222222222223,21.9C19.029882320198222,21.9,20.822222222222223,23.692339902024,20.822222222222223,25.9L20.822222222222223,34.099999999999994C20.822222222222223,36.307660097976,19.029882320198222,38.099999999999994,16.822222222222223,38.099999999999994L0,38.099999999999994C0,38.099999999999994,0,38.099999999999994,0,38.099999999999994L0,21.9C0,21.9,0,21.9,0,21.9Z" fill="#4c78a8"/><path aria-label="mean execution time in µs: 983; algorithm: (wilczek) AVX NoAlign Outer-Loop Vectorization" role="graphics-symbol" aria-roledescription="bar" d="M0,41.9L17.844444444444445,41.9C20.052104542420444,41.9,21.844444444444445,43.692339902023996,21.844444444444445,45.9L21.844444444444445,54.099999999999994C21.844444444444445,56.307660097976,20.052104542420444,58.099999999999994,17.844444444444445,58.099999999999994L0,58.099999999999994C0,58.099999999999994,0,58.099999999999994,0,58.099999999999994L0,41.9C0,41.9,0,41.9,0,41.9Z" fill="#4c78a8"/><path aria-label="mean execution time in µs: 550; algorithm: (wilczek) AVX NoAlign Outer- and Inner-Loop Vectorization" role="graphics-symbol" aria-roledescription="bar" d="M0,1.9L8.222222222222221,1.9C10.429882320198221,1.9,12.222222222222221,3.692339902024,12.222222222222221,5.9L12.222222222222221,14.099999999999998C12.222222222222221,16.307660097975997,10.429882320198221,18.099999999999998,8.222222222222221,18.099999999999998L0,18.099999999999998C0,18.099999999999998,0,18.099999999999998,0,18.099999999999998L0,1.9C0,1.9,0,1.9,0,1.9Z" fill="#4c78a8"/><path aria-label="mean execution time in µs: 7688; algorithm: (chaowang15) convolve1D" role="graphics-symbol" aria-roledescription="bar" d="M0,281.9L166.84444444444443,281.9C169.05210454242044,281.9,170.84444444444443,283.692339902024,170.84444444444443,285.9L170.84444444444443,294.09999999999997C170.84444444444443,296.30766009797594,169.05210454242044,298.09999999999997,166.84444444444443,298.09999999999997L0,298.09999999999997C0,298.09999999999997,0,298.09999999999997,0,298.09999999999997L0,281.9C0,281.9,0,281.9,0,281.9Z" fill="#4c78a8"/></g><g class="mark-text role-mark child_layer_1_marks" role="graphics-object" aria-roledescription="text mark container"><text aria-label="mean execution time in µs: 1070; algorithm: (JohT) kernelPerInputValue Transposed; MeanExecutionTime: 1070" role="graphics-symbol" aria-roledescription="text mark" text-anchor="start" transform="translate(27.77777777777778,73)" font-family="sans-serif" font-size="9px" fill="black">1070</text><text aria-label="mean execution time in µs: 1117; algorithm: (JohT) inputPerKernelValue Transposed; MeanExecutionTime: 1117" role="graphics-symbol" aria-roledescription="text mark" text-anchor="start" transform="translate(28.822222222222223,93)" font-family="sans-serif" font-size="9px" fill="black">1117</text><text aria-label="mean execution time in µs: 3038; algorithm: (JohT) inputPerKernelValue Transposed InnerLoopUnrolled; MeanExecutionTime: 3038" role="graphics-symbol" aria-roledescription="text mark" text-anchor="start" transform="translate(71.5111111111111,213)" font-family="sans-serif" font-size="9px" fill="black">3038</text><text aria-label="mean execution time in µs: 5306; algorithm: (JohT) inputPerKernelValue Transposed OuterLoopUnrolled; MeanExecutionTime: 5306" role="graphics-symbol" aria-roledescription="text mark" text-anchor="start" transform="translate(121.91111111111113,253)" font-family="sans-serif" font-size="9px" fill="black">5306</text><text aria-label="mean execution time in µs: 2980; algorithm: (JohT) inputPerKernelValue Transposed Inner&amp;OuterLoopUnrolled; MeanExecutionTime: 2980" role="graphics-symbol" aria-roledescription="text mark" text-anchor="start" transform="translate(70.22222222222223,193)" font-family="sans-serif" font-size="9px" fill="black">2980</text><text aria-label="mean execution time in µs: 1793; algorithm: (JohT) inputPerKernelValue Transposed LoopFission; MeanExecutionTime: 1793" role="graphics-symbol" aria-roledescription="text mark" text-anchor="start" transform="translate(43.84444444444444,133)" font-family="sans-serif" font-size="9px" fill="black">1793</text><text aria-label="mean execution time in µs: 1835; algorithm: (JohT) inputPerKernelValue Transposed LoopFissionIndexArithmetic; MeanExecutionTime: 1835" role="graphics-symbol" aria-roledescription="text mark" text-anchor="start" transform="translate(44.77777777777778,153)" font-family="sans-serif" font-size="9px" fill="black">1835</text><text aria-label="mean execution time in µs: 1715; algorithm: (JohT) kernelPerInputValue Transposed LoopFission; MeanExecutionTime: 1715" role="graphics-symbol" aria-roledescription="text mark" text-anchor="start" transform="translate(42.111111111111114,113)" font-family="sans-serif" font-size="9px" fill="black">1715</text><text aria-label="mean execution time in µs: 7443; algorithm: (matlab-like) conv 'full' shape; MeanExecutionTime: 7443" role="graphics-symbol" aria-roledescription="text mark" text-anchor="start" transform="translate(169.39999999999998,273)" font-family="sans-serif" font-size="9px" fill="black">7443</text><text aria-label="mean execution time in µs: 7832; algorithm: (matlab-like) conv 'valid' shape pre padded; MeanExecutionTime: 7832" role="graphics-symbol" aria-roledescription="text mark" text-anchor="start" transform="translate(178.04444444444445,333)" font-family="sans-serif" font-size="9px" fill="black">7832</text><text aria-label="mean execution time in µs: 7752; algorithm: (wilczek) Single; MeanExecutionTime: 7752" role="graphics-symbol" aria-roledescription="text mark" text-anchor="start" transform="translate(176.26666666666665,313)" font-family="sans-serif" font-size="9px" fill="black">7752</text><text aria-label="mean execution time in µs: 2803; algorithm: (wilczek) Inner-Loop Vectorization; MeanExecutionTime: 2803" role="graphics-symbol" aria-roledescription="text mark" text-anchor="start" transform="translate(66.28888888888889,173)" font-family="sans-serif" font-size="9px" fill="black">2803</text><text aria-label="mean execution time in µs: 8005; algorithm: (wilczek) Outer-Loop Vectorization; MeanExecutionTime: 8005" role="graphics-symbol" aria-roledescription="text mark" text-anchor="start" transform="translate(181.88888888888889,353)" font-family="sans-serif" font-size="9px" fill="black">8005</text><text aria-label="mean execution time in µs: 3323; algorithm: (wilczek) Outer- and Inner-Loop Vectorization; MeanExecutionTime: 3323" role="graphics-symbol" aria-roledescription="text mark" text-anchor="start" transform="translate(77.84444444444445,233)" font-family="sans-serif" font-size="9px" fill="black">3323</text><text aria-label="mean execution time in µs: 937; algorithm: (wilczek) AVX NoAlign Inner-Loop Vectorization; MeanExecutionTime: 937" role="graphics-symbol" aria-roledescription="text mark" text-anchor="start" transform="translate(24.822222222222223,33)" font-family="sans-serif" font-size="9px" fill="black">937</text><text aria-label="mean execution time in µs: 983; algorithm: (wilczek) AVX NoAlign Outer-Loop Vectorization; MeanExecutionTime: 983" role="graphics-symbol" aria-roledescription="text mark" text-anchor="start" transform="translate(25.844444444444445,53)" font-family="sans-serif" font-size="9px" fill="black">983</text><text aria-label="mean execution time in µs: 550; algorithm: (wilczek) AVX NoAlign Outer- and Inner-Loop Vectorization; MeanExecutionTime: 550" role="graphics-symbol" aria-roledescription="text mark" text-anchor="start" transform="translate(16.22222222222222,13)" font-family="sans-serif" font-size="9px" fill="black">550</text><text aria-label="mean execution time in µs: 7688; algorithm: (chaowang15) convolve1D; MeanExecutionTime: 7688" role="graphics-symbol" aria-roledescription="text mark" text-anchor="start" transform="translate(174.84444444444443,293)" font-family="sans-serif" font-size="9px" fill="black">7688</text></g></g><path class="foreground" aria-hidden="true" d="" display="none"/></g></g></g><path class="foreground" aria-hidden="true" d="" display="none"/></g></g></g></svg>