<svg xmlns="http://www.w3.org/2000/svg" xmlns:xlink="http://www.w3.org/1999/xlink" version="1.1" class="marks" width="1495" height="464" viewBox="0 0 1495 464"><rect width="1495" height="464" fill="white"/><g fill="none" stroke-miterlimit="10" transform="translate(509,66)"><g class="mark-group role-frame root" role="graphics-object" aria-roledescription="group mark container"><g transform="translate(0,0)"><path class="background" aria-hidden="true" d="M0,0h0v0h0Z"/><g><g class="mark-group role-column-title column-title" role="graphics-object" aria-roledescription="group mark container"><g transform="translate(238,-35)"><path class="background" aria-hidden="true" d="M0,0h0v0h0Z"/><g><g class="mark-group role-title"><g transform="translate(0,-26)"><path class="background" aria-hidden="true" d="M0,0h0v0h0Z" pointer-events="none"/><g><g class="mark-text role-title-text" role="graphics-symbol" aria-roledescription="title" aria-label="Title text 'Convolution Benchmarks'" pointer-events="none"><text text-anchor="middle" transform="translate(0,13)" font-family="sans-serif" font-size="16px" font-weight="bold" fill="#000" opacity="1">Convolution Benchmarks</text></g></g><path class="foreground" aria-hidden="true" d="" pointer-events="none" display="none"/></g></g></g><path class="foreground" aria-hidden="true" d="" display="none"/></g></g><g class="mark-group role-column-header column_header" role="graphics-object" aria-roledescription="group mark container"><g transform="translate(0,-1)"><path class="background" aria-hidden="true" d="M0,0h200v0h-200Z"/><g><g class="mark-group role-title"><g transform="translate(100,-24)"><path class="background" aria-hidden="true" d="M0,0h0v0h0Z" pointer-events="none"/><g><g class="mark-text role-title-text" role="graphics-symbol" aria-roledescription="title" aria-label="Title text 'kernel size 16'" pointer-events="none"><text text-anchor="middle" transform="translate(0,11)" font-family="sans-serif" font-size="14px" fill="#000" opacity="1">kernel size 16</text></g></g><path class="foreground" aria-hidden="true" d="" pointer-events="none" display="none"/></g></g></g><path class="foreground" aria-hidden="true" d="" display="none"/></g><g transform="translate(748,-1)"><path class="background" aria-hidden="true" d="M0,0h200v0h-200Z"/><g><g class="mark-group role-title"><g transform="translate(100,-24)"><path class="background" aria-hidden="true" d="M0,0h0v0h0Z" pointer-events="none"/><g><g class="mark-text role-title-text" role="graphics-symbol" aria-roledescription="title" aria-label="Title text 'kernel size 512'" pointer-events="none"><text text-anchor="middle" transform="translate(0,11)" font-family="sans-serif" font-size="14px" fill="#000" opacity="1">kernel size 512</text></g></g><path class="foreground" aria-hidden="true" d="" pointer-events="none" display="none"/></g></g></g><path class="foreground" aria-hidden="true" d="" display="none"/></g></g><g class="mark-group role-scope cell" role="graphics-object" aria-roledescription="group mark container"><g transform="translate(0,0)"><path class="background" aria-hidden="true" d="M0.5,0.5h200v360h-200Z" stroke="#ddd"/><g><g class="mark-group role-axis" aria-hidden="true"><g transform="translate(0.5,360.5)"><path class="background" aria-hidden="true" d="M0,0h0v0h0Z" pointer-events="none"/><g><g class="mark-rule role-axis-grid" pointer-events="none"><line transform="translate(0,0)" x2="0" y2="-360" stroke="#ddd" stroke-width="1" opacity="1"/><line transform="translate(50,0)" x2="0" y2="-360" stroke="#ddd" stroke-width="1" opacity="1"/><line transform="translate(100,0)" x2="0" y2="-360" stroke="#ddd" stroke-width="1" opacity="1"/><line transform="translate(150,0)" x2="0" y2="-360" stroke="#ddd" stroke-width="1" opacity="1"/><line transform="translate(200,0)" x2="0" y2="-360" stroke="#ddd" stroke-width="1" opacity="1"/></g></g><path class="foreground" aria-hidden="true" d="" pointer-events="none" display="none"/></g></g><g class="mark-group role-axis" role="graphics-symbol" aria-roledescription="axis" aria-label="X-axis titled 'mean execution time in µs' for a linear scale with values from 0 to 200"><g transform="translate(0.5,360.5)"><path class="background" aria-hidden="true" d="M0,0h0v0h0Z" pointer-events="none"/><g><g class="mark-rule role-axis-tick" pointer-events="none"><line transform="translate(0,0)" x2="0" y2="5" stroke="#888" stroke-width="1" opacity="1"/><line transform="translate(50,0)" x2="0" y2="5" stroke="#888" stroke-width="1" opacity="1"/><line transform="translate(100,0)" x2="0" y2="5" stroke="#888" stroke-width="1" opacity="1"/><line transform="translate(150,0)" x2="0" y2="5" stroke="#888" stroke-width="1" opacity="1"/><line transform="translate(200,0)" x2="0" y2="5" stroke="#888" stroke-width="1" opacity="1"/></g><g class="mark-text role-axis-label" pointer-events="none"><text text-anchor="start" transform="translate(0,15)" font-family="sans-serif" font-size="10px" fill="#000" opacity="1">0</text><text text-anchor="middle" transform="translate(50,15)" font-family="sans-serif" font-size="10px" fill="#000" opacity="1">50</text><text text-anchor="middle" transform="translate(100,15)" font-family="sans-serif" font-size="10px" fill="#000" opacity="1">100</text><text text-anchor="middle" transform="translate(150,15)" font-family="sans-serif" font-size="10px" fill="#000" opacity="1">150</text><text text-anchor="end" transform="translate(200,15)" font-family="sans-serif" font-size="10px" fill="#000" opacity="1">200</text></g><g class="mark-rule role-axis-domain" pointer-events="none"><line transform="translate(0,0)" x2="200" y2="0" stroke="#888" stroke-width="1" opacity="1"/></g><g class="mark-text role-axis-title" pointer-events="none"><text text-anchor="middle" transform="translate(100,30)" font-family="sans-serif" font-size="11px" font-weight="bold" fill="#000" opacity="1">mean execution time in µs</text></g></g><path class="foreground" aria-hidden="true" d="" pointer-events="none" display="none"/></g></g><g class="mark-group role-axis" role="graphics-symbol" aria-roledescription="axis" aria-label="Y-axis titled 'algorithm' for a discrete scale with 18 values: (wilczek) AVX NoAlign Outer-Loop Vectorization, (JohT) inputPerKernelValue Transposed, (wilczek) AVX NoAlign Outer- and Inner-Loop Vectorization, (wilczek) AVX NoAlign Inner-Loop Vectorization, (JohT) inputPerKernelValue Transposed LoopFission, ending with (wilczek) Outer-Loop Vectorization"><g transform="translate(0.5,0.5)"><path class="background" aria-hidden="true" d="M0,0h0v0h0Z" pointer-events="none"/><g><g class="mark-rule role-axis-tick" pointer-events="none"><line transform="translate(0,10)" x2="-5" y2="0" stroke="#888" stroke-width="1" opacity="1"/><line transform="translate(0,30)" x2="-5" y2="0" stroke="#888" stroke-width="1" opacity="1"/><line transform="translate(0,50)" x2="-5" y2="0" stroke="#888" stroke-width="1" opacity="1"/><line transform="translate(0,70)" x2="-5" y2="0" stroke="#888" stroke-width="1" opacity="1"/><line transform="translate(0,90)" x2="-5" y2="0" stroke="#888" stroke-width="1" opacity="1"/><line transform="translate(0,110)" x2="-5" y2="0" stroke="#888" stroke-width="1" opacity="1"/><line transform="translate(0,130)" x2="-5" y2="0" stroke="#888" stroke-width="1" opacity="1"/><line transform="translate(0,150)" x2="-5" y2="0" stroke="#888" stroke-width="1" opacity="1"/><line transform="translate(0,170)" x2="-5" y2="0" stroke="#888" stroke-width="1" opacity="1"/><line transform="translate(0,190)" x2="-5" y2="0" stroke="#888" stroke-width="1" opacity="1"/><line transform="translate(0,210)" x2="-5" y2="0" stroke="#888" stroke-width="1" opacity="1"/><line transform="translate(0,230)" x2="-5" y2="0" stroke="#888" stroke-width="1" opacity="1"/><line transform="translate(0,250)" x2="-5" y2="0" stroke="#888" stroke-width="1" opacity="1"/><line transform="translate(0,270)" x2="-5" y2="0" stroke="#888" stroke-width="1" opacity="1"/><line transform="translate(0,290)" x2="-5" y2="0" stroke="#888" stroke-width="1" opacity="1"/><line transform="translate(0,310)" x2="-5" y2="0" stroke="#888" stroke-width="1" opacity="1"/><line transform="translate(0,330)" x2="-5" y2="0" stroke="#888" stroke-width="1" opacity="1"/><line transform="translate(0,350)" x2="-5" y2="0" stroke="#888" stroke-width="1" opacity="1"/></g><g class="mark-text role-axis-label" pointer-events="none"><text text-anchor="end" transform="translate(-7,12.5)" font-family="sans-serif" font-size="10px" fill="#000" opacity="1">(wilczek) AVX NoAlign Outer-Loop Vectorization</text><text text-anchor="end" transform="translate(-7,32.5)" font-family="sans-serif" font-size="10px" fill="#000" opacity="1">(JohT) inputPerKernelValue Transposed</text><text text-anchor="end" transform="translate(-7,52.5)" font-family="sans-serif" font-size="10px" fill="#000" opacity="1">(wilczek) AVX NoAlign Outer- and Inner-Loop Vectorization</text><text text-anchor="end" transform="translate(-7,72.5)" font-family="sans-serif" font-size="10px" fill="#000" opacity="1">(wilczek) AVX NoAlign Inner-Loop Vectorization</text><text text-anchor="end" transform="translate(-7,92.5)" font-family="sans-serif" font-size="10px" fill="#000" opacity="1">(JohT) inputPerKernelValue Transposed LoopFission</text><text text-anchor="end" transform="translate(-7,112.5)" font-family="sans-serif" font-size="10px" fill="#000" opacity="1">(JohT) inputPerKernelValue Transposed LoopFissionIndexArithme…</text><text text-anchor="end" transform="translate(-7,132.5)" font-family="sans-serif" font-size="10px" fill="#000" opacity="1">(JohT) inputPerKernelValue Transposed Inner&amp;OuterLoopUnrolled</text><text text-anchor="end" transform="translate(-7,152.5)" font-family="sans-serif" font-size="10px" fill="#000" opacity="1">(wilczek) Inner-Loop Vectorization</text><text text-anchor="end" transform="translate(-7,172.5)" font-family="sans-serif" font-size="10px" fill="#000" opacity="1">(JohT) inputPerKernelValue Transposed InnerLoopUnrolled</text><text text-anchor="end" transform="translate(-7,192.5)" font-family="sans-serif" font-size="10px" fill="#000" opacity="1">(wilczek) Outer- and Inner-Loop Vectorization</text><text text-anchor="end" transform="translate(-7,212.5)" font-family="sans-serif" font-size="10px" fill="#000" opacity="1">(JohT) kernelPerInputValue Transposed</text><text text-anchor="end" transform="translate(-7,232.5)" font-family="sans-serif" font-size="10px" fill="#000" opacity="1">(JohT) kernelPerInputValue Transposed LoopFission</text><text text-anchor="end" transform="translate(-7,252.5)" font-family="sans-serif" font-size="10px" fill="#000" opacity="1">(wilczek) Single</text><text text-anchor="end" transform="translate(-7,272.5)" font-family="sans-serif" font-size="10px" fill="#000" opacity="1">(JohT) inputPerKernelValue Transposed OuterLoopUnrolled</text><text text-anchor="end" transform="translate(-7,292.5)" font-family="sans-serif" font-size="10px" fill="#000" opacity="1">(chaowang15) convolve1D</text><text text-anchor="end" transform="translate(-7,312.5)" font-family="sans-serif" font-size="10px" fill="#000" opacity="1">(matlab-like) conv 'full' shape</text><text text-anchor="end" transform="translate(-7,332.5)" font-family="sans-serif" font-size="10px" fill="#000" opacity="1">(matlab-like) conv 'valid' shape pre padded</text><text text-anchor="end" transform="translate(-7,352.5)" font-family="sans-serif" font-size="10px" fill="#000" opacity="1">(wilczek) Outer-Loop Vectorization</text></g><g class="mark-rule role-axis-domain" pointer-events="none"><line transform="translate(0,0)" x2="0" y2="360" stroke="#888" stroke-width="1" opacity="1"/></g><g class="mark-text role-axis-title" pointer-events="none"><text text-anchor="middle" transform="translate(-320,180) rotate(-90) translate(0,-2)" font-family="sans-serif" font-size="11px" font-weight="bold" fill="#000" opacity="1">algorithm</text></g></g><path class="foreground" aria-hidden="true" d="" pointer-events="none" display="none"/></g></g><g class="mark-rect role-mark child_layer_0_marks" role="graphics-object" aria-roledescription="rect mark container"><path aria-label="mean execution time in µs: 154; algorithm: (JohT) kernelPerInputValue Transposed" role="graphics-symbol" aria-roledescription="bar" d="M0,201.9L150,201.9C152.207660097976,201.9,154,203.692339902024,154,205.9L154,214.1C154,216.307660097976,152.207660097976,218.1,150,218.1L0,218.1C0,218.1,0,218.1,0,218.1L0,201.9C0,201.9,0,201.9,0,201.9Z" fill="#4c78a8"/><path aria-label="mean execution time in µs: 42; algorithm: (JohT) inputPerKernelValue Transposed" role="graphics-symbol" aria-roledescription="bar" d="M0,21.9L38,21.9C40.207660097976,21.9,42,23.692339902024,42,25.9L42,34.099999999999994C42,36.307660097976,40.207660097976,38.099999999999994,38,38.099999999999994L0,38.099999999999994C0,38.099999999999994,0,38.099999999999994,0,38.099999999999994L0,21.9C0,21.9,0,21.9,0,21.9Z" fill="#4c78a8"/><path aria-label="mean execution time in µs: 97; algorithm: (JohT) inputPerKernelValue Transposed InnerLoopUnrolled" role="graphics-symbol" aria-roledescription="bar" d="M0,161.9L93,161.9C95.207660097976,161.9,97,163.692339902024,97,165.9L97,174.1C97,176.307660097976,95.207660097976,178.1,93,178.1L0,178.1C0,178.1,0,178.1,0,178.1L0,161.9C0,161.9,0,161.9,0,161.9Z" fill="#4c78a8"/><path aria-label="mean execution time in µs: 167; algorithm: (JohT) inputPerKernelValue Transposed OuterLoopUnrolled" role="graphics-symbol" aria-roledescription="bar" d="M0,261.9L163,261.9C165.207660097976,261.9,167,263.692339902024,167,265.9L167,274.09999999999997C167,276.30766009797594,165.207660097976,278.09999999999997,163,278.09999999999997L0,278.09999999999997C0,278.09999999999997,0,278.09999999999997,0,278.09999999999997L0,261.9C0,261.9,0,261.9,0,261.9Z" fill="#4c78a8"/><path aria-label="mean execution time in µs: 95; algorithm: (JohT) inputPerKernelValue Transposed Inner&amp;OuterLoopUnrolled" role="graphics-symbol" aria-roledescription="bar" d="M0,121.9L91,121.9C93.207660097976,121.9,95,123.692339902024,95,125.9L95,134.1C95,136.307660097976,93.207660097976,138.1,91,138.1L0,138.1C0,138.1,0,138.1,0,138.1L0,121.9C0,121.9,0,121.9,0,121.9Z" fill="#4c78a8"/><path aria-label="mean execution time in µs: 61; algorithm: (JohT) inputPerKernelValue Transposed LoopFission" role="graphics-symbol" aria-roledescription="bar" d="M0,81.9L57,81.9C59.207660097976,81.9,61,83.692339902024,61,85.9L61,94.10000000000001C61,96.30766009797601,59.207660097976,98.10000000000001,57,98.10000000000001L0,98.10000000000001C0,98.10000000000001,0,98.10000000000001,0,98.10000000000001L0,81.9C0,81.9,0,81.9,0,81.9Z" fill="#4c78a8"/><path aria-label="mean execution time in µs: 63; algorithm: (JohT) inputPerKernelValue Transposed LoopFissionIndexArithmetic" role="graphics-symbol" aria-roledescription="bar" d="M0,101.9L59,101.9C61.207660097976,101.9,63,103.692339902024,63,105.9L63,114.10000000000001C63,116.30766009797601,61.207660097976,118.10000000000001,59,118.10000000000001L0,118.10000000000001C0,118.10000000000001,0,118.10000000000001,0,118.10000000000001L0,101.9C0,101.9,0,101.9,0,101.9Z" fill="#4c78a8"/><path aria-label="mean execution time in µs: 155; algorithm: (JohT) kernelPerInputValue Transposed LoopFission" role="graphics-symbol" aria-roledescription="bar" d="M0,221.9L151,221.9C153.207660097976,221.9,155,223.692339902024,155,225.9L155,234.1C155,236.307660097976,153.207660097976,238.1,151,238.1L0,238.1C0,238.1,0,238.1,0,238.1L0,221.9C0,221.9,0,221.9,0,221.9Z" fill="#4c78a8"/><path aria-label="mean execution time in µs: 168; algorithm: (matlab-like) conv 'full' shape" role="graphics-symbol" aria-roledescription="bar" d="M0,301.9L164,301.9C166.207660097976,301.9,168,303.692339902024,168,305.9L168,314.09999999999997C168,316.30766009797594,166.207660097976,318.09999999999997,164,318.09999999999997L0,318.09999999999997C0,318.09999999999997,0,318.09999999999997,0,318.09999999999997L0,301.9C0,301.9,0,301.9,0,301.9Z" fill="#4c78a8"/><path aria-label="mean execution time in µs: 173; algorithm: (matlab-like) conv 'valid' shape pre padded" role="graphics-symbol" aria-roledescription="bar" d="M0,321.9L169,321.9C171.207660097976,321.9,173,323.692339902024,173,325.9L173,334.09999999999997C173,336.30766009797594,171.207660097976,338.09999999999997,169,338.09999999999997L0,338.09999999999997C0,338.09999999999997,0,338.09999999999997,0,338.09999999999997L0,321.9C0,321.9,0,321.9,0,321.9Z" fill="#4c78a8"/><path aria-label="mean execution time in µs: 163; algorithm: (wilczek) Single" role="graphics-symbol" aria-roledescription="bar" d="M0,241.9L159,241.9C161.207660097976,241.9,163,243.692339902024,163,245.9L163,254.10000000000002C163,256.307660097976,161.207660097976,258.1,159,258.1L0,258.1C0,258.1,0,258.1,0,258.1L0,241.9C0,241.9,0,241.9,0,241.9Z" fill="#4c78a8"/><path aria-label="mean execution time in µs: 96; algorithm: (wilczek) Inner-Loop Vectorization" role="graphics-symbol" aria-roledescription="bar" d="M0,141.9L92,141.9C94.207660097976,141.9,96,143.692339902024,96,145.9L96,154.1C96,156.307660097976,94.207660097976,158.1,92,158.1L0,158.1C0,158.1,0,158.1,0,158.1L0,141.9C0,141.9,0,141.9,0,141.9Z" fill="#4c78a8"/><path aria-label="mean execution time in µs: 198; algorithm: (wilczek) Outer-Loop Vectorization" role="graphics-symbol" aria-roledescription="bar" d="M0,341.9L194,341.9C196.207660097976,341.9,198,343.692339902024,198,345.9L198,354.09999999999997C198,356.30766009797594,196.207660097976,358.09999999999997,194,358.09999999999997L0,358.09999999999997C0,358.09999999999997,0,358.09999999999997,0,358.09999999999997L0,341.9C0,341.9,0,341.9,0,341.9Z" fill="#4c78a8"/><path aria-label="mean execution time in µs: 113; algorithm: (wilczek) Outer- and Inner-Loop Vectorization" role="graphics-symbol" aria-roledescription="bar" d="M0,181.9L108.99999999999999,181.9C111.20766009797599,181.9,112.99999999999999,183.692339902024,112.99999999999999,185.9L112.99999999999999,194.1C112.99999999999999,196.307660097976,111.20766009797599,198.1,108.99999999999999,198.1L0,198.1C0,198.1,0,198.1,0,198.1L0,181.9C0,181.9,0,181.9,0,181.9Z" fill="#4c78a8"/><path aria-label="mean execution time in µs: 50; algorithm: (wilczek) AVX NoAlign Inner-Loop Vectorization" role="graphics-symbol" aria-roledescription="bar" d="M0,61.9L46,61.9C48.207660097976,61.9,50,63.692339902023996,50,65.9L50,74.1C50,76.307660097976,48.207660097976,78.1,46,78.1L0,78.1C0,78.1,0,78.1,0,78.1L0,61.9C0,61.9,0,61.9,0,61.9Z" fill="#4c78a8"/><path aria-label="mean execution time in µs: 25; algorithm: (wilczek) AVX NoAlign Outer-Loop Vectorization" role="graphics-symbol" aria-roledescription="bar" d="M0,1.9L21,1.9C23.207660097976,1.9,25,3.692339902024,25,5.9L25,14.099999999999998C25,16.307660097975997,23.207660097976,18.099999999999998,21,18.099999999999998L0,18.099999999999998C0,18.099999999999998,0,18.099999999999998,0,18.099999999999998L0,1.9C0,1.9,0,1.9,0,1.9Z" fill="#4c78a8"/><path aria-label="mean execution time in µs: 42; algorithm: (wilczek) AVX NoAlign Outer- and Inner-Loop Vectorization" role="graphics-symbol" aria-roledescription="bar" d="M0,41.9L38,41.9C40.207660097976,41.9,42,43.692339902023996,42,45.9L42,54.099999999999994C42,56.307660097976,40.207660097976,58.099999999999994,38,58.099999999999994L0,58.099999999999994C0,58.099999999999994,0,58.099999999999994,0,58.099999999999994L0,41.9C0,41.9,0,41.9,0,41.9Z" fill="#4c78a8"/><path aria-label="mean execution time in µs: 167; algorithm: (chaowang15) convolve1D" role="graphics-symbol" aria-roledescription="bar" d="M0,281.9L163,281.9C165.207660097976,281.9,167,283.692339902024,167,285.9L167,294.09999999999997C167,296.30766009797594,165.207660097976,298.09999999999997,163,298.09999999999997L0,298.09999999999997C0,298.09999999999997,0,298.09999999999997,0,298.09999999999997L0,281.9C0,281.9,0,281.9,0,281.9Z" fill="#4c78a8"/></g><g class="mark-text role-mark child_layer_1_marks" role="graphics-object" aria-roledescription="text mark container"><text aria-label="mean execution time in µs: 154; algorithm: (JohT) kernelPerInputValue Transposed; MeanExecutionTime: 154" role="graphics-symbol" aria-roledescription="text mark" text-anchor="start" transform="translate(158,213)" font-family="sans-serif" font-size="9px" fill="black">154</text><text aria-label="mean execution time in µs: 42; algorithm: (JohT) inputPerKernelValue Transposed; MeanExecutionTime: 42" role="graphics-symbol" aria-roledescription="text mark" text-anchor="start" transform="translate(46,33)" font-family="sans-serif" font-size="9px" fill="black">42</text><text aria-label="mean execution time in µs: 97; algorithm: (JohT) inputPerKernelValue Transposed InnerLoopUnrolled; MeanExecutionTime: 97" role="graphics-symbol" aria-roledescription="text mark" text-anchor="start" transform="translate(101,173)" font-family="sans-serif" font-size="9px" fill="black">97</text><text aria-label="mean execution time in µs: 167; algorithm: (JohT) inputPerKernelValue Transposed OuterLoopUnrolled; MeanExecutionTime: 167" role="graphics-symbol" aria-roledescription="text mark" text-anchor="start" transform="translate(171,273)" font-family="sans-serif" font-size="9px" fill="black">167</text><text aria-label="mean execution time in µs: 95; algorithm: (JohT) inputPerKernelValue Transposed Inner&amp;OuterLoopUnrolled; MeanExecutionTime: 95" role="graphics-symbol" aria-roledescription="text mark" text-anchor="start" transform="translate(99,133)" font-family="sans-serif" font-size="9px" fill="black">95</text><text aria-label="mean execution time in µs: 61; algorithm: (JohT) inputPerKernelValue Transposed LoopFission; MeanExecutionTime: 61" role="graphics-symbol" aria-roledescription="text mark" text-anchor="start" transform="translate(65,93)" font-family="sans-serif" font-size="9px" fill="black">61</text><text aria-label="mean execution time in µs: 63; algorithm: (JohT) inputPerKernelValue Transposed LoopFissionIndexArithmetic; MeanExecutionTime: 63" role="graphics-symbol" aria-roledescription="text mark" text-anchor="start" transform="translate(67,113)" font-family="sans-serif" font-size="9px" fill="black">63</text><text aria-label="mean execution time in µs: 155; algorithm: (JohT) kernelPerInputValue Transposed LoopFission; MeanExecutionTime: 155" role="graphics-symbol" aria-roledescription="text mark" text-anchor="start" transform="translate(159,233)" font-family="sans-serif" font-size="9px" fill="black">155</text><text aria-label="mean execution time in µs: 168; algorithm: (matlab-like) conv 'full' shape; MeanExecutionTime: 168" role="graphics-symbol" aria-roledescription="text mark" text-anchor="start" transform="translate(172,313)" font-family="sans-serif" font-size="9px" fill="black">168</text><text aria-label="mean execution time in µs: 173; algorithm: (matlab-like) conv 'valid' shape pre padded; MeanExecutionTime: 173" role="graphics-symbol" aria-roledescription="text mark" text-anchor="start" transform="translate(177,333)" font-family="sans-serif" font-size="9px" fill="black">173</text><text aria-label="mean execution time in µs: 163; algorithm: (wilczek) Single; MeanExecutionTime: 163" role="graphics-symbol" aria-roledescription="text mark" text-anchor="start" transform="translate(167,253)" font-family="sans-serif" font-size="9px" fill="black">163</text><text aria-label="mean execution time in µs: 96; algorithm: (wilczek) Inner-Loop Vectorization; MeanExecutionTime: 96" role="graphics-symbol" aria-roledescription="text mark" text-anchor="start" transform="translate(100,153)" font-family="sans-serif" font-size="9px" fill="black">96</text><text aria-label="mean execution time in µs: 198; algorithm: (wilczek) Outer-Loop Vectorization; MeanExecutionTime: 198" role="graphics-symbol" aria-roledescription="text mark" text-anchor="start" transform="translate(202,353)" font-family="sans-serif" font-size="9px" fill="black">198</text><text aria-label="mean execution time in µs: 113; algorithm: (wilczek) Outer- and Inner-Loop Vectorization; MeanExecutionTime: 113" role="graphics-symbol" aria-roledescription="text mark" text-anchor="start" transform="translate(116.99999999999999,193)" font-family="sans-serif" font-size="9px" fill="black">113</text><text aria-label="mean execution time in µs: 50; algorithm: (wilczek) AVX NoAlign Inner-Loop Vectorization; MeanExecutionTime: 50" role="graphics-symbol" aria-roledescription="text mark" text-anchor="start" transform="translate(54,73)" font-family="sans-serif" font-size="9px" fill="black">50</text><text aria-label="mean execution time in µs: 25; algorithm: (wilczek) AVX NoAlign Outer-Loop Vectorization; MeanExecutionTime: 25" role="graphics-symbol" aria-roledescription="text mark" text-anchor="start" transform="translate(29,13)" font-family="sans-serif" font-size="9px" fill="black">25</text><text aria-label="mean execution time in µs: 42; algorithm: (wilczek) AVX NoAlign Outer- and Inner-Loop Vectorization; MeanExecutionTime: 42" role="graphics-symbol" aria-roledescription="text mark" text-anchor="start" transform="translate(46,53)" font-family="sans-serif" font-size="9px" fill="black">42</text><text aria-label="mean execution time in µs: 167; algorithm: (chaowang15) convolve1D; MeanExecutionTime: 167" role="graphics-symbol" aria-roledescription="text mark" text-anchor="start" transform="translate(171,293)" font-family="sans-serif" font-size="9px" fill="black">167</text></g></g><path class="foreground" aria-hidden="true" d="" display="none"/></g><g transform="translate(748,0)"><path class="background" aria-hidden="true" d="M0.5,0.5h200v360h-200Z" stroke="#ddd"/><g><g class="mark-group role-axis" aria-hidden="true"><g transform="translate(0.5,360.5)"><path class="background" aria-hidden="true" d="M0,0h0v0h0Z" pointer-events="none"/><g><g class="mark-rule role-axis-grid" pointer-events="none"><line transform="translate(0,0)" x2="0" y2="-360" stroke="#ddd" stroke-width="1" opacity="1"/><line transform="translate(50,0)" x2="0" y2="-360" stroke="#ddd" stroke-width="1" opacity="1"/><line transform="translate(100,0)" x2="0" y2="-360" stroke="#ddd" stroke-width="1" opacity="1"/><line transform="translate(150,0)" x2="0" y2="-360" stroke="#ddd" stroke-width="1" opacity="1"/><line transform="translate(200,0)" x2="0" y2="-360" stroke="#ddd" stroke-width="1" opacity="1"/></g></g><path class="foreground" aria-hidden="true" d="" pointer-events="none" display="none"/></g></g><g class="mark-group role-axis" role="graphics-symbol" aria-roledescription="axis" aria-label="X-axis titled 'mean execution time in µs' for a linear scale with values from 0 to 8,000"><g transform="translate(0.5,360.5)"><path class="background" aria-hidden="true" d="M0,0h0v0h0Z" pointer-events="none"/><g><g class="mark-rule role-axis-tick" pointer-events="none"><line transform="translate(0,0)" x2="0" y2="5" stroke="#888" stroke-width="1" opacity="1"/><line transform="translate(50,0)" x2="0" y2="5" stroke="#888" stroke-width="1" opacity="1"/><line transform="translate(100,0)" x2="0" y2="5" stroke="#888" stroke-width="1" opacity="1"/><line transform="translate(150,0)" x2="0" y2="5" stroke="#888" stroke-width="1" opacity="1"/><line transform="translate(200,0)" x2="0" y2="5" stroke="#888" stroke-width="1" opacity="1"/></g><g class="mark-text role-axis-label" pointer-events="none"><text text-anchor="start" transform="translate(0,15)" font-family="sans-serif" font-size="10px" fill="#000" opacity="1">0</text><text text-anchor="middle" transform="translate(50,15)" font-family="sans-serif" font-size="10px" fill="#000" opacity="0">2,000</text><text text-anchor="middle" transform="translate(100,15)" font-family="sans-serif" font-size="10px" fill="#000" opacity="1">4,000</text><text text-anchor="middle" transform="translate(150,15)" font-family="sans-serif" font-size="10px" fill="#000" opacity="0">6,000</text><text text-anchor="end" transform="translate(200,15)" font-family="sans-serif" font-size="10px" fill="#000" opacity="1">8,000</text></g><g class="mark-rule role-axis-domain" pointer-events="none"><line transform="translate(0,0)" x2="200" y2="0" stroke="#888" stroke-width="1" opacity="1"/></g><g class="mark-text role-axis-title" pointer-events="none"><text text-anchor="middle" transform="translate(100,30)" font-family="sans-serif" font-size="11px" font-weight="bold" fill="#000" opacity="1">mean execution time in µs</text></g></g><path class="foreground" aria-hidden="true" d="" pointer-events="none" display="none"/></g></g><g class="mark-group role-axis" role="graphics-symbol" aria-roledescription="axis" aria-label="Y-axis titled 'algorithm' for a discrete scale with 18 values: (wilczek) AVX NoAlign Outer- and Inner-Loop Vectorization, (wilczek) AVX NoAlign Inner-Loop Vectorization, (wilczek) AVX NoAlign Outer-Loop Vectorization, (JohT) kernelPerInputValue Transposed, (JohT) inputPerKernelValue Transposed, ending with (wilczek) Outer-Loop Vectorization"><g transform="translate(0.5,0.5)"><path class="background" aria-hidden="true" d="M0,0h0v0h0Z" pointer-events="none"/><g><g class="mark-rule role-axis-tick" pointer-events="none"><line transform="translate(0,10)" x2="-5" y2="0" stroke="#888" stroke-width="1" opacity="1"/><line transform="translate(0,30)" x2="-5" y2="0" stroke="#888" stroke-width="1" opacity="1"/><line transform="translate(0,50)" x2="-5" y2="0" stroke="#888" stroke-width="1" opacity="1"/><line transform="translate(0,70)" x2="-5" y2="0" stroke="#888" stroke-width="1" opacity="1"/><line transform="translate(0,90)" x2="-5" y2="0" stroke="#888" stroke-width="1" opacity="1"/><line transform="translate(0,110)" x2="-5" y2="0" stroke="#888" stroke-width="1" opacity="1"/><line transform="translate(0,130)" x2="-5" y2="0" stroke="#888" stroke-width="1" opacity="1"/><line transform="translate(0,150)" x2="-5" y2="0" stroke="#888" stroke-width="1" opacity="1"/><line transform="translate(0,170)" x2="-5" y2="0" stroke="#888" stroke-width="1" opacity="1"/><line transform="translate(0,190)" x2="-5" y2="0" stroke="#888" stroke-width="1" opacity="1"/><line transform="translate(0,210)" x2="-5" y2="0" stroke="#888" stroke-width="1" opacity="1"/><line transform="translate(0,230)" x2="-5" y2="0" stroke="#888" stroke-width="1" opacity="1"/><line transform="translate(0,250)" x2="-5" y2="0" stroke="#888" stroke-width="1" opacity="1"/><line transform="translate(0,270)" x2="-5" y2="0" stroke="#888" stroke-width="1" opacity="1"/><line transform="translate(0,290)" x2="-5" y2="0" stroke="#888" stroke-width="1" opacity="1"/><line transform="translate(0,310)" x2="-5" y2="0" stroke="#888" stroke-width="1" opacity="1"/><line transform="translate(0,330)" x2="-5" y2="0" stroke="#888" stroke-width="1" opacity="1"/><line transform="translate(0,350)" x2="-5" y2="0" stroke="#888" stroke-width="1" opacity="1"/></g><g class="mark-text role-axis-label" pointer-events="none"><text text-anchor="end" transform="translate(-7,12.5)" font-family="sans-serif" font-size="10px" fill="#000" opacity="1">(wilczek) AVX NoAlign Outer- and Inner-Loop Vectorization</text><text text-anchor="end" transform="translate(-7,32.5)" font-family="sans-serif" font-size="10px" fill="#000" opacity="1">(wilczek) AVX NoAlign Inner-Loop Vectorization</text><text text-anchor="end" transform="translate(-7,52.5)" font-family="sans-serif" font-size="10px" fill="#000" opacity="1">(wilczek) AVX NoAlign Outer-Loop Vectorization</text><text text-anchor="end" transform="translate(-7,72.5)" font-family="sans-serif" font-size="10px" fill="#000" opacity="1">(JohT) kernelPerInputValue Transposed</text><text text-anchor="end" transform="translate(-7,92.5)" font-family="sans-serif" font-size="10px" fill="#000" opacity="1">(JohT) inputPerKernelValue Transposed</text><text text-anchor="end" transform="translate(-7,112.5)" font-family="sans-serif" font-size="10px" fill="#000" opacity="1">(JohT) kernelPerInputValue Transposed LoopFission</text><text text-anchor="end" transform="translate(-7,132.5)" font-family="sans-serif" font-size="10px" fill="#000" opacity="1">(JohT) inputPerKernelValue Transposed LoopFissionIndexArithme…</text><text text-anchor="end" transform="translate(-7,152.5)" font-family="sans-serif" font-size="10px" fill="#000" opacity="1">(JohT) inputPerKernelValue Transposed LoopFission</text><text text-anchor="end" transform="translate(-7,172.5)" font-family="sans-serif" font-size="10px" fill="#000" opacity="1">(wilczek) Inner-Loop Vectorization</text><text text-anchor="end" transform="translate(-7,192.5)" font-family="sans-serif" font-size="10px" fill="#000" opacity="1">(JohT) inputPerKernelValue Transposed Inner&amp;OuterLoopUnrolled</text><text text-anchor="end" transform="translate(-7,212.5)" font-family="sans-serif" font-size="10px" fill="#000" opacity="1">(JohT) inputPerKernelValue Transposed InnerLoopUnrolled</text><text text-anchor="end" transform="translate(-7,232.5)" font-family="sans-serif" font-size="10px" fill="#000" opacity="1">(wilczek) Outer- and Inner-Loop Vectorization</text><text text-anchor="end" transform="translate(-7,252.5)" font-family="sans-serif" font-size="10px" fill="#000" opacity="1">(JohT) inputPerKernelValue Transposed OuterLoopUnrolled</text><text text-anchor="end" transform="translate(-7,272.5)" font-family="sans-serif" font-size="10px" fill="#000" opacity="1">(matlab-like) conv 'full' shape</text><text text-anchor="end" transform="translate(-7,292.5)" font-family="sans-serif" font-size="10px" fill="#000" opacity="1">(chaowang15) convolve1D</text><text text-anchor="end" transform="translate(-7,312.5)" font-family="sans-serif" font-size="10px" fill="#000" opacity="1">(wilczek) Single</text><text text-anchor="end" transform="translate(-7,332.5)" font-family="sans-serif" font-size="10px" fill="#000" opacity="1">(matlab-like) conv 'valid' shape pre padded</text><text text-anchor="end" transform="translate(-7,352.5)" font-family="sans-serif" font-size="10px" fill="#000" opacity="1">(wilczek) Outer-Loop Vectorization</text></g><g class="mark-rule role-axis-domain" pointer-events="none"><line transform="translate(0,0)" x2="0" y2="360" stroke="#888" stroke-width="1" opacity="1"/></g><g class="mark-text role-axis-title" pointer-events="none"><text text-anchor="middle" transform="translate(-320,180) rotate(-90) translate(0,-2)" font-family="sans-serif" font-size="11px" font-weight="bold" fill="#000" opacity="1">algorithm</text></g></g><path class="foreground" aria-hidden="true" d="" pointer-events="none" display="none"/></g></g><g class="mark-rect role-mark child_layer_0_marks" role="graphics-object" aria-roledescription="rect mark container"><path aria-label="mean execution time in µs: 1083; algorithm: (JohT) kernelPerInputValue Transposed" role="graphics-symbol" aria-roledescription="bar" d="M0,61.9L23.075,61.9C25.282660097976,61.9,27.075,63.692339902023996,27.075,65.9L27.075,74.1C27.075,76.307660097976,25.282660097976,78.1,23.075,78.1L0,78.1C0,78.1,0,78.1,0,78.1L0,61.9C0,61.9,0,61.9,0,61.9Z" fill="#4c78a8"/><path aria-label="mean execution time in µs: 1119; algorithm: (JohT) inputPerKernelValue Transposed" role="graphics-symbol" aria-roledescription="bar" d="M0,81.9L23.975,81.9C26.182660097976,81.9,27.975,83.692339902024,27.975,85.9L27.975,94.10000000000001C27.975,96.30766009797601,26.182660097976,98.10000000000001,23.975,98.10000000000001L0,98.10000000000001C0,98.10000000000001,0,98.10000000000001,0,98.10000000000001L0,81.9C0,81.9,0,81.9,0,81.9Z" fill="#4c78a8"/><path aria-label="mean execution time in µs: 3006; algorithm: (JohT) inputPerKernelValue Transposed InnerLoopUnrolled" role="graphics-symbol" aria-roledescription="bar" d="M0,201.9L71.14999999999999,201.9C73.357660097976,201.9,75.14999999999999,203.692339902024,75.14999999999999,205.9L75.14999999999999,214.1C75.14999999999999,216.307660097976,73.357660097976,218.1,71.14999999999999,218.1L0,218.1C0,218.1,0,218.1,0,218.1L0,201.9C0,201.9,0,201.9,0,201.9Z" fill="#4c78a8"/><path aria-label="mean execution time in µs: 5313; algorithm: (JohT) inputPerKernelValue Transposed OuterLoopUnrolled" role="graphics-symbol" aria-roledescription="bar" d="M0,241.9L128.825,241.9C131.032660097976,241.9,132.825,243.692339902024,132.825,245.9L132.825,254.10000000000002C132.825,256.307660097976,131.032660097976,258.1,128.825,258.1L0,258.1C0,258.1,0,258.1,0,258.1L0,241.9C0,241.9,0,241.9,0,241.9Z" fill="#4c78a8"/><path aria-label="mean execution time in µs: 3000; algorithm: (JohT) inputPerKernelValue Transposed Inner&amp;OuterLoopUnrolled" role="graphics-symbol" aria-roledescription="bar" d="M0,181.9L71,181.9C73.207660097976,181.9,75,183.692339902024,75,185.9L75,194.1C75,196.307660097976,73.207660097976,198.1,71,198.1L0,198.1C0,198.1,0,198.1,0,198.1L0,181.9C0,181.9,0,181.9,0,181.9Z" fill="#4c78a8"/><path aria-label="mean execution time in µs: 1785; algorithm: (JohT) inputPerKernelValue Transposed LoopFission" role="graphics-symbol" aria-roledescription="bar" d="M0,141.9L40.625,141.9C42.832660097976,141.9,44.625,143.692339902024,44.625,145.9L44.625,154.1C44.625,156.307660097976,42.832660097976,158.1,40.625,158.1L0,158.1C0,158.1,0,158.1,0,158.1L0,141.9C0,141.9,0,141.9,0,141.9Z" fill="#4c78a8"/><path aria-label="mean execution time in µs: 1781; algorithm: (JohT) inputPerKernelValue Transposed LoopFissionIndexArithmetic" role="graphics-symbol" aria-roledescription="bar" d="M0,121.9L40.525,121.9C42.732660097976,121.9,44.525,123.692339902024,44.525,125.9L44.525,134.1C44.525,136.307660097976,42.732660097976,138.1,40.525,138.1L0,138.1C0,138.1,0,138.1,0,138.1L0,121.9C0,121.9,0,121.9,0,121.9Z" fill="#4c78a8"/><path aria-label="mean execution time in µs: 1722; algorithm: (JohT) kernelPerInputValue Transposed LoopFission" role="graphics-symbol" aria-roledescription="bar" d="M0,101.9L39.05,101.9C41.257660097976,101.9,43.05,103.692339902024,43.05,105.9L43.05,114.10000000000001C43.05,116.30766009797601,41.257660097976,118.10000000000001,39.05,118.10000000000001L0,118.10000000000001C0,118.10000000000001,0,118.10000000000001,0,118.10000000000001L0,101.9C0,101.9,0,101.9,0,101.9Z" fill="#4c78a8"/><path aria-label="mean execution time in µs: 7610; algorithm: (matlab-like) conv 'full' shape" role="graphics-symbol" aria-roledescription="bar" d="M0,261.9L186.25,261.9C188.457660097976,261.9,190.25,263.692339902024,190.25,265.9L190.25,274.09999999999997C190.25,276.30766009797594,188.457660097976,278.09999999999997,186.25,278.09999999999997L0,278.09999999999997C0,278.09999999999997,0,278.09999999999997,0,278.09999999999997L0,261.9C0,261.9,0,261.9,0,261.9Z" fill="#4c78a8"/><path aria-label="mean execution time in µs: 7832; algorithm: (matlab-like) conv 'valid' shape pre padded" role="graphics-symbol" aria-roledescription="bar" d="M0,321.9L191.79999999999998,321.9C194.007660097976,321.9,195.79999999999998,323.692339902024,195.79999999999998,325.9L195.79999999999998,334.09999999999997C195.79999999999998,336.30766009797594,194.007660097976,338.09999999999997,191.79999999999998,338.09999999999997L0,338.09999999999997C0,338.09999999999997,0,338.09999999999997,0,338.09999999999997L0,321.9C0,321.9,0,321.9,0,321.9Z" fill="#4c78a8"/><path aria-label="mean execution time in µs: 7798; algorithm: (wilczek) Single" role="graphics-symbol" aria-roledescription="bar" d="M0,301.9L190.95,301.9C193.157660097976,301.9,194.95,303.692339902024,194.95,305.9L194.95,314.09999999999997C194.95,316.30766009797594,193.157660097976,318.09999999999997,190.95,318.09999999999997L0,318.09999999999997C0,318.09999999999997,0,318.09999999999997,0,318.09999999999997L0,301.9C0,301.9,0,301.9,0,301.9Z" fill="#4c78a8"/><path aria-label="mean execution time in µs: 2797; algorithm: (wilczek) Inner-Loop Vectorization" role="graphics-symbol" aria-roledescription="bar" d="M0,161.9L65.925,161.9C68.132660097976,161.9,69.925,163.692339902024,69.925,165.9L69.925,174.1C69.925,176.307660097976,68.132660097976,178.1,65.925,178.1L0,178.1C0,178.1,0,178.1,0,178.1L0,161.9C0,161.9,0,161.9,0,161.9Z" fill="#4c78a8"/><path aria-label="mean execution time in µs: 7989; algorithm: (wilczek) Outer-Loop Vectorization" role="graphics-symbol" aria-roledescription="bar" d="M0,341.9L195.725,341.9C197.932660097976,341.9,199.725,343.692339902024,199.725,345.9L199.725,354.09999999999997C199.725,356.30766009797594,197.932660097976,358.09999999999997,195.725,358.09999999999997L0,358.09999999999997C0,358.09999999999997,0,358.09999999999997,0,358.09999999999997L0,341.9C0,341.9,0,341.9,0,341.9Z" fill="#4c78a8"/><path aria-label="mean execution time in µs: 3340; algorithm: (wilczek) Outer- and Inner-Loop Vectorization" role="graphics-symbol" aria-roledescription="bar" d="M0,221.9L79.5,221.9C81.707660097976,221.9,83.5,223.692339902024,83.5,225.9L83.5,234.1C83.5,236.307660097976,81.707660097976,238.1,79.5,238.1L0,238.1C0,238.1,0,238.1,0,238.1L0,221.9C0,221.9,0,221.9,0,221.9Z" fill="#4c78a8"/><path aria-label="mean execution time in µs: 932; algorithm: (wilczek) AVX NoAlign Inner-Loop Vectorization" role="graphics-symbol" aria-roledescription="bar" d="M0,21.9L19.3,21.9C21.507660097976,21.9,23.3,23.692339902024,23.3,25.9L23.3,34.099999999999994C23.3,36.307660097976,21.507660097976,38.099999999999994,19.3,38.099999999999994L0,38.099999999999994C0,38.099999999999994,0,38.099999999999994,0,38.099999999999994L0,21.9C0,21.9,0,21.9,0,21.9Z" fill="#4c78a8"/><path aria-label="mean execution time in µs: 983; algorithm: (wilczek) AVX NoAlign Outer-Loop Vectorization" role="graphics-symbol" aria-roledescription="bar" d="M0,41.9L20.575,41.9C22.782660097976,41.9,24.575,43.692339902023996,24.575,45.9L24.575,54.099999999999994C24.575,56.307660097976,22.782660097976,58.099999999999994,20.575,58.099999999999994L0,58.099999999999994C0,58.099999999999994,0,58.099999999999994,0,58.099999999999994L0,41.9C0,41.9,0,41.9,0,41.9Z" fill="#4c78a8"/><path aria-label="mean execution time in µs: 549; algorithm: (wilczek) AVX NoAlign Outer- and Inner-Loop Vectorization" role="graphics-symbol" aria-roledescription="bar" d="M0,1.9L9.725000000000001,1.9C11.932660097976001,1.9,13.725000000000001,3.692339902024,13.725000000000001,5.9L13.725000000000001,14.099999999999998C13.725000000000001,16.307660097975997,11.932660097976001,18.099999999999998,9.725000000000001,18.099999999999998L0,18.099999999999998C0,18.099999999999998,0,18.099999999999998,0,18.099999999999998L0,1.9C0,1.9,0,1.9,0,1.9Z" fill="#4c78a8"/><path aria-label="mean execution time in µs: 7698; algorithm: (chaowang15) convolve1D" role="graphics-symbol" aria-roledescription="bar" d="M0,281.9L188.45000000000002,281.9C190.65766009797602,281.9,192.45000000000002,283.692339902024,192.45000000000002,285.9L192.45000000000002,294.09999999999997C192.45000000000002,296.30766009797594,190.65766009797602,298.09999999999997,188.45000000000002,298.09999999999997L0,298.09999999999997C0,298.09999999999997,0,298.09999999999997,0,298.09999999999997L0,281.9C0,281.9,0,281.9,0,281.9Z" fill="#4c78a8"/></g><g class="mark-text role-mark child_layer_1_marks" role="graphics-object" aria-roledescription="text mark container"><text aria-label="mean execution time in µs: 1083; algorithm: (JohT) kernelPerInputValue Transposed; MeanExecutionTime: 1083" role="graphics-symbol" aria-roledescription="text mark" text-anchor="start" transform="translate(31.075,73)" font-family="sans-serif" font-size="9px" fill="black">1083</text><text aria-label="mean execution time in µs: 1119; algorithm: (JohT) inputPerKernelValue Transposed; MeanExecutionTime: 1119" role="graphics-symbol" aria-roledescription="text mark" text-anchor="start" transform="translate(31.975,93)" font-family="sans-serif" font-size="9px" fill="black">1119</text><text aria-label="mean execution time in µs: 3006; algorithm: (JohT) inputPerKernelValue Transposed InnerLoopUnrolled; MeanExecutionTime: 3006" role="graphics-symbol" aria-roledescription="text mark" text-anchor="start" transform="translate(79.14999999999999,213)" font-family="sans-serif" font-size="9px" fill="black">3006</text><text aria-label="mean execution time in µs: 5313; algorithm: (JohT) inputPerKernelValue Transposed OuterLoopUnrolled; MeanExecutionTime: 5313" role="graphics-symbol" aria-roledescription="text mark" text-anchor="start" transform="translate(136.825,253)" font-family="sans-serif" font-size="9px" fill="black">5313</text><text aria-label="mean execution time in µs: 3000; algorithm: (JohT) inputPerKernelValue Transposed Inner&amp;OuterLoopUnrolled; MeanExecutionTime: 3000" role="graphics-symbol" aria-roledescription="text mark" text-anchor="start" transform="translate(79,193)" font-family="sans-serif" font-size="9px" fill="black">3000</text><text aria-label="mean execution time in µs: 1785; algorithm: (JohT) inputPerKernelValue Transposed LoopFission; MeanExecutionTime: 1785" role="graphics-symbol" aria-roledescription="text mark" text-anchor="start" transform="translate(48.625,153)" font-family="sans-serif" font-size="9px" fill="black">1785</text><text aria-label="mean execution time in µs: 1781; algorithm: (JohT) inputPerKernelValue Transposed LoopFissionIndexArithmetic; MeanExecutionTime: 1781" role="graphics-symbol" aria-roledescription="text mark" text-anchor="start" transform="translate(48.525,133)" font-family="sans-serif" font-size="9px" fill="black">1781</text><text aria-label="mean execution time in µs: 1722; algorithm: (JohT) kernelPerInputValue Transposed LoopFission; MeanExecutionTime: 1722" role="graphics-symbol" aria-roledescription="text mark" text-anchor="start" transform="translate(47.05,113)" font-family="sans-serif" font-size="9px" fill="black">1722</text><text aria-label="mean execution time in µs: 7610; algorithm: (matlab-like) conv 'full' shape; MeanExecutionTime: 7610" role="graphics-symbol" aria-roledescription="text mark" text-anchor="start" transform="translate(194.25,273)" font-family="sans-serif" font-size="9px" fill="black">7610</text><text aria-label="mean execution time in µs: 7832; algorithm: (matlab-like) conv 'valid' shape pre padded; MeanExecutionTime: 7832" role="graphics-symbol" aria-roledescription="text mark" text-anchor="start" transform="translate(199.79999999999998,333)" font-family="sans-serif" font-size="9px" fill="black">7832</text><text aria-label="mean execution time in µs: 7798; algorithm: (wilczek) Single; MeanExecutionTime: 7798" role="graphics-symbol" aria-roledescription="text mark" text-anchor="start" transform="translate(198.95,313)" font-family="sans-serif" font-size="9px" fill="black">7798</text><text aria-label="mean execution time in µs: 2797; algorithm: (wilczek) Inner-Loop Vectorization; MeanExecutionTime: 2797" role="graphics-symbol" aria-roledescription="text mark" text-anchor="start" transform="translate(73.925,173)" font-family="sans-serif" font-size="9px" fill="black">2797</text><text aria-label="mean execution time in µs: 7989; algorithm: (wilczek) Outer-Loop Vectorization; MeanExecutionTime: 7989" role="graphics-symbol" aria-roledescription="text mark" text-anchor="start" transform="translate(203.725,353)" font-family="sans-serif" font-size="9px" fill="black">7989</text><text aria-label="mean execution time in µs: 3340; algorithm: (wilczek) Outer- and Inner-Loop Vectorization; MeanExecutionTime: 3340" role="graphics-symbol" aria-roledescription="text mark" text-anchor="start" transform="translate(87.5,233)" font-family="sans-serif" font-size="9px" fill="black">3340</text><text aria-label="mean execution time in µs: 932; algorithm: (wilczek) AVX NoAlign Inner-Loop Vectorization; MeanExecutionTime: 932" role="graphics-symbol" aria-roledescription="text mark" text-anchor="start" transform="translate(27.3,33)" font-family="sans-serif" font-size="9px" fill="black">932</text><text aria-label="mean execution time in µs: 983; algorithm: (wilczek) AVX NoAlign Outer-Loop Vectorization; MeanExecutionTime: 983" role="graphics-symbol" aria-roledescription="text mark" text-anchor="start" transform="translate(28.575,53)" font-family="sans-serif" font-size="9px" fill="black">983</text><text aria-label="mean execution time in µs: 549; algorithm: (wilczek) AVX NoAlign Outer- and Inner-Loop Vectorization; MeanExecutionTime: 549" role="graphics-symbol" aria-roledescription="text mark" text-anchor="start" transform="translate(17.725,13)" font-family="sans-serif" font-size="9px" fill="black">549</text><text aria-label="mean execution time in µs: 7698; algorithm: (chaowang15) convolve1D; MeanExecutionTime: 7698" role="graphics-symbol" aria-roledescription="text mark" text-anchor="start" transform="translate(196.45000000000002,293)" font-family="sans-serif" font-size="9px" fill="black">7698</text></g></g><path class="foreground" aria-hidden="true" d="" display="none"/></g></g></g><path class="foreground" aria-hidden="true" d="" display="none"/></g></g></g></svg>