<svg xmlns="http://www.w3.org/2000/svg" xmlns:xlink="http://www.w3.org/1999/xlink" version="1.1" class="marks" width="1475" height="464" viewBox="0 0 1475 464"><rect width="1475" height="464" fill="white"/><g fill="none" stroke-miterlimit="10" transform="translate(509,66)"><g class="mark-group role-frame root" role="graphics-object" aria-roledescription="group mark container"><g transform="translate(0,0)"><path class="background" aria-hidden="true" d="M0,0h0v0h0Z"/><g><g class="mark-group role-column-title column-title" role="graphics-object" aria-roledescription="group mark container"><g transform="translate(228,-35)"><path class="background" aria-hidden="true" d="M0,0h0v0h0Z"/><g><g class="mark-group role-title"><g transform="translate(0,-26)"><path class="background" aria-hidden="true" d="M0,0h0v0h0Z" pointer-events="none"/><g><g class="mark-text role-title-text" role="graphics-symbol" aria-roledescription="title" aria-label="Title text 'Convolution Benchmarks'" pointer-events="none"><text text-anchor="middle" transform="translate(0,13)" font-family="sans-serif" font-size="16px" font-weight="bold" fill="#000" opacity="1">Convolution Benchmarks</text></g></g><path class="foreground" aria-hidden="true" d="" pointer-events="none" display="none"/></g></g></g><path class="foreground" aria-hidden="true" d="" display="none"/></g></g><g class="mark-group role-column-header column_header" role="graphics-object" aria-roledescription="group mark container"><g transform="translate(0,-1)"><path class="background" aria-hidden="true" d="M0,0h200v0h-200Z"/><g><g class="mark-group role-title"><g transform="translate(100,-24)"><path class="background" aria-hidden="true" d="M0,0h0v0h0Z" pointer-events="none"/><g><g class="mark-text role-title-text" role="graphics-symbol" aria-roledescription="title" aria-label="Title text 'kernel size 16'" pointer-events="none"><text text-anchor="middle" transform="translate(0,11)" font-family="sans-serif" font-size="14px" fill="#000" opacity="1">kernel size 16</text></g></g><path class="foreground" aria-hidden="true" d="" pointer-events="none" display="none"/></g></g></g><path class="foreground" aria-hidden="true" d="" display="none"/></g><g transform="translate(748,-1)"><path class="background" aria-hidden="true" d="M0,0h200v0h-200Z"/><g><g class="mark-group role-title"><g transform="translate(100,-24)"><path class="background" aria-hidden="true" d="M0,0h0v0h0Z" pointer-events="none"/><g><g class="mark-text role-title-text" role="graphics-symbol" aria-roledescription="title" aria-label="Title text 'kernel size 512'" pointer-events="none"><text text-anchor="middle" transform="translate(0,11)" font-family="sans-serif" font-size="14px" fill="#000" opacity="1">kernel size 512</text></g></g><path class="foreground" aria-hidden="true" d="" pointer-events="none" display="none"/></g></g></g><path class="foreground" aria-hidden="true" d="" display="none"/></g></g><g class="mark-group role-scope cell" role="graphics-object" aria-roledescription="group mark container"><g transform="translate(0,0)"><path class="background" aria-hidden="true" d="M0.5,0.5h200v360h-200Z" stroke="#ddd"/><g><g class="mark-group role-axis" aria-hidden="true"><g transform="translate(0.5,360.5)"><path class="background" aria-hidden="true" d="M0,0h0v0h0Z" pointer-events="none"/><g><g class="mark-rule role-axis-grid" pointer-events="none"><line transform="translate(0,0)" x2="0" y2="-360" stroke="#ddd" stroke-width="1" opacity="1"/><line transform="translate(50,0)" x2="0" y2="-360" stroke="#ddd" stroke-width="1" opacity="1"/><line transform="translate(100,0)" x2="0" y2="-360" stroke="#ddd" stroke-width="1" opacity="1"/><line transform="translate(150,0)" x2="0" y2="-360" stroke="#ddd" stroke-width="1" opacity="1"/><line transform="translate(200,0)" x2="0" y2="-360" stroke="#ddd" stroke-width="1" opacity="1"/></g></g><path class="foreground" aria-hidden="true" d="" pointer-events="none" display="none"/></g></g><g class="mark-group role-axis" role="graphics-symbol" aria-roledescription="axis" aria-label="X-axis titled 'mean execution time in µs' for a linear scale with values from 0 to 200"><g transform="translate(0.5,360.5)"><path class="background" aria-hidden="true" d="M0,0h0v0h0Z" pointer-events="none"/><g><g class="mark-rule role-axis-tick" pointer-events="none"><line transform="translate(0,0)" x2="0" y2="5" stroke="#888" stroke-width="1" opacity="1"/><line transform="translate(50,0)" x2="0" y2="5" stroke="#888" stroke-width="1" opacity="1"/><line transform="translate(100,0)" x2="0" y2="5" stroke="#888" stroke-width="1" opacity="1"/><line transform="translate(150,0)" x2="0" y2="5" stroke="#888" stroke-width="1" opacity="1"/><line transform="translate(200,0)" x2="0" y2="5" stroke="#888" stroke-width="1" opacity="1"/></g><g class="mark-text role-axis-label" pointer-events="none"><text text-anchor="start" transform="translate(0,15)" font-family="sans-serif" font-size="10px" fill="#000" opacity="1">0</text><text text-anchor="middle" transform="translate(50,15)" font-family="sans-serif" font-size="10px" fill="#000" opacity="1">50</text><text text-anchor="middle" transform="translate(100,15)" font-family="sans-serif" font-size="10px" fill="#000" opacity="1">100</text><text text-anchor="middle" transform="translate(150,15)" font-family="sans-serif" font-size="10px" fill="#000" opacity="1">150</text><text text-anchor="end" transform="translate(200,15)" font-family="sans-serif" font-size="10px" fill="#000" opacity="1">200</text></g><g class="mark-rule role-axis-domain" pointer-events="none"><line transform="translate(0,0)" x2="200" y2="0" stroke="#888" stroke-width="1" opacity="1"/></g><g class="mark-text role-axis-title" pointer-events="none"><text text-anchor="middle" transform="translate(100,30)" font-family="sans-serif" font-size="11px" font-weight="bold" fill="#000" opacity="1">mean execution time in µs</text></g></g><path class="foreground" aria-hidden="true" d="" pointer-events="none" display="none"/></g></g><g class="mark-group role-axis" role="graphics-symbol" aria-roledescription="axis" aria-label="Y-axis titled 'algorithm' for a discrete scale with 18 values: (wilczek) AVX NoAlign Outer-Loop Vectorization, (JohT) inputPerKernelValue Transposed, (wilczek) AVX NoAlign Outer- and Inner-Loop Vectorization, (wilczek) AVX NoAlign Inner-Loop Vectorization, (JohT) inputPerKernelValue Transposed LoopFissionIndexArithmetic, ending with (wilczek) Outer-Loop Vectorization"><g transform="translate(0.5,0.5)"><path class="background" aria-hidden="true" d="M0,0h0v0h0Z" pointer-events="none"/><g><g class="mark-rule role-axis-tick" pointer-events="none"><line transform="translate(0,10)" x2="-5" y2="0" stroke="#888" stroke-width="1" opacity="1"/><line transform="translate(0,30)" x2="-5" y2="0" stroke="#888" stroke-width="1" opacity="1"/><line transform="translate(0,50)" x2="-5" y2="0" stroke="#888" stroke-width="1" opacity="1"/><line transform="translate(0,70)" x2="-5" y2="0" stroke="#888" stroke-width="1" opacity="1"/><line transform="translate(0,90)" x2="-5" y2="0" stroke="#888" stroke-width="1" opacity="1"/><line transform="translate(0,110)" x2="-5" y2="0" stroke="#888" stroke-width="1" opacity="1"/><line transform="translate(0,130)" x2="-5" y2="0" stroke="#888" stroke-width="1" opacity="1"/><line transform="translate(0,150)" x2="-5" y2="0" stroke="#888" stroke-width="1" opacity="1"/><line transform="translate(0,170)" x2="-5" y2="0" stroke="#888" stroke-width="1" opacity="1"/><line transform="translate(0,190)" x2="-5" y2="0" stroke="#888" stroke-width="1" opacity="1"/><line transform="translate(0,210)" x2="-5" y2="0" stroke="#888" stroke-width="1" opacity="1"/><line transform="translate(0,230)" x2="-5" y2="0" stroke="#888" stroke-width="1" opacity="1"/><line transform="translate(0,250)" x2="-5" y2="0" stroke="#888" stroke-width="1" opacity="1"/><line transform="translate(0,270)" x2="-5" y2="0" stroke="#888" stroke-width="1" opacity="1"/><line transform="translate(0,290)" x2="-5" y2="0" stroke="#888" stroke-width="1" opacity="1"/><line transform="translate(0,310)" x2="-5" y2="0" stroke="#888" stroke-width="1" opacity="1"/><line transform="translate(0,330)" x2="-5" y2="0" stroke="#888" stroke-width="1" opacity="1"/><line transform="translate(0,350)" x2="-5" y2="0" stroke="#888" stroke-width="1" opacity="1"/></g><g class="mark-text role-axis-label" pointer-events="none"><text text-anchor="end" transform="translate(-7,12.5)" font-family="sans-serif" font-size="10px" fill="#000" opacity="1">(wilczek) AVX NoAlign Outer-Loop Vectorization</text><text text-anchor="end" transform="translate(-7,32.5)" font-family="sans-serif" font-size="10px" fill="#000" opacity="1">(JohT) inputPerKernelValue Transposed</text><text text-anchor="end" transform="translate(-7,52.5)" font-family="sans-serif" font-size="10px" fill="#000" opacity="1">(wilczek) AVX NoAlign Outer- and Inner-Loop Vectorization</text><text text-anchor="end" transform="translate(-7,72.5)" font-family="sans-serif" font-size="10px" fill="#000" opacity="1">(wilczek) AVX NoAlign Inner-Loop Vectorization</text><text text-anchor="end" transform="translate(-7,92.5)" font-family="sans-serif" font-size="10px" fill="#000" opacity="1">(JohT) inputPerKernelValue Transposed LoopFissionIndexArithme…</text><text text-anchor="end" transform="translate(-7,112.5)" font-family="sans-serif" font-size="10px" fill="#000" opacity="1">(JohT) inputPerKernelValue Transposed LoopFission</text><text text-anchor="end" transform="translate(-7,132.5)" font-family="sans-serif" font-size="10px" fill="#000" opacity="1">(JohT) inputPerKernelValue Transposed Inner&amp;OuterLoopUnrolled</text><text text-anchor="end" transform="translate(-7,152.5)" font-family="sans-serif" font-size="10px" fill="#000" opacity="1">(JohT) inputPerKernelValue Transposed InnerLoopUnrolled</text><text text-anchor="end" transform="translate(-7,172.5)" font-family="sans-serif" font-size="10px" fill="#000" opacity="1">(wilczek) Inner-Loop Vectorization</text><text text-anchor="end" transform="translate(-7,192.5)" font-family="sans-serif" font-size="10px" fill="#000" opacity="1">(wilczek) Outer- and Inner-Loop Vectorization</text><text text-anchor="end" transform="translate(-7,212.5)" font-family="sans-serif" font-size="10px" fill="#000" opacity="1">(JohT) kernelPerInputValue Transposed</text><text text-anchor="end" transform="translate(-7,232.5)" font-family="sans-serif" font-size="10px" fill="#000" opacity="1">(JohT) kernelPerInputValue Transposed LoopFission</text><text text-anchor="end" transform="translate(-7,252.5)" font-family="sans-serif" font-size="10px" fill="#000" opacity="1">(wilczek) Single</text><text text-anchor="end" transform="translate(-7,272.5)" font-family="sans-serif" font-size="10px" fill="#000" opacity="1">(chaowang15) convolve1D</text><text text-anchor="end" transform="translate(-7,292.5)" font-family="sans-serif" font-size="10px" fill="#000" opacity="1">(JohT) inputPerKernelValue Transposed OuterLoopUnrolled</text><text text-anchor="end" transform="translate(-7,312.5)" font-family="sans-serif" font-size="10px" fill="#000" opacity="1">(matlab-like) conv 'full' shape</text><text text-anchor="end" transform="translate(-7,332.5)" font-family="sans-serif" font-size="10px" fill="#000" opacity="1">(matlab-like) conv 'valid' shape pre padded</text><text text-anchor="end" transform="translate(-7,352.5)" font-family="sans-serif" font-size="10px" fill="#000" opacity="1">(wilczek) Outer-Loop Vectorization</text></g><g class="mark-rule role-axis-domain" pointer-events="none"><line transform="translate(0,0)" x2="0" y2="360" stroke="#888" stroke-width="1" opacity="1"/></g><g class="mark-text role-axis-title" pointer-events="none"><text text-anchor="middle" transform="translate(-320,180) rotate(-90) translate(0,-2)" font-family="sans-serif" font-size="11px" font-weight="bold" fill="#000" opacity="1">algorithm</text></g></g><path class="foreground" aria-hidden="true" d="" pointer-events="none" display="none"/></g></g><g class="mark-rect role-mark child_layer_0_marks" role="graphics-object" aria-roledescription="rect mark container"><path aria-label="mean execution time in µs: 154; algorithm: (JohT) kernelPerInputValue Transposed" role="graphics-symbol" aria-roledescription="bar" d="M0,201.9L150,201.9C152.207660097976,201.9,154,203.692339902024,154,205.9L154,214.1C154,216.307660097976,152.207660097976,218.1,150,218.1L0,218.1C0,218.1,0,218.1,0,218.1L0,201.9C0,201.9,0,201.9,0,201.9Z" fill="#4c78a8"/><path aria-label="mean execution time in µs: 37; algorithm: (JohT) inputPerKernelValue Transposed" role="graphics-symbol" aria-roledescription="bar" d="M0,21.9L33,21.9C35.207660097976,21.9,37,23.692339902024,37,25.9L37,34.099999999999994C37,36.307660097976,35.207660097976,38.099999999999994,33,38.099999999999994L0,38.099999999999994C0,38.099999999999994,0,38.099999999999994,0,38.099999999999994L0,21.9C0,21.9,0,21.9,0,21.9Z" fill="#4c78a8"/><path aria-label="mean execution time in µs: 95; algorithm: (JohT) inputPerKernelValue Transposed InnerLoopUnrolled" role="graphics-symbol" aria-roledescription="bar" d="M0,141.9L91,141.9C93.207660097976,141.9,95,143.692339902024,95,145.9L95,154.1C95,156.307660097976,93.207660097976,158.1,91,158.1L0,158.1C0,158.1,0,158.1,0,158.1L0,141.9C0,141.9,0,141.9,0,141.9Z" fill="#4c78a8"/><path aria-label="mean execution time in µs: 167; algorithm: (JohT) inputPerKernelValue Transposed OuterLoopUnrolled" role="graphics-symbol" aria-roledescription="bar" d="M0,281.9L163,281.9C165.207660097976,281.9,167,283.692339902024,167,285.9L167,294.09999999999997C167,296.30766009797594,165.207660097976,298.09999999999997,163,298.09999999999997L0,298.09999999999997C0,298.09999999999997,0,298.09999999999997,0,298.09999999999997L0,281.9C0,281.9,0,281.9,0,281.9Z" fill="#4c78a8"/><path aria-label="mean execution time in µs: 93; algorithm: (JohT) inputPerKernelValue Transposed Inner&amp;OuterLoopUnrolled" role="graphics-symbol" aria-roledescription="bar" d="M0,121.9L89,121.9C91.207660097976,121.9,93,123.692339902024,93,125.9L93,134.1C93,136.307660097976,91.207660097976,138.1,89,138.1L0,138.1C0,138.1,0,138.1,0,138.1L0,121.9C0,121.9,0,121.9,0,121.9Z" fill="#4c78a8"/><path aria-label="mean execution time in µs: 61; algorithm: (JohT) inputPerKernelValue Transposed LoopFission" role="graphics-symbol" aria-roledescription="bar" d="M0,101.9L57,101.9C59.207660097976,101.9,61,103.692339902024,61,105.9L61,114.10000000000001C61,116.30766009797601,59.207660097976,118.10000000000001,57,118.10000000000001L0,118.10000000000001C0,118.10000000000001,0,118.10000000000001,0,118.10000000000001L0,101.9C0,101.9,0,101.9,0,101.9Z" fill="#4c78a8"/><path aria-label="mean execution time in µs: 60; algorithm: (JohT) inputPerKernelValue Transposed LoopFissionIndexArithmetic" role="graphics-symbol" aria-roledescription="bar" d="M0,81.9L56,81.9C58.207660097976,81.9,60,83.692339902024,60,85.9L60,94.10000000000001C60,96.30766009797601,58.207660097976,98.10000000000001,56,98.10000000000001L0,98.10000000000001C0,98.10000000000001,0,98.10000000000001,0,98.10000000000001L0,81.9C0,81.9,0,81.9,0,81.9Z" fill="#4c78a8"/><path aria-label="mean execution time in µs: 155; algorithm: (JohT) kernelPerInputValue Transposed LoopFission" role="graphics-symbol" aria-roledescription="bar" d="M0,221.9L151,221.9C153.207660097976,221.9,155,223.692339902024,155,225.9L155,234.1C155,236.307660097976,153.207660097976,238.1,151,238.1L0,238.1C0,238.1,0,238.1,0,238.1L0,221.9C0,221.9,0,221.9,0,221.9Z" fill="#4c78a8"/><path aria-label="mean execution time in µs: 168; algorithm: (matlab-like) conv 'full' shape" role="graphics-symbol" aria-roledescription="bar" d="M0,301.9L164,301.9C166.207660097976,301.9,168,303.692339902024,168,305.9L168,314.09999999999997C168,316.30766009797594,166.207660097976,318.09999999999997,164,318.09999999999997L0,318.09999999999997C0,318.09999999999997,0,318.09999999999997,0,318.09999999999997L0,301.9C0,301.9,0,301.9,0,301.9Z" fill="#4c78a8"/><path aria-label="mean execution time in µs: 173; algorithm: (matlab-like) conv 'valid' shape pre padded" role="graphics-symbol" aria-roledescription="bar" d="M0,321.9L169,321.9C171.207660097976,321.9,173,323.692339902024,173,325.9L173,334.09999999999997C173,336.30766009797594,171.207660097976,338.09999999999997,169,338.09999999999997L0,338.09999999999997C0,338.09999999999997,0,338.09999999999997,0,338.09999999999997L0,321.9C0,321.9,0,321.9,0,321.9Z" fill="#4c78a8"/><path aria-label="mean execution time in µs: 162; algorithm: (wilczek) Single" role="graphics-symbol" aria-roledescription="bar" d="M0,241.9L158,241.9C160.207660097976,241.9,162,243.692339902024,162,245.9L162,254.10000000000002C162,256.307660097976,160.207660097976,258.1,158,258.1L0,258.1C0,258.1,0,258.1,0,258.1L0,241.9C0,241.9,0,241.9,0,241.9Z" fill="#4c78a8"/><path aria-label="mean execution time in µs: 96; algorithm: (wilczek) Inner-Loop Vectorization" role="graphics-symbol" aria-roledescription="bar" d="M0,161.9L92,161.9C94.207660097976,161.9,96,163.692339902024,96,165.9L96,174.1C96,176.307660097976,94.207660097976,178.1,92,178.1L0,178.1C0,178.1,0,178.1,0,178.1L0,161.9C0,161.9,0,161.9,0,161.9Z" fill="#4c78a8"/><path aria-label="mean execution time in µs: 198; algorithm: (wilczek) Outer-Loop Vectorization" role="graphics-symbol" aria-roledescription="bar" d="M0,341.9L194,341.9C196.207660097976,341.9,198,343.692339902024,198,345.9L198,354.09999999999997C198,356.30766009797594,196.207660097976,358.09999999999997,194,358.09999999999997L0,358.09999999999997C0,358.09999999999997,0,358.09999999999997,0,358.09999999999997L0,341.9C0,341.9,0,341.9,0,341.9Z" fill="#4c78a8"/><path aria-label="mean execution time in µs: 112; algorithm: (wilczek) Outer- and Inner-Loop Vectorization" role="graphics-symbol" aria-roledescription="bar" d="M0,181.9L108.00000000000001,181.9C110.20766009797602,181.9,112.00000000000001,183.692339902024,112.00000000000001,185.9L112.00000000000001,194.1C112.00000000000001,196.307660097976,110.20766009797602,198.1,108.00000000000001,198.1L0,198.1C0,198.1,0,198.1,0,198.1L0,181.9C0,181.9,0,181.9,0,181.9Z" fill="#4c78a8"/><path aria-label="mean execution time in µs: 50; algorithm: (wilczek) AVX NoAlign Inner-Loop Vectorization" role="graphics-symbol" aria-roledescription="bar" d="M0,61.9L46,61.9C48.207660097976,61.9,50,63.692339902023996,50,65.9L50,74.1C50,76.307660097976,48.207660097976,78.1,46,78.1L0,78.1C0,78.1,0,78.1,0,78.1L0,61.9C0,61.9,0,61.9,0,61.9Z" fill="#4c78a8"/><path aria-label="mean execution time in µs: 24; algorithm: (wilczek) AVX NoAlign Outer-Loop Vectorization" role="graphics-symbol" aria-roledescription="bar" d="M0,1.9L20,1.9C22.207660097976,1.9,24,3.692339902024,24,5.9L24,14.099999999999998C24,16.307660097975997,22.207660097976,18.099999999999998,20,18.099999999999998L0,18.099999999999998C0,18.099999999999998,0,18.099999999999998,0,18.099999999999998L0,1.9C0,1.9,0,1.9,0,1.9Z" fill="#4c78a8"/><path aria-label="mean execution time in µs: 41; algorithm: (wilczek) AVX NoAlign Outer- and Inner-Loop Vectorization" role="graphics-symbol" aria-roledescription="bar" d="M0,41.9L37,41.9C39.207660097976,41.9,41,43.692339902023996,41,45.9L41,54.099999999999994C41,56.307660097976,39.207660097976,58.099999999999994,37,58.099999999999994L0,58.099999999999994C0,58.099999999999994,0,58.099999999999994,0,58.099999999999994L0,41.9C0,41.9,0,41.9,0,41.9Z" fill="#4c78a8"/><path aria-label="mean execution time in µs: 166; algorithm: (chaowang15) convolve1D" role="graphics-symbol" aria-roledescription="bar" d="M0,261.9L162,261.9C164.207660097976,261.9,166,263.692339902024,166,265.9L166,274.09999999999997C166,276.30766009797594,164.207660097976,278.09999999999997,162,278.09999999999997L0,278.09999999999997C0,278.09999999999997,0,278.09999999999997,0,278.09999999999997L0,261.9C0,261.9,0,261.9,0,261.9Z" fill="#4c78a8"/></g><g class="mark-text role-mark child_layer_1_marks" role="graphics-object" aria-roledescription="text mark container"><text aria-label="mean execution time in µs: 154; algorithm: (JohT) kernelPerInputValue Transposed; MeanExecutionTime: 154" role="graphics-symbol" aria-roledescription="text mark" text-anchor="start" transform="translate(158,213)" font-family="sans-serif" font-size="9px" fill="black">154</text><text aria-label="mean execution time in µs: 37; algorithm: (JohT) inputPerKernelValue Transposed; MeanExecutionTime: 37" role="graphics-symbol" aria-roledescription="text mark" text-anchor="start" transform="translate(41,33)" font-family="sans-serif" font-size="9px" fill="black">37</text><text aria-label="mean execution time in µs: 95; algorithm: (JohT) inputPerKernelValue Transposed InnerLoopUnrolled; MeanExecutionTime: 95" role="graphics-symbol" aria-roledescription="text mark" text-anchor="start" transform="translate(99,153)" font-family="sans-serif" font-size="9px" fill="black">95</text><text aria-label="mean execution time in µs: 167; algorithm: (JohT) inputPerKernelValue Transposed OuterLoopUnrolled; MeanExecutionTime: 167" role="graphics-symbol" aria-roledescription="text mark" text-anchor="start" transform="translate(171,293)" font-family="sans-serif" font-size="9px" fill="black">167</text><text aria-label="mean execution time in µs: 93; algorithm: (JohT) inputPerKernelValue Transposed Inner&amp;OuterLoopUnrolled; MeanExecutionTime: 93" role="graphics-symbol" aria-roledescription="text mark" text-anchor="start" transform="translate(97,133)" font-family="sans-serif" font-size="9px" fill="black">93</text><text aria-label="mean execution time in µs: 61; algorithm: (JohT) inputPerKernelValue Transposed LoopFission; MeanExecutionTime: 61" role="graphics-symbol" aria-roledescription="text mark" text-anchor="start" transform="translate(65,113)" font-family="sans-serif" font-size="9px" fill="black">61</text><text aria-label="mean execution time in µs: 60; algorithm: (JohT) inputPerKernelValue Transposed LoopFissionIndexArithmetic; MeanExecutionTime: 60" role="graphics-symbol" aria-roledescription="text mark" text-anchor="start" transform="translate(64,93)" font-family="sans-serif" font-size="9px" fill="black">60</text><text aria-label="mean execution time in µs: 155; algorithm: (JohT) kernelPerInputValue Transposed LoopFission; MeanExecutionTime: 155" role="graphics-symbol" aria-roledescription="text mark" text-anchor="start" transform="translate(159,233)" font-family="sans-serif" font-size="9px" fill="black">155</text><text aria-label="mean execution time in µs: 168; algorithm: (matlab-like) conv 'full' shape; MeanExecutionTime: 168" role="graphics-symbol" aria-roledescription="text mark" text-anchor="start" transform="translate(172,313)" font-family="sans-serif" font-size="9px" fill="black">168</text><text aria-label="mean execution time in µs: 173; algorithm: (matlab-like) conv 'valid' shape pre padded; MeanExecutionTime: 173" role="graphics-symbol" aria-roledescription="text mark" text-anchor="start" transform="translate(177,333)" font-family="sans-serif" font-size="9px" fill="black">173</text><text aria-label="mean execution time in µs: 162; algorithm: (wilczek) Single; MeanExecutionTime: 162" role="graphics-symbol" aria-roledescription="text mark" text-anchor="start" transform="translate(166,253)" font-family="sans-serif" font-size="9px" fill="black">162</text><text aria-label="mean execution time in µs: 96; algorithm: (wilczek) Inner-Loop Vectorization; MeanExecutionTime: 96" role="graphics-symbol" aria-roledescription="text mark" text-anchor="start" transform="translate(100,173)" font-family="sans-serif" font-size="9px" fill="black">96</text><text aria-label="mean execution time in µs: 198; algorithm: (wilczek) Outer-Loop Vectorization; MeanExecutionTime: 198" role="graphics-symbol" aria-roledescription="text mark" text-anchor="start" transform="translate(202,353)" font-family="sans-serif" font-size="9px" fill="black">198</text><text aria-label="mean execution time in µs: 112; algorithm: (wilczek) Outer- and Inner-Loop Vectorization; MeanExecutionTime: 112" role="graphics-symbol" aria-roledescription="text mark" text-anchor="start" transform="translate(116.00000000000001,193)" font-family="sans-serif" font-size="9px" fill="black">112</text><text aria-label="mean execution time in µs: 50; algorithm: (wilczek) AVX NoAlign Inner-Loop Vectorization; MeanExecutionTime: 50" role="graphics-symbol" aria-roledescription="text mark" text-anchor="start" transform="translate(54,73)" font-family="sans-serif" font-size="9px" fill="black">50</text><text aria-label="mean execution time in µs: 24; algorithm: (wilczek) AVX NoAlign Outer-Loop Vectorization; MeanExecutionTime: 24" role="graphics-symbol" aria-roledescription="text mark" text-anchor="start" transform="translate(28,13)" font-family="sans-serif" font-size="9px" fill="black">24</text><text aria-label="mean execution time in µs: 41; algorithm: (wilczek) AVX NoAlign Outer- and Inner-Loop Vectorization; MeanExecutionTime: 41" role="graphics-symbol" aria-roledescription="text mark" text-anchor="start" transform="translate(45,53)" font-family="sans-serif" font-size="9px" fill="black">41</text><text aria-label="mean execution time in µs: 166; algorithm: (chaowang15) convolve1D; MeanExecutionTime: 166" role="graphics-symbol" aria-roledescription="text mark" text-anchor="start" transform="translate(170,273)" font-family="sans-serif" font-size="9px" fill="black">166</text></g></g><path class="foreground" aria-hidden="true" d="" display="none"/></g><g transform="translate(748,0)"><path class="background" aria-hidden="true" d="M0.5,0.5h200v360h-200Z" stroke="#ddd"/><g><g class="mark-group role-axis" aria-hidden="true"><g transform="translate(0.5,360.5)"><path class="background" aria-hidden="true" d="M0,0h0v0h0Z" pointer-events="none"/><g><g class="mark-rule role-axis-grid" pointer-events="none"><line transform="translate(0,0)" x2="0" y2="-360" stroke="#ddd" stroke-width="1" opacity="1"/><line transform="translate(44,0)" x2="0" y2="-360" stroke="#ddd" stroke-width="1" opacity="1"/><line transform="translate(89,0)" x2="0" y2="-360" stroke="#ddd" stroke-width="1" opacity="1"/><line transform="translate(133,0)" x2="0" y2="-360" stroke="#ddd" stroke-width="1" opacity="1"/><line transform="translate(178,0)" x2="0" y2="-360" stroke="#ddd" stroke-width="1" opacity="1"/></g></g><path class="foreground" aria-hidden="true" d="" pointer-events="none" display="none"/></g></g><g class="mark-group role-axis" role="graphics-symbol" aria-roledescription="axis" aria-label="X-axis titled 'mean execution time in µs' for a linear scale with values from 0 to 9,000"><g transform="translate(0.5,360.5)"><path class="background" aria-hidden="true" d="M0,0h0v0h0Z" pointer-events="none"/><g><g class="mark-rule role-axis-tick" pointer-events="none"><line transform="translate(0,0)" x2="0" y2="5" stroke="#888" stroke-width="1" opacity="1"/><line transform="translate(44,0)" x2="0" y2="5" stroke="#888" stroke-width="1" opacity="1"/><line transform="translate(89,0)" x2="0" y2="5" stroke="#888" stroke-width="1" opacity="1"/><line transform="translate(133,0)" x2="0" y2="5" stroke="#888" stroke-width="1" opacity="1"/><line transform="translate(178,0)" x2="0" y2="5" stroke="#888" stroke-width="1" opacity="1"/></g><g class="mark-text role-axis-label" pointer-events="none"><text text-anchor="start" transform="translate(0,15)" font-family="sans-serif" font-size="10px" fill="#000" opacity="1">0</text><text text-anchor="middle" transform="translate(44.44444444444444,15)" font-family="sans-serif" font-size="10px" fill="#000" opacity="1">2,000</text><text text-anchor="middle" transform="translate(88.88888888888889,15)" font-family="sans-serif" font-size="10px" fill="#000" opacity="1">4,000</text><text text-anchor="middle" transform="translate(133.33333333333331,15)" font-family="sans-serif" font-size="10px" fill="#000" opacity="1">6,000</text><text text-anchor="middle" transform="translate(177.77777777777777,15)" font-family="sans-serif" font-size="10px" fill="#000" opacity="1">8,000</text></g><g class="mark-rule role-axis-domain" pointer-events="none"><line transform="translate(0,0)" x2="200" y2="0" stroke="#888" stroke-width="1" opacity="1"/></g><g class="mark-text role-axis-title" pointer-events="none"><text text-anchor="middle" transform="translate(100,30)" font-family="sans-serif" font-size="11px" font-weight="bold" fill="#000" opacity="1">mean execution time in µs</text></g></g><path class="foreground" aria-hidden="true" d="" pointer-events="none" display="none"/></g></g><g class="mark-group role-axis" role="graphics-symbol" aria-roledescription="axis" aria-label="Y-axis titled 'algorithm' for a discrete scale with 18 values: (wilczek) AVX NoAlign Outer- and Inner-Loop Vectorization, (wilczek) AVX NoAlign Inner-Loop Vectorization, (wilczek) AVX NoAlign Outer-Loop Vectorization, (JohT) kernelPerInputValue Transposed, (JohT) inputPerKernelValue Transposed, ending with (wilczek) Single"><g transform="translate(0.5,0.5)"><path class="background" aria-hidden="true" d="M0,0h0v0h0Z" pointer-events="none"/><g><g class="mark-rule role-axis-tick" pointer-events="none"><line transform="translate(0,10)" x2="-5" y2="0" stroke="#888" stroke-width="1" opacity="1"/><line transform="translate(0,30)" x2="-5" y2="0" stroke="#888" stroke-width="1" opacity="1"/><line transform="translate(0,50)" x2="-5" y2="0" stroke="#888" stroke-width="1" opacity="1"/><line transform="translate(0,70)" x2="-5" y2="0" stroke="#888" stroke-width="1" opacity="1"/><line transform="translate(0,90)" x2="-5" y2="0" stroke="#888" stroke-width="1" opacity="1"/><line transform="translate(0,110)" x2="-5" y2="0" stroke="#888" stroke-width="1" opacity="1"/><line transform="translate(0,130)" x2="-5" y2="0" stroke="#888" stroke-width="1" opacity="1"/><line transform="translate(0,150)" x2="-5" y2="0" stroke="#888" stroke-width="1" opacity="1"/><line transform="translate(0,170)" x2="-5" y2="0" stroke="#888" stroke-width="1" opacity="1"/><line transform="translate(0,190)" x2="-5" y2="0" stroke="#888" stroke-width="1" opacity="1"/><line transform="translate(0,210)" x2="-5" y2="0" stroke="#888" stroke-width="1" opacity="1"/><line transform="translate(0,230)" x2="-5" y2="0" stroke="#888" stroke-width="1" opacity="1"/><line transform="translate(0,250)" x2="-5" y2="0" stroke="#888" stroke-width="1" opacity="1"/><line transform="translate(0,270)" x2="-5" y2="0" stroke="#888" stroke-width="1" opacity="1"/><line transform="translate(0,290)" x2="-5" y2="0" stroke="#888" stroke-width="1" opacity="1"/><line transform="translate(0,310)" x2="-5" y2="0" stroke="#888" stroke-width="1" opacity="1"/><line transform="translate(0,330)" x2="-5" y2="0" stroke="#888" stroke-width="1" opacity="1"/><line transform="translate(0,350)" x2="-5" y2="0" stroke="#888" stroke-width="1" opacity="1"/></g><g class="mark-text role-axis-label" pointer-events="none"><text text-anchor="end" transform="translate(-7,12.5)" font-family="sans-serif" font-size="10px" fill="#000" opacity="1">(wilczek) AVX NoAlign Outer- and Inner-Loop Vectorization</text><text text-anchor="end" transform="translate(-7,32.5)" font-family="sans-serif" font-size="10px" fill="#000" opacity="1">(wilczek) AVX NoAlign Inner-Loop Vectorization</text><text text-anchor="end" transform="translate(-7,52.5)" font-family="sans-serif" font-size="10px" fill="#000" opacity="1">(wilczek) AVX NoAlign Outer-Loop Vectorization</text><text text-anchor="end" transform="translate(-7,72.5)" font-family="sans-serif" font-size="10px" fill="#000" opacity="1">(JohT) kernelPerInputValue Transposed</text><text text-anchor="end" transform="translate(-7,92.5)" font-family="sans-serif" font-size="10px" fill="#000" opacity="1">(JohT) inputPerKernelValue Transposed</text><text text-anchor="end" transform="translate(-7,112.5)" font-family="sans-serif" font-size="10px" fill="#000" opacity="1">(JohT) kernelPerInputValue Transposed LoopFission</text><text text-anchor="end" transform="translate(-7,132.5)" font-family="sans-serif" font-size="10px" fill="#000" opacity="1">(JohT) inputPerKernelValue Transposed LoopFissionIndexArithme…</text><text text-anchor="end" transform="translate(-7,152.5)" font-family="sans-serif" font-size="10px" fill="#000" opacity="1">(JohT) inputPerKernelValue Transposed LoopFission</text><text text-anchor="end" transform="translate(-7,172.5)" font-family="sans-serif" font-size="10px" fill="#000" opacity="1">(wilczek) Inner-Loop Vectorization</text><text text-anchor="end" transform="translate(-7,192.5)" font-family="sans-serif" font-size="10px" fill="#000" opacity="1">(JohT) inputPerKernelValue Transposed InnerLoopUnrolled</text><text text-anchor="end" transform="translate(-7,212.5)" font-family="sans-serif" font-size="10px" fill="#000" opacity="1">(JohT) inputPerKernelValue Transposed Inner&amp;OuterLoopUnrolled</text><text text-anchor="end" transform="translate(-7,232.5)" font-family="sans-serif" font-size="10px" fill="#000" opacity="1">(wilczek) Outer- and Inner-Loop Vectorization</text><text text-anchor="end" transform="translate(-7,252.5)" font-family="sans-serif" font-size="10px" fill="#000" opacity="1">(JohT) inputPerKernelValue Transposed OuterLoopUnrolled</text><text text-anchor="end" transform="translate(-7,272.5)" font-family="sans-serif" font-size="10px" fill="#000" opacity="1">(matlab-like) conv 'full' shape</text><text text-anchor="end" transform="translate(-7,292.5)" font-family="sans-serif" font-size="10px" fill="#000" opacity="1">(chaowang15) convolve1D</text><text text-anchor="end" transform="translate(-7,312.5)" font-family="sans-serif" font-size="10px" fill="#000" opacity="1">(matlab-like) conv 'valid' shape pre padded</text><text text-anchor="end" transform="translate(-7,332.5)" font-family="sans-serif" font-size="10px" fill="#000" opacity="1">(wilczek) Outer-Loop Vectorization</text><text text-anchor="end" transform="translate(-7,352.5)" font-family="sans-serif" font-size="10px" fill="#000" opacity="1">(wilczek) Single</text></g><g class="mark-rule role-axis-domain" pointer-events="none"><line transform="translate(0,0)" x2="0" y2="360" stroke="#888" stroke-width="1" opacity="1"/></g><g class="mark-text role-axis-title" pointer-events="none"><text text-anchor="middle" transform="translate(-320,180) rotate(-90) translate(0,-2)" font-family="sans-serif" font-size="11px" font-weight="bold" fill="#000" opacity="1">algorithm</text></g></g><path class="foreground" aria-hidden="true" d="" pointer-events="none" display="none"/></g></g><g class="mark-rect role-mark child_layer_0_marks" role="graphics-object" aria-roledescription="rect mark container"><path aria-label="mean execution time in µs: 1084; algorithm: (JohT) kernelPerInputValue Transposed" role="graphics-symbol" aria-roledescription="bar" d="M0,61.9L20.08888888888889,61.9C22.296548986864888,61.9,24.08888888888889,63.692339902023996,24.08888888888889,65.9L24.08888888888889,74.1C24.08888888888889,76.307660097976,22.296548986864888,78.1,20.08888888888889,78.1L0,78.1C0,78.1,0,78.1,0,78.1L0,61.9C0,61.9,0,61.9,0,61.9Z" fill="#4c78a8"/><path aria-label="mean execution time in µs: 1114; algorithm: (JohT) inputPerKernelValue Transposed" role="graphics-symbol" aria-roledescription="bar" d="M0,81.9L20.755555555555556,81.9C22.963215653531556,81.9,24.755555555555556,83.692339902024,24.755555555555556,85.9L24.755555555555556,94.10000000000001C24.755555555555556,96.30766009797601,22.963215653531556,98.10000000000001,20.755555555555556,98.10000000000001L0,98.10000000000001C0,98.10000000000001,0,98.10000000000001,0,98.10000000000001L0,81.9C0,81.9,0,81.9,0,81.9Z" fill="#4c78a8"/><path aria-label="mean execution time in µs: 2988; algorithm: (JohT) inputPerKernelValue Transposed InnerLoopUnrolled" role="graphics-symbol" aria-roledescription="bar" d="M0,181.9L62.400000000000006,181.9C64.60766009797601,181.9,66.4,183.692339902024,66.4,185.9L66.4,194.1C66.4,196.307660097976,64.60766009797601,198.1,62.400000000000006,198.1L0,198.1C0,198.1,0,198.1,0,198.1L0,181.9C0,181.9,0,181.9,0,181.9Z" fill="#4c78a8"/><path aria-label="mean execution time in µs: 5301; algorithm: (JohT) inputPerKernelValue Transposed OuterLoopUnrolled" role="graphics-symbol" aria-roledescription="bar" d="M0,241.9L113.8,241.9C116.007660097976,241.9,117.8,243.692339902024,117.8,245.9L117.8,254.10000000000002C117.8,256.307660097976,116.007660097976,258.1,113.8,258.1L0,258.1C0,258.1,0,258.1,0,258.1L0,241.9C0,241.9,0,241.9,0,241.9Z" fill="#4c78a8"/><path aria-label="mean execution time in µs: 2990; algorithm: (JohT) inputPerKernelValue Transposed Inner&amp;OuterLoopUnrolled" role="graphics-symbol" aria-roledescription="bar" d="M0,201.9L62.44444444444444,201.9C64.65210454242045,201.9,66.44444444444444,203.692339902024,66.44444444444444,205.9L66.44444444444444,214.1C66.44444444444444,216.307660097976,64.65210454242045,218.1,62.44444444444444,218.1L0,218.1C0,218.1,0,218.1,0,218.1L0,201.9C0,201.9,0,201.9,0,201.9Z" fill="#4c78a8"/><path aria-label="mean execution time in µs: 1814; algorithm: (JohT) inputPerKernelValue Transposed LoopFission" role="graphics-symbol" aria-roledescription="bar" d="M0,141.9L36.31111111111111,141.9C38.51877120908711,141.9,40.31111111111111,143.692339902024,40.31111111111111,145.9L40.31111111111111,154.1C40.31111111111111,156.307660097976,38.51877120908711,158.1,36.31111111111111,158.1L0,158.1C0,158.1,0,158.1,0,158.1L0,141.9C0,141.9,0,141.9,0,141.9Z" fill="#4c78a8"/><path aria-label="mean execution time in µs: 1809; algorithm: (JohT) inputPerKernelValue Transposed LoopFissionIndexArithmetic" role="graphics-symbol" aria-roledescription="bar" d="M0,121.9L36.2,121.9C38.407660097976006,121.9,40.2,123.692339902024,40.2,125.9L40.2,134.1C40.2,136.307660097976,38.407660097976006,138.1,36.2,138.1L0,138.1C0,138.1,0,138.1,0,138.1L0,121.9C0,121.9,0,121.9,0,121.9Z" fill="#4c78a8"/><path aria-label="mean execution time in µs: 1721; algorithm: (JohT) kernelPerInputValue Transposed LoopFission" role="graphics-symbol" aria-roledescription="bar" d="M0,101.9L34.24444444444444,101.9C36.45210454242044,101.9,38.24444444444444,103.692339902024,38.24444444444444,105.9L38.24444444444444,114.10000000000001C38.24444444444444,116.30766009797601,36.45210454242044,118.10000000000001,34.24444444444444,118.10000000000001L0,118.10000000000001C0,118.10000000000001,0,118.10000000000001,0,118.10000000000001L0,101.9C0,101.9,0,101.9,0,101.9Z" fill="#4c78a8"/><path aria-label="mean execution time in µs: 7599; algorithm: (matlab-like) conv 'full' shape" role="graphics-symbol" aria-roledescription="bar" d="M0,261.9L164.86666666666667,261.9C167.07432676464268,261.9,168.86666666666667,263.692339902024,168.86666666666667,265.9L168.86666666666667,274.09999999999997C168.86666666666667,276.30766009797594,167.07432676464268,278.09999999999997,164.86666666666667,278.09999999999997L0,278.09999999999997C0,278.09999999999997,0,278.09999999999997,0,278.09999999999997L0,261.9C0,261.9,0,261.9,0,261.9Z" fill="#4c78a8"/><path aria-label="mean execution time in µs: 7827; algorithm: (matlab-like) conv 'valid' shape pre padded" role="graphics-symbol" aria-roledescription="bar" d="M0,301.9L169.93333333333334,301.9C172.14099343130934,301.9,173.93333333333334,303.692339902024,173.93333333333334,305.9L173.93333333333334,314.09999999999997C173.93333333333334,316.30766009797594,172.14099343130934,318.09999999999997,169.93333333333334,318.09999999999997L0,318.09999999999997C0,318.09999999999997,0,318.09999999999997,0,318.09999999999997L0,301.9C0,301.9,0,301.9,0,301.9Z" fill="#4c78a8"/><path aria-label="mean execution time in µs: 8076; algorithm: (wilczek) Single" role="graphics-symbol" aria-roledescription="bar" d="M0,341.9L175.46666666666667,341.9C177.67432676464267,341.9,179.46666666666667,343.692339902024,179.46666666666667,345.9L179.46666666666667,354.09999999999997C179.46666666666667,356.30766009797594,177.67432676464267,358.09999999999997,175.46666666666667,358.09999999999997L0,358.09999999999997C0,358.09999999999997,0,358.09999999999997,0,358.09999999999997L0,341.9C0,341.9,0,341.9,0,341.9Z" fill="#4c78a8"/><path aria-label="mean execution time in µs: 2799; algorithm: (wilczek) Inner-Loop Vectorization" role="graphics-symbol" aria-roledescription="bar" d="M0,161.9L58.2,161.9C60.407660097976006,161.9,62.2,163.692339902024,62.2,165.9L62.2,174.1C62.2,176.307660097976,60.407660097976006,178.1,58.2,178.1L0,178.1C0,178.1,0,178.1,0,178.1L0,161.9C0,161.9,0,161.9,0,161.9Z" fill="#4c78a8"/><path aria-label="mean execution time in µs: 7979; algorithm: (wilczek) Outer-Loop Vectorization" role="graphics-symbol" aria-roledescription="bar" d="M0,321.9L173.3111111111111,321.9C175.5187712090871,321.9,177.3111111111111,323.692339902024,177.3111111111111,325.9L177.3111111111111,334.09999999999997C177.3111111111111,336.30766009797594,175.5187712090871,338.09999999999997,173.3111111111111,338.09999999999997L0,338.09999999999997C0,338.09999999999997,0,338.09999999999997,0,338.09999999999997L0,321.9C0,321.9,0,321.9,0,321.9Z" fill="#4c78a8"/><path aria-label="mean execution time in µs: 3332; algorithm: (wilczek) Outer- and Inner-Loop Vectorization" role="graphics-symbol" aria-roledescription="bar" d="M0,221.9L70.04444444444445,221.9C72.25210454242045,221.9,74.04444444444445,223.692339902024,74.04444444444445,225.9L74.04444444444445,234.1C74.04444444444445,236.307660097976,72.25210454242045,238.1,70.04444444444445,238.1L0,238.1C0,238.1,0,238.1,0,238.1L0,221.9C0,221.9,0,221.9,0,221.9Z" fill="#4c78a8"/><path aria-label="mean execution time in µs: 931; algorithm: (wilczek) AVX NoAlign Inner-Loop Vectorization" role="graphics-symbol" aria-roledescription="bar" d="M0,21.9L16.68888888888889,21.9C18.89654898686489,21.9,20.68888888888889,23.692339902024,20.68888888888889,25.9L20.68888888888889,34.099999999999994C20.68888888888889,36.307660097976,18.89654898686489,38.099999999999994,16.68888888888889,38.099999999999994L0,38.099999999999994C0,38.099999999999994,0,38.099999999999994,0,38.099999999999994L0,21.9C0,21.9,0,21.9,0,21.9Z" fill="#4c78a8"/><path aria-label="mean execution time in µs: 982; algorithm: (wilczek) AVX NoAlign Outer-Loop Vectorization" role="graphics-symbol" aria-roledescription="bar" d="M0,41.9L17.822222222222223,41.9C20.029882320198222,41.9,21.822222222222223,43.692339902023996,21.822222222222223,45.9L21.822222222222223,54.099999999999994C21.822222222222223,56.307660097976,20.029882320198222,58.099999999999994,17.822222222222223,58.099999999999994L0,58.099999999999994C0,58.099999999999994,0,58.099999999999994,0,58.099999999999994L0,41.9C0,41.9,0,41.9,0,41.9Z" fill="#4c78a8"/><path aria-label="mean execution time in µs: 549; algorithm: (wilczek) AVX NoAlign Outer- and Inner-Loop Vectorization" role="graphics-symbol" aria-roledescription="bar" d="M0,1.9L8.2,1.9C10.407660097975999,1.9,12.2,3.692339902024,12.2,5.9L12.2,14.099999999999998C12.2,16.307660097975997,10.407660097975999,18.099999999999998,8.2,18.099999999999998L0,18.099999999999998C0,18.099999999999998,0,18.099999999999998,0,18.099999999999998L0,1.9C0,1.9,0,1.9,0,1.9Z" fill="#4c78a8"/><path aria-label="mean execution time in µs: 7723; algorithm: (chaowang15) convolve1D" role="graphics-symbol" aria-roledescription="bar" d="M0,281.9L167.62222222222223,281.9C169.82988232019824,281.9,171.62222222222223,283.692339902024,171.62222222222223,285.9L171.62222222222223,294.09999999999997C171.62222222222223,296.30766009797594,169.82988232019824,298.09999999999997,167.62222222222223,298.09999999999997L0,298.09999999999997C0,298.09999999999997,0,298.09999999999997,0,298.09999999999997L0,281.9C0,281.9,0,281.9,0,281.9Z" fill="#4c78a8"/></g><g class="mark-text role-mark child_layer_1_marks" role="graphics-object" aria-roledescription="text mark container"><text aria-label="mean execution time in µs: 1084; algorithm: (JohT) kernelPerInputValue Transposed; MeanExecutionTime: 1084" role="graphics-symbol" aria-roledescription="text mark" text-anchor="start" transform="translate(28.08888888888889,73)" font-family="sans-serif" font-size="9px" fill="black">1084</text><text aria-label="mean execution time in µs: 1114; algorithm: (JohT) inputPerKernelValue Transposed; MeanExecutionTime: 1114" role="graphics-symbol" aria-roledescription="text mark" text-anchor="start" transform="translate(28.755555555555556,93)" font-family="sans-serif" font-size="9px" fill="black">1114</text><text aria-label="mean execution time in µs: 2988; algorithm: (JohT) inputPerKernelValue Transposed InnerLoopUnrolled; MeanExecutionTime: 2988" role="graphics-symbol" aria-roledescription="text mark" text-anchor="start" transform="translate(70.4,193)" font-family="sans-serif" font-size="9px" fill="black">2988</text><text aria-label="mean execution time in µs: 5301; algorithm: (JohT) inputPerKernelValue Transposed OuterLoopUnrolled; MeanExecutionTime: 5301" role="graphics-symbol" aria-roledescription="text mark" text-anchor="start" transform="translate(121.8,253)" font-family="sans-serif" font-size="9px" fill="black">5301</text><text aria-label="mean execution time in µs: 2990; algorithm: (JohT) inputPerKernelValue Transposed Inner&amp;OuterLoopUnrolled; MeanExecutionTime: 2990" role="graphics-symbol" aria-roledescription="text mark" text-anchor="start" transform="translate(70.44444444444444,213)" font-family="sans-serif" font-size="9px" fill="black">2990</text><text aria-label="mean execution time in µs: 1814; algorithm: (JohT) inputPerKernelValue Transposed LoopFission; MeanExecutionTime: 1814" role="graphics-symbol" aria-roledescription="text mark" text-anchor="start" transform="translate(44.31111111111111,153)" font-family="sans-serif" font-size="9px" fill="black">1814</text><text aria-label="mean execution time in µs: 1809; algorithm: (JohT) inputPerKernelValue Transposed LoopFissionIndexArithmetic; MeanExecutionTime: 1809" role="graphics-symbol" aria-roledescription="text mark" text-anchor="start" transform="translate(44.2,133)" font-family="sans-serif" font-size="9px" fill="black">1809</text><text aria-label="mean execution time in µs: 1721; algorithm: (JohT) kernelPerInputValue Transposed LoopFission; MeanExecutionTime: 1721" role="graphics-symbol" aria-roledescription="text mark" text-anchor="start" transform="translate(42.24444444444444,113)" font-family="sans-serif" font-size="9px" fill="black">1721</text><text aria-label="mean execution time in µs: 7599; algorithm: (matlab-like) conv 'full' shape; MeanExecutionTime: 7599" role="graphics-symbol" aria-roledescription="text mark" text-anchor="start" transform="translate(172.86666666666667,273)" font-family="sans-serif" font-size="9px" fill="black">7599</text><text aria-label="mean execution time in µs: 7827; algorithm: (matlab-like) conv 'valid' shape pre padded; MeanExecutionTime: 7827" role="graphics-symbol" aria-roledescription="text mark" text-anchor="start" transform="translate(177.93333333333334,313)" font-family="sans-serif" font-size="9px" fill="black">7827</text><text aria-label="mean execution time in µs: 8076; algorithm: (wilczek) Single; MeanExecutionTime: 8076" role="graphics-symbol" aria-roledescription="text mark" text-anchor="start" transform="translate(183.46666666666667,353)" font-family="sans-serif" font-size="9px" fill="black">8076</text><text aria-label="mean execution time in µs: 2799; algorithm: (wilczek) Inner-Loop Vectorization; MeanExecutionTime: 2799" role="graphics-symbol" aria-roledescription="text mark" text-anchor="start" transform="translate(66.2,173)" font-family="sans-serif" font-size="9px" fill="black">2799</text><text aria-label="mean execution time in µs: 7979; algorithm: (wilczek) Outer-Loop Vectorization; MeanExecutionTime: 7979" role="graphics-symbol" aria-roledescription="text mark" text-anchor="start" transform="translate(181.3111111111111,333)" font-family="sans-serif" font-size="9px" fill="black">7979</text><text aria-label="mean execution time in µs: 3332; algorithm: (wilczek) Outer- and Inner-Loop Vectorization; MeanExecutionTime: 3332" role="graphics-symbol" aria-roledescription="text mark" text-anchor="start" transform="translate(78.04444444444445,233)" font-family="sans-serif" font-size="9px" fill="black">3332</text><text aria-label="mean execution time in µs: 931; algorithm: (wilczek) AVX NoAlign Inner-Loop Vectorization; MeanExecutionTime: 931" role="graphics-symbol" aria-roledescription="text mark" text-anchor="start" transform="translate(24.68888888888889,33)" font-family="sans-serif" font-size="9px" fill="black">931</text><text aria-label="mean execution time in µs: 982; algorithm: (wilczek) AVX NoAlign Outer-Loop Vectorization; MeanExecutionTime: 982" role="graphics-symbol" aria-roledescription="text mark" text-anchor="start" transform="translate(25.822222222222223,53)" font-family="sans-serif" font-size="9px" fill="black">982</text><text aria-label="mean execution time in µs: 549; algorithm: (wilczek) AVX NoAlign Outer- and Inner-Loop Vectorization; MeanExecutionTime: 549" role="graphics-symbol" aria-roledescription="text mark" text-anchor="start" transform="translate(16.2,13)" font-family="sans-serif" font-size="9px" fill="black">549</text><text aria-label="mean execution time in µs: 7723; algorithm: (chaowang15) convolve1D; MeanExecutionTime: 7723" role="graphics-symbol" aria-roledescription="text mark" text-anchor="start" transform="translate(175.62222222222223,293)" font-family="sans-serif" font-size="9px" fill="black">7723</text></g></g><path class="foreground" aria-hidden="true" d="" display="none"/></g></g></g><path class="foreground" aria-hidden="true" d="" display="none"/></g></g></g></svg>