<svg xmlns="http://www.w3.org/2000/svg" xmlns:xlink="http://www.w3.org/1999/xlink" version="1.1" class="marks" width="1130" height="464" viewBox="0 0 1130 464"><rect width="1130" height="464" fill="white"/><g fill="none" stroke-miterlimit="10" transform="translate(337,66)"><g class="mark-group role-frame root" role="graphics-object" aria-roledescription="group mark container"><g transform="translate(0,0)"><path class="background" aria-hidden="true" d="M0,0h0v0h0Z"/><g><g class="mark-group role-column-title column-title" role="graphics-object" aria-roledescription="group mark container"><g transform="translate(228,-35)"><path class="background" aria-hidden="true" d="M0,0h0v0h0Z"/><g><g class="mark-group role-title"><g transform="translate(0,-26)"><path class="background" aria-hidden="true" d="M0,0h0v0h0Z" pointer-events="none"/><g><g class="mark-text role-title-text" role="graphics-symbol" aria-roledescription="title" aria-label="Title text 'Convolution Benchmarks'" pointer-events="none"><text text-anchor="middle" transform="translate(0,13)" font-family="sans-serif" font-size="16px" font-weight="bold" fill="#000" opacity="1">Convolution Benchmarks</text></g></g><path class="foreground" aria-hidden="true" d="" pointer-events="none" display="none"/></g></g></g><path class="foreground" aria-hidden="true" d="" display="none"/></g></g><g class="mark-group role-column-header column_header" role="graphics-object" aria-roledescription="group mark container"><g transform="translate(0,-1)"><path class="background" aria-hidden="true" d="M0,0h200v0h-200Z"/><g><g class="mark-group role-title"><g transform="translate(100,-24)"><path class="background" aria-hidden="true" d="M0,0h0v0h0Z" pointer-events="none"/><g><g class="mark-text role-title-text" role="graphics-symbol" aria-roledescription="title" aria-label="Title text 'kernel size 16'" pointer-events="none"><text text-anchor="middle" transform="translate(0,11)" font-family="sans-serif" font-size="14px" fill="#000" opacity="1">kernel size 16</text></g></g><path class="foreground" aria-hidden="true" d="" pointer-events="none" display="none"/></g></g></g><path class="foreground" aria-hidden="true" d="" display="none"/></g><g transform="translate(557,-1)"><path class="background" aria-hidden="true" d="M0,0h200v0h-200Z"/><g><g class="mark-group role-title"><g transform="translate(100,-24)"><path class="background" aria-hidden="true" d="M0,0h0v0h0Z" pointer-events="none"/><g><g class="mark-text role-title-text" role="graphics-symbol" aria-roledescription="title" aria-label="Title text 'kernel size 1024'" pointer-events="none"><text text-anchor="middle" transform="translate(0,11)" font-family="sans-serif" font-size="14px" fill="#000" opacity="1">kernel size 1024</text></g></g><path class="foreground" aria-hidden="true" d="" pointer-events="none" display="none"/></g></g></g><path class="foreground" aria-hidden="true" d="" display="none"/></g></g><g class="mark-group role-scope cell" role="graphics-object" aria-roledescription="group mark container"><g transform="translate(0,0)"><path class="background" aria-hidden="true" d="M0.5,0.5h200v360h-200Z" stroke="#ddd"/><g><g class="mark-group role-axis" aria-hidden="true"><g transform="translate(0.5,360.5)"><path class="background" aria-hidden="true" d="M0,0h0v0h0Z" pointer-events="none"/><g><g class="mark-rule role-axis-grid" pointer-events="none"><line transform="translate(0,0)" x2="0" y2="-360" stroke="#ddd" stroke-width="1" opacity="1"/><line transform="translate(63,0)" x2="0" y2="-360" stroke="#ddd" stroke-width="1" opacity="1"/><line transform="translate(125,0)" x2="0" y2="-360" stroke="#ddd" stroke-width="1" opacity="1"/><line transform="translate(188,0)" x2="0" y2="-360" stroke="#ddd" stroke-width="1" opacity="1"/></g></g><path class="foreground" aria-hidden="true" d="" pointer-events="none" display="none"/></g></g><g class="mark-group role-axis" role="graphics-symbol" aria-roledescription="axis" aria-label="X-axis titled 'mean execution time in µs' for a linear scale with values from 0 to 160"><g transform="translate(0.5,360.5)"><path class="background" aria-hidden="true" d="M0,0h0v0h0Z" pointer-events="none"/><g><g class="mark-rule role-axis-tick" pointer-events="none"><line transform="translate(0,0)" x2="0" y2="5" stroke="#888" stroke-width="1" opacity="1"/><line transform="translate(63,0)" x2="0" y2="5" stroke="#888" stroke-width="1" opacity="1"/><line transform="translate(125,0)" x2="0" y2="5" stroke="#888" stroke-width="1" opacity="1"/><line transform="translate(188,0)" x2="0" y2="5" stroke="#888" stroke-width="1" opacity="1"/></g><g class="mark-text role-axis-label" pointer-events="none"><text text-anchor="start" transform="translate(0,15)" font-family="sans-serif" font-size="10px" fill="#000" opacity="1">0</text><text text-anchor="middle" transform="translate(62.5,15)" font-family="sans-serif" font-size="10px" fill="#000" opacity="1">50</text><text text-anchor="middle" transform="translate(125,15)" font-family="sans-serif" font-size="10px" fill="#000" opacity="1">100</text><text text-anchor="middle" transform="translate(187.5,15)" font-family="sans-serif" font-size="10px" fill="#000" opacity="1">150</text></g><g class="mark-rule role-axis-domain" pointer-events="none"><line transform="translate(0,0)" x2="200" y2="0" stroke="#888" stroke-width="1" opacity="1"/></g><g class="mark-text role-axis-title" pointer-events="none"><text text-anchor="middle" transform="translate(100,30)" font-family="sans-serif" font-size="11px" font-weight="bold" fill="#000" opacity="1">mean execution time in µs</text></g></g><path class="foreground" aria-hidden="true" d="" pointer-events="none" display="none"/></g></g><g class="mark-group role-axis" role="graphics-symbol" aria-roledescription="axis" aria-label="Y-axis titled 'algorithm' for a discrete scale with 18 values: (wilczek) AVX NoAlign Outer-Loop Vectorization, (wilczek) AVX NoAlign Outer- and Inner-Loop Vectorization, inputPerKernelValue Transposed, (wilczek) AVX NoAlign Inner-Loop Vectorization, inputPerKernelValue Transposed InnerAndOuterLoopUnrolled, ending with kernelPerInputValue Transposed LoopFission"><g transform="translate(0.5,0.5)"><path class="background" aria-hidden="true" d="M0,0h0v0h0Z" pointer-events="none"/><g><g class="mark-rule role-axis-tick" pointer-events="none"><line transform="translate(0,10)" x2="-5" y2="0" stroke="#888" stroke-width="1" opacity="1"/><line transform="translate(0,30)" x2="-5" y2="0" stroke="#888" stroke-width="1" opacity="1"/><line transform="translate(0,50)" x2="-5" y2="0" stroke="#888" stroke-width="1" opacity="1"/><line transform="translate(0,70)" x2="-5" y2="0" stroke="#888" stroke-width="1" opacity="1"/><line transform="translate(0,90)" x2="-5" y2="0" stroke="#888" stroke-width="1" opacity="1"/><line transform="translate(0,110)" x2="-5" y2="0" stroke="#888" stroke-width="1" opacity="1"/><line transform="translate(0,130)" x2="-5" y2="0" stroke="#888" stroke-width="1" opacity="1"/><line transform="translate(0,150)" x2="-5" y2="0" stroke="#888" stroke-width="1" opacity="1"/><line transform="translate(0,170)" x2="-5" y2="0" stroke="#888" stroke-width="1" opacity="1"/><line transform="translate(0,190)" x2="-5" y2="0" stroke="#888" stroke-width="1" opacity="1"/><line transform="translate(0,210)" x2="-5" y2="0" stroke="#888" stroke-width="1" opacity="1"/><line transform="translate(0,230)" x2="-5" y2="0" stroke="#888" stroke-width="1" opacity="1"/><line transform="translate(0,250)" x2="-5" y2="0" stroke="#888" stroke-width="1" opacity="1"/><line transform="translate(0,270)" x2="-5" y2="0" stroke="#888" stroke-width="1" opacity="1"/><line transform="translate(0,290)" x2="-5" y2="0" stroke="#888" stroke-width="1" opacity="1"/><line transform="translate(0,310)" x2="-5" y2="0" stroke="#888" stroke-width="1" opacity="1"/><line transform="translate(0,330)" x2="-5" y2="0" stroke="#888" stroke-width="1" opacity="1"/><line transform="translate(0,350)" x2="-5" y2="0" stroke="#888" stroke-width="1" opacity="1"/></g><g class="mark-text role-axis-label" pointer-events="none"><text text-anchor="end" transform="translate(-7,12.5)" font-family="sans-serif" font-size="10px" fill="#000" opacity="1">(wilczek) AVX NoAlign Outer-Loop Vectorization</text><text text-anchor="end" transform="translate(-7,32.5)" font-family="sans-serif" font-size="10px" fill="#000" opacity="1">(wilczek) AVX NoAlign Outer- and Inner-Loop Vectorization</text><text text-anchor="end" transform="translate(-7,52.5)" font-family="sans-serif" font-size="10px" fill="#000" opacity="1">inputPerKernelValue Transposed</text><text text-anchor="end" transform="translate(-7,72.5)" font-family="sans-serif" font-size="10px" fill="#000" opacity="1">(wilczek) AVX NoAlign Inner-Loop Vectorization</text><text text-anchor="end" transform="translate(-7,92.5)" font-family="sans-serif" font-size="10px" fill="#000" opacity="1">inputPerKernelValue Transposed InnerAndOuterLoopUnrolled</text><text text-anchor="end" transform="translate(-7,112.5)" font-family="sans-serif" font-size="10px" fill="#000" opacity="1">kernelPerInputValue Transposed</text><text text-anchor="end" transform="translate(-7,132.5)" font-family="sans-serif" font-size="10px" fill="#000" opacity="1">(wilczek) Outer-Loop Vectorization</text><text text-anchor="end" transform="translate(-7,152.5)" font-family="sans-serif" font-size="10px" fill="#000" opacity="1">(chaowang15) convolve1D</text><text text-anchor="end" transform="translate(-7,172.5)" font-family="sans-serif" font-size="10px" fill="#000" opacity="1">inputPerKernelValue Transposed LoopFission</text><text text-anchor="end" transform="translate(-7,192.5)" font-family="sans-serif" font-size="10px" fill="#000" opacity="1">inputPerKernelValue Transposed OuterLoopUnrolled</text><text text-anchor="end" transform="translate(-7,212.5)" font-family="sans-serif" font-size="10px" fill="#000" opacity="1">inputPerKernelValue Transposed LoopFissionIndexArithmetic</text><text text-anchor="end" transform="translate(-7,232.5)" font-family="sans-serif" font-size="10px" fill="#000" opacity="1">inputPerKernelValue Transposed InnerLoopUnrolled</text><text text-anchor="end" transform="translate(-7,252.5)" font-family="sans-serif" font-size="10px" fill="#000" opacity="1">(wilczek) Outer- and Inner-Loop Vectorization</text><text text-anchor="end" transform="translate(-7,272.5)" font-family="sans-serif" font-size="10px" fill="#000" opacity="1">(wilczek) Inner-Loop Vectorization</text><text text-anchor="end" transform="translate(-7,292.5)" font-family="sans-serif" font-size="10px" fill="#000" opacity="1">(matlab-like) conv 'valid' shape pre padded</text><text text-anchor="end" transform="translate(-7,312.5)" font-family="sans-serif" font-size="10px" fill="#000" opacity="1">(matlab-like) conv 'full' shape</text><text text-anchor="end" transform="translate(-7,332.5)" font-family="sans-serif" font-size="10px" fill="#000" opacity="1">(wilczek) Single</text><text text-anchor="end" transform="translate(-7,352.5)" font-family="sans-serif" font-size="10px" fill="#000" opacity="1">kernelPerInputValue Transposed LoopFission</text></g><g class="mark-rule role-axis-domain" pointer-events="none"><line transform="translate(0,0)" x2="0" y2="360" stroke="#888" stroke-width="1" opacity="1"/></g><g class="mark-text role-axis-title" pointer-events="none"><text text-anchor="middle" transform="translate(-320,180) rotate(-90) translate(0,-2)" font-family="sans-serif" font-size="11px" font-weight="bold" fill="#000" opacity="1">algorithm</text></g></g><path class="foreground" aria-hidden="true" d="" pointer-events="none" display="none"/></g></g><g class="mark-rect role-mark child_layer_0_marks" role="graphics-object" aria-roledescription="rect mark container"><path aria-label="mean execution time in µs: 83; algorithm: kernelPerInputValue Transposed" role="graphics-symbol" aria-roledescription="bar" d="M0,101.9L99.75000000000001,101.9C101.95766009797602,101.9,103.75000000000001,103.692339902024,103.75000000000001,105.9L103.75000000000001,114.10000000000001C103.75000000000001,116.30766009797601,101.95766009797602,118.10000000000001,99.75000000000001,118.10000000000001L0,118.10000000000001C0,118.10000000000001,0,118.10000000000001,0,118.10000000000001L0,101.9C0,101.9,0,101.9,0,101.9Z" fill="#4c78a8"/><path aria-label="mean execution time in µs: 36; algorithm: inputPerKernelValue Transposed" role="graphics-symbol" aria-roledescription="bar" d="M0,41.9L41,41.9C43.207660097976,41.9,45,43.692339902023996,45,45.9L45,54.099999999999994C45,56.307660097976,43.207660097976,58.099999999999994,41,58.099999999999994L0,58.099999999999994C0,58.099999999999994,0,58.099999999999994,0,58.099999999999994L0,41.9C0,41.9,0,41.9,0,41.9Z" fill="#4c78a8"/><path aria-label="mean execution time in µs: 116; algorithm: inputPerKernelValue Transposed InnerLoopUnrolled" role="graphics-symbol" aria-roledescription="bar" d="M0,221.9L141,221.9C143.207660097976,221.9,145,223.692339902024,145,225.9L145,234.1C145,236.307660097976,143.207660097976,238.1,141,238.1L0,238.1C0,238.1,0,238.1,0,238.1L0,221.9C0,221.9,0,221.9,0,221.9Z" fill="#4c78a8"/><path aria-label="mean execution time in µs: 115; algorithm: inputPerKernelValue Transposed OuterLoopUnrolled" role="graphics-symbol" aria-roledescription="bar" d="M0,181.9L139.75,181.9C141.957660097976,181.9,143.75,183.692339902024,143.75,185.9L143.75,194.1C143.75,196.307660097976,141.957660097976,198.1,139.75,198.1L0,198.1C0,198.1,0,198.1,0,198.1L0,181.9C0,181.9,0,181.9,0,181.9Z" fill="#4c78a8"/><path aria-label="mean execution time in µs: 81; algorithm: inputPerKernelValue Transposed InnerAndOuterLoopUnrolled" role="graphics-symbol" aria-roledescription="bar" d="M0,81.9L97.25,81.9C99.457660097976,81.9,101.25,83.692339902024,101.25,85.9L101.25,94.10000000000001C101.25,96.30766009797601,99.457660097976,98.10000000000001,97.25,98.10000000000001L0,98.10000000000001C0,98.10000000000001,0,98.10000000000001,0,98.10000000000001L0,81.9C0,81.9,0,81.9,0,81.9Z" fill="#4c78a8"/><path aria-label="mean execution time in µs: 112; algorithm: inputPerKernelValue Transposed LoopFission" role="graphics-symbol" aria-roledescription="bar" d="M0,161.9L136,161.9C138.207660097976,161.9,140,163.692339902024,140,165.9L140,174.1C140,176.307660097976,138.207660097976,178.1,136,178.1L0,178.1C0,178.1,0,178.1,0,178.1L0,161.9C0,161.9,0,161.9,0,161.9Z" fill="#4c78a8"/><path aria-label="mean execution time in µs: 115; algorithm: inputPerKernelValue Transposed LoopFissionIndexArithmetic" role="graphics-symbol" aria-roledescription="bar" d="M0,201.9L139.75,201.9C141.957660097976,201.9,143.75,203.692339902024,143.75,205.9L143.75,214.1C143.75,216.307660097976,141.957660097976,218.1,139.75,218.1L0,218.1C0,218.1,0,218.1,0,218.1L0,201.9C0,201.9,0,201.9,0,201.9Z" fill="#4c78a8"/><path aria-label="mean execution time in µs: 145; algorithm: kernelPerInputValue Transposed LoopFission" role="graphics-symbol" aria-roledescription="bar" d="M0,341.9L177.25,341.9C179.457660097976,341.9,181.25,343.692339902024,181.25,345.9L181.25,354.09999999999997C181.25,356.30766009797594,179.457660097976,358.09999999999997,177.25,358.09999999999997L0,358.09999999999997C0,358.09999999999997,0,358.09999999999997,0,358.09999999999997L0,341.9C0,341.9,0,341.9,0,341.9Z" fill="#4c78a8"/><path aria-label="mean execution time in µs: 133; algorithm: (matlab-like) conv 'full' shape" role="graphics-symbol" aria-roledescription="bar" d="M0,301.9L162.25,301.9C164.457660097976,301.9,166.25,303.692339902024,166.25,305.9L166.25,314.09999999999997C166.25,316.30766009797594,164.457660097976,318.09999999999997,162.25,318.09999999999997L0,318.09999999999997C0,318.09999999999997,0,318.09999999999997,0,318.09999999999997L0,301.9C0,301.9,0,301.9,0,301.9Z" fill="#4c78a8"/><path aria-label="mean execution time in µs: 132; algorithm: (matlab-like) conv 'valid' shape pre padded" role="graphics-symbol" aria-roledescription="bar" d="M0,281.9L161,281.9C163.207660097976,281.9,165,283.692339902024,165,285.9L165,294.09999999999997C165,296.30766009797594,163.207660097976,298.09999999999997,161,298.09999999999997L0,298.09999999999997C0,298.09999999999997,0,298.09999999999997,0,298.09999999999997L0,281.9C0,281.9,0,281.9,0,281.9Z" fill="#4c78a8"/><path aria-label="mean execution time in µs: 141; algorithm: (wilczek) Single" role="graphics-symbol" aria-roledescription="bar" d="M0,321.9L172.25,321.9C174.457660097976,321.9,176.25,323.692339902024,176.25,325.9L176.25,334.09999999999997C176.25,336.30766009797594,174.457660097976,338.09999999999997,172.25,338.09999999999997L0,338.09999999999997C0,338.09999999999997,0,338.09999999999997,0,338.09999999999997L0,321.9C0,321.9,0,321.9,0,321.9Z" fill="#4c78a8"/><path aria-label="mean execution time in µs: 118; algorithm: (wilczek) Inner-Loop Vectorization" role="graphics-symbol" aria-roledescription="bar" d="M0,261.9L143.5,261.9C145.707660097976,261.9,147.5,263.692339902024,147.5,265.9L147.5,274.09999999999997C147.5,276.30766009797594,145.707660097976,278.09999999999997,143.5,278.09999999999997L0,278.09999999999997C0,278.09999999999997,0,278.09999999999997,0,278.09999999999997L0,261.9C0,261.9,0,261.9,0,261.9Z" fill="#4c78a8"/><path aria-label="mean execution time in µs: 102; algorithm: (wilczek) Outer-Loop Vectorization" role="graphics-symbol" aria-roledescription="bar" d="M0,121.9L123.49999999999999,121.9C125.70766009797599,121.9,127.49999999999999,123.692339902024,127.49999999999999,125.9L127.49999999999999,134.1C127.49999999999999,136.307660097976,125.70766009797599,138.1,123.49999999999999,138.1L0,138.1C0,138.1,0,138.1,0,138.1L0,121.9C0,121.9,0,121.9,0,121.9Z" fill="#4c78a8"/><path aria-label="mean execution time in µs: 116; algorithm: (wilczek) Outer- and Inner-Loop Vectorization" role="graphics-symbol" aria-roledescription="bar" d="M0,241.9L141,241.9C143.207660097976,241.9,145,243.692339902024,145,245.9L145,254.10000000000002C145,256.307660097976,143.207660097976,258.1,141,258.1L0,258.1C0,258.1,0,258.1,0,258.1L0,241.9C0,241.9,0,241.9,0,241.9Z" fill="#4c78a8"/><path aria-label="mean execution time in µs: 40; algorithm: (wilczek) AVX NoAlign Inner-Loop Vectorization" role="graphics-symbol" aria-roledescription="bar" d="M0,61.9L46,61.9C48.207660097976,61.9,50,63.692339902023996,50,65.9L50,74.1C50,76.307660097976,48.207660097976,78.1,46,78.1L0,78.1C0,78.1,0,78.1,0,78.1L0,61.9C0,61.9,0,61.9,0,61.9Z" fill="#4c78a8"/><path aria-label="mean execution time in µs: 19; algorithm: (wilczek) AVX NoAlign Outer-Loop Vectorization" role="graphics-symbol" aria-roledescription="bar" d="M0,1.9L19.75,1.9C21.957660097976,1.9,23.75,3.692339902024,23.75,5.9L23.75,14.099999999999998C23.75,16.307660097975997,21.957660097976,18.099999999999998,19.75,18.099999999999998L0,18.099999999999998C0,18.099999999999998,0,18.099999999999998,0,18.099999999999998L0,1.9C0,1.9,0,1.9,0,1.9Z" fill="#4c78a8"/><path aria-label="mean execution time in µs: 32; algorithm: (wilczek) AVX NoAlign Outer- and Inner-Loop Vectorization" role="graphics-symbol" aria-roledescription="bar" d="M0,21.9L36,21.9C38.207660097976,21.9,40,23.692339902024,40,25.9L40,34.099999999999994C40,36.307660097976,38.207660097976,38.099999999999994,36,38.099999999999994L0,38.099999999999994C0,38.099999999999994,0,38.099999999999994,0,38.099999999999994L0,21.9C0,21.9,0,21.9,0,21.9Z" fill="#4c78a8"/><path aria-label="mean execution time in µs: 109; algorithm: (chaowang15) convolve1D" role="graphics-symbol" aria-roledescription="bar" d="M0,141.9L132.25,141.9C134.457660097976,141.9,136.25,143.692339902024,136.25,145.9L136.25,154.1C136.25,156.307660097976,134.457660097976,158.1,132.25,158.1L0,158.1C0,158.1,0,158.1,0,158.1L0,141.9C0,141.9,0,141.9,0,141.9Z" fill="#4c78a8"/></g><g class="mark-text role-mark child_layer_1_marks" role="graphics-object" aria-roledescription="text mark container"><text aria-label="mean execution time in µs: 83; algorithm: kernelPerInputValue Transposed; MeanExecutionTime: 83" role="graphics-symbol" aria-roledescription="text mark" text-anchor="start" transform="translate(107.75000000000001,113)" font-family="sans-serif" font-size="9px" fill="black">83</text><text aria-label="mean execution time in µs: 36; algorithm: inputPerKernelValue Transposed; MeanExecutionTime: 36" role="graphics-symbol" aria-roledescription="text mark" text-anchor="start" transform="translate(49,53)" font-family="sans-serif" font-size="9px" fill="black">36</text><text aria-label="mean execution time in µs: 116; algorithm: inputPerKernelValue Transposed InnerLoopUnrolled; MeanExecutionTime: 116" role="graphics-symbol" aria-roledescription="text mark" text-anchor="start" transform="translate(149,233)" font-family="sans-serif" font-size="9px" fill="black">116</text><text aria-label="mean execution time in µs: 115; algorithm: inputPerKernelValue Transposed OuterLoopUnrolled; MeanExecutionTime: 115" role="graphics-symbol" aria-roledescription="text mark" text-anchor="start" transform="translate(147.75,193)" font-family="sans-serif" font-size="9px" fill="black">115</text><text aria-label="mean execution time in µs: 81; algorithm: inputPerKernelValue Transposed InnerAndOuterLoopUnrolled; MeanExecutionTime: 81" role="graphics-symbol" aria-roledescription="text mark" text-anchor="start" transform="translate(105.25,93)" font-family="sans-serif" font-size="9px" fill="black">81</text><text aria-label="mean execution time in µs: 112; algorithm: inputPerKernelValue Transposed LoopFission; MeanExecutionTime: 112" role="graphics-symbol" aria-roledescription="text mark" text-anchor="start" transform="translate(144,173)" font-family="sans-serif" font-size="9px" fill="black">112</text><text aria-label="mean execution time in µs: 115; algorithm: inputPerKernelValue Transposed LoopFissionIndexArithmetic; MeanExecutionTime: 115" role="graphics-symbol" aria-roledescription="text mark" text-anchor="start" transform="translate(147.75,213)" font-family="sans-serif" font-size="9px" fill="black">115</text><text aria-label="mean execution time in µs: 145; algorithm: kernelPerInputValue Transposed LoopFission; MeanExecutionTime: 145" role="graphics-symbol" aria-roledescription="text mark" text-anchor="start" transform="translate(185.25,353)" font-family="sans-serif" font-size="9px" fill="black">145</text><text aria-label="mean execution time in µs: 133; algorithm: (matlab-like) conv 'full' shape; MeanExecutionTime: 133" role="graphics-symbol" aria-roledescription="text mark" text-anchor="start" transform="translate(170.25,313)" font-family="sans-serif" font-size="9px" fill="black">133</text><text aria-label="mean execution time in µs: 132; algorithm: (matlab-like) conv 'valid' shape pre padded; MeanExecutionTime: 132" role="graphics-symbol" aria-roledescription="text mark" text-anchor="start" transform="translate(169,293)" font-family="sans-serif" font-size="9px" fill="black">132</text><text aria-label="mean execution time in µs: 141; algorithm: (wilczek) Single; MeanExecutionTime: 141" role="graphics-symbol" aria-roledescription="text mark" text-anchor="start" transform="translate(180.25,333)" font-family="sans-serif" font-size="9px" fill="black">141</text><text aria-label="mean execution time in µs: 118; algorithm: (wilczek) Inner-Loop Vectorization; MeanExecutionTime: 118" role="graphics-symbol" aria-roledescription="text mark" text-anchor="start" transform="translate(151.5,273)" font-family="sans-serif" font-size="9px" fill="black">118</text><text aria-label="mean execution time in µs: 102; algorithm: (wilczek) Outer-Loop Vectorization; MeanExecutionTime: 102" role="graphics-symbol" aria-roledescription="text mark" text-anchor="start" transform="translate(131.5,133)" font-family="sans-serif" font-size="9px" fill="black">102</text><text aria-label="mean execution time in µs: 116; algorithm: (wilczek) Outer- and Inner-Loop Vectorization; MeanExecutionTime: 116" role="graphics-symbol" aria-roledescription="text mark" text-anchor="start" transform="translate(149,253)" font-family="sans-serif" font-size="9px" fill="black">116</text><text aria-label="mean execution time in µs: 40; algorithm: (wilczek) AVX NoAlign Inner-Loop Vectorization; MeanExecutionTime: 40" role="graphics-symbol" aria-roledescription="text mark" text-anchor="start" transform="translate(54,73)" font-family="sans-serif" font-size="9px" fill="black">40</text><text aria-label="mean execution time in µs: 19; algorithm: (wilczek) AVX NoAlign Outer-Loop Vectorization; MeanExecutionTime: 19" role="graphics-symbol" aria-roledescription="text mark" text-anchor="start" transform="translate(27.75,13)" font-family="sans-serif" font-size="9px" fill="black">19</text><text aria-label="mean execution time in µs: 32; algorithm: (wilczek) AVX NoAlign Outer- and Inner-Loop Vectorization; MeanExecutionTime: 32" role="graphics-symbol" aria-roledescription="text mark" text-anchor="start" transform="translate(44,33)" font-family="sans-serif" font-size="9px" fill="black">32</text><text aria-label="mean execution time in µs: 109; algorithm: (chaowang15) convolve1D; MeanExecutionTime: 109" role="graphics-symbol" aria-roledescription="text mark" text-anchor="start" transform="translate(140.25,153)" font-family="sans-serif" font-size="9px" fill="black">109</text></g></g><path class="foreground" aria-hidden="true" d="" display="none"/></g><g transform="translate(557,0)"><path class="background" aria-hidden="true" d="M0.5,0.5h200v360h-200Z" stroke="#ddd"/><g><g class="mark-group role-axis" aria-hidden="true"><g transform="translate(0.5,360.5)"><path class="background" aria-hidden="true" d="M0,0h0v0h0Z" pointer-events="none"/><g><g class="mark-rule role-axis-grid" pointer-events="none"><line transform="translate(0,0)" x2="0" y2="-360" stroke="#ddd" stroke-width="1" opacity="1"/><line transform="translate(63,0)" x2="0" y2="-360" stroke="#ddd" stroke-width="1" opacity="1"/><line transform="translate(125,0)" x2="0" y2="-360" stroke="#ddd" stroke-width="1" opacity="1"/><line transform="translate(188,0)" x2="0" y2="-360" stroke="#ddd" stroke-width="1" opacity="1"/></g></g><path class="foreground" aria-hidden="true" d="" pointer-events="none" display="none"/></g></g><g class="mark-group role-axis" role="graphics-symbol" aria-roledescription="axis" aria-label="X-axis titled 'mean execution time in µs' for a linear scale with values from 0 to 16,000"><g transform="translate(0.5,360.5)"><path class="background" aria-hidden="true" d="M0,0h0v0h0Z" pointer-events="none"/><g><g class="mark-rule role-axis-tick" pointer-events="none"><line transform="translate(0,0)" x2="0" y2="5" stroke="#888" stroke-width="1" opacity="1"/><line transform="translate(63,0)" x2="0" y2="5" stroke="#888" stroke-width="1" opacity="1"/><line transform="translate(125,0)" x2="0" y2="5" stroke="#888" stroke-width="1" opacity="1"/><line transform="translate(188,0)" x2="0" y2="5" stroke="#888" stroke-width="1" opacity="1"/></g><g class="mark-text role-axis-label" pointer-events="none"><text text-anchor="start" transform="translate(0,15)" font-family="sans-serif" font-size="10px" fill="#000" opacity="1">0</text><text text-anchor="middle" transform="translate(62.5,15)" font-family="sans-serif" font-size="10px" fill="#000" opacity="1">5,000</text><text text-anchor="middle" transform="translate(125,15)" font-family="sans-serif" font-size="10px" fill="#000" opacity="1">10,000</text><text text-anchor="middle" transform="translate(187.5,15)" font-family="sans-serif" font-size="10px" fill="#000" opacity="1">15,000</text></g><g class="mark-rule role-axis-domain" pointer-events="none"><line transform="translate(0,0)" x2="200" y2="0" stroke="#888" stroke-width="1" opacity="1"/></g><g class="mark-text role-axis-title" pointer-events="none"><text text-anchor="middle" transform="translate(100,30)" font-family="sans-serif" font-size="11px" font-weight="bold" fill="#000" opacity="1">mean execution time in µs</text></g></g><path class="foreground" aria-hidden="true" d="" pointer-events="none" display="none"/></g></g><g class="mark-group role-axis" role="graphics-symbol" aria-roledescription="axis" aria-label="Y-axis titled 'algorithm' for a discrete scale with 18 values: (wilczek) AVX NoAlign Outer- and Inner-Loop Vectorization, kernelPerInputValue Transposed, (wilczek) AVX NoAlign Inner-Loop Vectorization, inputPerKernelValue Transposed, (wilczek) AVX NoAlign Outer-Loop Vectorization, ending with (wilczek) Single"><g transform="translate(0.5,0.5)"><path class="background" aria-hidden="true" d="M0,0h0v0h0Z" pointer-events="none"/><g><g class="mark-rule role-axis-tick" pointer-events="none"><line transform="translate(0,10)" x2="-5" y2="0" stroke="#888" stroke-width="1" opacity="1"/><line transform="translate(0,30)" x2="-5" y2="0" stroke="#888" stroke-width="1" opacity="1"/><line transform="translate(0,50)" x2="-5" y2="0" stroke="#888" stroke-width="1" opacity="1"/><line transform="translate(0,70)" x2="-5" y2="0" stroke="#888" stroke-width="1" opacity="1"/><line transform="translate(0,90)" x2="-5" y2="0" stroke="#888" stroke-width="1" opacity="1"/><line transform="translate(0,110)" x2="-5" y2="0" stroke="#888" stroke-width="1" opacity="1"/><line transform="translate(0,130)" x2="-5" y2="0" stroke="#888" stroke-width="1" opacity="1"/><line transform="translate(0,150)" x2="-5" y2="0" stroke="#888" stroke-width="1" opacity="1"/><line transform="translate(0,170)" x2="-5" y2="0" stroke="#888" stroke-width="1" opacity="1"/><line transform="translate(0,190)" x2="-5" y2="0" stroke="#888" stroke-width="1" opacity="1"/><line transform="translate(0,210)" x2="-5" y2="0" stroke="#888" stroke-width="1" opacity="1"/><line transform="translate(0,230)" x2="-5" y2="0" stroke="#888" stroke-width="1" opacity="1"/><line transform="translate(0,250)" x2="-5" y2="0" stroke="#888" stroke-width="1" opacity="1"/><line transform="translate(0,270)" x2="-5" y2="0" stroke="#888" stroke-width="1" opacity="1"/><line transform="translate(0,290)" x2="-5" y2="0" stroke="#888" stroke-width="1" opacity="1"/><line transform="translate(0,310)" x2="-5" y2="0" stroke="#888" stroke-width="1" opacity="1"/><line transform="translate(0,330)" x2="-5" y2="0" stroke="#888" stroke-width="1" opacity="1"/><line transform="translate(0,350)" x2="-5" y2="0" stroke="#888" stroke-width="1" opacity="1"/></g><g class="mark-text role-axis-label" pointer-events="none"><text text-anchor="end" transform="translate(-7,12.5)" font-family="sans-serif" font-size="10px" fill="#000" opacity="1">(wilczek) AVX NoAlign Outer- and Inner-Loop Vectorization</text><text text-anchor="end" transform="translate(-7,32.5)" font-family="sans-serif" font-size="10px" fill="#000" opacity="1">kernelPerInputValue Transposed</text><text text-anchor="end" transform="translate(-7,52.5)" font-family="sans-serif" font-size="10px" fill="#000" opacity="1">(wilczek) AVX NoAlign Inner-Loop Vectorization</text><text text-anchor="end" transform="translate(-7,72.5)" font-family="sans-serif" font-size="10px" fill="#000" opacity="1">inputPerKernelValue Transposed</text><text text-anchor="end" transform="translate(-7,92.5)" font-family="sans-serif" font-size="10px" fill="#000" opacity="1">(wilczek) AVX NoAlign Outer-Loop Vectorization</text><text text-anchor="end" transform="translate(-7,112.5)" font-family="sans-serif" font-size="10px" fill="#000" opacity="1">inputPerKernelValue Transposed InnerAndOuterLoopUnrolled</text><text text-anchor="end" transform="translate(-7,132.5)" font-family="sans-serif" font-size="10px" fill="#000" opacity="1">inputPerKernelValue Transposed OuterLoopUnrolled</text><text text-anchor="end" transform="translate(-7,152.5)" font-family="sans-serif" font-size="10px" fill="#000" opacity="1">kernelPerInputValue Transposed LoopFission</text><text text-anchor="end" transform="translate(-7,172.5)" font-family="sans-serif" font-size="10px" fill="#000" opacity="1">(wilczek) Outer-Loop Vectorization</text><text text-anchor="end" transform="translate(-7,192.5)" font-family="sans-serif" font-size="10px" fill="#000" opacity="1">inputPerKernelValue Transposed LoopFission</text><text text-anchor="end" transform="translate(-7,212.5)" font-family="sans-serif" font-size="10px" fill="#000" opacity="1">inputPerKernelValue Transposed InnerLoopUnrolled</text><text text-anchor="end" transform="translate(-7,232.5)" font-family="sans-serif" font-size="10px" fill="#000" opacity="1">(wilczek) Outer- and Inner-Loop Vectorization</text><text text-anchor="end" transform="translate(-7,252.5)" font-family="sans-serif" font-size="10px" fill="#000" opacity="1">(wilczek) Inner-Loop Vectorization</text><text text-anchor="end" transform="translate(-7,272.5)" font-family="sans-serif" font-size="10px" fill="#000" opacity="1">inputPerKernelValue Transposed LoopFissionIndexArithmetic</text><text text-anchor="end" transform="translate(-7,292.5)" font-family="sans-serif" font-size="10px" fill="#000" opacity="1">(matlab-like) conv 'full' shape</text><text text-anchor="end" transform="translate(-7,312.5)" font-family="sans-serif" font-size="10px" fill="#000" opacity="1">(chaowang15) convolve1D</text><text text-anchor="end" transform="translate(-7,332.5)" font-family="sans-serif" font-size="10px" fill="#000" opacity="1">(matlab-like) conv 'valid' shape pre padded</text><text text-anchor="end" transform="translate(-7,352.5)" font-family="sans-serif" font-size="10px" fill="#000" opacity="1">(wilczek) Single</text></g><g class="mark-rule role-axis-domain" pointer-events="none"><line transform="translate(0,0)" x2="0" y2="360" stroke="#888" stroke-width="1" opacity="1"/></g><g class="mark-text role-axis-title" pointer-events="none"><text text-anchor="middle" transform="translate(-320,180) rotate(-90) translate(0,-2)" font-family="sans-serif" font-size="11px" font-weight="bold" fill="#000" opacity="1">algorithm</text></g></g><path class="foreground" aria-hidden="true" d="" pointer-events="none" display="none"/></g></g><g class="mark-rect role-mark child_layer_0_marks" role="graphics-object" aria-roledescription="rect mark container"><path aria-label="mean execution time in µs: 1136; algorithm: kernelPerInputValue Transposed" role="graphics-symbol" aria-roledescription="bar" d="M0,21.9L10.2,21.9C12.407660097975999,21.9,14.2,23.692339902024,14.2,25.9L14.2,34.099999999999994C14.2,36.307660097976,12.407660097975999,38.099999999999994,10.2,38.099999999999994L0,38.099999999999994C0,38.099999999999994,0,38.099999999999994,0,38.099999999999994L0,21.9C0,21.9,0,21.9,0,21.9Z" fill="#4c78a8"/><path aria-label="mean execution time in µs: 1791; algorithm: inputPerKernelValue Transposed" role="graphics-symbol" aria-roledescription="bar" d="M0,61.9L18.3875,61.9C20.595160097976,61.9,22.3875,63.692339902023996,22.3875,65.9L22.3875,74.1C22.3875,76.307660097976,20.595160097976,78.1,18.3875,78.1L0,78.1C0,78.1,0,78.1,0,78.1L0,61.9C0,61.9,0,61.9,0,61.9Z" fill="#4c78a8"/><path aria-label="mean execution time in µs: 7282; algorithm: inputPerKernelValue Transposed InnerLoopUnrolled" role="graphics-symbol" aria-roledescription="bar" d="M0,201.9L87.025,201.9C89.23266009797601,201.9,91.025,203.692339902024,91.025,205.9L91.025,214.1C91.025,216.307660097976,89.23266009797601,218.1,87.025,218.1L0,218.1C0,218.1,0,218.1,0,218.1L0,201.9C0,201.9,0,201.9,0,201.9Z" fill="#4c78a8"/><path aria-label="mean execution time in µs: 5516; algorithm: inputPerKernelValue Transposed OuterLoopUnrolled" role="graphics-symbol" aria-roledescription="bar" d="M0,121.9L64.95,121.9C67.157660097976,121.9,68.95,123.692339902024,68.95,125.9L68.95,134.1C68.95,136.307660097976,67.157660097976,138.1,64.95,138.1L0,138.1C0,138.1,0,138.1,0,138.1L0,121.9C0,121.9,0,121.9,0,121.9Z" fill="#4c78a8"/><path aria-label="mean execution time in µs: 5011; algorithm: inputPerKernelValue Transposed InnerAndOuterLoopUnrolled" role="graphics-symbol" aria-roledescription="bar" d="M0,101.9L58.6375,101.9C60.845160097976006,101.9,62.6375,103.692339902024,62.6375,105.9L62.6375,114.10000000000001C62.6375,116.30766009797601,60.845160097976006,118.10000000000001,58.6375,118.10000000000001L0,118.10000000000001C0,118.10000000000001,0,118.10000000000001,0,118.10000000000001L0,101.9C0,101.9,0,101.9,0,101.9Z" fill="#4c78a8"/><path aria-label="mean execution time in µs: 6635; algorithm: inputPerKernelValue Transposed LoopFission" role="graphics-symbol" aria-roledescription="bar" d="M0,181.9L78.9375,181.9C81.145160097976,181.9,82.9375,183.692339902024,82.9375,185.9L82.9375,194.1C82.9375,196.307660097976,81.145160097976,198.1,78.9375,198.1L0,198.1C0,198.1,0,198.1,0,198.1L0,181.9C0,181.9,0,181.9,0,181.9Z" fill="#4c78a8"/><path aria-label="mean execution time in µs: 7744; algorithm: inputPerKernelValue Transposed LoopFissionIndexArithmetic" role="graphics-symbol" aria-roledescription="bar" d="M0,261.9L92.8,261.9C95.007660097976,261.9,96.8,263.692339902024,96.8,265.9L96.8,274.09999999999997C96.8,276.30766009797594,95.007660097976,278.09999999999997,92.8,278.09999999999997L0,278.09999999999997C0,278.09999999999997,0,278.09999999999997,0,278.09999999999997L0,261.9C0,261.9,0,261.9,0,261.9Z" fill="#4c78a8"/><path aria-label="mean execution time in µs: 6251; algorithm: kernelPerInputValue Transposed LoopFission" role="graphics-symbol" aria-roledescription="bar" d="M0,141.9L74.1375,141.9C76.345160097976,141.9,78.1375,143.692339902024,78.1375,145.9L78.1375,154.1C78.1375,156.307660097976,76.345160097976,158.1,74.1375,158.1L0,158.1C0,158.1,0,158.1,0,158.1L0,141.9C0,141.9,0,141.9,0,141.9Z" fill="#4c78a8"/><path aria-label="mean execution time in µs: 14643; algorithm: (matlab-like) conv 'full' shape" role="graphics-symbol" aria-roledescription="bar" d="M0,281.9L179.03750000000002,281.9C181.24516009797603,281.9,183.03750000000002,283.692339902024,183.03750000000002,285.9L183.03750000000002,294.09999999999997C183.03750000000002,296.30766009797594,181.24516009797603,298.09999999999997,179.03750000000002,298.09999999999997L0,298.09999999999997C0,298.09999999999997,0,298.09999999999997,0,298.09999999999997L0,281.9C0,281.9,0,281.9,0,281.9Z" fill="#4c78a8"/><path aria-label="mean execution time in µs: 15409; algorithm: (matlab-like) conv 'valid' shape pre padded" role="graphics-symbol" aria-roledescription="bar" d="M0,321.9L188.6125,321.9C190.82016009797601,321.9,192.6125,323.692339902024,192.6125,325.9L192.6125,334.09999999999997C192.6125,336.30766009797594,190.82016009797601,338.09999999999997,188.6125,338.09999999999997L0,338.09999999999997C0,338.09999999999997,0,338.09999999999997,0,338.09999999999997L0,321.9C0,321.9,0,321.9,0,321.9Z" fill="#4c78a8"/><path aria-label="mean execution time in µs: 15616; algorithm: (wilczek) Single" role="graphics-symbol" aria-roledescription="bar" d="M0,341.9L191.2,341.9C193.407660097976,341.9,195.2,343.692339902024,195.2,345.9L195.2,354.09999999999997C195.2,356.30766009797594,193.407660097976,358.09999999999997,191.2,358.09999999999997L0,358.09999999999997C0,358.09999999999997,0,358.09999999999997,0,358.09999999999997L0,341.9C0,341.9,0,341.9,0,341.9Z" fill="#4c78a8"/><path aria-label="mean execution time in µs: 7414; algorithm: (wilczek) Inner-Loop Vectorization" role="graphics-symbol" aria-roledescription="bar" d="M0,241.9L88.675,241.9C90.882660097976,241.9,92.675,243.692339902024,92.675,245.9L92.675,254.10000000000002C92.675,256.307660097976,90.882660097976,258.1,88.675,258.1L0,258.1C0,258.1,0,258.1,0,258.1L0,241.9C0,241.9,0,241.9,0,241.9Z" fill="#4c78a8"/><path aria-label="mean execution time in µs: 6423; algorithm: (wilczek) Outer-Loop Vectorization" role="graphics-symbol" aria-roledescription="bar" d="M0,161.9L76.2875,161.9C78.495160097976,161.9,80.2875,163.692339902024,80.2875,165.9L80.2875,174.1C80.2875,176.307660097976,78.495160097976,178.1,76.2875,178.1L0,178.1C0,178.1,0,178.1,0,178.1L0,161.9C0,161.9,0,161.9,0,161.9Z" fill="#4c78a8"/><path aria-label="mean execution time in µs: 7312; algorithm: (wilczek) Outer- and Inner-Loop Vectorization" role="graphics-symbol" aria-roledescription="bar" d="M0,221.9L87.4,221.9C89.60766009797601,221.9,91.4,223.692339902024,91.4,225.9L91.4,234.1C91.4,236.307660097976,89.60766009797601,238.1,87.4,238.1L0,238.1C0,238.1,0,238.1,0,238.1L0,221.9C0,221.9,0,221.9,0,221.9Z" fill="#4c78a8"/><path aria-label="mean execution time in µs: 1775; algorithm: (wilczek) AVX NoAlign Inner-Loop Vectorization" role="graphics-symbol" aria-roledescription="bar" d="M0,41.9L18.1875,41.9C20.395160097976,41.9,22.1875,43.692339902023996,22.1875,45.9L22.1875,54.099999999999994C22.1875,56.307660097976,20.395160097976,58.099999999999994,18.1875,58.099999999999994L0,58.099999999999994C0,58.099999999999994,0,58.099999999999994,0,58.099999999999994L0,41.9C0,41.9,0,41.9,0,41.9Z" fill="#4c78a8"/><path aria-label="mean execution time in µs: 1930; algorithm: (wilczek) AVX NoAlign Outer-Loop Vectorization" role="graphics-symbol" aria-roledescription="bar" d="M0,81.9L20.125,81.9C22.332660097976,81.9,24.125,83.692339902024,24.125,85.9L24.125,94.10000000000001C24.125,96.30766009797601,22.332660097976,98.10000000000001,20.125,98.10000000000001L0,98.10000000000001C0,98.10000000000001,0,98.10000000000001,0,98.10000000000001L0,81.9C0,81.9,0,81.9,0,81.9Z" fill="#4c78a8"/><path aria-label="mean execution time in µs: 593; algorithm: (wilczek) AVX NoAlign Outer- and Inner-Loop Vectorization" role="graphics-symbol" aria-roledescription="bar" d="M0,1.9L3.70625,1.9C5.751785059530887,1.9,7.4125,3.5607149404691123,7.4125,5.606249999999999L7.4125,14.393749999999997C7.4125,16.439285059530885,5.751785059530887,18.099999999999998,3.70625,18.099999999999998L0,18.099999999999998C0,18.099999999999998,0,18.099999999999998,0,18.099999999999998L0,1.9C0,1.9,0,1.9,0,1.9Z" fill="#4c78a8"/><path aria-label="mean execution time in µs: 14948; algorithm: (chaowang15) convolve1D" role="graphics-symbol" aria-roledescription="bar" d="M0,301.9L182.85,301.9C185.057660097976,301.9,186.85,303.692339902024,186.85,305.9L186.85,314.09999999999997C186.85,316.30766009797594,185.057660097976,318.09999999999997,182.85,318.09999999999997L0,318.09999999999997C0,318.09999999999997,0,318.09999999999997,0,318.09999999999997L0,301.9C0,301.9,0,301.9,0,301.9Z" fill="#4c78a8"/></g><g class="mark-text role-mark child_layer_1_marks" role="graphics-object" aria-roledescription="text mark container"><text aria-label="mean execution time in µs: 1136; algorithm: kernelPerInputValue Transposed; MeanExecutionTime: 1136" role="graphics-symbol" aria-roledescription="text mark" text-anchor="start" transform="translate(18.2,33)" font-family="sans-serif" font-size="9px" fill="black">1136</text><text aria-label="mean execution time in µs: 1791; algorithm: inputPerKernelValue Transposed; MeanExecutionTime: 1791" role="graphics-symbol" aria-roledescription="text mark" text-anchor="start" transform="translate(26.3875,73)" font-family="sans-serif" font-size="9px" fill="black">1791</text><text aria-label="mean execution time in µs: 7282; algorithm: inputPerKernelValue Transposed InnerLoopUnrolled; MeanExecutionTime: 7282" role="graphics-symbol" aria-roledescription="text mark" text-anchor="start" transform="translate(95.025,213)" font-family="sans-serif" font-size="9px" fill="black">7282</text><text aria-label="mean execution time in µs: 5516; algorithm: inputPerKernelValue Transposed OuterLoopUnrolled; MeanExecutionTime: 5516" role="graphics-symbol" aria-roledescription="text mark" text-anchor="start" transform="translate(72.95,133)" font-family="sans-serif" font-size="9px" fill="black">5516</text><text aria-label="mean execution time in µs: 5011; algorithm: inputPerKernelValue Transposed InnerAndOuterLoopUnrolled; MeanExecutionTime: 5011" role="graphics-symbol" aria-roledescription="text mark" text-anchor="start" transform="translate(66.6375,113)" font-family="sans-serif" font-size="9px" fill="black">5011</text><text aria-label="mean execution time in µs: 6635; algorithm: inputPerKernelValue Transposed LoopFission; MeanExecutionTime: 6635" role="graphics-symbol" aria-roledescription="text mark" text-anchor="start" transform="translate(86.9375,193)" font-family="sans-serif" font-size="9px" fill="black">6635</text><text aria-label="mean execution time in µs: 7744; algorithm: inputPerKernelValue Transposed LoopFissionIndexArithmetic; MeanExecutionTime: 7744" role="graphics-symbol" aria-roledescription="text mark" text-anchor="start" transform="translate(100.8,273)" font-family="sans-serif" font-size="9px" fill="black">7744</text><text aria-label="mean execution time in µs: 6251; algorithm: kernelPerInputValue Transposed LoopFission; MeanExecutionTime: 6251" role="graphics-symbol" aria-roledescription="text mark" text-anchor="start" transform="translate(82.1375,153)" font-family="sans-serif" font-size="9px" fill="black">6251</text><text aria-label="mean execution time in µs: 14643; algorithm: (matlab-like) conv 'full' shape; MeanExecutionTime: 14643" role="graphics-symbol" aria-roledescription="text mark" text-anchor="start" transform="translate(187.03750000000002,293)" font-family="sans-serif" font-size="9px" fill="black">14643</text><text aria-label="mean execution time in µs: 15409; algorithm: (matlab-like) conv 'valid' shape pre padded; MeanExecutionTime: 15409" role="graphics-symbol" aria-roledescription="text mark" text-anchor="start" transform="translate(196.6125,333)" font-family="sans-serif" font-size="9px" fill="black">15409</text><text aria-label="mean execution time in µs: 15616; algorithm: (wilczek) Single; MeanExecutionTime: 15616" role="graphics-symbol" aria-roledescription="text mark" text-anchor="start" transform="translate(199.2,353)" font-family="sans-serif" font-size="9px" fill="black">15616</text><text aria-label="mean execution time in µs: 7414; algorithm: (wilczek) Inner-Loop Vectorization; MeanExecutionTime: 7414" role="graphics-symbol" aria-roledescription="text mark" text-anchor="start" transform="translate(96.675,253)" font-family="sans-serif" font-size="9px" fill="black">7414</text><text aria-label="mean execution time in µs: 6423; algorithm: (wilczek) Outer-Loop Vectorization; MeanExecutionTime: 6423" role="graphics-symbol" aria-roledescription="text mark" text-anchor="start" transform="translate(84.2875,173)" font-family="sans-serif" font-size="9px" fill="black">6423</text><text aria-label="mean execution time in µs: 7312; algorithm: (wilczek) Outer- and Inner-Loop Vectorization; MeanExecutionTime: 7312" role="graphics-symbol" aria-roledescription="text mark" text-anchor="start" transform="translate(95.4,233)" font-family="sans-serif" font-size="9px" fill="black">7312</text><text aria-label="mean execution time in µs: 1775; algorithm: (wilczek) AVX NoAlign Inner-Loop Vectorization; MeanExecutionTime: 1775" role="graphics-symbol" aria-roledescription="text mark" text-anchor="start" transform="translate(26.1875,53)" font-family="sans-serif" font-size="9px" fill="black">1775</text><text aria-label="mean execution time in µs: 1930; algorithm: (wilczek) AVX NoAlign Outer-Loop Vectorization; MeanExecutionTime: 1930" role="graphics-symbol" aria-roledescription="text mark" text-anchor="start" transform="translate(28.125,93)" font-family="sans-serif" font-size="9px" fill="black">1930</text><text aria-label="mean execution time in µs: 593; algorithm: (wilczek) AVX NoAlign Outer- and Inner-Loop Vectorization; MeanExecutionTime: 593" role="graphics-symbol" aria-roledescription="text mark" text-anchor="start" transform="translate(11.4125,13)" font-family="sans-serif" font-size="9px" fill="black">593</text><text aria-label="mean execution time in µs: 14948; algorithm: (chaowang15) convolve1D; MeanExecutionTime: 14948" role="graphics-symbol" aria-roledescription="text mark" text-anchor="start" transform="translate(190.85,313)" font-family="sans-serif" font-size="9px" fill="black">14948</text></g></g><path class="foreground" aria-hidden="true" d="" display="none"/></g></g></g><path class="foreground" aria-hidden="true" d="" display="none"/></g></g></g></svg>